<?plantuml 1.2026.2?><svg xmlns="http://www.w3.org/2000/svg" xmlns:xlink="http://www.w3.org/1999/xlink" contentStyleType="text/css" data-diagram-type="SEQUENCE" height="343px" preserveAspectRatio="none" style="width:1357px;height:343px;background:#FFFFFF;" version="1.1" viewBox="0 0 1357 343" width="1357px" zoomAndPan="magnify"><defs/><g><g><title>CloudFlare</title><rect fill="#FFFFFF" height="203.9297" style="stroke:#181818;stroke-width:1;" width="10" x="355.2124" y="114.7266"/></g><g><title>Render</title><rect fill="#FFFFFF" height="145.6641" style="stroke:#181818;stroke-width:1;" width="10" x="673.6973" y="143.8594"/></g><g><title>ConvocatoriaRepository</title><rect fill="#FFFFFF" height="87.3984" style="stroke:#181818;stroke-width:1;" width="10" x="893.1079" y="172.9922"/></g><g><title>SupaBase</title><rect fill="#FFFFFF" height="29.1328" style="stroke:#181818;stroke-width:1;" width="10" x="1302.2881" y="202.125"/></g><g class="participant-lifeline" data-entity-uid="part1" data-qualified-name="Investigador" id="part1-lifeline"><g><title>Investigador</title><rect fill="#000000" fill-opacity="0.00000" height="253.0625" width="8" x="47.6235" y="83.5938"/><line style="stroke:#181818;stroke-width:0.5;stroke-dasharray:5,5;" x1="51" x2="51" y1="83.5938" y2="336.6563"/></g></g><g class="participant-lifeline" data-entity-uid="part2" data-qualified-name="View" id="part2-lifeline"><g><title>CloudFlare</title><rect fill="#000000" fill-opacity="0.00000" height="253.0625" width="8" x="356.2124" y="83.5938"/><line style="stroke:#181818;stroke-width:0.5;stroke-dasharray:5,5;" x1="359.772" x2="359.772" y1="83.5938" y2="336.6563"/></g></g><g class="participant-lifeline" data-entity-uid="part3" data-qualified-name="Controller" id="part3-lifeline"><g><title>Render</title><rect fill="#000000" fill-opacity="0.00000" height="253.0625" width="8" x="674.6973" y="83.5938"/><line style="stroke:#181818;stroke-width:0.5;stroke-dasharray:5,5;" x1="677.793" x2="677.793" y1="83.5938" y2="336.6563"/></g></g><g class="participant-lifeline" data-entity-uid="part4" data-qualified-name="Repository" id="part4-lifeline"><g><title>ConvocatoriaRepository</title><rect fill="#000000" fill-opacity="0.00000" height="253.0625" width="8" x="894.1079" y="83.5938"/><line style="stroke:#181818;stroke-width:0.5;stroke-dasharray:5,5;" x1="897.2617" x2="897.2617" y1="83.5938" y2="336.6563"/></g></g><g class="participant-lifeline" data-entity-uid="part5" data-qualified-name="DB" id="part5-lifeline"><g><title>SupaBase</title><rect fill="#000000" fill-opacity="0.00000" height="253.0625" width="8" x="1303.2881" y="83.5938"/><line style="stroke:#181818;stroke-width:0.5;stroke-dasharray:5,5;" x1="1306.4497" x2="1306.4497" y1="83.5938" y2="336.6563"/></g></g><g class="participant participant-head" data-entity-uid="part1" data-qualified-name="Investigador" id="part1-head"><text fill="#000000" font-family="sans-serif" font-size="14" lengthAdjust="spacing" textLength="87.2471" x="5" y="80.292">Investigador</text><ellipse cx="51.6235" cy="15.7969" fill="#E2E2F0" rx="8" ry="8" style="stroke:#181818;stroke-width:0.5;"/><path d="M51.6235,23.7969 L51.6235,50.7969 M38.6235,31.7969 L64.6235,31.7969 M51.6235,50.7969 L38.6235,65.7969 M51.6235,50.7969 L64.6235,65.7969" fill="none" style="stroke:#181818;stroke-width:0.5;"/></g><g class="participant participant-head" data-entity-uid="part2" data-qualified-name="View" id="part2-head"><rect fill="#E2E2F0" height="46.5938" rx="2.5" ry="2.5" style="stroke:#181818;stroke-width:0.5;" width="88.8809" x="315.772" y="36"/><text fill="#000000" font-family="sans-serif" font-size="14" lengthAdjust="spacing" textLength="74.8809" x="322.772" y="55.9951">CloudFlare</text><text fill="#000000" font-family="sans-serif" font-size="14" lengthAdjust="spacing" textLength="51.0303" x="334.6973" y="72.292">(React)</text></g><g class="participant participant-head" data-entity-uid="part3" data-qualified-name="Controller" id="part3-head"><rect fill="#E2E2F0" height="46.5938" rx="2.5" ry="2.5" style="stroke:#181818;stroke-width:0.5;" width="69.8086" x="643.793" y="36"/><text fill="#000000" font-family="sans-serif" font-size="14" lengthAdjust="spacing" textLength="50.4697" x="653.4624" y="55.9951">Render</text><text fill="#000000" font-family="sans-serif" font-size="14" lengthAdjust="spacing" textLength="55.8086" x="650.793" y="72.292">(NestJS)</text></g><g class="participant participant-head" data-entity-uid="part4" data-qualified-name="Repository" id="part4-head"><rect fill="#E2E2F0" height="46.5938" rx="2.5" ry="2.5" style="stroke:#181818;stroke-width:0.5;" width="181.6924" x="807.2617" y="36"/><text fill="#000000" font-family="sans-serif" font-size="14" lengthAdjust="spacing" textLength="167.6924" x="814.2617" y="55.9951">ConvocatoriaRepository</text><text fill="#000000" font-family="sans-serif" font-size="14" lengthAdjust="spacing" textLength="78.0869" x="859.0645" y="72.292">(TypeORM)</text></g><g class="participant participant-head" data-entity-uid="part5" data-qualified-name="DB" id="part5-head"><text fill="#000000" font-family="sans-serif" font-size="14" lengthAdjust="spacing" textLength="69.3164" x="1269.6299" y="63.9951">SupaBase</text><text fill="#000000" font-family="sans-serif" font-size="14" lengthAdjust="spacing" textLength="91.6768" x="1258.4497" y="80.292">(PostgreSQL)</text><path d="M1289.2881,15 C1289.2881,5 1307.2881,5 1307.2881,5 C1307.2881,5 1325.2881,5 1325.2881,15 L1325.2881,41 C1325.2881,51 1307.2881,51 1307.2881,51 C1307.2881,51 1289.2881,51 1289.2881,41 L1289.2881,15" fill="#E2E2F0" style="stroke:#181818;stroke-width:0.5;"/><path d="M1289.2881,15 C1289.2881,25 1307.2881,25 1307.2881,25 C1307.2881,25 1325.2881,25 1325.2881,15" fill="none" style="stroke:#181818;stroke-width:0.5;"/></g><g><title>CloudFlare</title><rect fill="#FFFFFF" height="203.9297" style="stroke:#181818;stroke-width:1;" width="10" x="355.2124" y="114.7266"/></g><g><title>Render</title><rect fill="#FFFFFF" height="145.6641" style="stroke:#181818;stroke-width:1;" width="10" x="673.6973" y="143.8594"/></g><g><title>ConvocatoriaRepository</title><rect fill="#FFFFFF" height="87.3984" style="stroke:#181818;stroke-width:1;" width="10" x="893.1079" y="172.9922"/></g><g><title>SupaBase</title><rect fill="#FFFFFF" height="29.1328" style="stroke:#181818;stroke-width:1;" width="10" x="1302.2881" y="202.125"/></g><g class="message" data-entity-1="part1" data-entity-2="part2" id="msg1"><polygon fill="#181818" points="343.2124,110.7266,353.2124,114.7266,343.2124,118.7266" style="stroke:#181818;stroke-width:1;"/><line style="stroke:#181818;stroke-width:1;" x1="51.6235" x2="349.2124" y1="114.7266" y2="114.7266"/><text fill="#000000" font-family="sans-serif" font-size="13" lengthAdjust="spacing" textLength="222.8281" x="58.6235" y="109.6606">abrirConvocatoria(convocatoriaId)</text></g><g class="message" data-entity-1="part2" data-entity-2="part3" id="msg2"><polygon fill="#181818" points="661.6973,139.8594,671.6973,143.8594,661.6973,147.8594" style="stroke:#181818;stroke-width:1;"/><line style="stroke:#181818;stroke-width:1;" x1="365.2124" x2="667.6973" y1="143.8594" y2="143.8594"/><text fill="#000000" font-family="sans-serif" font-size="13" lengthAdjust="spacing" textLength="289.4849" x="372.2124" y="138.7935">obtenerDetalleConvocatoria(convocatoriaId)</text></g><g class="message" data-entity-1="part3" data-entity-2="part4" id="msg3"><polygon fill="#181818" points="881.1079,168.9922,891.1079,172.9922,881.1079,176.9922" style="stroke:#181818;stroke-width:1;"/><line style="stroke:#181818;stroke-width:1;" x1="683.6973" x2="887.1079" y1="172.9922" y2="172.9922"/><text fill="#000000" font-family="sans-serif" font-size="13" lengthAdjust="spacing" textLength="190.4106" x="690.6973" y="167.9263">obtenerPorId(convocatoriaId)</text></g><g class="message" data-entity-1="part4" data-entity-2="part5" id="msg4"><polygon fill="#181818" points="1290.2881,198.125,1300.2881,202.125,1290.2881,206.125" style="stroke:#181818;stroke-width:1;"/><line style="stroke:#181818;stroke-width:1;" x1="903.1079" x2="1296.2881" y1="202.125" y2="202.125"/><text fill="#000000" font-family="sans-serif" font-size="13" lengthAdjust="spacing" textLength="380.1802" x="910.1079" y="197.0591">SELECT * FROM convocatorias WHERE id = convocatoriaId</text></g><g class="message" data-entity-1="part5" data-entity-2="part4" id="msg5"><polygon fill="#181818" points="914.1079,227.2578,904.1079,231.2578,914.1079,235.2578" style="stroke:#181818;stroke-width:1;"/><line style="stroke:#181818;stroke-width:1;stroke-dasharray:2,2;" x1="908.1079" x2="1306.2881" y1="231.2578" y2="231.2578"/><text fill="#000000" font-family="sans-serif" font-size="13" lengthAdjust="spacing" textLength="160.3418" x="920.1079" y="226.1919">datos de la convocatoria</text></g><g class="message" data-entity-1="part4" data-entity-2="part3" id="msg6"><polygon fill="#181818" points="694.6973,256.3906,684.6973,260.3906,694.6973,264.3906" style="stroke:#181818;stroke-width:1;"/><line style="stroke:#181818;stroke-width:1;stroke-dasharray:2,2;" x1="688.6973" x2="897.1079" y1="260.3906" y2="260.3906"/><text fill="#000000" font-family="sans-serif" font-size="13" lengthAdjust="spacing" textLength="86.0044" x="700.6973" y="255.3247">Convocatoria</text></g><g class="message" data-entity-1="part3" data-entity-2="part2" id="msg7"><polygon fill="#181818" points="376.2124,285.5234,366.2124,289.5234,376.2124,293.5234" style="stroke:#181818;stroke-width:1;"/><line style="stroke:#181818;stroke-width:1;stroke-dasharray:2,2;" x1="370.2124" x2="677.6973" y1="289.5234" y2="289.5234"/><text fill="#000000" font-family="sans-serif" font-size="13" lengthAdjust="spacing" textLength="86.0044" x="382.2124" y="284.4575">Convocatoria</text></g><g class="message" data-entity-1="part2" data-entity-2="part1" id="msg8"><polygon fill="#181818" points="62.6235,314.6563,52.6235,318.6563,62.6235,322.6563" style="stroke:#181818;stroke-width:1;"/><line style="stroke:#181818;stroke-width:1;stroke-dasharray:2,2;" x1="56.6235" x2="359.2124" y1="318.6563" y2="318.6563"/><text fill="#000000" font-family="sans-serif" font-size="13" lengthAdjust="spacing" textLength="279.5889" x="68.6235" y="313.5903">mostrarDetalleConvocatoria(Convocatoria)</text></g><?plantuml-src ZPB1Ri8m38RlUGgB4vt42o1j1qeHJ31OYxRBBgQnKBGqgPB0nDlFq4DTDAHTegJz_o_sxyHlureCs41C5qky1bEdKsCLria7MBapnMIEg7rGB4ocDYsw1AFS-fDUM0pqvSObiJmR0KRuCFGpL9RaD0LMlJ7gjUfakNSfU6lf7klTsTV8TniigVNHyFR2vlsbfMsvwTpz7wKnuG4ZmQWwjJZZ7OjtFgPZeEfztUddCwLaAp1vkHKAKy13C47UEgx5OQMpQnBcZ8cwrjJDn_w-0wRuGo97OKu9-Sl_S2829M2CxjlhqJiVLlenJ2IYX9rXynb3gc9Tv7juWaMvtO2aHFXS5cK1HiCp3F4z_PeVSoRtjN7uFe8ci3ZmAaq3hwpeFhhyWKzs9EFfH_V8AOFjfiMUmVYdqF0B2VZdmEGXazmhwnS0?></g></svg>