<?xml version="1.0" encoding="us-ascii" standalone="no"?><svg xmlns="http://www.w3.org/2000/svg" xmlns:xlink="http://www.w3.org/1999/xlink" contentStyleType="text/css" height="1011px" preserveAspectRatio="none" style="width:666px;height:1011px;background:#FFFFFF;" version="1.1" viewBox="0 0 666 1011" width="666px" zoomAndPan="magnify"><defs/><g><g id="in1"><rect fill="#F1F1F1" height="50" rx="12.5" ry="12.5" style="stroke:#181818;stroke-width:0.5;" width="198" x="198" y="7"/><line style="stroke:#181818;stroke-width:0.5;" x1="198" x2="396" y1="34.6094" y2="34.6094"/><text fill="#000000" font-family="sans-serif" font-size="14" lengthAdjust="spacing" textLength="178" x="208" y="26.5332">ENTREGABLES_ABIERTOS</text></g><path d="M116.5,118 L477.5,118 A12.5,12.5 0 0 1 490,130.5 L490,145.6094 L104,145.6094 L104,130.5 A12.5,12.5 0 0 1 116.5,118 " fill="#F1F1F1" style="stroke:#F1F1F1;stroke-width:1.0;"/><rect fill="none" height="740.6094" rx="12.5" ry="12.5" style="stroke:#181818;stroke-width:0.5;" width="386" x="104" y="118"/><line style="stroke:#181818;stroke-width:0.5;" x1="104" x2="490" y1="145.6094" y2="145.6094"/><text fill="#000000" font-family="sans-serif" font-size="14" lengthAdjust="spacing" textLength="108" x="243" y="137.5332">abrirEntregable()</text><g id="abrirEntregable.SolicitandoApertura"><rect fill="#F1F1F1" height="50" rx="12.5" ry="12.5" style="stroke:#181818;stroke-width:0.5;" width="50" x="116" y="248.6094"/><line style="stroke:#181818;stroke-width:0.5;" x1="116" x2="166" y1="276.2188" y2="276.2188"/><text fill="#000000" font-family="sans-serif" font-size="14" lengthAdjust="spacing" textLength="4" x="139" y="268.1426">&#160;</text></g><g id="abrirEntregable.MostrandoListado"><rect fill="#F1F1F1" height="50" rx="12.5" ry="12.5" style="stroke:#181818;stroke-width:0.5;" width="50" x="116" y="582.6094"/><line style="stroke:#181818;stroke-width:0.5;" x1="116" x2="166" y1="610.2188" y2="610.2188"/><text fill="#000000" font-family="sans-serif" font-size="14" lengthAdjust="spacing" textLength="4" x="139" y="602.1426">&#160;</text></g><g id="abrirEntregable.SolicitandoEntregable"><rect fill="#F1F1F1" height="50" rx="12.5" ry="12.5" style="stroke:#181818;stroke-width:0.5;" width="50" x="116" y="704.6094"/><line style="stroke:#181818;stroke-width:0.5;" x1="116" x2="166" y1="732.2188" y2="732.2188"/><text fill="#000000" font-family="sans-serif" font-size="14" lengthAdjust="spacing" textLength="4" x="139" y="724.1426">&#160;</text></g><ellipse cx="141" cy="166.6094" fill="#222222" rx="10" ry="10" style="stroke:#222222;stroke-width:1.0;"/><ellipse cx="141" cy="837.6094" fill="none" rx="11" ry="11" style="stroke:#222222;stroke-width:1.0;"/><ellipse cx="141" cy="837.6094" fill="#222222" rx="6" ry="6" style="stroke:#222222;stroke-width:1.0;"/><!--link *start*abrirEntregable to SolicitandoApertura--><g id="link_*start*abrirEntregable_SolicitandoApertura"><path d="M141,176.9294 C141,192.7894 141,219.5194 141,242.2494 " fill="none" id="*start*abrirEntregable-to-SolicitandoApertura" style="stroke:#008000;stroke-width:1.0;"/><polygon fill="#008000" points="141,248.2494,145,239.2494,141,243.2494,137,239.2494,141,248.2494" style="stroke:#008000;stroke-width:1.0;"/><path d="M146,199.6094 L146,225.6094 L401,225.6094 L401,209.6094 L391,199.6094 L146,199.6094 " fill="#FEFFDD" style="stroke:#181818;stroke-width:0.5;"/><path d="M391,199.6094 L391,209.6094 L401,209.6094 L391,199.6094 " fill="#FEFFDD" style="stroke:#181818;stroke-width:0.5;"/><text fill="#000000" font-family="sans-serif" font-size="13" font-weight="bold" lengthAdjust="spacing" textLength="78" x="152" y="218.1045">Investigador</text><text fill="#000000" font-family="sans-serif" font-size="13" lengthAdjust="spacing" textLength="152" x="234" y="218.1045">solicita abrir un entregable</text></g><!--link SolicitandoApertura to MostrandoListado--><g id="link_SolicitandoApertura_MostrandoListado"><path d="M141,298.7494 C141,360.0794 141,515.3294 141,576.5594 " fill="none" id="SolicitandoApertura-to-MostrandoListado" style="stroke:#008000;stroke-width:1.0;"/><polygon fill="#008000" points="141,582.5594,145,573.5594,141,577.5594,137,573.5594,141,582.5594" style="stroke:#008000;stroke-width:1.0;"/><path d="M146,321.6094 L146,559.6094 L481,559.6094 L481,331.6094 L471,321.6094 L146,321.6094 " fill="#FEFFDD" style="stroke:#181818;stroke-width:0.5;"/><path d="M471,321.6094 L471,331.6094 L481,331.6094 L471,321.6094 " fill="#FEFFDD" style="stroke:#181818;stroke-width:0.5;"/><text fill="#000000" font-family="sans-serif" font-size="13" font-weight="bold" lengthAdjust="spacing" textLength="51" x="152" y="340.1045">Sistema</text><text fill="#000000" font-family="sans-serif" font-size="13" lengthAdjust="spacing" textLength="259" x="207" y="340.1045">presenta y visualiza el listado de entregables</text><text fill="#000000" font-family="sans-serif" font-size="13" font-weight="bold" lengthAdjust="spacing" textLength="51" x="152" y="356.4561">Sistema</text><text fill="#000000" font-family="sans-serif" font-size="13" lengthAdjust="spacing" textLength="121" x="207" y="356.4561">muestra informaci&#243;n:</text><text fill="#000000" font-family="sans-serif" font-size="13" lengthAdjust="spacing" textLength="21" x="152" y="372.8076">&#8226; ID</text><text fill="#000000" font-family="sans-serif" font-size="13" lengthAdjust="spacing" textLength="40" x="152" y="389.1592">&#8226; T&#237;tulo</text><text fill="#000000" font-family="sans-serif" font-size="13" lengthAdjust="spacing" textLength="33" x="152" y="405.5107">&#8226; Tipo</text><text fill="#000000" font-family="sans-serif" font-size="13" lengthAdjust="spacing" textLength="80" x="152" y="421.8623">&#8226; Fecha l&#237;mite</text><text fill="#000000" font-family="sans-serif" font-size="13" lengthAdjust="spacing" textLength="50" x="152" y="438.2139">&#8226; Estado</text><text fill="#000000" font-family="sans-serif" font-size="13" lengthAdjust="spacing" textLength="137" x="152" y="454.5654">&#8226; Descripci&#243;n (si aplica)</text><text fill="#000000" font-family="sans-serif" font-size="13" lengthAdjust="spacing" textLength="157" x="152" y="470.917">&#8226; Archivo adjunto (si aplica)</text><text fill="#000000" font-family="sans-serif" font-size="13" lengthAdjust="spacing" textLength="4" x="152" y="487.2686">&#160;</text><text fill="#000000" font-family="sans-serif" font-size="13" font-weight="bold" lengthAdjust="spacing" textLength="51" x="152" y="503.6201">Sistema</text><text fill="#000000" font-family="sans-serif" font-size="13" lengthAdjust="spacing" textLength="96" x="207" y="503.6201">permite solicitar:</text><text fill="#000000" font-family="sans-serif" font-size="13" lengthAdjust="spacing" textLength="107" x="152" y="519.9717">&#8226; Editar entregable</text><text fill="#000000" font-family="sans-serif" font-size="13" lengthAdjust="spacing" textLength="120" x="152" y="536.3232">&#8226; Eliminar entregable</text><text fill="#000000" font-family="sans-serif" font-size="13" lengthAdjust="spacing" textLength="126" x="152" y="552.6748">&#8226; Volver a entregables</text></g><!--link MostrandoListado to SolicitandoEntregable--><g id="link_MostrandoListado_SolicitandoEntregable"><path d="M141,632.8894 C141,653.7094 141,677.5494 141,698.3594 " fill="none" id="MostrandoListado-to-SolicitandoEntregable" style="stroke:#008000;stroke-width:1.0;"/><polygon fill="#008000" points="141,704.3594,145,695.3594,141,699.3594,137,695.3594,141,704.3594" style="stroke:#008000;stroke-width:1.0;"/><path d="M146,655.6094 L146,681.6094 L464,681.6094 L464,665.6094 L454,655.6094 L146,655.6094 " fill="#FEFFDD" style="stroke:#181818;stroke-width:0.5;"/><path d="M454,655.6094 L454,665.6094 L464,665.6094 L454,655.6094 " fill="#FEFFDD" style="stroke:#181818;stroke-width:0.5;"/><text fill="#000000" font-family="sans-serif" font-size="13" font-weight="bold" lengthAdjust="spacing" textLength="78" x="152" y="674.1045">Investigador</text><text fill="#000000" font-family="sans-serif" font-size="13" lengthAdjust="spacing" textLength="215" x="234" y="674.1045">solicita abrir un entregable del listado</text></g><!--link SolicitandoEntregable to *end*abrirEntregable--><g id="link_SolicitandoEntregable_*end*abrirEntregable"><path d="M141,754.6594 C141,777.2594 141,803.9894 141,820.4094 " fill="none" id="SolicitandoEntregable-to-*end*abrirEntregable" style="stroke:#008000;stroke-width:1.0;"/><polygon fill="#008000" points="141,826.4094,145,817.4094,141,821.4094,137,817.4094,141,826.4094" style="stroke:#008000;stroke-width:1.0;"/><path d="M146,777.6094 L146,803.6094 L473,803.6094 L473,787.6094 L463,777.6094 L146,777.6094 " fill="#FEFFDD" style="stroke:#181818;stroke-width:0.5;"/><path d="M463,777.6094 L463,787.6094 L473,787.6094 L463,777.6094 " fill="#FEFFDD" style="stroke:#181818;stroke-width:0.5;"/><text fill="#000000" font-family="sans-serif" font-size="13" font-weight="bold" lengthAdjust="spacing" textLength="51" x="152" y="796.1045">Sistema</text><text fill="#000000" font-family="sans-serif" font-size="13" lengthAdjust="spacing" textLength="251" x="207" y="796.1045">presenta y visualiza el entregable solicitado</text></g><g id="ENTREGABLE_ABIERTO"><rect fill="#F1F1F1" height="50" rx="12.5" ry="12.5" style="stroke:#181818;stroke-width:0.5;" width="180" x="7" y="955"/><line style="stroke:#181818;stroke-width:0.5;" x1="7" x2="187" y1="982.6094" y2="982.6094"/><text fill="#000000" font-family="sans-serif" font-size="14" lengthAdjust="spacing" textLength="160" x="17" y="974.5332">ENTREGABLE_ABIERTO</text></g><g id="ENTREGABLES_ABIERTOS"><rect fill="#F1F1F1" height="50" rx="12.5" ry="12.5" style="stroke:#181818;stroke-width:0.5;" width="198" x="378" y="955"/><line style="stroke:#181818;stroke-width:0.5;" x1="378" x2="576" y1="982.6094" y2="982.6094"/><text fill="#000000" font-family="sans-serif" font-size="14" lengthAdjust="spacing" textLength="178" x="388" y="974.5332">ENTREGABLES_ABIERTOS</text></g><!--link in1 to abrirEntregable--><g id="link_in1_abrirEntregable"><path d="M297,57.11 C297,71.98 297,86.91 297,111.62 " fill="none" id="in1-to-abrirEntregable" style="stroke:#008000;stroke-width:1.0;"/><polygon fill="#008000" points="297,117.62,301,108.62,297,112.62,293,108.62,297,117.62" style="stroke:#008000;stroke-width:1.0;"/></g><!--link abrirEntregable to ENTREGABLE_ABIERTO--><g id="link_abrirEntregable_ENTREGABLE_ABIERTO"><path d="M103.89,780.63 C63.05,842.19 32,889 32,889 C32,889 32,925 32,925 C32,925 46.0046,936.6362 63.3046,951.0062 " fill="none" id="abrirEntregable-to-ENTREGABLE_ABIERTO" style="stroke:#008000;stroke-width:1.0;"/><polygon fill="#008000" points="67.92,954.84,63.5527,946.0124,64.0738,951.6452,58.441,952.1663,67.92,954.84" style="stroke:#008000;stroke-width:1.0;"/><path d="M37,894 L37,920 L163,920 L163,904 L153,894 L37,894 " fill="#FEFFDD" style="stroke:#181818;stroke-width:0.5;"/><path d="M153,894 L153,904 L163,904 L153,894 " fill="#FEFFDD" style="stroke:#181818;stroke-width:0.5;"/><text fill="#000000" font-family="sans-serif" font-size="13" lengthAdjust="spacing" textLength="105" x="43" y="912.4951">Entregable abierto</text></g><!--link abrirEntregable to ENTREGABLE_ABIERTO--><g id="link_abrirEntregable_ENTREGABLE_ABIERTO"><path d="M190.85,859.33 C179.51,898.83 172,925 172,925 C172,925 155.3902,936.9655 135.4202,951.3355 " fill="none" id="abrirEntregable-to-ENTREGABLE_ABIERTO-1" style="stroke:#008000;stroke-width:1.0;"/><polygon fill="#008000" points="130.55,954.84,140.1916,952.8301,134.6085,951.9196,135.5189,946.3365,130.55,954.84" style="stroke:#008000;stroke-width:1.0;"/><path d="M186,894 L186,920 L309,920 L309,904 L299,894 L186,894 " fill="#FEFFDD" style="stroke:#181818;stroke-width:0.5;"/><path d="M299,894 L299,904 L309,904 L299,894 " fill="#FEFFDD" style="stroke:#181818;stroke-width:0.5;"/><text fill="#000000" font-family="sans-serif" font-size="13" lengthAdjust="spacing" textLength="102" x="192" y="912.4951">editarEntregable()</text></g><!--link abrirEntregable to ENTREGABLES_ABIERTOS--><g id="link_abrirEntregable_ENTREGABLES_ABIERTOS"><path d="M368.33,859.33 C375.95,898.83 381,925 381,925 C381,925 403.2599,937.5296 428.8199,951.8996 " fill="none" id="abrirEntregable-to-ENTREGABLES_ABIERTOS" style="stroke:#008000;stroke-width:1.0;"/><polygon fill="#008000" points="434.05,954.84,428.1651,946.9427,429.6916,952.3897,424.2446,953.9161,434.05,954.84" style="stroke:#008000;stroke-width:1.0;"/><path d="M386,894 L386,920 L522,920 L522,904 L512,894 L386,894 " fill="#FEFFDD" style="stroke:#181818;stroke-width:0.5;"/><path d="M512,894 L512,904 L522,904 L512,894 " fill="#FEFFDD" style="stroke:#181818;stroke-width:0.5;"/><text fill="#000000" font-family="sans-serif" font-size="13" lengthAdjust="spacing" textLength="115" x="392" y="912.4951">eliminarEntregable()</text></g><!--link abrirEntregable to ENTREGABLES_ABIERTOS--><g id="link_abrirEntregable_ENTREGABLES_ABIERTOS"><path d="M490.24,819.41 C514.49,860.81 531,889 531,889 C531,889 531,925 531,925 C531,925 519.7726,936.2274 505.4026,950.5974 " fill="none" id="abrirEntregable-to-ENTREGABLES_ABIERTOS-1" style="stroke:#008000;stroke-width:1.0;"/><polygon fill="#008000" points="501.16,954.84,510.3524,951.3045,504.6955,951.3045,504.6955,945.6476,501.16,954.84" style="stroke:#008000;stroke-width:1.0;"/><path d="M536,894 L536,920 L659,920 L659,904 L649,894 L536,894 " fill="#FEFFDD" style="stroke:#181818;stroke-width:0.5;"/><path d="M649,894 L649,904 L659,904 L649,894 " fill="#FEFFDD" style="stroke:#181818;stroke-width:0.5;"/><text fill="#000000" font-family="sans-serif" font-size="13" lengthAdjust="spacing" textLength="102" x="542" y="912.4951">abrirEntregables()</text></g><!--SRC=[jLJ1Qjmm4BthAuRj9Ic4qci82nlYXeKqXUpIImXbR4ytqyYIaUI5RIdqMthFgP-mVz8lgQHDRDbn0c6fVV6CPjvxencFlMDLey4A92jocvgWrd8J326iGqV0wZsWXKbskRpApcUd5zdYo-nqdbqjFoqc8fmUNRzP6I9rSpG5p0sRJ3b3Aynb2p9mHy21x-1m0Z-40F_iSYR-zN4BBRbWXwhKivgCQmm-3VgehJCXv8AzlzGlmgJoGjprsvjU3SynAktXj0fNTHST9_bqhjPa7Qyyfpbvbq_1FYJlIeP60NLq8ObK6P5st2DSFIsZXOq9MVXpgZ1gg0rPpugmWJNR1YL_Ho3fuoC6b9I8icC8LKE1rpV_gpOL5hpzeuvZuDzVls5-rdukj_UkaRgpkUwC3rJS8iZjVSMEMc_M5HBCCxA5uJfIm85bmDfV2Hws0JDJtF9Q0vRV6kLqBsQqUZA1h-s4wOHdPR277OadaYjMusUVjLoJ0NnoQVrM3blrt4nbVOQzfygtistjonEM_82fDZ__UurL8kLHvr39Jo66Ao1LqEsMnzKYUcBIpP6p_qsqw8hS1vZYGAHBwDN0tJOSG3zCr7y17sJR5FeV]--></g></svg>