<?plantuml 1.2026.2?><svg xmlns="http://www.w3.org/2000/svg" xmlns:xlink="http://www.w3.org/1999/xlink" contentStyleType="text/css" data-diagram-type="DESCRIPTION" height="408px" preserveAspectRatio="none" style="width:1510px;height:408px;background:#FFFFFF;" version="1.1" viewBox="0 0 1510 408" width="1510px" zoomAndPan="magnify"><defs/><g><!--cluster abrirEntregable--><g class="cluster" data-qualified-name="abrirEntregable" data-source-line="10" id="ent0004"><path d="M199.5,6 L318.168,6 A3.75,3.75 0 0 1 320.668,8.5 L327.668,25.9688 L581.5,25.9688 A2.5,2.5 0 0 1 584,28.4688 L584,398.5 A2.5,2.5 0 0 1 581.5,401 L199.5,401 A2.5,2.5 0 0 1 197,398.5 L197,8.5 A2.5,2.5 0 0 1 199.5,6" fill="none" style="stroke:#000000;stroke-width:1.5;"/><line style="stroke:#000000;stroke-width:1.5;" x1="197" x2="327.668" y1="25.9688" y2="25.9688"/><text fill="#000000" font-family="sans-serif" font-size="12" font-weight="bold" lengthAdjust="spacing" textLength="117.668" x="201" y="19.1387">abrirEntregable()</text></g><!--entity DetalleEntregableView--><g class="entity" data-qualified-name="abrirEntregable.DetalleEntregableView" data-source-line="11" id="ent0005"><rect fill="#629EF9" height="33.9688" rx="2.5" ry="2.5" style="stroke:#181818;stroke-width:0.5;" width="156.9863" x="410.5" y="38"/><text fill="#000000" font-family="sans-serif" font-size="12" lengthAdjust="spacing" textLength="136.9863" x="420.5" y="59.1387">DetalleEntregableView</text></g><!--entity EntregableController--><g class="entity" data-qualified-name="abrirEntregable.EntregableController" data-source-line="12" id="ent0006"><rect fill="#B5BD68" height="33.9688" rx="2.5" ry="2.5" style="stroke:#181818;stroke-width:0.5;" width="144.8047" x="214.5" y="147"/><text fill="#000000" font-family="sans-serif" font-size="12" lengthAdjust="spacing" textLength="124.8047" x="224.5" y="168.1387">EntregableController</text></g><!--entity EntregableRepository--><g class="entity" data-qualified-name="abrirEntregable.EntregableRepository" data-source-line="13" id="ent0007"><rect fill="#F2AC4E" height="33.9688" rx="2.5" ry="2.5" style="stroke:#181818;stroke-width:0.5;" width="149.8613" x="213" y="256"/><text fill="#000000" font-family="sans-serif" font-size="12" lengthAdjust="spacing" textLength="129.8613" x="223" y="277.1387">EntregableRepository</text></g><!--entity Entregable--><g class="entity" data-qualified-name="abrirEntregable.Entregable" data-source-line="14" id="ent0008"><rect fill="#F2AC4E" height="33.9688" rx="2.5" ry="2.5" style="stroke:#181818;stroke-width:0.5;" width="85.5137" x="245" y="351"/><text fill="#000000" font-family="sans-serif" font-size="12" lengthAdjust="spacing" textLength="65.5137" x="255" y="372.1387">Entregable</text></g><!--entity EntregablesAbiertos--><g class="entity" data-qualified-name="EntregablesAbiertos" data-source-line="7" id="ent0002"><rect fill="#CDEBA5" height="33.9688" rx="2.5" ry="2.5" style="stroke:#181818;stroke-width:0.5;" width="173.7266" x="7" y="38"/><text fill="#000000" font-family="sans-serif" font-size="12" lengthAdjust="spacing" textLength="153.7266" x="17" y="59.1387">ENTREGABLES_ABIERTOS</text></g><!--entity EntregableAbierto--><g class="entity" data-qualified-name="EntregableAbierto" data-source-line="8" id="ent0003"><rect fill="#CDEBA5" height="33.9688" rx="2.5" ry="2.5" style="stroke:#181818;stroke-width:0.5;" width="158.4922" x="600" y="147"/><text fill="#000000" font-family="sans-serif" font-size="12" lengthAdjust="spacing" textLength="138.4922" x="610" y="168.1387">ENTREGABLE_ABIERTO</text></g><!--entity EditarEntregable--><g class="entity" data-qualified-name="EditarEntregable" data-source-line="17" id="ent0009"><rect fill="#CDEBA5" height="33.9688" rx="2.5" ry="2.5" style="stroke:#181818;stroke-width:0.5;" width="208.8711" x="793.5" y="147"/><text fill="#000000" font-family="sans-serif" font-size="12" lengthAdjust="spacing" textLength="188.8711" x="803.5" y="168.1387">:Collaboration EditarEntregable</text></g><!--entity EliminarEntregable--><g class="entity" data-qualified-name="EliminarEntregable" data-source-line="18" id="ent0010"><rect fill="#CDEBA5" height="33.9688" rx="2.5" ry="2.5" style="stroke:#181818;stroke-width:0.5;" width="222.5117" x="1037.5" y="147"/><text fill="#000000" font-family="sans-serif" font-size="12" lengthAdjust="spacing" textLength="202.5117" x="1047.5" y="168.1387">:Collaboration EliminarEntregable</text></g><!--entity AbrirEntregables--><g class="entity" data-qualified-name="AbrirEntregables" data-source-line="19" id="ent0011"><rect fill="#CDEBA5" height="33.9688" rx="2.5" ry="2.5" style="stroke:#181818;stroke-width:0.5;" width="208.625" x="1295.5" y="147"/><text fill="#000000" font-family="sans-serif" font-size="12" lengthAdjust="spacing" textLength="188.625" x="1305.5" y="168.1387">:Collaboration AbrirEntregables</text></g><!--link EntregablesAbiertos to DetalleEntregableView--><g class="link" data-entity-1="ent0002" data-entity-2="ent0005" data-link-type="dependency" data-source-line="21" id="lnk12"><path d="M181.17,55 C249.67,55 338.24,55 404.42,55" fill="none" id="EntregablesAbiertos-to-DetalleEntregableView" style="stroke:#181818;stroke-width:1;"/><polygon fill="#181818" points="410.42,55,401.42,51,405.42,55,401.42,59,410.42,55" style="stroke:#181818;stroke-width:1;"/><text fill="#000000" font-family="sans-serif" font-size="12" lengthAdjust="spacing" textLength="179.5195" x="206.25" y="49.1387">abrirEntregable(entregableId)</text></g><!--link DetalleEntregableView to EntregableController--><g class="link" data-entity-1="ent0005" data-entity-2="ent0006" data-link-type="dependency" data-source-line="23" id="lnk13"><path d="M410.42,71 C340.09,84.42 248,102 248,102 C248,102 248,117 248,117 C248,117 258.2283,129.0748 269.4783,142.3348" fill="none" id="DetalleEntregableView-to-EntregableController" style="stroke:#181818;stroke-width:1;"/><polygon fill="#181818" points="273.36,146.91,270.5876,137.4594,270.1253,143.0973,264.4873,142.635,273.36,146.91" style="stroke:#181818;stroke-width:1;"/><text fill="#000000" font-family="sans-serif" font-size="12" lengthAdjust="spacing" textLength="318.2344" x="249" y="114.1387">obtenerDetalleEntregable(entregableId) : Entregable</text></g><!--link EntregableController to EntregableRepository--><g class="link" data-entity-1="ent0006" data-entity-2="ent0007" data-link-type="dependency" data-source-line="24" id="lnk14"><path d="M287.15,181.25 C287.34,201.48 287.6034,229.8103 287.7934,249.9503" fill="none" id="EntregableController-to-EntregableRepository" style="stroke:#181818;stroke-width:1;"/><polygon fill="#181818" points="287.85,255.95,291.7649,246.9127,287.8028,250.9502,283.7653,246.9881,287.85,255.95" style="stroke:#181818;stroke-width:1;"/><text fill="#000000" font-family="sans-serif" font-size="12" lengthAdjust="spacing" textLength="240.6563" x="288" y="223.1387">obtenerPorId(entregableId) : Entregable</text></g><!--link EntregableRepository to Entregable--><g class="link" data-entity-1="ent0007" data-entity-2="ent0008" data-link-type="association" data-source-line="25" id="lnk15"><path d="M288,290.2 C288,307.27 288,333.99 288,350.99" fill="none" id="EntregableRepository-Entregable" style="stroke:#181818;stroke-width:1;"/></g><!--link DetalleEntregableView to EditarEntregable--><g class="link" data-entity-1="ent0005" data-entity-2="ent0009" data-link-type="dependency" data-source-line="27" id="lnk16"><path d="M552.75,72.02 C605.56,85.3 672,102 672,102 C672,102 765.8672,127.3367 832.8272,145.4067" fill="none" id="DetalleEntregableView-to-EditarEntregable" style="stroke:#181818;stroke-width:1;stroke-dasharray:7,7;"/><polygon fill="#181818" points="838.62,146.97,830.973,140.7633,833.7927,145.6673,828.8887,148.487,838.62,146.97" style="stroke:#181818;stroke-width:1;"/><text fill="#000000" font-family="sans-serif" font-size="12" lengthAdjust="spacing" textLength="110.2031" x="727" y="114.1387">editarEntregable()</text></g><!--link DetalleEntregableView to EliminarEntregable--><g class="link" data-entity-1="ent0005" data-entity-2="ent0010" data-link-type="dependency" data-source-line="28" id="lnk17"><path d="M567.79,66.15 C672.92,79.7 846,102 846,102 C846,102 973.738,127.716 1063.508,145.786" fill="none" id="DetalleEntregableView-to-EliminarEntregable" style="stroke:#181818;stroke-width:1;stroke-dasharray:7,7;"/><polygon fill="#181818" points="1069.39,146.97,1061.3563,141.2726,1064.4883,145.9833,1059.7776,149.1153,1069.39,146.97" style="stroke:#181818;stroke-width:1;"/><text fill="#000000" font-family="sans-serif" font-size="12" lengthAdjust="spacing" textLength="123.8438" x="920" y="114.1387">eliminarEntregable()</text></g><!--link DetalleEntregableView to AbrirEntregables--><g class="link" data-entity-1="ent0005" data-entity-2="ent0011" data-link-type="dependency" data-source-line="29" id="lnk18"><path d="M567.58,62.42 C722.4,75.07 1052,102 1052,102 C1052,102 1199.5501,127.8643 1302.6601,145.9343" fill="none" id="DetalleEntregableView-to-AbrirEntregables" style="stroke:#181818;stroke-width:1;stroke-dasharray:7,7;"/><polygon fill="#181818" points="1308.57,146.97,1300.3956,141.4765,1303.6451,146.1069,1299.0146,149.3564,1308.57,146.97" style="stroke:#181818;stroke-width:1;"/><text fill="#000000" font-family="sans-serif" font-size="12" lengthAdjust="spacing" textLength="109.3008" x="1137" y="114.1387">abrirEntregables()</text></g><!--link DetalleEntregableView to EntregableAbierto--><g class="link" data-entity-1="ent0005" data-entity-2="ent0003" data-link-type="dependency" data-source-line="31" id="lnk19"><path d="M519.43,72.09 C544.52,85.35 576,102 576,102 C576,102 616.2571,125.8432 646.7771,143.9132" fill="none" id="DetalleEntregableView-to-EntregableAbierto" style="stroke:#181818;stroke-width:1;stroke-dasharray:7,7;"/><polygon fill="#181818" points="651.94,146.97,646.2335,138.9428,647.6376,144.4226,642.1577,145.8267,651.94,146.97" style="stroke:#181818;stroke-width:1;"/><text fill="#000000" font-family="sans-serif" font-size="12" lengthAdjust="spacing" textLength="62.4551" x="601" y="114.1387">&#171;finalizar&#187;</text></g><?plantuml-src ZPHHIyCm4CVVyocExMLxgE1GqIA3Rija82gR-2g9lTLWJCebCgRutOrJrvfsOtrAx-x_kql_HzsBCgKWyGfIFBqKPDzCFhRQ4goUbKVcjddtB7AxKgQ0fT2kdfdWKhnfFxN6_qYb3gpsWeLwHpWUr99Q6VJh4g6qUltzmXZXanUcq0ZTyOIFibFey9lxER_AHjTyyPYDPdn-VxleW730ZISiXDJeCgcGl7NxzN_oIFqhPgmCiui2eICaAQeAUlsD8eh21uFmL1qx4_H2QwnA7XIkDjBM37JF1XTyUX5Zggfn-6naWv2YaQi4TEMfpC_ETqFcM5gdlALr1AaIq9qEil49tms9f5l1PwjbQLW6BQGbuPKrm7Fb1SMmA7W8HwjNPPgaHlW0LlRVJBSXnK76MdOC4ag6xOwcyOxqS7kSvNt6slSWoGEmpTmKhFHea1gw_s18QtBMkYPHZyhxROyxIxFyC6vjSvAaNhBZWaT7muRVAM0KwVNtoHic1q0ZjXSHkzjmo_NwUsyG_p5IkBnSXW6qUXSq77u1?></g></svg>