<?xml version="1.0" encoding="us-ascii" standalone="no"?><svg xmlns="http://www.w3.org/2000/svg" xmlns:xlink="http://www.w3.org/1999/xlink" contentStyleType="text/css" height="368px" preserveAspectRatio="none" style="width:893px;height:368px;background:#FFFFFF;" version="1.1" viewBox="0 0 893 368" width="893px" zoomAndPan="magnify"><defs/><g><line style="stroke:#AAAAAA;stroke-width:1.0;" x1="6" x2="886" y1="8.5" y2="8.5"/><line style="stroke:#AAAAAA;stroke-width:1.0;" x1="6" x2="886" y1="10.5" y2="10.5"/><text fill="#000000" font-family="sans-serif" font-size="12" font-weight="bold" lengthAdjust="spacing" textLength="152" x="6" y="26.457">GIPF - MIS PUBLICACIONES</text><line style="stroke:#AAAAAA;stroke-width:1.0;" x1="6" x2="886" y1="33.5938" y2="33.5938"/><line style="stroke:#AAAAAA;stroke-width:1.0;" x1="6" x2="886" y1="35.5938" y2="35.5938"/><text fill="#000000" font-family="sans-serif" font-size="12" font-weight="bold" lengthAdjust="spacing" textLength="164" x="7" y="52.5508">Filtrar / buscar publicaciones</text><line style="stroke:#AAAAAA;stroke-width:1.0;" x1="7" x2="885" y1="60.6875" y2="60.6875"/><text fill="#000000" font-family="sans-serif" font-size="12" font-weight="bold" lengthAdjust="spacing" textLength="34" x="10" y="80.6445">T&#237;tulo:</text><rect fill="#EEEEEE" height="19.0938" rx="5" ry="5" style="stroke:#000000;stroke-width:2.5;" width="244" x="48.5" y="70.6875"/><text fill="#000000" font-family="sans-serif" font-size="12" lengthAdjust="spacing" textLength="3" x="169" y="85.1445">&#160;</text><text fill="#000000" font-family="sans-serif" font-size="12" font-weight="bold" lengthAdjust="spacing" textLength="42" x="10" y="108.7383">Estado:</text><text fill="#000000" font-family="sans-serif" font-size="12" lengthAdjust="spacing" textLength="35" x="99" y="109.7383">Todas</text><line style="stroke:#000000;stroke-width:1.0;" x1="97" x2="140" y1="112.375" y2="112.375"/><line style="stroke:#000000;stroke-width:1.0;" x1="97" x2="97" y1="109.375" y2="111.375"/><line style="stroke:#000000;stroke-width:1.0;" x1="140" x2="140" y1="109.375" y2="111.375"/><text fill="#000000" font-family="sans-serif" font-size="12" lengthAdjust="spacing" textLength="48" x="147" y="109.7383">Borrador</text><line style="stroke:#000000;stroke-width:1.0;" x1="145" x2="212" y1="112.375" y2="112.375"/><line style="stroke:#000000;stroke-width:1.0;" x1="145" x2="145" y1="109.375" y2="111.375"/><line style="stroke:#000000;stroke-width:1.0;" x1="212" x2="212" y1="109.375" y2="111.375"/><text fill="#000000" font-family="sans-serif" font-size="12" lengthAdjust="spacing" textLength="55" x="219" y="109.7383">Publicada</text><line style="stroke:#000000;stroke-width:1.0;" x1="217" x2="292" y1="112.375" y2="112.375"/><line style="stroke:#000000;stroke-width:1.0;" x1="217" x2="217" y1="109.375" y2="111.375"/><line style="stroke:#000000;stroke-width:1.0;" x1="292" x2="292" y1="109.375" y2="111.375"/><text fill="#000000" font-family="sans-serif" font-size="12" font-weight="bold" lengthAdjust="spacing" textLength="83" x="10" y="129.832">Fecha (desde):</text><rect fill="#EEEEEE" height="19.0938" rx="5" ry="5" style="stroke:#000000;stroke-width:2.5;" width="100" x="97.5" y="119.875"/><text fill="#000000" font-family="sans-serif" font-size="12" lengthAdjust="spacing" textLength="3" x="146" y="134.332">&#160;</text><text fill="#000000" font-family="sans-serif" font-size="12" font-weight="bold" lengthAdjust="spacing" textLength="80" x="10" y="157.9258">Fecha (hasta):</text><rect fill="#EEEEEE" height="19.0938" rx="5" ry="5" style="stroke:#000000;stroke-width:2.5;" width="100" x="94.5" y="147.9688"/><text fill="#000000" font-family="sans-serif" font-size="12" lengthAdjust="spacing" textLength="3" x="143" y="162.4258">&#160;</text><text fill="#000000" font-family="sans-serif" font-size="12" font-weight="bold" lengthAdjust="spacing" textLength="3" x="10" y="184.0195">&#160;</text><text fill="#000000" font-family="sans-serif" font-size="12" lengthAdjust="spacing" textLength="3" x="95" y="184.0195">&#160;</text><line style="stroke:#000000;stroke-width:1.0;" x1="93" x2="104" y1="186.6563" y2="186.6563"/><line style="stroke:#000000;stroke-width:1.0;" x1="93" x2="93" y1="183.6563" y2="185.6563"/><line style="stroke:#000000;stroke-width:1.0;" x1="104" x2="104" y1="183.6563" y2="185.6563"/><line style="stroke:#AAAAAA;stroke-width:1.5;" x1="7" x2="885" y1="197.1563" y2="197.1563"/><text fill="#000000" font-family="sans-serif" font-size="12" font-weight="bold" lengthAdjust="spacing" textLength="165" x="7" y="214.1133">Listado de mis publicaciones</text><line style="stroke:#AAAAAA;stroke-width:1.0;" x1="7" x2="885" y1="222.25" y2="222.25"/><text fill="#000000" font-family="sans-serif" font-size="12" font-weight="bold" lengthAdjust="spacing" textLength="11" x="9" y="241.207">ID</text><text fill="#000000" font-family="sans-serif" font-size="12" font-weight="bold" lengthAdjust="spacing" textLength="31" x="22" y="241.207">T&#237;tulo</text><text fill="#000000" font-family="sans-serif" font-size="12" font-weight="bold" lengthAdjust="spacing" textLength="39" x="55" y="241.207">Estado</text><text fill="#000000" font-family="sans-serif" font-size="12" font-weight="bold" lengthAdjust="spacing" textLength="34" x="96" y="241.207">Fecha</text><text fill="#000000" font-family="sans-serif" font-size="12" font-weight="bold" lengthAdjust="spacing" textLength="54" x="132" y="241.207">Resumen</text><text fill="#000000" font-family="sans-serif" font-size="12" font-weight="bold" lengthAdjust="spacing" textLength="39" x="188" y="241.207">Acci&#243;n</text><text fill="#000000" font-family="sans-serif" font-size="12" lengthAdjust="spacing" textLength="50" x="12" y="260.3008">PUB-031</text><line style="stroke:#000000;stroke-width:1.0;" x1="10" x2="69" y1="262.9375" y2="262.9375"/><line style="stroke:#000000;stroke-width:1.0;" x1="10" x2="10" y1="259.9375" y2="261.9375"/><line style="stroke:#000000;stroke-width:1.0;" x1="69" x2="69" y1="259.9375" y2="261.9375"/><text fill="#000000" font-family="sans-serif" font-size="12" lengthAdjust="spacing" textLength="215" x="76" y="260.3008">Resultados preliminares del proyecto...</text><line style="stroke:#000000;stroke-width:1.0;" x1="74" x2="389" y1="262.9375" y2="262.9375"/><line style="stroke:#000000;stroke-width:1.0;" x1="74" x2="74" y1="259.9375" y2="261.9375"/><line style="stroke:#000000;stroke-width:1.0;" x1="389" x2="389" y1="259.9375" y2="261.9375"/><text fill="#000000" font-family="sans-serif" font-size="12" lengthAdjust="spacing" textLength="48" x="396" y="260.3008">Borrador</text><line style="stroke:#000000;stroke-width:1.0;" x1="394" x2="461" y1="262.9375" y2="262.9375"/><line style="stroke:#000000;stroke-width:1.0;" x1="394" x2="394" y1="259.9375" y2="261.9375"/><line style="stroke:#000000;stroke-width:1.0;" x1="461" x2="461" y1="259.9375" y2="261.9375"/><text fill="#000000" font-family="sans-serif" font-size="12" lengthAdjust="spacing" textLength="64" x="468" y="260.3008">12-01-2025</text><line style="stroke:#000000;stroke-width:1.0;" x1="466" x2="549" y1="262.9375" y2="262.9375"/><line style="stroke:#000000;stroke-width:1.0;" x1="466" x2="466" y1="259.9375" y2="261.9375"/><line style="stroke:#000000;stroke-width:1.0;" x1="549" x2="549" y1="259.9375" y2="261.9375"/><text fill="#000000" font-family="sans-serif" font-size="12" lengthAdjust="spacing" textLength="176" x="556" y="260.3008">S&#237;ntesis de hallazgos iniciales...</text><line style="stroke:#000000;stroke-width:1.0;" x1="554" x2="829" y1="262.9375" y2="262.9375"/><line style="stroke:#000000;stroke-width:1.0;" x1="554" x2="554" y1="259.9375" y2="261.9375"/><line style="stroke:#000000;stroke-width:1.0;" x1="829" x2="829" y1="259.9375" y2="261.9375"/><rect fill="#EEEEEE" height="19.0938" rx="5" ry="5" style="stroke:#000000;stroke-width:2.5;" width="44" x="835.5" y="250.3438"/><text fill="#000000" font-family="sans-serif" font-size="12" lengthAdjust="spacing" textLength="25" x="845" y="264.8008">Abrir</text><text fill="#000000" font-family="sans-serif" font-size="12" lengthAdjust="spacing" textLength="50" x="12" y="288.3945">PUB-028</text><line style="stroke:#000000;stroke-width:1.0;" x1="10" x2="69" y1="291.0313" y2="291.0313"/><line style="stroke:#000000;stroke-width:1.0;" x1="10" x2="10" y1="288.0313" y2="290.0313"/><line style="stroke:#000000;stroke-width:1.0;" x1="69" x2="69" y1="288.0313" y2="290.0313"/><text fill="#000000" font-family="sans-serif" font-size="12" lengthAdjust="spacing" textLength="203" x="76" y="288.3945">Informe final de innovaci&#243;n docente...</text><line style="stroke:#000000;stroke-width:1.0;" x1="74" x2="381" y1="291.0313" y2="291.0313"/><line style="stroke:#000000;stroke-width:1.0;" x1="74" x2="74" y1="288.0313" y2="290.0313"/><line style="stroke:#000000;stroke-width:1.0;" x1="381" x2="381" y1="288.0313" y2="290.0313"/><text fill="#000000" font-family="sans-serif" font-size="12" lengthAdjust="spacing" textLength="55" x="388" y="288.3945">Publicada</text><line style="stroke:#000000;stroke-width:1.0;" x1="386" x2="461" y1="291.0313" y2="291.0313"/><line style="stroke:#000000;stroke-width:1.0;" x1="386" x2="386" y1="288.0313" y2="290.0313"/><line style="stroke:#000000;stroke-width:1.0;" x1="461" x2="461" y1="288.0313" y2="290.0313"/><text fill="#000000" font-family="sans-serif" font-size="12" lengthAdjust="spacing" textLength="64" x="468" y="288.3945">20-12-2024</text><line style="stroke:#000000;stroke-width:1.0;" x1="466" x2="549" y1="291.0313" y2="291.0313"/><line style="stroke:#000000;stroke-width:1.0;" x1="466" x2="466" y1="288.0313" y2="290.0313"/><line style="stroke:#000000;stroke-width:1.0;" x1="549" x2="549" y1="288.0313" y2="290.0313"/><text fill="#000000" font-family="sans-serif" font-size="12" lengthAdjust="spacing" textLength="197" x="556" y="288.3945">Conclusiones y recomendaciones...</text><line style="stroke:#000000;stroke-width:1.0;" x1="554" x2="821" y1="291.0313" y2="291.0313"/><line style="stroke:#000000;stroke-width:1.0;" x1="554" x2="554" y1="288.0313" y2="290.0313"/><line style="stroke:#000000;stroke-width:1.0;" x1="821" x2="821" y1="288.0313" y2="290.0313"/><rect fill="#EEEEEE" height="19.0938" rx="5" ry="5" style="stroke:#000000;stroke-width:2.5;" width="44" x="827.5" y="278.4375"/><text fill="#000000" font-family="sans-serif" font-size="12" lengthAdjust="spacing" textLength="25" x="837" y="292.8945">Abrir</text><text fill="#000000" font-family="sans-serif" font-size="12" lengthAdjust="spacing" textLength="50" x="12" y="316.4883">PUB-024</text><line style="stroke:#000000;stroke-width:1.0;" x1="10" x2="69" y1="319.125" y2="319.125"/><line style="stroke:#000000;stroke-width:1.0;" x1="10" x2="10" y1="316.125" y2="318.125"/><line style="stroke:#000000;stroke-width:1.0;" x1="69" x2="69" y1="316.125" y2="318.125"/><text fill="#000000" font-family="sans-serif" font-size="12" lengthAdjust="spacing" textLength="201" x="76" y="316.4883">Avances en colaboraci&#243;n intersede...</text><line style="stroke:#000000;stroke-width:1.0;" x1="74" x2="365" y1="319.125" y2="319.125"/><line style="stroke:#000000;stroke-width:1.0;" x1="74" x2="74" y1="316.125" y2="318.125"/><line style="stroke:#000000;stroke-width:1.0;" x1="365" x2="365" y1="316.125" y2="318.125"/><text fill="#000000" font-family="sans-serif" font-size="12" lengthAdjust="spacing" textLength="55" x="372" y="316.4883">Publicada</text><line style="stroke:#000000;stroke-width:1.0;" x1="370" x2="445" y1="319.125" y2="319.125"/><line style="stroke:#000000;stroke-width:1.0;" x1="370" x2="370" y1="316.125" y2="318.125"/><line style="stroke:#000000;stroke-width:1.0;" x1="445" x2="445" y1="316.125" y2="318.125"/><text fill="#000000" font-family="sans-serif" font-size="12" lengthAdjust="spacing" textLength="64" x="452" y="316.4883">05-11-2024</text><line style="stroke:#000000;stroke-width:1.0;" x1="450" x2="533" y1="319.125" y2="319.125"/><line style="stroke:#000000;stroke-width:1.0;" x1="450" x2="450" y1="316.125" y2="318.125"/><line style="stroke:#000000;stroke-width:1.0;" x1="533" x2="533" y1="316.125" y2="318.125"/><text fill="#000000" font-family="sans-serif" font-size="12" lengthAdjust="spacing" textLength="187" x="540" y="316.4883">Logros y metodolog&#237;a empleada...</text><line style="stroke:#000000;stroke-width:1.0;" x1="538" x2="797" y1="319.125" y2="319.125"/><line style="stroke:#000000;stroke-width:1.0;" x1="538" x2="538" y1="316.125" y2="318.125"/><line style="stroke:#000000;stroke-width:1.0;" x1="797" x2="797" y1="316.125" y2="318.125"/><rect fill="#EEEEEE" height="19.0938" rx="5" ry="5" style="stroke:#000000;stroke-width:2.5;" width="44" x="803.5" y="306.5313"/><text fill="#000000" font-family="sans-serif" font-size="12" lengthAdjust="spacing" textLength="25" x="813" y="320.9883">Abrir</text><line style="stroke:#AAAAAA;stroke-width:1.5;" x1="7" x2="885" y1="335.625" y2="335.625"/><rect fill="#EEEEEE" height="19.0938" rx="5" ry="5" style="stroke:#000000;stroke-width:2.5;" width="124" x="10.5" y="343.625"/><text fill="#000000" font-family="sans-serif" font-size="12" lengthAdjust="spacing" textLength="70" x="37.5" y="358.082">Aplicar filtros</text><rect fill="#EEEEEE" height="19.0938" rx="5" ry="5" style="stroke:#000000;stroke-width:2.5;" width="124" x="141.5" y="343.625"/><text fill="#000000" font-family="sans-serif" font-size="12" lengthAdjust="spacing" textLength="75" x="166" y="358.082">Limpiar filtros</text><rect fill="#EEEEEE" height="19.0938" rx="5" ry="5" style="stroke:#000000;stroke-width:2.5;" width="140" x="272.5" y="343.625"/><text fill="#000000" font-family="sans-serif" font-size="12" lengthAdjust="spacing" textLength="97" x="294" y="358.082">Crear publicaci&#243;n</text><rect fill="#EEEEEE" height="19.0938" rx="5" ry="5" style="stroke:#000000;stroke-width:2.5;" width="172" x="419.5" y="343.625"/><text fill="#000000" font-family="sans-serif" font-size="12" lengthAdjust="spacing" textLength="110" x="450.5" y="358.082">Abrir Panel principal</text><!--SRC=[dLJ1KY8n4BtFLtHnqiFWWB9bKQub8bYumqe9Uh4uP38Df2gJKCaCMyhY7tdQJ-37jZEE3BBeONFgxkIzVjsTvCAcpAIMoHHOP8Jf2pl88Yauuq8hjFulON1YM8BUqWDQtsdbnbbqVjqRTC67Vcy8W_lBiDTkjNktFpl3iwFe_EFXDsm1wmgP6cRW2ABCSZBcsnatOBTyVsEM57iyOXsjNzDCwgR3mszuX2_NUENzmz2XNiGRWYLKHZfcja9svL8RGticTue6nQm2gmyahZRaCmO7CTeO3_TgsPUvGCqOAVW4jPi8YbCLs5LHUbkPNbwyxH648gyLOeH4sFyQ0B7qhWeHPVlBm5itIp-liNJlq6O9gZBGuboi_-I1Z_KiAtIv_E2ubZVVuQHZ9jK6fKY4OWOjLI8fe9-GfxfQhUvCpNcrkX_K_7fGR-IRm_MhIj4A1uKPav8zJubKAC45asWBaiUMUnRZlPBgfpbJJqsqIH0c94KwDg6KNh2y78WrHygJi-rS7lBgWK-oIDD9xhQruZAp-HZW2GnoJJsAYy6yStmfwOsejM2A4mSgu5goI9j2ZY0jnc9S2DeZAMZujLefATHJevsO15CTQwcdwrS6cCmb4g9WsQFfaxktV6pDNJ93tQ9VGDkn0uSYcOkTMDlWzjT0uiURF31WAf-tK5pCcIpohhoLTq7zSj-PvmqaK-bzFuG5LKmDX5hLLLKzFXZDCkXY1BK6r8FcIT0C6j3kZC1j7te7ruDmKGUhCyCHOdefHaHPIWo7tWrRCBZBL2eIRCBj7DNDrO_t07JKGXYjQ6IfT_FGBmzyE_4lHGf3DAG57lhU5KuONMD2S1qBDMt2_QZhdteXKzECJOaRhTVMn6kUcj0P_WK0]--></g></svg>