<svg xmlns="http://www.w3.org/2000/svg" xmlns:xlink="http://www.w3.org/1999/xlink" contentStyleType="text/css" data-diagram-type="STATE" height="765px" preserveAspectRatio="none" style="width:720px;height:765px;background:#FFFFFF;" version="1.1" viewBox="0 0 720 765" width="720px" zoomAndPan="magnify"><defs/><g><g><rect fill="#F1F1F1" height="50" rx="12.5" ry="12.5" style="stroke:#181818;stroke-width:0.5;" width="181.9844" x="266.01" y="7"/><line style="stroke:#181818;stroke-width:0.5;" x1="266.01" x2="447.9944" y1="33.2969" y2="33.2969"/><text fill="#000000" font-family="sans-serif" font-size="14" lengthAdjust="spacing" textLength="161.9844" x="276.01" y="24.9951">PUBLICACION_ABIERTA</text></g><path d="M19.5,152 L694.5,152 A12.5,12.5 0 0 1 707,164.5 L707,178.2969 L7,178.2969 L7,164.5 A12.5,12.5 0 0 1 19.5,152" fill="#F1F1F1"/><rect fill="none" height="462.2969" rx="12.5" ry="12.5" style="stroke:#181818;stroke-width:0.5;" width="700" x="7" y="152"/><line style="stroke:#181818;stroke-width:0.5;" x1="7" x2="707" y1="178.2969" y2="178.2969"/><text fill="#000000" font-family="sans-serif" font-size="14" lengthAdjust="spacing" textLength="131.4209" x="291.2896" y="169.9951">editarPublicacion()</text><g><rect fill="#F1F1F1" height="50" rx="12.5" ry="12.5" style="stroke:#181818;stroke-width:0.5;" width="50" x="215" y="280.2969"/><line style="stroke:#181818;stroke-width:0.5;" x1="215" x2="265" y1="306.5938" y2="306.5938"/><text fill="#000000" font-family="sans-serif" font-size="14" lengthAdjust="spacing" textLength="4.4502" x="237.7749" y="298.292">&#160;</text></g><g><rect fill="#F1F1F1" height="50" rx="12.5" ry="12.5" style="stroke:#181818;stroke-width:0.5;" width="50" x="19" y="461.2969"/><line style="stroke:#181818;stroke-width:0.5;" x1="19" x2="69" y1="487.5938" y2="487.5938"/><text fill="#000000" font-family="sans-serif" font-size="14" lengthAdjust="spacing" textLength="4.4502" x="41.7749" y="479.292">&#160;</text></g><ellipse cx="240" cy="199.2969" fill="#222222" rx="10" ry="10" style="stroke:#222222;stroke-width:1;"/><ellipse cx="232" cy="593.2969" fill="none" rx="11" ry="11" style="stroke:#222222;stroke-width:1;"/><ellipse cx="232" cy="593.2969" fill="#222222" rx="6" ry="6" style="stroke:#222222;stroke-width:1;"/><!--link *start*editarPublicacion to EditandoContenido--><g class="link" data-entity-1="ent0003" data-entity-2="ent0004" data-link-type="dependency" data-source-line="15" id="lnk4"><path d="M240,209.5269 C240,225.2369 240,251.6569 240,274.1669" fill="none" id="*start*editarPublicacion-to-EditandoContenido" style="stroke:#008000;stroke-width:1;"/><polygon fill="#008000" points="240,280.1669,244,271.1669,240,275.1669,236,271.1669,240,280.1669" style="stroke:#008000;stroke-width:1;"/><path d="M245,232.2969 L245,257.2969 L526,257.2969 L526,242.2969 L516,232.2969 L245,232.2969" fill="#FEFFDD" style="stroke:#181818;stroke-width:0.5;"/><path d="M516,232.2969 L516,242.2969 L526,242.2969 L516,232.2969" fill="#FEFFDD" style="stroke:#181818;stroke-width:0.5;"/><text fill="#000000" font-family="sans-serif" font-size="13" font-weight="bold" lengthAdjust="spacing" textLength="90.251" x="251" y="249.3638">Coordinador</text><text fill="#000000" font-family="sans-serif" font-size="13" lengthAdjust="spacing" textLength="166.3403" x="345.3833" y="249.3638">solicita editar publicaci&#243;n</text></g><!--link EditandoContenido to CambiosGuardados--><g class="link" data-entity-1="ent0004" data-entity-2="ent0005" data-link-type="dependency" data-source-line="20" id="lnk5"><path d="M214.59,312.2269 C164.98,323.8069 60,348.2969 60,348.2969 C60,348.2969 52.1556,415.4373 47.5556,454.8473" fill="none" id="EditandoContenido-to-CambiosGuardados" style="stroke:#008000;stroke-width:1;"/><polygon fill="#008000" points="46.86,460.8069,51.8764,452.3313,47.4397,455.8406,43.9304,451.4038,46.86,460.8069" style="stroke:#008000;stroke-width:1;"/><path d="M65,353.2969 L65,438.2969 L417,438.2969 L417,363.2969 L407,353.2969 L65,353.2969" fill="#FEFFDD" style="stroke:#181818;stroke-width:0.5;"/><path d="M407,353.2969 L407,363.2969 L417,363.2969 L407,353.2969" fill="#FEFFDD" style="stroke:#181818;stroke-width:0.5;"/><text fill="#000000" font-family="sans-serif" font-size="13" font-weight="bold" lengthAdjust="spacing" textLength="58.9063" x="71" y="370.3638">Sistema</text><text fill="#000000" font-family="sans-serif" font-size="13" lengthAdjust="spacing" textLength="183.2124" x="134.0386" y="370.3638">presenta contenido editable</text><text fill="#000000" font-family="sans-serif" font-size="13" lengthAdjust="spacing" textLength="48.2549" x="71" y="385.4966">&#8226; T&#237;tulo</text><text fill="#000000" font-family="sans-serif" font-size="13" lengthAdjust="spacing" textLength="48.4834" x="71" y="400.6294">&#8226; Texto</text><text fill="#000000" font-family="sans-serif" font-size="13" font-weight="bold" lengthAdjust="spacing" textLength="58.9063" x="71" y="415.7622">Sistema</text><text fill="#000000" font-family="sans-serif" font-size="13" lengthAdjust="spacing" textLength="219.5781" x="134.0386" y="415.7622">permite introducir modificaciones</text><text fill="#000000" font-family="sans-serif" font-size="13" font-weight="bold" lengthAdjust="spacing" textLength="90.251" x="71" y="430.895">Coordinador</text><text fill="#000000" font-family="sans-serif" font-size="13" lengthAdjust="spacing" textLength="237.6118" x="165.3833" y="430.895">introduce cambios y solicita guardar</text></g><!--link EditandoContenido to *end*editarPublicacion--><g class="link" data-entity-1="ent0004" data-entity-2="ent0006" data-link-type="dependency" data-source-line="29" id="lnk7"><path d="M265.31,312.1369 C315.31,323.6769 422,348.2969 422,348.2969 C422,348.2969 422,564.2969 422,564.2969 C422,564.2969 289.526,583.8229 248.976,589.7929" fill="none" id="EditandoContenido-to-*end*editarPublicacion" style="stroke:#FF0000;stroke-width:1;"/><polygon fill="#FF0000" points="243.04,590.6669,252.5266,593.3133,247.9867,589.9386,251.3614,585.3986,243.04,590.6669" style="stroke:#FF0000;stroke-width:1;"/><path d="M427,473.7969 L427,498.7969 L698,498.7969 L698,483.7969 L688,473.7969 L427,473.7969" fill="#FEFFDD" style="stroke:#181818;stroke-width:0.5;"/><path d="M688,473.7969 L688,483.7969 L698,483.7969 L688,473.7969" fill="#FEFFDD" style="stroke:#181818;stroke-width:0.5;"/><text fill="#000000" font-family="sans-serif" font-size="13" font-weight="bold" lengthAdjust="spacing" textLength="90.251" x="433" y="490.8638">Coordinador</text><text fill="#000000" font-family="sans-serif" font-size="13" lengthAdjust="spacing" textLength="156.2729" x="527.3833" y="490.8638">solicita cancelar edici&#243;n</text></g><!--link CambiosGuardados to *end*editarPublicacion--><g class="link" data-entity-1="ent0005" data-entity-2="ent0006" data-link-type="dependency" data-source-line="34" id="lnk8"><path d="M35.86,511.7269 C32.78,520.9669 30,529.2969 30,529.2969 C30,529.2969 30,564.2969 30,564.2969 C30,564.2969 172.5568,584.0531 214.9068,589.9231" fill="none" id="CambiosGuardados-to-*end*editarPublicacion" style="stroke:#008000;stroke-width:1;"/><polygon fill="#008000" points="220.85,590.7469,212.4844,585.5491,215.8973,590.0604,211.3861,593.4733,220.85,590.7469" style="stroke:#008000;stroke-width:1;"/><path d="M35,534.2969 L35,559.2969 L417,559.2969 L417,544.2969 L407,534.2969 L35,534.2969" fill="#FEFFDD" style="stroke:#181818;stroke-width:0.5;"/><path d="M407,534.2969 L407,544.2969 L417,544.2969 L407,534.2969" fill="#FEFFDD" style="stroke:#181818;stroke-width:0.5;"/><text fill="#000000" font-family="sans-serif" font-size="13" font-weight="bold" lengthAdjust="spacing" textLength="58.9063" x="41" y="551.3638">Sistema</text><text fill="#000000" font-family="sans-serif" font-size="13" lengthAdjust="spacing" textLength="298.27" x="104.0386" y="551.3638">presenta confirmaci&#243;n de cambios guardados</text></g><g><rect fill="#F1F1F1" height="50" rx="12.5" ry="12.5" style="stroke:#181818;stroke-width:0.5;" width="208.6035" x="252.7" y="709.3"/><line style="stroke:#181818;stroke-width:0.5;" x1="252.7" x2="461.3035" y1="735.5969" y2="735.5969"/><text fill="#000000" font-family="sans-serif" font-size="14" lengthAdjust="spacing" textLength="188.6035" x="262.7" y="727.2951">PUBLICACIONES_ABIERTAS</text></g><!--link in2 to editarPublicacion--><g class="link" data-entity-1="ent0002" data-entity-2="ent0003" data-link-type="dependency" data-source-line="4" id="lnk2"><path d="M357,57.28 C357,79.01 357,107.27 357,145.56" fill="none" id="in2-to-editarPublicacion" style="stroke:#008000;stroke-width:1;"/><polygon fill="#008000" points="357,151.56,361,142.56,357,146.56,353,142.56,357,151.56" style="stroke:#008000;stroke-width:1;"/><path d="M362,92 L362,117 L505,117 L505,102 L495,92 L362,92" fill="#FEFFDD" style="stroke:#181818;stroke-width:0.5;"/><path d="M495,92 L495,102 L505,102 L495,92" fill="#FEFFDD" style="stroke:#181818;stroke-width:0.5;"/><text fill="#000000" font-family="sans-serif" font-size="13" lengthAdjust="spacing" textLength="122.0337" x="368" y="109.0669">editarPublicacion()</text></g><!--link editarPublicacion to PUBLICACIONES_ABIERTAS--><g class="link" data-entity-1="ent0003" data-entity-2="ent0009" data-link-type="dependency" data-source-line="41" id="lnk10"><path d="M357,614.61 C357,653.04 357,681.43 357,703.17" fill="none" id="editarPublicacion-to-PUBLICACIONES_ABIERTAS" style="stroke:#008000;stroke-width:1;"/><polygon fill="#008000" points="357,709.17,361,700.17,357,704.17,353,700.17,357,709.17" style="stroke:#008000;stroke-width:1;"/><path d="M362,649.3 L362,674.3 L512,674.3 L512,659.3 L502,649.3 L362,649.3" fill="#FEFFDD" style="stroke:#181818;stroke-width:0.5;"/><path d="M502,649.3 L502,659.3 L512,659.3 L502,649.3" fill="#FEFFDD" style="stroke:#181818;stroke-width:0.5;"/><text fill="#000000" font-family="sans-serif" font-size="13" lengthAdjust="spacing" textLength="129.0542" x="368" y="666.3669">abrirPublicaciones()</text></g><!--SRC=[bLF1IiD04BtlLmpnea8HF9T26ueKH8kjfr9aavsMfSbEsDs0HGI_nRidFw5_ufUucpPDOXhHvBIxCs_Ul3TZDb9bNFCK4gdGRZE4Z9AjFp1cBBS8Kbq3Dn1C7qUtat0OJkxldeQZoVXXFWoOV-mjpjOQKIrx0q0XBTVJF4fap6D9YYbo6AGy_eQrdiyl62e1FeYL1Lj1HVaJgG6yC0Rks-S5xdUHOn-e18MaB2efg1qIyZIIP6vohWKNPFOeYyjbevVJG8r-_4K_6eH4MaZbe7J_AXg08KVI9HzQWQnalVjKHKxLip-r2ZLejCXsiPX9Op7b1ODCeq7b6CH7p89Bb60H_lNs3lFTXyqJgixuREaa6EfK5fDWDOaybXfI4d9rC09Dbmvb0aAyRmAsbJRheY7zLpqq2g-6C-d_DiHSnPWu8vm6NIRybBdXmMzLksHVIPtkBGTH2R1ks7YayEgclpttTGgrzHlFoWMSDTUBHrhM0T3KzkiR]--></g></svg>