<?plantuml 1.2026.2?><svg xmlns="http://www.w3.org/2000/svg" xmlns:xlink="http://www.w3.org/1999/xlink" contentStyleType="text/css" data-diagram-type="DESCRIPTION" height="408px" preserveAspectRatio="none" style="width:1621px;height:408px;background:#FFFFFF;" version="1.1" viewBox="0 0 1621 408" width="1621px" zoomAndPan="magnify"><defs/><g><!--cluster abrirMiPublicacion--><g class="cluster" data-qualified-name="abrirMiPublicacion" data-source-line="10" id="ent0004"><path d="M248,6 L386.0391,6 A3.75,3.75 0 0 1 388.5391,8.5 L395.5391,25.9688 L638,25.9688 A2.5,2.5 0 0 1 640.5,28.4688 L640.5,398.5 A2.5,2.5 0 0 1 638,401 L248,401 A2.5,2.5 0 0 1 245.5,398.5 L245.5,8.5 A2.5,2.5 0 0 1 248,6" fill="none" style="stroke:#000000;stroke-width:1.5;"/><line style="stroke:#000000;stroke-width:1.5;" x1="245.5" x2="395.5391" y1="25.9688" y2="25.9688"/><text fill="#000000" font-family="sans-serif" font-size="12" font-weight="bold" lengthAdjust="spacing" textLength="137.0391" x="249.5" y="19.1387">abrirMiPublicacion()</text></g><!--entity DetalleMiPublicacionView--><g class="entity" data-qualified-name="abrirMiPublicacion.DetalleMiPublicacionView" data-source-line="11" id="ent0005"><rect fill="#629EF9" height="33.9688" rx="2.5" ry="2.5" style="stroke:#181818;stroke-width:0.5;" width="173.1172" x="451" y="38"/><text fill="#000000" font-family="sans-serif" font-size="12" lengthAdjust="spacing" textLength="153.1172" x="461" y="59.1387">DetalleMiPublicacionView</text></g><!--entity PublicacionController--><g class="entity" data-qualified-name="abrirMiPublicacion.PublicacionController" data-source-line="12" id="ent0006"><rect fill="#B5BD68" height="33.9688" rx="2.5" ry="2.5" style="stroke:#181818;stroke-width:0.5;" width="147.248" x="263" y="147"/><text fill="#000000" font-family="sans-serif" font-size="12" lengthAdjust="spacing" textLength="127.248" x="273" y="168.1387">PublicacionController</text></g><!--entity PublicacionRepository--><g class="entity" data-qualified-name="abrirMiPublicacion.PublicacionRepository" data-source-line="13" id="ent0007"><rect fill="#F2AC4E" height="33.9688" rx="2.5" ry="2.5" style="stroke:#181818;stroke-width:0.5;" width="152.3047" x="261.5" y="256"/><text fill="#000000" font-family="sans-serif" font-size="12" lengthAdjust="spacing" textLength="132.3047" x="271.5" y="277.1387">PublicacionRepository</text></g><!--entity Publicacion--><g class="entity" data-qualified-name="abrirMiPublicacion.Publicacion" data-source-line="14" id="ent0008"><rect fill="#F2AC4E" height="33.9688" rx="2.5" ry="2.5" style="stroke:#181818;stroke-width:0.5;" width="87.957" x="293.5" y="351"/><text fill="#000000" font-family="sans-serif" font-size="12" lengthAdjust="spacing" textLength="67.957" x="303.5" y="372.1387">Publicacion</text></g><!--entity MisPublicacionesAbiertas--><g class="entity" data-qualified-name="MisPublicacionesAbiertas" data-source-line="7" id="ent0002"><rect fill="#CDEBA5" height="33.9688" rx="2.5" ry="2.5" style="stroke:#181818;stroke-width:0.5;" width="209.1699" x="7" y="38"/><text fill="#000000" font-family="sans-serif" font-size="12" lengthAdjust="spacing" textLength="189.1699" x="17" y="59.1387">MIS_PUBLICACIONES_ABIERTAS</text></g><!--entity MiPublicacionAbierta--><g class="entity" data-qualified-name="MiPublicacionAbierta" data-source-line="8" id="ent0003"><rect fill="#CDEBA5" height="33.9688" rx="2.5" ry="2.5" style="stroke:#181818;stroke-width:0.5;" width="178.7363" x="657" y="147"/><text fill="#000000" font-family="sans-serif" font-size="12" lengthAdjust="spacing" textLength="158.7363" x="667" y="168.1387">MI_PUBLICACION_ABIERTA</text></g><!--entity EditarPublicacion--><g class="entity" data-qualified-name="EditarPublicacion" data-source-line="17" id="ent0009"><rect fill="#CDEBA5" height="33.9688" rx="2.5" ry="2.5" style="stroke:#181818;stroke-width:0.5;" width="211.3145" x="871" y="147"/><text fill="#000000" font-family="sans-serif" font-size="12" lengthAdjust="spacing" textLength="191.3145" x="881" y="168.1387">:Collaboration EditarPublicacion</text></g><!--entity EliminarPublicacion--><g class="entity" data-qualified-name="EliminarPublicacion" data-source-line="18" id="ent0010"><rect fill="#CDEBA5" height="33.9688" rx="2.5" ry="2.5" style="stroke:#181818;stroke-width:0.5;" width="224.9551" x="1117" y="147"/><text fill="#000000" font-family="sans-serif" font-size="12" lengthAdjust="spacing" textLength="204.9551" x="1127" y="168.1387">:Collaboration EliminarPublicacion</text></g><!--entity AbrirMisPublicaciones--><g class="entity" data-qualified-name="AbrirMisPublicaciones" data-source-line="19" id="ent0011"><rect fill="#CDEBA5" height="33.9688" rx="2.5" ry="2.5" style="stroke:#181818;stroke-width:0.5;" width="238.3906" x="1377.5" y="147"/><text fill="#000000" font-family="sans-serif" font-size="12" lengthAdjust="spacing" textLength="218.3906" x="1387.5" y="168.1387">:Collaboration AbrirMisPublicaciones</text></g><!--link MisPublicacionesAbiertas to DetalleMiPublicacionView--><g class="link" data-entity-1="ent0002" data-entity-2="ent0005" data-link-type="dependency" data-source-line="21" id="lnk12"><path d="M216.26,55 C288.32,55 376.89,55 444.73,55" fill="none" id="MisPublicacionesAbiertas-to-DetalleMiPublicacionView" style="stroke:#181818;stroke-width:1;"/><polygon fill="#181818" points="450.73,55,441.73,51,445.73,55,441.73,59,450.73,55" style="stroke:#181818;stroke-width:1;"/><text fill="#000000" font-family="sans-serif" font-size="12" lengthAdjust="spacing" textLength="198.6738" x="234.5" y="49.1387">abrirMiPublicacion(publicacionId)</text></g><!--link DetalleMiPublicacionView to PublicacionController--><g class="link" data-entity-1="ent0005" data-entity-2="ent0006" data-link-type="dependency" data-source-line="23" id="lnk13"><path d="M480.84,72.09 C434.12,85.35 375.5,102 375.5,102 C375.5,102 361.5314,123.8445 349.9814,141.9145" fill="none" id="DetalleMiPublicacionView-to-PublicacionController" style="stroke:#181818;stroke-width:1;"/><polygon fill="#181818" points="346.75,146.97,354.9674,141.541,349.4428,142.7571,348.2267,137.2325,346.75,146.97" style="stroke:#181818;stroke-width:1;"/><text fill="#000000" font-family="sans-serif" font-size="12" lengthAdjust="spacing" textLength="326.1445" x="376.5" y="114.1387">obtenerDetallePublicacion(publicacionId) : Publicacion</text></g><!--link PublicacionController to PublicacionRepository--><g class="link" data-entity-1="ent0006" data-entity-2="ent0007" data-link-type="dependency" data-source-line="24" id="lnk14"><path d="M336.65,181.25 C336.84,201.48 337.1034,229.8103 337.2934,249.9503" fill="none" id="PublicacionController-to-PublicacionRepository" style="stroke:#181818;stroke-width:1;"/><polygon fill="#181818" points="337.35,255.95,341.2649,246.9127,337.3028,250.9502,333.2653,246.9881,337.35,255.95" style="stroke:#181818;stroke-width:1;"/><text fill="#000000" font-family="sans-serif" font-size="12" lengthAdjust="spacing" textLength="246.123" x="337.5" y="223.1387">obtenerPorId(publicacionId) : Publicacion</text></g><!--link PublicacionRepository to Publicacion--><g class="link" data-entity-1="ent0007" data-entity-2="ent0008" data-link-type="association" data-source-line="25" id="lnk15"><path d="M337.5,290.2 C337.5,307.27 337.5,333.99 337.5,350.99" fill="none" id="PublicacionRepository-Publicacion" style="stroke:#181818;stroke-width:1;"/></g><!--link DetalleMiPublicacionView to EditarPublicacion--><g class="link" data-entity-1="ent0005" data-entity-2="ent0009" data-link-type="dependency" data-source-line="27" id="lnk16"><path d="M624.23,71.9 C696.78,85.19 788.5,102 788.5,102 C788.5,102 865.6927,127.0488 921.4027,145.1188" fill="none" id="DetalleMiPublicacionView-to-EditarPublicacion" style="stroke:#181818;stroke-width:1;stroke-dasharray:7,7;"/><polygon fill="#181818" points="927.11,146.97,919.7832,140.3883,922.3539,145.4273,917.3149,147.998,927.11,146.97" style="stroke:#181818;stroke-width:1;"/><text fill="#000000" font-family="sans-serif" font-size="12" lengthAdjust="spacing" textLength="112.6465" x="834.5" y="114.1387">editarPublicacion()</text></g><!--link DetalleMiPublicacionView to EliminarPublicacion--><g class="link" data-entity-1="ent0005" data-entity-2="ent0010" data-link-type="dependency" data-source-line="28" id="lnk17"><path d="M624.11,65.53 C746.54,79 955.5,102 955.5,102 C955.5,102 1070.4733,127.5964 1151.6533,145.6664" fill="none" id="DetalleMiPublicacionView-to-EliminarPublicacion" style="stroke:#181818;stroke-width:1;stroke-dasharray:7,7;"/><polygon fill="#181818" points="1157.51,146.97,1149.5941,141.1101,1152.6294,145.8836,1147.8559,148.919,1157.51,146.97" style="stroke:#181818;stroke-width:1;"/><text fill="#000000" font-family="sans-serif" font-size="12" lengthAdjust="spacing" textLength="126.2871" x="1022.5" y="114.1387">eliminarPublicacion()</text></g><!--link DetalleMiPublicacionView to AbrirMisPublicaciones--><g class="link" data-entity-1="ent0005" data-entity-2="ent0011" data-link-type="dependency" data-source-line="29" id="lnk18"><path d="M624.03,62.42 C794.53,75.07 1157.5,102 1157.5,102 C1157.5,102 1301.0848,127.8376 1401.5248,145.9076" fill="none" id="DetalleMiPublicacionView-to-AbrirMisPublicaciones" style="stroke:#181818;stroke-width:1;stroke-dasharray:7,7;"/><polygon fill="#181818" points="1407.43,146.97,1399.2805,141.4396,1402.509,146.0847,1397.8639,149.3132,1407.43,146.97" style="stroke:#181818;stroke-width:1;"/><text fill="#000000" font-family="sans-serif" font-size="12" lengthAdjust="spacing" textLength="139.0664" x="1239.5" y="114.1387">abrirMisPublicaciones()</text></g><!--link DetalleMiPublicacionView to MiPublicacionAbierta--><g class="link" data-entity-1="ent0005" data-entity-2="ent0003" data-link-type="dependency" data-source-line="31" id="lnk19"><path d="M596.96,72.09 C645.98,85.35 707.5,102 707.5,102 C707.5,102 721.4686,123.8445 733.0186,141.9145" fill="none" id="DetalleMiPublicacionView-to-MiPublicacionAbierta" style="stroke:#181818;stroke-width:1;stroke-dasharray:7,7;"/><polygon fill="#181818" points="736.25,146.97,734.7733,137.2325,733.5572,142.7571,728.0326,141.541,736.25,146.97" style="stroke:#181818;stroke-width:1;"/><text fill="#000000" font-family="sans-serif" font-size="12" lengthAdjust="spacing" textLength="62.4551" x="717.5" y="114.1387">&#171;finalizar&#187;</text></g><?plantuml-src ZPHFRzf04CNl-ob6S8638nKrKMD5ICOOoLBJej3s6itYWQoosRLs5o5IzRjtGmZupphWaptlpM-ydYVRPw5ADFW279VFQwCtgaYrr0QsJy8HiqVTFc6XjqAjOONILfKfhN0ZtKmhzzxAfMU53GlnIl1bL16bKEHs9K6fvUxjWJ53IuTgBGdwwJIR9DVGkyyNZ_FVa-zvcgJvpn_PuZ6PvDd3hsJH0xHmB-nymwLOub9eHJRXWen36qPLIH-S0wP2EJ0OA_rfS4tGGsw4gNa6mtrVMu2_3Fnr6j-RaaCfgURw8sYx1tI9qByPtMQpsoQiOalzLpNQDvizAQX0dr_pukRR9vW7AhKLJfjT4tDIe3yR9UdNx1DCi_dOyY-urjW7HYBN1jsREIk4GzF4jQgNaAHu4Ih0QjSle2Nl-wrdRCyBAenrvH4Y4uqxjnq7WZGeJ_TvCMIiCofHuT71zSUWkID5vj3RZOUuIc3XC3K7dG9o73JN9YykPbSI5aKrK_Tfhwx6xM34GCtIO7Y6qGw4fxIBvpZ181mNMYyFXcSE5leFnN1tj_8l9SKhcl7uFm00?></g></svg>