<?plantuml 1.2026.2?><svg xmlns="http://www.w3.org/2000/svg" xmlns:xlink="http://www.w3.org/1999/xlink" contentStyleType="text/css" data-diagram-type="DESCRIPTION" height="408px" preserveAspectRatio="none" style="width:1716px;height:408px;background:#FFFFFF;" version="1.1" viewBox="0 0 1716 408" width="1716px" zoomAndPan="magnify"><defs/><g><!--cluster abrirMisPublicaciones--><g class="cluster" data-qualified-name="abrirMisPublicaciones" data-source-line="10" id="ent0004"><path d="M169,6 L329.4629,6 A3.75,3.75 0 0 1 331.9629,8.5 L338.9629,25.9688 L728,25.9688 A2.5,2.5 0 0 1 730.5,28.4688 L730.5,398.5 A2.5,2.5 0 0 1 728,401 L169,401 A2.5,2.5 0 0 1 166.5,398.5 L166.5,8.5 A2.5,2.5 0 0 1 169,6" fill="none" style="stroke:#000000;stroke-width:1.5;"/><line style="stroke:#000000;stroke-width:1.5;" x1="166.5" x2="338.9629" y1="25.9688" y2="25.9688"/><text fill="#000000" font-family="sans-serif" font-size="12" font-weight="bold" lengthAdjust="spacing" textLength="159.4629" x="170.5" y="19.1387">abrirMisPublicaciones()</text></g><!--entity ListarMisPublicacionesView--><g class="entity" data-qualified-name="abrirMisPublicaciones.ListarMisPublicacionesView" data-source-line="11" id="ent0005"><rect fill="#629EF9" height="33.9688" rx="2.5" ry="2.5" style="stroke:#181818;stroke-width:0.5;" width="183.5352" x="530.5" y="38"/><text fill="#000000" font-family="sans-serif" font-size="12" lengthAdjust="spacing" textLength="163.5352" x="540.5" y="59.1387">ListarMisPublicacionesView</text></g><!--entity PublicacionController--><g class="entity" data-qualified-name="abrirMisPublicaciones.PublicacionController" data-source-line="12" id="ent0006"><rect fill="#B5BD68" height="33.9688" rx="2.5" ry="2.5" style="stroke:#181818;stroke-width:0.5;" width="147.248" x="378" y="147"/><text fill="#000000" font-family="sans-serif" font-size="12" lengthAdjust="spacing" textLength="127.248" x="388" y="168.1387">PublicacionController</text></g><!--entity PublicacionRepository--><g class="entity" data-qualified-name="abrirMisPublicaciones.PublicacionRepository" data-source-line="13" id="ent0007"><rect fill="#F2AC4E" height="33.9688" rx="2.5" ry="2.5" style="stroke:#181818;stroke-width:0.5;" width="152.3047" x="182.5" y="256"/><text fill="#000000" font-family="sans-serif" font-size="12" lengthAdjust="spacing" textLength="132.3047" x="192.5" y="277.1387">PublicacionRepository</text></g><!--entity Publicacion--><g class="entity" data-qualified-name="abrirMisPublicaciones.Publicacion" data-source-line="14" id="ent0008"><rect fill="#F2AC4E" height="33.9688" rx="2.5" ry="2.5" style="stroke:#181818;stroke-width:0.5;" width="87.957" x="214.5" y="351"/><text fill="#000000" font-family="sans-serif" font-size="12" lengthAdjust="spacing" textLength="67.957" x="224.5" y="372.1387">Publicacion</text></g><!--entity Sesion--><g class="entity" data-qualified-name="abrirMisPublicaciones.Sesion" data-source-line="15" id="ent0009"><rect fill="#F2AC4E" height="33.9688" rx="2.5" ry="2.5" style="stroke:#181818;stroke-width:0.5;" width="59.5332" x="513.5" y="256"/><text fill="#000000" font-family="sans-serif" font-size="12" lengthAdjust="spacing" textLength="39.5332" x="523.5" y="277.1387">Sesion</text></g><!--entity NavegacionSistema--><g class="entity" data-qualified-name="NavegacionSistema" data-source-line="7" id="ent0002"><rect fill="#CDEBA5" height="33.9688" rx="2.5" ry="2.5" style="stroke:#181818;stroke-width:0.5;" width="142.8125" x="7" y="38"/><text fill="#000000" font-family="sans-serif" font-size="12" lengthAdjust="spacing" textLength="122.8125" x="17" y="59.1387">Navegaci&#243;n Sistema</text></g><!--entity MisPublicacionesAbiertas--><g class="entity" data-qualified-name="MisPublicacionesAbiertas" data-source-line="8" id="ent0003"><rect fill="#CDEBA5" height="33.9688" rx="2.5" ry="2.5" style="stroke:#181818;stroke-width:0.5;" width="209.1699" x="747" y="147"/><text fill="#000000" font-family="sans-serif" font-size="12" lengthAdjust="spacing" textLength="189.1699" x="757" y="168.1387">MIS_PUBLICACIONES_ABIERTAS</text></g><!--entity AbrirMiPublicacion--><g class="entity" data-qualified-name="AbrirMiPublicacion" data-source-line="18" id="ent0010"><rect fill="#CDEBA5" height="33.9688" rx="2.5" ry="2.5" style="stroke:#181818;stroke-width:0.5;" width="218.5039" x="991" y="147"/><text fill="#000000" font-family="sans-serif" font-size="12" lengthAdjust="spacing" textLength="198.5039" x="1001" y="168.1387">:Collaboration AbrirMiPublicacion</text></g><!--entity CrearPublicacion--><g class="entity" data-qualified-name="CrearPublicacion" data-source-line="19" id="ent0011"><rect fill="#CDEBA5" height="33.9688" rx="2.5" ry="2.5" style="stroke:#181818;stroke-width:0.5;" width="208.7715" x="1245" y="147"/><text fill="#000000" font-family="sans-serif" font-size="12" lengthAdjust="spacing" textLength="188.7715" x="1255" y="168.1387">:Collaboration CrearPublicacion</text></g><!--entity AbrirPanelPrincipal--><g class="entity" data-qualified-name="AbrirPanelPrincipal" data-source-line="20" id="ent0012"><rect fill="#CDEBA5" height="33.9688" rx="2.5" ry="2.5" style="stroke:#181818;stroke-width:0.5;" width="221.1172" x="1489" y="147"/><text fill="#000000" font-family="sans-serif" font-size="12" lengthAdjust="spacing" textLength="201.1172" x="1499" y="168.1387">:Collaboration AbrirPanelPrincipal</text></g><!--link NavegacionSistema to ListarMisPublicacionesView--><g class="link" data-entity-1="ent0002" data-entity-2="ent0005" data-link-type="dependency" data-source-line="22" id="lnk13"><path d="M150.18,55 C247.84,55 416.82,55 524.19,55" fill="none" id="NavegacionSistema-to-ListarMisPublicacionesView" style="stroke:#181818;stroke-width:1;"/><polygon fill="#181818" points="530.19,55,521.19,51,525.19,55,521.19,59,530.19,55" style="stroke:#181818;stroke-width:1;"/><text fill="#000000" font-family="sans-serif" font-size="12" lengthAdjust="spacing" textLength="139.0664" x="270.75" y="49.1387">abrirMisPublicaciones()</text></g><!--link ListarMisPublicacionesView to PublicacionController--><g class="link" data-entity-1="ent0005" data-entity-2="ent0006" data-link-type="dependency" data-source-line="24" id="lnk14"><path d="M595.57,72.09 C573.36,85.35 545.5,102 545.5,102 C545.5,102 509.0833,125.6342 481.2333,143.7042" fill="none" id="ListarMisPublicacionesView-to-PublicacionController" style="stroke:#181818;stroke-width:1;"/><polygon fill="#181818" points="476.2,146.97,485.9272,145.4269,480.3945,144.2485,481.5728,138.7157,476.2,146.97" style="stroke:#181818;stroke-width:1;"/><text fill="#000000" font-family="sans-serif" font-size="12" lengthAdjust="spacing" textLength="261.5215" x="546.5" y="114.1387">listarMisPublicaciones() : List&lt;Publicacion&gt;</text></g><!--link PublicacionController to Sesion--><g class="link" data-entity-1="ent0006" data-entity-2="ent0009" data-link-type="dependency" data-source-line="25" id="lnk15"><path d="M470.04,181.09 C485.32,194.35 504.5,211 504.5,211 C504.5,211 518.4686,232.8445 530.0186,250.9145" fill="none" id="PublicacionController-to-Sesion" style="stroke:#181818;stroke-width:1;"/><polygon fill="#181818" points="533.25,255.97,531.7733,246.2325,530.5572,251.7571,525.0326,250.541,533.25,255.97" style="stroke:#181818;stroke-width:1;"/><text fill="#000000" font-family="sans-serif" font-size="12" lengthAdjust="spacing" textLength="169.752" x="514.5" y="223.1387">getUsuarioActual() : Usuario</text></g><!--link PublicacionController to PublicacionRepository--><g class="link" data-entity-1="ent0006" data-entity-2="ent0007" data-link-type="dependency" data-source-line="26" id="lnk16"><path d="M377.88,179.05 C307.01,192.58 210.5,211 210.5,211 C210.5,211 210.5,226 210.5,226 C210.5,226 223.5375,238.4991 237.3775,251.7591" fill="none" id="PublicacionController-to-PublicacionRepository" style="stroke:#181818;stroke-width:1;"/><polygon fill="#181818" points="241.71,255.91,237.9786,246.7954,238.0996,252.4509,232.4441,252.572,241.71,255.91" style="stroke:#181818;stroke-width:1;"/><text fill="#000000" font-family="sans-serif" font-size="12" lengthAdjust="spacing" textLength="284.9355" x="211.5" y="223.1387">obtenerPorAutor(usuarioId) : List&lt;Publicacion&gt;</text></g><!--link PublicacionRepository to Publicacion--><g class="link" data-entity-1="ent0007" data-entity-2="ent0008" data-link-type="association" data-source-line="27" id="lnk17"><path d="M258.5,290.2 C258.5,307.27 258.5,333.99 258.5,350.99" fill="none" id="PublicacionRepository-Publicacion" style="stroke:#181818;stroke-width:1;"/></g><!--link ListarMisPublicacionesView to AbrirMiPublicacion--><g class="link" data-entity-1="ent0005" data-entity-2="ent0010" data-link-type="dependency" data-source-line="29" id="lnk18"><path d="M714.63,71.64 C793.19,84.97 893.5,102 893.5,102 C893.5,102 979.0246,127.2043 1040.3546,145.2743" fill="none" id="ListarMisPublicacionesView-to-AbrirMiPublicacion" style="stroke:#181818;stroke-width:1;stroke-dasharray:7,7;"/><polygon fill="#181818" points="1046.11,146.97,1038.6074,140.5895,1041.3138,145.5569,1036.3464,148.2633,1046.11,146.97" style="stroke:#181818;stroke-width:1;"/><text fill="#000000" font-family="sans-serif" font-size="12" lengthAdjust="spacing" textLength="198.6738" x="944.5" y="114.1387">abrirMiPublicacion(publicacionId)</text></g><!--link ListarMisPublicacionesView to CrearPublicacion--><g class="link" data-entity-1="ent0005" data-entity-2="ent0011" data-link-type="dependency" data-source-line="30" id="lnk19"><path d="M714.64,64.01 C866.21,77.19 1151.5,102 1151.5,102 C1151.5,102 1233.0758,127.1339 1291.7458,145.2039" fill="none" id="ListarMisPublicacionesView-to-CrearPublicacion" style="stroke:#181818;stroke-width:1;stroke-dasharray:7,7;"/><polygon fill="#181818" points="1297.48,146.97,1290.0561,140.4981,1292.7015,145.4983,1287.7013,148.1436,1297.48,146.97" style="stroke:#181818;stroke-width:1;"/><text fill="#000000" font-family="sans-serif" font-size="12" lengthAdjust="spacing" textLength="108.5215" x="1199.5" y="114.1387">crearPublicacion()</text></g><!--link ListarMisPublicacionesView to AbrirPanelPrincipal--><g class="link" data-entity-1="ent0005" data-entity-2="ent0012" data-link-type="dependency" data-source-line="31" id="lnk20"><path d="M714.66,62.11 C903.44,74.62 1316.5,102 1316.5,102 C1316.5,102 1435.4347,127.636 1519.2847,145.706" fill="none" id="ListarMisPublicacionesView-to-AbrirPanelPrincipal" style="stroke:#181818;stroke-width:1;stroke-dasharray:7,7;"/><polygon fill="#181818" points="1525.15,146.97,1517.1946,141.1638,1520.2622,145.9167,1515.5093,148.9842,1525.15,146.97" style="stroke:#181818;stroke-width:1;"/><text fill="#000000" font-family="sans-serif" font-size="12" lengthAdjust="spacing" textLength="121.793" x="1385.5" y="114.1387">abrirPanelPrincipal()</text></g><!--link ListarMisPublicacionesView to MisPublicacionesAbiertas--><g class="link" data-entity-1="ent0005" data-entity-2="ent0003" data-link-type="dependency" data-source-line="33" id="lnk21"><path d="M688.69,72.02 C743.52,85.3 812.5,102 812.5,102 C812.5,102 826.4686,123.8445 838.0186,141.9145" fill="none" id="ListarMisPublicacionesView-to-MisPublicacionesAbiertas" style="stroke:#181818;stroke-width:1;stroke-dasharray:7,7;"/><polygon fill="#181818" points="841.25,146.97,839.7733,137.2325,838.5572,142.7571,833.0326,141.541,841.25,146.97" style="stroke:#181818;stroke-width:1;"/><text fill="#000000" font-family="sans-serif" font-size="12" lengthAdjust="spacing" textLength="62.4551" x="822.5" y="114.1387">&#171;finalizar&#187;</text></g><?plantuml-src ZPJ1Rfj048Rl-nGZ-u8FZbIhYHfaMS84IqX9QeMcrsZ0OxBAPXVjBhMSga_LH-YB5ODZOuonES4_Cny_mm_cZSiCDRv3ZCbRgbKk5xuIIiFgbLjYPbSthxXGAovJMA8mzSeTBJ4NTgQahKPZKR3Q6oB-GV1bL2iABickCu9CYVNcWZ5DYKMP2eA-VnTClMleFU8lIZ7X__vAYBYnz8uzG0EVkf9RjMtu8OnUvi_J-z3t_F3xOn2zUDCmUFhXHINZWPjv7WkUb1moNin9MpICPSLpO4hGmrXptUnp1kLuQmr-CoYElPdUVU4FZ_f-SbgLbDDbwD-CReFPRHDOQ_IBpMeb1EcIrLg1VdmTBsw-TM2UA5E6MwNNJSo-0ltPoFE_1XsOvl2faOZCPtTrkclyqve1jqYNm5Xfj9jchzfxyyR7yWKiNnFg9gafNkffZfB4N7EPy0p5tjIXpjXHTc6eXvEE9BXm8eUCTSHdk2YWhP5mYu-lRSmPW5lQ6DVa2MkFLOcltfyBATbdawFcoajiZg8aRPMk-TQekQ1YIvBqN6alBnGdhqZXugp1Mc27mpg-SrLNLvEM_EpMNjESR7zUs3a7RKR9XQIXE8EBZ1rcQEliK3mJXmtgr1_FXV5uoIKA_e5wClaF?></g></svg>