<?xml version="1.0" encoding="us-ascii" standalone="no"?><svg xmlns="http://www.w3.org/2000/svg" xmlns:xlink="http://www.w3.org/1999/xlink" contentStyleType="text/css" height="840px" preserveAspectRatio="none" style="width:758px;height:840px;background:#FFFFFF;" version="1.1" viewBox="0 0 758 840" width="758px" zoomAndPan="magnify"><defs/><g><g id="in1"><rect fill="#F1F1F1" height="50" rx="12.5" ry="12.5" style="stroke:#181818;stroke-width:0.5;" width="234" x="232" y="7"/><line style="stroke:#181818;stroke-width:0.5;" x1="232" x2="466" y1="34.6094" y2="34.6094"/><text fill="#000000" font-family="sans-serif" font-size="14" lengthAdjust="spacing" textLength="214" x="242" y="26.5332">MIS_PUBLICACIONES_ABIERTAS</text></g><path d="M90.5,118 L607.5,118 A12.5,12.5 0 0 1 620,130.5 L620,145.6094 L78,145.6094 L78,130.5 A12.5,12.5 0 0 1 90.5,118 " fill="#F1F1F1" style="stroke:#F1F1F1;stroke-width:1.0;"/><rect fill="none" height="569.6094" rx="12.5" ry="12.5" style="stroke:#181818;stroke-width:0.5;" width="542" x="78" y="118"/><line style="stroke:#181818;stroke-width:0.5;" x1="78" x2="620" y1="145.6094" y2="145.6094"/><text fill="#000000" font-family="sans-serif" font-size="14" lengthAdjust="spacing" textLength="115" x="291.5" y="137.5332">crearPublicacion()</text><g id="crearPublicacion.SolicitandoDatos"><rect fill="#F1F1F1" height="50" rx="12.5" ry="12.5" style="stroke:#181818;stroke-width:0.5;" width="50" x="90" y="248.6094"/><line style="stroke:#181818;stroke-width:0.5;" x1="90" x2="140" y1="276.2188" y2="276.2188"/><text fill="#000000" font-family="sans-serif" font-size="14" lengthAdjust="spacing" textLength="4" x="113" y="268.1426">&#160;</text></g><g id="crearPublicacion.CreandoPublicacion"><rect fill="#F1F1F1" height="50" rx="12.5" ry="12.5" style="stroke:#181818;stroke-width:0.5;" width="50" x="90" y="517.6094"/><line style="stroke:#181818;stroke-width:0.5;" x1="90" x2="140" y1="545.2188" y2="545.2188"/><text fill="#000000" font-family="sans-serif" font-size="14" lengthAdjust="spacing" textLength="4" x="113" y="537.1426">&#160;</text></g><ellipse cx="115" cy="166.6094" fill="#222222" rx="10" ry="10" style="stroke:#222222;stroke-width:1.0;"/><ellipse cx="115" cy="666.6094" fill="none" rx="11" ry="11" style="stroke:#222222;stroke-width:1.0;"/><ellipse cx="115" cy="666.6094" fill="#222222" rx="6" ry="6" style="stroke:#222222;stroke-width:1.0;"/><!--link *start*crearPublicacion to SolicitandoDatos--><g id="link_*start*crearPublicacion_SolicitandoDatos"><path d="M115,176.9294 C115,192.7894 115,219.5194 115,242.2494 " fill="none" id="*start*crearPublicacion-to-SolicitandoDatos" style="stroke:#008000;stroke-width:1.0;"/><polygon fill="#008000" points="115,248.2494,119,239.2494,115,243.2494,111,239.2494,115,248.2494" style="stroke:#008000;stroke-width:1.0;"/><path d="M120,199.6094 L120,225.6094 L367,225.6094 L367,209.6094 L357,199.6094 L120,199.6094 " fill="#FEFFDD" style="stroke:#181818;stroke-width:0.5;"/><path d="M357,199.6094 L357,209.6094 L367,209.6094 L357,199.6094 " fill="#FEFFDD" style="stroke:#181818;stroke-width:0.5;"/><text fill="#000000" font-family="sans-serif" font-size="13" font-weight="bold" lengthAdjust="spacing" textLength="79" x="126" y="218.1045">Coordinador</text><text fill="#000000" font-family="sans-serif" font-size="13" lengthAdjust="spacing" textLength="143" x="209" y="218.1045">solicita crear publicaci&#243;n</text></g><!--link SolicitandoDatos to CreandoPublicacion--><g id="link_SolicitandoDatos_CreandoPublicacion"><path d="M115,298.7794 C115,349.4794 115,460.4794 115,511.3094 " fill="none" id="SolicitandoDatos-to-CreandoPublicacion" style="stroke:#008000;stroke-width:1.0;"/><polygon fill="#008000" points="115,517.3094,119,508.3094,115,512.3094,111,508.3094,115,517.3094" style="stroke:#008000;stroke-width:1.0;"/><path d="M120,321.6094 L120,494.6094 L611,494.6094 L611,331.6094 L601,321.6094 L120,321.6094 " fill="#FEFFDD" style="stroke:#181818;stroke-width:0.5;"/><path d="M601,321.6094 L601,331.6094 L611,331.6094 L601,321.6094 " fill="#FEFFDD" style="stroke:#181818;stroke-width:0.5;"/><text fill="#000000" font-family="sans-serif" font-size="13" font-weight="bold" lengthAdjust="spacing" textLength="51" x="126" y="340.1045">Sistema</text><text fill="#000000" font-family="sans-serif" font-size="13" lengthAdjust="spacing" textLength="415" x="181" y="340.1045">presenta el formulario de creaci&#243;n de la publicaci&#243;n y permite introducir:</text><text fill="#000000" font-family="sans-serif" font-size="13" lengthAdjust="spacing" textLength="40" x="126" y="356.4561">&#8226; T&#237;tulo</text><text fill="#000000" font-family="sans-serif" font-size="13" lengthAdjust="spacing" textLength="50" x="126" y="372.8076">&#8226; Estado</text><text fill="#000000" font-family="sans-serif" font-size="13" lengthAdjust="spacing" textLength="68" x="126" y="389.1592">&#8226; Visibilidad</text><text fill="#000000" font-family="sans-serif" font-size="13" lengthAdjust="spacing" textLength="77" x="126" y="405.5107">&#8226; Descripci&#243;n</text><text fill="#000000" font-family="sans-serif" font-size="13" lengthAdjust="spacing" textLength="120" x="126" y="421.8623">&#8226; Adjuntos (opcional)</text><text fill="#000000" font-family="sans-serif" font-size="13" lengthAdjust="spacing" textLength="4" x="126" y="438.2139">&#160;</text><text fill="#000000" font-family="sans-serif" font-size="13" lengthAdjust="spacing" textLength="247" x="126" y="454.5654">y permite solicitar las siguientes acciones:</text><text fill="#000000" font-family="sans-serif" font-size="13" lengthAdjust="spacing" textLength="109" x="126" y="470.917">&#8226; Crear publicaci&#243;n</text><text fill="#000000" font-family="sans-serif" font-size="13" lengthAdjust="spacing" textLength="163" x="126" y="487.2686">&#8226; Volver a mis publicaciones</text></g><!--link CreandoPublicacion to *end*crearPublicacion--><g id="link_CreandoPublicacion_*end*crearPublicacion"><path d="M115,567.7094 C115,594.3794 115,630.1094 115,649.3094 " fill="none" id="CreandoPublicacion-to-*end*crearPublicacion" style="stroke:#008000;stroke-width:1.0;"/><polygon fill="#008000" points="115,655.3094,119,646.3094,115,650.3094,111,646.3094,115,655.3094" style="stroke:#008000;stroke-width:1.0;"/><path d="M120,590.6094 L120,632.6094 L572,632.6094 L572,600.6094 L562,590.6094 L120,590.6094 " fill="#FEFFDD" style="stroke:#181818;stroke-width:0.5;"/><path d="M562,590.6094 L562,600.6094 L572,600.6094 L562,590.6094 " fill="#FEFFDD" style="stroke:#181818;stroke-width:0.5;"/><text fill="#000000" font-family="sans-serif" font-size="13" font-weight="bold" lengthAdjust="spacing" textLength="79" x="126" y="609.1045">Coordinador</text><text fill="#000000" font-family="sans-serif" font-size="13" lengthAdjust="spacing" textLength="348" x="209" y="609.1045">introduce los datos solicitados y solicita crear la publicaci&#243;n</text><text fill="#000000" font-family="sans-serif" font-size="13" font-weight="bold" lengthAdjust="spacing" textLength="51" x="126" y="625.4561">Sistema</text><text fill="#000000" font-family="sans-serif" font-size="13" lengthAdjust="spacing" textLength="175" x="181" y="625.4561">visualiza la publicaci&#243;n creada</text></g><g id="MI_PUBLICACION_ABIERTA"><rect fill="#F1F1F1" height="50" rx="12.5" ry="12.5" style="stroke:#181818;stroke-width:0.5;" width="198" x="7" y="784"/><line style="stroke:#181818;stroke-width:0.5;" x1="7" x2="205" y1="811.6094" y2="811.6094"/><text fill="#000000" font-family="sans-serif" font-size="14" lengthAdjust="spacing" textLength="178" x="17" y="803.5332">MI_PUBLICACION_ABIERTA</text></g><g id="MIS_PUBLICACIONES_ABIERTAS"><rect fill="#F1F1F1" height="50" rx="12.5" ry="12.5" style="stroke:#181818;stroke-width:0.5;" width="234" x="416" y="784"/><line style="stroke:#181818;stroke-width:0.5;" x1="416" x2="650" y1="811.6094" y2="811.6094"/><text fill="#000000" font-family="sans-serif" font-size="14" lengthAdjust="spacing" textLength="214" x="426" y="803.5332">MIS_PUBLICACIONES_ABIERTAS</text></g><!--link in1 to crearPublicacion--><g id="link_in1_crearPublicacion"><path d="M349,57.21 C349,72.28 349,87.44 349,111.95 " fill="none" id="in1-to-crearPublicacion" style="stroke:#008000;stroke-width:1.0;"/><polygon fill="#008000" points="349,117.95,353,108.95,349,112.95,345,108.95,349,117.95" style="stroke:#008000;stroke-width:1.0;"/></g><!--link crearPublicacion to MI_PUBLICACION_ABIERTA--><g id="link_crearPublicacion_MI_PUBLICACION_ABIERTA"><path d="M77.84,664.38 C44.57,696.33 22,718 22,718 C22,718 22,754 22,754 C22,754 41.0125,766.2261 63.3725,780.5961 " fill="none" id="crearPublicacion-to-MI_PUBLICACION_ABIERTA" style="stroke:#008000;stroke-width:1.0;"/><polygon fill="#008000" points="68.42,783.84,63.0113,775.6092,64.2137,781.1368,58.6862,782.3392,68.42,783.84" style="stroke:#008000;stroke-width:1.0;"/><path d="M27,723 L27,749 L212,749 L212,733 L202,723 L27,723 " fill="#FEFFDD" style="stroke:#181818;stroke-width:0.5;"/><path d="M202,723 L202,733 L212,733 L202,723 " fill="#FEFFDD" style="stroke:#181818;stroke-width:0.5;"/><text fill="#000000" font-family="sans-serif" font-size="13" lengthAdjust="spacing" textLength="164" x="33" y="741.4951">Publicaci&#243;n creada y abierta</text></g><!--link crearPublicacion to MI_PUBLICACION_ABIERTA--><g id="link_crearPublicacion_MI_PUBLICACION_ABIERTA"><path d="M245.08,688.17 C230.85,727.08 221,754 221,754 C221,754 193.4913,766.9203 162.8813,781.2903 " fill="none" id="crearPublicacion-to-MI_PUBLICACION_ABIERTA-1" style="stroke:#008000;stroke-width:1.0;"/><polygon fill="#008000" points="157.45,783.84,167.2967,783.6362,161.9761,781.7152,163.8971,776.3945,157.45,783.84" style="stroke:#008000;stroke-width:1.0;"/><path d="M237,723 L237,749 L365,749 L365,733 L355,723 L237,723 " fill="#FEFFDD" style="stroke:#181818;stroke-width:0.5;"/><path d="M355,723 L355,733 L365,733 L355,723 " fill="#FEFFDD" style="stroke:#181818;stroke-width:0.5;"/><text fill="#000000" font-family="sans-serif" font-size="13" lengthAdjust="spacing" textLength="107" x="243" y="741.4951">editarPublicacion()</text></g><!--link crearPublicacion to MIS_PUBLICACIONES_ABIERTAS--><g id="link_crearPublicacion_MIS_PUBLICACIONES_ABIERTAS"><path d="M418.82,688.17 C428.38,727.08 435,754 435,754 C435,754 457.8144,766.5753 483.9044,780.9453 " fill="none" id="crearPublicacion-to-MIS_PUBLICACIONES_ABIERTAS" style="stroke:#008000;stroke-width:1.0;"/><polygon fill="#008000" points="489.16,783.84,483.2065,775.9943,484.7804,781.4278,479.3469,783.0017,489.16,783.84" style="stroke:#008000;stroke-width:1.0;"/><path d="M440,723 L440,749 L581,749 L581,733 L571,723 L440,723 " fill="#FEFFDD" style="stroke:#181818;stroke-width:0.5;"/><path d="M571,723 L571,733 L581,733 L571,723 " fill="#FEFFDD" style="stroke:#181818;stroke-width:0.5;"/><text fill="#000000" font-family="sans-serif" font-size="13" lengthAdjust="spacing" textLength="120" x="446" y="741.4951">eliminarPublicacion()</text></g><!--link crearPublicacion to MIS_PUBLICACIONES_ABIERTAS--><g id="link_crearPublicacion_MIS_PUBLICACIONES_ABIERTAS"><path d="M567.11,688.18 C581.26,706.61 590,718 590,718 C590,718 590,754 590,754 C590,754 578.0373,765.3452 562.8573,779.7152 " fill="none" id="crearPublicacion-to-MIS_PUBLICACIONES_ABIERTAS-1" style="stroke:#008000;stroke-width:1.0;"/><polygon fill="#008000" points="558.5,783.84,567.7858,780.5577,562.1311,780.4027,562.2861,774.7479,558.5,783.84" style="stroke:#008000;stroke-width:1.0;"/><path d="M595,723 L595,749 L751,749 L751,733 L741,723 L595,723 " fill="#FEFFDD" style="stroke:#181818;stroke-width:0.5;"/><path d="M741,723 L741,733 L751,733 L741,723 " fill="#FEFFDD" style="stroke:#181818;stroke-width:0.5;"/><text fill="#000000" font-family="sans-serif" font-size="13" lengthAdjust="spacing" textLength="135" x="601" y="741.4951">abrirMisPublicaciones()</text></g><!--SRC=[jLJDQjmm4BxhAORj9Ic4qci82njd3uPkiiHfBo64iQM6QMJ9I7PWMmfzbjvxwYFaJVea7SbnlFu914hNbvtnp7pVDvzaVq-cGeSbQ3AgtbKAAgjt8H32rrWh8FCUqCDYasQtsu-d7z9abQGNv-liTdMQhY-lLjb2X9gZwpTtJYbpSxI4mYbqsoRNL611rdIpnlauU9myE5p0Do60VstNWXykp2nNK8r6sZEihPzM93o9tmw0Gz7rsvi1lTb9nl8WfiJQxsFY95ycrZf91gLr9-_o9VYdnbO8L1tGusyJMvIHSKuBEuOPS9ZX-XABZ7ojIemCAgUyCin0QVXiNTbeT6H1jhkDJ4AWSK0ETb0fLrAqitPMDWMvupZ_pu-VSFNugswqVOxNl5NPXv_8KqwQ9Chdt9doXQEgbnwIA_cbCK7eWQs28jI7xIPw-6w3ZYbwy7JN4CjH7h087Shth9Bv7KT6LZye1mWb-RuYjC_OCDtqm0W-7A_slriUBvXLocXgfqZo_ztuX8nyc7FqWNo3chxYnBGmGk9GqNSX9fTeNyqctR-atHKL0t7RAGWpnvoKgr7qo_jd82M3quEh_VhnBtrjHX2QIZRe_u9WxiXjo6_tJze-p5y0]--></g></svg>