<?xml version="1.0" encoding="us-ascii" standalone="no"?><svg xmlns="http://www.w3.org/2000/svg" xmlns:xlink="http://www.w3.org/1999/xlink" contentStyleType="text/css" height="1161px" preserveAspectRatio="none" style="width:1517px;height:1161px;background:#FFFFFF;" version="1.1" viewBox="0 0 1517 1161" width="1517px" zoomAndPan="magnify"><defs/><g><g id="in1"><rect fill="#F1F1F1" height="50" rx="12.5" ry="12.5" style="stroke:#181818;stroke-width:0.5;" width="184" x="515" y="7"/><line style="stroke:#181818;stroke-width:0.5;" x1="515" x2="699" y1="34.6094" y2="34.6094"/><text fill="#000000" font-family="sans-serif" font-size="14" lengthAdjust="spacing" textLength="164" x="525" y="26.5332">PROYECTOS_ABIERTOS</text></g><path d="M455.5,118 L984.5,118 A12.5,12.5 0 0 1 997,130.5 L997,145.6094 L443,145.6094 L443,130.5 A12.5,12.5 0 0 1 455.5,118 " fill="#F1F1F1" style="stroke:#F1F1F1;stroke-width:1.0;"/><rect fill="none" height="890.6094" rx="12.5" ry="12.5" style="stroke:#181818;stroke-width:0.5;" width="554" x="443" y="118"/><line style="stroke:#181818;stroke-width:0.5;" x1="443" x2="997" y1="145.6094" y2="145.6094"/><text fill="#000000" font-family="sans-serif" font-size="14" lengthAdjust="spacing" textLength="95" x="672.5" y="137.5332">abrirProyecto()</text><g id="abrirProyecto.MostrandoListaProyectos"><rect fill="#F1F1F1" height="50" rx="12.5" ry="12.5" style="stroke:#181818;stroke-width:0.5;" width="50" x="455" y="248.6094"/><line style="stroke:#181818;stroke-width:0.5;" x1="455" x2="505" y1="276.2188" y2="276.2188"/><text fill="#000000" font-family="sans-serif" font-size="14" lengthAdjust="spacing" textLength="4" x="478" y="268.1426">&#160;</text></g><g id="abrirProyecto.FiltrandoBuscando"><rect fill="#F1F1F1" height="50" rx="12.5" ry="12.5" style="stroke:#181818;stroke-width:0.5;" width="50" x="455" y="551.6094"/><line style="stroke:#181818;stroke-width:0.5;" x1="455" x2="505" y1="579.2188" y2="579.2188"/><text fill="#000000" font-family="sans-serif" font-size="14" lengthAdjust="spacing" textLength="4" x="478" y="571.1426">&#160;</text></g><g id="abrirProyecto.SeleccionandoProyecto"><rect fill="#F1F1F1" height="50" rx="12.5" ry="12.5" style="stroke:#181818;stroke-width:0.5;" width="50" x="455" y="674.6094"/><line style="stroke:#181818;stroke-width:0.5;" x1="455" x2="505" y1="702.2188" y2="702.2188"/><text fill="#000000" font-family="sans-serif" font-size="14" lengthAdjust="spacing" textLength="4" x="478" y="694.1426">&#160;</text></g><ellipse cx="480" cy="166.6094" fill="#222222" rx="10" ry="10" style="stroke:#222222;stroke-width:1.0;"/><ellipse cx="480" cy="987.6094" fill="none" rx="11" ry="11" style="stroke:#222222;stroke-width:1.0;"/><ellipse cx="480" cy="987.6094" fill="#222222" rx="6" ry="6" style="stroke:#222222;stroke-width:1.0;"/><!--link *start*abrirProyecto to MostrandoListaProyectos--><g id="link_*start*abrirProyecto_MostrandoListaProyectos"><path d="M480,176.9294 C480,192.7894 480,219.5194 480,242.2494 " fill="none" id="*start*abrirProyecto-to-MostrandoListaProyectos" style="stroke:#008000;stroke-width:1.0;"/><polygon fill="#008000" points="480,248.2494,484,239.2494,480,243.2494,476,239.2494,480,248.2494" style="stroke:#008000;stroke-width:1.0;"/><path d="M485,199.6094 L485,225.6094 L731,225.6094 L731,209.6094 L721,199.6094 L485,199.6094 " fill="#FEFFDD" style="stroke:#181818;stroke-width:0.5;"/><path d="M721,199.6094 L721,209.6094 L731,209.6094 L721,199.6094 " fill="#FEFFDD" style="stroke:#181818;stroke-width:0.5;"/><text fill="#000000" font-family="sans-serif" font-size="13" font-weight="bold" lengthAdjust="spacing" textLength="79" x="491" y="218.1045">Coordinador</text><text fill="#000000" font-family="sans-serif" font-size="13" lengthAdjust="spacing" textLength="142" x="574" y="218.1045">solicita abrir un proyecto</text></g><!--link MostrandoListaProyectos to FiltrandoBuscando--><g id="link_MostrandoListaProyectos_FiltrandoBuscando"><path d="M480,298.7294 C480,355.0894 480,488.8994 480,545.3694 " fill="none" id="MostrandoListaProyectos-to-FiltrandoBuscando" style="stroke:#008000;stroke-width:1.0;"/><polygon fill="#008000" points="480,551.3694,484,542.3694,480,546.3694,476,542.3694,480,551.3694" style="stroke:#008000;stroke-width:1.0;"/><path d="M485,321.6094 L485,527.6094 L761,527.6094 L761,331.6094 L751,321.6094 L485,321.6094 " fill="#FEFFDD" style="stroke:#181818;stroke-width:0.5;"/><path d="M751,321.6094 L751,331.6094 L761,331.6094 L751,321.6094 " fill="#FEFFDD" style="stroke:#181818;stroke-width:0.5;"/><text fill="#000000" font-family="sans-serif" font-size="13" font-weight="bold" lengthAdjust="spacing" textLength="51" x="491" y="340.1045">Sistema</text><text fill="#000000" font-family="sans-serif" font-size="13" lengthAdjust="spacing" textLength="200" x="546" y="340.1045">presenta la lista de proyectos con:</text><text fill="#000000" font-family="sans-serif" font-size="13" lengthAdjust="spacing" textLength="21" x="491" y="356.4561">&#8226; ID</text><text fill="#000000" font-family="sans-serif" font-size="13" lengthAdjust="spacing" textLength="40" x="491" y="372.8076">&#8226; T&#237;tulo</text><text fill="#000000" font-family="sans-serif" font-size="13" lengthAdjust="spacing" textLength="50" x="491" y="389.1592">&#8226; Estado</text><text fill="#000000" font-family="sans-serif" font-size="13" lengthAdjust="spacing" textLength="152" x="491" y="405.5107">&#8226; Coordinador responsable</text><text fill="#000000" font-family="sans-serif" font-size="13" lengthAdjust="spacing" textLength="132" x="491" y="421.8623">&#8226; Fechas de inicio y fin</text><text fill="#000000" font-family="sans-serif" font-size="13" lengthAdjust="spacing" textLength="77" x="491" y="438.2139">&#8226; Descripci&#243;n</text><text fill="#000000" font-family="sans-serif" font-size="13" lengthAdjust="spacing" textLength="4" x="491" y="454.5654">&#160;</text><text fill="#000000" font-family="sans-serif" font-size="13" lengthAdjust="spacing" textLength="247" x="491" y="470.917">y permite solicitar las siguientes acciones:</text><text fill="#000000" font-family="sans-serif" font-size="13" lengthAdjust="spacing" textLength="103" x="491" y="487.2686">&#8226; Filtrar proyectos</text><text fill="#000000" font-family="sans-serif" font-size="13" lengthAdjust="spacing" textLength="111" x="491" y="503.6201">&#8226; Buscar proyectos</text><text fill="#000000" font-family="sans-serif" font-size="13" lengthAdjust="spacing" textLength="149" x="491" y="519.9717">&#8226; Seleccionar un proyecto</text></g><!--link FiltrandoBuscando to FiltrandoBuscando--><g id="link_FiltrandoBuscando_FiltrandoBuscando"><path d="M505.18,565.0294 C514.91,564.5194 523,568.3794 523,576.6094 C523,584.8394 520.9018,589.0134 511.1718,588.5034 " fill="none" id="FiltrandoBuscando-to-FiltrandoBuscando" style="stroke:#008000;stroke-width:1.0;"/><polygon fill="#008000" points="505.18,588.1894,513.9583,592.655,510.1731,588.4511,514.377,584.6659,505.18,588.1894" style="stroke:#008000;stroke-width:1.0;"/><path d="M528,555.6094 L528,597.6094 L761,597.6094 L761,565.6094 L751,555.6094 L528,555.6094 " fill="#FEFFDD" style="stroke:#181818;stroke-width:0.5;"/><path d="M751,555.6094 L751,565.6094 L761,565.6094 L751,555.6094 " fill="#FEFFDD" style="stroke:#181818;stroke-width:0.5;"/><text fill="#000000" font-family="sans-serif" font-size="13" font-weight="bold" lengthAdjust="spacing" textLength="79" x="534" y="574.1045">Coordinador</text><text fill="#000000" font-family="sans-serif" font-size="13" lengthAdjust="spacing" textLength="129" x="617" y="574.1045">aplica filtros/b&#250;squeda</text><text fill="#000000" font-family="sans-serif" font-size="13" font-weight="bold" lengthAdjust="spacing" textLength="51" x="534" y="590.4561">Sistema</text><text fill="#000000" font-family="sans-serif" font-size="13" lengthAdjust="spacing" textLength="131" x="589" y="590.4561">muestra la lista filtrada</text></g><!--link FiltrandoBuscando to SeleccionandoProyecto--><g id="link_FiltrandoBuscando_SeleccionandoProyecto"><path d="M480,601.8094 C480,622.9094 480,647.3694 480,668.4594 " fill="none" id="FiltrandoBuscando-to-SeleccionandoProyecto" style="stroke:#008000;stroke-width:1.0;"/><polygon fill="#008000" points="480,674.4594,484,665.4594,480,669.4594,476,665.4594,480,674.4594" style="stroke:#008000;stroke-width:1.0;"/><path d="M485,625.6094 L485,651.6094 L786,651.6094 L786,635.6094 L776,625.6094 L485,625.6094 " fill="#FEFFDD" style="stroke:#181818;stroke-width:0.5;"/><path d="M776,625.6094 L776,635.6094 L786,635.6094 L776,625.6094 " fill="#FEFFDD" style="stroke:#181818;stroke-width:0.5;"/><text fill="#000000" font-family="sans-serif" font-size="13" font-weight="bold" lengthAdjust="spacing" textLength="79" x="491" y="644.1045">Coordinador</text><text fill="#000000" font-family="sans-serif" font-size="13" lengthAdjust="spacing" textLength="197" x="574" y="644.1045">selecciona un proyecto del listado</text></g><!--link SeleccionandoProyecto to *end*abrirProyecto--><g id="link_SeleccionandoProyecto_*end*abrirProyecto"><path d="M480,724.9894 C480,784.5694 480,929.6094 480,970.3494 " fill="none" id="SeleccionandoProyecto-to-*end*abrirProyecto" style="stroke:#008000;stroke-width:1.0;"/><polygon fill="#008000" points="480,976.3494,484,967.3494,480,971.3494,476,967.3494,480,976.3494" style="stroke:#008000;stroke-width:1.0;"/><path d="M485,747.6094 L485,953.6094 L988,953.6094 L988,757.6094 L978,747.6094 L485,747.6094 " fill="#FEFFDD" style="stroke:#181818;stroke-width:0.5;"/><path d="M978,747.6094 L978,757.6094 L988,757.6094 L978,747.6094 " fill="#FEFFDD" style="stroke:#181818;stroke-width:0.5;"/><text fill="#000000" font-family="sans-serif" font-size="13" font-weight="bold" lengthAdjust="spacing" textLength="51" x="491" y="766.1045">Sistema</text><text fill="#000000" font-family="sans-serif" font-size="13" lengthAdjust="spacing" textLength="226" x="546" y="766.1045">visualiza el proyecto seleccionado con:</text><text fill="#000000" font-family="sans-serif" font-size="13" lengthAdjust="spacing" textLength="482" x="491" y="782.4561">&#8226; Datos del proyecto (ID, t&#237;tulo, estado, entidad financiadora, coordinador, inicio, fin)</text><text fill="#000000" font-family="sans-serif" font-size="13" lengthAdjust="spacing" textLength="77" x="491" y="798.8076">&#8226; Descripci&#243;n</text><text fill="#000000" font-family="sans-serif" font-size="13" lengthAdjust="spacing" textLength="49" x="491" y="815.1592">&#8226; Equipo</text><text fill="#000000" font-family="sans-serif" font-size="13" lengthAdjust="spacing" textLength="4" x="491" y="831.5107">&#160;</text><text fill="#000000" font-family="sans-serif" font-size="13" lengthAdjust="spacing" textLength="247" x="491" y="847.8623">y permite solicitar las siguientes acciones:</text><text fill="#000000" font-family="sans-serif" font-size="13" lengthAdjust="spacing" textLength="97" x="491" y="864.2139">&#8226; Editar proyecto</text><text fill="#000000" font-family="sans-serif" font-size="13" lengthAdjust="spacing" textLength="110" x="491" y="880.5654">&#8226; Eliminar proyecto</text><text fill="#000000" font-family="sans-serif" font-size="13" lengthAdjust="spacing" textLength="107" x="491" y="896.917">&#8226; Abrir entregables</text><text fill="#000000" font-family="sans-serif" font-size="13" lengthAdjust="spacing" textLength="126" x="491" y="913.2686">&#8226; Agregar investigador</text><text fill="#000000" font-family="sans-serif" font-size="13" lengthAdjust="spacing" textLength="122" x="491" y="929.6201">&#8226; Abrir investigadores</text><text fill="#000000" font-family="sans-serif" font-size="13" lengthAdjust="spacing" textLength="116" x="491" y="945.9717">&#8226; Volver a proyectos</text></g><g id="in2"><rect fill="#F1F1F1" height="50" rx="12.5" ry="12.5" style="stroke:#181818;stroke-width:0.5;" width="198" x="734" y="7"/><line style="stroke:#181818;stroke-width:0.5;" x1="734" x2="932" y1="34.6094" y2="34.6094"/><text fill="#000000" font-family="sans-serif" font-size="14" lengthAdjust="spacing" textLength="178" x="744" y="26.5332">ENTREGABLES_ABIERTOS</text></g><g id="PROYECTO_ABIERTO"><rect fill="#F1F1F1" height="50" rx="12.5" ry="12.5" style="stroke:#181818;stroke-width:0.5;" width="166" x="174" y="1105"/><line style="stroke:#181818;stroke-width:0.5;" x1="174" x2="340" y1="1132.6094" y2="1132.6094"/><text fill="#000000" font-family="sans-serif" font-size="14" lengthAdjust="spacing" textLength="146" x="184" y="1124.5332">PROYECTO_ABIERTO</text></g><g id="PROYECTOS_ABIERTOS"><rect fill="#F1F1F1" height="50" rx="12.5" ry="12.5" style="stroke:#181818;stroke-width:0.5;" width="184" x="684" y="1105"/><line style="stroke:#181818;stroke-width:0.5;" x1="684" x2="868" y1="1132.6094" y2="1132.6094"/><text fill="#000000" font-family="sans-serif" font-size="14" lengthAdjust="spacing" textLength="164" x="694" y="1124.5332">PROYECTOS_ABIERTOS</text></g><g id="ENTREGABLES_ABIERTOS"><rect fill="#F1F1F1" height="50" rx="12.5" ry="12.5" style="stroke:#181818;stroke-width:0.5;" width="198" x="1010" y="1105"/><line style="stroke:#181818;stroke-width:0.5;" x1="1010" x2="1208" y1="1132.6094" y2="1132.6094"/><text fill="#000000" font-family="sans-serif" font-size="14" lengthAdjust="spacing" textLength="178" x="1020" y="1124.5332">ENTREGABLES_ABIERTOS</text></g><g id="INVESTIGADORES_ABIERTOS"><rect fill="#F1F1F1" height="50" rx="12.5" ry="12.5" style="stroke:#181818;stroke-width:0.5;" width="217" x="1293.5" y="1105"/><line style="stroke:#181818;stroke-width:0.5;" x1="1293.5" x2="1510.5" y1="1132.6094" y2="1132.6094"/><text fill="#000000" font-family="sans-serif" font-size="14" lengthAdjust="spacing" textLength="197" x="1303.5" y="1124.5332">INVESTIGADORES_ABIERTOS</text></g><!--link in1 to abrirProyecto--><g id="link_in1_abrirProyecto"><path d="M612.15,57.13 C615.31,71.95 618.528,87.0021 623.858,111.9821 " fill="none" id="in1-to-abrirProyecto" style="stroke:#008000;stroke-width:1.0;"/><polygon fill="#008000" points="625.11,117.85,627.1439,108.2134,624.0666,112.9601,619.32,109.8828,625.11,117.85" style="stroke:#008000;stroke-width:1.0;"/></g><!--link in2 to abrirProyecto--><g id="link_in2_abrirProyecto"><path d="M827.85,57.13 C824.69,71.95 821.472,87.0021 816.142,111.9821 " fill="none" id="in2-to-abrirProyecto" style="stroke:#008000;stroke-width:1.0;"/><polygon fill="#008000" points="814.89,117.85,820.68,109.8828,815.9334,112.9601,812.8561,108.2134,814.89,117.85" style="stroke:#008000;stroke-width:1.0;"/></g><!--link abrirProyecto to PROYECTO_ABIERTO--><g id="link_abrirProyecto_PROYECTO_ABIERTO"><path d="M442.93,748.63 C242.23,882.01 6,1039 6,1039 C6,1039 6,1075 6,1075 C6,1075 94.8442,1094.1079 167.9042,1109.8279 " fill="none" id="abrirProyecto-to-PROYECTO_ABIERTO" style="stroke:#008000;stroke-width:1.0;"/><polygon fill="#008000" points="173.77,1111.09,165.8128,1105.2863,168.8819,1110.0382,164.13,1113.1073,173.77,1111.09" style="stroke:#008000;stroke-width:1.0;"/><path d="M11,1044 L11,1070 L127,1070 L127,1054 L117,1044 L11,1044 " fill="#FEFFDD" style="stroke:#181818;stroke-width:0.5;"/><path d="M117,1044 L117,1054 L127,1054 L117,1044 " fill="#FEFFDD" style="stroke:#181818;stroke-width:0.5;"/><text fill="#000000" font-family="sans-serif" font-size="13" lengthAdjust="spacing" textLength="95" x="17" y="1062.4951">Proyecto abierto</text></g><!--link abrirProyecto to PROYECTO_ABIERTO--><g id="link_abrirProyecto_PROYECTO_ABIERTO"><path d="M442.79,804.53 C306.87,922.22 172,1039 172,1039 C172,1039 172,1075 172,1075 C172,1075 191.2743,1087.2547 213.9143,1101.6247 " fill="none" id="abrirProyecto-to-PROYECTO_ABIERTO-1" style="stroke:#008000;stroke-width:1.0;"/><polygon fill="#008000" points="218.98,1104.84,213.5249,1096.6399,214.7585,1102.1606,209.2378,1103.3942,218.98,1104.84" style="stroke:#008000;stroke-width:1.0;"/><path d="M177,1044 L177,1070 L290,1070 L290,1054 L280,1044 L177,1044 " fill="#FEFFDD" style="stroke:#181818;stroke-width:0.5;"/><path d="M280,1044 L280,1054 L290,1054 L280,1044 " fill="#FEFFDD" style="stroke:#181818;stroke-width:0.5;"/><text fill="#000000" font-family="sans-serif" font-size="13" lengthAdjust="spacing" textLength="92" x="183" y="1062.4951">editarProyecto()</text></g><!--link abrirProyecto to PROYECTO_ABIERTO--><g id="link_abrirProyecto_PROYECTO_ABIERTO"><path d="M442.99,902.24 C372.59,988.07 311.8452,1062.131 280.5852,1100.241 " fill="none" id="abrirProyecto-to-PROYECTO_ABIERTO-2" style="stroke:#008000;stroke-width:1.0;"/><polygon fill="#008000" points="276.78,1104.88,285.5805,1100.4583,279.951,1101.0141,279.3951,1095.3847,276.78,1104.88" style="stroke:#008000;stroke-width:1.0;"/><path d="M330,1044 L330,1070 L470,1070 L470,1054 L460,1044 L330,1044 " fill="#FEFFDD" style="stroke:#181818;stroke-width:0.5;"/><path d="M460,1044 L460,1054 L470,1054 L460,1044 " fill="#FEFFDD" style="stroke:#181818;stroke-width:0.5;"/><text fill="#000000" font-family="sans-serif" font-size="13" lengthAdjust="spacing" textLength="119" x="336" y="1062.4951">agregarInvestigador()</text></g><!--link abrirProyecto to PROYECTO_ABIERTO--><g id="link_abrirProyecto_PROYECTO_ABIERTO"><path d="M513.62,1009.05 C495.01,1049.13 483,1075 483,1075 C483,1075 410.4659,1092.3362 346.0259,1107.7262 " fill="none" id="abrirProyecto-to-PROYECTO_ABIERTO-3" style="stroke:#008000;stroke-width:1.0;"/><polygon fill="#008000" points="340.19,1109.12,349.873,1110.9199,345.0532,1107.9585,348.0146,1103.1388,340.19,1109.12" style="stroke:#008000;stroke-width:1.0;"/><path d="M505,1044 L505,1070 L647,1070 L647,1054 L637,1044 L505,1044 " fill="#FEFFDD" style="stroke:#181818;stroke-width:0.5;"/><path d="M637,1044 L637,1054 L647,1054 L637,1044 " fill="#FEFFDD" style="stroke:#181818;stroke-width:0.5;"/><text fill="#000000" font-family="sans-serif" font-size="13" lengthAdjust="spacing" textLength="121" x="511" y="1062.4951">eliminarInvestigador()</text></g><!--link abrirProyecto to PROYECTOS_ABIERTOS--><g id="link_abrirProyecto_PROYECTOS_ABIERTOS"><path d="M717.19,1009.32 C717.07,1027.99 717,1039 717,1039 C717,1039 717,1075 717,1075 C717,1075 729.4727,1086.4204 745.1827,1100.7904 " fill="none" id="abrirProyecto-to-PROYECTOS_ABIERTOS" style="stroke:#008000;stroke-width:1.0;"/><polygon fill="#008000" points="749.61,1104.84,745.6689,1095.8141,745.9206,1101.4653,740.2694,1101.7171,749.61,1104.84" style="stroke:#008000;stroke-width:1.0;"/><path d="M722,1044 L722,1070 L848,1070 L848,1054 L838,1044 L722,1044 " fill="#FEFFDD" style="stroke:#181818;stroke-width:0.5;"/><path d="M838,1044 L838,1054 L848,1054 L838,1044 " fill="#FEFFDD" style="stroke:#181818;stroke-width:0.5;"/><text fill="#000000" font-family="sans-serif" font-size="13" lengthAdjust="spacing" textLength="105" x="728" y="1062.4951">eliminarProyecto()</text></g><!--link abrirProyecto to PROYECTOS_ABIERTOS--><g id="link_abrirProyecto_PROYECTOS_ABIERTOS"><path d="M848.43,1009.32 C853.82,1027.99 857,1039 857,1039 C857,1039 857,1075 857,1075 C857,1075 838.7927,1087.1423 817.2327,1101.5123 " fill="none" id="abrirProyecto-to-PROYECTOS_ABIERTOS-1" style="stroke:#008000;stroke-width:1.0;"/><polygon fill="#008000" points="812.24,1104.84,821.9474,1103.1769,816.4005,1102.0669,817.5105,1096.5201,812.24,1104.84" style="stroke:#008000;stroke-width:1.0;"/><path d="M862,1044 L862,1070 L975,1070 L975,1054 L965,1044 L862,1044 " fill="#FEFFDD" style="stroke:#181818;stroke-width:0.5;"/><path d="M965,1044 L965,1054 L975,1054 L965,1044 " fill="#FEFFDD" style="stroke:#181818;stroke-width:0.5;"/><text fill="#000000" font-family="sans-serif" font-size="13" lengthAdjust="spacing" textLength="92" x="868" y="1062.4951">abrirProyectos()</text></g><!--link abrirProyecto to ENTREGABLES_ABIERTOS--><g id="link_abrirProyecto_ENTREGABLES_ABIERTOS"><path d="M997.09,985.49 C1032.12,1038.72 1056,1075 1056,1075 C1056,1075 1066.9763,1086.1888 1081.0863,1100.5588 " fill="none" id="abrirProyecto-to-ENTREGABLES_ABIERTOS" style="stroke:#008000;stroke-width:1.0;"/><polygon fill="#008000" points="1085.29,1104.84,1081.8385,1095.6157,1081.7869,1101.2723,1076.1303,1101.2207,1085.29,1104.84" style="stroke:#008000;stroke-width:1.0;"/><path d="M1061,1044 L1061,1070 L1184,1070 L1184,1054 L1174,1044 L1061,1044 " fill="#FEFFDD" style="stroke:#181818;stroke-width:0.5;"/><path d="M1174,1044 L1174,1054 L1184,1054 L1174,1044 " fill="#FEFFDD" style="stroke:#181818;stroke-width:0.5;"/><text fill="#000000" font-family="sans-serif" font-size="13" lengthAdjust="spacing" textLength="102" x="1067" y="1062.4951">abrirEntregables()</text></g><!--link abrirProyecto to ENTREGABLES_ABIERTOS--><g id="link_abrirProyecto_ENTREGABLES_ABIERTOS"><path d="M997.2,842.58 C1100.43,946.14 1193,1039 1193,1039 C1193,1039 1193,1075 1193,1075 C1193,1075 1173.9875,1087.2261 1151.6275,1101.5961 " fill="none" id="abrirProyecto-to-ENTREGABLES_ABIERTOS-1" style="stroke:#008000;stroke-width:1.0;"/><polygon fill="#008000" points="1146.58,1104.84,1156.3138,1103.3392,1150.7863,1102.1368,1151.9887,1096.6092,1146.58,1104.84" style="stroke:#008000;stroke-width:1.0;"/><path d="M1198,1044 L1198,1070 L1318,1070 L1318,1054 L1308,1044 L1198,1044 " fill="#FEFFDD" style="stroke:#181818;stroke-width:0.5;"/><path d="M1308,1044 L1308,1054 L1318,1054 L1308,1044 " fill="#FEFFDD" style="stroke:#181818;stroke-width:0.5;"/><text fill="#000000" font-family="sans-serif" font-size="13" lengthAdjust="spacing" textLength="99" x="1204" y="1062.4951">crearEntregable()</text></g><!--link abrirProyecto to INVESTIGADORES_ABIERTOS--><g id="link_abrirProyecto_INVESTIGADORES_ABIERTOS"><path d="M997.34,779.88 C1158.88,905.33 1331,1039 1331,1039 C1331,1039 1358.224,1073.5092 1379.254,1100.1692 " fill="none" id="abrirProyecto-to-INVESTIGADORES_ABIERTOS" style="stroke:#008000;stroke-width:1.0;"/><polygon fill="#008000" points="1382.97,1104.88,1380.5366,1095.3365,1379.8734,1100.9543,1374.2555,1100.2911,1382.97,1104.88" style="stroke:#008000;stroke-width:1.0;"/><path d="M1363,1044 L1363,1070 L1499,1070 L1499,1054 L1489,1044 L1363,1044 " fill="#FEFFDD" style="stroke:#181818;stroke-width:0.5;"/><path d="M1489,1044 L1489,1054 L1499,1054 L1489,1044 " fill="#FEFFDD" style="stroke:#181818;stroke-width:0.5;"/><text fill="#000000" font-family="sans-serif" font-size="13" lengthAdjust="spacing" textLength="115" x="1369" y="1062.4951">abrirInvestigadores()</text></g><!--SRC=[hLNDQjj04BxhAHRtaXI7q1nB2DYn4WHf76mJA26KjNRg3f5tbLt9u9P2dwNtd7hhrM_I9-diAjPg7JK_RYo3f9sPRxwP-LPhRb3cNFCvor12iSo1vIfRsfSeCWKlWA5ynxXXdOlHy6DyF1cEF_NwIJoYXqvaRNjNRsOQG5xl7J4-rQWlj5f2MYWFSE00ulF9A3xjzS_Y4EBWQOXWqO45Apkx7VOjYXZzAlyENUJrGPb2SodK6TBwsjiyT3p1h7BiboQrzuSkOyWWJL59Q_RyhD_Ls-kWXCVIIaMGIjfstxY5m-dHiL9QeEH2wSFzwH4pAiCK2rwLpKh9ydK-6m5IE9Wg-J-I1OJQoskZCYOGc7D78zTWG1ADZFuMd0cecHYMAldUXVtvyPCbW_fnihehoapLxp552l_QA9PHWbn9mwSPrFOJIBzGkuNL3NL1iINxZB8s3y2a6lCKLxzarO0boq7FaMfPzqqJOyCCpaea_c0OTuC3u_bM7T6-dDhYMjHcy09uQYGFshtbC3PrmNEgZrCx242P_UdgjxajGV2suSrBiBhmitDH_Dxv9NpRXVziBTVHpQRHUBEAbsXhO6lAW1HjkMTfU86cv1b-vOmIrjazAQerqF60MscBflDECkYoeX9rbu7ZJ7TPeE32QfFB56szl4jOTVNTU_rshSjkktxhBN9ROgx-GywnS7w19jrwXdEKRPQU-xGGdeQPtNzUvxsPNT94Vq75uimMin7MD3KYBrMs0CtunkQfP_izYi8FUNEYw-DbVJH4mMZzjt-AeAaEBvXj8S7rp1yXBuBq9zW6w7t3juHjPyghYIIDhhyAxfhi5i1jP_a6QHiRUtsz6d2gWJU0ducRd5_6uqbosXiCHuzpJW9nlv8kWiW0z2y0]--></g></svg>