<svg xmlns="http://www.w3.org/2000/svg" xmlns:xlink="http://www.w3.org/1999/xlink" contentStyleType="text/css" data-diagram-type="STATE" height="705px" preserveAspectRatio="none" style="width:554px;height:705px;background:#FFFFFF;" version="1.1" viewBox="0 0 554 705" width="554px" zoomAndPan="magnify"><defs/><g><g><rect fill="#F1F1F1" height="50" rx="12.5" ry="12.5" style="stroke:#181818;stroke-width:0.5;" width="208.6035" x="124.7" y="7"/><line style="stroke:#181818;stroke-width:0.5;" x1="124.7" x2="333.3035" y1="33.2969" y2="33.2969"/><text fill="#000000" font-family="sans-serif" font-size="14" lengthAdjust="spacing" textLength="188.6035" x="134.7" y="24.9951">PUBLICACIONES_ABIERTAS</text></g><path d="M54,152 L404,152 A12.5,12.5 0 0 1 416.5,164.5 L416.5,178.2969 L41.5,178.2969 L41.5,164.5 A12.5,12.5 0 0 1 54,152" fill="#F1F1F1"/><rect fill="none" height="402.2969" rx="12.5" ry="12.5" style="stroke:#181818;stroke-width:0.5;" width="375" x="41.5" y="152"/><line style="stroke:#181818;stroke-width:0.5;" x1="41.5" x2="416.5" y1="178.2969" y2="178.2969"/><text fill="#000000" font-family="sans-serif" font-size="14" lengthAdjust="spacing" textLength="123.0742" x="167.4629" y="169.9951">abrirPublicacion()</text><g><rect fill="#F1F1F1" height="50" rx="12.5" ry="12.5" style="stroke:#181818;stroke-width:0.5;" width="50" x="53.5" y="280.2969"/><line style="stroke:#181818;stroke-width:0.5;" x1="53.5" x2="103.5" y1="306.5938" y2="306.5938"/><text fill="#000000" font-family="sans-serif" font-size="14" lengthAdjust="spacing" textLength="4.4502" x="76.2749" y="298.292">&#160;</text></g><ellipse cx="78.5" cy="199.2969" fill="#222222" rx="10" ry="10" style="stroke:#222222;stroke-width:1;"/><ellipse cx="78.5" cy="533.2969" fill="none" rx="11" ry="11" style="stroke:#222222;stroke-width:1;"/><ellipse cx="78.5" cy="533.2969" fill="#222222" rx="6" ry="6" style="stroke:#222222;stroke-width:1;"/><!--link *start*abrirPublicacion to MostrandoPublicacion--><g class="link" data-entity-1="ent0003" data-entity-2="ent0004" data-link-type="dependency" data-source-line="13" id="lnk4"><path d="M78.5,209.5269 C78.5,225.2369 78.5,251.6569 78.5,274.1669" fill="none" id="*start*abrirPublicacion-to-MostrandoPublicacion" style="stroke:#008000;stroke-width:1;"/><polygon fill="#008000" points="78.5,280.1669,82.5,271.1669,78.5,275.1669,74.5,271.1669,78.5,280.1669" style="stroke:#008000;stroke-width:1;"/><path d="M83.5,232.2969 L83.5,257.2969 L385.5,257.2969 L385.5,242.2969 L375.5,232.2969 L83.5,232.2969" fill="#FEFFDD" style="stroke:#181818;stroke-width:0.5;"/><path d="M375.5,232.2969 L375.5,242.2969 L385.5,242.2969 L375.5,232.2969" fill="#FEFFDD" style="stroke:#181818;stroke-width:0.5;"/><text fill="#000000" font-family="sans-serif" font-size="13" font-weight="bold" lengthAdjust="spacing" textLength="90.251" x="89.5" y="249.3638">Coordinador</text><text fill="#000000" font-family="sans-serif" font-size="13" lengthAdjust="spacing" textLength="187.167" x="183.8833" y="249.3638">solicita abrir una publicaci&#243;n</text></g><!--link MostrandoPublicacion to *end*abrirPublicacion--><g class="link" data-entity-1="ent0004" data-entity-2="ent0005" data-link-type="dependency" data-source-line="18" id="lnk6"><path d="M78.5,330.4869 C78.5,379.4469 78.5,482.5169 78.5,516.1969" fill="none" id="MostrandoPublicacion-to-*end*abrirPublicacion" style="stroke:#008000;stroke-width:1;"/><polygon fill="#008000" points="78.5,522.1969,82.5,513.1969,78.5,517.1969,74.5,513.1969,78.5,522.1969" style="stroke:#008000;stroke-width:1;"/><path d="M83.5,353.2969 L83.5,499.2969 L407.5,499.2969 L407.5,363.2969 L397.5,353.2969 L83.5,353.2969" fill="#FEFFDD" style="stroke:#181818;stroke-width:0.5;"/><path d="M397.5,353.2969 L397.5,363.2969 L407.5,363.2969 L397.5,353.2969" fill="#FEFFDD" style="stroke:#181818;stroke-width:0.5;"/><text fill="#000000" font-family="sans-serif" font-size="13" font-weight="bold" lengthAdjust="spacing" textLength="58.9063" x="89.5" y="370.3638">Sistema</text><text fill="#000000" font-family="sans-serif" font-size="13" lengthAdjust="spacing" textLength="240.5508" x="152.5386" y="370.3638">presenta contenido de la publicaci&#243;n</text><text fill="#000000" font-family="sans-serif" font-size="13" lengthAdjust="spacing" textLength="48.2549" x="89.5" y="385.4966">&#8226; T&#237;tulo</text><text fill="#000000" font-family="sans-serif" font-size="13" lengthAdjust="spacing" textLength="48.4834" x="89.5" y="400.6294">&#8226; Texto</text><text fill="#000000" font-family="sans-serif" font-size="13" lengthAdjust="spacing" textLength="47.3281" x="89.5" y="415.7622">&#8226; Autor</text><text fill="#000000" font-family="sans-serif" font-size="13" lengthAdjust="spacing" textLength="155.2446" x="89.5" y="430.895">&#8226; Respuestas asociadas</text><text fill="#000000" font-family="sans-serif" font-size="13" font-weight="bold" lengthAdjust="spacing" textLength="58.9063" x="89.5" y="446.0278">Sistema</text><text fill="#000000" font-family="sans-serif" font-size="13" lengthAdjust="spacing" textLength="110.5952" x="152.5386" y="446.0278">permite solicitar:</text><text fill="#000000" font-family="sans-serif" font-size="13" lengthAdjust="spacing" textLength="77.9556" x="89.5" y="461.1606">&#8226; responder</text><text fill="#000000" font-family="sans-serif" font-size="13" lengthAdjust="spacing" textLength="50.0703" x="89.5" y="476.2935">&#8226; editar</text><text fill="#000000" font-family="sans-serif" font-size="13" lengthAdjust="spacing" textLength="64.8477" x="89.5" y="491.4263">&#8226; eliminar</text></g><g><rect fill="#F1F1F1" height="50" rx="12.5" ry="12.5" style="stroke:#181818;stroke-width:0.5;" width="181.9844" x="9.01" y="649.3"/><line style="stroke:#181818;stroke-width:0.5;" x1="9.01" x2="190.9944" y1="675.5969" y2="675.5969"/><text fill="#000000" font-family="sans-serif" font-size="14" lengthAdjust="spacing" textLength="161.9844" x="19.01" y="667.2951">PUBLICACION_ABIERTA</text></g><g><rect fill="#F1F1F1" height="50" rx="12.5" ry="12.5" style="stroke:#181818;stroke-width:0.5;" width="208.6035" x="317.7" y="649.3"/><line style="stroke:#181818;stroke-width:0.5;" x1="317.7" x2="526.3035" y1="675.5969" y2="675.5969"/><text fill="#000000" font-family="sans-serif" font-size="14" lengthAdjust="spacing" textLength="188.6035" x="327.7" y="667.2951">PUBLICACIONES_ABIERTAS</text></g><!--link in2 to abrirPublicacion--><g class="link" data-entity-1="ent0002" data-entity-2="ent0003" data-link-type="dependency" data-source-line="4" id="lnk2"><path d="M229,57.25 C229,79.22 229,107.88 229,145.83" fill="none" id="in2-to-abrirPublicacion" style="stroke:#008000;stroke-width:1;"/><polygon fill="#008000" points="229,151.83,233,142.83,229,146.83,225,142.83,229,151.83" style="stroke:#008000;stroke-width:1;"/><path d="M234,92 L234,117 L369,117 L369,102 L359,92 L234,92" fill="#FEFFDD" style="stroke:#181818;stroke-width:0.5;"/><path d="M359,92 L359,102 L369,102 L359,92" fill="#FEFFDD" style="stroke:#181818;stroke-width:0.5;"/><text fill="#000000" font-family="sans-serif" font-size="13" lengthAdjust="spacing" textLength="114.2832" x="240" y="109.0669">abrirPublicacion()</text></g><!--link abrirPublicacion to PUBLICACION_ABIERTA--><g class="link" data-entity-1="ent0003" data-entity-2="ent0007" data-link-type="dependency" data-source-line="34" id="lnk8"><path d="M41.09,548.09 C20.05,569.8 6,584.3 6,584.3 C6,584.3 6,619.3 6,619.3 C6,619.3 27.3276,631.5508 52.1976,645.8408" fill="none" id="abrirPublicacion-to-PUBLICACION_ABIERTA" style="stroke:#008000;stroke-width:1;"/><polygon fill="#008000" points="57.4,648.83,51.5893,640.8779,53.0647,646.339,47.6036,647.8144,57.4,648.83" style="stroke:#008000;stroke-width:1;"/><path d="M11,589.3 L11,614.3 L181,614.3 L181,599.3 L171,589.3 L11,589.3" fill="#FEFFDD" style="stroke:#181818;stroke-width:0.5;"/><path d="M171,589.3 L171,599.3 L181,599.3 L171,589.3" fill="#FEFFDD" style="stroke:#181818;stroke-width:0.5;"/><text fill="#000000" font-family="sans-serif" font-size="13" lengthAdjust="spacing" textLength="149.9189" x="17" y="606.3669">responderPublicacion()</text></g><!--link abrirPublicacion to PUBLICACION_ABIERTA--><g class="link" data-entity-1="ent0003" data-entity-2="ent0007" data-link-type="dependency" data-source-line="39" id="lnk9"><path d="M199.49,554.78 C194.03,591.93 190,619.3 190,619.3 C190,619.3 169.7446,631.4524 145.9346,645.7424" fill="none" id="abrirPublicacion-to-PUBLICACION_ABIERTA-1" style="stroke:#008000;stroke-width:1;"/><polygon fill="#008000" points="140.79,648.83,150.5653,647.6283,145.0771,646.257,146.4485,640.7689,140.79,648.83" style="stroke:#008000;stroke-width:1;"/><path d="M199,589.3 L199,614.3 L342,614.3 L342,599.3 L332,589.3 L199,589.3" fill="#FEFFDD" style="stroke:#181818;stroke-width:0.5;"/><path d="M332,589.3 L332,599.3 L342,599.3 L332,589.3" fill="#FEFFDD" style="stroke:#181818;stroke-width:0.5;"/><text fill="#000000" font-family="sans-serif" font-size="13" lengthAdjust="spacing" textLength="122.0337" x="205" y="606.3669">editarPublicacion()</text></g><!--link abrirPublicacion to PUBLICACIONES_ABIERTAS--><g class="link" data-entity-1="ent0003" data-entity-2="ent0010" data-link-type="dependency" data-source-line="44" id="lnk11"><path d="M350.13,554.46 C373.01,592.28 390.7955,621.6956 404.0855,643.6756" fill="none" id="abrirPublicacion-to-PUBLICACIONES_ABIERTAS" style="stroke:#008000;stroke-width:1;"/><polygon fill="#008000" points="407.19,648.81,405.9562,639.0387,404.6029,644.5313,399.1103,643.178,407.19,648.81" style="stroke:#008000;stroke-width:1;"/><path d="M390,589.3 L390,614.3 L547,614.3 L547,599.3 L537,589.3 L390,589.3" fill="#FEFFDD" style="stroke:#181818;stroke-width:0.5;"/><path d="M537,589.3 L537,599.3 L547,599.3 L537,589.3" fill="#FEFFDD" style="stroke:#181818;stroke-width:0.5;"/><text fill="#000000" font-family="sans-serif" font-size="13" lengthAdjust="spacing" textLength="136.811" x="396" y="606.3669">eliminarPublicacion()</text></g><!--SRC=[fLDBQiCm5Dph5CBTj8LGwBA4W1Eo2FGJadGLGf6jHn6ntnEI30sbqBDqtrMFa9lq99NYEhOJPnLvDTPePZH-jck5MXYHyqmXk8q6hYdR1C2OTS81LtZBXUNHz7buFnd5eydJutZ-4WyduzaYdaSixFUM5wy605Uz0HU9KMPQ99bAHQe86P9N8GmEQtQuUtd502KFdChmaB9pFpuNyNV6k5_bgSW_dlX0rXc1afe9ThJbzQgLivCPYAsyuKK_6Oo8Z5Ge99d-JJBWblmHvKGPbXSekAvajZ-bJdslWBhiMdbylfFsSsKTv69dhGrOG6-T4Zf09ObBu5b7WD_FBxxOVhiYenh3cwjHN3WoUpG3gmlmTLhV9ALAI64x4u39bGzPbM3kzX8-coQKK8k238mQPYhtFPfsGn_ChwFltcodCNtLxBK7Q-zyQhZEao-lSQvsuySvaF-lfTlW3m00]--></g></svg>