<svg xmlns="http://www.w3.org/2000/svg" xmlns:xlink="http://www.w3.org/1999/xlink" contentStyleType="text/css" data-diagram-type="STATE" height="750px" preserveAspectRatio="none" style="width:727px;height:750px;background:#FFFFFF;" version="1.1" viewBox="0 0 727 750" width="727px" zoomAndPan="magnify"><defs/><g><g><rect fill="#F1F1F1" height="50" rx="12.5" ry="12.5" style="stroke:#181818;stroke-width:0.5;" width="184.6846" x="268.16" y="7"/><line style="stroke:#181818;stroke-width:0.5;" x1="268.16" x2="452.8446" y1="33.2969" y2="33.2969"/><text fill="#000000" font-family="sans-serif" font-size="14" lengthAdjust="spacing" textLength="164.6846" x="278.16" y="24.9951">RECOMPENSA_ABIERTA</text></g><path d="M19.5,152 L701.5,152 A12.5,12.5 0 0 1 714,164.5 L714,178.2969 L7,178.2969 L7,164.5 A12.5,12.5 0 0 1 19.5,152" fill="#F1F1F1"/><rect fill="none" height="447.2969" rx="12.5" ry="12.5" style="stroke:#181818;stroke-width:0.5;" width="707" x="7" y="152"/><line style="stroke:#181818;stroke-width:0.5;" x1="7" x2="714" y1="178.2969" y2="178.2969"/><text fill="#000000" font-family="sans-serif" font-size="14" lengthAdjust="spacing" textLength="142.625" x="289.1875" y="169.9951">editarRecompensa()</text><g><rect fill="#F1F1F1" height="50" rx="12.5" ry="12.5" style="stroke:#181818;stroke-width:0.5;" width="50" x="218" y="280.2969"/><line style="stroke:#181818;stroke-width:0.5;" x1="218" x2="268" y1="306.5938" y2="306.5938"/><text fill="#000000" font-family="sans-serif" font-size="14" lengthAdjust="spacing" textLength="4.4502" x="240.7749" y="298.292">&#160;</text></g><g><rect fill="#F1F1F1" height="50" rx="12.5" ry="12.5" style="stroke:#181818;stroke-width:0.5;" width="50" x="19" y="446.2969"/><line style="stroke:#181818;stroke-width:0.5;" x1="19" x2="69" y1="472.5938" y2="472.5938"/><text fill="#000000" font-family="sans-serif" font-size="14" lengthAdjust="spacing" textLength="4.4502" x="41.7749" y="464.292">&#160;</text></g><ellipse cx="243" cy="199.2969" fill="#222222" rx="10" ry="10" style="stroke:#222222;stroke-width:1;"/><ellipse cx="239" cy="578.2969" fill="none" rx="11" ry="11" style="stroke:#222222;stroke-width:1;"/><ellipse cx="239" cy="578.2969" fill="#222222" rx="6" ry="6" style="stroke:#222222;stroke-width:1;"/><!--link *start*editarRecompensa to EditandoDatos--><g class="link" data-entity-1="ent0003" data-entity-2="ent0004" data-link-type="dependency" data-source-line="14" id="lnk4"><path d="M243,209.5269 C243,225.2369 243,251.6569 243,274.1669" fill="none" id="*start*editarRecompensa-to-EditandoDatos" style="stroke:#008000;stroke-width:1;"/><polygon fill="#008000" points="243,280.1669,247,271.1669,243,275.1669,239,271.1669,243,280.1669" style="stroke:#008000;stroke-width:1;"/><path d="M248,232.2969 L248,257.2969 L536,257.2969 L536,242.2969 L526,232.2969 L248,232.2969" fill="#FEFFDD" style="stroke:#181818;stroke-width:0.5;"/><path d="M526,232.2969 L526,242.2969 L536,242.2969 L526,232.2969" fill="#FEFFDD" style="stroke:#181818;stroke-width:0.5;"/><text fill="#000000" font-family="sans-serif" font-size="13" font-weight="bold" lengthAdjust="spacing" textLength="90.251" x="254" y="249.3638">Coordinador</text><text fill="#000000" font-family="sans-serif" font-size="13" lengthAdjust="spacing" textLength="172.6436" x="348.3833" y="249.3638">solicita editar recompensa</text></g><!--link EditandoDatos to CambiosGuardados--><g class="link" data-entity-1="ent0004" data-entity-2="ent0005" data-link-type="dependency" data-source-line="19" id="lnk5"><path d="M217.77,311.8769 C166.09,323.2969 53,348.2969 53,348.2969 C53,348.2969 48.8721,404.3132 46.2421,439.9132" fill="none" id="EditandoDatos-to-CambiosGuardados" style="stroke:#008000;stroke-width:1;"/><polygon fill="#008000" points="45.8,445.8969,50.4522,437.216,46.1684,440.9105,42.474,436.6266,45.8,445.8969" style="stroke:#008000;stroke-width:1;"/><path d="M58,353.2969 L58,423.2969 L424,423.2969 L424,363.2969 L414,353.2969 L58,353.2969" fill="#FEFFDD" style="stroke:#181818;stroke-width:0.5;"/><path d="M414,353.2969 L414,363.2969 L424,363.2969 L414,353.2969" fill="#FEFFDD" style="stroke:#181818;stroke-width:0.5;"/><text fill="#000000" font-family="sans-serif" font-size="13" font-weight="bold" lengthAdjust="spacing" textLength="58.9063" x="64" y="370.3638">Sistema</text><text fill="#000000" font-family="sans-serif" font-size="13" lengthAdjust="spacing" textLength="282.0962" x="127.0386" y="370.3638">presenta datos editables de la recompensa</text><text fill="#000000" font-family="sans-serif" font-size="13" font-weight="bold" lengthAdjust="spacing" textLength="58.9063" x="64" y="385.4966">Sistema</text><text fill="#000000" font-family="sans-serif" font-size="13" lengthAdjust="spacing" textLength="219.5781" x="127.0386" y="385.4966">permite introducir modificaciones</text><text fill="#000000" font-family="sans-serif" font-size="13" font-weight="bold" lengthAdjust="spacing" textLength="90.251" x="64" y="400.6294">Coordinador</text><text fill="#000000" font-family="sans-serif" font-size="13" lengthAdjust="spacing" textLength="237.6118" x="158.3833" y="400.6294">introduce cambios y solicita guardar</text><text fill="#000000" font-family="sans-serif" font-size="13" font-weight="bold" lengthAdjust="spacing" textLength="58.9063" x="64" y="415.7622">Sistema</text><text fill="#000000" font-family="sans-serif" font-size="13" lengthAdjust="spacing" textLength="131.3584" x="127.0386" y="415.7622">registra los cambios</text></g><!--link EditandoDatos to *end*editarRecompensa--><g class="link" data-entity-1="ent0004" data-entity-2="ent0006" data-link-type="dependency" data-source-line="27" id="lnk7"><path d="M268.47,312.0469 C319.41,323.5469 429,348.2969 429,348.2969 C429,348.2969 429,549.2969 429,549.2969 C429,549.2969 296.526,568.8229 255.976,574.7929" fill="none" id="EditandoDatos-to-*end*editarRecompensa" style="stroke:#FF0000;stroke-width:1;"/><polygon fill="#FF0000" points="250.04,575.6669,259.5266,578.3133,254.9867,574.9386,258.3614,570.3986,250.04,575.6669" style="stroke:#FF0000;stroke-width:1;"/><path d="M434,458.7969 L434,483.7969 L705,483.7969 L705,468.7969 L695,458.7969 L434,458.7969" fill="#FEFFDD" style="stroke:#181818;stroke-width:0.5;"/><path d="M695,458.7969 L695,468.7969 L705,468.7969 L695,458.7969" fill="#FEFFDD" style="stroke:#181818;stroke-width:0.5;"/><text fill="#000000" font-family="sans-serif" font-size="13" font-weight="bold" lengthAdjust="spacing" textLength="90.251" x="440" y="475.8638">Coordinador</text><text fill="#000000" font-family="sans-serif" font-size="13" lengthAdjust="spacing" textLength="156.2729" x="534.3833" y="475.8638">solicita cancelar edici&#243;n</text></g><!--link CambiosGuardados to *end*editarRecompensa--><g class="link" data-entity-1="ent0005" data-entity-2="ent0006" data-link-type="dependency" data-source-line="32" id="lnk8"><path d="M39.93,496.7269 C38.39,505.9669 37,514.2969 37,514.2969 C37,514.2969 37,549.2969 37,549.2969 C37,549.2969 179.5568,569.0531 221.9068,574.9231" fill="none" id="CambiosGuardados-to-*end*editarRecompensa" style="stroke:#008000;stroke-width:1;"/><polygon fill="#008000" points="227.85,575.7469,219.4844,570.5491,222.8973,575.0604,218.3861,578.4733,227.85,575.7469" style="stroke:#008000;stroke-width:1;"/><path d="M42,519.2969 L42,544.2969 L424,544.2969 L424,529.2969 L414,519.2969 L42,519.2969" fill="#FEFFDD" style="stroke:#181818;stroke-width:0.5;"/><path d="M414,519.2969 L414,529.2969 L424,529.2969 L414,519.2969" fill="#FEFFDD" style="stroke:#181818;stroke-width:0.5;"/><text fill="#000000" font-family="sans-serif" font-size="13" font-weight="bold" lengthAdjust="spacing" textLength="58.9063" x="48" y="536.3638">Sistema</text><text fill="#000000" font-family="sans-serif" font-size="13" lengthAdjust="spacing" textLength="298.27" x="111.0386" y="536.3638">presenta confirmaci&#243;n de cambios guardados</text></g><g><rect fill="#F1F1F1" height="50" rx="12.5" ry="12.5" style="stroke:#181818;stroke-width:0.5;" width="202.458" x="259.27" y="694.3"/><line style="stroke:#181818;stroke-width:0.5;" x1="259.27" x2="461.728" y1="720.5969" y2="720.5969"/><text fill="#000000" font-family="sans-serif" font-size="14" lengthAdjust="spacing" textLength="182.458" x="269.27" y="712.2951">RECOMPENSAS_ABIERTAS</text></g><!--link in1 to editarRecompensa--><g class="link" data-entity-1="ent0002" data-entity-2="ent0003" data-link-type="dependency" data-source-line="4" id="lnk2"><path d="M360.5,57.3 C360.5,79.1 360.5,107.48 360.5,145.71" fill="none" id="in1-to-editarRecompensa" style="stroke:#008000;stroke-width:1;"/><polygon fill="#008000" points="360.5,151.71,364.5,142.71,360.5,146.71,356.5,142.71,360.5,151.71" style="stroke:#008000;stroke-width:1;"/><path d="M365.5,92 L365.5,117 L518.5,117 L518.5,102 L508.5,92 L365.5,92" fill="#FEFFDD" style="stroke:#181818;stroke-width:0.5;"/><path d="M508.5,92 L508.5,102 L518.5,102 L508.5,92" fill="#FEFFDD" style="stroke:#181818;stroke-width:0.5;"/><text fill="#000000" font-family="sans-serif" font-size="13" lengthAdjust="spacing" textLength="132.4375" x="371.5" y="109.0669">editarRecompensa()</text></g><!--link editarRecompensa to RECOMPENSAS_ABIERTAS--><g class="link" data-entity-1="ent0003" data-entity-2="ent0009" data-link-type="dependency" data-source-line="39" id="lnk10"><path d="M261.79,599.33 C253.67,617.64 248.5,629.3 248.5,629.3 C248.5,629.3 248.5,664.3 248.5,664.3 C248.5,664.3 274.7057,676.9336 304.3357,691.2236" fill="none" id="editarRecompensa-to-RECOMPENSAS_ABIERTAS" style="stroke:#008000;stroke-width:1;"/><polygon fill="#008000" points="309.74,693.83,303.3711,686.3175,305.2364,691.658,299.8959,693.5233,309.74,693.83" style="stroke:#008000;stroke-width:1;"/><path d="M253.5,634.3 L253.5,659.3 L421.5,659.3 L421.5,644.3 L411.5,634.3 L253.5,634.3" fill="#FEFFDD" style="stroke:#181818;stroke-width:0.5;"/><path d="M411.5,634.3 L411.5,644.3 L421.5,644.3 L411.5,634.3" fill="#FEFFDD" style="stroke:#181818;stroke-width:0.5;"/><text fill="#000000" font-family="sans-serif" font-size="13" lengthAdjust="spacing" textLength="147.2148" x="259.5" y="651.3669">eliminarRecompensa()</text></g><!--link editarRecompensa to RECOMPENSAS_ABIERTAS--><g class="link" data-entity-1="ent0003" data-entity-2="ent0009" data-link-type="dependency" data-source-line="45" id="lnk11"><path d="M422.2,599.33 C427.27,617.64 430.5,629.3 430.5,629.3 C430.5,629.3 430.5,664.3 430.5,664.3 C430.5,664.3 415.4903,675.8747 396.9703,690.1647" fill="none" id="editarRecompensa-to-RECOMPENSAS_ABIERTAS-1" style="stroke:#008000;stroke-width:1;"/><polygon fill="#008000" points="392.22,693.83,401.789,691.4989,396.1786,690.7756,396.9019,685.1651,392.22,693.83" style="stroke:#008000;stroke-width:1;"/><path d="M435.5,634.3 L435.5,659.3 L587.5,659.3 L587.5,644.3 L577.5,634.3 L435.5,634.3" fill="#FEFFDD" style="stroke:#181818;stroke-width:0.5;"/><path d="M577.5,634.3 L577.5,644.3 L587.5,644.3 L577.5,634.3" fill="#FEFFDD" style="stroke:#181818;stroke-width:0.5;"/><text fill="#000000" font-family="sans-serif" font-size="13" lengthAdjust="spacing" textLength="131.46" x="441.5" y="651.3669">abrirRecompensas()</text></g><!--SRC=[fLDDIyD04BtlhnZgHOKYtakXrY8U_A3nLefCTgTbQB8RPjD34N-LFy4_vcxQs2PfHJ4vxUwyzsRUO_oARO62EMHigTmK18NBDl6Wb2-n961x3UYXDvsCdnwU9u_9w7LqSp-PlenwAhxrPsTB8RBp_X38S8ao9UtoWgn7PLrWS3QohrJxzVn2aJKGQsgnTacbtCNru4qf2DyMrGj_A9p4EclSBPRETv_7cAVi_DqQnQ095LN9x7BU6A5BqfWXNWpIuTWvCMm3ZGokqY5ubx4EmDq087iB8c8_PZmr91hYdHPFwIViIygnqYw4FDcWRIg-geCq8m-68CDsAsqmISvLogKuizOia3l32zQesLdofoQk0GHwspHizYuigm7acA3GCfm48GkG7VGt7WcPw528w- -XQBIQiX1By4RpvuSz8jYslf7BJwf7ez3EBbXohDHY4BL9oqQqtosyAzLPZqO7- -rBwlLBMjkLSHw6FxLV_wN7LFW0xG_8lm00]--></g></svg>