<?xml version="1.0" encoding="us-ascii" standalone="no"?><svg xmlns="http://www.w3.org/2000/svg" xmlns:xlink="http://www.w3.org/1999/xlink" contentStyleType="text/css" height="394px" preserveAspectRatio="none" style="width:733px;height:394px;background:#FFFFFF;" version="1.1" viewBox="0 0 733 394" width="733px" zoomAndPan="magnify"><defs/><g><line style="stroke:#AAAAAA;stroke-width:1.0;" x1="6" x2="726" y1="8.5" y2="8.5"/><line style="stroke:#AAAAAA;stroke-width:1.0;" x1="6" x2="726" y1="10.5" y2="10.5"/><text fill="#000000" font-family="sans-serif" font-size="12" font-weight="bold" lengthAdjust="spacing" textLength="130" x="6" y="26.457">GIPF - MIS PROYECTOS</text><line style="stroke:#AAAAAA;stroke-width:1.0;" x1="6" x2="726" y1="33.5938" y2="33.5938"/><line style="stroke:#AAAAAA;stroke-width:1.0;" x1="6" x2="726" y1="35.5938" y2="35.5938"/><text fill="#000000" font-family="sans-serif" font-size="12" font-weight="bold" lengthAdjust="spacing" textLength="143" x="7" y="52.5508">Listado de mis proyectos</text><line style="stroke:#AAAAAA;stroke-width:1.0;" x1="7" x2="725" y1="60.6875" y2="60.6875"/><text fill="#000000" font-family="sans-serif" font-size="12" font-weight="bold" lengthAdjust="spacing" textLength="11" x="9" y="79.6445">ID</text><text fill="#000000" font-family="sans-serif" font-size="12" font-weight="bold" lengthAdjust="spacing" textLength="31" x="22" y="79.6445">T&#237;tulo</text><text fill="#000000" font-family="sans-serif" font-size="12" font-weight="bold" lengthAdjust="spacing" textLength="39" x="55" y="79.6445">Estado</text><text fill="#000000" font-family="sans-serif" font-size="12" font-weight="bold" lengthAdjust="spacing" textLength="30" x="96" y="79.6445">Inicio</text><text fill="#000000" font-family="sans-serif" font-size="12" font-weight="bold" lengthAdjust="spacing" textLength="16" x="128" y="79.6445">Fin</text><text fill="#000000" font-family="sans-serif" font-size="12" font-weight="bold" lengthAdjust="spacing" textLength="39" x="146" y="79.6445">Acci&#243;n</text><text fill="#000000" font-family="sans-serif" font-size="12" lengthAdjust="spacing" textLength="58" x="12" y="98.7383">PROY-012</text><line style="stroke:#000000;stroke-width:1.0;" x1="10" x2="77" y1="101.375" y2="101.375"/><line style="stroke:#000000;stroke-width:1.0;" x1="10" x2="10" y1="98.375" y2="100.375"/><line style="stroke:#000000;stroke-width:1.0;" x1="77" x2="77" y1="98.375" y2="100.375"/><text fill="#000000" font-family="sans-serif" font-size="12" lengthAdjust="spacing" textLength="158" x="84" y="98.7383">Plataforma de seguimiento...</text><line style="stroke:#000000;stroke-width:1.0;" x1="82" x2="309" y1="101.375" y2="101.375"/><line style="stroke:#000000;stroke-width:1.0;" x1="82" x2="82" y1="98.375" y2="100.375"/><line style="stroke:#000000;stroke-width:1.0;" x1="309" x2="309" y1="98.375" y2="100.375"/><text fill="#000000" font-family="sans-serif" font-size="12" lengthAdjust="spacing" textLength="49" x="316" y="98.7383">En curso</text><line style="stroke:#000000;stroke-width:1.0;" x1="314" x2="381" y1="101.375" y2="101.375"/><line style="stroke:#000000;stroke-width:1.0;" x1="314" x2="314" y1="98.375" y2="100.375"/><line style="stroke:#000000;stroke-width:1.0;" x1="381" x2="381" y1="98.375" y2="100.375"/><text fill="#000000" font-family="sans-serif" font-size="12" lengthAdjust="spacing" textLength="64" x="388" y="98.7383">10-01-2025</text><line style="stroke:#000000;stroke-width:1.0;" x1="386" x2="469" y1="101.375" y2="101.375"/><line style="stroke:#000000;stroke-width:1.0;" x1="386" x2="386" y1="98.375" y2="100.375"/><line style="stroke:#000000;stroke-width:1.0;" x1="469" x2="469" y1="98.375" y2="100.375"/><text fill="#000000" font-family="sans-serif" font-size="12" lengthAdjust="spacing" textLength="64" x="476" y="98.7383">20-12-2025</text><line style="stroke:#000000;stroke-width:1.0;" x1="474" x2="557" y1="101.375" y2="101.375"/><line style="stroke:#000000;stroke-width:1.0;" x1="474" x2="474" y1="98.375" y2="100.375"/><line style="stroke:#000000;stroke-width:1.0;" x1="557" x2="557" y1="98.375" y2="100.375"/><rect fill="#EEEEEE" height="19.0938" rx="5" ry="5" style="stroke:#000000;stroke-width:2.5;" width="116" x="563.5" y="88.7813"/><text fill="#000000" font-family="sans-serif" font-size="12" lengthAdjust="spacing" textLength="74" x="584.5" y="103.2383">Abrir proyecto</text><text fill="#000000" font-family="sans-serif" font-size="12" lengthAdjust="spacing" textLength="58" x="12" y="126.832">PROY-018</text><line style="stroke:#000000;stroke-width:1.0;" x1="10" x2="77" y1="129.4688" y2="129.4688"/><line style="stroke:#000000;stroke-width:1.0;" x1="10" x2="10" y1="126.4688" y2="128.4688"/><line style="stroke:#000000;stroke-width:1.0;" x1="77" x2="77" y1="126.4688" y2="128.4688"/><text fill="#000000" font-family="sans-serif" font-size="12" lengthAdjust="spacing" textLength="146" x="84" y="126.832">An&#225;lisis de productividad...</text><line style="stroke:#000000;stroke-width:1.0;" x1="82" x2="309" y1="129.4688" y2="129.4688"/><line style="stroke:#000000;stroke-width:1.0;" x1="82" x2="82" y1="126.4688" y2="128.4688"/><line style="stroke:#000000;stroke-width:1.0;" x1="309" x2="309" y1="126.4688" y2="128.4688"/><text fill="#000000" font-family="sans-serif" font-size="12" lengthAdjust="spacing" textLength="48" x="316" y="126.832">Borrador</text><line style="stroke:#000000;stroke-width:1.0;" x1="314" x2="381" y1="129.4688" y2="129.4688"/><line style="stroke:#000000;stroke-width:1.0;" x1="314" x2="314" y1="126.4688" y2="128.4688"/><line style="stroke:#000000;stroke-width:1.0;" x1="381" x2="381" y1="126.4688" y2="128.4688"/><text fill="#000000" font-family="sans-serif" font-size="12" lengthAdjust="spacing" textLength="64" x="388" y="126.832">05-03-2025</text><line style="stroke:#000000;stroke-width:1.0;" x1="386" x2="469" y1="129.4688" y2="129.4688"/><line style="stroke:#000000;stroke-width:1.0;" x1="386" x2="386" y1="126.4688" y2="128.4688"/><line style="stroke:#000000;stroke-width:1.0;" x1="469" x2="469" y1="126.4688" y2="128.4688"/><text fill="#000000" font-family="sans-serif" font-size="12" lengthAdjust="spacing" textLength="12" x="476" y="126.832">&#8212;</text><line style="stroke:#000000;stroke-width:1.0;" x1="474" x2="489" y1="129.4688" y2="129.4688"/><line style="stroke:#000000;stroke-width:1.0;" x1="474" x2="474" y1="126.4688" y2="128.4688"/><line style="stroke:#000000;stroke-width:1.0;" x1="489" x2="489" y1="126.4688" y2="128.4688"/><rect fill="#EEEEEE" height="19.0938" rx="5" ry="5" style="stroke:#000000;stroke-width:2.5;" width="116" x="495.5" y="116.875"/><text fill="#000000" font-family="sans-serif" font-size="12" lengthAdjust="spacing" textLength="74" x="516.5" y="131.332">Abrir proyecto</text><text fill="#000000" font-family="sans-serif" font-size="12" lengthAdjust="spacing" textLength="58" x="12" y="154.9258">PROY-021</text><line style="stroke:#000000;stroke-width:1.0;" x1="10" x2="77" y1="157.5625" y2="157.5625"/><line style="stroke:#000000;stroke-width:1.0;" x1="10" x2="10" y1="154.5625" y2="156.5625"/><line style="stroke:#000000;stroke-width:1.0;" x1="77" x2="77" y1="154.5625" y2="156.5625"/><text fill="#000000" font-family="sans-serif" font-size="12" lengthAdjust="spacing" textLength="177" x="84" y="154.9258">Modelo predictivo de demanda...</text><line style="stroke:#000000;stroke-width:1.0;" x1="82" x2="333" y1="157.5625" y2="157.5625"/><line style="stroke:#000000;stroke-width:1.0;" x1="82" x2="82" y1="154.5625" y2="156.5625"/><line style="stroke:#000000;stroke-width:1.0;" x1="333" x2="333" y1="154.5625" y2="156.5625"/><text fill="#000000" font-family="sans-serif" font-size="12" lengthAdjust="spacing" textLength="56" x="340" y="154.9258">Finalizado</text><line style="stroke:#000000;stroke-width:1.0;" x1="338" x2="421" y1="157.5625" y2="157.5625"/><line style="stroke:#000000;stroke-width:1.0;" x1="338" x2="338" y1="154.5625" y2="156.5625"/><line style="stroke:#000000;stroke-width:1.0;" x1="421" x2="421" y1="154.5625" y2="156.5625"/><text fill="#000000" font-family="sans-serif" font-size="12" lengthAdjust="spacing" textLength="64" x="428" y="154.9258">12-02-2024</text><line style="stroke:#000000;stroke-width:1.0;" x1="426" x2="509" y1="157.5625" y2="157.5625"/><line style="stroke:#000000;stroke-width:1.0;" x1="426" x2="426" y1="154.5625" y2="156.5625"/><line style="stroke:#000000;stroke-width:1.0;" x1="509" x2="509" y1="154.5625" y2="156.5625"/><text fill="#000000" font-family="sans-serif" font-size="12" lengthAdjust="spacing" textLength="64" x="516" y="154.9258">30-11-2024</text><line style="stroke:#000000;stroke-width:1.0;" x1="514" x2="597" y1="157.5625" y2="157.5625"/><line style="stroke:#000000;stroke-width:1.0;" x1="514" x2="514" y1="154.5625" y2="156.5625"/><line style="stroke:#000000;stroke-width:1.0;" x1="597" x2="597" y1="154.5625" y2="156.5625"/><rect fill="#EEEEEE" height="19.0938" rx="5" ry="5" style="stroke:#000000;stroke-width:2.5;" width="116" x="603.5" y="144.9688"/><text fill="#000000" font-family="sans-serif" font-size="12" lengthAdjust="spacing" textLength="74" x="624.5" y="159.4258">Abrir proyecto</text><line style="stroke:#AAAAAA;stroke-width:1.5;" x1="7" x2="725" y1="174.0625" y2="174.0625"/><text fill="#000000" font-family="sans-serif" font-size="12" font-weight="bold" lengthAdjust="spacing" textLength="142" x="7" y="191.0195">Filtrar / buscar proyectos</text><line style="stroke:#AAAAAA;stroke-width:1.0;" x1="7" x2="725" y1="199.1563" y2="199.1563"/><text fill="#000000" font-family="sans-serif" font-size="12" font-weight="bold" lengthAdjust="spacing" textLength="14" x="10" y="219.1133">ID:</text><rect fill="#EEEEEE" height="19.0938" rx="5" ry="5" style="stroke:#000000;stroke-width:2.5;" width="100" x="48.5" y="209.1563"/><text fill="#000000" font-family="sans-serif" font-size="12" lengthAdjust="spacing" textLength="3" x="97" y="223.6133">&#160;</text><text fill="#000000" font-family="sans-serif" font-size="12" font-weight="bold" lengthAdjust="spacing" textLength="34" x="10" y="245.207">T&#237;tulo:</text><rect fill="#EEEEEE" height="19.0938" rx="5" ry="5" style="stroke:#000000;stroke-width:2.5;" width="244" x="48.5" y="235.25"/><text fill="#000000" font-family="sans-serif" font-size="12" lengthAdjust="spacing" textLength="3" x="169" y="249.707">&#160;</text><text fill="#000000" font-family="sans-serif" font-size="12" font-weight="bold" lengthAdjust="spacing" textLength="42" x="10" y="273.3008">Estado:</text><text fill="#000000" font-family="sans-serif" font-size="12" lengthAdjust="spacing" textLength="35" x="58" y="274.3008">Todos</text><line style="stroke:#000000;stroke-width:1.0;" x1="56" x2="99" y1="276.9375" y2="276.9375"/><line style="stroke:#000000;stroke-width:1.0;" x1="56" x2="56" y1="273.9375" y2="275.9375"/><line style="stroke:#000000;stroke-width:1.0;" x1="99" x2="99" y1="273.9375" y2="275.9375"/><text fill="#000000" font-family="sans-serif" font-size="12" lengthAdjust="spacing" textLength="48" x="106" y="274.3008">Borrador</text><line style="stroke:#000000;stroke-width:1.0;" x1="104" x2="171" y1="276.9375" y2="276.9375"/><line style="stroke:#000000;stroke-width:1.0;" x1="104" x2="104" y1="273.9375" y2="275.9375"/><line style="stroke:#000000;stroke-width:1.0;" x1="171" x2="171" y1="273.9375" y2="275.9375"/><text fill="#000000" font-family="sans-serif" font-size="12" lengthAdjust="spacing" textLength="49" x="178" y="274.3008">En curso</text><line style="stroke:#000000;stroke-width:1.0;" x1="176" x2="243" y1="276.9375" y2="276.9375"/><line style="stroke:#000000;stroke-width:1.0;" x1="176" x2="176" y1="273.9375" y2="275.9375"/><line style="stroke:#000000;stroke-width:1.0;" x1="243" x2="243" y1="273.9375" y2="275.9375"/><text fill="#000000" font-family="sans-serif" font-size="12" lengthAdjust="spacing" textLength="56" x="250" y="274.3008">Finalizado</text><line style="stroke:#000000;stroke-width:1.0;" x1="248" x2="331" y1="276.9375" y2="276.9375"/><line style="stroke:#000000;stroke-width:1.0;" x1="248" x2="248" y1="273.9375" y2="275.9375"/><line style="stroke:#000000;stroke-width:1.0;" x1="331" x2="331" y1="273.9375" y2="275.9375"/><text fill="#000000" font-family="sans-serif" font-size="12" font-weight="bold" lengthAdjust="spacing" textLength="3" x="10" y="294.3945">&#160;</text><text fill="#000000" font-family="sans-serif" font-size="12" lengthAdjust="spacing" textLength="3" x="57" y="294.3945">&#160;</text><line style="stroke:#000000;stroke-width:1.0;" x1="55" x2="66" y1="297.0313" y2="297.0313"/><line style="stroke:#000000;stroke-width:1.0;" x1="55" x2="55" y1="294.0313" y2="296.0313"/><line style="stroke:#000000;stroke-width:1.0;" x1="66" x2="66" y1="294.0313" y2="296.0313"/><text fill="#000000" font-family="sans-serif" font-size="12" font-weight="bold" lengthAdjust="spacing" textLength="70" x="10" y="315.4883">Fecha inicio:</text><rect fill="#EEEEEE" height="19.0938" rx="5" ry="5" style="stroke:#000000;stroke-width:2.5;" width="100" x="84.5" y="305.5313"/><text fill="#000000" font-family="sans-serif" font-size="12" lengthAdjust="spacing" textLength="3" x="133" y="319.9883">&#160;</text><text fill="#000000" font-family="sans-serif" font-size="12" font-weight="bold" lengthAdjust="spacing" textLength="54" x="10" y="341.582">Fecha fin:</text><rect fill="#EEEEEE" height="19.0938" rx="5" ry="5" style="stroke:#000000;stroke-width:2.5;" width="100" x="84.5" y="331.625"/><text fill="#000000" font-family="sans-serif" font-size="12" lengthAdjust="spacing" textLength="3" x="133" y="346.082">&#160;</text><line style="stroke:#AAAAAA;stroke-width:1.5;" x1="7" x2="725" y1="361.7188" y2="361.7188"/><rect fill="#EEEEEE" height="19.0938" rx="5" ry="5" style="stroke:#000000;stroke-width:2.5;" width="124" x="10.5" y="369.7188"/><text fill="#000000" font-family="sans-serif" font-size="12" lengthAdjust="spacing" textLength="70" x="37.5" y="384.1758">Aplicar filtros</text><rect fill="#EEEEEE" height="19.0938" rx="5" ry="5" style="stroke:#000000;stroke-width:2.5;" width="124" x="141.5" y="369.7188"/><text fill="#000000" font-family="sans-serif" font-size="12" lengthAdjust="spacing" textLength="75" x="166" y="384.1758">Limpiar filtros</text><rect fill="#EEEEEE" height="19.0938" rx="5" ry="5" style="stroke:#000000;stroke-width:2.5;" width="172" x="272.5" y="369.7188"/><text fill="#000000" font-family="sans-serif" font-size="12" lengthAdjust="spacing" textLength="110" x="303.5" y="384.1758">Abrir Panel principal</text><!--SRC=[bLHTJjj047xVKupy10yEjY4LYYWYW8D24n6HW5H5UTZOcp2IlHkjrwc01lKGlK0FqASU8JVfIJhU_3YXGQNxjBEUx_jcTZxlMMQuDXbF3F2XHjtHwb54HcNk5zHYf7ags3C3MXzfsSt9yFIgsMc02-rc5pgtDv_3YzvDz-HWUBgTkC0j8IqafLX1B23532OhdJMiMAwxtfPW6n53yxB8XQy5Ms_-q-I9AWz2orx6JOaHRiGDb6LGZoAS_x87isqPfsZ7zVp0eKodat33Hqgdl2Wx4-CSKnJIg4gbubW09OKIebndobc4laTmD_22ggK8FDSFrc6_Njpnkld16-h75bgNyny9PdHP94wGE8yCJZ7cyQRykTAQEjTBUQ_gUeUb_EzltvrIuBq51Bu5jrKi4aN98iP2sWul5YcNCL-KG4bqiJp19oh1OgXPp_PxPCD3QjzVXs-hpzXw-_B2DdtJmCHehk40XdaMSVtVpjdXezhI2ltDJuEjnD9ZEvF_NeED5bPA2rEk29x1wQbOPSxssBOizEf2PwzhWYMN0mxi46o8w843Mk-_hya5OeHoT_fs0V-SrtE_FacmcDAe69lA1WLZ2zC9lZfREA73fKXeeYWZdF1aAJTZCtOcP5oyIepHJoZDNRi5Kw4pL1ByIk6dok5Uxo67XXY2NuN0gnrvDQyA5s4FYi_xRE-gqve6aAbSHsHRUduq3dD33FlicayvtERIO2fgS3CHylhoq-e0GZb5hMHAVpgxlc-N2H-Et7Cqq1MQQe7xDhiK8vxJqndAICKenpMuwpNSOzRYSfppCN6BZ5qeujMFDGYxVm00]--></g></svg>