<?plantuml 1.2026.2?><svg xmlns="http://www.w3.org/2000/svg" xmlns:xlink="http://www.w3.org/1999/xlink" contentStyleType="text/css" data-diagram-type="DESCRIPTION" height="408px" preserveAspectRatio="none" style="width:1215px;height:408px;background:#FFFFFF;" version="1.1" viewBox="0 0 1215 408" width="1215px" zoomAndPan="magnify"><defs/><g><!--cluster abrirConvocatorias--><g class="cluster" data-qualified-name="abrirConvocatorias" data-source-line="10" id="ent0004"><path d="M170,6 L310.7285,6 A3.75,3.75 0 0 1 313.2285,8.5 L320.2285,25.9688 L491,25.9688 A2.5,2.5 0 0 1 493.5,28.4688 L493.5,398.5 A2.5,2.5 0 0 1 491,401 L170,401 A2.5,2.5 0 0 1 167.5,398.5 L167.5,8.5 A2.5,2.5 0 0 1 170,6" fill="none" style="stroke:#000000;stroke-width:1.5;"/><line style="stroke:#000000;stroke-width:1.5;" x1="167.5" x2="320.2285" y1="25.9688" y2="25.9688"/><text fill="#000000" font-family="sans-serif" font-size="12" font-weight="bold" lengthAdjust="spacing" textLength="139.7285" x="171.5" y="19.1387">abrirConvocatorias()</text></g><!--entity ListarConvocatoriasView--><g class="entity" data-qualified-name="abrirConvocatorias.ListarConvocatoriasView" data-source-line="11" id="ent0005"><rect fill="#629EF9" height="33.9688" rx="2.5" ry="2.5" style="stroke:#181818;stroke-width:0.5;" width="167.6445" x="309.5" y="38"/><text fill="#000000" font-family="sans-serif" font-size="12" lengthAdjust="spacing" textLength="147.6445" x="319.5" y="59.1387">ListarConvocatoriasView</text></g><!--entity ConvocatoriaController--><g class="entity" data-qualified-name="abrirConvocatorias.ConvocatoriaController" data-source-line="12" id="ent0006"><rect fill="#B5BD68" height="33.9688" rx="2.5" ry="2.5" style="stroke:#181818;stroke-width:0.5;" width="158.6797" x="183" y="147"/><text fill="#000000" font-family="sans-serif" font-size="12" lengthAdjust="spacing" textLength="138.6797" x="193" y="168.1387">ConvocatoriaController</text></g><!--entity ConvocatoriaRepository--><g class="entity" data-qualified-name="abrirConvocatorias.ConvocatoriaRepository" data-source-line="13" id="ent0007"><rect fill="#F2AC4E" height="33.9688" rx="2.5" ry="2.5" style="stroke:#181818;stroke-width:0.5;" width="163.7363" x="183.5" y="256"/><text fill="#000000" font-family="sans-serif" font-size="12" lengthAdjust="spacing" textLength="143.7363" x="193.5" y="277.1387">ConvocatoriaRepository</text></g><!--entity Convocatoria--><g class="entity" data-qualified-name="abrirConvocatorias.Convocatoria" data-source-line="14" id="ent0008"><rect fill="#F2AC4E" height="33.9688" rx="2.5" ry="2.5" style="stroke:#181818;stroke-width:0.5;" width="99.3887" x="216" y="351"/><text fill="#000000" font-family="sans-serif" font-size="12" lengthAdjust="spacing" textLength="79.3887" x="226" y="372.1387">Convocatoria</text></g><!--entity NavegacionSistema--><g class="entity" data-qualified-name="NavegacionSistema" data-source-line="7" id="ent0002"><rect fill="#CDEBA5" height="33.9688" rx="2.5" ry="2.5" style="stroke:#181818;stroke-width:0.5;" width="142.8125" x="7" y="38"/><text fill="#000000" font-family="sans-serif" font-size="12" lengthAdjust="spacing" textLength="122.8125" x="17" y="59.1387">Navegaci&#243;n Sistema</text></g><!--entity ConvocatoriasAbiertas--><g class="entity" data-qualified-name="ConvocatoriasAbiertas" data-source-line="8" id="ent0003"><rect fill="#CDEBA5" height="33.9688" rx="2.5" ry="2.5" style="stroke:#181818;stroke-width:0.5;" width="190.5781" x="510" y="147"/><text fill="#000000" font-family="sans-serif" font-size="12" lengthAdjust="spacing" textLength="170.5781" x="520" y="168.1387">CONVOCATORIAS_ABIERTAS</text></g><!--entity AbrirConvocatoria--><g class="entity" data-qualified-name="AbrirConvocatoria" data-source-line="17" id="ent0009"><rect fill="#CDEBA5" height="33.9688" rx="2.5" ry="2.5" style="stroke:#181818;stroke-width:0.5;" width="216.248" x="736.5" y="147"/><text fill="#000000" font-family="sans-serif" font-size="12" lengthAdjust="spacing" textLength="196.248" x="746.5" y="168.1387">:Collaboration AbrirConvocatoria</text></g><!--entity AbrirPanelPrincipal--><g class="entity" data-qualified-name="AbrirPanelPrincipal" data-source-line="18" id="ent0010"><rect fill="#CDEBA5" height="33.9688" rx="2.5" ry="2.5" style="stroke:#181818;stroke-width:0.5;" width="221.1172" x="988" y="147"/><text fill="#000000" font-family="sans-serif" font-size="12" lengthAdjust="spacing" textLength="201.1172" x="998" y="168.1387">:Collaboration AbrirPanelPrincipal</text></g><!--link NavegacionSistema to ListarConvocatoriasView--><g class="link" data-entity-1="ent0002" data-entity-2="ent0005" data-link-type="dependency" data-source-line="20" id="lnk11"><path d="M150.37,55 C197.67,55 253.78,55 303.38,55" fill="none" id="NavegacionSistema-to-ListarConvocatoriasView" style="stroke:#181818;stroke-width:1;"/><polygon fill="#181818" points="309.38,55,300.38,51,304.38,55,300.38,59,309.38,55" style="stroke:#181818;stroke-width:1;"/><text fill="#000000" font-family="sans-serif" font-size="12" lengthAdjust="spacing" textLength="123.1758" x="168.25" y="49.1387">abrirConvocatorias()</text></g><!--link ListarConvocatoriasView to ConvocatoriaController--><g class="link" data-entity-1="ent0005" data-entity-2="ent0006" data-link-type="dependency" data-source-line="22" id="lnk12"><path d="M362.02,72.09 C336.07,85.35 303.5,102 303.5,102 C303.5,102 288.7679,123.9209 276.6179,141.9909" fill="none" id="ListarConvocatoriasView-to-ConvocatoriaController" style="stroke:#181818;stroke-width:1;"/><polygon fill="#181818" points="273.27,146.97,281.6112,141.7332,276.0599,142.8207,274.9724,137.2694,273.27,146.97" style="stroke:#181818;stroke-width:1;"/><text fill="#000000" font-family="sans-serif" font-size="12" lengthAdjust="spacing" textLength="257.0625" x="304.5" y="114.1387">listarConvocatorias() : List&lt;Convocatoria&gt;</text></g><!--link ConvocatoriaController to ConvocatoriaRepository--><g class="link" data-entity-1="ent0006" data-entity-2="ent0007" data-link-type="dependency" data-source-line="23" id="lnk13"><path d="M262.96,181.25 C263.52,201.48 264.3232,229.8123 264.8832,249.9523" fill="none" id="ConvocatoriaController-to-ConvocatoriaRepository" style="stroke:#181818;stroke-width:1;"/><polygon fill="#181818" points="265.05,255.95,268.7983,246.8423,264.911,250.9519,260.8014,247.0647,265.05,255.95" style="stroke:#181818;stroke-width:1;"/><text fill="#000000" font-family="sans-serif" font-size="12" lengthAdjust="spacing" textLength="224.373" x="264.5" y="223.1387">obtenerTodas() : List&lt;Convocatoria&gt;</text></g><!--link ConvocatoriaRepository to Convocatoria--><g class="link" data-entity-1="ent0007" data-entity-2="ent0008" data-link-type="association" data-source-line="24" id="lnk14"><path d="M265.5,290.2 C265.5,307.27 265.5,333.99 265.5,350.99" fill="none" id="ConvocatoriaRepository-Convocatoria" style="stroke:#181818;stroke-width:1;"/></g><!--link ListarConvocatoriasView to AbrirConvocatoria--><g class="link" data-entity-1="ent0005" data-entity-2="ent0009" data-link-type="dependency" data-source-line="26" id="lnk15"><path d="M477.73,71.25 C551.66,84.64 647.5,102 647.5,102 C647.5,102 728.6384,127.1256 787.0084,145.1956" fill="none" id="ListarConvocatoriasView-to-AbrirConvocatoria" style="stroke:#181818;stroke-width:1;stroke-dasharray:7,7;"/><polygon fill="#181818" points="792.74,146.97,785.3255,140.4873,787.9636,145.4914,782.9596,148.1295,792.74,146.97" style="stroke:#181818;stroke-width:1;"/><text fill="#000000" font-family="sans-serif" font-size="12" lengthAdjust="spacing" textLength="205.6875" x="695.5" y="114.1387">abrirConvocatoria(convocatoriaId)</text></g><!--link ListarConvocatoriasView to AbrirPanelPrincipal--><g class="link" data-entity-1="ent0005" data-entity-2="ent0010" data-link-type="dependency" data-source-line="27" id="lnk16"><path d="M477.55,63.49 C623.77,76.53 909.5,102 909.5,102 C909.5,102 987.14,127.0572 1043.13,145.1272" fill="none" id="ListarConvocatoriasView-to-AbrirPanelPrincipal" style="stroke:#181818;stroke-width:1;stroke-dasharray:7,7;"/><polygon fill="#181818" points="1048.84,146.97,1041.5036,140.3991,1044.0817,145.4343,1039.0465,148.0124,1048.84,146.97" style="stroke:#181818;stroke-width:1;"/><text fill="#000000" font-family="sans-serif" font-size="12" lengthAdjust="spacing" textLength="121.793" x="955.5" y="114.1387">abrirPanelPrincipal()</text></g><!--link ListarConvocatoriasView to ConvocatoriasAbiertas--><g class="link" data-entity-1="ent0005" data-entity-2="ent0003" data-link-type="dependency" data-source-line="29" id="lnk17"><path d="M454.01,72.09 C503.9,85.35 566.5,102 566.5,102 C566.5,102 580.4686,123.8445 592.0186,141.9145" fill="none" id="ListarConvocatoriasView-to-ConvocatoriasAbiertas" style="stroke:#181818;stroke-width:1;stroke-dasharray:7,7;"/><polygon fill="#181818" points="595.25,146.97,593.7733,137.2325,592.5572,142.7571,587.0326,141.541,595.25,146.97" style="stroke:#181818;stroke-width:1;"/><text fill="#000000" font-family="sans-serif" font-size="12" lengthAdjust="spacing" textLength="62.4551" x="576.5" y="114.1387">&#171;finalizar&#187;</text></g><?plantuml-src ZLDTJy8m57tlhxZ15tYOYKICB6J9d92G6250V3LtssKqr7PfYmIDlygVu1-pu0SR6ygUsdFFFUqzfpDBBdFK-0Gn9ijCgvLC8oMKXlM2MsBcjsuMcAerbndCKPXYvPRck19seAJzQes5qwedJFaBmKMxK1HSajta1BaIc-s6CKs9HPa9WhFejdyJTg1nZy-KOS8_tYLCkR7qX0r00p-uajzeNNCqkdyOHU5iD1c6qyVmPjYVpCBfhZzIybabQ9NcQCAOaxPe6ClT09WHOAovBd6sJOqgt6mru9M1-mhdNxMx_K4NxjpDi4n_uBG-PCUTEBswBjt8hQrMGf0-90_QONJPBv4db2l3tN9p0fczrThikm05nagZTPP2U3ZdphCAUghI62M9iUOouJcAlLOPPwmIAdZQ2uxvw4DT78mTeOENEgrwbttt6YjDpHRukxDxHJXWzH9L-NqkFgZOaYGzK-bfkljUyBnoW4VdEpyFgX7LcDHC2fjXslfVi9pJjsGP_CluhKxj_-P3hpVd4WL_GHq4dm00?></g></svg>