<?plantuml 1.2026.2?><svg xmlns="http://www.w3.org/2000/svg" xmlns:xlink="http://www.w3.org/1999/xlink" contentStyleType="text/css" data-diagram-type="DESCRIPTION" height="313px" preserveAspectRatio="none" style="width:941px;height:313px;background:#FFFFFF;" version="1.1" viewBox="0 0 941 313" width="941px" zoomAndPan="magnify"><defs/><g><!--cluster crearRecompensa--><g class="cluster" data-qualified-name="crearRecompensa" data-source-line="10" id="ent0004"><path d="M8.5,6 L141.4063,6 A3.75,3.75 0 0 1 143.9063,8.5 L150.9063,25.9688 L380.5,25.9688 A2.5,2.5 0 0 1 383,28.4688 L383,303.5 A2.5,2.5 0 0 1 380.5,306 L8.5,306 A2.5,2.5 0 0 1 6,303.5 L6,8.5 A2.5,2.5 0 0 1 8.5,6" fill="none" style="stroke:#000000;stroke-width:1.5;"/><line style="stroke:#000000;stroke-width:1.5;" x1="6" x2="150.9063" y1="25.9688" y2="25.9688"/><text fill="#000000" font-family="sans-serif" font-size="12" font-weight="bold" lengthAdjust="spacing" textLength="131.9063" x="10" y="19.1387">crearRecompensa()</text></g><!--entity CrearRecompensaView--><g class="entity" data-qualified-name="crearRecompensa.CrearRecompensaView" data-source-line="11" id="ent0005"><rect fill="#629EF9" height="33.9688" rx="2.5" ry="2.5" style="stroke:#181818;stroke-width:0.5;" width="159.2832" x="208.5" y="38"/><text fill="#000000" font-family="sans-serif" font-size="12" lengthAdjust="spacing" textLength="139.2832" x="218.5" y="59.1387">CrearRecompensaView</text></g><!--entity RecompensaController--><g class="entity" data-qualified-name="crearRecompensa.RecompensaController" data-source-line="12" id="ent0006"><rect fill="#B5BD68" height="33.9688" rx="2.5" ry="2.5" style="stroke:#181818;stroke-width:0.5;" width="156.8516" x="22.5" y="147"/><text fill="#000000" font-family="sans-serif" font-size="12" lengthAdjust="spacing" textLength="136.8516" x="32.5" y="168.1387">RecompensaController</text></g><!--entity RecompensaRepository--><g class="entity" data-qualified-name="crearRecompensa.RecompensaRepository" data-source-line="13" id="ent0007"><rect fill="#F2AC4E" height="33.9688" rx="2.5" ry="2.5" style="stroke:#181818;stroke-width:0.5;" width="161.9082" x="22" y="256"/><text fill="#000000" font-family="sans-serif" font-size="12" lengthAdjust="spacing" textLength="141.9082" x="32" y="277.1387">RecompensaRepository</text></g><!--entity Recompensa--><g class="entity" data-qualified-name="crearRecompensa.Recompensa" data-source-line="14" id="ent0008"><rect fill="#F2AC4E" height="33.9688" rx="2.5" ry="2.5" style="stroke:#181818;stroke-width:0.5;" width="97.5605" x="269" y="147"/><text fill="#000000" font-family="sans-serif" font-size="12" lengthAdjust="spacing" textLength="77.5605" x="279" y="168.1387">Recompensa</text></g><!--entity RecompensasAbiertas--><g class="entity" data-qualified-name="RecompensasAbiertas" data-source-line="7" id="ent0002"><rect fill="#CDEBA5" height="33.9688" rx="2.5" ry="2.5" style="stroke:#181818;stroke-width:0.5;" width="176.3926" x="402" y="147"/><text fill="#000000" font-family="sans-serif" font-size="12" lengthAdjust="spacing" textLength="156.3926" x="412" y="168.1387">RECOMPENSAS_ABIERTAS</text></g><!--entity RecompensaAbierta--><g class="entity" data-qualified-name="RecompensaAbierta" data-source-line="8" id="ent0003"><rect fill="#CDEBA5" height="33.9688" rx="2.5" ry="2.5" style="stroke:#181818;stroke-width:0.5;" width="161.1582" x="642.5" y="147"/><text fill="#000000" font-family="sans-serif" font-size="12" lengthAdjust="spacing" textLength="141.1582" x="652.5" y="168.1387">RECOMPENSA_ABIERTA</text></g><!--link RecompensasAbiertas to CrearRecompensaView--><g class="link" data-entity-1="ent0002" data-entity-2="ent0005" data-link-type="dependency" data-source-line="17" id="lnk9"><path d="M432.99,146.91 C385.99,133.65 327,117 327,117 C327,117 313.0314,95.1555 301.4814,77.0855" fill="none" id="RecompensasAbiertas-to-CrearRecompensaView" style="stroke:#181818;stroke-width:1;"/><polygon fill="#181818" points="298.25,72.03,299.7267,81.7675,300.9428,76.2429,306.4674,77.459,298.25,72.03" style="stroke:#181818;stroke-width:1;"/><text fill="#000000" font-family="sans-serif" font-size="12" lengthAdjust="spacing" textLength="118.125" x="328" y="114.1387">crearRecompensa()</text></g><!--link CrearRecompensaView to RecompensasAbiertas--><g class="link" data-entity-1="ent0005" data-entity-2="ent0002" data-link-type="dependency" data-source-line="24" id="lnk14"><path d="M345.01,72.09 C392.01,85.35 451,102 451,102 C451,102 464.9686,123.8445 476.5186,141.9145" fill="none" id="CrearRecompensaView-to-RecompensasAbiertas" style="stroke:#181818;stroke-width:1;stroke-dasharray:7,7;"/><polygon fill="#181818" points="479.75,146.97,478.2733,137.2325,477.0572,142.7571,471.5326,141.541,479.75,146.97" style="stroke:#181818;stroke-width:1;"/><text fill="#000000" font-family="sans-serif" font-size="12" lengthAdjust="spacing" textLength="191.0039" x="462" y="114.1387">&#171;cancelar&#187; abrirRecompensas()</text></g><!--link CrearRecompensaView to RecompensaController--><g class="link" data-entity-1="ent0005" data-entity-2="ent0006" data-link-type="dependency" data-source-line="19" id="lnk10"><path d="M213.11,72.02 C151.06,85.3 73,102 73,102 C73,102 73,117 73,117 C73,117 80.0079,128.5263 88.0879,141.7863" fill="none" id="CrearRecompensaView-to-RecompensaController" style="stroke:#181818;stroke-width:1;"/><polygon fill="#181818" points="91.21,146.91,89.9426,137.143,88.6082,142.6403,83.111,141.3059,91.21,146.91" style="stroke:#181818;stroke-width:1;"/><text fill="#000000" font-family="sans-serif" font-size="12" lengthAdjust="spacing" textLength="212.6074" x="74" y="114.1387">crear(tipo, cantidad) : Recompensa</text></g><!--link RecompensaController to Recompensa--><g class="link" data-entity-1="ent0006" data-entity-2="ent0008" data-link-type="dependency" data-source-line="20" id="lnk11"><path d="M179.65,164 C209.49,164 236.59,164 262.93,164" fill="none" id="RecompensaController-to-Recompensa" style="stroke:#181818;stroke-width:1;"/><polygon fill="#181818" points="268.93,164,259.93,160,263.93,164,259.93,168,268.93,164" style="stroke:#181818;stroke-width:1;"/><text fill="#000000" font-family="sans-serif" font-size="12" lengthAdjust="spacing" textLength="53.0391" x="197.75" y="158.1387">&#171;create&#187;</text></g><!--link RecompensaController to RecompensaRepository--><g class="link" data-entity-1="ent0006" data-entity-2="ent0007" data-link-type="dependency" data-source-line="21" id="lnk12"><path d="M101.3,181.25 C101.68,201.48 102.2068,229.8111 102.5868,249.9511" fill="none" id="RecompensaController-to-RecompensaRepository" style="stroke:#181818;stroke-width:1;"/><polygon fill="#181818" points="102.7,255.95,106.5295,246.8761,102.6057,250.9509,98.5309,247.0271,102.7,255.95" style="stroke:#181818;stroke-width:1;"/><text fill="#000000" font-family="sans-serif" font-size="12" lengthAdjust="spacing" textLength="130.9336" x="104" y="223.1387">guardar(recompensa)</text></g><!--link CrearRecompensaView to RecompensaAbierta--><g class="link" data-entity-1="ent0005" data-entity-2="ent0003" data-link-type="dependency" data-source-line="23" id="lnk13"><path d="M367.77,65.81 C477.61,79.32 662,102 662,102 C662,102 684.6574,124.6574 702.7274,142.7274" fill="none" id="CrearRecompensaView-to-RecompensaAbierta" style="stroke:#181818;stroke-width:1;stroke-dasharray:7,7;"/><polygon fill="#181818" points="706.97,146.97,703.4345,137.7776,703.4345,143.4345,697.7776,143.4345,706.97,146.97" style="stroke:#181818;stroke-width:1;"/><text fill="#000000" font-family="sans-serif" font-size="12" lengthAdjust="spacing" textLength="255.5215" x="678" y="114.1387">&#171;finalizar&#187; abrirRecompensa(recompensa)</text></g><?plantuml-src XP9FRu904CNl-oacUj6acjJKfX93WeX93_qJQNfj1XXnuxfBTjSORVhTYzO28hRSs3VljsyUc1MN6MfSGuJnAjLg8nDV2QLXk-IMc2bqiyH4RRbCOO72L9KfBN0Zx4n9-sEDHCvg7WZvdk1sK145bsHt6K6cnExmmfYcsA9C1K7RdmOJRmYjUU2_FBq6pw4NVdYJns3-veKjG0DpYjKw8sdGU14dRT7yxV-rrzmdCsDPdXrJWbQi2NKvqEaU7RLJ-6IGF-MDBVzyu9tJzcXiE8Vs_M0Kp4PrH3dbvvLf9GJfMjnIW7OqZ9BxX-kGEMNASAlqhWOf1MZF1fv_5ro7rAo5uOknXay0FTrpcrPsuA9MnfggwIKve6dV4w5ZUQPk84PfUO995vpAD6iiwfYfL1mOZmyeIwvxnN2UeQpBWNI3EibJw4AziaU_xrx-POUh5roYu7lKhWiOQLxjf4hz7rgqVjm8PKoYYMewtMy0?></g></svg>