<?xml version="1.0" encoding="us-ascii" standalone="no"?><svg xmlns="http://www.w3.org/2000/svg" xmlns:xlink="http://www.w3.org/1999/xlink" contentStyleType="text/css" height="856px" preserveAspectRatio="none" style="width:1571px;height:856px;background:#FFFFFF;" version="1.1" viewBox="0 0 1571 856" width="1571px" zoomAndPan="magnify"><defs/><g><g id="in1"><rect fill="#F1F1F1" height="50" rx="12.5" ry="12.5" style="stroke:#181818;stroke-width:0.5;" width="184" x="682" y="7"/><line style="stroke:#181818;stroke-width:0.5;" x1="682" x2="866" y1="34.6094" y2="34.6094"/><text fill="#000000" font-family="sans-serif" font-size="14" lengthAdjust="spacing" textLength="164" x="692" y="26.5332">PROYECTOS_ABIERTOS</text></g><path d="M528.5,118 L1019.5,118 A12.5,12.5 0 0 1 1032,130.5 L1032,145.6094 L516,145.6094 L516,130.5 A12.5,12.5 0 0 1 528.5,118 " fill="#F1F1F1" style="stroke:#F1F1F1;stroke-width:1.0;"/><rect fill="none" height="585.6094" rx="12.5" ry="12.5" style="stroke:#181818;stroke-width:0.5;" width="516" x="516" y="118"/><line style="stroke:#181818;stroke-width:0.5;" x1="516" x2="1032" y1="145.6094" y2="145.6094"/><text fill="#000000" font-family="sans-serif" font-size="14" lengthAdjust="spacing" textLength="99" x="724.5" y="137.5332">crearProyecto()</text><g id="crearProyecto.SolicitandoDatos"><rect fill="#F1F1F1" height="50" rx="12.5" ry="12.5" style="stroke:#181818;stroke-width:0.5;" width="50" x="528" y="248.6094"/><line style="stroke:#181818;stroke-width:0.5;" x1="528" x2="578" y1="276.2188" y2="276.2188"/><text fill="#000000" font-family="sans-serif" font-size="14" lengthAdjust="spacing" textLength="4" x="551" y="268.1426">&#160;</text></g><g id="crearProyecto.RegistrandoProyecto"><rect fill="#F1F1F1" height="50" rx="12.5" ry="12.5" style="stroke:#181818;stroke-width:0.5;" width="50" x="528" y="533.6094"/><line style="stroke:#181818;stroke-width:0.5;" x1="528" x2="578" y1="561.2188" y2="561.2188"/><text fill="#000000" font-family="sans-serif" font-size="14" lengthAdjust="spacing" textLength="4" x="551" y="553.1426">&#160;</text></g><ellipse cx="553" cy="166.6094" fill="#222222" rx="10" ry="10" style="stroke:#222222;stroke-width:1.0;"/><ellipse cx="553" cy="682.6094" fill="none" rx="11" ry="11" style="stroke:#222222;stroke-width:1.0;"/><ellipse cx="553" cy="682.6094" fill="#222222" rx="6" ry="6" style="stroke:#222222;stroke-width:1.0;"/><!--link *start*crearProyecto to SolicitandoDatos--><g id="link_*start*crearProyecto_SolicitandoDatos"><path d="M553,176.9294 C553,192.7894 553,219.5194 553,242.2494 " fill="none" id="*start*crearProyecto-to-SolicitandoDatos" style="stroke:#008000;stroke-width:1.0;"/><polygon fill="#008000" points="553,248.2494,557,239.2494,553,243.2494,549,239.2494,553,248.2494" style="stroke:#008000;stroke-width:1.0;"/><path d="M558,199.6094 L558,225.6094 L845,225.6094 L845,209.6094 L835,199.6094 L558,199.6094 " fill="#FEFFDD" style="stroke:#181818;stroke-width:0.5;"/><path d="M835,199.6094 L835,209.6094 L845,209.6094 L835,199.6094 " fill="#FEFFDD" style="stroke:#181818;stroke-width:0.5;"/><text fill="#000000" font-family="sans-serif" font-size="13" font-weight="bold" lengthAdjust="spacing" textLength="79" x="564" y="218.1045">Coordinador</text><text fill="#000000" font-family="sans-serif" font-size="13" lengthAdjust="spacing" textLength="183" x="647" y="218.1045">solicita crear un nuevo proyecto</text></g><!--link SolicitandoDatos to RegistrandoProyecto--><g id="link_SolicitandoDatos_RegistrandoProyecto"><path d="M553,298.7394 C553,352.2094 553,474.1294 553,527.5394 " fill="none" id="SolicitandoDatos-to-RegistrandoProyecto" style="stroke:#008000;stroke-width:1.0;"/><polygon fill="#008000" points="553,533.5394,557,524.5394,553,528.5394,549,524.5394,553,533.5394" style="stroke:#008000;stroke-width:1.0;"/><path d="M558,321.6094 L558,510.6094 L1023,510.6094 L1023,331.6094 L1013,321.6094 L558,321.6094 " fill="#FEFFDD" style="stroke:#181818;stroke-width:0.5;"/><path d="M1013,321.6094 L1013,331.6094 L1023,331.6094 L1013,321.6094 " fill="#FEFFDD" style="stroke:#181818;stroke-width:0.5;"/><text fill="#000000" font-family="sans-serif" font-size="13" font-weight="bold" lengthAdjust="spacing" textLength="51" x="564" y="340.1045">Sistema</text><text fill="#000000" font-family="sans-serif" font-size="13" lengthAdjust="spacing" textLength="389" x="619" y="340.1045">presenta el formulario de creaci&#243;n del proyecto y permite introducir:</text><text fill="#000000" font-family="sans-serif" font-size="13" lengthAdjust="spacing" textLength="40" x="564" y="356.4561">&#8226; T&#237;tulo</text><text fill="#000000" font-family="sans-serif" font-size="13" lengthAdjust="spacing" textLength="87" x="564" y="372.8076">&#8226; Estado inicial</text><text fill="#000000" font-family="sans-serif" font-size="13" lengthAdjust="spacing" textLength="97" x="564" y="389.1592">&#8226; Fecha de inicio</text><text fill="#000000" font-family="sans-serif" font-size="13" lengthAdjust="spacing" textLength="80" x="564" y="405.5107">&#8226; Fecha de fin</text><text fill="#000000" font-family="sans-serif" font-size="13" lengthAdjust="spacing" textLength="77" x="564" y="421.8623">&#8226; Descripci&#243;n</text><text fill="#000000" font-family="sans-serif" font-size="13" font-style="italic" lengthAdjust="spacing" textLength="268" x="564" y="438.2139">El ID del proyecto se genera autom&#225;ticamente</text><text fill="#000000" font-family="sans-serif" font-size="13" lengthAdjust="spacing" textLength="4" x="564" y="454.5654">&#160;</text><text fill="#000000" font-family="sans-serif" font-size="13" lengthAdjust="spacing" textLength="247" x="564" y="470.917">y permite solicitar las siguientes acciones:</text><text fill="#000000" font-family="sans-serif" font-size="13" lengthAdjust="spacing" textLength="94" x="564" y="487.2686">&#8226; Crear proyecto</text><text fill="#000000" font-family="sans-serif" font-size="13" lengthAdjust="spacing" textLength="44" x="564" y="503.6201">&#8226; Volver</text></g><!--link RegistrandoProyecto to *end*crearProyecto--><g id="link_RegistrandoProyecto_*end*crearProyecto"><path d="M553,583.7094 C553,610.3794 553,646.1094 553,665.3094 " fill="none" id="RegistrandoProyecto-to-*end*crearProyecto" style="stroke:#008000;stroke-width:1.0;"/><polygon fill="#008000" points="553,671.3094,557,662.3094,553,666.3094,549,662.3094,553,671.3094" style="stroke:#008000;stroke-width:1.0;"/><path d="M558,606.6094 L558,648.6094 L838,648.6094 L838,616.6094 L828,606.6094 L558,606.6094 " fill="#FEFFDD" style="stroke:#181818;stroke-width:0.5;"/><path d="M828,606.6094 L828,616.6094 L838,616.6094 L828,606.6094 " fill="#FEFFDD" style="stroke:#181818;stroke-width:0.5;"/><text fill="#000000" font-family="sans-serif" font-size="13" font-weight="bold" lengthAdjust="spacing" textLength="79" x="564" y="625.1045">Coordinador</text><text fill="#000000" font-family="sans-serif" font-size="13" lengthAdjust="spacing" textLength="176" x="647" y="625.1045">introduce los datos solicitados</text><text fill="#000000" font-family="sans-serif" font-size="13" font-weight="bold" lengthAdjust="spacing" textLength="51" x="564" y="641.4561">Sistema</text><text fill="#000000" font-family="sans-serif" font-size="13" lengthAdjust="spacing" textLength="148" x="619" y="641.4561">registra el nuevo proyecto</text></g><g id="PROYECTO_ABIERTO"><rect fill="#F1F1F1" height="50" rx="12.5" ry="12.5" style="stroke:#181818;stroke-width:0.5;" width="166" x="228" y="800"/><line style="stroke:#181818;stroke-width:0.5;" x1="228" x2="394" y1="827.6094" y2="827.6094"/><text fill="#000000" font-family="sans-serif" font-size="14" lengthAdjust="spacing" textLength="146" x="238" y="819.5332">PROYECTO_ABIERTO</text></g><g id="PROYECTOS_ABIERTOS"><rect fill="#F1F1F1" height="50" rx="12.5" ry="12.5" style="stroke:#181818;stroke-width:0.5;" width="184" x="738" y="800"/><line style="stroke:#181818;stroke-width:0.5;" x1="738" x2="922" y1="827.6094" y2="827.6094"/><text fill="#000000" font-family="sans-serif" font-size="14" lengthAdjust="spacing" textLength="164" x="748" y="819.5332">PROYECTOS_ABIERTOS</text></g><g id="ENTREGABLES_ABIERTOS"><rect fill="#F1F1F1" height="50" rx="12.5" ry="12.5" style="stroke:#181818;stroke-width:0.5;" width="198" x="1064" y="800"/><line style="stroke:#181818;stroke-width:0.5;" x1="1064" x2="1262" y1="827.6094" y2="827.6094"/><text fill="#000000" font-family="sans-serif" font-size="14" lengthAdjust="spacing" textLength="178" x="1074" y="819.5332">ENTREGABLES_ABIERTOS</text></g><g id="INVESTIGADORES_ABIERTOS"><rect fill="#F1F1F1" height="50" rx="12.5" ry="12.5" style="stroke:#181818;stroke-width:0.5;" width="217" x="1347.5" y="800"/><line style="stroke:#181818;stroke-width:0.5;" x1="1347.5" x2="1564.5" y1="827.6094" y2="827.6094"/><text fill="#000000" font-family="sans-serif" font-size="14" lengthAdjust="spacing" textLength="197" x="1357.5" y="819.5332">INVESTIGADORES_ABIERTOS</text></g><!--link in1 to crearProyecto--><g id="link_in1_crearProyecto"><path d="M774,57.16 C774,72.19 774,87.31 774,111.82 " fill="none" id="in1-to-crearProyecto" style="stroke:#008000;stroke-width:1.0;"/><polygon fill="#008000" points="774,117.82,778,108.82,774,112.82,770,108.82,774,117.82" style="stroke:#008000;stroke-width:1.0;"/></g><!--link crearProyecto to PROYECTO_ABIERTO--><g id="link_crearProyecto_PROYECTO_ABIERTO"><path d="M515.86,520.23 C292.79,613.76 6,734 6,734 C6,734 6,770 6,770 C6,770 131.4418,792.2146 221.7518,808.1946 " fill="none" id="crearProyecto-to-PROYECTO_ABIERTO" style="stroke:#008000;stroke-width:1.0;"/><polygon fill="#008000" points="227.66,809.24,219.4946,803.733,222.7365,808.3688,218.1007,811.6107,227.66,809.24" style="stroke:#008000;stroke-width:1.0;"/><path d="M11,739 L11,765 L181,765 L181,749 L171,739 L11,739 " fill="#FEFFDD" style="stroke:#181818;stroke-width:0.5;"/><path d="M171,739 L171,749 L181,749 L171,739 " fill="#FEFFDD" style="stroke:#181818;stroke-width:0.5;"/><text fill="#000000" font-family="sans-serif" font-size="13" lengthAdjust="spacing" textLength="149" x="17" y="757.4951">Proyecto creado y abierto</text></g><!--link crearProyecto to PROYECTO_ABIERTO--><g id="link_crearProyecto_PROYECTO_ABIERTO"><path d="M515.65,563.81 C373.63,647.25 226,734 226,734 C226,734 226,770 226,770 C226,770 245.2743,782.2547 267.9143,796.6247 " fill="none" id="crearProyecto-to-PROYECTO_ABIERTO-1" style="stroke:#008000;stroke-width:1.0;"/><polygon fill="#008000" points="272.98,799.84,267.5249,791.6399,268.7585,797.1606,263.2378,798.3942,272.98,799.84" style="stroke:#008000;stroke-width:1.0;"/><path d="M231,739 L231,765 L344,765 L344,749 L334,739 L231,739 " fill="#FEFFDD" style="stroke:#181818;stroke-width:0.5;"/><path d="M334,739 L334,749 L344,749 L334,739 " fill="#FEFFDD" style="stroke:#181818;stroke-width:0.5;"/><text fill="#000000" font-family="sans-serif" font-size="13" lengthAdjust="spacing" textLength="92" x="237" y="757.4951">editarProyecto()</text></g><!--link crearProyecto to PROYECTO_ABIERTO--><g id="link_crearProyecto_PROYECTO_ABIERTO"><path d="M515.86,627.9 C445.85,686.45 389,734 389,734 C389,734 358.94,768.6863 335.83,795.3463 " fill="none" id="crearProyecto-to-PROYECTO_ABIERTO-2" style="stroke:#008000;stroke-width:1.0;"/><polygon fill="#008000" points="331.9,799.88,340.8175,795.6994,335.175,796.1019,334.7726,790.4594,331.9,799.88" style="stroke:#008000;stroke-width:1.0;"/><path d="M394,739 L394,765 L534,765 L534,749 L524,739 L394,739 " fill="#FEFFDD" style="stroke:#181818;stroke-width:0.5;"/><path d="M524,739 L524,749 L534,749 L524,739 " fill="#FEFFDD" style="stroke:#181818;stroke-width:0.5;"/><text fill="#000000" font-family="sans-serif" font-size="13" lengthAdjust="spacing" textLength="119" x="400" y="757.4951">agregarInvestigador()</text></g><!--link crearProyecto to PROYECTO_ABIERTO--><g id="link_crearProyecto_PROYECTO_ABIERTO"><path d="M585.37,704.34 C560.27,743.23 543,770 543,770 C543,770 466.5137,787.7994 399.9437,803.2994 " fill="none" id="crearProyecto-to-PROYECTO_ABIERTO-3" style="stroke:#008000;stroke-width:1.0;"/><polygon fill="#008000" points="394.1,804.66,403.7726,806.5148,398.9697,803.5261,401.9584,798.7233,394.1,804.66" style="stroke:#008000;stroke-width:1.0;"/><path d="M568,739 L568,765 L710,765 L710,749 L700,739 L568,739 " fill="#FEFFDD" style="stroke:#181818;stroke-width:0.5;"/><path d="M700,739 L700,749 L710,749 L700,739 " fill="#FEFFDD" style="stroke:#181818;stroke-width:0.5;"/><text fill="#000000" font-family="sans-serif" font-size="13" lengthAdjust="spacing" textLength="121" x="574" y="757.4951">eliminarInvestigador()</text></g><!--link crearProyecto to PROYECTOS_ABIERTOS--><g id="link_crearProyecto_PROYECTOS_ABIERTOS"><path d="M771.28,704.28 C771.11,722.68 771,734 771,734 C771,734 771,770 771,770 C771,770 783.4727,781.4204 799.1827,795.7904 " fill="none" id="crearProyecto-to-PROYECTOS_ABIERTOS" style="stroke:#008000;stroke-width:1.0;"/><polygon fill="#008000" points="803.61,799.84,799.6689,790.8141,799.9206,796.4653,794.2694,796.7171,803.61,799.84" style="stroke:#008000;stroke-width:1.0;"/><path d="M776,739 L776,765 L902,765 L902,749 L892,739 L776,739 " fill="#FEFFDD" style="stroke:#181818;stroke-width:0.5;"/><path d="M892,739 L892,749 L902,749 L892,739 " fill="#FEFFDD" style="stroke:#181818;stroke-width:0.5;"/><text fill="#000000" font-family="sans-serif" font-size="13" lengthAdjust="spacing" textLength="105" x="782" y="757.4951">eliminarProyecto()</text></g><!--link crearProyecto to PROYECTOS_ABIERTOS--><g id="link_crearProyecto_PROYECTOS_ABIERTOS"><path d="M898.36,704.28 C906.18,722.68 911,734 911,734 C911,734 911,770 911,770 C911,770 892.7927,782.1423 871.2327,796.5123 " fill="none" id="crearProyecto-to-PROYECTOS_ABIERTOS-1" style="stroke:#008000;stroke-width:1.0;"/><polygon fill="#008000" points="866.24,799.84,875.9474,798.1769,870.4005,797.0669,871.5105,791.5201,866.24,799.84" style="stroke:#008000;stroke-width:1.0;"/><path d="M916,739 L916,765 L1029,765 L1029,749 L1019,739 L916,739 " fill="#FEFFDD" style="stroke:#181818;stroke-width:0.5;"/><path d="M1019,739 L1019,749 L1029,749 L1019,739 " fill="#FEFFDD" style="stroke:#181818;stroke-width:0.5;"/><text fill="#000000" font-family="sans-serif" font-size="13" lengthAdjust="spacing" textLength="92" x="922" y="757.4951">abrirProyectos()</text></g><!--link crearProyecto to ENTREGABLES_ABIERTOS--><g id="link_crearProyecto_ENTREGABLES_ABIERTOS"><path d="M1032.07,686.97 C1077.19,735.04 1110,770 1110,770 C1110,770 1120.9763,781.1888 1135.0863,795.5588 " fill="none" id="crearProyecto-to-ENTREGABLES_ABIERTOS" style="stroke:#008000;stroke-width:1.0;"/><polygon fill="#008000" points="1139.29,799.84,1135.8385,790.6157,1135.7869,796.2723,1130.1303,796.2207,1139.29,799.84" style="stroke:#008000;stroke-width:1.0;"/><path d="M1115,739 L1115,765 L1238,765 L1238,749 L1228,739 L1115,739 " fill="#FEFFDD" style="stroke:#181818;stroke-width:0.5;"/><path d="M1228,739 L1228,749 L1238,749 L1228,739 " fill="#FEFFDD" style="stroke:#181818;stroke-width:0.5;"/><text fill="#000000" font-family="sans-serif" font-size="13" lengthAdjust="spacing" textLength="102" x="1121" y="757.4951">abrirEntregables()</text></g><!--link crearProyecto to ENTREGABLES_ABIERTOS--><g id="link_crearProyecto_ENTREGABLES_ABIERTOS"><path d="M1032.3,587.84 C1142.85,663.1 1247,734 1247,734 C1247,734 1247,770 1247,770 C1247,770 1227.9875,782.2261 1205.6275,796.5961 " fill="none" id="crearProyecto-to-ENTREGABLES_ABIERTOS-1" style="stroke:#008000;stroke-width:1.0;"/><polygon fill="#008000" points="1200.58,799.84,1210.3138,798.3392,1204.7863,797.1368,1205.9887,791.6092,1200.58,799.84" style="stroke:#008000;stroke-width:1.0;"/><path d="M1252,739 L1252,765 L1372,765 L1372,749 L1362,739 L1252,739 " fill="#FEFFDD" style="stroke:#181818;stroke-width:0.5;"/><path d="M1362,739 L1362,749 L1372,749 L1362,739 " fill="#FEFFDD" style="stroke:#181818;stroke-width:0.5;"/><text fill="#000000" font-family="sans-serif" font-size="13" lengthAdjust="spacing" textLength="99" x="1258" y="757.4951">crearEntregable()</text></g><!--link crearProyecto to INVESTIGADORES_ABIERTOS--><g id="link_crearProyecto_INVESTIGADORES_ABIERTOS"><path d="M1032.23,548.09 C1198.99,635.97 1385,734 1385,734 C1385,734 1412.224,768.5092 1433.254,795.1692 " fill="none" id="crearProyecto-to-INVESTIGADORES_ABIERTOS" style="stroke:#008000;stroke-width:1.0;"/><polygon fill="#008000" points="1436.97,799.88,1434.5366,790.3365,1433.8734,795.9543,1428.2555,795.2911,1436.97,799.88" style="stroke:#008000;stroke-width:1.0;"/><path d="M1417,739 L1417,765 L1553,765 L1553,749 L1543,739 L1417,739 " fill="#FEFFDD" style="stroke:#181818;stroke-width:0.5;"/><path d="M1543,739 L1543,749 L1553,749 L1543,739 " fill="#FEFFDD" style="stroke:#181818;stroke-width:0.5;"/><text fill="#000000" font-family="sans-serif" font-size="13" lengthAdjust="spacing" textLength="115" x="1423" y="757.4951">abrirInvestigadores()</text></g><!--SRC=[hPJ1Qjj048RlUeh1lRI5K7ejmU3OQZ2KEDWcK48eA-r4NRBQ5RChWoc5lafxxwcFu3VfasHsRLcHuwIkYNpHZcR_-NR-MRixPIf1eWIj3FfbXL1PlGoB975UU0HbteDmqBkSJZwdm_bazcLmDawd_D9BmhUJwrS58PgRapxaX88koIunzxOHw0IZL2Vo-aqFlYK9yBFEx_6FisPMgrnvOQGT2M_Tuumf5ifv2XbjpP1r_VQcWxLNobXMiYOS_2u6JhF-q5gIoWXfwVHTrWUtsRW-0zG6J8qB2rLJBkn38wFOklPkhGx8FkAdM6QSYQM871MXGyCSgE7MKbbhGSg2N3StLwi_XXTwomLBg91A5UtpP6MTA_eGbV_- -0NprMzVQxjTfznMQJcLoONUXZzY_bM48l63VHo_LMOR7A7BILMHPNq4rKyrZ4TTC8TGe44I86flozLFht9HyjasxMl1czuJQFRQgQ9M8Ss1o1d6e6lFCupkT4m9uIkh5qXxFDfZGyScdf-3HwJfBu9cisMql46Ncr7RSPCsvOERpytJzoJftfs7ZCrrR6vZqe7TRWa2Cio3o1GILsWxSQmsok1AUtt_IxBzzzWHrQhahXuhkvzKS5uXQ6mMwBmgWcSlejl07Y6SNiodwVdWx5FwL2T4HefIdYf6ppIw5nEEUrlX0tN75rVfR3u-7umcq-UP7tRZOEn_pKLKRdPsHEy1]--></g></svg>