<?plantuml 1.2026.2?><svg xmlns="http://www.w3.org/2000/svg" xmlns:xlink="http://www.w3.org/1999/xlink" contentStyleType="text/css" data-diagram-type="DESCRIPTION" height="408px" preserveAspectRatio="none" style="width:1807px;height:408px;background:#FFFFFF;" version="1.1" viewBox="0 0 1807 408" width="1807px" zoomAndPan="magnify"><defs/><g><!--cluster abrirSolicitudEliminacionPerfil--><g class="cluster" data-qualified-name="abrirSolicitudEliminacionPerfil" data-source-line="10" id="ent0004"><path d="M321.5,6 L539.3086,6 A3.75,3.75 0 0 1 541.8086,8.5 L548.8086,25.9688 L1172.5,25.9688 A2.5,2.5 0 0 1 1175,28.4688 L1175,398.5 A2.5,2.5 0 0 1 1172.5,401 L321.5,401 A2.5,2.5 0 0 1 319,398.5 L319,8.5 A2.5,2.5 0 0 1 321.5,6" fill="none" style="stroke:#000000;stroke-width:1.5;"/><line style="stroke:#000000;stroke-width:1.5;" x1="319" x2="548.8086" y1="25.9688" y2="25.9688"/><text fill="#000000" font-family="sans-serif" font-size="12" font-weight="bold" lengthAdjust="spacing" textLength="216.8086" x="323" y="19.1387">abrirSolicitudEliminacionPerfil()</text></g><!--entity DetalleSolicitudView--><g class="entity" data-qualified-name="abrirSolicitudEliminacionPerfil.DetalleSolicitudView" data-source-line="11" id="ent0005"><rect fill="#629EF9" height="33.9688" rx="2.5" ry="2.5" style="stroke:#181818;stroke-width:0.5;" width="142.959" x="919.5" y="38"/><text fill="#000000" font-family="sans-serif" font-size="12" lengthAdjust="spacing" textLength="122.959" x="929.5" y="59.1387">DetalleSolicitudView</text></g><!--entity PerfilController--><g class="entity" data-qualified-name="abrirSolicitudEliminacionPerfil.PerfilController" data-source-line="12" id="ent0006"><rect fill="#B5BD68" height="33.9688" rx="2.5" ry="2.5" style="stroke:#181818;stroke-width:0.5;" width="109.7363" x="637" y="147"/><text fill="#000000" font-family="sans-serif" font-size="12" lengthAdjust="spacing" textLength="89.7363" x="647" y="168.1387">PerfilController</text></g><!--entity SolicitudEliminacionRepository--><g class="entity" data-qualified-name="abrirSolicitudEliminacionPerfil.SolicitudEliminacionRepository" data-source-line="13" id="ent0007"><rect fill="#F2AC4E" height="33.9688" rx="2.5" ry="2.5" style="stroke:#181818;stroke-width:0.5;" width="204.9453" x="461.5" y="256"/><text fill="#000000" font-family="sans-serif" font-size="12" lengthAdjust="spacing" textLength="184.9453" x="471.5" y="277.1387">SolicitudEliminacionRepository</text></g><!--entity UsuarioRepository--><g class="entity" data-qualified-name="abrirSolicitudEliminacionPerfil.UsuarioRepository" data-source-line="14" id="ent0008"><rect fill="#F2AC4E" height="33.9688" rx="2.5" ry="2.5" style="stroke:#181818;stroke-width:0.5;" width="129.9512" x="887" y="256"/><text fill="#000000" font-family="sans-serif" font-size="12" lengthAdjust="spacing" textLength="109.9512" x="897" y="277.1387">UsuarioRepository</text></g><!--entity SolicitudEliminacion--><g class="entity" data-qualified-name="abrirSolicitudEliminacionPerfil.SolicitudEliminacion" data-source-line="15" id="ent0009"><rect fill="#F2AC4E" height="33.9688" rx="2.5" ry="2.5" style="stroke:#181818;stroke-width:0.5;" width="140.5977" x="493.5" y="351"/><text fill="#000000" font-family="sans-serif" font-size="12" lengthAdjust="spacing" textLength="120.5977" x="503.5" y="372.1387">SolicitudEliminacion</text></g><!--entity SolicitudesAbiertas--><g class="entity" data-qualified-name="SolicitudesAbiertas" data-source-line="7" id="ent0002"><rect fill="#CDEBA5" height="33.9688" rx="2.5" ry="2.5" style="stroke:#181818;stroke-width:0.5;" width="296.3223" x="7" y="38"/><text fill="#000000" font-family="sans-serif" font-size="12" lengthAdjust="spacing" textLength="276.3223" x="17" y="59.1387">SOLICITUDES_ELIMINACION_PERFIL_ABIERTAS</text></g><!--entity SolicitudAbierta--><g class="entity" data-qualified-name="SolicitudAbierta" data-source-line="8" id="ent0003"><rect fill="#CDEBA5" height="33.9688" rx="2.5" ry="2.5" style="stroke:#181818;stroke-width:0.5;" width="273.5059" x="1191" y="147"/><text fill="#000000" font-family="sans-serif" font-size="12" lengthAdjust="spacing" textLength="253.5059" x="1201" y="168.1387">SOLICITUD_ELIMINACION_PERFIL_ABIERTA</text></g><!--entity AbrirSolicitudes--><g class="entity" data-qualified-name="AbrirSolicitudes" data-source-line="18" id="ent0010"><rect fill="#CDEBA5" height="33.9688" rx="2.5" ry="2.5" style="stroke:#181818;stroke-width:0.5;" width="301.5371" x="1500" y="147"/><text fill="#000000" font-family="sans-serif" font-size="12" lengthAdjust="spacing" textLength="281.5371" x="1510" y="168.1387">:Collaboration AbrirSolicitudesEliminacionPerfil</text></g><!--link SolicitudesAbiertas to DetalleSolicitudView--><g class="link" data-entity-1="ent0002" data-entity-2="ent0005" data-link-type="dependency" data-source-line="20" id="lnk11"><path d="M303.02,55 C484.04,55 777.15,55 913.4,55" fill="none" id="SolicitudesAbiertas-to-DetalleSolicitudView" style="stroke:#181818;stroke-width:1;"/><polygon fill="#181818" points="919.4,55,910.4,51,914.4,55,910.4,59,919.4,55" style="stroke:#181818;stroke-width:1;"/><text fill="#000000" font-family="sans-serif" font-size="12" lengthAdjust="spacing" textLength="249.8555" x="486.75" y="49.1387">abrirSolicitudEliminacionPerfil(solicitudId)</text></g><!--link DetalleSolicitudView to PerfilController--><g class="link" data-entity-1="ent0005" data-entity-2="ent0006" data-link-type="dependency" data-source-line="22" id="lnk12"><path d="M919.2,64.49 C806.8,77.78 602,102 602,102 C602,102 602,117 602,117 C602,117 629.2271,130.9199 655.1771,144.1799" fill="none" id="DetalleSolicitudView-to-PerfilController" style="stroke:#181818;stroke-width:1;"/><polygon fill="#181818" points="660.52,146.91,654.3258,139.2529,656.0676,144.6349,650.6856,146.3767,660.52,146.91" style="stroke:#181818;stroke-width:1;"/><text fill="#000000" font-family="sans-serif" font-size="12" lengthAdjust="spacing" textLength="344.0977" x="603" y="114.1387">obtenerDetalleSolicitud(solicitudId) : SolicitudEliminacion</text></g><!--link DetalleSolicitudView to PerfilController--><g class="link" data-entity-1="ent0005" data-entity-2="ent0006" data-link-type="dependency" data-source-line="26" id="lnk15"><path d="M980.75,72.03 C969.2,90.1 952,117 952,117 C952,117 829.3683,138.6949 753.0483,152.1949" fill="none" id="DetalleSolicitudView-to-PerfilController-1" style="stroke:#181818;stroke-width:1;"/><polygon fill="#181818" points="747.14,153.24,756.6992,155.6112,752.0636,152.3691,755.3057,147.7335,747.14,153.24" style="stroke:#181818;stroke-width:1;"/><text fill="#000000" font-family="sans-serif" font-size="12" lengthAdjust="spacing" textLength="166.6992" x="962" y="114.1387">resolverSolicitud(aprobada)</text></g><!--link PerfilController to SolicitudEliminacionRepository--><g class="link" data-entity-1="ent0006" data-entity-2="ent0007" data-link-type="dependency" data-source-line="23" id="lnk13"><path d="M636.87,172.8 C544.14,185.93 367,211 367,211 C367,211 367,226 367,226 C367,226 432.6772,241.3354 489.5372,254.6154" fill="none" id="PerfilController-to-SolicitudEliminacionRepository" style="stroke:#181818;stroke-width:1;"/><polygon fill="#181818" points="495.38,255.98,487.5256,250.0379,490.511,254.8428,485.7061,257.8283,495.38,255.98" style="stroke:#181818;stroke-width:1;"/><text fill="#000000" font-family="sans-serif" font-size="12" lengthAdjust="spacing" textLength="280.5469" x="368" y="223.1387">obtenerPorId(solicitudId) : SolicitudEliminacion</text></g><!--link PerfilController to SolicitudEliminacionRepository--><g class="link" data-entity-1="ent0006" data-entity-2="ent0007" data-link-type="dependency" data-source-line="27" id="lnk16"><path d="M681.75,181.03 C670.2,199.1 653,226 653,226 C653,226 626.1204,239.8955 600.4604,253.1555" fill="none" id="PerfilController-to-SolicitudEliminacionRepository-1" style="stroke:#181818;stroke-width:1;"/><polygon fill="#181818" points="595.13,255.91,604.9619,255.3318,599.572,253.6146,601.2892,248.2247,595.13,255.91" style="stroke:#181818;stroke-width:1;"/><text fill="#000000" font-family="sans-serif" font-size="12" lengthAdjust="spacing" textLength="218.6426" x="663" y="223.1387">actualizarEstado(solicitudId, estado)</text></g><!--link SolicitudEliminacionRepository to SolicitudEliminacion--><g class="link" data-entity-1="ent0007" data-entity-2="ent0009" data-link-type="association" data-source-line="24" id="lnk14"><path d="M564,290.2 C564,307.27 564,333.99 564,350.99" fill="none" id="SolicitudEliminacionRepository-SolicitudEliminacion" style="stroke:#181818;stroke-width:1;"/></g><!--link PerfilController to UsuarioRepository--><g class="link" data-entity-1="ent0006" data-entity-2="ent0008" data-link-type="dependency" data-source-line="28" id="lnk17"><path d="M747.15,177.81 C805.74,191.42 890,211 890,211 C890,211 913.0626,233.6924 931.4326,251.7624" fill="none" id="PerfilController-to-UsuarioRepository" style="stroke:#181818;stroke-width:1;"/><polygon fill="#181818" points="935.71,255.97,932.0989,246.807,932.1455,252.4637,926.4888,252.5103,935.71,255.97" style="stroke:#181818;stroke-width:1;"/><text fill="#000000" font-family="sans-serif" font-size="12" lengthAdjust="spacing" textLength="205.5352" x="905" y="223.1387">eliminar(usuarioId) : (si aprobada)</text></g><!--link DetalleSolicitudView to AbrirSolicitudes--><g class="link" data-entity-1="ent0005" data-entity-2="ent0010" data-link-type="dependency" data-source-line="30" id="lnk18"><path d="M1062.57,67.6 C1180.96,86.8 1411.8573,124.2299 1546.1573,145.9999" fill="none" id="DetalleSolicitudView-to-AbrirSolicitudes" style="stroke:#181818;stroke-width:1;stroke-dasharray:7,7;"/><polygon fill="#181818" points="1552.08,146.96,1543.836,141.5714,1547.1444,146.1599,1542.5559,149.4684,1552.08,146.96" style="stroke:#181818;stroke-width:1;"/><text fill="#000000" font-family="sans-serif" font-size="12" lengthAdjust="spacing" textLength="202.2129" x="1361" y="114.1387">abrirSolicitudesEliminacionPerfil()</text></g><!--link DetalleSolicitudView to SolicitudAbierta--><g class="link" data-entity-1="ent0005" data-entity-2="ent0003" data-link-type="dependency" data-source-line="32" id="lnk19"><path d="M1042.06,72.09 C1084.17,85.35 1137,102 1137,102 C1137,102 1215.5143,127.0749 1272.1043,145.1449" fill="none" id="DetalleSolicitudView-to-SolicitudAbierta" style="stroke:#181818;stroke-width:1;stroke-dasharray:7,7;"/><polygon fill="#181818" points="1277.82,146.97,1270.4632,140.4219,1273.0569,145.4491,1268.0297,148.0428,1277.82,146.97" style="stroke:#181818;stroke-width:1;"/><text fill="#000000" font-family="sans-serif" font-size="12" lengthAdjust="spacing" textLength="62.4551" x="1184" y="114.1387">&#171;finalizar&#187;</text></g><?plantuml-src dPJTRjf048Nlzob6S6EaEb9H4pLMXEGO8rcY2S99Rz7O7iWg6w-rkouYLT-zZaaDs0iavOwTET_y7La_yxn0XI-GOFgyKhBCiq0AgM3zn0qntSJr4sPopVCLB57e_SYObbWACv6vsKeJKR7i2J5_9VWwt0iAdfFP50I559ktFumfIWtcAq7G3yRXhNy9lVX-6WNHm-CuZ1VXDFeHtVb1T7-tc8NpIJHT-BTHE7_munwWXbWAdd9JPgJzX9Cog4yYJm0FUUyqnefgFbmHz31HN3NnKF0NdcFAPJuZjUJ26TI0Crdmcq7rsxNO6vD18QYH_EIqhacs0FIlXjVXvBeDsSA3QkbALXfL0zgFq4yka-pgUrjiwtPEXTJSIBKvN8ir1VgJeHzy2zlWHrsYuhB5whmUazkA7kscWVonUight2emaGhDMx9_S2NIdJlLTTfPZ5di1gvoHzPZUUVCuEX_eIWRC6Ozk9jLzFObFP29ePnKMt901C-wATRnHLtZz8cRYZEfee-LEUCPrxNBFhK6HLKdlsYtOmSB9HFCSF2VOs9gIXJy5LMeJVKLt1_r2r3zTepTSRO7jAsYd78Rs-xBqHnsZTedlhWOTGpOTfJ5kCufNllhvi7DpRAIr_EEHdy1?></g></svg>