<?plantuml 1.2026.2?><svg xmlns="http://www.w3.org/2000/svg" xmlns:xlink="http://www.w3.org/1999/xlink" contentStyleType="text/css" data-diagram-type="DESCRIPTION" height="427px" preserveAspectRatio="none" style="width:901px;height:427px;background:#FFFFFF;" version="1.1" viewBox="0 0 901 427" width="901px" zoomAndPan="magnify"><defs/><g><!--cluster iniciarSesion--><g class="cluster" data-qualified-name="iniciarSesion" data-source-line="10" id="ent0004"><path d="M170,6 L268.8047,6 A3.75,3.75 0 0 1 271.3047,8.5 L278.3047,25.9688 L603,25.9688 A2.5,2.5 0 0 1 605.5,28.4688 L605.5,417.5 A2.5,2.5 0 0 1 603,420 L170,420 A2.5,2.5 0 0 1 167.5,417.5 L167.5,8.5 A2.5,2.5 0 0 1 170,6" fill="none" style="stroke:#000000;stroke-width:1.5;"/><line style="stroke:#000000;stroke-width:1.5;" x1="167.5" x2="278.3047" y1="25.9688" y2="25.9688"/><text fill="#000000" font-family="sans-serif" font-size="12" font-weight="bold" lengthAdjust="spacing" textLength="97.8047" x="171.5" y="19.1387">iniciarSesion()</text></g><!--entity LoginView--><g class="entity" data-qualified-name="iniciarSesion.LoginView" data-source-line="11" id="ent0005"><rect fill="#629EF9" height="33.9688" rx="2.5" ry="2.5" style="stroke:#181818;stroke-width:0.5;" width="81.3242" x="258" y="38"/><text fill="#000000" font-family="sans-serif" font-size="12" lengthAdjust="spacing" textLength="61.3242" x="268" y="59.1387">LoginView</text></g><!--entity IniciarSesionController--><g class="entity" data-qualified-name="iniciarSesion.IniciarSesionController" data-source-line="12" id="ent0006"><rect fill="#B5BD68" height="33.9688" rx="2.5" ry="2.5" style="stroke:#181818;stroke-width:0.5;" width="155.5215" x="205.5" y="147"/><text fill="#000000" font-family="sans-serif" font-size="12" lengthAdjust="spacing" textLength="135.5215" x="215.5" y="168.1387">IniciarSesionController</text></g><!--entity UsuarioRepository--><g class="entity" data-qualified-name="iniciarSesion.UsuarioRepository" data-source-line="13" id="ent0007"><rect fill="#F2AC4E" height="33.9688" rx="2.5" ry="2.5" style="stroke:#181818;stroke-width:0.5;" width="129.9512" x="245.5" y="275"/><text fill="#000000" font-family="sans-serif" font-size="12" lengthAdjust="spacing" textLength="109.9512" x="255.5" y="296.1387">UsuarioRepository</text></g><!--entity Usuario--><g class="entity" data-qualified-name="iniciarSesion.Usuario" data-source-line="14" id="ent0008"><rect fill="#F2AC4E" height="33.9688" rx="2.5" ry="2.5" style="stroke:#181818;stroke-width:0.5;" width="65.6035" x="191.5" y="370"/><text fill="#000000" font-family="sans-serif" font-size="12" lengthAdjust="spacing" textLength="45.6035" x="201.5" y="391.1387">Usuario</text></g><!--entity Sesion--><g class="entity" data-qualified-name="iniciarSesion.Sesion" data-source-line="15" id="ent0009"><rect fill="#F2AC4E" height="33.9688" rx="2.5" ry="2.5" style="stroke:#181818;stroke-width:0.5;" width="59.5332" x="183.5" y="211"/><text fill="#000000" font-family="sans-serif" font-size="12" lengthAdjust="spacing" textLength="39.5332" x="193.5" y="232.1387">Sesion</text></g><!--entity SesionCerrada--><g class="entity" data-qualified-name="SesionCerrada" data-source-line="7" id="ent0002"><rect fill="#CDEBA5" height="33.9688" rx="2.5" ry="2.5" style="stroke:#181818;stroke-width:0.5;" width="129.0723" x="7" y="38"/><text fill="#000000" font-family="sans-serif" font-size="12" lengthAdjust="spacing" textLength="109.0723" x="17" y="59.1387">SESION_CERRADA</text></g><!--entity PanelPrincipalAbierto--><g class="entity" data-qualified-name="PanelPrincipalAbierto" data-source-line="8" id="ent0003"><rect fill="#CDEBA5" height="33.9688" rx="2.5" ry="2.5" style="stroke:#181818;stroke-width:0.5;" width="273.3359" x="622" y="147"/><text fill="#000000" font-family="sans-serif" font-size="12" lengthAdjust="spacing" textLength="253.3359" x="632" y="168.1387">:Collaboration PANEL_PRINCIPAL_ABIERTO</text></g><!--link SesionCerrada to LoginView--><g class="link" data-entity-1="ent0002" data-entity-2="ent0005" data-link-type="dependency" data-source-line="18" id="lnk10"><path d="M136.25,55 C175.43,55 218.18,55 251.96,55" fill="none" id="SesionCerrada-to-LoginView" style="stroke:#181818;stroke-width:1;"/><polygon fill="#181818" points="257.96,55,248.96,51,252.96,55,248.96,59,257.96,55" style="stroke:#181818;stroke-width:1;"/><text fill="#000000" font-family="sans-serif" font-size="12" lengthAdjust="spacing" textLength="85.3887" x="154.5" y="49.1387">iniciarSesion()</text></g><!--link LoginView to IniciarSesionController--><g class="link" data-entity-1="ent0005" data-entity-2="ent0006" data-link-type="dependency" data-source-line="20" id="lnk11"><path d="M296.22,72.25 C293.39,92.48 289.402,120.868 286.582,141.008" fill="none" id="LoginView-to-IniciarSesionController" style="stroke:#181818;stroke-width:1;"/><polygon fill="#181818" points="285.75,146.95,290.9594,138.5916,286.4433,141.9983,283.0366,137.4823,285.75,146.95" style="stroke:#181818;stroke-width:1;"/><text fill="#000000" font-family="sans-serif" font-size="12" lengthAdjust="spacing" textLength="241.3301" x="292.5" y="114.1387">autenticar(usuario, contrase&#241;a) : Sesion</text></g><!--link IniciarSesionController to UsuarioRepository--><g class="link" data-entity-1="ent0006" data-entity-2="ent0007" data-link-type="dependency" data-source-line="22" id="lnk12"><path d="M286.97,181.21 C292.16,205.41 300.6022,244.8233 305.7822,268.9833" fill="none" id="IniciarSesionController-to-UsuarioRepository" style="stroke:#181818;stroke-width:1;"/><polygon fill="#181818" points="307.04,274.85,309.0644,265.2114,305.9918,269.9611,301.2421,266.8886,307.04,274.85" style="stroke:#181818;stroke-width:1;"/><text fill="#000000" font-family="sans-serif" font-size="12" lengthAdjust="spacing" textLength="304.4063" x="300.5" y="232.6387">validarCredenciales(usuario, contrase&#241;a) : Usuario</text></g><!--link UsuarioRepository to Usuario--><g class="link" data-entity-1="ent0007" data-entity-2="ent0008" data-link-type="association" data-source-line="23" id="lnk13"><path d="M295.52,309.2 C279.74,326.27 255.03,352.99 239.31,369.99" fill="none" id="UsuarioRepository-Usuario" style="stroke:#181818;stroke-width:1;"/></g><!--link IniciarSesionController to Sesion--><g class="link" data-entity-1="ent0006" data-entity-2="ent0009" data-link-type="dependency" data-source-line="25" id="lnk14"><path d="M265.11,181.29 C254.9,190.33 246.7339,197.5745 236.5039,206.6245" fill="none" id="IniciarSesionController-to-Sesion" style="stroke:#181818;stroke-width:1;"/><polygon fill="#181818" points="232.01,210.6,241.4012,207.6326,235.7549,207.2871,236.1005,201.6408,232.01,210.6" style="stroke:#181818;stroke-width:1;"/></g><!--link Sesion to Usuario--><g class="link" data-entity-1="ent0009" data-entity-2="ent0008" data-link-type="association" data-source-line="26" id="lnk15"><path d="M214.64,245.21 C216.74,275.3 221.24,339.45 223.35,369.64" fill="none" id="Sesion-Usuario" style="stroke:#181818;stroke-width:1;"/></g><!--link LoginView to PanelPrincipalAbierto--><g class="link" data-entity-1="ent0005" data-entity-2="ent0003" data-link-type="dependency" data-source-line="28" id="lnk16"><path d="M339.07,63.65 C408.45,76.73 542.5,102 542.5,102 C542.5,102 631.9757,127.2697 695.9757,145.3397" fill="none" id="LoginView-to-PanelPrincipalAbierto" style="stroke:#181818;stroke-width:1;stroke-dasharray:7,7;"/><polygon fill="#181818" points="701.75,146.97,694.1755,140.675,696.9381,145.6114,692.0017,148.374,701.75,146.97" style="stroke:#181818;stroke-width:1;"/><text fill="#000000" font-family="sans-serif" font-size="12" lengthAdjust="spacing" textLength="188.0625" x="595.5" y="114.1387">&#171;finalizar&#187; abrirPanelPrincipal()</text></g><?plantuml-src TLBRZjem47ttLupW1QIoKb5trOrMIDaGf4Y8HT3s5KsIWRNMjQEnKyHM_QX-GtzidK0XN9AdUEQSEMUERT-aBf3n9wIOlMtOb3gFZ38CsrVfIDXZtxvYRhPIRs2DoZOxOrfZgTp4QBUdfihFkWrOodU2pyD6KqbDRbSG54RjgeCGJ9b3lL44tMWSFuVtq5d6o-HbjehYnI8SXnr02qkoqkY8c377Mvp0kr6O6aRdWJ0FP_5qDLyaioYPXzDL-9p4YsylzQmvQb9pbZgJ1QembSJE257uFN13q95QPX9vBzdhrvop6lmMuB-JYyxKRAJ-8MbRWuydw3uC7-F9uoKyQKwBV5BipHFNv9OUTDFxD7_uUZdgkosHfLbGOQnqXdVraAigT2V3CFeIjz2Rf3Retb7ZDex0FqAStGyCU30wfH30HQ92d18Qv1xQidC0M3hIJcR8lNBlxXDaLHyj_VkBVGWENeHeowqMkCeZW5-eP8uSCUNaNm8gigqQ1xguZdKmE3RR7LHfxAi1F3rbJEXeD8Bgvtyc1-N6GeUCcmAdrExkHhUVSIMmbjhlzexiDJ1boUV8Nly3?></g></svg>