<?xml version="1.0" encoding="us-ascii" standalone="no"?><svg xmlns="http://www.w3.org/2000/svg" xmlns:xlink="http://www.w3.org/1999/xlink" contentStyleType="text/css" height="873px" preserveAspectRatio="none" style="width:1721px;height:873px;background:#FFFFFF;" version="1.1" viewBox="0 0 1721 873" width="1721px" zoomAndPan="magnify"><defs/><g><g id="in1"><rect fill="#F1F1F1" height="50" rx="12.5" ry="12.5" style="stroke:#181818;stroke-width:0.5;" width="166" x="745" y="7"/><line style="stroke:#181818;stroke-width:0.5;" x1="745" x2="911" y1="34.6094" y2="34.6094"/><text fill="#000000" font-family="sans-serif" font-size="14" lengthAdjust="spacing" textLength="146" x="755" y="26.5332">PROYECTO_ABIERTO</text></g><path d="M547.5,118 L1108.5,118 A12.5,12.5 0 0 1 1121,130.5 L1121,145.6094 L535,145.6094 L535,130.5 A12.5,12.5 0 0 1 547.5,118 " fill="#F1F1F1" style="stroke:#F1F1F1;stroke-width:1.0;"/><rect fill="none" height="602.6094" rx="12.5" ry="12.5" style="stroke:#181818;stroke-width:0.5;" width="586" x="535" y="118"/><line style="stroke:#181818;stroke-width:0.5;" x1="535" x2="1121" y1="145.6094" y2="145.6094"/><text fill="#000000" font-family="sans-serif" font-size="14" lengthAdjust="spacing" textLength="102" x="777" y="137.5332">editarProyecto()</text><g id="editarProyecto.EditandoDatos"><rect fill="#F1F1F1" height="50" rx="12.5" ry="12.5" style="stroke:#181818;stroke-width:0.5;" width="50" x="686" y="248.6094"/><line style="stroke:#181818;stroke-width:0.5;" x1="686" x2="736" y1="276.2188" y2="276.2188"/><text fill="#000000" font-family="sans-serif" font-size="14" lengthAdjust="spacing" textLength="4" x="709" y="268.1426">&#160;</text></g><g id="editarProyecto.GuardandoDatos"><rect fill="#F1F1F1" height="50" rx="12.5" ry="12.5" style="stroke:#181818;stroke-width:0.5;" width="50" x="686" y="566.6094"/><line style="stroke:#181818;stroke-width:0.5;" x1="686" x2="736" y1="594.2188" y2="594.2188"/><text fill="#000000" font-family="sans-serif" font-size="14" lengthAdjust="spacing" textLength="4" x="709" y="586.1426">&#160;</text></g><ellipse cx="711" cy="166.6094" fill="#222222" rx="10" ry="10" style="stroke:#222222;stroke-width:1.0;"/><ellipse cx="711" cy="699.6094" fill="none" rx="11" ry="11" style="stroke:#222222;stroke-width:1.0;"/><ellipse cx="711" cy="699.6094" fill="#222222" rx="6" ry="6" style="stroke:#222222;stroke-width:1.0;"/><!--link *start*editarProyecto to EditandoDatos--><g id="link_*start*editarProyecto_EditandoDatos"><path d="M711,176.9294 C711,192.7894 711,219.5194 711,242.2494 " fill="none" id="*start*editarProyecto-to-EditandoDatos" style="stroke:#008000;stroke-width:1.0;"/><polygon fill="#008000" points="711,248.2494,715,239.2494,711,243.2494,707,239.2494,711,248.2494" style="stroke:#008000;stroke-width:1.0;"/><path d="M716,199.6094 L716,225.6094 L951,225.6094 L951,209.6094 L941,199.6094 L716,199.6094 " fill="#FEFFDD" style="stroke:#181818;stroke-width:0.5;"/><path d="M941,199.6094 L941,209.6094 L951,209.6094 L941,199.6094 " fill="#FEFFDD" style="stroke:#181818;stroke-width:0.5;"/><text fill="#000000" font-family="sans-serif" font-size="13" font-weight="bold" lengthAdjust="spacing" textLength="79" x="722" y="218.1045">Coordinador</text><text fill="#000000" font-family="sans-serif" font-size="13" lengthAdjust="spacing" textLength="131" x="805" y="218.1045">solicita editar proyecto</text></g><!--link EditandoDatos to GuardandoDatos--><g id="link_EditandoDatos_GuardandoDatos"><path d="M685.94,280.9894 C639.78,292.7394 546,316.6094 546,316.6094 C546,316.6094 546,548.6094 546,548.6094 C546,548.6094 633.9654,570.9993 680.1254,582.7493 " fill="none" id="EditandoDatos-to-GuardandoDatos" style="stroke:#008000;stroke-width:1.0;"/><polygon fill="#008000" points="685.94,584.2294,678.2049,578.1328,681.0945,582.996,676.2314,585.8856,685.94,584.2294" style="stroke:#008000;stroke-width:1.0;"/><path d="M551,321.6094 L551,543.6094 L851,543.6094 L851,331.6094 L841,321.6094 L551,321.6094 " fill="#FEFFDD" style="stroke:#181818;stroke-width:0.5;"/><path d="M841,321.6094 L841,331.6094 L851,331.6094 L841,321.6094 " fill="#FEFFDD" style="stroke:#181818;stroke-width:0.5;"/><text fill="#000000" font-family="sans-serif" font-size="13" font-weight="bold" lengthAdjust="spacing" textLength="51" x="557" y="340.1045">Sistema</text><text fill="#000000" font-family="sans-serif" font-size="13" lengthAdjust="spacing" textLength="224" x="612" y="340.1045">presenta datos de edici&#243;n del proyecto</text><text fill="#000000" font-family="sans-serif" font-size="13" lengthAdjust="spacing" textLength="21" x="557" y="356.4561">&#8226; ID</text><text fill="#000000" font-family="sans-serif" font-size="13" lengthAdjust="spacing" textLength="40" x="557" y="372.8076">&#8226; T&#237;tulo</text><text fill="#000000" font-family="sans-serif" font-size="13" lengthAdjust="spacing" textLength="50" x="557" y="389.1592">&#8226; Estado</text><text fill="#000000" font-family="sans-serif" font-size="13" lengthAdjust="spacing" textLength="78" x="557" y="405.5107">&#8226; Coordinador</text><text fill="#000000" font-family="sans-serif" font-size="13" lengthAdjust="spacing" textLength="97" x="557" y="421.8623">&#8226; Fecha de inicio</text><text fill="#000000" font-family="sans-serif" font-size="13" lengthAdjust="spacing" textLength="80" x="557" y="438.2139">&#8226; Fecha de fin</text><text fill="#000000" font-family="sans-serif" font-size="13" lengthAdjust="spacing" textLength="77" x="557" y="454.5654">&#8226; Descripci&#243;n</text><text fill="#000000" font-family="sans-serif" font-size="13" lengthAdjust="spacing" textLength="4" x="557" y="470.917">&#160;</text><text fill="#000000" font-family="sans-serif" font-size="13" lengthAdjust="spacing" textLength="247" x="557" y="487.2686">y permite solicitar las siguientes acciones:</text><text fill="#000000" font-family="sans-serif" font-size="13" lengthAdjust="spacing" textLength="172" x="557" y="503.6201">&#8226; Modificar datos del proyecto</text><text fill="#000000" font-family="sans-serif" font-size="13" lengthAdjust="spacing" textLength="94" x="557" y="519.9717">&#8226; Guardar y salir</text><text fill="#000000" font-family="sans-serif" font-size="13" lengthAdjust="spacing" textLength="60" x="557" y="536.3232">&#8226; Cancelar</text></g><!--link GuardandoDatos to EditandoDatos--><g id="link_GuardandoDatos_EditandoDatos"><path d="M736.26,583.2894 C777.8,571.2594 856,548.6094 856,548.6094 C856,548.6094 856,316.6094 856,316.6094 C856,316.6094 783.5632,295.6284 742.0232,283.5984 " fill="none" id="GuardandoDatos-to-EditandoDatos" style="stroke:#008000;stroke-width:1.0;"/><polygon fill="#008000" points="736.26,281.9294,743.7921,288.275,741.0627,283.3202,746.0175,280.5908,736.26,281.9294" style="stroke:#008000;stroke-width:1.0;"/><path d="M861,419.6094 L861,445.6094 L1112,445.6094 L1112,429.6094 L1102,419.6094 L861,419.6094 " fill="#FEFFDD" style="stroke:#181818;stroke-width:0.5;"/><path d="M1102,419.6094 L1102,429.6094 L1112,429.6094 L1102,419.6094 " fill="#FEFFDD" style="stroke:#181818;stroke-width:0.5;"/><text fill="#000000" font-family="sans-serif" font-size="13" font-weight="bold" lengthAdjust="spacing" textLength="79" x="867" y="438.1045">Coordinador</text><text fill="#000000" font-family="sans-serif" font-size="13" lengthAdjust="spacing" textLength="147" x="950" y="438.1045">solicita modificar campos</text></g><!--link GuardandoDatos to *end*editarProyecto--><g id="link_GuardandoDatos_*end*editarProyecto"><path d="M685.74,600.7094 C647.67,612.9094 580,634.6094 580,634.6094 C580,634.6094 580,670.6094 580,670.6094 C580,670.6094 663.1226,688.3749 694.4126,695.0649 " fill="none" id="GuardandoDatos-to-*end*editarProyecto" style="stroke:#008000;stroke-width:1.0;"/><polygon fill="#008000" points="700.28,696.3194,692.3152,690.5261,695.3905,695.274,690.6426,698.3492,700.28,696.3194" style="stroke:#008000;stroke-width:1.0;"/><path d="M585,639.6094 L585,665.6094 L816,665.6094 L816,649.6094 L806,639.6094 L585,639.6094 " fill="#FEFFDD" style="stroke:#181818;stroke-width:0.5;"/><path d="M806,639.6094 L806,649.6094 L816,649.6094 L806,639.6094 " fill="#FEFFDD" style="stroke:#181818;stroke-width:0.5;"/><text fill="#000000" font-family="sans-serif" font-size="13" font-weight="bold" lengthAdjust="spacing" textLength="79" x="591" y="658.1045">Coordinador</text><text fill="#000000" font-family="sans-serif" font-size="13" lengthAdjust="spacing" textLength="127" x="674" y="658.1045">solicita guardar y salir</text></g><!--link GuardandoDatos to *end*editarProyecto--><g id="link_GuardandoDatos_*end*editarProyecto"><path d="M736.24,602.2494 C768.71,614.6494 821,634.6094 821,634.6094 C821,634.6094 821,670.6094 821,670.6094 C821,670.6094 754.8945,687.4388 727.3645,694.4488 " fill="none" id="GuardandoDatos-to-*end*editarProyecto-1" style="stroke:#FF0000;stroke-width:1.0;"/><polygon fill="#FF0000" points="721.55,695.9294,731.2587,697.5849,726.3954,694.6956,729.2847,689.8322,721.55,695.9294" style="stroke:#FF0000;stroke-width:1.0;"/><path d="M826,639.6094 L826,665.6094 L1069,665.6094 L1069,649.6094 L1059,639.6094 L826,639.6094 " fill="#FEFFDD" style="stroke:#181818;stroke-width:0.5;"/><path d="M1059,639.6094 L1059,649.6094 L1069,649.6094 L1059,639.6094 " fill="#FEFFDD" style="stroke:#181818;stroke-width:0.5;"/><text fill="#000000" font-family="sans-serif" font-size="13" font-weight="bold" lengthAdjust="spacing" textLength="79" x="832" y="658.1045">Coordinador</text><text fill="#000000" font-family="sans-serif" font-size="13" lengthAdjust="spacing" textLength="139" x="915" y="658.1045">solicita cancelar edici&#243;n</text></g><g id="PROYECTO_ABIERTO"><rect fill="#F1F1F1" height="50" rx="12.5" ry="12.5" style="stroke:#181818;stroke-width:0.5;" width="166" x="296" y="817"/><line style="stroke:#181818;stroke-width:0.5;" x1="296" x2="462" y1="844.6094" y2="844.6094"/><text fill="#000000" font-family="sans-serif" font-size="14" lengthAdjust="spacing" textLength="146" x="306" y="836.5332">PROYECTO_ABIERTO</text></g><g id="PROYECTOS_ABIERTOS"><rect fill="#F1F1F1" height="50" rx="12.5" ry="12.5" style="stroke:#181818;stroke-width:0.5;" width="184" x="888" y="817"/><line style="stroke:#181818;stroke-width:0.5;" x1="888" x2="1072" y1="844.6094" y2="844.6094"/><text fill="#000000" font-family="sans-serif" font-size="14" lengthAdjust="spacing" textLength="164" x="898" y="836.5332">PROYECTOS_ABIERTOS</text></g><g id="ENTREGABLES_ABIERTOS"><rect fill="#F1F1F1" height="50" rx="12.5" ry="12.5" style="stroke:#181818;stroke-width:0.5;" width="198" x="1214" y="817"/><line style="stroke:#181818;stroke-width:0.5;" x1="1214" x2="1412" y1="844.6094" y2="844.6094"/><text fill="#000000" font-family="sans-serif" font-size="14" lengthAdjust="spacing" textLength="178" x="1224" y="836.5332">ENTREGABLES_ABIERTOS</text></g><g id="INVESTIGADORES_ABIERTOS"><rect fill="#F1F1F1" height="50" rx="12.5" ry="12.5" style="stroke:#181818;stroke-width:0.5;" width="217" x="1497.5" y="817"/><line style="stroke:#181818;stroke-width:0.5;" x1="1497.5" x2="1714.5" y1="844.6094" y2="844.6094"/><text fill="#000000" font-family="sans-serif" font-size="14" lengthAdjust="spacing" textLength="197" x="1507.5" y="836.5332">INVESTIGADORES_ABIERTOS</text></g><!--link in1 to editarProyecto--><g id="link_in1_editarProyecto"><path d="M828,57.11 C828,72.11 828,87.2 828,111.73 " fill="none" id="in1-to-editarProyecto" style="stroke:#008000;stroke-width:1.0;"/><polygon fill="#008000" points="828,117.73,832,108.73,828,112.73,824,108.73,828,117.73" style="stroke:#008000;stroke-width:1.0;"/></g><!--link editarProyecto to PROYECTO_ABIERTO--><g id="link_editarProyecto_PROYECTO_ABIERTO"><path d="M534.72,538.42 C298.65,633.33 6,751 6,751 C6,751 6,787 6,787 C6,787 179.8819,812.1701 289.8219,828.0901 " fill="none" id="editarProyecto-to-PROYECTO_ABIERTO" style="stroke:#008000;stroke-width:1.0;"/><polygon fill="#008000" points="295.76,828.95,287.4261,823.7015,290.8116,828.2334,286.2797,831.6189,295.76,828.95" style="stroke:#008000;stroke-width:1.0;"/><path d="M11,756 L11,782 L154,782 L154,766 L144,756 L11,756 " fill="#FEFFDD" style="stroke:#181818;stroke-width:0.5;"/><path d="M144,756 L144,766 L154,766 L144,756 " fill="#FEFFDD" style="stroke:#181818;stroke-width:0.5;"/><text fill="#000000" font-family="sans-serif" font-size="13" lengthAdjust="spacing" textLength="122" x="17" y="774.4951">Proyecto actualizado</text></g><!--link editarProyecto to PROYECTO_ABIERTO--><g id="link_editarProyecto_PROYECTO_ABIERTO"><path d="M534.68,574.62 C370.7,660.78 199,751 199,751 C199,751 199,787 199,787 C199,787 244.993,800.7959 292.993,815.1959 " fill="none" id="editarProyecto-to-PROYECTO_ABIERTO-1" style="stroke:#FF0000;stroke-width:1.0;"/><polygon fill="#FF0000" points="298.74,816.92,291.269,810.5026,293.9509,815.4833,288.9702,818.1652,298.74,816.92" style="stroke:#FF0000;stroke-width:1.0;"/><path d="M204,756 L204,782 L331,782 L331,766 L321,756 L204,756 " fill="#FEFFDD" style="stroke:#181818;stroke-width:0.5;"/><path d="M321,756 L321,766 L331,766 L321,756 " fill="#FEFFDD" style="stroke:#181818;stroke-width:0.5;"/><text fill="#000000" font-family="sans-serif" font-size="13" lengthAdjust="spacing" textLength="106" x="210" y="774.4951">Edici&#243;n cancelada</text></g><!--link editarProyecto to PROYECTO_ABIERTO--><g id="link_editarProyecto_PROYECTO_ABIERTO"><path d="M534.72,634.94 C448.11,698.27 376,751 376,751 C376,751 376,787 376,787 C376,787 376.5265,796.4793 377.3265,810.8493 " fill="none" id="editarProyecto-to-PROYECTO_ABIERTO-2" style="stroke:#008000;stroke-width:1.0;"/><polygon fill="#008000" points="377.66,816.84,381.1535,807.6316,377.3821,811.8477,373.1659,808.0763,377.66,816.84" style="stroke:#008000;stroke-width:1.0;"/><path d="M381,756 L381,782 L494,782 L494,766 L484,756 L381,756 " fill="#FEFFDD" style="stroke:#181818;stroke-width:0.5;"/><path d="M484,756 L484,766 L494,766 L484,756 " fill="#FEFFDD" style="stroke:#181818;stroke-width:0.5;"/><text fill="#000000" font-family="sans-serif" font-size="13" lengthAdjust="spacing" textLength="92" x="387" y="774.4951">editarProyecto()</text></g><!--link editarProyecto to PROYECTO_ABIERTO--><g id="link_editarProyecto_PROYECTO_ABIERTO"><path d="M561.48,721.05 C526.78,760.18 503,787 503,787 C503,787 472.9916,800.0758 439.9716,814.4458 " fill="none" id="editarProyecto-to-PROYECTO_ABIERTO-3" style="stroke:#008000;stroke-width:1.0;"/><polygon fill="#008000" points="434.47,816.84,444.3186,816.9164,439.0547,814.8448,441.1262,809.5809,434.47,816.84" style="stroke:#008000;stroke-width:1.0;"/><path d="M536,756 L536,782 L676,782 L676,766 L666,756 L536,756 " fill="#FEFFDD" style="stroke:#181818;stroke-width:0.5;"/><path d="M666,756 L666,766 L676,766 L666,756 " fill="#FEFFDD" style="stroke:#181818;stroke-width:0.5;"/><text fill="#000000" font-family="sans-serif" font-size="13" lengthAdjust="spacing" textLength="119" x="542" y="774.4951">agregarInvestigador()</text></g><!--link editarProyecto to PROYECTO_ABIERTO--><g id="link_editarProyecto_PROYECTO_ABIERTO"><path d="M714.01,721.05 C699.17,760.18 689,787 689,787 C689,787 559.8109,809.5001 467.9809,825.5001 " fill="none" id="editarProyecto-to-PROYECTO_ABIERTO-4" style="stroke:#008000;stroke-width:1.0;"/><polygon fill="#008000" points="462.07,826.53,471.623,828.9258,466.9958,825.6718,470.2498,821.0445,462.07,826.53" style="stroke:#008000;stroke-width:1.0;"/><path d="M706,756 L706,782 L848,782 L848,766 L838,756 L706,756 " fill="#FEFFDD" style="stroke:#181818;stroke-width:0.5;"/><path d="M838,756 L838,766 L848,766 L838,756 " fill="#FEFFDD" style="stroke:#181818;stroke-width:0.5;"/><text fill="#000000" font-family="sans-serif" font-size="13" lengthAdjust="spacing" textLength="121" x="712" y="774.4951">eliminarInvestigador()</text></g><!--link editarProyecto to PROYECTOS_ABIERTOS--><g id="link_editarProyecto_PROYECTOS_ABIERTOS"><path d="M904.27,721.05 C914.19,760.18 921,787 921,787 C921,787 933.4727,798.4204 949.1827,812.7904 " fill="none" id="editarProyecto-to-PROYECTOS_ABIERTOS" style="stroke:#008000;stroke-width:1.0;"/><polygon fill="#008000" points="953.61,816.84,949.6689,807.8141,949.9206,813.4653,944.2694,813.7171,953.61,816.84" style="stroke:#008000;stroke-width:1.0;"/><path d="M926,756 L926,782 L1052,782 L1052,766 L1042,756 L926,756 " fill="#FEFFDD" style="stroke:#181818;stroke-width:0.5;"/><path d="M1042,756 L1042,766 L1052,766 L1042,756 " fill="#FEFFDD" style="stroke:#181818;stroke-width:0.5;"/><text fill="#000000" font-family="sans-serif" font-size="13" lengthAdjust="spacing" textLength="105" x="932" y="774.4951">eliminarProyecto()</text></g><!--link editarProyecto to PROYECTOS_ABIERTOS--><g id="link_editarProyecto_PROYECTOS_ABIERTOS"><path d="M1039.91,721.09 C1052.98,739.62 1061,751 1061,751 C1061,751 1061,787 1061,787 C1061,787 1042.7927,799.1423 1021.2327,813.5123 " fill="none" id="editarProyecto-to-PROYECTOS_ABIERTOS-1" style="stroke:#008000;stroke-width:1.0;"/><polygon fill="#008000" points="1016.24,816.84,1025.9474,815.1769,1020.4005,814.0669,1021.5105,808.5201,1016.24,816.84" style="stroke:#008000;stroke-width:1.0;"/><path d="M1066,756 L1066,782 L1179,782 L1179,766 L1169,756 L1066,756 " fill="#FEFFDD" style="stroke:#181818;stroke-width:0.5;"/><path d="M1169,756 L1169,766 L1179,766 L1169,756 " fill="#FEFFDD" style="stroke:#181818;stroke-width:0.5;"/><text fill="#000000" font-family="sans-serif" font-size="13" lengthAdjust="spacing" textLength="92" x="1072" y="774.4951">abrirProyectos()</text></g><!--link editarProyecto to ENTREGABLES_ABIERTOS--><g id="link_editarProyecto_ENTREGABLES_ABIERTOS"><path d="M1121.32,674.81 C1188.94,733.44 1246.5163,783.3599 1280.7663,813.0499 " fill="none" id="editarProyecto-to-ENTREGABLES_ABIERTOS" style="stroke:#008000;stroke-width:1.0;"/><polygon fill="#008000" points="1285.3,816.98,1281.1195,808.0624,1281.5219,813.7049,1275.8794,814.1073,1285.3,816.98" style="stroke:#008000;stroke-width:1.0;"/><path d="M1248,756 L1248,782 L1371,782 L1371,766 L1361,756 L1248,756 " fill="#FEFFDD" style="stroke:#181818;stroke-width:0.5;"/><path d="M1361,756 L1361,766 L1371,766 L1361,756 " fill="#FEFFDD" style="stroke:#181818;stroke-width:0.5;"/><text fill="#000000" font-family="sans-serif" font-size="13" lengthAdjust="spacing" textLength="102" x="1254" y="774.4951">abrirEntregables()</text></g><!--link editarProyecto to ENTREGABLES_ABIERTOS--><g id="link_editarProyecto_ENTREGABLES_ABIERTOS"><path d="M1121.06,594.7 C1254.86,674.24 1384,751 1384,751 C1384,751 1384,787 1384,787 C1384,787 1368.4472,798.8398 1349.5372,813.2098 " fill="none" id="editarProyecto-to-ENTREGABLES_ABIERTOS-1" style="stroke:#008000;stroke-width:1.0;"/><polygon fill="#008000" points="1344.76,816.84,1354.3459,814.5794,1348.741,813.8148,1349.5056,808.2099,1344.76,816.84" style="stroke:#008000;stroke-width:1.0;"/><path d="M1389,756 L1389,782 L1509,782 L1509,766 L1499,756 L1389,756 " fill="#FEFFDD" style="stroke:#181818;stroke-width:0.5;"/><path d="M1499,756 L1499,766 L1509,766 L1499,756 " fill="#FEFFDD" style="stroke:#181818;stroke-width:0.5;"/><text fill="#000000" font-family="sans-serif" font-size="13" lengthAdjust="spacing" textLength="99" x="1395" y="774.4951">crearEntregable()</text></g><!--link editarProyecto to INVESTIGADORES_ABIERTOS--><g id="link_editarProyecto_INVESTIGADORES_ABIERTOS"><path d="M1121.06,560.06 C1310.53,650.29 1522,751 1522,751 C1522,751 1554.5163,785.8334 1579.3963,812.4934 " fill="none" id="editarProyecto-to-INVESTIGADORES_ABIERTOS" style="stroke:#008000;stroke-width:1.0;"/><polygon fill="#008000" points="1583.49,816.88,1580.2739,807.5711,1580.0786,813.2245,1574.4251,813.0293,1583.49,816.88" style="stroke:#008000;stroke-width:1.0;"/><path d="M1559,756 L1559,782 L1695,782 L1695,766 L1685,756 L1559,756 " fill="#FEFFDD" style="stroke:#181818;stroke-width:0.5;"/><path d="M1685,756 L1685,766 L1695,766 L1685,756 " fill="#FEFFDD" style="stroke:#181818;stroke-width:0.5;"/><text fill="#000000" font-family="sans-serif" font-size="13" lengthAdjust="spacing" textLength="115" x="1565" y="774.4951">abrirInvestigadores()</text></g><!--SRC=[hPJVQjim5CRl_HGYlTa6fUnsb42QQ26mDIKnWr7AE95ElKDjoKZA81k3FSlkTxL7w9liIIOx_XCvQPg693UsTFJxlkz8idqWbOE1ZAMaqAroPBbELyLB55a73XcfjmmiwztCff_vC9v-6LnD-2oUzg9YvlpsB368wkwypr2I0tDZz0g5q_NwSBH4XKElNlVOZoXY_hTUqVD_NyQBAYNr29osszFZ9HZPpfS5js_k0aVR2AKzGQiYxaCvSBde3xKsaXH8RIul5drcTKh2BwoiixnELDIZaYLaBHW81D8TUqzfpyawpA3KpGrQL5vNbZHPzaxGur_bdzFGnhzVlzbar3p6Zt_SCcsdk6-LR5yt4ZPZxr5yXKA4b1VHs-Ftf9h14LfXA2_Dh9ElM8uc8v-eRfTXgTyMIycIV0gq38JdAhJl6in7BUcUX2-j8-w8jUwSyGeMKceD3q49JC7is8QmsQSy0bdZM42MLuI3nVrvVBbaiYF_Sue6vT5wekfhSzf2nPzHrBd2cmcxNuKea6vllN1B7-PxSIZRBDlSAiT-AgzlHULSmbxcWLwx7wMNCUSrTDwXffJvfX_DtUqLV5q2PgA-eNMK57jw6d1jznWoluvdV3ou-i2VQWOi31ckN65-aQ8z7LaOX0toeU39zIS-ZoVZmMWws-zwio676t_kT9JeUcL0_Gy0]--></g></svg>