<?plantuml 1.2026.2?><svg xmlns="http://www.w3.org/2000/svg" xmlns:xlink="http://www.w3.org/1999/xlink" contentStyleType="text/css" data-diagram-type="DESCRIPTION" height="313px" preserveAspectRatio="none" style="width:1036px;height:313px;background:#FFFFFF;" version="1.1" viewBox="0 0 1036 313" width="1036px" zoomAndPan="magnify"><defs/><g><!--cluster editarPerfil--><g class="cluster" data-qualified-name="editarPerfil" data-source-line="9" id="ent0003"><path d="M8.5,6 L97.3613,6 A3.75,3.75 0 0 1 99.8613,8.5 L106.8613,25.9688 L696.5,25.9688 A2.5,2.5 0 0 1 699,28.4688 L699,303.5 A2.5,2.5 0 0 1 696.5,306 L8.5,306 A2.5,2.5 0 0 1 6,303.5 L6,8.5 A2.5,2.5 0 0 1 8.5,6" fill="none" style="stroke:#000000;stroke-width:1.5;"/><line style="stroke:#000000;stroke-width:1.5;" x1="6" x2="106.8613" y1="25.9688" y2="25.9688"/><text fill="#000000" font-family="sans-serif" font-size="12" font-weight="bold" lengthAdjust="spacing" textLength="87.8613" x="10" y="19.1387">editarPerfil()</text></g><!--entity EditarPerfilView--><g class="entity" data-qualified-name="editarPerfil.EditarPerfilView" data-source-line="10" id="ent0004"><rect fill="#629EF9" height="33.9688" rx="2.5" ry="2.5" style="stroke:#181818;stroke-width:0.5;" width="114.7109" x="567.5" y="38"/><text fill="#000000" font-family="sans-serif" font-size="12" lengthAdjust="spacing" textLength="94.7109" x="577.5" y="59.1387">EditarPerfilView</text></g><!--entity EditarPerfilController--><g class="entity" data-qualified-name="editarPerfil.EditarPerfilController" data-source-line="11" id="ent0005"><rect fill="#B5BD68" height="33.9688" rx="2.5" ry="2.5" style="stroke:#181818;stroke-width:0.5;" width="145.2617" x="225.5" y="147"/><text fill="#000000" font-family="sans-serif" font-size="12" lengthAdjust="spacing" textLength="125.2617" x="235.5" y="168.1387">EditarPerfilController</text></g><!--entity UsuarioRepository--><g class="entity" data-qualified-name="editarPerfil.UsuarioRepository" data-source-line="12" id="ent0006"><rect fill="#F2AC4E" height="33.9688" rx="2.5" ry="2.5" style="stroke:#181818;stroke-width:0.5;" width="129.9512" x="128" y="256"/><text fill="#000000" font-family="sans-serif" font-size="12" lengthAdjust="spacing" textLength="109.9512" x="138" y="277.1387">UsuarioRepository</text></g><!--entity Sesion--><g class="entity" data-qualified-name="editarPerfil.Sesion" data-source-line="13" id="ent0007"><rect fill="#F2AC4E" height="33.9688" rx="2.5" ry="2.5" style="stroke:#181818;stroke-width:0.5;" width="59.5332" x="482" y="256"/><text fill="#000000" font-family="sans-serif" font-size="12" lengthAdjust="spacing" textLength="39.5332" x="492" y="277.1387">Sesion</text></g><!--entity OpcionesPerfilAbierto--><g class="entity" data-qualified-name="OpcionesPerfilAbierto" data-source-line="7" id="ent0002"><rect fill="#CDEBA5" height="33.9688" rx="2.5" ry="2.5" style="stroke:#181818;stroke-width:0.5;" width="187.1797" x="714.5" y="147"/><text fill="#000000" font-family="sans-serif" font-size="12" lengthAdjust="spacing" textLength="167.1797" x="724.5" y="168.1387">OPCIONES_PERFIL_ABIERTO</text></g><!--link OpcionesPerfilAbierto to EditarPerfilView--><g class="link" data-entity-1="ent0002" data-entity-2="ent0004" data-link-type="dependency" data-source-line="16" id="lnk8"><path d="M754.49,146.91 C710.37,133.65 655,117 655,117 C655,117 644.4187,95.4837 635.5287,77.4137" fill="none" id="OpcionesPerfilAbierto-to-EditarPerfilView" style="stroke:#181818;stroke-width:1;"/><polygon fill="#181818" points="632.88,72.03,633.2638,81.8714,635.0872,76.5164,640.4422,78.3398,632.88,72.03" style="stroke:#181818;stroke-width:1;"/><text fill="#000000" font-family="sans-serif" font-size="12" lengthAdjust="spacing" textLength="75.1348" x="656" y="114.1387">editarPerfil()</text></g><!--link EditarPerfilView to OpcionesPerfilAbierto--><g class="link" data-entity-1="ent0004" data-entity-2="ent0002" data-link-type="dependency" data-source-line="25" id="lnk14"><path d="M663.82,72.09 C695.83,85.35 736,102 736,102 C736,102 763.172,125.0217 784.502,143.0917" fill="none" id="EditarPerfilView-to-OpcionesPerfilAbierto" style="stroke:#181818;stroke-width:1;stroke-dasharray:7,7;"/><polygon fill="#181818" points="789.08,146.97,784.7985,138.1005,785.265,143.738,779.6274,144.2045,789.08,146.97" style="stroke:#181818;stroke-width:1;"/><text fill="#000000" font-family="sans-serif" font-size="12" lengthAdjust="spacing" textLength="133.6465" x="755" y="114.1387">&#171;finalizar&#187; confirmar()</text></g><!--link EditarPerfilView to OpcionesPerfilAbierto--><g class="link" data-entity-1="ent0004" data-entity-2="ent0002" data-link-type="dependency" data-source-line="26" id="lnk15"><path d="M682.68,65.76 C762.53,79.26 897,102 897,102 C897,102 897,117 897,117 C897,117 870.1204,130.8955 844.4604,144.1555" fill="none" id="EditarPerfilView-to-OpcionesPerfilAbierto-1" style="stroke:#181818;stroke-width:1;stroke-dasharray:7,7;"/><polygon fill="#181818" points="839.13,146.91,848.9619,146.3318,843.572,144.6146,845.2892,139.2247,839.13,146.91" style="stroke:#181818;stroke-width:1;"/><text fill="#000000" font-family="sans-serif" font-size="12" lengthAdjust="spacing" textLength="130.1777" x="898" y="114.1387">&#171;cancelar&#187; cancelar()</text></g><!--link EditarPerfilView to EditarPerfilController--><g class="link" data-entity-1="ent0004" data-entity-2="ent0005" data-link-type="dependency" data-source-line="18" id="lnk9"><path d="M567.37,62.11 C449.31,74.62 191,102 191,102 C191,102 191,117 191,117 C191,117 224.2073,131.2813 255.0673,144.5413" fill="none" id="EditarPerfilView-to-EditarPerfilController" style="stroke:#181818;stroke-width:1;"/><polygon fill="#181818" points="260.58,146.91,253.8902,139.6819,255.9861,144.9361,250.7319,147.0321,260.58,146.91" style="stroke:#181818;stroke-width:1;"/><text fill="#000000" font-family="sans-serif" font-size="12" lengthAdjust="spacing" textLength="134.4844" x="192" y="114.1387">cargarDatosActuales()</text></g><!--link EditarPerfilView to EditarPerfilController--><g class="link" data-entity-1="ent0004" data-entity-2="ent0005" data-link-type="dependency" data-source-line="22" id="lnk12"><path d="M567.4,67.37 C498.41,80.99 392,102 392,102 C392,102 355.5833,125.6342 327.7333,143.7042" fill="none" id="EditarPerfilView-to-EditarPerfilController-1" style="stroke:#181818;stroke-width:1;"/><polygon fill="#181818" points="322.7,146.97,332.4272,145.4269,326.8945,144.2485,328.0728,138.7157,322.7,146.97" style="stroke:#181818;stroke-width:1;"/><text fill="#000000" font-family="sans-serif" font-size="12" lengthAdjust="spacing" textLength="246.3223" x="393" y="114.1387">guardarCambios(datosNuevos) : boolean</text></g><!--link EditarPerfilController to Sesion--><g class="link" data-entity-1="ent0005" data-entity-2="ent0007" data-link-type="dependency" data-source-line="19" id="lnk10"><path d="M351.51,181.09 C395.63,194.35 451,211 451,211 C451,211 473.6574,233.6574 491.7274,251.7274" fill="none" id="EditarPerfilController-to-Sesion" style="stroke:#181818;stroke-width:1;"/><polygon fill="#181818" points="495.97,255.97,492.4345,246.7776,492.4345,252.4345,486.7776,252.4345,495.97,255.97" style="stroke:#181818;stroke-width:1;"/><text fill="#000000" font-family="sans-serif" font-size="12" lengthAdjust="spacing" textLength="169.752" x="467" y="223.1387">getUsuarioActual() : Usuario</text></g><!--link EditarPerfilController to UsuarioRepository--><g class="link" data-entity-1="ent0005" data-entity-2="ent0006" data-link-type="dependency" data-source-line="20" id="lnk11"><path d="M225.45,178.68 C153.53,192.24 54,211 54,211 C54,211 54,226 54,226 C54,226 98.6037,240.7654 138.6837,254.0254" fill="none" id="EditarPerfilController-to-UsuarioRepository" style="stroke:#181818;stroke-width:1;"/><polygon fill="#181818" points="144.38,255.91,137.0919,249.2856,139.633,254.3395,134.5791,256.8807,144.38,255.91" style="stroke:#181818;stroke-width:1;"/><text fill="#000000" font-family="sans-serif" font-size="12" lengthAdjust="spacing" textLength="199.8574" x="55" y="223.1387">obtenerPorId(usuarioId) : Usuario</text></g><!--link EditarPerfilController to UsuarioRepository--><g class="link" data-entity-1="ent0005" data-entity-2="ent0006" data-link-type="dependency" data-source-line="23" id="lnk13"><path d="M287.75,181.03 C276.2,199.1 259,226 259,226 C259,226 240.0436,239.221 221.0036,252.481" fill="none" id="EditarPerfilController-to-UsuarioRepository-1" style="stroke:#181818;stroke-width:1;"/><polygon fill="#181818" points="216.08,255.91,225.7514,254.049,220.183,253.0525,221.1795,247.4841,216.08,255.91" style="stroke:#181818;stroke-width:1;"/><text fill="#000000" font-family="sans-serif" font-size="12" lengthAdjust="spacing" textLength="172.3066" x="270" y="223.1387">actualizar(usuario) : boolean</text></g><?plantuml-src bP9HQwD058NVvrTSaXVpaCA6RMcb1Amn82nDIBhxMgvwjKCdSsLct92M_lSQRHitPWlnQRndpkSz1-spr2KQt422wNDXkD9Po8eDR9-a8s6_TFk46M-bBY17PRlAZ7Aib9kpTgqrKJNhz8MrV27uCUc8IcfokvAWPBNRlmXXA7Me2qKm36VHNN09WyKoZ1VtqVfn6QtcyQ_7u2wELW-B0Q25HPbArcINP7AfWaIISIn4MI-11S60CkdGjAetQYpT4RmAg9_3HmTHH_qZQTjOZeSml9hSHFERxynXdTYmKcHwY8C4m-GooQwkZq6_ROL6yefAjjAnsJMCtXI6yqaG_eoExMkoTIkDfpr-NNmJucHbC3RZQI-d3__s9qIlYN5sv3k4yo55Kw2PeMCRfAv2HRQ6_AUAXjIkwqD1xYDjQ_H6u7_c_nRGwyW7JXnfCaisSUPLhHvdNU2PiOhQbQ49SPD8jbwsptTVqL-sUsZ2h0ZrkLjYarE-eFdSiGlhRtXnCJtzz_jmUvjBtRAcKqXPvz9iQkxeJ4gAEYNLGZwEtkWT?></g></svg>