<?xml version="1.0" encoding="us-ascii" standalone="no"?><svg xmlns="http://www.w3.org/2000/svg" xmlns:xlink="http://www.w3.org/1999/xlink" contentStyleType="text/css" height="980px" preserveAspectRatio="none" style="width:946px;height:980px;background:#FFFFFF;" version="1.1" viewBox="0 0 946 980" width="946px" zoomAndPan="magnify"><defs/><g><g id="in1"><rect fill="#F1F1F1" height="50" rx="12.5" ry="12.5" style="stroke:#181818;stroke-width:0.5;" width="198" x="371" y="7"/><line style="stroke:#181818;stroke-width:0.5;" x1="371" x2="569" y1="34.6094" y2="34.6094"/><text fill="#000000" font-family="sans-serif" font-size="14" lengthAdjust="spacing" textLength="178" x="381" y="26.5332">ENTREGABLES_ABIERTOS</text></g><path d="M19.5,118 L920.5,118 A12.5,12.5 0 0 1 933,130.5 L933,145.6094 L7,145.6094 L7,130.5 A12.5,12.5 0 0 1 19.5,118 " fill="#F1F1F1" style="stroke:#F1F1F1;stroke-width:1.0;"/><rect fill="none" height="709.6094" rx="12.5" ry="12.5" style="stroke:#181818;stroke-width:0.5;" width="926" x="7" y="118"/><line style="stroke:#181818;stroke-width:0.5;" x1="7" x2="933" y1="145.6094" y2="145.6094"/><text fill="#000000" font-family="sans-serif" font-size="14" lengthAdjust="spacing" textLength="112" x="414" y="137.5332">crearEntregable()</text><g id="crearEntregable.SolicitandoDatos"><rect fill="#F1F1F1" height="50" rx="12.5" ry="12.5" style="stroke:#181818;stroke-width:0.5;" width="50" x="280" y="248.6094"/><line style="stroke:#181818;stroke-width:0.5;" x1="280" x2="330" y1="276.2188" y2="276.2188"/><text fill="#000000" font-family="sans-serif" font-size="14" lengthAdjust="spacing" textLength="4" x="303" y="268.1426">&#160;</text></g><g id="crearEntregable.RegistrandoEntregable"><rect fill="#F1F1F1" height="50" rx="12.5" ry="12.5" style="stroke:#181818;stroke-width:0.5;" width="50" x="280" y="533.6094"/><line style="stroke:#181818;stroke-width:0.5;" x1="280" x2="330" y1="561.2188" y2="561.2188"/><text fill="#000000" font-family="sans-serif" font-size="14" lengthAdjust="spacing" textLength="4" x="303" y="553.1426">&#160;</text></g><g id="crearEntregable.ValidandoDatos"><rect fill="#F1F1F1" height="50" rx="12.5" ry="12.5" style="stroke:#181818;stroke-width:0.5;" width="50" x="228" y="672.6094"/><line style="stroke:#181818;stroke-width:0.5;" x1="228" x2="278" y1="700.2188" y2="700.2188"/><text fill="#000000" font-family="sans-serif" font-size="14" lengthAdjust="spacing" textLength="4" x="251" y="692.1426">&#160;</text></g><ellipse cx="305" cy="166.6094" fill="#222222" rx="10" ry="10" style="stroke:#222222;stroke-width:1.0;"/><ellipse cx="421" cy="806.6094" fill="none" rx="11" ry="11" style="stroke:#222222;stroke-width:1.0;"/><ellipse cx="421" cy="806.6094" fill="#222222" rx="6" ry="6" style="stroke:#222222;stroke-width:1.0;"/><!--link *start*crearEntregable to SolicitandoDatos--><g id="link_*start*crearEntregable_SolicitandoDatos"><path d="M305,176.9294 C305,192.7894 305,219.5194 305,242.2494 " fill="none" id="*start*crearEntregable-to-SolicitandoDatos" style="stroke:#008000;stroke-width:1.0;"/><polygon fill="#008000" points="305,248.2494,309,239.2494,305,243.2494,301,239.2494,305,248.2494" style="stroke:#008000;stroke-width:1.0;"/><path d="M310,199.6094 L310,225.6094 L569,225.6094 L569,209.6094 L559,199.6094 L310,199.6094 " fill="#FEFFDD" style="stroke:#181818;stroke-width:0.5;"/><path d="M559,199.6094 L559,209.6094 L569,209.6094 L559,199.6094 " fill="#FEFFDD" style="stroke:#181818;stroke-width:0.5;"/><text fill="#000000" font-family="sans-serif" font-size="13" font-weight="bold" lengthAdjust="spacing" textLength="78" x="316" y="218.1045">Investigador</text><text fill="#000000" font-family="sans-serif" font-size="13" lengthAdjust="spacing" textLength="156" x="398" y="218.1045">solicita crear un entregable</text></g><!--link SolicitandoDatos to RegistrandoEntregable--><g id="link_SolicitandoDatos_RegistrandoEntregable"><path d="M305,298.7394 C305,352.2094 305,474.1294 305,527.5394 " fill="none" id="SolicitandoDatos-to-RegistrandoEntregable" style="stroke:#008000;stroke-width:1.0;"/><polygon fill="#008000" points="305,533.5394,309,524.5394,305,528.5394,301,524.5394,305,533.5394" style="stroke:#008000;stroke-width:1.0;"/><path d="M310,321.6094 L310,510.6094 L731,510.6094 L731,331.6094 L721,321.6094 L310,321.6094 " fill="#FEFFDD" style="stroke:#181818;stroke-width:0.5;"/><path d="M721,321.6094 L721,331.6094 L731,331.6094 L721,321.6094 " fill="#FEFFDD" style="stroke:#181818;stroke-width:0.5;"/><text fill="#000000" font-family="sans-serif" font-size="13" font-weight="bold" lengthAdjust="spacing" textLength="51" x="316" y="340.1045">Sistema</text><text fill="#000000" font-family="sans-serif" font-size="13" lengthAdjust="spacing" textLength="345" x="371" y="340.1045">muestra y permite introducir los datos del nuevo entregable:</text><text fill="#000000" font-family="sans-serif" font-size="13" lengthAdjust="spacing" textLength="40" x="316" y="356.4561">&#8226; T&#237;tulo</text><text fill="#000000" font-family="sans-serif" font-size="13" lengthAdjust="spacing" textLength="262" x="316" y="372.8076">&#8226; Tipo (informe / dataset / presentaci&#243;n / otro)</text><text fill="#000000" font-family="sans-serif" font-size="13" lengthAdjust="spacing" textLength="80" x="316" y="389.1592">&#8226; Fecha l&#237;mite</text><text fill="#000000" font-family="sans-serif" font-size="13" lengthAdjust="spacing" textLength="286" x="316" y="405.5107">&#8226; Estado inicial (pendiente / en curso / entregado)</text><text fill="#000000" font-family="sans-serif" font-size="13" lengthAdjust="spacing" textLength="137" x="316" y="421.8623">&#8226; Descripci&#243;n (opcional)</text><text fill="#000000" font-family="sans-serif" font-size="13" lengthAdjust="spacing" textLength="157" x="316" y="438.2139">&#8226; Archivo adjunto (opcional)</text><text fill="#000000" font-family="sans-serif" font-size="13" lengthAdjust="spacing" textLength="4" x="316" y="454.5654">&#160;</text><text fill="#000000" font-family="sans-serif" font-size="13" font-weight="bold" lengthAdjust="spacing" textLength="51" x="316" y="470.917">Sistema</text><text fill="#000000" font-family="sans-serif" font-size="13" lengthAdjust="spacing" textLength="96" x="371" y="470.917">permite solicitar:</text><text fill="#000000" font-family="sans-serif" font-size="13" lengthAdjust="spacing" textLength="104" x="316" y="487.2686">&#8226; Crear entregable</text><text fill="#000000" font-family="sans-serif" font-size="13" lengthAdjust="spacing" textLength="126" x="316" y="503.6201">&#8226; Volver a entregables</text></g><!--link RegistrandoEntregable to ValidandoDatos--><g id="link_RegistrandoEntregable_ValidandoDatos"><path d="M279.78,563.2994 C209.75,573.5494 18,601.6094 18,601.6094 C18,601.6094 18,653.6094 18,653.6094 C18,653.6094 161.328,679.8396 221.948,690.9296 " fill="none" id="RegistrandoEntregable-to-ValidandoDatos" style="stroke:#008000;stroke-width:1.0;"/><polygon fill="#008000" points="227.85,692.0094,219.7168,686.4551,222.9316,691.1096,218.2771,694.3245,227.85,692.0094" style="stroke:#008000;stroke-width:1.0;"/><path d="M23,614.6094 L23,640.6094 L278,640.6094 L278,624.6094 L268,614.6094 L23,614.6094 " fill="#FEFFDD" style="stroke:#181818;stroke-width:0.5;"/><path d="M268,614.6094 L268,624.6094 L278,624.6094 L268,614.6094 " fill="#FEFFDD" style="stroke:#181818;stroke-width:0.5;"/><text fill="#000000" font-family="sans-serif" font-size="13" font-weight="bold" lengthAdjust="spacing" textLength="78" x="29" y="633.1045">Investigador</text><text fill="#000000" font-family="sans-serif" font-size="13" lengthAdjust="spacing" textLength="152" x="111" y="633.1045">solicita crear el entregable</text></g><!--link ValidandoDatos to *end*crearEntregable--><g id="link_ValidandoDatos_*end*crearEntregable"><path d="M253.31,722.7394 C253.6,745.9694 254,777.6094 254,777.6094 C254,777.6094 367.5226,796.6473 404.3826,802.8273 " fill="none" id="ValidandoDatos-to-*end*crearEntregable" style="stroke:#008000;stroke-width:1.0;"/><polygon fill="#008000" points="410.3,803.8194,402.0853,798.3863,405.3688,802.9926,400.7625,806.2761,410.3,803.8194" style="stroke:#008000;stroke-width:1.0;"/><path d="M259,746.6094 L259,772.6094 L570,772.6094 L570,756.6094 L560,746.6094 L259,746.6094 " fill="#FEFFDD" style="stroke:#181818;stroke-width:0.5;"/><path d="M560,746.6094 L560,756.6094 L570,756.6094 L560,746.6094 " fill="#FEFFDD" style="stroke:#181818;stroke-width:0.5;"/><text fill="#000000" font-family="sans-serif" font-size="13" font-weight="bold" lengthAdjust="spacing" textLength="51" x="265" y="765.1045">Sistema</text><text fill="#000000" font-family="sans-serif" font-size="13" lengthAdjust="spacing" textLength="235" x="320" y="765.1045">presenta y visualiza el entregable creado</text></g><!--link ValidandoDatos to RegistrandoEntregable--><g id="link_ValidandoDatos_RegistrandoEntregable"><path d="M269.75,672.5994 C276.63,662.7494 283,653.6094 283,653.6094 C283,653.6094 291.4543,617.5119 297.9643,589.6619 " fill="none" id="ValidandoDatos-to-RegistrandoEntregable" style="stroke:#FF0000;stroke-width:1.0;"/><polygon fill="#FF0000" points="299.33,583.8194,293.3864,591.6727,298.1919,588.6881,301.1765,593.4936,299.33,583.8194" style="stroke:#FF0000;stroke-width:1.0;"/><path d="M300,606.6094 L300,648.6094 L559,648.6094 L559,616.6094 L549,606.6094 L300,606.6094 " fill="#FEFFDD" style="stroke:#181818;stroke-width:0.5;"/><path d="M549,606.6094 L549,616.6094 L559,616.6094 L549,606.6094 " fill="#FEFFDD" style="stroke:#181818;stroke-width:0.5;"/><text fill="#000000" font-family="sans-serif" font-size="13" font-weight="bold" lengthAdjust="spacing" textLength="51" x="306" y="625.1045">Sistema</text><text fill="#000000" font-family="sans-serif" font-size="13" lengthAdjust="spacing" textLength="183" x="361" y="625.1045">muestra errores de introducci&#243;n</text><text fill="#000000" font-family="sans-serif" font-size="13" font-weight="bold" lengthAdjust="spacing" textLength="51" x="306" y="641.4561">Sistema</text><text fill="#000000" font-family="sans-serif" font-size="13" lengthAdjust="spacing" textLength="178" x="361" y="641.4561">permite introducir correcciones</text></g><!--link RegistrandoEntregable to *end*crearEntregable--><g id="link_RegistrandoEntregable_*end*crearEntregable"><path d="M330.22,563.6394 C396.04,574.1494 568,601.6094 568,601.6094 C568,601.6094 575,741.6094 575,741.6094 C575,741.6094 575,777.6094 575,777.6094 C575,777.6094 473.2932,796.1061 437.9832,802.5261 " fill="none" id="RegistrandoEntregable-to-*end*crearEntregable" style="stroke:#FF0000;stroke-width:1.0;"/><polygon fill="#FF0000" points="432.08,803.5994,441.6504,805.9249,436.9993,802.7049,440.2193,798.0539,432.08,803.5994" style="stroke:#FF0000;stroke-width:1.0;"/><path d="M579,676.6094 L579,718.6094 L924,718.6094 L924,686.6094 L914,676.6094 L579,676.6094 " fill="#FEFFDD" style="stroke:#181818;stroke-width:0.5;"/><path d="M914,676.6094 L914,686.6094 L924,686.6094 L914,676.6094 " fill="#FEFFDD" style="stroke:#181818;stroke-width:0.5;"/><text fill="#000000" font-family="sans-serif" font-size="13" font-weight="bold" lengthAdjust="spacing" textLength="78" x="585" y="695.1045">Investigador</text><text fill="#000000" font-family="sans-serif" font-size="13" lengthAdjust="spacing" textLength="161" x="667" y="695.1045">solicita cancelar la creaci&#243;n</text><text fill="#000000" font-family="sans-serif" font-size="13" font-weight="bold" lengthAdjust="spacing" textLength="51" x="585" y="711.4561">Sistema</text><text fill="#000000" font-family="sans-serif" font-size="13" lengthAdjust="spacing" textLength="269" x="640" y="711.4561">presenta el listado de entregables sin cambios</text></g><g id="ENTREGABLE_ABIERTO"><rect fill="#F1F1F1" height="50" rx="12.5" ry="12.5" style="stroke:#181818;stroke-width:0.5;" width="180" x="265" y="924"/><line style="stroke:#181818;stroke-width:0.5;" x1="265" x2="445" y1="951.6094" y2="951.6094"/><text fill="#000000" font-family="sans-serif" font-size="14" lengthAdjust="spacing" textLength="160" x="275" y="943.5332">ENTREGABLE_ABIERTO</text></g><g id="ENTREGABLES_ABIERTOS"><rect fill="#F1F1F1" height="50" rx="12.5" ry="12.5" style="stroke:#181818;stroke-width:0.5;" width="198" x="486" y="924"/><line style="stroke:#181818;stroke-width:0.5;" x1="486" x2="684" y1="951.6094" y2="951.6094"/><text fill="#000000" font-family="sans-serif" font-size="14" lengthAdjust="spacing" textLength="178" x="496" y="943.5332">ENTREGABLES_ABIERTOS</text></g><!--link in1 to crearEntregable--><g id="link_in1_crearEntregable"><path d="M470,57.23 C470,72.15 470,87.13 470,111.82 " fill="none" id="in1-to-crearEntregable" style="stroke:#008000;stroke-width:1.0;"/><polygon fill="#008000" points="470,117.82,474,108.82,470,112.82,466,108.82,470,117.82" style="stroke:#008000;stroke-width:1.0;"/></g><!--link crearEntregable to ENTREGABLE_ABIERTO--><g id="link_crearEntregable_ENTREGABLE_ABIERTO"><path d="M361.16,828.19 C355.45,846.78 352,858 352,858 C352,858 352,894 352,894 C352,894 352.5265,903.4793 353.3265,917.8493 " fill="none" id="crearEntregable-to-ENTREGABLE_ABIERTO" style="stroke:#008000;stroke-width:1.0;"/><polygon fill="#008000" points="353.66,923.84,357.1535,914.6316,353.3821,918.8477,349.1659,915.0763,353.66,923.84" style="stroke:#008000;stroke-width:1.0;"/><path d="M357,863 L357,889 L537,889 L537,873 L527,863 L357,863 " fill="#FEFFDD" style="stroke:#181818;stroke-width:0.5;"/><path d="M527,863 L527,873 L537,873 L527,863 " fill="#FEFFDD" style="stroke:#181818;stroke-width:0.5;"/><text fill="#000000" font-family="sans-serif" font-size="13" lengthAdjust="spacing" textLength="159" x="363" y="881.4951">Entregable creado y abierto</text></g><!--link crearEntregable to ENTREGABLES_ABIERTOS--><g id="link_crearEntregable_ENTREGABLES_ABIERTOS"><path d="M555.91,828.08 C565.61,868.09 572.4657,896.3191 577.6757,917.7991 " fill="none" id="crearEntregable-to-ENTREGABLES_ABIERTOS" style="stroke:#FF0000;stroke-width:1.0;"/><polygon fill="#FF0000" points="579.09,923.63,580.8558,913.9407,577.9114,918.7709,573.0813,915.8265,579.09,923.63" style="stroke:#FF0000;stroke-width:1.0;"/><path d="M575,863 L575,889 L698,889 L698,873 L688,863 L575,863 " fill="#FEFFDD" style="stroke:#181818;stroke-width:0.5;"/><path d="M688,863 L688,873 L698,873 L688,863 " fill="#FEFFDD" style="stroke:#181818;stroke-width:0.5;"/><text fill="#000000" font-family="sans-serif" font-size="13" lengthAdjust="spacing" textLength="102" x="581" y="881.4951">abrirEntregables()</text></g><!--SRC=[hLNDQXin4BxlKmZtOXT2wBK4WzDiIw2qO9jSGYYpgwcZHjOi8wt1BOK-I-yvzH7o9dsIpcfjxqys9YsrB_ePVTytyusq_iwu0XZMoXg7OLkWAiXkgqcI-001bN6l57WrIZyiv-cxsVdxTF5fTdwPpfSV5wEasZsvVh5YH7TpCbKv8t3g0kCACdi0wIr7mDxQU39Itv94oQy-CvA_n2t8cjm4S9ek891_7377bV61guWMywEmAx16Dp0nuFhbJKV-89aZ0I5NbUWkBfnbqqktGH_C2ZJnsMasLNvtiavLbKvXLmiw7P5guZvHHyNJ2Gr9MKWihY6gM9TO7LHRLI2lJRGlCEaoDwoiqEX8fj4gL-A6MY9VHxpVFtwgvSDzA2qrSrEG6XltcNYDwhJ208z1HWMZ5mJ8pSCl9tCIhidXt5lCRq7PX_jAo64r5LCqYIx97wmQ5r8O8o0LCZgLb-mf3gCmtSAxG9-pAMgoCSc07DXcVyRvhP6SG7yfNQ1so52jzXNQEyTD1Tv43ti6LXjNP3V82bfxVi3TGGCx5lUQyL_RJ7myscPTceu2QVrdjTJUO-cfZV6b07w5Bc_KekbPz8pw_tGuCfCearO-j7XiZ6DEj-v2JioOL-tnTmRkz1yhtX7FmELenJPR-_Uqu7tDfSxMr1T64cqrdV96xWgiCqCz_T-JfF_Qjcrldl7zAvvqaaZxjehla1daG4bJem66NMM6FXDT1iZOjCxwyQG1_WC0]--></g></svg>