<svg xmlns="http://www.w3.org/2000/svg" xmlns:xlink="http://www.w3.org/1999/xlink" contentStyleType="text/css" data-diagram-type="STATE" height="735px" preserveAspectRatio="none" style="width:728px;height:735px;background:#FFFFFF;" version="1.1" viewBox="0 0 728 735" width="728px" zoomAndPan="magnify"><defs/><g><g><rect fill="#F1F1F1" height="50" rx="12.5" ry="12.5" style="stroke:#181818;stroke-width:0.5;" width="182.1621" x="269.92" y="7"/><line style="stroke:#181818;stroke-width:0.5;" x1="269.92" x2="452.0821" y1="33.2969" y2="33.2969"/><text fill="#000000" font-family="sans-serif" font-size="14" lengthAdjust="spacing" textLength="162.1621" x="279.92" y="24.9951">PROYECTOS_ABIERTOS</text></g><path d="M19.5,152 L702.5,152 A12.5,12.5 0 0 1 715,164.5 L715,178.2969 L7,178.2969 L7,164.5 A12.5,12.5 0 0 1 19.5,152" fill="#F1F1F1"/><rect fill="none" height="432.2969" rx="12.5" ry="12.5" style="stroke:#181818;stroke-width:0.5;" width="708" x="7" y="152"/><line style="stroke:#181818;stroke-width:0.5;" x1="7" x2="715" y1="178.2969" y2="178.2969"/><text fill="#000000" font-family="sans-serif" font-size="14" lengthAdjust="spacing" textLength="155.2988" x="283.3506" y="169.9951">eliminarInvestigador()</text><g><rect fill="#F1F1F1" height="50" rx="12.5" ry="12.5" style="stroke:#181818;stroke-width:0.5;" width="50" x="200" y="280.2969"/><line style="stroke:#181818;stroke-width:0.5;" x1="200" x2="250" y1="306.5938" y2="306.5938"/><text fill="#000000" font-family="sans-serif" font-size="14" lengthAdjust="spacing" textLength="4.4502" x="222.7749" y="298.292">&#160;</text></g><g><rect fill="#F1F1F1" height="50" rx="12.5" ry="12.5" style="stroke:#181818;stroke-width:0.5;" width="50" x="19" y="431.2969"/><line style="stroke:#181818;stroke-width:0.5;" x1="19" x2="69" y1="457.5938" y2="457.5938"/><text fill="#000000" font-family="sans-serif" font-size="14" lengthAdjust="spacing" textLength="4.4502" x="41.7749" y="449.292">&#160;</text></g><ellipse cx="225" cy="199.2969" fill="#222222" rx="10" ry="10" style="stroke:#222222;stroke-width:1;"/><ellipse cx="229" cy="563.2969" fill="none" rx="11" ry="11" style="stroke:#222222;stroke-width:1;"/><ellipse cx="229" cy="563.2969" fill="#222222" rx="6" ry="6" style="stroke:#222222;stroke-width:1;"/><!--link *start*eliminarInvestigador to ConfirmandoEliminacion--><g class="link" data-entity-1="ent0003" data-entity-2="ent0004" data-link-type="dependency" data-source-line="14" id="lnk4"><path d="M225,209.5269 C225,225.2369 225,251.6569 225,274.1669" fill="none" id="*start*eliminarInvestigador-to-ConfirmandoEliminacion" style="stroke:#008000;stroke-width:1;"/><polygon fill="#008000" points="225,280.1669,229,271.1669,225,275.1669,221,271.1669,225,280.1669" style="stroke:#008000;stroke-width:1;"/><path d="M230,232.2969 L230,257.2969 L615,257.2969 L615,242.2969 L605,232.2969 L230,232.2969" fill="#FEFFDD" style="stroke:#181818;stroke-width:0.5;"/><path d="M605,232.2969 L605,242.2969 L615,242.2969 L605,232.2969" fill="#FEFFDD" style="stroke:#181818;stroke-width:0.5;"/><text fill="#000000" font-family="sans-serif" font-size="13" font-weight="bold" lengthAdjust="spacing" textLength="90.251" x="236" y="249.3638">Coordinador</text><text fill="#000000" font-family="sans-serif" font-size="13" lengthAdjust="spacing" textLength="269.8325" x="330.3833" y="249.3638">solicita eliminar investigador de proyecto</text></g><!--link ConfirmandoEliminacion to PublicacionEliminada--><g class="link" data-entity-1="ent0004" data-entity-2="ent0005" data-link-type="dependency" data-source-line="19" id="lnk5"><path d="M199.8,312.0469 C149.41,323.5469 41,348.2969 41,348.2969 C41,348.2969 41,413.2969 41,413.2969 C41,413.2969 41.1625,415.6421 41.8225,424.8821" fill="none" id="ConfirmandoEliminacion-to-PublicacionEliminada" style="stroke:#008000;stroke-width:1;"/><polygon fill="#008000" points="42.25,430.8669,45.5986,421.6048,41.8938,425.8796,37.6189,422.1747,42.25,430.8669" style="stroke:#008000;stroke-width:1;"/><path d="M46,353.2969 L46,408.2969 L391,408.2969 L391,363.2969 L381,353.2969 L46,353.2969" fill="#FEFFDD" style="stroke:#181818;stroke-width:0.5;"/><path d="M381,353.2969 L381,363.2969 L391,363.2969 L381,353.2969" fill="#FEFFDD" style="stroke:#181818;stroke-width:0.5;"/><text fill="#000000" font-family="sans-serif" font-size="13" font-weight="bold" lengthAdjust="spacing" textLength="58.9063" x="52" y="370.3638">Sistema</text><text fill="#000000" font-family="sans-serif" font-size="13" lengthAdjust="spacing" textLength="245.4258" x="115.0386" y="370.3638">presenta confirmaci&#243;n de eliminaci&#243;n</text><text fill="#000000" font-family="sans-serif" font-size="13" font-weight="bold" lengthAdjust="spacing" textLength="90.251" x="52" y="385.4966">Coordinador</text><text fill="#000000" font-family="sans-serif" font-size="13" lengthAdjust="spacing" textLength="191.5405" x="146.3833" y="385.4966">solicita confirmar eliminaci&#243;n</text><text fill="#000000" font-family="sans-serif" font-size="13" font-weight="bold" lengthAdjust="spacing" textLength="58.9063" x="52" y="400.6294">Sistema</text><text fill="#000000" font-family="sans-serif" font-size="13" lengthAdjust="spacing" textLength="261.0854" x="115.0386" y="400.6294">presenta la eliminaci&#243;n del investigador</text></g><!--link ConfirmandoEliminacion to *end*eliminarInvestigador--><g class="link" data-entity-1="ent0004" data-entity-2="ent0006" data-link-type="dependency" data-source-line="26" id="lnk7"><path d="M250.23,312.4969 C297.8,324.1769 396,348.2969 396,348.2969 C396,348.2969 396,534.2969 396,534.2969 C396,534.2969 283.0274,553.2345 245.8774,559.4645" fill="none" id="ConfirmandoEliminacion-to-*end*eliminarInvestigador" style="stroke:#FF0000;stroke-width:1;"/><polygon fill="#FF0000" points="239.96,560.4569,249.4976,562.9133,244.8911,559.6299,248.1745,555.0235,239.96,560.4569" style="stroke:#FF0000;stroke-width:1;"/><path d="M401,443.7969 L401,468.7969 L706,468.7969 L706,453.7969 L696,443.7969 L401,443.7969" fill="#FEFFDD" style="stroke:#181818;stroke-width:0.5;"/><path d="M696,443.7969 L696,453.7969 L706,453.7969 L696,443.7969" fill="#FEFFDD" style="stroke:#181818;stroke-width:0.5;"/><text fill="#000000" font-family="sans-serif" font-size="13" font-weight="bold" lengthAdjust="spacing" textLength="90.251" x="407" y="460.8638">Coordinador</text><text fill="#000000" font-family="sans-serif" font-size="13" lengthAdjust="spacing" textLength="189.6362" x="501.3833" y="460.8638">solicita cancelar la operaci&#243;n</text></g><!--link PublicacionEliminada to *end*eliminarInvestigador--><g class="link" data-entity-1="ent0005" data-entity-2="ent0006" data-link-type="dependency" data-source-line="31" id="lnk8"><path d="M48.11,481.6569 C51.92,504.2169 57,534.2969 57,534.2969 C57,534.2969 174.098,553.3628 212.058,559.5428" fill="none" id="PublicacionEliminada-to-*end*eliminarInvestigador" style="stroke:#008000;stroke-width:1;"/><polygon fill="#008000" points="217.98,560.5069,209.7397,555.1127,213.045,559.7034,208.4542,563.0087,217.98,560.5069" style="stroke:#008000;stroke-width:1;"/><path d="M62,504.2969 L62,529.2969 L391,529.2969 L391,514.2969 L381,504.2969 L62,504.2969" fill="#FEFFDD" style="stroke:#181818;stroke-width:0.5;"/><path d="M381,504.2969 L381,514.2969 L391,514.2969 L381,504.2969" fill="#FEFFDD" style="stroke:#181818;stroke-width:0.5;"/><text fill="#000000" font-family="sans-serif" font-size="13" font-weight="bold" lengthAdjust="spacing" textLength="58.9063" x="68" y="521.3638">Sistema</text><text fill="#000000" font-family="sans-serif" font-size="13" lengthAdjust="spacing" textLength="245.4258" x="131.0386" y="521.3638">presenta confirmaci&#243;n de eliminaci&#243;n</text></g><g><rect fill="#F1F1F1" height="50" rx="12.5" ry="12.5" style="stroke:#181818;stroke-width:0.5;" width="182.1621" x="156.92" y="679.3"/><line style="stroke:#181818;stroke-width:0.5;" x1="156.92" x2="339.0821" y1="705.5969" y2="705.5969"/><text fill="#000000" font-family="sans-serif" font-size="14" lengthAdjust="spacing" textLength="162.1621" x="166.92" y="697.2951">PROYECTOS_ABIERTOS</text></g><g><rect fill="#F1F1F1" height="50" rx="12.5" ry="12.5" style="stroke:#181818;stroke-width:0.5;" width="199.3477" x="374.33" y="679.3"/><line style="stroke:#181818;stroke-width:0.5;" x1="374.33" x2="573.6777" y1="705.5969" y2="705.5969"/><text fill="#000000" font-family="sans-serif" font-size="14" lengthAdjust="spacing" textLength="179.3477" x="384.33" y="697.2951">ENTREGABLES_ABIERTOS</text></g><!--link in1 to eliminarInvestigador--><g class="link" data-entity-1="ent0002" data-entity-2="ent0003" data-link-type="dependency" data-source-line="4" id="lnk2"><path d="M361,57.3 C361,79.15 361,107.61 361,145.74" fill="none" id="in1-to-eliminarInvestigador" style="stroke:#008000;stroke-width:1;"/><polygon fill="#008000" points="361,151.74,365,142.74,361,146.74,357,142.74,361,151.74" style="stroke:#008000;stroke-width:1;"/><path d="M366,92 L366,117 L484,117 L484,102 L474,92 L366,92" fill="#FEFFDD" style="stroke:#181818;stroke-width:0.5;"/><path d="M474,92 L474,102 L484,102 L474,92" fill="#FEFFDD" style="stroke:#181818;stroke-width:0.5;"/><text fill="#000000" font-family="sans-serif" font-size="13" lengthAdjust="spacing" textLength="97.6904" x="372" y="109.0669">abrirProyecto()</text></g><!--link eliminarInvestigador to PROYECTOS_ABIERTOS--><g class="link" data-entity-1="ent0003" data-entity-2="ent0009" data-link-type="dependency" data-source-line="38" id="lnk10"><path d="M288.16,584.55 C275.26,622.69 265.5323,651.4663 258.1423,673.3163" fill="none" id="eliminarInvestigador-to-PROYECTOS_ABIERTOS" style="stroke:#0000FF;stroke-width:1;"/><polygon fill="#0000FF" points="256.22,679,262.8926,671.756,257.8219,674.2636,255.3143,669.1929,256.22,679" style="stroke:#0000FF;stroke-width:1;"/><path d="M281,619.3 L281,644.3 L399,644.3 L399,629.3 L389,619.3 L281,619.3" fill="#FEFFDD" style="stroke:#181818;stroke-width:0.5;"/><path d="M389,619.3 L389,629.3 L399,629.3 L389,619.3" fill="#FEFFDD" style="stroke:#181818;stroke-width:0.5;"/><text fill="#000000" font-family="sans-serif" font-size="13" lengthAdjust="spacing" textLength="97.6904" x="287" y="636.3669">abrirProyecto()</text></g><!--link eliminarInvestigador to ENTREGABLES_ABIERTOS--><g class="link" data-entity-1="ent0003" data-entity-2="ent0011" data-link-type="dependency" data-source-line="44" id="lnk12"><path d="M433.84,584.55 C446.74,622.69 456.4677,651.4663 463.8577,673.3163" fill="none" id="eliminarInvestigador-to-ENTREGABLES_ABIERTOS" style="stroke:#0000FF;stroke-width:1;"/><polygon fill="#0000FF" points="465.78,679,466.6857,669.1929,464.1781,674.2636,459.1074,671.756,465.78,679" style="stroke:#0000FF;stroke-width:1;"/><path d="M460,619.3 L460,644.3 L599,644.3 L599,629.3 L589,619.3 L460,619.3" fill="#FEFFDD" style="stroke:#181818;stroke-width:0.5;"/><path d="M589,619.3 L589,629.3 L599,629.3 L589,619.3" fill="#FEFFDD" style="stroke:#181818;stroke-width:0.5;"/><text fill="#000000" font-family="sans-serif" font-size="13" lengthAdjust="spacing" textLength="118.4092" x="466" y="636.3669">abrirEntregables()</text></g><!--SRC=[dLFRQW8n47tFLmJxeWKfVHT1PIb2gQA-596ItPrAC3jP9h4WfL_LJ-YFTR9UwcAgjRilEvcPSywSxBYLnbAHAgJH27vJWYojsOH02EUL1wdnNYed6-F9w3aPp4RJbrv_c4pueo52hZs_MH80BjfT2KON6XKDyGsSrqkLMn9e6SLYO5W9bPAcCTaDPDusMm8mbw5WpnP3gEXZYMQh8T-5aFniknlySl70ugkcGc5kasrRfYsUretNgT5PbTpLvMeBDxzTr0OxWrWRBnnqqkx0Mie3dANENTgLpZAFzkem7hjwD5_EhkyigH1-J0bHdBicBph8R-AcsdaeL2Mi9720B2pRaMJwwnE38DXJSNnnh7qtHTkYX4RLQfdIr4ovoWY2FDZ0jtRzbMGACp0idHNP4kX8Uvq-PdBj5ixH_zFqWu8F8KHqDrX0QjPG_GKd6_hNtRi8dJpD9ib3h_-Od0LFq1CiLMh07U5_0m00]--></g></svg>