<?xml version="1.0" encoding="us-ascii" standalone="no"?><svg xmlns="http://www.w3.org/2000/svg" xmlns:xlink="http://www.w3.org/1999/xlink" contentStyleType="text/css" height="917px" preserveAspectRatio="none" style="width:967px;height:917px;background:#FFFFFF;" version="1.1" viewBox="0 0 967 917" width="967px" zoomAndPan="magnify"><defs/><g><g id="in1"><rect fill="#F1F1F1" height="50" rx="12.5" ry="12.5" style="stroke:#181818;stroke-width:0.5;" width="166" x="293.5" y="7"/><line style="stroke:#181818;stroke-width:0.5;" x1="293.5" x2="459.5" y1="34.6094" y2="34.6094"/><text fill="#000000" font-family="sans-serif" font-size="14" lengthAdjust="spacing" textLength="146" x="303.5" y="26.5332">PROYECTO_ABIERTO</text></g><path d="M19.5,118 L941.5,118 A12.5,12.5 0 0 1 954,130.5 L954,145.6094 L7,145.6094 L7,130.5 A12.5,12.5 0 0 1 19.5,118 " fill="#F1F1F1" style="stroke:#F1F1F1;stroke-width:1.0;"/><rect fill="none" height="646.6094" rx="12.5" ry="12.5" style="stroke:#181818;stroke-width:0.5;" width="947" x="7" y="118"/><line style="stroke:#181818;stroke-width:0.5;" x1="7" x2="954" y1="145.6094" y2="145.6094"/><text fill="#000000" font-family="sans-serif" font-size="14" lengthAdjust="spacing" textLength="115" x="423" y="137.5332">abrirEntregables()</text><g id="abrirEntregables.SolicitandoApertura"><rect fill="#F1F1F1" height="50" rx="12.5" ry="12.5" style="stroke:#181818;stroke-width:0.5;" width="50" x="287" y="248.6094"/><line style="stroke:#181818;stroke-width:0.5;" x1="287" x2="337" y1="276.2188" y2="276.2188"/><text fill="#000000" font-family="sans-serif" font-size="14" lengthAdjust="spacing" textLength="4" x="310" y="268.1426">&#160;</text></g><g id="abrirEntregables.MostrandoListado"><rect fill="#F1F1F1" height="50" rx="12.5" ry="12.5" style="stroke:#181818;stroke-width:0.5;" width="50" x="287" y="566.6094"/><line style="stroke:#181818;stroke-width:0.5;" x1="287" x2="337" y1="594.2188" y2="594.2188"/><text fill="#000000" font-family="sans-serif" font-size="14" lengthAdjust="spacing" textLength="4" x="310" y="586.1426">&#160;</text></g><g id="abrirEntregables.FiltrandoBuscando"><rect fill="#F1F1F1" height="50" rx="12.5" ry="12.5" style="stroke:#181818;stroke-width:0.5;" width="50" x="68" y="704.6094"/><line style="stroke:#181818;stroke-width:0.5;" x1="68" x2="118" y1="732.2188" y2="732.2188"/><text fill="#000000" font-family="sans-serif" font-size="14" lengthAdjust="spacing" textLength="4" x="91" y="724.1426">&#160;</text></g><ellipse cx="312" cy="166.6094" fill="#222222" rx="10" ry="10" style="stroke:#222222;stroke-width:1.0;"/><ellipse cx="627" cy="729.6094" fill="none" rx="11" ry="11" style="stroke:#222222;stroke-width:1.0;"/><ellipse cx="627" cy="729.6094" fill="#222222" rx="6" ry="6" style="stroke:#222222;stroke-width:1.0;"/><!--link *start*abrirEntregables to SolicitandoApertura--><g id="link_*start*abrirEntregables_SolicitandoApertura"><path d="M312,176.9294 C312,192.7894 312,219.5194 312,242.2494 " fill="none" id="*start*abrirEntregables-to-SolicitandoApertura" style="stroke:#008000;stroke-width:1.0;"/><polygon fill="#008000" points="312,248.2494,316,239.2494,312,243.2494,308,239.2494,312,248.2494" style="stroke:#008000;stroke-width:1.0;"/><path d="M317,199.6094 L317,225.6094 L561,225.6094 L561,209.6094 L551,199.6094 L317,199.6094 " fill="#FEFFDD" style="stroke:#181818;stroke-width:0.5;"/><path d="M551,199.6094 L551,209.6094 L561,209.6094 L551,199.6094 " fill="#FEFFDD" style="stroke:#181818;stroke-width:0.5;"/><text fill="#000000" font-family="sans-serif" font-size="13" font-weight="bold" lengthAdjust="spacing" textLength="78" x="323" y="218.1045">Investigador</text><text fill="#000000" font-family="sans-serif" font-size="13" lengthAdjust="spacing" textLength="141" x="405" y="218.1045">solicita abrir entregables</text></g><!--link SolicitandoApertura to MostrandoListado--><g id="link_SolicitandoApertura_MostrandoListado"><path d="M312,298.6194 C312,357.2394 312,501.1694 312,560.1994 " fill="none" id="SolicitandoApertura-to-MostrandoListado" style="stroke:#008000;stroke-width:1.0;"/><polygon fill="#008000" points="312,566.1994,316,557.1994,312,561.1994,308,557.1994,312,566.1994" style="stroke:#008000;stroke-width:1.0;"/><path d="M317,321.6094 L317,543.6094 L756,543.6094 L756,331.6094 L746,321.6094 L317,321.6094 " fill="#FEFFDD" style="stroke:#181818;stroke-width:0.5;"/><path d="M746,321.6094 L746,331.6094 L756,331.6094 L746,321.6094 " fill="#FEFFDD" style="stroke:#181818;stroke-width:0.5;"/><text fill="#000000" font-family="sans-serif" font-size="13" font-weight="bold" lengthAdjust="spacing" textLength="51" x="323" y="340.1045">Sistema</text><text fill="#000000" font-family="sans-serif" font-size="13" lengthAdjust="spacing" textLength="363" x="378" y="340.1045">presenta y visualiza el listado de entregables del proyecto con:</text><text fill="#000000" font-family="sans-serif" font-size="13" lengthAdjust="spacing" textLength="21" x="323" y="356.4561">&#8226; ID</text><text fill="#000000" font-family="sans-serif" font-size="13" lengthAdjust="spacing" textLength="40" x="323" y="372.8076">&#8226; T&#237;tulo</text><text fill="#000000" font-family="sans-serif" font-size="13" lengthAdjust="spacing" textLength="33" x="323" y="389.1592">&#8226; Tipo</text><text fill="#000000" font-family="sans-serif" font-size="13" lengthAdjust="spacing" textLength="80" x="323" y="405.5107">&#8226; Fecha l&#237;mite</text><text fill="#000000" font-family="sans-serif" font-size="13" lengthAdjust="spacing" textLength="50" x="323" y="421.8623">&#8226; Estado</text><text fill="#000000" font-family="sans-serif" font-size="13" lengthAdjust="spacing" textLength="190" x="323" y="438.2139">&#8226; Informaci&#243;n adicional (si aplica)</text><text fill="#000000" font-family="sans-serif" font-size="13" lengthAdjust="spacing" textLength="4" x="323" y="454.5654">&#160;</text><text fill="#000000" font-family="sans-serif" font-size="13" font-weight="bold" lengthAdjust="spacing" textLength="51" x="323" y="470.917">Sistema</text><text fill="#000000" font-family="sans-serif" font-size="13" lengthAdjust="spacing" textLength="206" x="378" y="470.917">permite introducir filtros y b&#250;squeda</text><text fill="#000000" font-family="sans-serif" font-size="13" font-weight="bold" lengthAdjust="spacing" textLength="51" x="323" y="487.2686">Sistema</text><text fill="#000000" font-family="sans-serif" font-size="13" lengthAdjust="spacing" textLength="96" x="378" y="487.2686">permite solicitar:</text><text fill="#000000" font-family="sans-serif" font-size="13" lengthAdjust="spacing" textLength="100" x="323" y="503.6201">&#8226; Abrir entregable</text><text fill="#000000" font-family="sans-serif" font-size="13" lengthAdjust="spacing" textLength="104" x="323" y="519.9717">&#8226; Crear entregable</text><text fill="#000000" font-family="sans-serif" font-size="13" lengthAdjust="spacing" textLength="112" x="323" y="536.3232">&#8226; Volver al proyecto</text></g><!--link MostrandoListado to FiltrandoBuscando--><g id="link_MostrandoListado_FiltrandoBuscando"><path d="M286.93,596.1894 C215.84,606.3494 18,634.6094 18,634.6094 C18,634.6094 18,686.6094 18,686.6094 C18,686.6094 40.6144,699.2788 62.3744,711.4588 " fill="none" id="MostrandoListado-to-FiltrandoBuscando" style="stroke:#008000;stroke-width:1.0;"/><polygon fill="#008000" points="67.61,714.3894,61.7103,706.5031,63.247,711.9472,57.8029,713.4839,67.61,714.3894" style="stroke:#008000;stroke-width:1.0;"/><path d="M23,647.6094 L23,673.6094 L285,673.6094 L285,657.6094 L275,647.6094 L23,647.6094 " fill="#FEFFDD" style="stroke:#181818;stroke-width:0.5;"/><path d="M275,647.6094 L275,657.6094 L285,657.6094 L275,647.6094 " fill="#FEFFDD" style="stroke:#181818;stroke-width:0.5;"/><text fill="#000000" font-family="sans-serif" font-size="13" font-weight="bold" lengthAdjust="spacing" textLength="78" x="29" y="666.1045">Investigador</text><text fill="#000000" font-family="sans-serif" font-size="13" lengthAdjust="spacing" textLength="159" x="111" y="666.1045">introduce filtros o b&#250;squeda</text></g><!--link FiltrandoBuscando to FiltrandoBuscando--><g id="link_FiltrandoBuscando_FiltrandoBuscando"><path d="M118.18,716.9094 C127.91,716.3494 136,720.5794 136,729.6094 C136,738.6394 133.9001,743.2141 124.1701,742.6541 " fill="none" id="FiltrandoBuscando-to-FiltrandoBuscando" style="stroke:#008000;stroke-width:1.0;"/><polygon fill="#008000" points="118.18,742.3094,126.9353,746.8199,123.1717,742.5967,127.395,738.8331,118.18,742.3094" style="stroke:#008000;stroke-width:1.0;"/><path d="M141,716.6094 L141,742.6094 L518,742.6094 L518,726.6094 L508,716.6094 L141,716.6094 " fill="#FEFFDD" style="stroke:#181818;stroke-width:0.5;"/><path d="M508,716.6094 L508,726.6094 L518,726.6094 L508,716.6094 " fill="#FEFFDD" style="stroke:#181818;stroke-width:0.5;"/><text fill="#000000" font-family="sans-serif" font-size="13" font-weight="bold" lengthAdjust="spacing" textLength="51" x="147" y="735.1045">Sistema</text><text fill="#000000" font-family="sans-serif" font-size="13" lengthAdjust="spacing" textLength="301" x="202" y="735.1045">muestra y visualiza el listado seg&#250;n filtros/b&#250;squeda</text></g><!--link FiltrandoBuscando to MostrandoListado--><g id="link_FiltrandoBuscando_MostrandoListado"><path d="M118.35,723.2094 C171.56,711.8594 290,686.6094 290,686.6094 C290,686.6094 298.4543,650.5119 304.9643,622.6619 " fill="none" id="FiltrandoBuscando-to-MostrandoListado" style="stroke:#008000;stroke-width:1.0;"/><polygon fill="#008000" points="306.33,616.8194,300.3864,624.6727,305.1919,621.6881,308.1765,626.4936,306.33,616.8194" style="stroke:#008000;stroke-width:1.0;"/><path d="M307,647.6094 L307,673.6094 L589,673.6094 L589,657.6094 L579,647.6094 L307,647.6094 " fill="#FEFFDD" style="stroke:#181818;stroke-width:0.5;"/><path d="M579,647.6094 L579,657.6094 L589,657.6094 L579,647.6094 " fill="#FEFFDD" style="stroke:#181818;stroke-width:0.5;"/><text fill="#000000" font-family="sans-serif" font-size="13" font-weight="bold" lengthAdjust="spacing" textLength="78" x="313" y="666.1045">Investigador</text><text fill="#000000" font-family="sans-serif" font-size="13" lengthAdjust="spacing" textLength="179" x="395" y="666.1045">solicita continuar con el listado</text></g><!--link MostrandoListado to *end*abrirEntregables--><g id="link_MostrandoListado_*end*abrirEntregables"><path d="M337.13,596.2994 C406.92,606.5494 598,634.6094 598,634.6094 C598,634.6094 614.8306,689.1562 622.2406,713.1662 " fill="none" id="MostrandoListado-to-*end*abrirEntregables" style="stroke:#008000;stroke-width:1.0;"/><polygon fill="#008000" points="624.01,718.8994,625.178,709.12,622.5355,714.1217,617.5338,711.4792,624.01,718.8994" style="stroke:#008000;stroke-width:1.0;"/><path d="M618,639.6094 L618,681.6094 L945,681.6094 L945,649.6094 L935,639.6094 L618,639.6094 " fill="#FEFFDD" style="stroke:#181818;stroke-width:0.5;"/><path d="M935,639.6094 L935,649.6094 L945,649.6094 L935,639.6094 " fill="#FEFFDD" style="stroke:#181818;stroke-width:0.5;"/><text fill="#000000" font-family="sans-serif" font-size="13" font-weight="bold" lengthAdjust="spacing" textLength="78" x="624" y="658.1045">Investigador</text><text fill="#000000" font-family="sans-serif" font-size="13" lengthAdjust="spacing" textLength="215" x="706" y="658.1045">solicita abrir un entregable del listado</text><text fill="#000000" font-family="sans-serif" font-size="13" font-weight="bold" lengthAdjust="spacing" textLength="51" x="624" y="674.4561">Sistema</text><text fill="#000000" font-family="sans-serif" font-size="13" lengthAdjust="spacing" textLength="251" x="679" y="674.4561">presenta y visualiza el entregable solicitado</text></g><g id="in2"><rect fill="#F1F1F1" height="50" rx="12.5" ry="12.5" style="stroke:#181818;stroke-width:0.5;" width="180" x="494.5" y="7"/><line style="stroke:#181818;stroke-width:0.5;" x1="494.5" x2="674.5" y1="34.6094" y2="34.6094"/><text fill="#000000" font-family="sans-serif" font-size="14" lengthAdjust="spacing" textLength="160" x="504.5" y="26.5332">ENTREGABLE_ABIERTO</text></g><g id="ENTREGABLES_ABIERTOS"><rect fill="#F1F1F1" height="50" rx="12.5" ry="12.5" style="stroke:#181818;stroke-width:0.5;" width="198" x="38.5" y="861"/><line style="stroke:#181818;stroke-width:0.5;" x1="38.5" x2="236.5" y1="888.6094" y2="888.6094"/><text fill="#000000" font-family="sans-serif" font-size="14" lengthAdjust="spacing" textLength="178" x="48.5" y="880.5332">ENTREGABLES_ABIERTOS</text></g><g id="ENTREGABLE_ABIERTO"><rect fill="#F1F1F1" height="50" rx="12.5" ry="12.5" style="stroke:#181818;stroke-width:0.5;" width="180" x="371.5" y="861"/><line style="stroke:#181818;stroke-width:0.5;" x1="371.5" x2="551.5" y1="888.6094" y2="888.6094"/><text fill="#000000" font-family="sans-serif" font-size="14" lengthAdjust="spacing" textLength="160" x="381.5" y="880.5332">ENTREGABLE_ABIERTO</text></g><g id="PROYECTO_ABIERTO"><rect fill="#F1F1F1" height="50" rx="12.5" ry="12.5" style="stroke:#181818;stroke-width:0.5;" width="166" x="650.5" y="861"/><line style="stroke:#181818;stroke-width:0.5;" x1="650.5" x2="816.5" y1="888.6094" y2="888.6094"/><text fill="#000000" font-family="sans-serif" font-size="14" lengthAdjust="spacing" textLength="146" x="660.5" y="880.5332">PROYECTO_ABIERTO</text></g><!--link in1 to abrirEntregables--><g id="link_in1_abrirEntregables"><path d="M382.69,57.27 C386.52,72.26 390.417,87.5062 396.697,112.1262 " fill="none" id="in1-to-abrirEntregables" style="stroke:#008000;stroke-width:1.0;"/><polygon fill="#008000" points="398.18,117.94,399.8314,108.2306,396.9442,113.0951,392.0796,110.2079,398.18,117.94" style="stroke:#008000;stroke-width:1.0;"/></g><!--link in2 to abrirEntregables--><g id="link_in2_abrirEntregables"><path d="M578.31,57.27 C574.48,72.26 570.583,87.5062 564.303,112.1262 " fill="none" id="in2-to-abrirEntregables" style="stroke:#008000;stroke-width:1.0;"/><polygon fill="#008000" points="562.82,117.94,568.9204,110.2079,564.0558,113.0951,561.1686,108.2306,562.82,117.94" style="stroke:#008000;stroke-width:1.0;"/></g><!--link abrirEntregables to ENTREGABLES_ABIERTOS--><g id="link_abrirEntregables_ENTREGABLES_ABIERTOS"><path d="M193,765.25 C176.53,783.74 166.5,795 166.5,795 C166.5,795 155.7001,828.5091 147.1101,855.1691 " fill="none" id="abrirEntregables-to-ENTREGABLES_ABIERTOS" style="stroke:#008000;stroke-width:1.0;"/><polygon fill="#008000" points="145.27,860.88,151.8374,853.5404,146.8034,856.1209,144.2229,851.087,145.27,860.88" style="stroke:#008000;stroke-width:1.0;"/><path d="M171.5,800 L171.5,826 L381.5,826 L381.5,810 L371.5,800 L171.5,800 " fill="#FEFFDD" style="stroke:#181818;stroke-width:0.5;"/><path d="M371.5,800 L371.5,810 L381.5,810 L371.5,800 " fill="#FEFFDD" style="stroke:#181818;stroke-width:0.5;"/><text fill="#000000" font-family="sans-serif" font-size="13" lengthAdjust="spacing" textLength="189" x="177.5" y="818.4951">Listado de entregables mostrado</text></g><!--link abrirEntregables to ENTREGABLE_ABIERTO--><g id="link_abrirEntregables_ENTREGABLE_ABIERTO"><path d="M401.76,765.25 C397.25,783.74 394.5,795 394.5,795 C394.5,795 394.5,831 394.5,831 C394.5,831 409.0173,842.7062 426.8573,857.0762 " fill="none" id="abrirEntregables-to-ENTREGABLE_ABIERTO" style="stroke:#008000;stroke-width:1.0;"/><polygon fill="#008000" points="431.53,860.84,427.0302,852.0792,427.6361,857.7035,422.0118,858.3094,431.53,860.84" style="stroke:#008000;stroke-width:1.0;"/><path d="M399.5,800 L399.5,826 L515.5,826 L515.5,810 L505.5,800 L399.5,800 " fill="#FEFFDD" style="stroke:#181818;stroke-width:0.5;"/><path d="M505.5,800 L505.5,810 L515.5,810 L505.5,800 " fill="#FEFFDD" style="stroke:#181818;stroke-width:0.5;"/><text fill="#000000" font-family="sans-serif" font-size="13" lengthAdjust="spacing" textLength="95" x="405.5" y="818.4951">abrirEntregable()</text></g><!--link abrirEntregables to ENTREGABLE_ABIERTO--><g id="link_abrirEntregables_ENTREGABLE_ABIERTO"><path d="M520.79,765.25 C523.09,783.74 524.5,795 524.5,795 C524.5,795 524.5,831 524.5,831 C524.5,831 511.0173,842.5673 494.2373,856.9373 " fill="none" id="abrirEntregables-to-ENTREGABLE_ABIERTO-1" style="stroke:#008000;stroke-width:1.0;"/><polygon fill="#008000" points="489.68,860.84,499.1177,858.0241,493.4777,857.5877,493.9141,851.9477,489.68,860.84" style="stroke:#008000;stroke-width:1.0;"/><path d="M529.5,800 L529.5,826 L649.5,826 L649.5,810 L639.5,800 L529.5,800 " fill="#FEFFDD" style="stroke:#181818;stroke-width:0.5;"/><path d="M639.5,800 L639.5,810 L649.5,810 L639.5,800 " fill="#FEFFDD" style="stroke:#181818;stroke-width:0.5;"/><text fill="#000000" font-family="sans-serif" font-size="13" lengthAdjust="spacing" textLength="99" x="535.5" y="818.4951">crearEntregable()</text></g><!--link abrirEntregables to PROYECTO_ABIERTO--><g id="link_abrirEntregables_PROYECTO_ABIERTO"><path d="M665.03,765.25 C687.83,805.13 704.4419,834.1813 716.7519,855.7113 " fill="none" id="abrirEntregables-to-PROYECTO_ABIERTO" style="stroke:#008000;stroke-width:1.0;"/><polygon fill="#008000" points="719.73,860.92,718.7353,851.1215,717.2482,856.5794,711.7903,855.0924,719.73,860.92" style="stroke:#008000;stroke-width:1.0;"/><path d="M706.5,800 L706.5,826 L812.5,826 L812.5,810 L802.5,800 L706.5,800 " fill="#FEFFDD" style="stroke:#181818;stroke-width:0.5;"/><path d="M802.5,800 L802.5,810 L812.5,810 L802.5,800 " fill="#FEFFDD" style="stroke:#181818;stroke-width:0.5;"/><text fill="#000000" font-family="sans-serif" font-size="13" lengthAdjust="spacing" textLength="85" x="712.5" y="818.4951">abrirProyecto()</text></g><!--SRC=[hLNDQjj04BxhAGRtOXT2Q8ub6EnKAGQt3hOfb13AM9guIrQxwkxAu9P2dwNtd7hBrM_I9-b8YgnV5zTKFaYxE_FDzytFsZu85QF12AHGvBOnGQpbDbruddNe28Hw1MYXTpEVVVIlbhDFe_74dozdFIyzERjziJP4wkvi2BWomlZA6LhZIf8j4Iuo1F_zSkw_7OsdVXNZuYYCvdu6sDpi3thmpVE0dzohnpysN6Wf0k5GXNeKat69mRRHEssTIKscWlT3tRQu5ZAt62SsIDzvgDkNTpK9Xw8fpL1QfPb-o3OkLyE9sf1rOitnpENvQWZssJaN35J9HEf2AinmyiWTaMfCEYLrqLZmEKMOCOWDMGwBi8MDi0bAyHM19Djd611IbHKl9RleBGLEGw3Lwmppzu-VC7cp_rpk7bqYTRaMSRcufk0pWjmzHeA55Rj-oJW3K_VQH1Y8tIy56B9ihL12tmh0cBE00wzJ39aKbLlG6Hqc0QVqFgsYjYnljNkoNn8AyM-UHK5CAMpKACt-uCeGTXvyq7931h1CLKSrczMgbRBTUqUtLA6Tzj9rGtgTHolKYKIgsOmIIiKTwYbBwzsJAlYTdyxkw8u_F7ZSmqweX0l9NnMI_renlXPE7lj4LRee6x4gYIC7je9Gm3TLVFUyriLQrL3Us8lYobvuDK7JxbiXoZB3uSg47HceY5CFqt3k3_uNS92Ex2d0pR_33hutpxDU1Vq3]--></g></svg>