<svg xmlns="http://www.w3.org/2000/svg" xmlns:xlink="http://www.w3.org/1999/xlink" contentStyleType="text/css" data-diagram-type="SALT" height="285px" preserveAspectRatio="none" style="width:514px;height:285px;background:#FFFFFF;" version="1.1" viewBox="0 0 514 285" width="514px" zoomAndPan="magnify"><defs/><g><line style="stroke:#AAAAAA;stroke-width:1;" x1="6" x2="507" y1="8.5" y2="8.5"/><line style="stroke:#AAAAAA;stroke-width:1;" x1="6" x2="507" y1="10.5" y2="10.5"/><text fill="#000000" font-family="sans-serif" font-size="12" font-weight="bold" lengthAdjust="spacing" textLength="237.791" x="6" y="25.1387">GIPF - LISTADO DE PUBLICACIONES</text><line style="stroke:#AAAAAA;stroke-width:1;" x1="6" x2="507" y1="32.4688" y2="32.4688"/><line style="stroke:#AAAAAA;stroke-width:1;" x1="6" x2="507" y1="34.4688" y2="34.4688"/><text fill="#000000" font-family="sans-serif" font-size="12" font-weight="bold" lengthAdjust="spacing" textLength="196.8691" x="7" y="50.1074">Filtrar / buscar publicaciones</text><text fill="#000000" font-family="sans-serif" font-size="12" font-weight="bold" lengthAdjust="spacing" textLength="43.7344" x="9" y="68.0762">T&#237;tulo:</text><rect fill="#EEEEEE" height="17.9688" rx="5" ry="5" style="stroke:#000000;stroke-width:2.5;" width="244" x="57.2344" y="59.4375"/><text fill="#000000" font-family="sans-serif" font-size="12" lengthAdjust="spacing" textLength="3.8145" x="177.3271" y="72.5762">&#160;</text><text fill="#000000" font-family="sans-serif" font-size="12" font-weight="bold" lengthAdjust="spacing" textLength="42.5273" x="9" y="95.0449">Autor:</text><rect fill="#EEEEEE" height="17.9688" rx="5" ry="5" style="stroke:#000000;stroke-width:2.5;" width="244" x="56.0273" y="86.4063"/><text fill="#000000" font-family="sans-serif" font-size="12" lengthAdjust="spacing" textLength="3.8145" x="176.1201" y="99.5449">&#160;</text><text fill="#000000" font-family="sans-serif" font-size="12" font-weight="bold" lengthAdjust="spacing" textLength="44.8887" x="9" y="122.0137">Fecha:</text><rect fill="#EEEEEE" height="17.9688" rx="5" ry="5" style="stroke:#000000;stroke-width:2.5;" width="84" x="58.3887" y="113.375"/><text fill="#000000" font-family="sans-serif" font-size="12" lengthAdjust="spacing" textLength="76.6875" x="62.0449" y="126.5137">dd-mm-aaaa</text><line style="stroke:#AAAAAA;stroke-width:1.5;" x1="7" x2="506" y1="141.3438" y2="141.3438"/><text fill="#000000" font-family="sans-serif" font-size="12" font-weight="bold" lengthAdjust="spacing" textLength="167.1094" x="7" y="156.9824">Listado de publicaciones</text><line style="stroke:#AAAAAA;stroke-width:1;" x1="7" x2="506" y1="165.3125" y2="165.3125"/><text fill="#000000" font-family="sans-serif" font-size="12" font-weight="bold" lengthAdjust="spacing" textLength="38.9355" x="9" y="182.9512">T&#237;tulo</text><text fill="#000000" font-family="sans-serif" font-size="12" font-weight="bold" lengthAdjust="spacing" textLength="37.7285" x="49.9355" y="182.9512">Autor</text><text fill="#000000" font-family="sans-serif" font-size="12" font-weight="bold" lengthAdjust="spacing" textLength="40.0898" x="89.6641" y="182.9512">Fecha</text><text fill="#000000" font-family="sans-serif" font-size="12" lengthAdjust="spacing" textLength="200.5488" x="12" y="200.9199">Nuevas pol&#237;ticas de investigaci&#243;n</text><line style="stroke:#000000;stroke-width:1;" x1="10" x2="277" y1="203.75" y2="203.75"/><line style="stroke:#000000;stroke-width:1;" x1="10" x2="10" y1="200.75" y2="202.75"/><line style="stroke:#000000;stroke-width:1;" x1="277" x2="277" y1="200.75" y2="202.75"/><text fill="#000000" font-family="sans-serif" font-size="12" lengthAdjust="spacing" textLength="104.4902" x="284" y="200.9199">Carlos Fern&#225;ndez</text><line style="stroke:#000000;stroke-width:1;" x1="282" x2="413" y1="203.75" y2="203.75"/><line style="stroke:#000000;stroke-width:1;" x1="282" x2="282" y1="200.75" y2="202.75"/><line style="stroke:#000000;stroke-width:1;" x1="413" x2="413" y1="200.75" y2="202.75"/><text fill="#000000" font-family="sans-serif" font-size="12" lengthAdjust="spacing" textLength="69.7383" x="420" y="200.9199">10-01-2025</text><line style="stroke:#000000;stroke-width:1;" x1="418" x2="501" y1="203.75" y2="203.75"/><line style="stroke:#000000;stroke-width:1;" x1="418" x2="418" y1="200.75" y2="202.75"/><line style="stroke:#000000;stroke-width:1;" x1="501" x2="501" y1="200.75" y2="202.75"/><text fill="#000000" font-family="sans-serif" font-size="12" lengthAdjust="spacing" textLength="151.0781" x="12" y="220.8887">An&#225;lisis de productividad</text><line style="stroke:#000000;stroke-width:1;" x1="10" x2="213" y1="223.7188" y2="223.7188"/><line style="stroke:#000000;stroke-width:1;" x1="10" x2="10" y1="220.7188" y2="222.7188"/><line style="stroke:#000000;stroke-width:1;" x1="213" x2="213" y1="220.7188" y2="222.7188"/><text fill="#000000" font-family="sans-serif" font-size="12" lengthAdjust="spacing" textLength="88.9746" x="220" y="220.8887">Marta S&#225;nchez</text><line style="stroke:#000000;stroke-width:1;" x1="218" x2="325" y1="223.7188" y2="223.7188"/><line style="stroke:#000000;stroke-width:1;" x1="218" x2="218" y1="220.7188" y2="222.7188"/><line style="stroke:#000000;stroke-width:1;" x1="325" x2="325" y1="220.7188" y2="222.7188"/><text fill="#000000" font-family="sans-serif" font-size="12" lengthAdjust="spacing" textLength="69.7383" x="332" y="220.8887">05-03-2025</text><line style="stroke:#000000;stroke-width:1;" x1="330" x2="413" y1="223.7188" y2="223.7188"/><line style="stroke:#000000;stroke-width:1;" x1="330" x2="330" y1="220.7188" y2="222.7188"/><line style="stroke:#000000;stroke-width:1;" x1="413" x2="413" y1="220.7188" y2="222.7188"/><text fill="#000000" font-family="sans-serif" font-size="12" lengthAdjust="spacing" textLength="162.4043" x="12" y="240.8574">Plataforma de seguimiento</text><line style="stroke:#000000;stroke-width:1;" x1="10" x2="213" y1="243.6875" y2="243.6875"/><line style="stroke:#000000;stroke-width:1;" x1="10" x2="10" y1="240.6875" y2="242.6875"/><line style="stroke:#000000;stroke-width:1;" x1="213" x2="213" y1="240.6875" y2="242.6875"/><text fill="#000000" font-family="sans-serif" font-size="12" lengthAdjust="spacing" textLength="69.7031" x="220" y="240.8574">Luis G&#243;mez</text><line style="stroke:#000000;stroke-width:1;" x1="218" x2="301" y1="243.6875" y2="243.6875"/><line style="stroke:#000000;stroke-width:1;" x1="218" x2="218" y1="240.6875" y2="242.6875"/><line style="stroke:#000000;stroke-width:1;" x1="301" x2="301" y1="240.6875" y2="242.6875"/><text fill="#000000" font-family="sans-serif" font-size="12" lengthAdjust="spacing" textLength="69.7383" x="308" y="240.8574">12-02-2024</text><line style="stroke:#000000;stroke-width:1;" x1="306" x2="389" y1="243.6875" y2="243.6875"/><line style="stroke:#000000;stroke-width:1;" x1="306" x2="306" y1="240.6875" y2="242.6875"/><line style="stroke:#000000;stroke-width:1;" x1="389" x2="389" y1="240.6875" y2="242.6875"/><line style="stroke:#AAAAAA;stroke-width:1.5;" x1="7" x2="506" y1="253.1875" y2="253.1875"/><rect fill="#EEEEEE" height="17.9688" rx="5" ry="5" style="stroke:#000000;stroke-width:2.5;" width="140" x="10.5" y="261.1875"/><text fill="#000000" font-family="sans-serif" font-size="12" lengthAdjust="spacing" textLength="101.1797" x="29.9102" y="274.3262">Abrir publicaci&#243;n</text><rect fill="#EEEEEE" height="17.9688" rx="5" ry="5" style="stroke:#000000;stroke-width:2.5;" width="124" x="157.5" y="261.1875"/><text fill="#000000" font-family="sans-serif" font-size="12" lengthAdjust="spacing" textLength="79.3184" x="179.8408" y="274.3262">Aplicar filtros</text><rect fill="#EEEEEE" height="17.9688" rx="5" ry="5" style="stroke:#000000;stroke-width:2.5;" width="124" x="288.5" y="261.1875"/><text fill="#000000" font-family="sans-serif" font-size="12" lengthAdjust="spacing" textLength="82.8867" x="309.0566" y="274.3262">Limpiar filtros</text><rect fill="#EEEEEE" height="17.9688" rx="5" ry="5" style="stroke:#000000;stroke-width:2.5;" width="68" x="419.5" y="261.1875"/><text fill="#000000" font-family="sans-serif" font-size="12" lengthAdjust="spacing" textLength="52.9395" x="427.0303" y="274.3262">Cancelar</text><!--SRC=[dPFDRjf04CVl-nGZJid1YKsJga9f58SlGKr01NA9EApjXQngxrhxuQXDoRlq0NhA8_1YdJK40gqIgNFQ7S__j_FbAsseCffc1cYik1hPEEC9JRWKJ7iFNB6veZaZZmJGFgDLXuluijiRTS23g3UUXAqXjDemcbv7lMROx0rlskEBq_XoNxD6RDGTdXb55Pn2R7M2X-BrmrlnlgwweNYo-cri9Xik37x27Rnfi-LVWD0QgTRo_z9tM79FT_eqzVBSesWps0KloVRuz4HU5nznx7eg8MLlbErvxtTWqu2NYdRNAa5tFSYzTcDPIJKKCaC2FgnT4boKJ1k-m3HMpwA6Y5gJgangw30bLhz4odvKti3t_C2h-_NpsY4unBYCQru12oLJcnXUyfIcjMqK4WQuRHJ6o4pk7RHo-kUU_-7Vs5563PrBbLF7rMnXUSwPC7AF6bbyjxjwpjV8jJEeUtxTKSzgxmxbyIvqsxyR1_PXvaOR5kwkOExsLUhA5_6yu0U-9XK9owZQBCkIBCaL4wdxiGZ18eIP3Y8ecT8uQGXENB4dGH0pGmF_Q2g-2VaW8958pXWOdhDZSjGTHQ2bLGc355T6yTWQb1-JFYqfVBN2nJLWM33HRtrvSK1Rb5n9aMERIFzsi0luUEPTSmDZfZ0Hk1sG5fjJYxz-MoGovMBHWEcautqY4HKBInV8Pe8q9NBLT_ms_WC0]--></g></svg>