<?xml version="1.0" encoding="us-ascii" standalone="no"?><svg xmlns="http://www.w3.org/2000/svg" xmlns:xlink="http://www.w3.org/1999/xlink" contentStyleType="text/css" height="702px" preserveAspectRatio="none" style="width:2449px;height:702px;background:#FFFFFF;" version="1.1" viewBox="0 0 2449 702" width="2449px" zoomAndPan="magnify"><defs/><g><g id="in1"><rect fill="#F1F1F1" height="50" rx="12.5" ry="12.5" style="stroke:#181818;stroke-width:0.5;" width="217" x="213.5" y="7"/><line style="stroke:#181818;stroke-width:0.5;" x1="213.5" x2="430.5" y1="34.6094" y2="34.6094"/><text fill="#000000" font-family="sans-serif" font-size="14" lengthAdjust="spacing" textLength="197" x="223.5" y="26.5332">INVESTIGADORES_ABIERTOS</text></g><path d="M1039.5,118 L1540.5,118 A12.5,12.5 0 0 1 1553,130.5 L1553,145.6094 L1027,145.6094 L1027,130.5 A12.5,12.5 0 0 1 1039.5,118 " fill="#F1F1F1" style="stroke:#F1F1F1;stroke-width:1.0;"/><rect fill="none" height="431.6094" rx="12.5" ry="12.5" style="stroke:#181818;stroke-width:0.5;" width="526" x="1027" y="118"/><line style="stroke:#181818;stroke-width:0.5;" x1="1027" x2="1553" y1="145.6094" y2="145.6094"/><text fill="#000000" font-family="sans-serif" font-size="14" lengthAdjust="spacing" textLength="129" x="1225.5" y="137.5332">abrirPanelPrincipal()</text><g id="abrirPanelPrincipal.MostrandoPanel"><rect fill="#F1F1F1" height="50" rx="12.5" ry="12.5" style="stroke:#181818;stroke-width:0.5;" width="50" x="1039" y="248.6094"/><line style="stroke:#181818;stroke-width:0.5;" x1="1039" x2="1089" y1="276.2188" y2="276.2188"/><text fill="#000000" font-family="sans-serif" font-size="14" lengthAdjust="spacing" textLength="4" x="1062" y="268.1426">&#160;</text></g><ellipse cx="1064" cy="166.6094" fill="#222222" rx="10" ry="10" style="stroke:#222222;stroke-width:1.0;"/><ellipse cx="1064" cy="528.6094" fill="none" rx="11" ry="11" style="stroke:#222222;stroke-width:1.0;"/><ellipse cx="1064" cy="528.6094" fill="#222222" rx="6" ry="6" style="stroke:#222222;stroke-width:1.0;"/><!--link *start*abrirPanelPrincipal to MostrandoPanel--><g id="link_*start*abrirPanelPrincipal_MostrandoPanel"><path d="M1064,176.9294 C1064,192.7894 1064,219.5194 1064,242.2494 " fill="none" id="*start*abrirPanelPrincipal-to-MostrandoPanel" style="stroke:#008000;stroke-width:1.0;"/><polygon fill="#008000" points="1064,248.2494,1068,239.2494,1064,243.2494,1060,239.2494,1064,248.2494" style="stroke:#008000;stroke-width:1.0;"/><path d="M1069,199.6094 L1069,225.6094 L1344,225.6094 L1344,209.6094 L1334,199.6094 L1069,199.6094 " fill="#FEFFDD" style="stroke:#181818;stroke-width:0.5;"/><path d="M1334,199.6094 L1334,209.6094 L1344,209.6094 L1334,199.6094 " fill="#FEFFDD" style="stroke:#181818;stroke-width:0.5;"/><text fill="#000000" font-family="sans-serif" font-size="13" font-weight="bold" lengthAdjust="spacing" textLength="79" x="1075" y="218.1045">Coordinador</text><text fill="#000000" font-family="sans-serif" font-size="13" lengthAdjust="spacing" textLength="171" x="1158" y="218.1045">solicita abrir el panel principal</text></g><!--link MostrandoPanel to *end*abrirPanelPrincipal--><g id="link_MostrandoPanel_*end*abrirPanelPrincipal"><path d="M1064,298.8694 C1064,352.7894 1064,474.7494 1064,511.5494 " fill="none" id="MostrandoPanel-to-*end*abrirPanelPrincipal" style="stroke:#008000;stroke-width:1.0;"/><polygon fill="#008000" points="1064,517.5494,1068,508.5494,1064,512.5494,1060,508.5494,1064,517.5494" style="stroke:#008000;stroke-width:1.0;"/><path d="M1069,321.6094 L1069,494.6094 L1544,494.6094 L1544,331.6094 L1534,321.6094 L1069,321.6094 " fill="#FEFFDD" style="stroke:#181818;stroke-width:0.5;"/><path d="M1534,321.6094 L1534,331.6094 L1544,331.6094 L1534,321.6094 " fill="#FEFFDD" style="stroke:#181818;stroke-width:0.5;"/><text fill="#000000" font-family="sans-serif" font-size="13" font-weight="bold" lengthAdjust="spacing" textLength="51" x="1075" y="340.1045">Sistema</text><text fill="#000000" font-family="sans-serif" font-size="13" lengthAdjust="spacing" textLength="399" x="1130" y="340.1045">muestra el panel principal y permite solicitar las siguientes acciones:</text><text fill="#000000" font-family="sans-serif" font-size="13" lengthAdjust="spacing" textLength="125" x="1075" y="356.4561">&#8226; Consultar proyectos</text><text fill="#000000" font-family="sans-serif" font-size="13" lengthAdjust="spacing" textLength="150" x="1075" y="372.8076">&#8226; Consultar investigadores</text><text fill="#000000" font-family="sans-serif" font-size="13" lengthAdjust="spacing" textLength="147" x="1075" y="389.1592">&#8226; Consultar convocatorias</text><text fill="#000000" font-family="sans-serif" font-size="13" lengthAdjust="spacing" textLength="146" x="1075" y="405.5107">&#8226; Consultar recompensas</text><text fill="#000000" font-family="sans-serif" font-size="13" lengthAdjust="spacing" textLength="172" x="1075" y="421.8623">&#8226; Consultar mis publicaciones</text><text fill="#000000" font-family="sans-serif" font-size="13" lengthAdjust="spacing" textLength="147" x="1075" y="438.2139">&#8226; Consultar publicaciones</text><text fill="#000000" font-family="sans-serif" font-size="13" lengthAdjust="spacing" textLength="173" x="1075" y="454.5654">&#8226; Acceder a opciones de perfil</text><text fill="#000000" font-family="sans-serif" font-size="13" lengthAdjust="spacing" textLength="343" x="1075" y="470.917">&#8226; Acceder a opciones de carga de trabajo de investigadores</text><text fill="#000000" font-family="sans-serif" font-size="13" lengthAdjust="spacing" textLength="86" x="1075" y="487.2686">&#8226; Cerrar sesi&#243;n</text></g><g id="in2"><rect fill="#F1F1F1" height="50" rx="12.5" ry="12.5" style="stroke:#181818;stroke-width:0.5;" width="294" x="466" y="7"/><line style="stroke:#181818;stroke-width:0.5;" x1="466" x2="760" y1="34.6094" y2="34.6094"/><text fill="#000000" font-family="sans-serif" font-size="14" lengthAdjust="spacing" textLength="274" x="476" y="26.5332">OPCIONES_CARGA_TRABAJO_ABIERTAS</text></g><g id="in3"><rect fill="#F1F1F1" height="50" rx="12.5" ry="12.5" style="stroke:#181818;stroke-width:0.5;" width="215" x="795.5" y="7"/><line style="stroke:#181818;stroke-width:0.5;" x1="795.5" x2="1010.5" y1="34.6094" y2="34.6094"/><text fill="#000000" font-family="sans-serif" font-size="14" lengthAdjust="spacing" textLength="195" x="805.5" y="26.5332">OPCIONES_PERFIL_ABIERTO</text></g><g id="in4"><rect fill="#F1F1F1" height="50" rx="12.5" ry="12.5" style="stroke:#181818;stroke-width:0.5;" width="234" x="1046" y="7"/><line style="stroke:#181818;stroke-width:0.5;" x1="1046" x2="1280" y1="34.6094" y2="34.6094"/><text fill="#000000" font-family="sans-serif" font-size="14" lengthAdjust="spacing" textLength="214" x="1056" y="26.5332">MIS_PUBLICACIONES_ABIERTAS</text></g><g id="in5"><rect fill="#F1F1F1" height="50" rx="12.5" ry="12.5" style="stroke:#181818;stroke-width:0.5;" width="203" x="1315.5" y="7"/><line style="stroke:#181818;stroke-width:0.5;" x1="1315.5" x2="1518.5" y1="34.6094" y2="34.6094"/><text fill="#000000" font-family="sans-serif" font-size="14" lengthAdjust="spacing" textLength="183" x="1325.5" y="26.5332">PUBLICACIONES_ABIERTAS</text></g><g id="in6"><rect fill="#F1F1F1" height="50" rx="12.5" ry="12.5" style="stroke:#181818;stroke-width:0.5;" width="215" x="1553.5" y="7"/><line style="stroke:#181818;stroke-width:0.5;" x1="1553.5" x2="1768.5" y1="34.6094" y2="34.6094"/><text fill="#000000" font-family="sans-serif" font-size="14" lengthAdjust="spacing" textLength="195" x="1563.5" y="26.5332">CONVOCATORIAS_ABIERTAS</text></g><g id="in7"><rect fill="#F1F1F1" height="50" rx="12.5" ry="12.5" style="stroke:#181818;stroke-width:0.5;" width="200" x="1804" y="7"/><line style="stroke:#181818;stroke-width:0.5;" x1="1804" x2="2004" y1="34.6094" y2="34.6094"/><text fill="#000000" font-family="sans-serif" font-size="14" lengthAdjust="spacing" textLength="180" x="1814" y="26.5332">RECOMPENSAS_ABIERTAS</text></g><g id="in8"><rect fill="#F1F1F1" height="50" rx="12.5" ry="12.5" style="stroke:#181818;stroke-width:0.5;" width="184" x="2039" y="7"/><line style="stroke:#181818;stroke-width:0.5;" x1="2039" x2="2223" y1="34.6094" y2="34.6094"/><text fill="#000000" font-family="sans-serif" font-size="14" lengthAdjust="spacing" textLength="164" x="2049" y="26.5332">PROYECTOS_ABIERTOS</text></g><g id="PANEL_PRINCIPAL_ABIERTO"><rect fill="#F1F1F1" height="50" rx="12.5" ry="12.5" style="stroke:#181818;stroke-width:0.5;" width="210" x="7" y="646"/><line style="stroke:#181818;stroke-width:0.5;" x1="7" x2="217" y1="673.6094" y2="673.6094"/><text fill="#000000" font-family="sans-serif" font-size="14" lengthAdjust="spacing" textLength="190" x="17" y="665.5332">PANEL_PRINCIPAL_ABIERTO</text></g><g id="OPCIONES_PERFIL_ABIERTO"><rect fill="#F1F1F1" height="50" rx="12.5" ry="12.5" style="stroke:#181818;stroke-width:0.5;" width="215" x="252.5" y="646"/><line style="stroke:#181818;stroke-width:0.5;" x1="252.5" x2="467.5" y1="673.6094" y2="673.6094"/><text fill="#000000" font-family="sans-serif" font-size="14" lengthAdjust="spacing" textLength="195" x="262.5" y="665.5332">OPCIONES_PERFIL_ABIERTO</text></g><g id="OPCIONES_CARGA_TRABAJO_ABIERTAS"><rect fill="#F1F1F1" height="50" rx="12.5" ry="12.5" style="stroke:#181818;stroke-width:0.5;" width="294" x="503" y="646"/><line style="stroke:#181818;stroke-width:0.5;" x1="503" x2="797" y1="673.6094" y2="673.6094"/><text fill="#000000" font-family="sans-serif" font-size="14" lengthAdjust="spacing" textLength="274" x="513" y="665.5332">OPCIONES_CARGA_TRABAJO_ABIERTAS</text></g><g id="PROYECTOS_ABIERTOS"><rect fill="#F1F1F1" height="50" rx="12.5" ry="12.5" style="stroke:#181818;stroke-width:0.5;" width="184" x="832" y="646"/><line style="stroke:#181818;stroke-width:0.5;" x1="832" x2="1016" y1="673.6094" y2="673.6094"/><text fill="#000000" font-family="sans-serif" font-size="14" lengthAdjust="spacing" textLength="164" x="842" y="665.5332">PROYECTOS_ABIERTOS</text></g><g id="INVESTIGADORES_ABIERTOS"><rect fill="#F1F1F1" height="50" rx="12.5" ry="12.5" style="stroke:#181818;stroke-width:0.5;" width="217" x="1051.5" y="646"/><line style="stroke:#181818;stroke-width:0.5;" x1="1051.5" x2="1268.5" y1="673.6094" y2="673.6094"/><text fill="#000000" font-family="sans-serif" font-size="14" lengthAdjust="spacing" textLength="197" x="1061.5" y="665.5332">INVESTIGADORES_ABIERTOS</text></g><g id="MIS_PUBLICACIONES_ABIERTAS"><rect fill="#F1F1F1" height="50" rx="12.5" ry="12.5" style="stroke:#181818;stroke-width:0.5;" width="234" x="1304" y="646"/><line style="stroke:#181818;stroke-width:0.5;" x1="1304" x2="1538" y1="673.6094" y2="673.6094"/><text fill="#000000" font-family="sans-serif" font-size="14" lengthAdjust="spacing" textLength="214" x="1314" y="665.5332">MIS_PUBLICACIONES_ABIERTAS</text></g><g id="PUBLICACIONES_ABIERTAS"><rect fill="#F1F1F1" height="50" rx="12.5" ry="12.5" style="stroke:#181818;stroke-width:0.5;" width="203" x="1573.5" y="646"/><line style="stroke:#181818;stroke-width:0.5;" x1="1573.5" x2="1776.5" y1="673.6094" y2="673.6094"/><text fill="#000000" font-family="sans-serif" font-size="14" lengthAdjust="spacing" textLength="183" x="1583.5" y="665.5332">PUBLICACIONES_ABIERTAS</text></g><g id="CONVOCATORIAS_ABIERTAS"><rect fill="#F1F1F1" height="50" rx="12.5" ry="12.5" style="stroke:#181818;stroke-width:0.5;" width="215" x="1811.5" y="646"/><line style="stroke:#181818;stroke-width:0.5;" x1="1811.5" x2="2026.5" y1="673.6094" y2="673.6094"/><text fill="#000000" font-family="sans-serif" font-size="14" lengthAdjust="spacing" textLength="195" x="1821.5" y="665.5332">CONVOCATORIAS_ABIERTAS</text></g><g id="RECOMPENSAS_ABIERTAS"><rect fill="#F1F1F1" height="50" rx="12.5" ry="12.5" style="stroke:#181818;stroke-width:0.5;" width="200" x="2062" y="646"/><line style="stroke:#181818;stroke-width:0.5;" x1="2062" x2="2262" y1="673.6094" y2="673.6094"/><text fill="#000000" font-family="sans-serif" font-size="14" lengthAdjust="spacing" textLength="180" x="2072" y="665.5332">RECOMPENSAS_ABIERTAS</text></g><g id="SESION_CERRADA"><rect fill="#F1F1F1" height="50" rx="12.5" ry="12.5" style="stroke:#181818;stroke-width:0.5;" width="145" x="2297.5" y="646"/><line style="stroke:#181818;stroke-width:0.5;" x1="2297.5" x2="2442.5" y1="673.6094" y2="673.6094"/><text fill="#000000" font-family="sans-serif" font-size="14" lengthAdjust="spacing" textLength="125" x="2307.5" y="665.5332">SESION_CERRADA</text></g><!--link in1 to abrirPanelPrincipal--><g id="link_in1_abrirPanelPrincipal"><path d="M399.58,57.04 C534,98.7 810.2989,184.334 1021.1489,249.674 " fill="none" id="in1-to-abrirPanelPrincipal" style="stroke:#008000;stroke-width:1.0;"/><polygon fill="#008000" points="1026.88,251.45,1019.4673,244.9652,1022.1041,249.97,1017.0993,252.6067,1026.88,251.45" style="stroke:#008000;stroke-width:1.0;"/></g><!--link in2 to abrirPanelPrincipal--><g id="link_in2_abrirPanelPrincipal"><path d="M667.26,57.04 C745.23,91.59 888.7245,155.1792 1021.4145,213.9792 " fill="none" id="in2-to-abrirPanelPrincipal" style="stroke:#008000;stroke-width:1.0;"/><polygon fill="#008000" points="1026.9,216.41,1020.2923,209.1067,1022.3287,214.3843,1017.0511,216.4207,1026.9,216.41" style="stroke:#008000;stroke-width:1.0;"/></g><!--link in3 to abrirPanelPrincipal--><g id="link_in3_abrirPanelPrincipal"><path d="M934.02,57.04 C956.62,74.56 984.908,96.4939 1021.878,125.1539 " fill="none" id="in3-to-abrirPanelPrincipal" style="stroke:#008000;stroke-width:1.0;"/><polygon fill="#008000" points="1026.62,128.83,1021.9578,120.1545,1022.6684,125.7666,1017.0563,126.4772,1026.62,128.83" style="stroke:#008000;stroke-width:1.0;"/></g><!--link in4 to abrirPanelPrincipal--><g id="link_in4_abrirPanelPrincipal"><path d="M1173.18,57.04 C1179.62,72.27 1186.3228,88.0739 1196.5328,112.2139 " fill="none" id="in4-to-abrirPanelPrincipal" style="stroke:#008000;stroke-width:1.0;"/><polygon fill="#008000" points="1198.87,117.74,1199.0482,107.8928,1196.9223,113.135,1191.6801,111.0091,1198.87,117.74" style="stroke:#008000;stroke-width:1.0;"/></g><!--link in5 to abrirPanelPrincipal--><g id="link_in5_abrirPanelPrincipal"><path d="M1406.82,57.04 C1400.38,72.27 1393.6772,88.0739 1383.4672,112.2139 " fill="none" id="in5-to-abrirPanelPrincipal" style="stroke:#008000;stroke-width:1.0;"/><polygon fill="#008000" points="1381.13,117.74,1388.3199,111.0091,1383.0777,113.135,1380.9518,107.8928,1381.13,117.74" style="stroke:#008000;stroke-width:1.0;"/></g><!--link in6 to abrirPanelPrincipal--><g id="link_in6_abrirPanelPrincipal"><path d="M1631.27,57.04 C1611.84,72.75 1589.025,91.1968 1558.005,116.2868 " fill="none" id="in6-to-abrirPanelPrincipal" style="stroke:#008000;stroke-width:1.0;"/><polygon fill="#008000" points="1553.34,120.06,1562.8531,117.5102,1557.2275,116.9156,1557.8221,111.2901,1553.34,120.06" style="stroke:#008000;stroke-width:1.0;"/></g><!--link in7 to abrirPanelPrincipal--><g id="link_in7_abrirPanelPrincipal"><path d="M1854.79,57.04 C1788.84,89.27 1672.2709,146.2259 1558.5209,201.8059 " fill="none" id="in7-to-abrirPanelPrincipal" style="stroke:#008000;stroke-width:1.0;"/><polygon fill="#008000" points="1553.13,204.44,1562.9724,204.0828,1557.6224,202.2449,1559.4603,196.895,1553.13,204.44" style="stroke:#008000;stroke-width:1.0;"/></g><!--link in8 to abrirPanelPrincipal--><g id="link_in8_abrirPanelPrincipal"><path d="M2063.6,57.04 C1954.07,96.11 1737.4012,173.4041 1559.0812,237.0141 " fill="none" id="in8-to-abrirPanelPrincipal" style="stroke:#008000;stroke-width:1.0;"/><polygon fill="#008000" points="1553.43,239.03,1563.2507,239.7736,1558.1393,237.3501,1560.5629,232.2387,1553.43,239.03" style="stroke:#008000;stroke-width:1.0;"/></g><!--link abrirPanelPrincipal to PANEL_PRINCIPAL_ABIERTO--><g id="link_abrirPanelPrincipal_PANEL_PRINCIPAL_ABIERTO"><path d="M1026.96,402.27 C743.35,474.8 332,580 332,580 C332,580 241.3933,617.0682 176.2233,643.7282 " fill="none" id="abrirPanelPrincipal-to-PANEL_PRINCIPAL_ABIERTO" style="stroke:#008000;stroke-width:1.0;"/><polygon fill="#008000" points="170.67,646,180.5145,646.2946,175.2977,644.1069,177.4854,638.8902,170.67,646" style="stroke:#008000;stroke-width:1.0;"/><path d="M337,585 L337,611 L482,611 L482,595 L472,585 L337,585 " fill="#FEFFDD" style="stroke:#181818;stroke-width:0.5;"/><path d="M472,585 L472,595 L482,595 L472,585 " fill="#FEFFDD" style="stroke:#181818;stroke-width:0.5;"/><text fill="#000000" font-family="sans-serif" font-size="13" lengthAdjust="spacing" textLength="124" x="343" y="603.4951">Panel principal visible</text></g><!--link abrirPanelPrincipal to OPCIONES_PERFIL_ABIERTO--><g id="link_abrirPanelPrincipal_OPCIONES_PERFIL_ABIERTO"><path d="M1026.78,425.45 C823.63,495.25 577,580 577,580 C577,580 487.6922,617.0414 423.4122,643.7014 " fill="none" id="abrirPanelPrincipal-to-OPCIONES_PERFIL_ABIERTO" style="stroke:#008000;stroke-width:1.0;"/><polygon fill="#008000" points="417.87,646,427.7158,646.2469,422.4885,644.0845,424.6509,638.8572,417.87,646" style="stroke:#008000;stroke-width:1.0;"/><path d="M582,585 L582,611 L720,611 L720,595 L710,585 L582,585 " fill="#FEFFDD" style="stroke:#181818;stroke-width:0.5;"/><path d="M710,585 L710,595 L720,595 L710,585 " fill="#FEFFDD" style="stroke:#181818;stroke-width:0.5;"/><text fill="#000000" font-family="sans-serif" font-size="13" lengthAdjust="spacing" textLength="117" x="588" y="603.4951">abrirOpcionesPerfil()</text></g><!--link abrirPanelPrincipal to OPCIONES_CARGA_TRABAJO_ABIERTAS--><g id="link_abrirPanelPrincipal_OPCIONES_CARGA_TRABAJO_ABIERTAS"><path d="M1026.85,462.16 C903.4,521.82 783,580 783,580 C783,580 730.0093,615.8575 690.6093,642.5175 " fill="none" id="abrirPanelPrincipal-to-OPCIONES_CARGA_TRABAJO_ABIERTAS" style="stroke:#008000;stroke-width:1.0;"/><polygon fill="#008000" points="685.64,645.88,695.3356,644.1492,689.7811,643.0779,690.8523,637.5234,685.64,645.88" style="stroke:#008000;stroke-width:1.0;"/><path d="M788,585 L788,611 L973,611 L973,595 L963,585 L788,585 " fill="#FEFFDD" style="stroke:#181818;stroke-width:0.5;"/><path d="M963,585 L963,595 L973,595 L963,585 " fill="#FEFFDD" style="stroke:#181818;stroke-width:0.5;"/><text fill="#000000" font-family="sans-serif" font-size="13" lengthAdjust="spacing" textLength="164" x="794" y="603.4951">abrirOpcionesCargaTrabajo()</text></g><!--link abrirPanelPrincipal to PROYECTOS_ABIERTOS--><g id="link_abrirPanelPrincipal_PROYECTOS_ABIERTOS"><path d="M1055.1,550 C1012.78,588.74 978.9257,619.7286 954.8057,641.8086 " fill="none" id="abrirPanelPrincipal-to-PROYECTOS_ABIERTOS" style="stroke:#008000;stroke-width:1.0;"/><polygon fill="#008000" points="950.38,645.86,959.7194,642.7334,954.0681,642.4839,954.3176,636.8325,950.38,645.86" style="stroke:#008000;stroke-width:1.0;"/><path d="M1028,585 L1028,611 L1141,611 L1141,595 L1131,585 L1028,585 " fill="#FEFFDD" style="stroke:#181818;stroke-width:0.5;"/><path d="M1131,585 L1131,595 L1141,595 L1131,585 " fill="#FEFFDD" style="stroke:#181818;stroke-width:0.5;"/><text fill="#000000" font-family="sans-serif" font-size="13" lengthAdjust="spacing" textLength="92" x="1034" y="603.4951">abrirProyectos()</text></g><!--link abrirPanelPrincipal to INVESTIGADORES_ABIERTOS--><g id="link_abrirPanelPrincipal_INVESTIGADORES_ABIERTOS"><path d="M1206.57,550 C1191.53,588.74 1180.111,618.1865 1171.541,640.2665 " fill="none" id="abrirPanelPrincipal-to-INVESTIGADORES_ABIERTOS" style="stroke:#008000;stroke-width:1.0;"/><polygon fill="#008000" points="1169.37,645.86,1176.3555,638.9172,1171.1792,641.1988,1168.8975,636.0225,1169.37,645.86" style="stroke:#008000;stroke-width:1.0;"/><path d="M1200,585 L1200,611 L1336,611 L1336,595 L1326,585 L1200,585 " fill="#FEFFDD" style="stroke:#181818;stroke-width:0.5;"/><path d="M1326,585 L1326,595 L1336,595 L1326,585 " fill="#FEFFDD" style="stroke:#181818;stroke-width:0.5;"/><text fill="#000000" font-family="sans-serif" font-size="13" lengthAdjust="spacing" textLength="115" x="1206" y="603.4951">abrirInvestigadores()</text></g><!--link abrirPanelPrincipal to MIS_PUBLICACIONES_ABIERTAS--><g id="link_abrirPanelPrincipal_MIS_PUBLICACIONES_ABIERTAS"><path d="M1374.08,550 C1389.22,588.74 1400.7458,618.1917 1409.3758,640.2717 " fill="none" id="abrirPanelPrincipal-to-MIS_PUBLICACIONES_ABIERTAS" style="stroke:#008000;stroke-width:1.0;"/><polygon fill="#008000" points="1411.56,645.86,1412.0092,636.0214,1409.7398,641.2031,1404.5582,638.9337,1411.56,645.86" style="stroke:#008000;stroke-width:1.0;"/><path d="M1405,585 L1405,611 L1561,611 L1561,595 L1551,585 L1405,585 " fill="#FEFFDD" style="stroke:#181818;stroke-width:0.5;"/><path d="M1551,585 L1551,595 L1561,595 L1551,585 " fill="#FEFFDD" style="stroke:#181818;stroke-width:0.5;"/><text fill="#000000" font-family="sans-serif" font-size="13" lengthAdjust="spacing" textLength="135" x="1411" y="603.4951">abrirMisPublicaciones()</text></g><!--link abrirPanelPrincipal to PUBLICACIONES_ABIERTAS--><g id="link_abrirPanelPrincipal_PUBLICACIONES_ABIERTAS"><path d="M1539.46,550.2 C1560.53,568.38 1574,580 1574,580 C1574,580 1613.541,615.2277 1643.451,641.8877 " fill="none" id="abrirPanelPrincipal-to-PUBLICACIONES_ABIERTAS" style="stroke:#008000;stroke-width:1.0;"/><polygon fill="#008000" points="1647.93,645.88,1643.873,636.9055,1644.1975,642.5531,1638.55,642.8775,1647.93,645.88" style="stroke:#008000;stroke-width:1.0;"/><path d="M1618,585 L1618,611 L1753,611 L1753,595 L1743,585 L1618,585 " fill="#FEFFDD" style="stroke:#181818;stroke-width:0.5;"/><path d="M1743,585 L1743,595 L1753,595 L1743,585 " fill="#FEFFDD" style="stroke:#181818;stroke-width:0.5;"/><text fill="#000000" font-family="sans-serif" font-size="13" lengthAdjust="spacing" textLength="114" x="1624" y="603.4951">abrirPublicaciones()</text></g><!--link abrirPanelPrincipal to CONVOCATORIAS_ABIERTAS--><g id="link_abrirPanelPrincipal_CONVOCATORIAS_ABIERTAS"><path d="M1553.06,470.4 C1663.15,527.06 1766,580 1766,580 C1766,580 1827.5085,616.1778 1872.8285,642.8378 " fill="none" id="abrirPanelPrincipal-to-CONVOCATORIAS_ABIERTAS" style="stroke:#008000;stroke-width:1.0;"/><polygon fill="#008000" points="1878,645.88,1872.2708,637.869,1873.6904,643.3448,1868.2145,644.7644,1878,645.88" style="stroke:#008000;stroke-width:1.0;"/><path d="M1830,585 L1830,611 L1965,611 L1965,595 L1955,585 L1830,585 " fill="#FEFFDD" style="stroke:#181818;stroke-width:0.5;"/><path d="M1955,585 L1955,595 L1965,595 L1955,585 " fill="#FEFFDD" style="stroke:#181818;stroke-width:0.5;"/><text fill="#000000" font-family="sans-serif" font-size="13" lengthAdjust="spacing" textLength="114" x="1836" y="603.4951">abrirConvocatorias()</text></g><!--link abrirPanelPrincipal to RECOMPENSAS_ABIERTAS--><g id="link_abrirPanelPrincipal_RECOMPENSAS_ABIERTAS"><path d="M1553.05,428.67 C1747.27,497.84 1978,580 1978,580 C1978,580 2052.8003,616.5835 2107.3003,643.2435 " fill="none" id="abrirPanelPrincipal-to-RECOMPENSAS_ABIERTAS" style="stroke:#008000;stroke-width:1.0;"/><polygon fill="#008000" points="2112.69,645.88,2106.3631,638.3321,2108.1986,643.6829,2102.8478,645.5184,2112.69,645.88" style="stroke:#008000;stroke-width:1.0;"/><path d="M2053,585 L2053,611 L2190,611 L2190,595 L2180,585 L2053,585 " fill="#FEFFDD" style="stroke:#181818;stroke-width:0.5;"/><path d="M2180,585 L2180,595 L2190,595 L2180,585 " fill="#FEFFDD" style="stroke:#181818;stroke-width:0.5;"/><text fill="#000000" font-family="sans-serif" font-size="13" lengthAdjust="spacing" textLength="116" x="2059" y="603.4951">abrirRecompensas()</text></g><!--link abrirPanelPrincipal to SESION_CERRADA--><g id="link_abrirPanelPrincipal_SESION_CERRADA"><path d="M1553.16,405.62 C1822.86,477.99 2203,580 2203,580 C2203,580 2270.4982,616.3736 2319.9682,643.0336 " fill="none" id="abrirPanelPrincipal-to-SESION_CERRADA" style="stroke:#008000;stroke-width:1.0;"/><polygon fill="#008000" points="2325.25,645.88,2319.2249,638.0891,2320.8485,643.508,2315.4296,645.1316,2325.25,645.88" style="stroke:#008000;stroke-width:1.0;"/><path d="M2271,585 L2271,611 L2373,611 L2373,595 L2363,585 L2271,585 " fill="#FEFFDD" style="stroke:#181818;stroke-width:0.5;"/><path d="M2363,585 L2363,595 L2373,595 L2363,585 " fill="#FEFFDD" style="stroke:#181818;stroke-width:0.5;"/><text fill="#000000" font-family="sans-serif" font-size="13" lengthAdjust="spacing" textLength="81" x="2277" y="603.4951">cerrarSesion()</text></g><!--SRC=[dPNVQjim5CRl_HGYksa7PQp_6IMWg5xnI6nZPuLHIf1jBMYr9ICvWL06UvQzmXvXRx8dcIGdJPp9Yzta9l4v-dsVZewFv1Db9HQu03bbf5gL19GyN-a_ZYChN150sNk09HXu_hqRJxqxU1j4RZo38y-Dfa4yS7J2oSERkI24FPuC0Ku45I5c90y5PIajSRvbdHfM428ly1K5mUWEpgOH7C5FmPe93VEqE_EioGpTwACttXZKhBFkh7F3cdWAytaqzX1SGtUjdNV7NHXSE-gYE-hIe53WtmS8JeF8WqtKPNVKbK55BWeceUl7Uw2hxg3hUdjHyCL5gXSQJN5z6BFcM6A6Qtb-T3m0puu3rATUEr1VbJlXiXAOPToarmaFRnyR5lPoT0hZ2i6PRludy-0c6IBEHKOPphYuUPSCWUGvJMc5Qvk0vA3Kwq7viW-zaB3Cq6hffbJ3XNBLAXrJMP426zbYGJJ3eWTMe2IYe6hznfi0kIg2fFC59QmY4k0qfPmH-S6W__pu2H1dSf7hr5Bm5KahBYqnofPAbixrxeaj8ULioLDSSK6nBIv8oekIC6cD5bI2Sf4eqxZsPxDdZSCq9HaH00DUrY6G4Ls7hpG_a9HYCSVwXofdWhzn_RDjdqG8PK4IIN__Ois3_UuujaRTFTiG-kvu5aQUZxmGlemWft7MuTvfBgcaIKwSRGSTaccPT4qP0mdMPGXDdOwENoDY7z7_4KEwtjEwrhqa_vqZ5fLmqxszq2sNbuNlDJgZbqZxhM7HcL0PxdPwlqfrLNczXFsYiKYWtOdGIy9s0La4ekr8wOMFtLZLPuRSA8Ati0bEpOiUg_USirteNm00]--></g></svg>