<?plantuml 1.2026.2?><svg xmlns="http://www.w3.org/2000/svg" xmlns:xlink="http://www.w3.org/1999/xlink" contentStyleType="text/css" data-diagram-type="DESCRIPTION" height="313px" preserveAspectRatio="none" style="width:912px;height:313px;background:#FFFFFF;" version="1.1" viewBox="0 0 912 313" width="912px" zoomAndPan="magnify"><defs/><g><!--cluster editarProyecto--><g class="cluster" data-qualified-name="editarProyecto" data-source-line="9" id="ent0003"><path d="M8.5,6 L121.0742,6 A3.75,3.75 0 0 1 123.5742,8.5 L130.5742,25.9688 L509.5,25.9688 A2.5,2.5 0 0 1 512,28.4688 L512,303.5 A2.5,2.5 0 0 1 509.5,306 L8.5,306 A2.5,2.5 0 0 1 6,303.5 L6,8.5 A2.5,2.5 0 0 1 8.5,6" fill="none" style="stroke:#000000;stroke-width:1.5;"/><line style="stroke:#000000;stroke-width:1.5;" x1="6" x2="130.5742" y1="25.9688" y2="25.9688"/><text fill="#000000" font-family="sans-serif" font-size="12" font-weight="bold" lengthAdjust="spacing" textLength="111.5742" x="10" y="19.1387">editarProyecto()</text></g><!--entity EditarProyectoView--><g class="entity" data-qualified-name="editarProyecto.EditarProyectoView" data-source-line="10" id="ent0004"><rect fill="#629EF9" height="33.9688" rx="2.5" ry="2.5" style="stroke:#181818;stroke-width:0.5;" width="136.9063" x="358.5" y="38"/><text fill="#000000" font-family="sans-serif" font-size="12" lengthAdjust="spacing" textLength="116.9063" x="368.5" y="59.1387">EditarProyectoView</text></g><!--entity ProyectoController--><g class="entity" data-qualified-name="editarProyecto.ProyectoController" data-source-line="11" id="ent0005"><rect fill="#B5BD68" height="33.9688" rx="2.5" ry="2.5" style="stroke:#181818;stroke-width:0.5;" width="131.9316" x="94" y="147"/><text fill="#000000" font-family="sans-serif" font-size="12" lengthAdjust="spacing" textLength="111.9316" x="104" y="168.1387">ProyectoController</text></g><!--entity ProyectoRepository--><g class="entity" data-qualified-name="editarProyecto.ProyectoRepository" data-source-line="12" id="ent0006"><rect fill="#F2AC4E" height="33.9688" rx="2.5" ry="2.5" style="stroke:#181818;stroke-width:0.5;" width="136.9883" x="133.5" y="256"/><text fill="#000000" font-family="sans-serif" font-size="12" lengthAdjust="spacing" textLength="116.9883" x="143.5" y="277.1387">ProyectoRepository</text></g><!--entity ProyectoAbierto--><g class="entity" data-qualified-name="ProyectoAbierto" data-source-line="7" id="ent0002"><rect fill="#CDEBA5" height="33.9688" rx="2.5" ry="2.5" style="stroke:#181818;stroke-width:0.5;" width="143.7617" x="588" y="147"/><text fill="#000000" font-family="sans-serif" font-size="12" lengthAdjust="spacing" textLength="123.7617" x="598" y="168.1387">PROYECTO_ABIERTO</text></g><!--link ProyectoAbierto to EditarProyectoView--><g class="link" data-entity-1="ent0002" data-entity-2="ent0004" data-link-type="dependency" data-source-line="15" id="lnk7"><path d="M610.34,146.91 C569.39,133.65 518,117 518,117 C518,117 482.854,93.4406 455.894,75.3706" fill="none" id="ProyectoAbierto-to-EditarProyectoView" style="stroke:#181818;stroke-width:1;"/><polygon fill="#181818" points="450.91,72.03,456.159,80.3635,455.0634,74.8138,460.6131,73.7182,450.91,72.03" style="stroke:#181818;stroke-width:1;"/><text fill="#000000" font-family="sans-serif" font-size="12" lengthAdjust="spacing" textLength="97.3301" x="519" y="114.1387">editarProyecto()</text></g><!--link EditarProyectoView to ProyectoAbierto--><g class="link" data-entity-1="ent0004" data-entity-2="ent0002" data-link-type="dependency" data-source-line="23" id="lnk12"><path d="M494.58,72.02 C550.57,85.3 621,102 621,102 C621,102 634.9686,123.8445 646.5186,141.9145" fill="none" id="EditarProyectoView-to-ProyectoAbierto" style="stroke:#181818;stroke-width:1;stroke-dasharray:7,7;"/><polygon fill="#181818" points="649.75,146.97,648.2733,137.2325,647.0572,142.7571,641.5326,141.541,649.75,146.97" style="stroke:#181818;stroke-width:1;"/><text fill="#000000" font-family="sans-serif" font-size="12" lengthAdjust="spacing" textLength="133.6465" x="631" y="114.1387">&#171;finalizar&#187; confirmar()</text></g><!--link EditarProyectoView to ProyectoAbierto--><g class="link" data-entity-1="ent0004" data-entity-2="ent0002" data-link-type="dependency" data-source-line="24" id="lnk13"><path d="M495.77,65.14 C596.68,78.56 773,102 773,102 C773,102 773,117 773,117 C773,117 737.6676,131.3888 705.0776,144.6488" fill="none" id="EditarProyectoView-to-ProyectoAbierto-1" style="stroke:#181818;stroke-width:1;stroke-dasharray:7,7;"/><polygon fill="#181818" points="699.52,146.91,709.3639,147.2232,704.1513,145.0256,706.3489,139.8131,699.52,146.91" style="stroke:#181818;stroke-width:1;"/><text fill="#000000" font-family="sans-serif" font-size="12" lengthAdjust="spacing" textLength="130.1777" x="774" y="114.1387">&#171;cancelar&#187; cancelar()</text></g><!--link EditarProyectoView to ProyectoController--><g class="link" data-entity-1="ent0004" data-entity-2="ent0005" data-link-type="dependency" data-source-line="17" id="lnk8"><path d="M358.15,64.49 C250.38,77.78 54,102 54,102 C54,102 54,117 54,117 C54,117 86.8555,131.2624 117.4255,144.5224" fill="none" id="EditarProyectoView-to-ProyectoController" style="stroke:#181818;stroke-width:1;"/><polygon fill="#181818" points="122.93,146.91,116.265,139.6589,118.3429,144.9203,113.0815,146.9982,122.93,146.91" style="stroke:#181818;stroke-width:1;"/><text fill="#000000" font-family="sans-serif" font-size="12" lengthAdjust="spacing" textLength="134.4844" x="55" y="114.1387">cargarDatosActuales()</text></g><!--link EditarProyectoView to ProyectoController--><g class="link" data-entity-1="ent0004" data-entity-2="ent0005" data-link-type="dependency" data-source-line="20" id="lnk10"><path d="M362.21,72.02 C308.53,85.3 241,102 241,102 C241,102 210.0733,125.2911 186.0733,143.3611" fill="none" id="EditarProyectoView-to-ProyectoController-1" style="stroke:#181818;stroke-width:1;"/><polygon fill="#181818" points="181.28,146.97,190.8759,144.7521,185.2744,143.9625,186.064,138.3611,181.28,146.97" style="stroke:#181818;stroke-width:1;"/><text fill="#000000" font-family="sans-serif" font-size="12" lengthAdjust="spacing" textLength="246.3223" x="242" y="114.1387">guardarCambios(datosNuevos) : boolean</text></g><!--link ProyectoController to ProyectoRepository--><g class="link" data-entity-1="ent0005" data-entity-2="ent0006" data-link-type="dependency" data-source-line="18" id="lnk9"><path d="M122.93,181.09 C92.36,194.35 54,211 54,211 C54,211 54,226 54,226 C54,226 101.8302,240.8698 144.5102,254.1298" fill="none" id="ProyectoController-to-ProyectoRepository" style="stroke:#181818;stroke-width:1;"/><polygon fill="#181818" points="150.24,255.91,142.832,249.4199,145.4651,254.4265,140.4585,257.0596,150.24,255.91" style="stroke:#181818;stroke-width:1;"/><text fill="#000000" font-family="sans-serif" font-size="12" lengthAdjust="spacing" textLength="215.4902" x="55" y="223.1387">obtenerPorId(proyectoId) : Proyecto</text></g><!--link ProyectoController to ProyectoRepository--><g class="link" data-entity-1="ent0005" data-entity-2="ent0006" data-link-type="dependency" data-source-line="21" id="lnk11"><path d="M200.22,181.09 C233.38,194.35 275,211 275,211 C275,211 275,226 275,226 C275,226 253.6567,239.452 232.6067,252.712" fill="none" id="ProyectoController-to-ProyectoRepository-1" style="stroke:#181818;stroke-width:1;"/><polygon fill="#181818" points="227.53,255.91,237.277,254.4975,231.7606,253.245,233.0131,247.7286,227.53,255.91" style="stroke:#181818;stroke-width:1;"/><text fill="#000000" font-family="sans-serif" font-size="12" lengthAdjust="spacing" textLength="180.9023" x="276" y="223.1387">actualizar(proyecto) : boolean</text></g><?plantuml-src bP91R-8m48Nl_XKZkC21IeksLHjLI6a84fS5iLMbdgf9FAHMZISQEuleglzz0xH0QFQ0J_QyDv_VMFPlnfKek88CyxT2k78wOSi2wrSJIFc3xbzHyzgu0fPe_QaofYLMDapOXNrhPcjMk-6tUIVuCJmHhN4KDYL1oNQpFIWbb0TqXINe9kFq8Rw6pdmnUqwJnzbB_31D5u-p3g27kV2cjdAS6PB0IfNrlLWGT4YRWFAbz_exUxC8VnNKwtXN9steJuRMkxRlPUZU3E_IoTqvuCkJr8CAMqlIY7aiGpUxplJDxVy02ohPcy2oQG2EPUXEXd7oCrKVIfsz0WnaC6e97S7veoZLCjf0rztV4qUGenGeOmpiupnKQCdNY9RP6eHZv0Wu2-H8vYnJtIi_3LFTX-XWlonIKQ5eb0HNcM7VqzjilohwmtxBp9WjeRie8kucC-yeXu2dgBPqLrUZyuyOmVtzqhWzQ3I2dDtIoAg6zYyWvEXoidl0vxRN_mS0?></g></svg>