<?plantuml 1.2026.2?><svg xmlns="http://www.w3.org/2000/svg" xmlns:xlink="http://www.w3.org/1999/xlink" contentStyleType="text/css" data-diagram-type="DESCRIPTION" height="313px" preserveAspectRatio="none" style="width:959px;height:313px;background:#FFFFFF;" version="1.1" viewBox="0 0 959 313" width="959px" zoomAndPan="magnify"><defs/><g><!--cluster crearInvestigador--><g class="cluster" data-qualified-name="crearInvestigador" data-source-line="10" id="ent0004"><path d="M8.5,6 L141.0547,6 A3.75,3.75 0 0 1 143.5547,8.5 L150.5547,25.9688 L374.5,25.9688 A2.5,2.5 0 0 1 377,28.4688 L377,303.5 A2.5,2.5 0 0 1 374.5,306 L8.5,306 A2.5,2.5 0 0 1 6,303.5 L6,8.5 A2.5,2.5 0 0 1 8.5,6" fill="none" style="stroke:#000000;stroke-width:1.5;"/><line style="stroke:#000000;stroke-width:1.5;" x1="6" x2="150.5547" y1="25.9688" y2="25.9688"/><text fill="#000000" font-family="sans-serif" font-size="12" font-weight="bold" lengthAdjust="spacing" textLength="131.5547" x="10" y="19.1387">crearInvestigador()</text></g><!--entity CrearInvestigadorView--><g class="entity" data-qualified-name="crearInvestigador.CrearInvestigadorView" data-source-line="11" id="ent0005"><rect fill="#629EF9" height="33.9688" rx="2.5" ry="2.5" style="stroke:#181818;stroke-width:0.5;" width="156.5059" x="203.5" y="38"/><text fill="#000000" font-family="sans-serif" font-size="12" lengthAdjust="spacing" textLength="136.5059" x="213.5" y="59.1387">CrearInvestigadorView</text></g><!--entity InvestigadorController--><g class="entity" data-qualified-name="crearInvestigador.InvestigadorController" data-source-line="12" id="ent0006"><rect fill="#B5BD68" height="33.9688" rx="2.5" ry="2.5" style="stroke:#181818;stroke-width:0.5;" width="154.0742" x="22" y="147"/><text fill="#000000" font-family="sans-serif" font-size="12" lengthAdjust="spacing" textLength="134.0742" x="32" y="168.1387">InvestigadorController</text></g><!--entity InvestigadorRepository--><g class="entity" data-qualified-name="crearInvestigador.InvestigadorRepository" data-source-line="13" id="ent0007"><rect fill="#F2AC4E" height="33.9688" rx="2.5" ry="2.5" style="stroke:#181818;stroke-width:0.5;" width="159.1309" x="21.5" y="256"/><text fill="#000000" font-family="sans-serif" font-size="12" lengthAdjust="spacing" textLength="139.1309" x="31.5" y="277.1387">InvestigadorRepository</text></g><!--entity Investigador--><g class="entity" data-qualified-name="crearInvestigador.Investigador" data-source-line="14" id="ent0008"><rect fill="#F2AC4E" height="33.9688" rx="2.5" ry="2.5" style="stroke:#181818;stroke-width:0.5;" width="94.7832" x="265.5" y="147"/><text fill="#000000" font-family="sans-serif" font-size="12" lengthAdjust="spacing" textLength="74.7832" x="275.5" y="168.1387">Investigador</text></g><!--entity InvestigadoresAbiertas--><g class="entity" data-qualified-name="InvestigadoresAbiertas" data-source-line="7" id="ent0002"><rect fill="#CDEBA5" height="33.9688" rx="2.5" ry="2.5" style="stroke:#181818;stroke-width:0.5;" width="192.8164" x="397.5" y="147"/><text fill="#000000" font-family="sans-serif" font-size="12" lengthAdjust="spacing" textLength="172.8164" x="407.5" y="168.1387">INVESTIGADORES_ABIERTOS</text></g><!--entity OpcionesPerfilAbierto--><g class="entity" data-qualified-name="OpcionesPerfilAbierto" data-source-line="8" id="ent0003"><rect fill="#CDEBA5" height="33.9688" rx="2.5" ry="2.5" style="stroke:#181818;stroke-width:0.5;" width="187.1797" x="639.5" y="147"/><text fill="#000000" font-family="sans-serif" font-size="12" lengthAdjust="spacing" textLength="167.1797" x="649.5" y="168.1387">OPCIONES_PERFIL_ABIERTO</text></g><!--link InvestigadoresAbiertas to CrearInvestigadorView--><g class="link" data-entity-1="ent0002" data-entity-2="ent0005" data-link-type="dependency" data-source-line="17" id="lnk9"><path d="M438.74,146.91 C393.18,133.65 336,117 336,117 C336,117 316.1675,94.5921 300.1675,76.5221" fill="none" id="InvestigadoresAbiertas-to-CrearInvestigadorView" style="stroke:#181818;stroke-width:1;"/><polygon fill="#181818" points="296.19,72.03,299.1615,81.4199,299.5046,75.7734,305.1511,76.1165,296.19,72.03" style="stroke:#181818;stroke-width:1;"/><text fill="#000000" font-family="sans-serif" font-size="12" lengthAdjust="spacing" textLength="115.3477" x="337" y="114.1387">crearInvestigador()</text></g><!--link CrearInvestigadorView to InvestigadoresAbiertas--><g class="link" data-entity-1="ent0005" data-entity-2="ent0002" data-link-type="dependency" data-source-line="24" id="lnk14"><path d="M343.21,72.09 C393.67,85.35 457,102 457,102 C457,102 470.2084,123.7699 481.1684,141.8399" fill="none" id="CrearInvestigadorView-to-InvestigadoresAbiertas" style="stroke:#181818;stroke-width:1;stroke-dasharray:7,7;"/><polygon fill="#181818" points="484.28,146.97,483.0327,137.2004,481.687,142.6949,476.1926,141.3492,484.28,146.97" style="stroke:#181818;stroke-width:1;"/><text fill="#000000" font-family="sans-serif" font-size="12" lengthAdjust="spacing" textLength="195.6094" x="467" y="114.1387">&#171;cancelar&#187; abrirInvestigadores()</text></g><!--link CrearInvestigadorView to InvestigadorController--><g class="link" data-entity-1="ent0005" data-entity-2="ent0006" data-link-type="dependency" data-source-line="19" id="lnk10"><path d="M203.22,71.9 C137.31,85.19 54,102 54,102 C54,102 54,117 54,117 C54,117 66.0829,129.3623 79.0629,142.6223" fill="none" id="CrearInvestigadorView-to-InvestigadorController" style="stroke:#181818;stroke-width:1;"/><polygon fill="#181818" points="83.26,146.91,79.8228,137.6804,79.7624,143.3369,74.1059,143.2766,83.26,146.91" style="stroke:#181818;stroke-width:1;"/><text fill="#000000" font-family="sans-serif" font-size="12" lengthAdjust="spacing" textLength="240.3984" x="55" y="114.1387">crear(id, nombre, campo) : Investigador</text></g><!--link InvestigadorController to Investigador--><g class="link" data-entity-1="ent0006" data-entity-2="ent0008" data-link-type="dependency" data-source-line="20" id="lnk11"><path d="M176.26,164 C206.07,164 233.23,164 259.42,164" fill="none" id="InvestigadorController-to-Investigador" style="stroke:#181818;stroke-width:1;"/><polygon fill="#181818" points="265.42,164,256.42,160,260.42,164,256.42,168,265.42,164" style="stroke:#181818;stroke-width:1;"/><text fill="#000000" font-family="sans-serif" font-size="12" lengthAdjust="spacing" textLength="53.0391" x="194.25" y="158.1387">&#171;create&#187;</text></g><!--link InvestigadorController to InvestigadorRepository--><g class="link" data-entity-1="ent0006" data-entity-2="ent0007" data-link-type="dependency" data-source-line="21" id="lnk12"><path d="M99.3,181.25 C99.68,201.48 100.2068,229.8111 100.5868,249.9511" fill="none" id="InvestigadorController-to-InvestigadorRepository" style="stroke:#181818;stroke-width:1;"/><polygon fill="#181818" points="100.7,255.95,104.5295,246.8761,100.6057,250.9509,96.5309,247.0271,100.7,255.95" style="stroke:#181818;stroke-width:1;"/><text fill="#000000" font-family="sans-serif" font-size="12" lengthAdjust="spacing" textLength="131.3555" x="102" y="223.1387">guardar(investigador)</text></g><!--link CrearInvestigadorView to OpcionesPerfilAbierto--><g class="link" data-entity-1="ent0005" data-entity-2="ent0003" data-link-type="dependency" data-source-line="23" id="lnk13"><path d="M360.72,65.31 C474.39,78.75 671,102 671,102 C671,102 694.0626,124.6924 712.4326,142.7624" fill="none" id="CrearInvestigadorView-to-OpcionesPerfilAbierto" style="stroke:#181818;stroke-width:1;stroke-dasharray:7,7;"/><polygon fill="#181818" points="716.71,146.97,713.0989,137.807,713.1455,143.4637,707.4888,143.5103,716.71,146.97" style="stroke:#181818;stroke-width:1;"/><text fill="#000000" font-family="sans-serif" font-size="12" lengthAdjust="spacing" textLength="264.4043" x="687" y="114.1387">&#171;finalizar&#187; abrirOpcionesPerfil(investigador)</text></g><?plantuml-src VPBHQ-904CRVzwyOz4MX5awkfPKII6Cy0gKHBNqz9icOBbrtm-nQiSVzxutfNHDrxRvbl_b-C_DjxAlK5JAk8SFyjMIpqKLab67OlaX7mdxfzWKBivMwX1KgsrMcjCADSZEZtQSrKpNBNx2KxmG_nXrHIKrkLn5KHkts7q8mvGvrgGZwqJI-3w-Wbpm-nykdv5SuJHVnydTudyIBftJP0xIGw3UoJfRrV4msp2InG-kZfFCeIHzh_pnUp9A7_vY6abQvD9hid7WbrIV5257Lgs19qCkPaBkj1iF6Tt8FVmJKfstVYuvBdYLj6xDNWVxr-3QUtHvZkdLHdIKRfOXF8cWbw6TNMN5zynreGPMnqXdUdO1Q2VgpSHZzZBy3dTY_J7-5y3yHZ7WK-3EOW2Tl8VnvZOeQuu_W7sSWYmlGPfqnNK2EwyeCON9W4MSYR4RiQXEukzip7GN1MTFnG6sK4oWtoCL-f8v-ThNBoy3_P-x7M4cDIhuZ1m5Wnf8FAuywd6_WVvrcKTGvgRR1OULW-040?></g></svg>