<?xml version="1.0" encoding="us-ascii" standalone="no"?><svg xmlns="http://www.w3.org/2000/svg" xmlns:xlink="http://www.w3.org/1999/xlink" contentStyleType="text/css" height="840px" preserveAspectRatio="none" style="width:562px;height:840px;background:#FFFFFF;" version="1.1" viewBox="0 0 562 840" width="562px" zoomAndPan="magnify"><defs/><g><g id="in1"><rect fill="#F1F1F1" height="50" rx="12.5" ry="12.5" style="stroke:#181818;stroke-width:0.5;" width="234" x="161" y="7"/><line style="stroke:#181818;stroke-width:0.5;" x1="161" x2="395" y1="34.6094" y2="34.6094"/><text fill="#000000" font-family="sans-serif" font-size="14" lengthAdjust="spacing" textLength="214" x="171" y="26.5332">MIS_PUBLICACIONES_ABIERTAS</text></g><path d="M19.5,118 L536.5,118 A12.5,12.5 0 0 1 549,130.5 L549,145.6094 L7,145.6094 L7,130.5 A12.5,12.5 0 0 1 19.5,118 " fill="#F1F1F1" style="stroke:#F1F1F1;stroke-width:1.0;"/><rect fill="none" height="569.6094" rx="12.5" ry="12.5" style="stroke:#181818;stroke-width:0.5;" width="542" x="7" y="118"/><line style="stroke:#181818;stroke-width:0.5;" x1="7" x2="549" y1="145.6094" y2="145.6094"/><text fill="#000000" font-family="sans-serif" font-size="14" lengthAdjust="spacing" textLength="115" x="220.5" y="137.5332">crearPublicacion()</text><g id="crearPublicacion.SolicitandoDatos"><rect fill="#F1F1F1" height="50" rx="12.5" ry="12.5" style="stroke:#181818;stroke-width:0.5;" width="50" x="19" y="248.6094"/><line style="stroke:#181818;stroke-width:0.5;" x1="19" x2="69" y1="276.2188" y2="276.2188"/><text fill="#000000" font-family="sans-serif" font-size="14" lengthAdjust="spacing" textLength="4" x="42" y="268.1426">&#160;</text></g><g id="crearPublicacion.CreandoPublicacion"><rect fill="#F1F1F1" height="50" rx="12.5" ry="12.5" style="stroke:#181818;stroke-width:0.5;" width="50" x="19" y="517.6094"/><line style="stroke:#181818;stroke-width:0.5;" x1="19" x2="69" y1="545.2188" y2="545.2188"/><text fill="#000000" font-family="sans-serif" font-size="14" lengthAdjust="spacing" textLength="4" x="42" y="537.1426">&#160;</text></g><ellipse cx="44" cy="166.6094" fill="#222222" rx="10" ry="10" style="stroke:#222222;stroke-width:1.0;"/><ellipse cx="44" cy="666.6094" fill="none" rx="11" ry="11" style="stroke:#222222;stroke-width:1.0;"/><ellipse cx="44" cy="666.6094" fill="#222222" rx="6" ry="6" style="stroke:#222222;stroke-width:1.0;"/><!--link *start*crearPublicacion to SolicitandoDatos--><g id="link_*start*crearPublicacion_SolicitandoDatos"><path d="M44,176.9294 C44,192.7894 44,219.5194 44,242.2494 " fill="none" id="*start*crearPublicacion-to-SolicitandoDatos" style="stroke:#008000;stroke-width:1.0;"/><polygon fill="#008000" points="44,248.2494,48,239.2494,44,243.2494,40,239.2494,44,248.2494" style="stroke:#008000;stroke-width:1.0;"/><path d="M49,199.6094 L49,225.6094 L320,225.6094 L320,209.6094 L310,199.6094 L49,199.6094 " fill="#FEFFDD" style="stroke:#181818;stroke-width:0.5;"/><path d="M310,199.6094 L310,209.6094 L320,209.6094 L310,199.6094 " fill="#FEFFDD" style="stroke:#181818;stroke-width:0.5;"/><text fill="#000000" font-family="sans-serif" font-size="13" font-weight="bold" lengthAdjust="spacing" textLength="78" x="55" y="218.1045">Investigador</text><text fill="#000000" font-family="sans-serif" font-size="13" lengthAdjust="spacing" textLength="168" x="137" y="218.1045">solicita crear una publicaci&#243;n</text></g><!--link SolicitandoDatos to CreandoPublicacion--><g id="link_SolicitandoDatos_CreandoPublicacion"><path d="M44,298.7794 C44,349.4794 44,460.4794 44,511.3094 " fill="none" id="SolicitandoDatos-to-CreandoPublicacion" style="stroke:#008000;stroke-width:1.0;"/><polygon fill="#008000" points="44,517.3094,48,508.3094,44,512.3094,40,508.3094,44,517.3094" style="stroke:#008000;stroke-width:1.0;"/><path d="M49,321.6094 L49,494.6094 L540,494.6094 L540,331.6094 L530,321.6094 L49,321.6094 " fill="#FEFFDD" style="stroke:#181818;stroke-width:0.5;"/><path d="M530,321.6094 L530,331.6094 L540,331.6094 L530,321.6094 " fill="#FEFFDD" style="stroke:#181818;stroke-width:0.5;"/><text fill="#000000" font-family="sans-serif" font-size="13" font-weight="bold" lengthAdjust="spacing" textLength="51" x="55" y="340.1045">Sistema</text><text fill="#000000" font-family="sans-serif" font-size="13" lengthAdjust="spacing" textLength="415" x="110" y="340.1045">presenta el formulario de creaci&#243;n de la publicaci&#243;n y permite introducir:</text><text fill="#000000" font-family="sans-serif" font-size="13" lengthAdjust="spacing" textLength="40" x="55" y="356.4561">&#8226; T&#237;tulo</text><text fill="#000000" font-family="sans-serif" font-size="13" lengthAdjust="spacing" textLength="50" x="55" y="372.8076">&#8226; Estado</text><text fill="#000000" font-family="sans-serif" font-size="13" lengthAdjust="spacing" textLength="68" x="55" y="389.1592">&#8226; Visibilidad</text><text fill="#000000" font-family="sans-serif" font-size="13" lengthAdjust="spacing" textLength="77" x="55" y="405.5107">&#8226; Descripci&#243;n</text><text fill="#000000" font-family="sans-serif" font-size="13" lengthAdjust="spacing" textLength="120" x="55" y="421.8623">&#8226; Adjuntos (opcional)</text><text fill="#000000" font-family="sans-serif" font-size="13" lengthAdjust="spacing" textLength="4" x="55" y="438.2139">&#160;</text><text fill="#000000" font-family="sans-serif" font-size="13" lengthAdjust="spacing" textLength="247" x="55" y="454.5654">y permite solicitar las siguientes acciones:</text><text fill="#000000" font-family="sans-serif" font-size="13" lengthAdjust="spacing" textLength="109" x="55" y="470.917">&#8226; Crear publicaci&#243;n</text><text fill="#000000" font-family="sans-serif" font-size="13" lengthAdjust="spacing" textLength="163" x="55" y="487.2686">&#8226; Volver a mis publicaciones</text></g><!--link CreandoPublicacion to *end*crearPublicacion--><g id="link_CreandoPublicacion_*end*crearPublicacion"><path d="M44,567.7094 C44,594.3794 44,630.1094 44,649.3094 " fill="none" id="CreandoPublicacion-to-*end*crearPublicacion" style="stroke:#008000;stroke-width:1.0;"/><polygon fill="#008000" points="44,655.3094,48,646.3094,44,650.3094,40,646.3094,44,655.3094" style="stroke:#008000;stroke-width:1.0;"/><path d="M49,590.6094 L49,632.6094 L500,632.6094 L500,600.6094 L490,590.6094 L49,590.6094 " fill="#FEFFDD" style="stroke:#181818;stroke-width:0.5;"/><path d="M490,590.6094 L490,600.6094 L500,600.6094 L490,590.6094 " fill="#FEFFDD" style="stroke:#181818;stroke-width:0.5;"/><text fill="#000000" font-family="sans-serif" font-size="13" font-weight="bold" lengthAdjust="spacing" textLength="78" x="55" y="609.1045">Investigador</text><text fill="#000000" font-family="sans-serif" font-size="13" lengthAdjust="spacing" textLength="348" x="137" y="609.1045">introduce los datos solicitados y solicita crear la publicaci&#243;n</text><text fill="#000000" font-family="sans-serif" font-size="13" font-weight="bold" lengthAdjust="spacing" textLength="51" x="55" y="625.4561">Sistema</text><text fill="#000000" font-family="sans-serif" font-size="13" lengthAdjust="spacing" textLength="175" x="110" y="625.4561">visualiza la publicaci&#243;n creada</text></g><g id="MI_PUBLICACION_ABIERTA"><rect fill="#F1F1F1" height="50" rx="12.5" ry="12.5" style="stroke:#181818;stroke-width:0.5;" width="198" x="54" y="784"/><line style="stroke:#181818;stroke-width:0.5;" x1="54" x2="252" y1="811.6094" y2="811.6094"/><text fill="#000000" font-family="sans-serif" font-size="14" lengthAdjust="spacing" textLength="178" x="64" y="803.5332">MI_PUBLICACION_ABIERTA</text></g><g id="MIS_PUBLICACIONES_ABIERTAS"><rect fill="#F1F1F1" height="50" rx="12.5" ry="12.5" style="stroke:#181818;stroke-width:0.5;" width="234" x="287" y="784"/><line style="stroke:#181818;stroke-width:0.5;" x1="287" x2="521" y1="811.6094" y2="811.6094"/><text fill="#000000" font-family="sans-serif" font-size="14" lengthAdjust="spacing" textLength="214" x="297" y="803.5332">MIS_PUBLICACIONES_ABIERTAS</text></g><!--link in1 to crearPublicacion--><g id="link_in1_crearPublicacion"><path d="M278,57.21 C278,72.28 278,87.44 278,111.95 " fill="none" id="in1-to-crearPublicacion" style="stroke:#008000;stroke-width:1.0;"/><polygon fill="#008000" points="278,117.95,282,108.95,278,112.95,274,108.95,278,117.95" style="stroke:#008000;stroke-width:1.0;"/></g><!--link crearPublicacion to MI_PUBLICACION_ABIERTA--><g id="link_crearPublicacion_MI_PUBLICACION_ABIERTA"><path d="M176.64,688.18 C170.06,706.61 166,718 166,718 C166,718 161.1876,751.2816 157.3376,777.9416 " fill="none" id="crearPublicacion-to-MI_PUBLICACION_ABIERTA" style="stroke:#008000;stroke-width:1.0;"/><polygon fill="#008000" points="156.48,783.88,161.7253,775.5441,157.1946,778.9313,153.8074,774.4007,156.48,783.88" style="stroke:#008000;stroke-width:1.0;"/><path d="M171,723 L171,749 L356,749 L356,733 L346,723 L171,723 " fill="#FEFFDD" style="stroke:#181818;stroke-width:0.5;"/><path d="M346,723 L346,733 L356,733 L346,723 " fill="#FEFFDD" style="stroke:#181818;stroke-width:0.5;"/><text fill="#000000" font-family="sans-serif" font-size="13" lengthAdjust="spacing" textLength="164" x="177" y="741.4951">Publicaci&#243;n creada y abierta</text></g><!--link crearPublicacion to MIS_PUBLICACIONES_ABIERTAS--><g id="link_crearPublicacion_MIS_PUBLICACIONES_ABIERTAS"><path d="M366.62,688.15 C378.91,727.55 387.8438,756.202 394.6138,777.912 " fill="none" id="crearPublicacion-to-MIS_PUBLICACIONES_ABIERTAS" style="stroke:#FF0000;stroke-width:1.0;"/><polygon fill="#FF0000" points="396.4,783.64,397.5393,773.8573,394.9115,778.8667,389.9021,776.2389,396.4,783.64" style="stroke:#FF0000;stroke-width:1.0;"/><path d="M390,723 L390,749 L546,749 L546,733 L536,723 L390,723 " fill="#FEFFDD" style="stroke:#181818;stroke-width:0.5;"/><path d="M536,723 L536,733 L546,733 L536,723 " fill="#FEFFDD" style="stroke:#181818;stroke-width:0.5;"/><text fill="#000000" font-family="sans-serif" font-size="13" lengthAdjust="spacing" textLength="135" x="396" y="741.4951">abrirMisPublicaciones()</text></g><!--SRC=[ZLJDQjj04BxhAGRdOXT2wJK4W-Fu8AXR4wMzX116sgcPPBKhTbS6jnJwBBttr4V8c_H9khkg8kidKElY6StCzpExia-iAZHOWcH5xbWHL5eUGv0arg4ZOFKEqC9icsOFkqzNxzFrQfr-_B397bPNwURcTfNDab1pVdUsDqJg_dm9XI4qkpgNN631MhMpXlauU9YSBsRmBKd0_vgkcNzyOQPz1JjKGb-ZqtPSiVQJ_DiUS2YwUtFVepSvIMa_o5FosfzYuZ9Vfkf0rl4UXJQNR_Cbs7-TZHAe5KBLeZt_Lh6Fb8Z36kmXLe_81E7Ng6Hi7PKOMLI6B2dFWYHyqQQi9HhM81g38vCGo3uvE495fkIuKsUqg0is5t7-dny_uVRvbwkbVeattbhHXP_PSiwI1OgNt3NPmd3LIG_9bNYiLH0wrrLGX7BHED71jouQJz62vNtDNWvPm29qaErOhQFF8uyZ8oqFP02XPDjLXFQ9DOoTxYt2dv3_FmIjUzvXBrF4hRQIXFz_71uJEN5A1YiziArHybSSRIsC4DYNz3r9HbVfLCusFRsgxKLDUkfsOn3F77Ccup3ft9i2CYGQcDS-2Nqep0sRBTlTwPBcYmxaBm00]--></g></svg>