<?xml version="1.0" encoding="us-ascii" standalone="no"?><svg xmlns="http://www.w3.org/2000/svg" xmlns:xlink="http://www.w3.org/1999/xlink" contentStyleType="text/css" height="990px" preserveAspectRatio="none" style="width:881px;height:990px;background:#FFFFFF;" version="1.1" viewBox="0 0 881 990" width="881px" zoomAndPan="magnify"><defs/><g><g id="in1"><rect fill="#F1F1F1" height="50" rx="12.5" ry="12.5" style="stroke:#181818;stroke-width:0.5;" width="210" x="274" y="7"/><line style="stroke:#181818;stroke-width:0.5;" x1="274" x2="484" y1="34.6094" y2="34.6094"/><text fill="#000000" font-family="sans-serif" font-size="14" lengthAdjust="spacing" textLength="190" x="284" y="26.5332">PANEL_PRINCIPAL_ABIERTO</text></g><path d="M272.5,118 L723.5,118 A12.5,12.5 0 0 1 736,130.5 L736,145.6094 L260,145.6094 L260,130.5 A12.5,12.5 0 0 1 272.5,118 " fill="#F1F1F1" style="stroke:#F1F1F1;stroke-width:1.0;"/><rect fill="none" height="719.6094" rx="12.5" ry="12.5" style="stroke:#181818;stroke-width:0.5;" width="476" x="260" y="118"/><line style="stroke:#181818;stroke-width:0.5;" x1="260" x2="736" y1="145.6094" y2="145.6094"/><text fill="#000000" font-family="sans-serif" font-size="14" lengthAdjust="spacing" textLength="147" x="424.5" y="137.5332">abrirMisPublicaciones()</text><g id="abrirMisPublicaciones.MostrandoLista"><rect fill="#F1F1F1" height="50" rx="12.5" ry="12.5" style="stroke:#181818;stroke-width:0.5;" width="50" x="272" y="248.6094"/><line style="stroke:#181818;stroke-width:0.5;" x1="272" x2="322" y1="276.2188" y2="276.2188"/><text fill="#000000" font-family="sans-serif" font-size="14" lengthAdjust="spacing" textLength="4" x="295" y="268.1426">&#160;</text></g><g id="abrirMisPublicaciones.FiltrandoLista"><rect fill="#F1F1F1" height="50" rx="12.5" ry="12.5" style="stroke:#181818;stroke-width:0.5;" width="50" x="272" y="682.6094"/><line style="stroke:#181818;stroke-width:0.5;" x1="272" x2="322" y1="710.2188" y2="710.2188"/><text fill="#000000" font-family="sans-serif" font-size="14" lengthAdjust="spacing" textLength="4" x="295" y="702.1426">&#160;</text></g><ellipse cx="297" cy="166.6094" fill="#222222" rx="10" ry="10" style="stroke:#222222;stroke-width:1.0;"/><ellipse cx="297" cy="816.6094" fill="none" rx="11" ry="11" style="stroke:#222222;stroke-width:1.0;"/><ellipse cx="297" cy="816.6094" fill="#222222" rx="6" ry="6" style="stroke:#222222;stroke-width:1.0;"/><!--link *start*abrirMisPublicaciones to MostrandoLista--><g id="link_*start*abrirMisPublicaciones_MostrandoLista"><path d="M297,176.9294 C297,192.7894 297,219.5194 297,242.2494 " fill="none" id="*start*abrirMisPublicaciones-to-MostrandoLista" style="stroke:#008000;stroke-width:1.0;"/><polygon fill="#008000" points="297,248.2494,301,239.2494,297,243.2494,293,239.2494,297,248.2494" style="stroke:#008000;stroke-width:1.0;"/><path d="M302,199.6094 L302,225.6094 L657,225.6094 L657,209.6094 L647,199.6094 L302,199.6094 " fill="#FEFFDD" style="stroke:#181818;stroke-width:0.5;"/><path d="M647,199.6094 L647,209.6094 L657,209.6094 L647,199.6094 " fill="#FEFFDD" style="stroke:#181818;stroke-width:0.5;"/><text fill="#000000" font-family="sans-serif" font-size="13" font-weight="bold" lengthAdjust="spacing" textLength="78" x="308" y="218.1045">Investigador</text><text fill="#000000" font-family="sans-serif" font-size="13" lengthAdjust="spacing" textLength="252" x="390" y="218.1045">solicita abrir el listado de sus publicaciones</text></g><!--link MostrandoLista to FiltrandoLista--><g id="link_MostrandoLista_FiltrandoLista"><path d="M297,298.7594 C297,374.4594 297,600.5294 297,676.3594 " fill="none" id="MostrandoLista-to-FiltrandoLista" style="stroke:#008000;stroke-width:1.0;"/><polygon fill="#008000" points="297,682.3594,301,673.3594,297,677.3594,293,673.3594,297,682.3594" style="stroke:#008000;stroke-width:1.0;"/><path d="M302,321.6094 L302,658.6094 L639,658.6094 L639,331.6094 L629,321.6094 L302,321.6094 " fill="#FEFFDD" style="stroke:#181818;stroke-width:0.5;"/><path d="M629,321.6094 L629,331.6094 L639,331.6094 L629,321.6094 " fill="#FEFFDD" style="stroke:#181818;stroke-width:0.5;"/><text fill="#000000" font-family="sans-serif" font-size="13" font-weight="bold" lengthAdjust="spacing" textLength="51" x="308" y="340.1045">Sistema</text><text fill="#000000" font-family="sans-serif" font-size="13" lengthAdjust="spacing" textLength="236" x="363" y="340.1045">presenta el bloque de filtrar / buscar con:</text><text fill="#000000" font-family="sans-serif" font-size="13" lengthAdjust="spacing" textLength="40" x="308" y="356.4561">&#8226; T&#237;tulo</text><text fill="#000000" font-family="sans-serif" font-size="13" lengthAdjust="spacing" textLength="50" x="308" y="372.8076">&#8226; Estado</text><text fill="#000000" font-family="sans-serif" font-size="13" lengthAdjust="spacing" textLength="92" x="308" y="389.1592">&#8226; Fecha (desde)</text><text fill="#000000" font-family="sans-serif" font-size="13" lengthAdjust="spacing" textLength="89" x="308" y="405.5107">&#8226; Fecha (hasta)</text><text fill="#000000" font-family="sans-serif" font-size="13" lengthAdjust="spacing" textLength="4" x="308" y="421.8623">&#160;</text><text fill="#000000" font-family="sans-serif" font-size="13" font-weight="bold" lengthAdjust="spacing" textLength="51" x="308" y="438.2139">Sistema</text><text fill="#000000" font-family="sans-serif" font-size="13" lengthAdjust="spacing" textLength="261" x="363" y="438.2139">presenta el listado de mis publicaciones con:</text><text fill="#000000" font-family="sans-serif" font-size="13" lengthAdjust="spacing" textLength="21" x="308" y="454.5654">&#8226; ID</text><text fill="#000000" font-family="sans-serif" font-size="13" lengthAdjust="spacing" textLength="40" x="308" y="470.917">&#8226; T&#237;tulo</text><text fill="#000000" font-family="sans-serif" font-size="13" lengthAdjust="spacing" textLength="50" x="308" y="487.2686">&#8226; Estado</text><text fill="#000000" font-family="sans-serif" font-size="13" lengthAdjust="spacing" textLength="45" x="308" y="503.6201">&#8226; Fecha</text><text fill="#000000" font-family="sans-serif" font-size="13" lengthAdjust="spacing" textLength="64" x="308" y="519.9717">&#8226; Resumen</text><text fill="#000000" font-family="sans-serif" font-size="13" lengthAdjust="spacing" textLength="177" x="308" y="536.3232">&#8226; Permite abrir una publicaci&#243;n</text><text fill="#000000" font-family="sans-serif" font-size="13" lengthAdjust="spacing" textLength="4" x="308" y="552.6748">&#160;</text><text fill="#000000" font-family="sans-serif" font-size="13" lengthAdjust="spacing" textLength="247" x="308" y="569.0264">y permite solicitar las siguientes acciones:</text><text fill="#000000" font-family="sans-serif" font-size="13" lengthAdjust="spacing" textLength="84" x="308" y="585.3779">&#8226; Aplicar filtros</text><text fill="#000000" font-family="sans-serif" font-size="13" lengthAdjust="spacing" textLength="86" x="308" y="601.7295">&#8226; Limpiar filtros</text><text fill="#000000" font-family="sans-serif" font-size="13" lengthAdjust="spacing" textLength="105" x="308" y="618.0811">&#8226; Abrir publicaci&#243;n</text><text fill="#000000" font-family="sans-serif" font-size="13" lengthAdjust="spacing" textLength="109" x="308" y="634.4326">&#8226; Crear publicaci&#243;n</text><text fill="#000000" font-family="sans-serif" font-size="13" lengthAdjust="spacing" textLength="123" x="308" y="650.7842">&#8226; Abrir panel principal</text></g><!--link FiltrandoLista to FiltrandoLista--><g id="link_FiltrandoLista_FiltrandoLista"><path d="M322.18,696.0294 C331.91,695.5194 340,699.3794 340,707.6094 C340,715.8394 337.9018,720.0134 328.1718,719.5034 " fill="none" id="FiltrandoLista-to-FiltrandoLista" style="stroke:#008000;stroke-width:1.0;"/><polygon fill="#008000" points="322.18,719.1894,330.9583,723.655,327.1731,719.4511,331.377,715.6659,322.18,719.1894" style="stroke:#008000;stroke-width:1.0;"/><path d="M345,686.6094 L345,728.6094 L727,728.6094 L727,696.6094 L717,686.6094 L345,686.6094 " fill="#FEFFDD" style="stroke:#181818;stroke-width:0.5;"/><path d="M717,686.6094 L717,696.6094 L727,696.6094 L717,686.6094 " fill="#FEFFDD" style="stroke:#181818;stroke-width:0.5;"/><text fill="#000000" font-family="sans-serif" font-size="13" font-weight="bold" lengthAdjust="spacing" textLength="78" x="351" y="705.1045">Investigador</text><text fill="#000000" font-family="sans-serif" font-size="13" lengthAdjust="spacing" textLength="279" x="433" y="705.1045">solicita introducir criterios de filtrado o b&#250;squeda</text><text fill="#000000" font-family="sans-serif" font-size="13" font-weight="bold" lengthAdjust="spacing" textLength="51" x="351" y="721.4561">Sistema</text><text fill="#000000" font-family="sans-serif" font-size="13" lengthAdjust="spacing" textLength="173" x="406" y="721.4561">muestra el listado actualizado</text></g><!--link FiltrandoLista to *end*abrirMisPublicaciones--><g id="link_FiltrandoLista_*end*abrirMisPublicaciones"><path d="M297,732.6194 C297,755.5394 297,782.9694 297,799.5294 " fill="none" id="FiltrandoLista-to-*end*abrirMisPublicaciones" style="stroke:#008000;stroke-width:1.0;"/><polygon fill="#008000" points="297,805.5294,301,796.5294,297,800.5294,293,796.5294,297,805.5294" style="stroke:#008000;stroke-width:1.0;"/><path d="M302,756.6094 L302,782.6094 L598,782.6094 L598,766.6094 L588,756.6094 L302,756.6094 " fill="#FEFFDD" style="stroke:#181818;stroke-width:0.5;"/><path d="M588,756.6094 L588,766.6094 L598,766.6094 L588,756.6094 " fill="#FEFFDD" style="stroke:#181818;stroke-width:0.5;"/><text fill="#000000" font-family="sans-serif" font-size="13" font-weight="bold" lengthAdjust="spacing" textLength="51" x="308" y="775.1045">Sistema</text><text fill="#000000" font-family="sans-serif" font-size="13" lengthAdjust="spacing" textLength="220" x="363" y="775.1045">deja el listado de publicaciones visible</text></g><g id="in2"><rect fill="#F1F1F1" height="50" rx="12.5" ry="12.5" style="stroke:#181818;stroke-width:0.5;" width="198" x="519" y="7"/><line style="stroke:#181818;stroke-width:0.5;" x1="519" x2="717" y1="34.6094" y2="34.6094"/><text fill="#000000" font-family="sans-serif" font-size="14" lengthAdjust="spacing" textLength="178" x="529" y="26.5332">MI_PUBLICACION_ABIERTA</text></g><g id="MIS_PUBLICACIONES_ABIERTAS"><rect fill="#F1F1F1" height="50" rx="12.5" ry="12.5" style="stroke:#181818;stroke-width:0.5;" width="234" x="7" y="934"/><line style="stroke:#181818;stroke-width:0.5;" x1="7" x2="241" y1="961.6094" y2="961.6094"/><text fill="#000000" font-family="sans-serif" font-size="14" lengthAdjust="spacing" textLength="214" x="17" y="953.5332">MIS_PUBLICACIONES_ABIERTAS</text></g><g id="MI_PUBLICACION_ABIERTA"><rect fill="#F1F1F1" height="50" rx="12.5" ry="12.5" style="stroke:#181818;stroke-width:0.5;" width="198" x="368" y="934"/><line style="stroke:#181818;stroke-width:0.5;" x1="368" x2="566" y1="961.6094" y2="961.6094"/><text fill="#000000" font-family="sans-serif" font-size="14" lengthAdjust="spacing" textLength="178" x="378" y="953.5332">MI_PUBLICACION_ABIERTA</text></g><g id="PANEL_PRINCIPAL_ABIERTO"><rect fill="#F1F1F1" height="50" rx="12.5" ry="12.5" style="stroke:#181818;stroke-width:0.5;" width="210" x="661" y="934"/><line style="stroke:#181818;stroke-width:0.5;" x1="661" x2="871" y1="961.6094" y2="961.6094"/><text fill="#000000" font-family="sans-serif" font-size="14" lengthAdjust="spacing" textLength="190" x="671" y="953.5332">PANEL_PRINCIPAL_ABIERTO</text></g><!--link in1 to abrirMisPublicaciones--><g id="link_in1_abrirMisPublicaciones"><path d="M385.48,57.19 C389.48,72.12 393.5681,87.3342 400.1981,112.0942 " fill="none" id="in1-to-abrirMisPublicaciones" style="stroke:#008000;stroke-width:1.0;"/><polygon fill="#008000" points="401.75,117.89,403.286,108.1616,400.4567,113.0602,395.5582,110.2309,401.75,117.89" style="stroke:#008000;stroke-width:1.0;"/></g><!--link in2 to abrirMisPublicaciones--><g id="link_in2_abrirMisPublicaciones"><path d="M611.46,57.19 C607.43,72.12 603.315,87.3377 596.625,112.0977 " fill="none" id="in2-to-abrirMisPublicaciones" style="stroke:#008000;stroke-width:1.0;"/><polygon fill="#008000" points="595.06,117.89,601.2691,110.2449,596.3642,113.0631,593.546,108.1582,595.06,117.89" style="stroke:#008000;stroke-width:1.0;"/></g><!--link abrirMisPublicaciones to MIS_PUBLICACIONES_ABIERTAS--><g id="link_abrirMisPublicaciones_MIS_PUBLICACIONES_ABIERTAS"><path d="M259.8,747.58 C200.26,814.71 153,868 153,868 C153,868 142.2001,901.5091 133.6101,928.1691 " fill="none" id="abrirMisPublicaciones-to-MIS_PUBLICACIONES_ABIERTAS" style="stroke:#008000;stroke-width:1.0;"/><polygon fill="#008000" points="131.77,933.88,138.3374,926.5404,133.3034,929.1209,130.7229,924.087,131.77,933.88" style="stroke:#008000;stroke-width:1.0;"/><path d="M158,873 L158,899 L390,899 L390,883 L380,873 L158,873 " fill="#FEFFDD" style="stroke:#181818;stroke-width:0.5;"/><path d="M380,873 L380,883 L390,883 L380,873 " fill="#FEFFDD" style="stroke:#181818;stroke-width:0.5;"/><text fill="#000000" font-family="sans-serif" font-size="13" lengthAdjust="spacing" textLength="211" x="164" y="891.4951">Listado de mis publicaciones abierto</text></g><!--link abrirMisPublicaciones to MI_PUBLICACION_ABIERTA--><g id="link_abrirMisPublicaciones_MI_PUBLICACION_ABIERTA"><path d="M410.3,838.12 C405.74,856.77 403,868 403,868 C403,868 403,904 403,904 C403,904 416.7433,915.602 433.7833,929.972 " fill="none" id="abrirMisPublicaciones-to-MI_PUBLICACION_ABIERTA" style="stroke:#008000;stroke-width:1.0;"/><polygon fill="#008000" points="438.37,933.84,434.0686,924.9801,434.5477,930.6166,428.9112,931.0958,438.37,933.84" style="stroke:#008000;stroke-width:1.0;"/><path d="M408,873 L408,899 L543,899 L543,883 L533,873 L408,873 " fill="#FEFFDD" style="stroke:#181818;stroke-width:0.5;"/><path d="M533,873 L533,883 L543,883 L533,873 " fill="#FEFFDD" style="stroke:#181818;stroke-width:0.5;"/><text fill="#000000" font-family="sans-serif" font-size="13" lengthAdjust="spacing" textLength="114" x="414" y="891.4951">abrirMiPublicacion()</text></g><!--link abrirMisPublicaciones to MI_PUBLICACION_ABIERTA--><g id="link_abrirMisPublicaciones_MI_PUBLICACION_ABIERTA"><path d="M547.85,838.12 C550.44,856.77 552,868 552,868 C552,868 552,904 552,904 C552,904 532.7257,916.2547 510.0857,930.6247 " fill="none" id="abrirMisPublicaciones-to-MI_PUBLICACION_ABIERTA-1" style="stroke:#008000;stroke-width:1.0;"/><polygon fill="#008000" points="505.02,933.84,514.7622,932.3942,509.2415,931.1606,510.4751,925.6399,505.02,933.84" style="stroke:#008000;stroke-width:1.0;"/><path d="M557,873 L557,899 L682,899 L682,883 L672,873 L557,873 " fill="#FEFFDD" style="stroke:#181818;stroke-width:0.5;"/><path d="M672,873 L672,883 L682,883 L672,873 " fill="#FEFFDD" style="stroke:#181818;stroke-width:0.5;"/><text fill="#000000" font-family="sans-serif" font-size="13" lengthAdjust="spacing" textLength="104" x="563" y="891.4951">crearPublicacion()</text></g><!--link abrirMisPublicaciones to PANEL_PRINCIPAL_ABIERTO--><g id="link_abrirMisPublicaciones_PANEL_PRINCIPAL_ABIERTO"><path d="M698.89,838.06 C721.31,878.12 737.429,906.9446 749.449,928.4146 " fill="none" id="abrirMisPublicaciones-to-PANEL_PRINCIPAL_ABIERTO" style="stroke:#008000;stroke-width:1.0;"/><polygon fill="#008000" points="752.38,933.65,751.4737,923.8429,749.9375,929.2872,744.4932,927.751,752.38,933.65" style="stroke:#008000;stroke-width:1.0;"/><path d="M737,873 L737,899 L874,899 L874,883 L864,873 L737,873 " fill="#FEFFDD" style="stroke:#181818;stroke-width:0.5;"/><path d="M864,873 L864,883 L874,883 L864,873 " fill="#FEFFDD" style="stroke:#181818;stroke-width:0.5;"/><text fill="#000000" font-family="sans-serif" font-size="13" lengthAdjust="spacing" textLength="116" x="743" y="891.4951">abrirPanelPrincipal()</text></g><!--SRC=[hLNDZjCm4BxdAQnoQP5MA_Q8LfMofIj5IhjHkvnMgyfnXkwmZXtiUAM2a7WMxfouSUsRy2JOITF49OMo8hraVlpDD-ClK_s8eg2AveIZW79J02aatpWZ27H9Io0eNX6goI09vzDubIoY-IHAmdWLNaNJnUtD8709PtSlrWf0t9-D2KqLgXdgnAGS6MKe1UWMxQ92cqMhvErL74t2INGptu653kpYTB3UO0NV6ncE1kHJ413xrES7zcUpPrANYefCncZzlyUlaNVZLSBTotkFPm-6a1P22ZVPnyfncOuZyGIwn3NDfBeyJyT4IyiFIrhtGe3RT0kGIP81qKQJmclSmO38AkoQY5_OutJ0-nYdfOr2JYiwXG8Dmk9O8YcN7mmu7kyg84NEIMeqiozCYjVLyPzVlfBRxRVISBctfnN_lNaDx86IOGOwWz6Xzu7Qv57mDogTcUHuC1EVJFJcdtZjhGLeauFOsmce71k94IDeMtJxNTI4DwJOPJMtg0YtUj6uDcYfEosoccHBC2mSYgfdAlNU7sDUO8y_h0XunPlGH04z4jgTei8Ehr0e61QKzwZ7byXpr7DSqIXi8vbXbWXJTaeAfMxLP6zJadJxGrkDPRHF0Ba19-tk_LDM6ihnOtEF9pTZFzUJz9_1-qF1-M9xGeqf1x_wvo3eNqNUXeYMtPKtNJPBRnbuhE8_QPsc2AgKGTluAONxLgrVT8VI0HcE_diHvlJw_197_e1w6acSxfD6zjqolm00]--></g></svg>