<?xml version="1.0" encoding="us-ascii" standalone="no"?><svg xmlns="http://www.w3.org/2000/svg" xmlns:xlink="http://www.w3.org/1999/xlink" contentStyleType="text/css" height="363px" preserveAspectRatio="none" style="width:811px;height:363px;background:#FFFFFF;" version="1.1" viewBox="0 0 811 363" width="811px" zoomAndPan="magnify"><defs/><g><line style="stroke:#AAAAAA;stroke-width:1.0;" x1="6" x2="804" y1="8.5" y2="8.5"/><line style="stroke:#AAAAAA;stroke-width:1.0;" x1="6" x2="804" y1="10.5" y2="10.5"/><text fill="#000000" font-family="sans-serif" font-size="12" font-weight="bold" lengthAdjust="spacing" textLength="136" x="6" y="26.457">GIPF - CONVOCATORIAS</text><line style="stroke:#AAAAAA;stroke-width:1.0;" x1="6" x2="804" y1="33.5938" y2="33.5938"/><line style="stroke:#AAAAAA;stroke-width:1.0;" x1="6" x2="804" y1="35.5938" y2="35.5938"/><text fill="#000000" font-family="sans-serif" font-size="12" font-weight="bold" lengthAdjust="spacing" textLength="81" x="6" y="51.5508">Buscar / filtrar</text><text fill="#000000" font-family="sans-serif" font-size="12" font-weight="bold" lengthAdjust="spacing" textLength="35" x="8" y="70.6445">Texto:</text><rect fill="#EEEEEE" height="19.0938" rx="5" ry="5" style="stroke:#000000;stroke-width:2.5;" width="412" x="47.5" y="60.6875"/><text fill="#000000" font-family="sans-serif" font-size="12" lengthAdjust="spacing" textLength="186" x="160.5" y="75.1445">investigaci&#243;n / becas / movilidad...</text><text fill="#000000" font-family="sans-serif" font-size="12" font-weight="bold" lengthAdjust="spacing" textLength="30" x="8" y="98.7383">&#193;rea:</text><text fill="#000000" font-family="sans-serif" font-size="12" lengthAdjust="spacing" textLength="35" x="44" y="99.7383">Todas</text><line style="stroke:#000000;stroke-width:1.0;" x1="42" x2="85" y1="102.375" y2="102.375"/><line style="stroke:#000000;stroke-width:1.0;" x1="42" x2="42" y1="99.375" y2="101.375"/><line style="stroke:#000000;stroke-width:1.0;" x1="85" x2="85" y1="99.375" y2="101.375"/><text fill="#000000" font-family="sans-serif" font-size="12" lengthAdjust="spacing" textLength="72" x="92" y="99.7383">Investigaci&#243;n</text><line style="stroke:#000000;stroke-width:1.0;" x1="90" x2="197" y1="102.375" y2="102.375"/><line style="stroke:#000000;stroke-width:1.0;" x1="90" x2="90" y1="99.375" y2="101.375"/><line style="stroke:#000000;stroke-width:1.0;" x1="197" x2="197" y1="99.375" y2="101.375"/><text fill="#000000" font-family="sans-serif" font-size="12" lengthAdjust="spacing" textLength="52" x="204" y="99.7383">Docencia</text><line style="stroke:#000000;stroke-width:1.0;" x1="202" x2="269" y1="102.375" y2="102.375"/><line style="stroke:#000000;stroke-width:1.0;" x1="202" x2="202" y1="99.375" y2="101.375"/><line style="stroke:#000000;stroke-width:1.0;" x1="269" x2="269" y1="99.375" y2="101.375"/><text fill="#000000" font-family="sans-serif" font-size="12" lengthAdjust="spacing" textLength="51" x="276" y="99.7383">Movilidad</text><line style="stroke:#000000;stroke-width:1.0;" x1="274" x2="349" y1="102.375" y2="102.375"/><line style="stroke:#000000;stroke-width:1.0;" x1="274" x2="274" y1="99.375" y2="101.375"/><line style="stroke:#000000;stroke-width:1.0;" x1="349" x2="349" y1="99.375" y2="101.375"/><text fill="#000000" font-family="sans-serif" font-size="12" lengthAdjust="spacing" textLength="35" x="356" y="99.7383">Becas</text><line style="stroke:#000000;stroke-width:1.0;" x1="354" x2="397" y1="102.375" y2="102.375"/><line style="stroke:#000000;stroke-width:1.0;" x1="354" x2="354" y1="99.375" y2="101.375"/><line style="stroke:#000000;stroke-width:1.0;" x1="397" x2="397" y1="99.375" y2="101.375"/><text fill="#000000" font-family="sans-serif" font-size="12" font-weight="bold" lengthAdjust="spacing" textLength="42" x="8" y="121.832">Estado:</text><text fill="#000000" font-family="sans-serif" font-size="12" lengthAdjust="spacing" textLength="35" x="56" y="122.832">Todas</text><line style="stroke:#000000;stroke-width:1.0;" x1="54" x2="97" y1="125.4688" y2="125.4688"/><line style="stroke:#000000;stroke-width:1.0;" x1="54" x2="54" y1="122.4688" y2="124.4688"/><line style="stroke:#000000;stroke-width:1.0;" x1="97" x2="97" y1="122.4688" y2="124.4688"/><text fill="#000000" font-family="sans-serif" font-size="12" lengthAdjust="spacing" textLength="38" x="104" y="122.832">Abierta</text><line style="stroke:#000000;stroke-width:1.0;" x1="102" x2="161" y1="125.4688" y2="125.4688"/><line style="stroke:#000000;stroke-width:1.0;" x1="102" x2="102" y1="122.4688" y2="124.4688"/><line style="stroke:#000000;stroke-width:1.0;" x1="161" x2="161" y1="122.4688" y2="124.4688"/><text fill="#000000" font-family="sans-serif" font-size="12" lengthAdjust="spacing" textLength="45" x="168" y="122.832">Cerrada</text><line style="stroke:#000000;stroke-width:1.0;" x1="166" x2="225" y1="125.4688" y2="125.4688"/><line style="stroke:#000000;stroke-width:1.0;" x1="166" x2="166" y1="122.4688" y2="124.4688"/><line style="stroke:#000000;stroke-width:1.0;" x1="225" x2="225" y1="122.4688" y2="124.4688"/><text fill="#000000" font-family="sans-serif" font-size="12" lengthAdjust="spacing" textLength="77" x="232" y="122.832">En evaluaci&#243;n</text><line style="stroke:#000000;stroke-width:1.0;" x1="230" x2="337" y1="125.4688" y2="125.4688"/><line style="stroke:#000000;stroke-width:1.0;" x1="230" x2="230" y1="122.4688" y2="124.4688"/><line style="stroke:#000000;stroke-width:1.0;" x1="337" x2="337" y1="122.4688" y2="124.4688"/><line style="stroke:#AAAAAA;stroke-width:1.0;" x1="7" x2="464" y1="134.9688" y2="134.9688"/><rect fill="#EEEEEE" height="19.0938" rx="5" ry="5" style="stroke:#000000;stroke-width:2.5;" width="52" x="10.5" y="142.9688"/><text fill="#000000" font-family="sans-serif" font-size="12" lengthAdjust="spacing" textLength="39" x="17" y="157.4258">Buscar</text><rect fill="#EEEEEE" height="19.0938" rx="5" ry="5" style="stroke:#000000;stroke-width:2.5;" width="60" x="69.5" y="142.9688"/><text fill="#000000" font-family="sans-serif" font-size="12" lengthAdjust="spacing" textLength="42" x="78.5" y="157.4258">Limpiar</text><line style="stroke:#AAAAAA;stroke-width:1.0;" x1="6" x2="804" y1="172.0625" y2="172.0625"/><text fill="#000000" font-family="sans-serif" font-size="12" font-weight="bold" lengthAdjust="spacing" textLength="143" x="6" y="189.0195">Listado de convocatorias</text><text fill="#000000" font-family="sans-serif" font-size="12" font-weight="bold" lengthAdjust="spacing" textLength="11" x="8" y="208.1133">ID</text><text fill="#000000" font-family="sans-serif" font-size="12" font-weight="bold" lengthAdjust="spacing" textLength="31" x="21" y="208.1133">T&#237;tulo</text><text fill="#000000" font-family="sans-serif" font-size="12" font-weight="bold" lengthAdjust="spacing" textLength="27" x="54" y="208.1133">&#193;rea</text><text fill="#000000" font-family="sans-serif" font-size="12" font-weight="bold" lengthAdjust="spacing" textLength="39" x="83" y="208.1133">Estado</text><text fill="#000000" font-family="sans-serif" font-size="12" font-weight="bold" lengthAdjust="spacing" textLength="35" x="124" y="208.1133">Cierre</text><text fill="#000000" font-family="sans-serif" font-size="12" font-weight="bold" lengthAdjust="spacing" textLength="53" x="161" y="208.1133">Acciones</text><text fill="#000000" font-family="sans-serif" font-size="12" lengthAdjust="spacing" textLength="114" x="11" y="227.207">CONV-INV-2025-003</text><line style="stroke:#000000;stroke-width:1.0;" x1="9" x2="148" y1="229.8438" y2="229.8438"/><line style="stroke:#000000;stroke-width:1.0;" x1="9" x2="9" y1="226.8438" y2="228.8438"/><line style="stroke:#000000;stroke-width:1.0;" x1="148" x2="148" y1="226.8438" y2="228.8438"/><text fill="#000000" font-family="sans-serif" font-size="12" lengthAdjust="spacing" textLength="226" x="155" y="227.207">Proyectos de investigaci&#243;n 2025 (interno)</text><line style="stroke:#000000;stroke-width:1.0;" x1="153" x2="484" y1="229.8438" y2="229.8438"/><line style="stroke:#000000;stroke-width:1.0;" x1="153" x2="153" y1="226.8438" y2="228.8438"/><line style="stroke:#000000;stroke-width:1.0;" x1="484" x2="484" y1="226.8438" y2="228.8438"/><text fill="#000000" font-family="sans-serif" font-size="12" lengthAdjust="spacing" textLength="72" x="491" y="227.207">Investigaci&#243;n</text><line style="stroke:#000000;stroke-width:1.0;" x1="489" x2="596" y1="229.8438" y2="229.8438"/><line style="stroke:#000000;stroke-width:1.0;" x1="489" x2="489" y1="226.8438" y2="228.8438"/><line style="stroke:#000000;stroke-width:1.0;" x1="596" x2="596" y1="226.8438" y2="228.8438"/><text fill="#000000" font-family="sans-serif" font-size="12" lengthAdjust="spacing" textLength="38" x="603" y="227.207">Abierta</text><line style="stroke:#000000;stroke-width:1.0;" x1="601" x2="660" y1="229.8438" y2="229.8438"/><line style="stroke:#000000;stroke-width:1.0;" x1="601" x2="601" y1="226.8438" y2="228.8438"/><line style="stroke:#000000;stroke-width:1.0;" x1="660" x2="660" y1="226.8438" y2="228.8438"/><text fill="#000000" font-family="sans-serif" font-size="12" lengthAdjust="spacing" textLength="62" x="667" y="227.207">20/03/2025</text><line style="stroke:#000000;stroke-width:1.0;" x1="665" x2="748" y1="229.8438" y2="229.8438"/><line style="stroke:#000000;stroke-width:1.0;" x1="665" x2="665" y1="226.8438" y2="228.8438"/><line style="stroke:#000000;stroke-width:1.0;" x1="748" x2="748" y1="226.8438" y2="228.8438"/><rect fill="#EEEEEE" height="19.0938" rx="5" ry="5" style="stroke:#000000;stroke-width:2.5;" width="44" x="754.5" y="217.25"/><text fill="#000000" font-family="sans-serif" font-size="12" lengthAdjust="spacing" textLength="25" x="764" y="231.707">Abrir</text><text fill="#000000" font-family="sans-serif" font-size="12" lengthAdjust="spacing" textLength="120" x="11" y="255.3008">CONV-BEC-2025-002</text><line style="stroke:#000000;stroke-width:1.0;" x1="9" x2="148" y1="257.9375" y2="257.9375"/><line style="stroke:#000000;stroke-width:1.0;" x1="9" x2="9" y1="254.9375" y2="256.9375"/><line style="stroke:#000000;stroke-width:1.0;" x1="148" x2="148" y1="254.9375" y2="256.9375"/><text fill="#000000" font-family="sans-serif" font-size="12" lengthAdjust="spacing" textLength="214" x="155" y="255.3008">Becas excelencia FUNIBER 2025/2026</text><line style="stroke:#000000;stroke-width:1.0;" x1="153" x2="428" y1="257.9375" y2="257.9375"/><line style="stroke:#000000;stroke-width:1.0;" x1="153" x2="153" y1="254.9375" y2="256.9375"/><line style="stroke:#000000;stroke-width:1.0;" x1="428" x2="428" y1="254.9375" y2="256.9375"/><text fill="#000000" font-family="sans-serif" font-size="12" lengthAdjust="spacing" textLength="35" x="435" y="255.3008">Becas</text><line style="stroke:#000000;stroke-width:1.0;" x1="433" x2="476" y1="257.9375" y2="257.9375"/><line style="stroke:#000000;stroke-width:1.0;" x1="433" x2="433" y1="254.9375" y2="256.9375"/><line style="stroke:#000000;stroke-width:1.0;" x1="476" x2="476" y1="254.9375" y2="256.9375"/><text fill="#000000" font-family="sans-serif" font-size="12" lengthAdjust="spacing" textLength="38" x="483" y="255.3008">Abierta</text><line style="stroke:#000000;stroke-width:1.0;" x1="481" x2="540" y1="257.9375" y2="257.9375"/><line style="stroke:#000000;stroke-width:1.0;" x1="481" x2="481" y1="254.9375" y2="256.9375"/><line style="stroke:#000000;stroke-width:1.0;" x1="540" x2="540" y1="254.9375" y2="256.9375"/><text fill="#000000" font-family="sans-serif" font-size="12" lengthAdjust="spacing" textLength="62" x="547" y="255.3008">15/05/2025</text><line style="stroke:#000000;stroke-width:1.0;" x1="545" x2="628" y1="257.9375" y2="257.9375"/><line style="stroke:#000000;stroke-width:1.0;" x1="545" x2="545" y1="254.9375" y2="256.9375"/><line style="stroke:#000000;stroke-width:1.0;" x1="628" x2="628" y1="254.9375" y2="256.9375"/><rect fill="#EEEEEE" height="19.0938" rx="5" ry="5" style="stroke:#000000;stroke-width:2.5;" width="44" x="634.5" y="245.3438"/><text fill="#000000" font-family="sans-serif" font-size="12" lengthAdjust="spacing" textLength="25" x="644" y="259.8008">Abrir</text><text fill="#000000" font-family="sans-serif" font-size="12" lengthAdjust="spacing" textLength="120" x="11" y="283.3945">CONV-MOV-2025-001</text><line style="stroke:#000000;stroke-width:1.0;" x1="9" x2="148" y1="286.0313" y2="286.0313"/><line style="stroke:#000000;stroke-width:1.0;" x1="9" x2="9" y1="283.0313" y2="285.0313"/><line style="stroke:#000000;stroke-width:1.0;" x1="148" x2="148" y1="283.0313" y2="285.0313"/><text fill="#000000" font-family="sans-serif" font-size="12" lengthAdjust="spacing" textLength="230" x="155" y="283.3945">Movilidad docente internacional (Q2 2025)</text><line style="stroke:#000000;stroke-width:1.0;" x1="153" x2="484" y1="286.0313" y2="286.0313"/><line style="stroke:#000000;stroke-width:1.0;" x1="153" x2="153" y1="283.0313" y2="285.0313"/><line style="stroke:#000000;stroke-width:1.0;" x1="484" x2="484" y1="283.0313" y2="285.0313"/><text fill="#000000" font-family="sans-serif" font-size="12" lengthAdjust="spacing" textLength="51" x="491" y="283.3945">Movilidad</text><line style="stroke:#000000;stroke-width:1.0;" x1="489" x2="564" y1="286.0313" y2="286.0313"/><line style="stroke:#000000;stroke-width:1.0;" x1="489" x2="489" y1="283.0313" y2="285.0313"/><line style="stroke:#000000;stroke-width:1.0;" x1="564" x2="564" y1="283.0313" y2="285.0313"/><text fill="#000000" font-family="sans-serif" font-size="12" lengthAdjust="spacing" textLength="77" x="571" y="283.3945">En evaluaci&#243;n</text><line style="stroke:#000000;stroke-width:1.0;" x1="569" x2="676" y1="286.0313" y2="286.0313"/><line style="stroke:#000000;stroke-width:1.0;" x1="569" x2="569" y1="283.0313" y2="285.0313"/><line style="stroke:#000000;stroke-width:1.0;" x1="676" x2="676" y1="283.0313" y2="285.0313"/><text fill="#000000" font-family="sans-serif" font-size="12" lengthAdjust="spacing" textLength="12" x="683" y="283.3945">&#8212;</text><line style="stroke:#000000;stroke-width:1.0;" x1="681" x2="696" y1="286.0313" y2="286.0313"/><line style="stroke:#000000;stroke-width:1.0;" x1="681" x2="681" y1="283.0313" y2="285.0313"/><line style="stroke:#000000;stroke-width:1.0;" x1="696" x2="696" y1="283.0313" y2="285.0313"/><rect fill="#EEEEEE" height="19.0938" rx="5" ry="5" style="stroke:#000000;stroke-width:2.5;" width="44" x="702.5" y="273.4375"/><text fill="#000000" font-family="sans-serif" font-size="12" lengthAdjust="spacing" textLength="25" x="712" y="287.8945">Abrir</text><text fill="#000000" font-family="sans-serif" font-size="12" lengthAdjust="spacing" textLength="122" x="11" y="311.4883">CONV-DOC-2024-004</text><line style="stroke:#000000;stroke-width:1.0;" x1="9" x2="148" y1="314.125" y2="314.125"/><line style="stroke:#000000;stroke-width:1.0;" x1="9" x2="9" y1="311.125" y2="313.125"/><line style="stroke:#000000;stroke-width:1.0;" x1="148" x2="148" y1="311.125" y2="313.125"/><text fill="#000000" font-family="sans-serif" font-size="12" lengthAdjust="spacing" textLength="229" x="155" y="311.4883">Innovaci&#243;n docente: proyectos piloto 2024</text><line style="stroke:#000000;stroke-width:1.0;" x1="153" x2="484" y1="314.125" y2="314.125"/><line style="stroke:#000000;stroke-width:1.0;" x1="153" x2="153" y1="311.125" y2="313.125"/><line style="stroke:#000000;stroke-width:1.0;" x1="484" x2="484" y1="311.125" y2="313.125"/><text fill="#000000" font-family="sans-serif" font-size="12" lengthAdjust="spacing" textLength="52" x="491" y="311.4883">Docencia</text><line style="stroke:#000000;stroke-width:1.0;" x1="489" x2="556" y1="314.125" y2="314.125"/><line style="stroke:#000000;stroke-width:1.0;" x1="489" x2="489" y1="311.125" y2="313.125"/><line style="stroke:#000000;stroke-width:1.0;" x1="556" x2="556" y1="311.125" y2="313.125"/><text fill="#000000" font-family="sans-serif" font-size="12" lengthAdjust="spacing" textLength="45" x="563" y="311.4883">Cerrada</text><line style="stroke:#000000;stroke-width:1.0;" x1="561" x2="620" y1="314.125" y2="314.125"/><line style="stroke:#000000;stroke-width:1.0;" x1="561" x2="561" y1="311.125" y2="313.125"/><line style="stroke:#000000;stroke-width:1.0;" x1="620" x2="620" y1="311.125" y2="313.125"/><text fill="#000000" font-family="sans-serif" font-size="12" lengthAdjust="spacing" textLength="62" x="627" y="311.4883">30/11/2024</text><line style="stroke:#000000;stroke-width:1.0;" x1="625" x2="708" y1="314.125" y2="314.125"/><line style="stroke:#000000;stroke-width:1.0;" x1="625" x2="625" y1="311.125" y2="313.125"/><line style="stroke:#000000;stroke-width:1.0;" x1="708" x2="708" y1="311.125" y2="313.125"/><rect fill="#EEEEEE" height="19.0938" rx="5" ry="5" style="stroke:#000000;stroke-width:2.5;" width="44" x="714.5" y="301.5313"/><text fill="#000000" font-family="sans-serif" font-size="12" lengthAdjust="spacing" textLength="25" x="724" y="315.9883">Abrir</text><line style="stroke:#AAAAAA;stroke-width:1.0;" x1="6" x2="804" y1="330.625" y2="330.625"/><rect fill="#EEEEEE" height="19.0938" rx="5" ry="5" style="stroke:#000000;stroke-width:2.5;" width="172" x="9.5" y="338.625"/><text fill="#000000" font-family="sans-serif" font-size="12" lengthAdjust="spacing" textLength="110" x="40.5" y="353.082">Abrir Panel principal</text><!--SRC=[ZLJDRjf04BxxAKQSoC7O_4KLIgE0CH4f19gGNA8SrlQ4hcHsqNhj9g98xJlqDNhg8-HD-YJTNTiOK59r9Sipwy_VVFlDs1U9948c99OGSfRna4WkA4dw0KKXIM9_fGAV15cXjR50hOzgcU0iEBySpqTWWpUxlfzv_SNiPjo_FNE2ymfO8WTf4X813ZpHM0eYTgYSr4GQjy1doNlwANo31w0imqJI9Gdfws-cNWym98cwhtX6OngHgD5emC5wXEqXvUiFWQIat41jmIEIr5HS6n-mcwqX3v65b9XaMXOnsK2Nhi7scDzN3aRypGA5YIRsK0WIvR7F03CIfsNXVKxRtgD_o7rxr6PCw6fDTPnZjxct2bvwFA562KHusChtl1uF2ytQzzTVCervjM5SgzBya5NkgOC9hF9-65BEqDGwCAYcXyCUgwlbjhgswxQD0tF1Np2KFD5gZxgiWL2dJA9W_EIzJkrxst8Tj-teztJwq0y45Ozlo1ZuNYcZLVKKy3d4sBGTHdVNuu5_OpHemjFQRh2g4TZRsLVHx3fkzpzKJ6SxCvg7SmQH7Z-f7T679zfJ4aFzSyi8KbuSZMMXudYUrDQVxp__hM8uCrvqb8fEuJ7ZMT62GaSFrhi-hMdC9TSwEhcCwbCfPUoFUDjrcaqdHn_BE1hTJV4OveHXh4fIHRiciOPlhGjaaVuzMTOy9apUJIUGeKYKCz1iQFv6kxxuai880sXsbRvUn-svNV3yXH5xOjKlvvEi1GbFHOWGgQz4q22LYk74kY8PWPkKIRfIfvsjaLqDFvKRuBEC2ivMoWlhwdvQ0Kuxze1Ak4MXjC3zr1hY4qdLFzHd8OyeM_RWRZ6oFrWJmfOfMIfkJ2oFArxnqWF_zYy0]--></g></svg>