<?plantuml 1.2026.2?><svg xmlns="http://www.w3.org/2000/svg" xmlns:xlink="http://www.w3.org/1999/xlink" contentStyleType="text/css" data-diagram-type="SEQUENCE" height="343px" preserveAspectRatio="none" style="width:804px;height:343px;background:#FFFFFF;" version="1.1" viewBox="0 0 804 343" width="804px" zoomAndPan="magnify"><defs/><g><g><title>..boundary..</title><rect fill="#FFFFFF" height="203.9297" style="stroke:#181818;stroke-width:1;" width="10" x="264.9233" y="114.7266"/></g><g><title>..control..</title><rect fill="#FFFFFF" height="145.6641" style="stroke:#181818;stroke-width:1;" width="10" x="420.3867" y="143.8594"/></g><g><title>..entity..</title><rect fill="#FFFFFF" height="87.3984" style="stroke:#181818;stroke-width:1;" width="10" x="573.5703" y="172.9922"/></g><g><title>..database..</title><rect fill="#FFFFFF" height="29.1328" style="stroke:#181818;stroke-width:1;" width="10" x="754.8442" y="202.125"/></g><g class="participant-lifeline" data-entity-uid="part1" data-qualified-name="Investigador" id="part1-lifeline"><g><title>Investigador</title><rect fill="#000000" fill-opacity="0.00000" height="253.0625" width="8" x="47.6235" y="83.5938"/><line style="stroke:#181818;stroke-width:0.5;stroke-dasharray:5,5;" x1="51" x2="51" y1="83.5938" y2="336.6563"/></g></g><g class="participant-lifeline" data-entity-uid="part2" data-qualified-name="ListarProyectosView" id="part2-lifeline"><g><title>..boundary..</title><rect fill="#000000" fill-opacity="0.00000" height="253.0625" width="8" x="265.9233" y="83.5938"/><line style="stroke:#181818;stroke-width:0.5;stroke-dasharray:5,5;" x1="269.4004" x2="269.4004" y1="83.5938" y2="336.6563"/></g></g><g class="participant-lifeline" data-entity-uid="part3" data-qualified-name="ProyectosController" id="part3-lifeline"><g><title>..control..</title><rect fill="#000000" fill-opacity="0.00000" height="253.0625" width="8" x="421.3867" y="83.5938"/><line style="stroke:#181818;stroke-width:0.5;stroke-dasharray:5,5;" x1="424.4463" x2="424.4463" y1="83.5938" y2="336.6563"/></g></g><g class="participant-lifeline" data-entity-uid="part4" data-qualified-name="ProyectoRepository" id="part4-lifeline"><g><title>..entity..</title><rect fill="#000000" fill-opacity="0.00000" height="253.0625" width="8" x="574.5703" y="83.5938"/><line style="stroke:#181818;stroke-width:0.5;stroke-dasharray:5,5;" x1="578.3271" x2="578.3271" y1="83.5938" y2="336.6563"/></g></g><g class="participant-lifeline" data-entity-uid="part5" data-qualified-name="Database" id="part5-lifeline"><g><title>..database..</title><rect fill="#000000" fill-opacity="0.00000" height="253.0625" width="8" x="755.8442" y="83.5938"/><line style="stroke:#181818;stroke-width:0.5;stroke-dasharray:5,5;" x1="759.75" x2="759.75" y1="83.5938" y2="336.6563"/></g></g><g class="participant participant-head" data-entity-uid="part1" data-qualified-name="Investigador" id="part1-head"><text fill="#000000" font-family="sans-serif" font-size="14" lengthAdjust="spacing" textLength="87.2471" x="5" y="80.292">Investigador</text><ellipse cx="51.6235" cy="15.7969" fill="#E2E2F0" rx="8" ry="8" style="stroke:#181818;stroke-width:0.5;"/><path d="M51.6235,23.7969 L51.6235,50.7969 M38.6235,31.7969 L64.6235,31.7969 M51.6235,50.7969 L38.6235,65.7969 M51.6235,50.7969 L64.6235,65.7969" fill="none" style="stroke:#181818;stroke-width:0.5;"/></g><g class="participant participant-head" data-entity-uid="part2" data-qualified-name="ListarProyectosView" id="part2-head"><text fill="#000000" font-family="sans-serif" font-size="14" font-style="italic" lengthAdjust="spacing" textLength="83.9863" x="224.9302" y="63.9951">&#171;boundary&#187;</text><text fill="#000000" font-family="sans-serif" font-size="14" lengthAdjust="spacing" textLength="141.0459" x="196.4004" y="80.292">ListarProyectosView</text><path d="M249.4233,23 L249.4233,47 M249.4233,35 L266.4233,35" fill="none" style="stroke:#181818;stroke-width:0.5;"/><ellipse cx="278.4233" cy="35" fill="#E2E2F0" rx="12" ry="12" style="stroke:#181818;stroke-width:0.5;"/></g><g class="participant participant-head" data-entity-uid="part3" data-qualified-name="ProyectosController" id="part3-head"><text fill="#000000" font-family="sans-serif" font-size="14" font-style="italic" lengthAdjust="spacing" textLength="66.1172" x="389.3281" y="63.9951">&#171;control&#187;</text><text fill="#000000" font-family="sans-serif" font-size="14" lengthAdjust="spacing" textLength="137.8809" x="353.4463" y="80.292">ProyectosController</text><ellipse cx="425.3867" cy="35" fill="#E2E2F0" rx="12" ry="12" style="stroke:#181818;stroke-width:0.5;"/><polygon fill="#181818" points="421.3867,23,427.3867,18,425.3867,23,427.3867,28,421.3867,23" style="stroke:#181818;stroke-width:1;"/></g><g class="participant participant-head" data-entity-uid="part4" data-qualified-name="ProyectoRepository" id="part4-head"><text fill="#000000" font-family="sans-serif" font-size="14" font-style="italic" lengthAdjust="spacing" textLength="57.9209" x="546.6099" y="63.9951">&#171;entity&#187;</text><text fill="#000000" font-family="sans-serif" font-size="14" lengthAdjust="spacing" textLength="136.4863" x="507.3271" y="80.292">ProyectoRepository</text><ellipse cx="578.5703" cy="35" fill="#E2E2F0" rx="12" ry="12" style="stroke:#181818;stroke-width:0.5;"/><line style="stroke:#181818;stroke-width:0.5;" x1="566.5703" x2="590.5703" y1="49" y2="49"/></g><g class="participant participant-head" data-entity-uid="part5" data-qualified-name="Database" id="part5-head"><text fill="#000000" font-family="sans-serif" font-size="14" font-style="italic" lengthAdjust="spacing" textLength="82.1885" x="715.75" y="63.9951">&#171;database&#187;</text><text fill="#000000" font-family="sans-serif" font-size="14" lengthAdjust="spacing" textLength="66.8008" x="723.4438" y="80.292">Database</text><path d="M741.8442,15 C741.8442,5 759.8442,5 759.8442,5 C759.8442,5 777.8442,5 777.8442,15 L777.8442,41 C777.8442,51 759.8442,51 759.8442,51 C759.8442,51 741.8442,51 741.8442,41 L741.8442,15" fill="#E2E2F0" style="stroke:#181818;stroke-width:0.5;"/><path d="M741.8442,15 C741.8442,25 759.8442,25 759.8442,25 C759.8442,25 777.8442,25 777.8442,15" fill="none" style="stroke:#181818;stroke-width:0.5;"/></g><g><title>..boundary..</title><rect fill="#FFFFFF" height="203.9297" style="stroke:#181818;stroke-width:1;" width="10" x="264.9233" y="114.7266"/></g><g><title>..control..</title><rect fill="#FFFFFF" height="145.6641" style="stroke:#181818;stroke-width:1;" width="10" x="420.3867" y="143.8594"/></g><g><title>..entity..</title><rect fill="#FFFFFF" height="87.3984" style="stroke:#181818;stroke-width:1;" width="10" x="573.5703" y="172.9922"/></g><g><title>..database..</title><rect fill="#FFFFFF" height="29.1328" style="stroke:#181818;stroke-width:1;" width="10" x="754.8442" y="202.125"/></g><g class="message" data-entity-1="part1" data-entity-2="part2" id="msg1"><polygon fill="#181818" points="252.9233,110.7266,262.9233,114.7266,252.9233,118.7266" style="stroke:#181818;stroke-width:1;"/><line style="stroke:#181818;stroke-width:1;" x1="51.6235" x2="258.9233" y1="114.7266" y2="114.7266"/><text fill="#000000" font-family="sans-serif" font-size="13" lengthAdjust="spacing" textLength="104.4634" x="58.6235" y="109.6606">abrirProyectos()</text></g><g class="message" data-entity-1="part2" data-entity-2="part3" id="msg2"><polygon fill="#181818" points="408.3867,139.8594,418.3867,143.8594,408.3867,147.8594" style="stroke:#181818;stroke-width:1;"/><line style="stroke:#181818;stroke-width:1;" x1="274.9233" x2="414.3867" y1="143.8594" y2="143.8594"/><text fill="#000000" font-family="sans-serif" font-size="13" lengthAdjust="spacing" textLength="106.3486" x="281.9233" y="138.7935">listarProyectos()</text></g><g class="message" data-entity-1="part3" data-entity-2="part4" id="msg3"><polygon fill="#181818" points="561.5703,168.9922,571.5703,172.9922,561.5703,176.9922" style="stroke:#181818;stroke-width:1;"/><line style="stroke:#181818;stroke-width:1;" x1="430.3867" x2="567.5703" y1="172.9922" y2="172.9922"/><text fill="#000000" font-family="sans-serif" font-size="13" lengthAdjust="spacing" textLength="99.8994" x="437.3867" y="167.9263">obtenerTodos()</text></g><g class="message" data-entity-1="part4" data-entity-2="part5" id="msg4"><polygon fill="#181818" points="742.8442,198.125,752.8442,202.125,742.8442,206.125" style="stroke:#181818;stroke-width:1;"/><line style="stroke:#181818;stroke-width:1;" x1="583.5703" x2="748.8442" y1="202.125" y2="202.125"/><text fill="#000000" font-family="sans-serif" font-size="13" lengthAdjust="spacing" textLength="152.2739" x="590.5703" y="197.0591">select * from proyectos</text></g><g class="message" data-entity-1="part5" data-entity-2="part4" id="msg5"><polygon fill="#181818" points="594.5703,227.2578,584.5703,231.2578,594.5703,235.2578" style="stroke:#181818;stroke-width:1;"/><line style="stroke:#181818;stroke-width:1;stroke-dasharray:2,2;" x1="588.5703" x2="758.8442" y1="231.2578" y2="231.2578"/><text fill="#000000" font-family="sans-serif" font-size="13" lengthAdjust="spacing" textLength="64.2129" x="600.5703" y="226.1919">proyectos</text></g><g class="message" data-entity-1="part4" data-entity-2="part3" id="msg6"><polygon fill="#181818" points="441.3867,256.3906,431.3867,260.3906,441.3867,264.3906" style="stroke:#181818;stroke-width:1;"/><line style="stroke:#181818;stroke-width:1;stroke-dasharray:2,2;" x1="435.3867" x2="577.5703" y1="260.3906" y2="260.3906"/><text fill="#000000" font-family="sans-serif" font-size="13" lengthAdjust="spacing" textLength="64.2129" x="447.3867" y="255.3247">proyectos</text></g><g class="message" data-entity-1="part3" data-entity-2="part2" id="msg7"><polygon fill="#181818" points="285.9233,285.5234,275.9233,289.5234,285.9233,293.5234" style="stroke:#181818;stroke-width:1;"/><line style="stroke:#181818;stroke-width:1;stroke-dasharray:2,2;" x1="279.9233" x2="424.3867" y1="289.5234" y2="289.5234"/><text fill="#000000" font-family="sans-serif" font-size="13" lengthAdjust="spacing" textLength="64.2129" x="291.9233" y="284.4575">proyectos</text></g><g class="message" data-entity-1="part2" data-entity-2="part1" id="msg8"><polygon fill="#181818" points="62.6235,314.6563,52.6235,318.6563,62.6235,322.6563" style="stroke:#181818;stroke-width:1;"/><line style="stroke:#181818;stroke-width:1;stroke-dasharray:2,2;" x1="56.6235" x2="268.9233" y1="318.6563" y2="318.6563"/><text fill="#000000" font-family="sans-serif" font-size="13" lengthAdjust="spacing" textLength="189.2998" x="68.6235" y="313.5903">mostrarProyectos(proyectos)</text></g><?plantuml-src VPFFQeH03CRlynGvTWlx0Y9UsakXXr9Axr7JCdISI6PsYs_VBBlgIEDUHF9z-UMVfXyVHnGS8EKfa3x5T_aq18TTPe6NUAQK_JVsBAxbK-nH9dZrAQEy2K-ahlJfwHVgUfQRndKSit20nV9q3GGIDTvKzL7CFa-BxPr6JbxhJkgwQchgCMEBYU1vVgdhEQQoAtk4OsDsLm6sujVWm-4oe3zZ9illB8QYhNag25jpoJOId0KfsCKIAk0sKoJvuDxchcPdv2jrsLa5YOBgy0XVmWECSnShTFQw9UcurzUQtTF_VAkLtUsPg3lpRTQsU-wxrF8QvgKLk_cgAXXOVutoo4k1Grd1eFq1?></g></svg>
