<svg xmlns="http://www.w3.org/2000/svg" xmlns:xlink="http://www.w3.org/1999/xlink" contentStyleType="text/css" data-diagram-type="SALT" height="178px" preserveAspectRatio="none" style="width:354px;height:178px;background:#FFFFFF;" version="1.1" viewBox="0 0 354 178" width="354px" zoomAndPan="magnify"><defs/><g><line style="stroke:#AAAAAA;stroke-width:1;" x1="6" x2="347" y1="8.5" y2="8.5"/><line style="stroke:#AAAAAA;stroke-width:1;" x1="6" x2="347" y1="10.5" y2="10.5"/><text fill="#000000" font-family="sans-serif" font-size="12" font-weight="bold" lengthAdjust="spacing" textLength="322.7285" x="6" y="25.1387">GIPF - SOLICITUDES DE ELIMINACI&#211;N DE PERFIL</text><line style="stroke:#AAAAAA;stroke-width:1;" x1="6" x2="347" y1="32.4688" y2="32.4688"/><line style="stroke:#AAAAAA;stroke-width:1;" x1="6" x2="347" y1="34.4688" y2="34.4688"/><text fill="#000000" font-family="sans-serif" font-size="12" font-weight="bold" lengthAdjust="spacing" textLength="154.3418" x="7" y="50.1074">Solicitudes pendientes</text><line style="stroke:#AAAAAA;stroke-width:1;" x1="7" x2="346" y1="58.4375" y2="58.4375"/><text fill="#000000" font-family="sans-serif" font-size="12" font-weight="bold" lengthAdjust="spacing" textLength="14.4258" x="9" y="76.0762">ID</text><text fill="#000000" font-family="sans-serif" font-size="12" font-weight="bold" lengthAdjust="spacing" textLength="53.4375" x="25.4258" y="76.0762">Nombre</text><text fill="#000000" font-family="sans-serif" font-size="12" font-weight="bold" lengthAdjust="spacing" textLength="46.2422" x="80.8633" y="76.0762">Campo</text><text fill="#000000" font-family="sans-serif" font-size="12" lengthAdjust="spacing" textLength="47.959" x="12" y="94.0449">INV-001</text><line style="stroke:#000000;stroke-width:1;" x1="10" x2="69" y1="96.875" y2="96.875"/><line style="stroke:#000000;stroke-width:1;" x1="10" x2="10" y1="93.875" y2="95.875"/><line style="stroke:#000000;stroke-width:1;" x1="69" x2="69" y1="93.875" y2="95.875"/><text fill="#000000" font-family="sans-serif" font-size="12" lengthAdjust="spacing" textLength="62.3086" x="76" y="94.0449">Ana L&#243;pez</text><line style="stroke:#000000;stroke-width:1;" x1="74" x2="149" y1="96.875" y2="96.875"/><line style="stroke:#000000;stroke-width:1;" x1="74" x2="74" y1="93.875" y2="95.875"/><line style="stroke:#000000;stroke-width:1;" x1="149" x2="149" y1="93.875" y2="95.875"/><text fill="#000000" font-family="sans-serif" font-size="12" lengthAdjust="spacing" textLength="122.9648" x="156" y="94.0449">Inteligencia Artificial</text><line style="stroke:#000000;stroke-width:1;" x1="154" x2="341" y1="96.875" y2="96.875"/><line style="stroke:#000000;stroke-width:1;" x1="154" x2="154" y1="93.875" y2="95.875"/><line style="stroke:#000000;stroke-width:1;" x1="341" x2="341" y1="93.875" y2="95.875"/><text fill="#000000" font-family="sans-serif" font-size="12" lengthAdjust="spacing" textLength="47.959" x="12" y="114.0137">INV-004</text><line style="stroke:#000000;stroke-width:1;" x1="10" x2="69" y1="116.8438" y2="116.8438"/><line style="stroke:#000000;stroke-width:1;" x1="10" x2="10" y1="113.8438" y2="115.8438"/><line style="stroke:#000000;stroke-width:1;" x1="69" x2="69" y1="113.8438" y2="115.8438"/><text fill="#000000" font-family="sans-serif" font-size="12" lengthAdjust="spacing" textLength="62.707" x="76" y="114.0137">Mario Ruiz</text><line style="stroke:#000000;stroke-width:1;" x1="74" x2="157" y1="116.8438" y2="116.8438"/><line style="stroke:#000000;stroke-width:1;" x1="74" x2="74" y1="113.8438" y2="115.8438"/><line style="stroke:#000000;stroke-width:1;" x1="157" x2="157" y1="113.8438" y2="115.8438"/><text fill="#000000" font-family="sans-serif" font-size="12" lengthAdjust="spacing" textLength="51.6504" x="164" y="114.0137">Big Data</text><line style="stroke:#000000;stroke-width:1;" x1="162" x2="229" y1="116.8438" y2="116.8438"/><line style="stroke:#000000;stroke-width:1;" x1="162" x2="162" y1="113.8438" y2="115.8438"/><line style="stroke:#000000;stroke-width:1;" x1="229" x2="229" y1="113.8438" y2="115.8438"/><text fill="#000000" font-family="sans-serif" font-size="12" lengthAdjust="spacing" textLength="47.959" x="12" y="133.9824">INV-007</text><line style="stroke:#000000;stroke-width:1;" x1="10" x2="69" y1="136.8125" y2="136.8125"/><line style="stroke:#000000;stroke-width:1;" x1="10" x2="10" y1="133.8125" y2="135.8125"/><line style="stroke:#000000;stroke-width:1;" x1="69" x2="69" y1="133.8125" y2="135.8125"/><text fill="#000000" font-family="sans-serif" font-size="12" lengthAdjust="spacing" textLength="68.625" x="76" y="133.9824">Luc&#237;a P&#233;rez</text><line style="stroke:#000000;stroke-width:1;" x1="74" x2="165" y1="136.8125" y2="136.8125"/><line style="stroke:#000000;stroke-width:1;" x1="74" x2="74" y1="133.8125" y2="135.8125"/><line style="stroke:#000000;stroke-width:1;" x1="165" x2="165" y1="133.8125" y2="135.8125"/><text fill="#000000" font-family="sans-serif" font-size="12" lengthAdjust="spacing" textLength="91.3594" x="172" y="133.9824">Ciberseguridad</text><line style="stroke:#000000;stroke-width:1;" x1="170" x2="285" y1="136.8125" y2="136.8125"/><line style="stroke:#000000;stroke-width:1;" x1="170" x2="170" y1="133.8125" y2="135.8125"/><line style="stroke:#000000;stroke-width:1;" x1="285" x2="285" y1="133.8125" y2="135.8125"/><line style="stroke:#AAAAAA;stroke-width:1.5;" x1="7" x2="346" y1="146.3125" y2="146.3125"/><rect fill="#EEEEEE" height="17.9688" rx="5" ry="5" style="stroke:#000000;stroke-width:2.5;" width="124" x="10.5" y="154.3125"/><text fill="#000000" font-family="sans-serif" font-size="12" lengthAdjust="spacing" textLength="82.9629" x="31.0186" y="167.4512">Abrir solicitud</text><rect fill="#EEEEEE" height="17.9688" rx="5" ry="5" style="stroke:#000000;stroke-width:2.5;" width="52" x="141.5" y="154.3125"/><text fill="#000000" font-family="sans-serif" font-size="12" lengthAdjust="spacing" textLength="38.3027" x="148.3486" y="167.4512">Volver</text><!--SRC=[TL9DJzj04BtlhnZv10T3ZEY744K4sq5ExM1XaWlYCBOtrgZsRhHU1r4Q_aH_1OUU-XFonpeE9G6fdTEysVVUZlVvlBLeR8kr1SmDcKpNL93jIjc6DJMai22jKcdcLBltPEJSO2F5em2kBroRvZG_kupI4RYGNSMH7zrCWp2388GmZf9eClIZzSz9ZzFmUXJ5fuVvsNk35x-_LczsW8LK9KbbPRiLzUMwstOdtI3MHq7FXH-zrqGtkP4xx6Epq3rSlPSvqMJc3WQUmpHdg13YzU-5_Exm6GyYNg2cIgg248R6qfmNnDhvjydnnYH1GngkE-fD65zG1G5Q_8_eqqOKTyNw5qAwVZRzvJpnAPUcbLLdgCJoZNWbjktJqwv_l1tsEKBx-eXtx78xq_LIchiNzKgin3c_Qv-w46cDoawJ69ZGSjRW7HmDZZuSU5ukBNg3lQdwflIzWa8t2webM6haljYxJ6E-f3E5X99QQoZlBCltnHYNoD-jUju9N762u-3hwm12jIIZLSEPYl4isH4-7hiNP26JXXU1MI82ESUE_yjG5ReaLPt0z6RaVXOnggh3Yhsb4hvcN_F0PzaV]--></g></svg>