<svg xmlns="http://www.w3.org/2000/svg" xmlns:xlink="http://www.w3.org/1999/xlink" contentStyleType="text/css" data-diagram-type="STATE" height="735px" preserveAspectRatio="none" style="width:731px;height:735px;background:#FFFFFF;" version="1.1" viewBox="0 0 731 735" width="731px" zoomAndPan="magnify"><defs/><g><g><rect fill="#F1F1F1" height="50" rx="12.5" ry="12.5" style="stroke:#181818;stroke-width:0.5;" width="181.9844" x="271.51" y="7"/><line style="stroke:#181818;stroke-width:0.5;" x1="271.51" x2="453.4944" y1="33.2969" y2="33.2969"/><text fill="#000000" font-family="sans-serif" font-size="14" lengthAdjust="spacing" textLength="161.9844" x="281.51" y="24.9951">PUBLICACION_ABIERTA</text></g><path d="M19.5,152 L705.5,152 A12.5,12.5 0 0 1 718,164.5 L718,178.2969 L7,178.2969 L7,164.5 A12.5,12.5 0 0 1 19.5,152" fill="#F1F1F1"/><rect fill="none" height="432.2969" rx="12.5" ry="12.5" style="stroke:#181818;stroke-width:0.5;" width="711" x="7" y="152"/><line style="stroke:#181818;stroke-width:0.5;" x1="7" x2="718" y1="178.2969" y2="178.2969"/><text fill="#000000" font-family="sans-serif" font-size="14" lengthAdjust="spacing" textLength="147.335" x="288.8325" y="169.9951">eliminarPublicacion()</text><g><rect fill="#F1F1F1" height="50" rx="12.5" ry="12.5" style="stroke:#181818;stroke-width:0.5;" width="50" x="200" y="280.2969"/><line style="stroke:#181818;stroke-width:0.5;" x1="200" x2="250" y1="306.5938" y2="306.5938"/><text fill="#000000" font-family="sans-serif" font-size="14" lengthAdjust="spacing" textLength="4.4502" x="222.7749" y="298.292">&#160;</text></g><g><rect fill="#F1F1F1" height="50" rx="12.5" ry="12.5" style="stroke:#181818;stroke-width:0.5;" width="50" x="19" y="431.2969"/><line style="stroke:#181818;stroke-width:0.5;" x1="19" x2="69" y1="457.5938" y2="457.5938"/><text fill="#000000" font-family="sans-serif" font-size="14" lengthAdjust="spacing" textLength="4.4502" x="41.7749" y="449.292">&#160;</text></g><ellipse cx="225" cy="199.2969" fill="#222222" rx="10" ry="10" style="stroke:#222222;stroke-width:1;"/><ellipse cx="231" cy="563.2969" fill="none" rx="11" ry="11" style="stroke:#222222;stroke-width:1;"/><ellipse cx="231" cy="563.2969" fill="#222222" rx="6" ry="6" style="stroke:#222222;stroke-width:1;"/><!--link *start*eliminarPublicacion to ConfirmandoEliminacion--><g class="link" data-entity-1="ent0003" data-entity-2="ent0004" data-link-type="dependency" data-source-line="14" id="lnk4"><path d="M225,209.5269 C225,225.2369 225,251.6569 225,274.1669" fill="none" id="*start*eliminarPublicacion-to-ConfirmandoEliminacion" style="stroke:#008000;stroke-width:1;"/><polygon fill="#008000" points="225,280.1669,229,271.1669,225,275.1669,221,271.1669,225,280.1669" style="stroke:#008000;stroke-width:1;"/><path d="M230,232.2969 L230,257.2969 L526,257.2969 L526,242.2969 L516,232.2969 L230,232.2969" fill="#FEFFDD" style="stroke:#181818;stroke-width:0.5;"/><path d="M516,232.2969 L516,242.2969 L526,242.2969 L516,232.2969" fill="#FEFFDD" style="stroke:#181818;stroke-width:0.5;"/><text fill="#000000" font-family="sans-serif" font-size="13" font-weight="bold" lengthAdjust="spacing" textLength="90.251" x="236" y="249.3638">Coordinador</text><text fill="#000000" font-family="sans-serif" font-size="13" lengthAdjust="spacing" textLength="181.1177" x="330.3833" y="249.3638">solicita eliminar publicaci&#243;n</text></g><!--link ConfirmandoEliminacion to PublicacionEliminada--><g class="link" data-entity-1="ent0004" data-entity-2="ent0005" data-link-type="dependency" data-source-line="19" id="lnk5"><path d="M199.53,312.0469 C148.59,323.5469 39,348.2969 39,348.2969 C39,348.2969 39,413.2969 39,413.2969 C39,413.2969 39.2807,415.6689 40.3807,424.9089" fill="none" id="ConfirmandoEliminacion-to-PublicacionEliminada" style="stroke:#008000;stroke-width:1;"/><polygon fill="#008000" points="41.09,430.8669,43.998,421.4571,40.4989,425.9019,36.0541,422.4028,41.09,430.8669" style="stroke:#008000;stroke-width:1;"/><path d="M44,353.2969 L44,408.2969 L394,408.2969 L394,363.2969 L384,353.2969 L44,353.2969" fill="#FEFFDD" style="stroke:#181818;stroke-width:0.5;"/><path d="M384,353.2969 L384,363.2969 L394,363.2969 L384,353.2969" fill="#FEFFDD" style="stroke:#181818;stroke-width:0.5;"/><text fill="#000000" font-family="sans-serif" font-size="13" font-weight="bold" lengthAdjust="spacing" textLength="58.9063" x="50" y="370.3638">Sistema</text><text fill="#000000" font-family="sans-serif" font-size="13" lengthAdjust="spacing" textLength="245.4258" x="113.0386" y="370.3638">presenta confirmaci&#243;n de eliminaci&#243;n</text><text fill="#000000" font-family="sans-serif" font-size="13" font-weight="bold" lengthAdjust="spacing" textLength="90.251" x="50" y="385.4966">Coordinador</text><text fill="#000000" font-family="sans-serif" font-size="13" lengthAdjust="spacing" textLength="191.5405" x="144.3833" y="385.4966">solicita confirmar eliminaci&#243;n</text><text fill="#000000" font-family="sans-serif" font-size="13" font-weight="bold" lengthAdjust="spacing" textLength="58.9063" x="50" y="400.6294">Sistema</text><text fill="#000000" font-family="sans-serif" font-size="13" lengthAdjust="spacing" textLength="266.4238" x="113.0386" y="400.6294">presenta la eliminaci&#243;n de la publicaci&#243;n</text></g><!--link ConfirmandoEliminacion to *end*eliminarPublicacion--><g class="link" data-entity-1="ent0004" data-entity-2="ent0006" data-link-type="dependency" data-source-line="26" id="lnk7"><path d="M250.3,312.4069 C298.56,324.0569 399,348.2969 399,348.2969 C399,348.2969 399,534.2969 399,534.2969 C399,534.2969 285.3184,553.2405 247.9384,559.4705" fill="none" id="ConfirmandoEliminacion-to-*end*eliminarPublicacion" style="stroke:#FF0000;stroke-width:1;"/><polygon fill="#FF0000" points="242.02,560.4569,251.5551,562.9229,246.952,559.6349,250.2399,555.0317,242.02,560.4569" style="stroke:#FF0000;stroke-width:1;"/><path d="M404,443.7969 L404,468.7969 L709,468.7969 L709,453.7969 L699,443.7969 L404,443.7969" fill="#FEFFDD" style="stroke:#181818;stroke-width:0.5;"/><path d="M699,443.7969 L699,453.7969 L709,453.7969 L699,443.7969" fill="#FEFFDD" style="stroke:#181818;stroke-width:0.5;"/><text fill="#000000" font-family="sans-serif" font-size="13" font-weight="bold" lengthAdjust="spacing" textLength="90.251" x="410" y="460.8638">Coordinador</text><text fill="#000000" font-family="sans-serif" font-size="13" lengthAdjust="spacing" textLength="189.6362" x="504.3833" y="460.8638">solicita cancelar la operaci&#243;n</text></g><!--link PublicacionEliminada to *end*eliminarPublicacion--><g class="link" data-entity-1="ent0005" data-entity-2="ent0006" data-link-type="dependency" data-source-line="31" id="lnk8"><path d="M49.06,481.6569 C53.75,504.2169 60,534.2969 60,534.2969 C60,534.2969 176.3789,553.3573 214.1189,559.5373" fill="none" id="PublicacionEliminada-to-*end*eliminarPublicacion" style="stroke:#008000;stroke-width:1;"/><polygon fill="#008000" points="220.04,560.5069,211.8047,555.1051,215.1057,559.6989,210.5119,562.9999,220.04,560.5069" style="stroke:#008000;stroke-width:1;"/><path d="M65,504.2969 L65,529.2969 L394,529.2969 L394,514.2969 L384,504.2969 L65,504.2969" fill="#FEFFDD" style="stroke:#181818;stroke-width:0.5;"/><path d="M384,504.2969 L384,514.2969 L394,514.2969 L384,504.2969" fill="#FEFFDD" style="stroke:#181818;stroke-width:0.5;"/><text fill="#000000" font-family="sans-serif" font-size="13" font-weight="bold" lengthAdjust="spacing" textLength="58.9063" x="71" y="521.3638">Sistema</text><text fill="#000000" font-family="sans-serif" font-size="13" lengthAdjust="spacing" textLength="245.4258" x="134.0386" y="521.3638">presenta confirmaci&#243;n de eliminaci&#243;n</text></g><g><rect fill="#F1F1F1" height="50" rx="12.5" ry="12.5" style="stroke:#181818;stroke-width:0.5;" width="208.6035" x="258.2" y="679.3"/><line style="stroke:#181818;stroke-width:0.5;" x1="258.2" x2="466.8035" y1="705.5969" y2="705.5969"/><text fill="#000000" font-family="sans-serif" font-size="14" lengthAdjust="spacing" textLength="188.6035" x="268.2" y="697.2951">PUBLICACIONES_ABIERTAS</text></g><!--link in2 to eliminarPublicacion--><g class="link" data-entity-1="ent0002" data-entity-2="ent0003" data-link-type="dependency" data-source-line="4" id="lnk2"><path d="M362.5,57.3 C362.5,79.15 362.5,107.61 362.5,145.74" fill="none" id="in2-to-eliminarPublicacion" style="stroke:#008000;stroke-width:1;"/><polygon fill="#008000" points="362.5,151.74,366.5,142.74,362.5,146.74,358.5,142.74,362.5,151.74" style="stroke:#008000;stroke-width:1;"/><path d="M367.5,92 L367.5,117 L524.5,117 L524.5,102 L514.5,92 L367.5,92" fill="#FEFFDD" style="stroke:#181818;stroke-width:0.5;"/><path d="M514.5,92 L514.5,102 L524.5,102 L514.5,92" fill="#FEFFDD" style="stroke:#181818;stroke-width:0.5;"/><text fill="#000000" font-family="sans-serif" font-size="13" lengthAdjust="spacing" textLength="136.811" x="373.5" y="109.0669">eliminarPublicacion()</text></g><!--link eliminarPublicacion to PUBLICACIONES_ABIERTAS--><g class="link" data-entity-1="ent0003" data-entity-2="ent0009" data-link-type="dependency" data-source-line="39" id="lnk10"><path d="M362.5,584.55 C362.5,622.69 362.5,651.15 362.5,673" fill="none" id="eliminarPublicacion-to-PUBLICACIONES_ABIERTAS" style="stroke:#008000;stroke-width:1;"/><polygon fill="#008000" points="362.5,679,366.5,670,362.5,674,358.5,670,362.5,679" style="stroke:#008000;stroke-width:1;"/><path d="M367.5,619.3 L367.5,644.3 L517.5,644.3 L517.5,629.3 L507.5,619.3 L367.5,619.3" fill="#FEFFDD" style="stroke:#181818;stroke-width:0.5;"/><path d="M507.5,619.3 L507.5,629.3 L517.5,629.3 L507.5,619.3" fill="#FEFFDD" style="stroke:#181818;stroke-width:0.5;"/><text fill="#000000" font-family="sans-serif" font-size="13" lengthAdjust="spacing" textLength="129.0542" x="373.5" y="636.3669">abrirPublicaciones()</text></g><!--SRC=[dLD1QiCm4Bph5SAzj8LGw3aO7EE3eRIXRayXbBMzBIBsoaZk8PI-ga_enohPiHrHnP389qcpCxCZhzu9Qa11pIj1sEuRv8sizdR3c6wXHIxedeFcmVfrzP36KPm-FRv5gpHvVea2PYyNcwiFXKZRHSYn4hKWKElFl185548I8sbO95c57VC0hcyOKiajRD3qe3eFtkg0Vp76pUfh0_CPR2pfNQWQg9H9NzMP-OSxeZhWIkZfDhTRfxSPHgT5Ux3CmrXALLewgPPtUSYrD3gYXR4vtWpIlpyzpHI3tVdr74jUywSCPKAtM4Ddfb6eaOoPuY3IcU3b6FraQgwLeLfvoxo25JXOAscEBev2OMc3C6zr_aCKG0LMnhmn81jK9-LzCJllC2T_OUoZWszcbcyWd1zX6iua6yOpSqSFSYME2L0VJTuV]--></g></svg>