<svg xmlns="http://www.w3.org/2000/svg" xmlns:xlink="http://www.w3.org/1999/xlink" contentStyleType="text/css" data-diagram-type="STATE" height="771px" preserveAspectRatio="none" style="width:673px;height:771px;background:#FFFFFF;" version="1.1" viewBox="0 0 673 771" width="673px" zoomAndPan="magnify"><title>Diagrama de estados de un proyecto (contexto de gesti&#243;n de proyectos)</title><defs/><g><g class="title" data-source-line="1"><text fill="#000000" font-family="sans-serif" font-size="14" font-weight="bold" lengthAdjust="spacing" textLength="573.9727" x="42.8644" y="22.9951">Diagrama de estados de un proyecto (contexto de gesti&#243;n de proyectos)</text></g><ellipse cx="561.28" cy="53.2969" fill="#222222" rx="10" ry="10" style="stroke:#222222;stroke-width:1;"/><g><rect fill="#F1F1F1" height="50" rx="12.5" ry="12.5" style="stroke:#181818;stroke-width:0.5;" width="70.1758" x="526.19" y="124.2969"/><line style="stroke:#181818;stroke-width:0.5;" x1="526.19" x2="596.3658" y1="150.5938" y2="150.5938"/><text fill="#000000" font-family="sans-serif" font-size="14" lengthAdjust="spacing" textLength="50.1758" x="536.19" y="142.292">Creado</text></g><g><rect fill="#F1F1F1" height="50" rx="12.5" ry="12.5" style="stroke:#181818;stroke-width:0.5;" width="87.7031" x="468.43" y="251.2969"/><line style="stroke:#181818;stroke-width:0.5;" x1="468.43" x2="556.1331" y1="277.5938" y2="277.5938"/><text fill="#000000" font-family="sans-serif" font-size="14" lengthAdjust="spacing" textLength="67.7031" x="478.43" y="269.292">Aprobado</text></g><g><rect fill="#F1F1F1" height="50" rx="12.5" ry="12.5" style="stroke:#181818;stroke-width:0.5;" width="77.9824" x="292.29" y="378.2969"/><line style="stroke:#181818;stroke-width:0.5;" x1="292.29" x2="370.2724" y1="404.5938" y2="404.5938"/><text fill="#000000" font-family="sans-serif" font-size="14" lengthAdjust="spacing" textLength="57.9824" x="302.29" y="396.292">EnCurso</text></g><g><rect fill="#F1F1F1" height="50" rx="12.5" ry="12.5" style="stroke:#181818;stroke-width:0.5;" width="96.8564" x="195.85" y="505.2969"/><line style="stroke:#181818;stroke-width:0.5;" x1="195.85" x2="292.7064" y1="531.5938" y2="531.5938"/><text fill="#000000" font-family="sans-serif" font-size="14" lengthAdjust="spacing" textLength="76.8564" x="205.85" y="523.292">EnRevision</text></g><g><rect fill="#F1F1F1" height="50" rx="12.5" ry="12.5" style="stroke:#181818;stroke-width:0.5;" width="90.5537" x="217" y="632.2969"/><line style="stroke:#181818;stroke-width:0.5;" x1="217" x2="307.5537" y1="658.5938" y2="658.5938"/><text fill="#000000" font-family="sans-serif" font-size="14" lengthAdjust="spacing" textLength="70.5537" x="227" y="650.292">Finalizado</text></g><g><rect fill="#F1F1F1" height="50" rx="12.5" ry="12.5" style="stroke:#181818;stroke-width:0.5;" width="91.7979" x="365.38" y="632.2969"/><line style="stroke:#181818;stroke-width:0.5;" x1="365.38" x2="457.1779" y1="658.5938" y2="658.5938"/><text fill="#000000" font-family="sans-serif" font-size="14" lengthAdjust="spacing" textLength="71.7979" x="375.38" y="650.292">Denegado</text></g><ellipse cx="324.28" cy="754.2969" fill="none" rx="11" ry="11" style="stroke:#222222;stroke-width:1;"/><ellipse cx="324.28" cy="754.2969" fill="#222222" rx="6" ry="6" style="stroke:#222222;stroke-width:1;"/><!--link *start* to Creado--><g class="link" data-entity-1="ent0002" data-entity-2="ent0003" data-link-type="dependency" data-source-line="3" id="lnk4"><path d="M561.28,63.6569 C561.28,77.5869 561.28,98.2469 561.28,117.9469" fill="none" id="*start*-to-Creado" style="stroke:#181818;stroke-width:1;"/><polygon fill="#181818" points="561.28,123.9469,565.28,114.9469,561.28,118.9469,557.28,114.9469,561.28,123.9469" style="stroke:#181818;stroke-width:1;"/></g><!--link Creado to Aprobado--><g class="link" data-entity-1="ent0003" data-entity-2="ent0005" data-link-type="dependency" data-source-line="5" id="lnk6"><path d="M532.14,174.7369 C524.14,183.1869 516.52,193.3169 512.28,204.2969 C506.59,219.0169 505.9875,230.7972 507.4075,244.8672" fill="none" id="Creado-to-Aprobado" style="stroke:#181818;stroke-width:1;"/><polygon fill="#181818" points="508.01,250.8369,511.0861,241.4807,507.5079,245.8621,503.1265,242.284,508.01,250.8369" style="stroke:#181818;stroke-width:1;"/><text fill="#000000" font-family="sans-serif" font-size="13" lengthAdjust="spacing" textLength="69.291" x="513.28" y="217.3638">definirPlan</text></g><!--link Aprobado to EnCurso--><g class="link" data-entity-1="ent0005" data-entity-2="ent0007" data-link-type="dependency" data-source-line="6" id="lnk8"><path d="M476.95,301.6969 C445.06,323.7169 403.3173,352.5476 371.4573,374.5476" fill="none" id="Aprobado-to-EnCurso" style="stroke:#181818;stroke-width:1;"/><polygon fill="#181818" points="366.52,377.9569,376.1988,376.1345,370.6344,375.1158,371.6531,369.5514,366.52,377.9569" style="stroke:#181818;stroke-width:1;"/><text fill="#000000" font-family="sans-serif" font-size="13" lengthAdjust="spacing" textLength="39.5332" x="433.28" y="344.3638">iniciar</text></g><!--link EnCurso to EnRevision--><g class="link" data-entity-1="ent0007" data-entity-2="ent0009" data-link-type="dependency" data-source-line="7" id="lnk10"><path d="M291.97,405.8369 C221.65,409.5169 78.76,421.4469 48.28,458.2969 C6,509.3969 118.6896,523.3771 189.5596,527.3971" fill="none" id="EnCurso-to-EnRevision" style="stroke:#181818;stroke-width:1;"/><polygon fill="#181818" points="195.55,527.7369,186.791,523.2336,190.558,527.4537,186.3379,531.2208,195.55,527.7369" style="stroke:#181818;stroke-width:1;"/><text fill="#000000" font-family="sans-serif" font-size="13" lengthAdjust="spacing" textLength="158.5073" x="49.28" y="471.3638">entregarDocumentacion</text></g><!--link EnRevision to EnCurso--><g class="link" data-entity-1="ent0009" data-entity-2="ent0007" data-link-type="dependency" data-source-line="8" id="lnk11"><path d="M240.41,505.0569 C239.31,490.5569 240.17,472.2869 248.28,458.2969 C258.1,441.3369 270.3409,431.591 286.7609,422.871" fill="none" id="EnRevision-to-EnCurso" style="stroke:#181818;stroke-width:1;"/><polygon fill="#181818" points="292.06,420.0569,282.2352,420.7454,287.6441,422.402,285.9874,427.8108,292.06,420.0569" style="stroke:#181818;stroke-width:1;"/><text fill="#000000" font-family="sans-serif" font-size="13" lengthAdjust="spacing" textLength="135.7065" x="249.28" y="471.3638">solicitarCorrecciones</text></g><!--link EnRevision to Finalizado--><g class="link" data-entity-1="ent0009" data-entity-2="ent0012" data-link-type="dependency" data-source-line="9" id="lnk13"><path d="M236.96,555.5169 C233.84,569.3469 231.65,586.9369 235.28,602.2969 C237.68,612.4969 239.5154,617.668 244.2854,626.648" fill="none" id="EnRevision-to-Finalizado" style="stroke:#181818;stroke-width:1;"/><polygon fill="#181818" points="247.1,631.9469,246.4106,622.1222,244.7545,627.5312,239.3455,625.875,247.1,631.9469" style="stroke:#181818;stroke-width:1;"/><text fill="#000000" font-family="sans-serif" font-size="13" lengthAdjust="spacing" textLength="51.0796" x="236.28" y="598.3638">aprobar</text></g><!--link Creado to Denegado--><g class="link" data-entity-1="ent0003" data-entity-2="ent0014" data-link-type="dependency" data-source-line="10" id="lnk15"><path d="M576.73,174.6169 C590.76,199.0669 609.28,238.3369 609.28,275.2969 C609.28,275.2969 609.28,275.2969 609.28,531.2969 C609.28,602.7469 521.8129,633.6864 463.3029,646.8864" fill="none" id="Creado-to-Denegado" style="stroke:#181818;stroke-width:1;"/><polygon fill="#181818" points="457.45,648.2069,467.1096,650.1282,462.3274,647.1065,465.3491,642.3243,457.45,648.2069" style="stroke:#181818;stroke-width:1;"/><text fill="#000000" font-family="sans-serif" font-size="13" lengthAdjust="spacing" textLength="55.4214" x="610.28" y="407.8638">cancelar</text></g><!--link Aprobado to Denegado--><g class="link" data-entity-1="ent0005" data-entity-2="ent0014" data-link-type="dependency" data-source-line="11" id="lnk16"><path d="M512.99,301.5969 C513.67,351.0169 511.2,466.1269 478.28,555.2969 C467.71,583.9169 451.354,607.8204 435.914,627.2404" fill="none" id="Aprobado-to-Denegado" style="stroke:#181818;stroke-width:1;"/><polygon fill="#181818" points="432.18,631.9369,440.912,627.3814,435.2917,628.0231,434.65,622.4028,432.18,631.9369" style="stroke:#181818;stroke-width:1;"/><text fill="#000000" font-family="sans-serif" font-size="13" lengthAdjust="spacing" textLength="55.4214" x="502.28" y="471.3638">cancelar</text></g><!--link EnCurso to Denegado--><g class="link" data-entity-1="ent0007" data-entity-2="ent0014" data-link-type="dependency" data-source-line="12" id="lnk17"><path d="M365.49,428.7369 C374.7,437.0569 383.65,447.1069 389.28,458.2969 C417.94,515.3069 417.1687,587.0037 414.2487,625.9437" fill="none" id="EnCurso-to-Denegado" style="stroke:#181818;stroke-width:1;"/><polygon fill="#181818" points="413.8,631.9269,418.4618,623.2512,414.1739,626.9409,410.4842,622.653,413.8,631.9269" style="stroke:#181818;stroke-width:1;"/><text fill="#000000" font-family="sans-serif" font-size="13" lengthAdjust="spacing" textLength="55.4214" x="414.28" y="534.8638">cancelar</text></g><!--link EnRevision to Denegado--><g class="link" data-entity-1="ent0009" data-entity-2="ent0014" data-link-type="dependency" data-source-line="13" id="lnk18"><path d="M271.19,555.5269 C287.33,569.6869 308.51,587.5969 328.28,602.2969 C342.07,612.5569 352.7091,619.7984 366.6991,628.7684" fill="none" id="EnRevision-to-Denegado" style="stroke:#181818;stroke-width:1;"/><polygon fill="#181818" points="371.75,632.0069,366.3326,623.7818,367.5409,629.3081,362.0146,630.5164,371.75,632.0069" style="stroke:#181818;stroke-width:1;"/><text fill="#000000" font-family="sans-serif" font-size="13" lengthAdjust="spacing" textLength="55.4214" x="329.28" y="598.3638">cancelar</text></g><!--link Finalizado to *end*--><g class="link" data-entity-1="ent0012" data-entity-2="ent0019" data-link-type="dependency" data-source-line="15" id="lnk20"><path d="M278.24,682.7569 C291.45,702.9969 306.172,725.5515 315.252,739.4715" fill="none" id="Finalizado-to-*end*" style="stroke:#181818;stroke-width:1;"/><polygon fill="#181818" points="318.53,744.4969,316.9632,734.7734,315.7983,740.3091,310.2627,739.1442,318.53,744.4969" style="stroke:#181818;stroke-width:1;"/></g><!--link Denegado to *end*--><g class="link" data-entity-1="ent0014" data-entity-2="ent0019" data-link-type="dependency" data-source-line="16" id="lnk21"><path d="M388.87,682.7569 C369.94,703.4369 348.0332,727.3629 335.5732,740.9629" fill="none" id="Denegado-to-*end*" style="stroke:#181818;stroke-width:1;"/><polygon fill="#181818" points="331.52,745.3869,340.5491,741.453,334.8976,741.7002,334.6504,736.0488,331.52,745.3869" style="stroke:#181818;stroke-width:1;"/></g><!--SRC=[RP11Zi8m34NtFaMM318NO864sc6DPejOcDHKbe8pSb84N8iZpCN6QGVKZhgA_V-ByvtCEP2h6Ll52xg67AMCJKobxCHzQxoJpz4jV9HCDwlCQ0tYdwUK-aMa3u33ykXMgushb6m6m73sqjQuKsdMTkdCmheFAF2M2_CfLQUf8EPxHeMNChXVTEN4KGmWoKejQXrzTx46lUamGgRpKWmsCADMKPLyWIdzntSi6FWnXCG-c8vNg4dioTxrA9w2sPFySy1uWtb_ac4EWL6mmjWlmvlx4tu1]--></g></svg>