<svg xmlns="http://www.w3.org/2000/svg" xmlns:xlink="http://www.w3.org/1999/xlink" contentStyleType="text/css" data-diagram-type="STATE" height="795px" preserveAspectRatio="none" style="width:738px;height:795px;background:#FFFFFF;" version="1.1" viewBox="0 0 738 795" width="738px" zoomAndPan="magnify"><defs/><g><g><rect fill="#F1F1F1" height="50" rx="12.5" ry="12.5" style="stroke:#181818;stroke-width:0.5;" width="221.6191" x="344.71" y="7"/><line style="stroke:#181818;stroke-width:0.5;" x1="344.71" x2="566.3291" y1="33.2969" y2="33.2969"/><text fill="#000000" font-family="sans-serif" font-size="14" lengthAdjust="spacing" textLength="201.6191" x="354.71" y="24.9951">INVESTIGADORES_ABIERTOS</text></g><path d="M228.02,152 L683.02,152 A12.5,12.5 0 0 1 695.52,164.5 L695.52,178.2969 L215.52,178.2969 L215.52,164.5 A12.5,12.5 0 0 1 228.02,152" fill="#F1F1F1"/><rect fill="none" height="492.2969" rx="12.5" ry="12.5" style="stroke:#181818;stroke-width:0.5;" width="480" x="215.52" y="152"/><line style="stroke:#181818;stroke-width:0.5;" x1="215.52" x2="695.52" y1="178.2969" y2="178.2969"/><text fill="#000000" font-family="sans-serif" font-size="14" lengthAdjust="spacing" textLength="134.5723" x="388.2339" y="169.9951">crearInvestigador()</text><g><rect fill="#F1F1F1" height="50" rx="12.5" ry="12.5" style="stroke:#181818;stroke-width:0.5;" width="50" x="227.52" y="280.2969"/><line style="stroke:#181818;stroke-width:0.5;" x1="227.52" x2="277.52" y1="306.5938" y2="306.5938"/><text fill="#000000" font-family="sans-serif" font-size="14" lengthAdjust="spacing" textLength="4.4502" x="250.2949" y="298.292">&#160;</text></g><g><rect fill="#F1F1F1" height="50" rx="12.5" ry="12.5" style="stroke:#181818;stroke-width:0.5;" width="50" x="227.52" y="476.2969"/><line style="stroke:#181818;stroke-width:0.5;" x1="227.52" x2="277.52" y1="502.5938" y2="502.5938"/><text fill="#000000" font-family="sans-serif" font-size="14" lengthAdjust="spacing" textLength="4.4502" x="250.2949" y="494.292">&#160;</text></g><ellipse cx="252.52" cy="199.2969" fill="#222222" rx="10" ry="10" style="stroke:#222222;stroke-width:1;"/><ellipse cx="252.52" cy="623.2969" fill="none" rx="11" ry="11" style="stroke:#222222;stroke-width:1;"/><ellipse cx="252.52" cy="623.2969" fill="#222222" rx="6" ry="6" style="stroke:#222222;stroke-width:1;"/><!--link *start*crearInvestigador to SolicitandoDatos--><g class="link" data-entity-1="ent0003" data-entity-2="ent0004" data-link-type="dependency" data-source-line="14" id="lnk4"><path d="M252.52,209.5269 C252.52,225.2369 252.52,251.6569 252.52,274.1669" fill="none" id="*start*crearInvestigador-to-SolicitandoDatos" style="stroke:#008000;stroke-width:1;"/><polygon fill="#008000" points="252.52,280.1669,256.52,271.1669,252.52,275.1669,248.52,271.1669,252.52,280.1669" style="stroke:#008000;stroke-width:1;"/><path d="M257.52,232.2969 L257.52,257.2969 L585.52,257.2969 L585.52,242.2969 L575.52,232.2969 L257.52,232.2969" fill="#FEFFDD" style="stroke:#181818;stroke-width:0.5;"/><path d="M575.52,232.2969 L575.52,242.2969 L585.52,242.2969 L575.52,232.2969" fill="#FEFFDD" style="stroke:#181818;stroke-width:0.5;"/><text fill="#000000" font-family="sans-serif" font-size="13" font-weight="bold" lengthAdjust="spacing" textLength="90.251" x="263.52" y="249.3638">Coordinador</text><text fill="#000000" font-family="sans-serif" font-size="13" lengthAdjust="spacing" textLength="212.8877" x="357.9033" y="249.3638">solicita crear investigador nuevo</text></g><!--link SolicitandoDatos to CreandoInvestigador--><g class="link" data-entity-1="ent0004" data-entity-2="ent0005" data-link-type="dependency" data-source-line="19" id="lnk5"><path d="M252.52,330.4769 C252.52,367.6469 252.52,432.4569 252.52,469.8169" fill="none" id="SolicitandoDatos-to-CreandoInvestigador" style="stroke:#008000;stroke-width:1;"/><polygon fill="#008000" points="252.52,475.8169,256.52,466.8169,252.52,470.8169,248.52,466.8169,252.52,475.8169" style="stroke:#008000;stroke-width:1;"/><path d="M257.52,353.2969 L257.52,453.2969 L686.52,453.2969 L686.52,363.2969 L676.52,353.2969 L257.52,353.2969" fill="#FEFFDD" style="stroke:#181818;stroke-width:0.5;"/><path d="M676.52,353.2969 L676.52,363.2969 L686.52,363.2969 L676.52,353.2969" fill="#FEFFDD" style="stroke:#181818;stroke-width:0.5;"/><text fill="#000000" font-family="sans-serif" font-size="13" font-weight="bold" lengthAdjust="spacing" textLength="58.9063" x="263.52" y="370.3638">Sistema</text><text fill="#000000" font-family="sans-serif" font-size="13" lengthAdjust="spacing" textLength="345.2236" x="326.5586" y="370.3638">presenta solicitud de datos m&#237;nimos del investigador</text><text fill="#000000" font-family="sans-serif" font-size="13" lengthAdjust="spacing" textLength="218.4482" x="263.52" y="385.4966">&#8226; ID del investigador (obligatorio)</text><text fill="#000000" font-family="sans-serif" font-size="13" lengthAdjust="spacing" textLength="256.5405" x="263.52" y="400.6294">&#8226; Nombre del investigador (obligatorio)</text><text fill="#000000" font-family="sans-serif" font-size="13" lengthAdjust="spacing" textLength="250.5166" x="263.52" y="415.7622">&#8226; Campo del investigador (obligatorio)</text><text fill="#000000" font-family="sans-serif" font-size="13" lengthAdjust="spacing" textLength="240.4619" x="263.52" y="430.895">&#8226; Permite solicitar crear investigador</text><text fill="#000000" font-family="sans-serif" font-size="13" lengthAdjust="spacing" textLength="236.6978" x="263.52" y="446.0278">&#8226; Permite solicitar cancelar creaci&#243;n</text></g><!--link CreandoInvestigador to *end*crearInvestigador--><g class="link" data-entity-1="ent0005" data-entity-2="ent0006" data-link-type="dependency" data-source-line="29" id="lnk7"><path d="M252.52,526.5769 C252.52,552.7469 252.52,587.1469 252.52,605.9769" fill="none" id="CreandoInvestigador-to-*end*crearInvestigador" style="stroke:#008000;stroke-width:1;"/><polygon fill="#008000" points="252.52,611.9769,256.52,602.9769,252.52,606.9769,248.52,602.9769,252.52,611.9769" style="stroke:#008000;stroke-width:1;"/><path d="M257.52,549.2969 L257.52,589.2969 L596.52,589.2969 L596.52,559.2969 L586.52,549.2969 L257.52,549.2969" fill="#FEFFDD" style="stroke:#181818;stroke-width:0.5;"/><path d="M586.52,549.2969 L586.52,559.2969 L596.52,559.2969 L586.52,549.2969" fill="#FEFFDD" style="stroke:#181818;stroke-width:0.5;"/><text fill="#000000" font-family="sans-serif" font-size="13" font-weight="bold" lengthAdjust="spacing" textLength="90.251" x="263.52" y="566.3638">Coordinador</text><text fill="#000000" font-family="sans-serif" font-size="13" lengthAdjust="spacing" textLength="177.8423" x="357.9033" y="566.3638">proporciona datos m&#237;nimos</text><text fill="#000000" font-family="sans-serif" font-size="13" font-weight="bold" lengthAdjust="spacing" textLength="58.9063" x="263.52" y="581.4966">Sistema</text><text fill="#000000" font-family="sans-serif" font-size="13" lengthAdjust="spacing" textLength="255.3345" x="326.5586" y="581.4966">crea investigador y transfiere a edici&#243;n</text></g><g><rect fill="#F1F1F1" height="50" rx="12.5" ry="12.5" style="stroke:#181818;stroke-width:0.5;" width="215.043" x="7" y="739.3"/><line style="stroke:#181818;stroke-width:0.5;" x1="7" x2="222.043" y1="765.5969" y2="765.5969"/><text fill="#000000" font-family="sans-serif" font-size="14" lengthAdjust="spacing" textLength="195.043" x="17" y="757.2951">OPCIONES_PERFIL_ABIERTO</text></g><g><rect fill="#F1F1F1" height="50" rx="12.5" ry="12.5" style="stroke:#181818;stroke-width:0.5;" width="221.6191" x="508.71" y="739.3"/><line style="stroke:#181818;stroke-width:0.5;" x1="508.71" x2="730.3291" y1="765.5969" y2="765.5969"/><text fill="#000000" font-family="sans-serif" font-size="14" lengthAdjust="spacing" textLength="201.6191" x="518.71" y="757.2951">INVESTIGADORES_ABIERTOS</text></g><!--link in1 to crearInvestigador--><g class="link" data-entity-1="ent0002" data-entity-2="ent0003" data-link-type="dependency" data-source-line="4" id="lnk2"><path d="M455.52,57.46 C455.52,79.15 455.52,107.28 455.52,145.72" fill="none" id="in1-to-crearInvestigador" style="stroke:#008000;stroke-width:1;"/><polygon fill="#008000" points="455.52,151.72,459.52,142.72,455.52,146.72,451.52,142.72,455.52,151.72" style="stroke:#008000;stroke-width:1;"/><path d="M460.52,92 L460.52,117 L605.52,117 L605.52,102 L595.52,92 L460.52,92" fill="#FEFFDD" style="stroke:#181818;stroke-width:0.5;"/><path d="M595.52,92 L595.52,102 L605.52,102 L595.52,92" fill="#FEFFDD" style="stroke:#181818;stroke-width:0.5;"/><text fill="#000000" font-family="sans-serif" font-size="13" lengthAdjust="spacing" textLength="124.96" x="466.52" y="109.0669">crearInvestigador()</text></g><!--link crearInvestigador to OPCIONES_PERFIL_ABIERTO--><g class="link" data-entity-1="ent0003" data-entity-2="ent0008" data-link-type="dependency" data-source-line="37" id="lnk9"><path d="M225.71,644.57 C189.69,683.03 161.811,712.8003 141.501,734.4903" fill="none" id="crearInvestigador-to-OPCIONES_PERFIL_ABIERTO" style="stroke:#008000;stroke-width:1;"/><polygon fill="#008000" points="137.4,738.87,146.4713,735.0345,140.8175,735.2203,140.6318,729.5665,137.4,738.87" style="stroke:#008000;stroke-width:1;"/><path d="M202.52,679.3 L202.52,704.3 L479.52,704.3 L479.52,689.3 L469.52,679.3 L202.52,679.3" fill="#FEFFDD" style="stroke:#181818;stroke-width:0.5;"/><path d="M469.52,679.3 L469.52,689.3 L479.52,689.3 L469.52,679.3" fill="#FEFFDD" style="stroke:#181818;stroke-width:0.5;"/><text fill="#000000" font-family="sans-serif" font-size="13" lengthAdjust="spacing" textLength="256.2549" x="208.52" y="696.3669">abrirOpcionesPerfil(investigadorNuevo)</text></g><!--link OPCIONES_PERFIL_ABIERTO to OPCIONES_PERFIL_ABIERTO--><g class="link" data-entity-1="ent0008" data-entity-2="ent0008" data-link-type="dependency" data-source-line="42" id="lnk10"><path d="M222.35,751.38 C242.69,752.95 257.04,757.26 257.04,764.3 C257.04,771.34 248.6722,775.1882 228.3322,776.7582" fill="none" id="OPCIONES_PERFIL_ABIERTO-to-OPCIONES_PERFIL_ABIERTO" style="stroke:#008000;stroke-width:1;"/><polygon fill="#008000" points="222.35,777.22,231.6311,780.5155,227.3352,776.8352,231.0155,772.5392,222.35,777.22" style="stroke:#008000;stroke-width:1;"/><path d="M262.04,751.8 L262.04,776.8 L486.04,776.8 L486.04,761.8 L476.04,751.8 L262.04,751.8" fill="#FEFFDD" style="stroke:#181818;stroke-width:0.5;"/><path d="M476.04,751.8 L476.04,761.8 L486.04,761.8 L476.04,751.8" fill="#FEFFDD" style="stroke:#181818;stroke-width:0.5;"/><text fill="#000000" font-family="sans-serif" font-size="13" lengthAdjust="spacing" textLength="203.7979" x="268.04" y="768.8669">editarPerfil(investigadorNuevo)</text></g><!--link crearInvestigador to INVESTIGADORES_ABIERTOS--><g class="link" data-entity-1="ent0003" data-entity-2="ent0011" data-link-type="dependency" data-source-line="47" id="lnk12"><path d="M566.05,644.57 C583.37,683.03 596.2858,711.7094 606.0558,733.3994" fill="none" id="crearInvestigador-to-INVESTIGADORES_ABIERTOS" style="stroke:#008000;stroke-width:1;"/><polygon fill="#008000" points="608.52,738.87,608.4708,729.0213,606.4665,734.3111,601.1766,732.3068,608.52,738.87" style="stroke:#008000;stroke-width:1;"/><path d="M596.52,679.3 L596.52,704.3 L731.52,704.3 L731.52,689.3 L721.52,679.3 L596.52,679.3" fill="#FEFFDD" style="stroke:#181818;stroke-width:0.5;"/><path d="M721.52,679.3 L721.52,689.3 L731.52,689.3 L721.52,679.3" fill="#FEFFDD" style="stroke:#181818;stroke-width:0.5;"/><text fill="#000000" font-family="sans-serif" font-size="13" lengthAdjust="spacing" textLength="114.9624" x="602.52" y="696.3669">cancelar creaci&#243;n</text></g><!--SRC=[bLJ1Qjj04BtlLmpknIc4qdimfBPR1CKoLkWbXBBIJi8GQKViRWAc5FejlVVKJyYVz4iwgrYfrvA3Au5OQT_ClFTsHlwURAkTRg0cYs7R8hHSR-EBKZxeW43sFMWFasprPLbSPPyk5_bcMNoz_90jDrTvCL4HS7xzviuXsflp6LGEjSli8_f0TzgmKvOb3zjOuruDjgTd2gs12Efh3Z0TWv782NnJ2kHwZfl8BSY2QweeQ6jueGFx8M8kgMGtOTcXhj_U968EKq67IWJ53nVbRCxi3DcOwk9TEGE_YtmM8pRkgR4F-CXTOAyyhjNBOr1rdz8OzsEa2l816zqHQXrwj49en-p1W44mNVxcwPUbHXO6wuHgb-ZFZv-GBGPxCEMobcLWHtpsWbnnKpey5JtNJSkdWjVe6XALlRTknDpNmDfMME-YAdhwRPCp-EV_YCN94KYNdDm7hUEMNKLizO7POuSKcQLER24uRVqjePYg0GsDCF-kr72m4ihvUfxbAndSzNBpCVlSpsywcxfqvF8saaKl_jrIFTqdiufzkp-kHxB-VsMH9ITqIidNPHxvIntyWePzqEV_2m00]--></g></svg>