<?xml version="1.0" encoding="us-ascii" standalone="no"?><svg xmlns="http://www.w3.org/2000/svg" xmlns:xlink="http://www.w3.org/1999/xlink" contentStyleType="text/css" height="957px" preserveAspectRatio="none" style="width:758px;height:957px;background:#FFFFFF;" version="1.1" viewBox="0 0 758 957" width="758px" zoomAndPan="magnify"><defs/><g><g id="in1"><rect fill="#F1F1F1" height="50" rx="12.5" ry="12.5" style="stroke:#181818;stroke-width:0.5;" width="210" x="162.5" y="7"/><line style="stroke:#181818;stroke-width:0.5;" x1="162.5" x2="372.5" y1="34.6094" y2="34.6094"/><text fill="#000000" font-family="sans-serif" font-size="14" lengthAdjust="spacing" textLength="190" x="172.5" y="26.5332">PANEL_PRINCIPAL_ABIERTO</text></g><path d="M40.5,118 L732.5,118 A12.5,12.5 0 0 1 745,130.5 L745,145.6094 L28,145.6094 L28,130.5 A12.5,12.5 0 0 1 40.5,118 " fill="#F1F1F1" style="stroke:#F1F1F1;stroke-width:1.0;"/><rect fill="none" height="686.6094" rx="12.5" ry="12.5" style="stroke:#181818;stroke-width:0.5;" width="717" x="28" y="118"/><line style="stroke:#181818;stroke-width:0.5;" x1="28" x2="745" y1="145.6094" y2="145.6094"/><text fill="#000000" font-family="sans-serif" font-size="14" lengthAdjust="spacing" textLength="130" x="321.5" y="137.5332">abrirConvocatorias()</text><g id="abrirConvocatorias.CargandoListado"><rect fill="#F1F1F1" height="50" rx="12.5" ry="12.5" style="stroke:#181818;stroke-width:0.5;" width="50" x="215" y="248.6094"/><line style="stroke:#181818;stroke-width:0.5;" x1="215" x2="265" y1="276.2188" y2="276.2188"/><text fill="#000000" font-family="sans-serif" font-size="14" lengthAdjust="spacing" textLength="4" x="238" y="268.1426">&#160;</text></g><g id="abrirConvocatorias.MostrandoConvocatorias"><rect fill="#F1F1F1" height="50" rx="12.5" ry="12.5" style="stroke:#181818;stroke-width:0.5;" width="50" x="40" y="616.6094"/><line style="stroke:#181818;stroke-width:0.5;" x1="40" x2="90" y1="644.2188" y2="644.2188"/><text fill="#000000" font-family="sans-serif" font-size="14" lengthAdjust="spacing" textLength="4" x="63" y="636.1426">&#160;</text></g><ellipse cx="240" cy="166.6094" fill="#222222" rx="10" ry="10" style="stroke:#222222;stroke-width:1.0;"/><ellipse cx="248" cy="783.6094" fill="none" rx="11" ry="11" style="stroke:#222222;stroke-width:1.0;"/><ellipse cx="248" cy="783.6094" fill="#222222" rx="6" ry="6" style="stroke:#222222;stroke-width:1.0;"/><!--link *start*abrirConvocatorias to CargandoListado--><g id="link_*start*abrirConvocatorias_CargandoListado"><path d="M240,176.9294 C240,192.7894 240,219.5194 240,242.2494 " fill="none" id="*start*abrirConvocatorias-to-CargandoListado" style="stroke:#008000;stroke-width:1.0;"/><polygon fill="#008000" points="240,248.2494,244,239.2494,240,243.2494,236,239.2494,240,248.2494" style="stroke:#008000;stroke-width:1.0;"/><path d="M245,199.6094 L245,225.6094 L502,225.6094 L502,209.6094 L492,199.6094 L245,199.6094 " fill="#FEFFDD" style="stroke:#181818;stroke-width:0.5;"/><path d="M492,199.6094 L492,209.6094 L502,209.6094 L492,199.6094 " fill="#FEFFDD" style="stroke:#181818;stroke-width:0.5;"/><text fill="#000000" font-family="sans-serif" font-size="13" font-weight="bold" lengthAdjust="spacing" textLength="79" x="251" y="218.1045">Coordinador</text><text fill="#000000" font-family="sans-serif" font-size="13" lengthAdjust="spacing" textLength="153" x="334" y="218.1045">solicita abrir convocatorias</text></g><!--link CargandoListado to MostrandoConvocatorias--><g id="link_CargandoListado_MostrandoConvocatorias"><path d="M214.69,280.4494 C164.69,291.9894 58,316.6094 58,316.6094 C58,316.6094 58,597.6094 58,597.6094 C58,597.6094 58.528,600.827 60.128,610.677 " fill="none" id="CargandoListado-to-MostrandoConvocatorias" style="stroke:#008000;stroke-width:1.0;"/><polygon fill="#008000" points="61.09,616.5994,63.5952,607.0745,60.2883,611.6641,55.6987,608.3572,61.09,616.5994" style="stroke:#008000;stroke-width:1.0;"/><path d="M63,321.6094 L63,592.6094 L405,592.6094 L405,331.6094 L395,321.6094 L63,321.6094 " fill="#FEFFDD" style="stroke:#181818;stroke-width:0.5;"/><path d="M395,321.6094 L395,331.6094 L405,331.6094 L395,321.6094 " fill="#FEFFDD" style="stroke:#181818;stroke-width:0.5;"/><text fill="#000000" font-family="sans-serif" font-size="13" font-weight="bold" lengthAdjust="spacing" textLength="51" x="69" y="340.1045">Sistema</text><text fill="#000000" font-family="sans-serif" font-size="13" lengthAdjust="spacing" textLength="266" x="124" y="340.1045">presenta el bloque de b&#250;squeda y filtrado con:</text><text fill="#000000" font-family="sans-serif" font-size="13" lengthAdjust="spacing" textLength="41" x="69" y="356.4561">&#8226; Texto</text><text fill="#000000" font-family="sans-serif" font-size="13" lengthAdjust="spacing" textLength="36" x="69" y="372.8076">&#8226; &#193;rea</text><text fill="#000000" font-family="sans-serif" font-size="13" lengthAdjust="spacing" textLength="50" x="69" y="389.1592">&#8226; Estado</text><text fill="#000000" font-family="sans-serif" font-size="13" lengthAdjust="spacing" textLength="4" x="69" y="405.5107">&#160;</text><text fill="#000000" font-family="sans-serif" font-size="13" lengthAdjust="spacing" textLength="247" x="69" y="421.8623">y permite solicitar las siguientes acciones:</text><text fill="#000000" font-family="sans-serif" font-size="13" lengthAdjust="spacing" textLength="50" x="69" y="438.2139">&#8226; Buscar</text><text fill="#000000" font-family="sans-serif" font-size="13" lengthAdjust="spacing" textLength="86" x="69" y="454.5654">&#8226; Limpiar filtros</text><text fill="#000000" font-family="sans-serif" font-size="13" lengthAdjust="spacing" textLength="4" x="69" y="470.917">&#160;</text><text fill="#000000" font-family="sans-serif" font-size="13" font-weight="bold" lengthAdjust="spacing" textLength="51" x="69" y="487.2686">Sistema</text><text fill="#000000" font-family="sans-serif" font-size="13" lengthAdjust="spacing" textLength="236" x="124" y="487.2686">presenta el listado de convocatorias con:</text><text fill="#000000" font-family="sans-serif" font-size="13" lengthAdjust="spacing" textLength="21" x="69" y="503.6201">&#8226; ID</text><text fill="#000000" font-family="sans-serif" font-size="13" lengthAdjust="spacing" textLength="40" x="69" y="519.9717">&#8226; T&#237;tulo</text><text fill="#000000" font-family="sans-serif" font-size="13" lengthAdjust="spacing" textLength="36" x="69" y="536.3232">&#8226; &#193;rea</text><text fill="#000000" font-family="sans-serif" font-size="13" lengthAdjust="spacing" textLength="50" x="69" y="552.6748">&#8226; Estado</text><text fill="#000000" font-family="sans-serif" font-size="13" lengthAdjust="spacing" textLength="99" x="69" y="569.0264">&#8226; Fecha de cierre</text><text fill="#000000" font-family="sans-serif" font-size="13" lengthAdjust="spacing" textLength="116" x="69" y="585.3779">&#8226; abrirConvocatoria()</text></g><!--link CargandoListado to *end*abrirConvocatorias--><g id="link_CargandoListado_*end*abrirConvocatorias"><path d="M265.08,280.8094 C312.37,292.4894 410,316.6094 410,316.6094 C410,316.6094 410,754.6094 410,754.6094 C410,754.6094 300.5823,773.5174 264.5423,779.7474 " fill="none" id="CargandoListado-to-*end*abrirConvocatorias" style="stroke:#FF0000;stroke-width:1.0;"/><polygon fill="#FF0000" points="258.63,780.7694,268.1798,783.1779,263.5569,779.9177,266.8171,775.2948,258.63,780.7694" style="stroke:#FF0000;stroke-width:1.0;"/><path d="M415,620.6094 L415,662.6094 L736,662.6094 L736,630.6094 L726,620.6094 L415,620.6094 " fill="#FEFFDD" style="stroke:#181818;stroke-width:0.5;"/><path d="M726,620.6094 L726,630.6094 L736,630.6094 L726,620.6094 " fill="#FEFFDD" style="stroke:#181818;stroke-width:0.5;"/><text fill="#000000" font-family="sans-serif" font-size="13" font-weight="bold" lengthAdjust="spacing" textLength="51" x="421" y="639.1045">Sistema</text><text fill="#000000" font-family="sans-serif" font-size="13" lengthAdjust="spacing" textLength="245" x="476" y="639.1045">informa de un problema al cargar el listado</text><text fill="#000000" font-family="sans-serif" font-size="13" lengthAdjust="spacing" textLength="193" x="421" y="655.4561">y mantiene la navegaci&#243;n anterior</text></g><!--link MostrandoConvocatorias to *end*abrirConvocatorias--><g id="link_MostrandoConvocatorias_*end*abrirConvocatorias"><path d="M69.93,666.6394 C76.69,699.5494 88,754.6094 88,754.6094 C88,754.6094 195.4699,773.4147 231.3399,779.6947 " fill="none" id="MostrandoConvocatorias-to-*end*abrirConvocatorias" style="stroke:#008000;stroke-width:1.0;"/><polygon fill="#008000" points="237.25,780.7294,229.0747,775.2372,232.3249,779.8671,227.695,783.1174,237.25,780.7294" style="stroke:#008000;stroke-width:1.0;"/><path d="M93,690.6094 L93,749.6094 L405,749.6094 L405,700.6094 L395,690.6094 L93,690.6094 " fill="#FEFFDD" style="stroke:#181818;stroke-width:0.5;"/><path d="M395,690.6094 L395,700.6094 L405,700.6094 L395,690.6094 " fill="#FEFFDD" style="stroke:#181818;stroke-width:0.5;"/><text fill="#000000" font-family="sans-serif" font-size="13" font-weight="bold" lengthAdjust="spacing" textLength="51" x="99" y="709.1045">Sistema</text><text fill="#000000" font-family="sans-serif" font-size="13" lengthAdjust="spacing" textLength="236" x="154" y="709.1045">permite solicitar las siguientes acciones:</text><text fill="#000000" font-family="sans-serif" font-size="13" lengthAdjust="spacing" textLength="112" x="99" y="725.4561">&#8226; Abrir convocatoria</text><text fill="#000000" font-family="sans-serif" font-size="13" lengthAdjust="spacing" textLength="123" x="99" y="741.8076">&#8226; Abrir panel principal</text></g><g id="in2"><rect fill="#F1F1F1" height="50" rx="12.5" ry="12.5" style="stroke:#181818;stroke-width:0.5;" width="197" x="408" y="7"/><line style="stroke:#181818;stroke-width:0.5;" x1="408" x2="605" y1="34.6094" y2="34.6094"/><text fill="#000000" font-family="sans-serif" font-size="14" lengthAdjust="spacing" textLength="177" x="418" y="26.5332">CONVOCATORIA_ABIERTA</text></g><g id="CONVOCATORIAS_ABIERTAS"><rect fill="#F1F1F1" height="50" rx="12.5" ry="12.5" style="stroke:#181818;stroke-width:0.5;" width="215" x="7" y="901"/><line style="stroke:#181818;stroke-width:0.5;" x1="7" x2="222" y1="928.6094" y2="928.6094"/><text fill="#000000" font-family="sans-serif" font-size="14" lengthAdjust="spacing" textLength="195" x="17" y="920.5332">CONVOCATORIAS_ABIERTAS</text></g><g id="CONVOCATORIA_ABIERTA"><rect fill="#F1F1F1" height="50" rx="12.5" ry="12.5" style="stroke:#181818;stroke-width:0.5;" width="197" x="288" y="901"/><line style="stroke:#181818;stroke-width:0.5;" x1="288" x2="485" y1="928.6094" y2="928.6094"/><text fill="#000000" font-family="sans-serif" font-size="14" lengthAdjust="spacing" textLength="177" x="298" y="920.5332">CONVOCATORIA_ABIERTA</text></g><g id="PANEL_PRINCIPAL_ABIERTO"><rect fill="#F1F1F1" height="50" rx="12.5" ry="12.5" style="stroke:#181818;stroke-width:0.5;" width="210" x="520.5" y="901"/><line style="stroke:#181818;stroke-width:0.5;" x1="520.5" x2="730.5" y1="928.6094" y2="928.6094"/><text fill="#000000" font-family="sans-serif" font-size="14" lengthAdjust="spacing" textLength="190" x="530.5" y="920.5332">PANEL_PRINCIPAL_ABIERTO</text></g><!--link in1 to abrirConvocatorias--><g id="link_in1_abrirConvocatorias"><path d="M274.24,57.21 C278.39,72.13 282.6201,87.34 289.4801,111.97 " fill="none" id="in1-to-abrirConvocatorias" style="stroke:#008000;stroke-width:1.0;"/><polygon fill="#008000" points="291.09,117.75,292.5285,108.0068,289.7485,112.9333,284.8219,110.1532,291.09,117.75" style="stroke:#008000;stroke-width:1.0;"/></g><!--link in2 to abrirConvocatorias--><g id="link_in2_abrirConvocatorias"><path d="M499.7,57.21 C495.51,72.13 491.2407,87.343 484.3307,111.973 " fill="none" id="in2-to-abrirConvocatorias" style="stroke:#008000;stroke-width:1.0;"/><polygon fill="#008000" points="482.71,117.75,488.9924,110.1651,484.0606,112.9359,481.2898,108.0041,482.71,117.75" style="stroke:#008000;stroke-width:1.0;"/></g><!--link abrirConvocatorias to CONVOCATORIAS_ABIERTAS--><g id="link_abrirConvocatorias_CONVOCATORIAS_ABIERTAS"><path d="M165.73,805.15 C153.75,823.74 146.5,835 146.5,835 C146.5,835 134.5583,868.5661 125.0883,895.2261 " fill="none" id="abrirConvocatorias-to-CONVOCATORIAS_ABIERTAS" style="stroke:#008000;stroke-width:1.0;"/><polygon fill="#008000" points="123.08,900.88,129.8618,893.738,124.7536,896.1684,122.3232,891.0603,123.08,900.88" style="stroke:#008000;stroke-width:1.0;"/><path d="M151.5,840 L151.5,866 L373.5,866 L373.5,850 L363.5,840 L151.5,840 " fill="#FEFFDD" style="stroke:#181818;stroke-width:0.5;"/><path d="M363.5,840 L363.5,850 L373.5,850 L363.5,840 " fill="#FEFFDD" style="stroke:#181818;stroke-width:0.5;"/><text fill="#000000" font-family="sans-serif" font-size="13" lengthAdjust="spacing" textLength="201" x="157.5" y="858.4951">Listado de convocatorias mostrado</text></g><!--link abrirConvocatorias to CONVOCATORIA_ABIERTA--><g id="link_abrirConvocatorias_CONVOCATORIA_ABIERTA"><path d="M386.5,805.29 C386.5,845.11 386.5,873.13 386.5,894.61 " fill="none" id="abrirConvocatorias-to-CONVOCATORIA_ABIERTA" style="stroke:#008000;stroke-width:1.0;"/><polygon fill="#008000" points="386.5,900.61,390.5,891.61,386.5,895.61,382.5,891.61,386.5,900.61" style="stroke:#008000;stroke-width:1.0;"/><path d="M391.5,840 L391.5,866 L519.5,866 L519.5,850 L509.5,840 L391.5,840 " fill="#FEFFDD" style="stroke:#181818;stroke-width:0.5;"/><path d="M509.5,840 L509.5,850 L519.5,850 L509.5,840 " fill="#FEFFDD" style="stroke:#181818;stroke-width:0.5;"/><text fill="#000000" font-family="sans-serif" font-size="13" lengthAdjust="spacing" textLength="107" x="397.5" y="858.4951">abrirConvocatoria()</text></g><!--link abrirConvocatorias to PANEL_PRINCIPAL_ABIERTO--><g id="link_abrirConvocatorias_PANEL_PRINCIPAL_ABIERTO"><path d="M563.64,805.29 C584.22,845.11 599.0455,873.7996 610.1455,895.2796 " fill="none" id="abrirConvocatorias-to-PANEL_PRINCIPAL_ABIERTO" style="stroke:#008000;stroke-width:1.0;"/><polygon fill="#008000" points="612.9,900.61,612.3218,890.7781,610.6046,896.168,605.2147,894.4508,612.9,900.61" style="stroke:#008000;stroke-width:1.0;"/><path d="M600.5,840 L600.5,866 L737.5,866 L737.5,850 L727.5,840 L600.5,840 " fill="#FEFFDD" style="stroke:#181818;stroke-width:0.5;"/><path d="M727.5,840 L727.5,850 L737.5,850 L727.5,840 " fill="#FEFFDD" style="stroke:#181818;stroke-width:0.5;"/><text fill="#000000" font-family="sans-serif" font-size="13" lengthAdjust="spacing" textLength="116" x="606.5" y="858.4951">abrirPanelPrincipal()</text></g><!--SRC=[dLHDRzD04BtxLupIIujKLVI8gaYk2L8aaqH9nAMgghKz3QEkTysiKn4X9FWht3bnuvf_mYzXlFbque31ldXsPzzxysQyxebCeLZbeCbWkIWG2giNLH04hbGb0fcNe1nqHk6W5p-Cnlr1r1-5yKDus- -DfyDEK2LStftD6D7SNtP19KmSMVDiKrLQ9kLsKDSUAXeEtWsZS3eSzyCrJbZXNBV4ETxniCVBvnST-1G48C_gP4TUIOqKpvJ9R4oodDdZXBVMbLnb7F1NYNSlxciwcy2C5InhAbUV_C9DqesivOoCfF3DLT85PpMbLAfLEP3McAepQ38FjA8zeAb9E27tb9A9G62kl8g2qQ4H5QWXqVR37253I9O_dNnc2XRmI5h0XL4Kll8GlxvyWob-BEqsMdvbLDkejpB2nmiea7CI4Pjw6RGux6Ws9o56wLsQaZNeTk2tSvSgteOnvGN9EQ_4hjlmXphqsY8ffEPglOB-wrqno-_bNF-bd4tu1jFtocCJCkDs_MZypY_QjP4ngveeSzMgOsGUBUTUmTn8tJRHiWLAGrfXyvu3wmxaofJYDOhnODGppbHAony6P1cPB3V8R9wesj2rrViV_G-F_eY3hK8PgR9WCYaLIjSB-1m43JT4xPVTku0ccnje4jGgYKyDKUwj4NDtZlq3tOQjJjOqEwtXJzpC3GoZohRHnhLzZjy0]--></g></svg>