<svg xmlns="http://www.w3.org/2000/svg" xmlns:xlink="http://www.w3.org/1999/xlink" contentStyleType="text/css" data-diagram-type="STATE" height="780px" preserveAspectRatio="none" style="width:501px;height:780px;background:#FFFFFF;" version="1.1" viewBox="0 0 501 780" width="501px" zoomAndPan="magnify"><defs/><g><g><rect fill="#F1F1F1" height="50" rx="12.5" ry="12.5" style="stroke:#181818;stroke-width:0.5;" width="213.0879" x="7" y="7"/><line style="stroke:#181818;stroke-width:0.5;" x1="7" x2="220.0879" y1="33.2969" y2="33.2969"/><text fill="#000000" font-family="sans-serif" font-size="14" lengthAdjust="spacing" textLength="193.0879" x="17" y="24.9951">PANEL_PRINCIPAL_ABIERTO</text></g><g><rect fill="#F1F1F1" height="50" rx="12.5" ry="12.5" style="stroke:#181818;stroke-width:0.5;" width="164.3887" x="255.35" y="7"/><line style="stroke:#181818;stroke-width:0.5;" x1="255.35" x2="419.7387" y1="33.2969" y2="33.2969"/><text fill="#000000" font-family="sans-serif" font-size="14" lengthAdjust="spacing" textLength="144.3887" x="265.35" y="24.9951">PROYECTO_ABIERTO</text></g><path d="M55.54,152 L395.54,152 A12.5,12.5 0 0 1 408.04,164.5 L408.04,178.2969 L43.04,178.2969 L43.04,164.5 A12.5,12.5 0 0 1 55.54,152" fill="#F1F1F1"/><rect fill="none" height="477.2969" rx="12.5" ry="12.5" style="stroke:#181818;stroke-width:0.5;" width="365" x="43.04" y="152"/><line style="stroke:#181818;stroke-width:0.5;" x1="43.04" x2="408.04" y1="178.2969" y2="178.2969"/><text fill="#000000" font-family="sans-serif" font-size="14" lengthAdjust="spacing" textLength="146.9453" x="152.0673" y="169.9951">abrirInvestigadores()</text><g><rect fill="#F1F1F1" height="50" rx="12.5" ry="12.5" style="stroke:#181818;stroke-width:0.5;" width="50" x="55.04" y="280.2969"/><line style="stroke:#181818;stroke-width:0.5;" x1="55.04" x2="105.04" y1="306.5938" y2="306.5938"/><text fill="#000000" font-family="sans-serif" font-size="14" lengthAdjust="spacing" textLength="4.4502" x="77.8149" y="298.292">&#160;</text></g><g><rect fill="#F1F1F1" height="50" rx="12.5" ry="12.5" style="stroke:#181818;stroke-width:0.5;" width="50" x="55.04" y="476.2969"/><line style="stroke:#181818;stroke-width:0.5;" x1="55.04" x2="105.04" y1="502.5938" y2="502.5938"/><text fill="#000000" font-family="sans-serif" font-size="14" lengthAdjust="spacing" textLength="4.4502" x="77.8149" y="494.292">&#160;</text></g><ellipse cx="80.04" cy="199.2969" fill="#222222" rx="10" ry="10" style="stroke:#222222;stroke-width:1;"/><ellipse cx="80.04" cy="608.2969" fill="none" rx="11" ry="11" style="stroke:#222222;stroke-width:1;"/><ellipse cx="80.04" cy="608.2969" fill="#222222" rx="6" ry="6" style="stroke:#222222;stroke-width:1;"/><!--link *start*abrirInvestigadores to MostrandoLista--><g class="link" data-entity-1="ent0004" data-entity-2="ent0005" data-link-type="dependency" data-source-line="20" id="lnk5"><path d="M80.04,209.5269 C80.04,225.2369 80.04,251.6569 80.04,274.1669" fill="none" id="*start*abrirInvestigadores-to-MostrandoLista" style="stroke:#008000;stroke-width:1;"/><polygon fill="#008000" points="80.04,280.1669,84.04,271.1669,80.04,275.1669,76.04,271.1669,80.04,280.1669" style="stroke:#008000;stroke-width:1;"/><path d="M85.04,232.2969 L85.04,257.2969 L399.04,257.2969 L399.04,242.2969 L389.04,232.2969 L85.04,232.2969" fill="#FEFFDD" style="stroke:#181818;stroke-width:0.5;"/><path d="M389.04,232.2969 L389.04,242.2969 L399.04,242.2969 L389.04,232.2969" fill="#FEFFDD" style="stroke:#181818;stroke-width:0.5;"/><text fill="#000000" font-family="sans-serif" font-size="13" font-weight="bold" lengthAdjust="spacing" textLength="109.0718" x="91.04" y="249.3638">Investigadores</text><text fill="#000000" font-family="sans-serif" font-size="13" lengthAdjust="spacing" textLength="180.1211" x="204.2441" y="249.3638">solicita abrir investigadores</text></g><!--link MostrandoLista to FiltrandoLista--><g class="link" data-entity-1="ent0005" data-entity-2="ent0006" data-link-type="dependency" data-source-line="25" id="lnk6"><path d="M80.04,330.4769 C80.04,367.6469 80.04,432.4569 80.04,469.8169" fill="none" id="MostrandoLista-to-FiltrandoLista" style="stroke:#008000;stroke-width:1;"/><polygon fill="#008000" points="80.04,475.8169,84.04,466.8169,80.04,470.8169,76.04,466.8169,80.04,475.8169" style="stroke:#008000;stroke-width:1;"/><path d="M85.04,353.2969 L85.04,453.2969 L383.04,453.2969 L383.04,363.2969 L373.04,353.2969 L85.04,353.2969" fill="#FEFFDD" style="stroke:#181818;stroke-width:0.5;"/><path d="M373.04,353.2969 L373.04,363.2969 L383.04,363.2969 L373.04,353.2969" fill="#FEFFDD" style="stroke:#181818;stroke-width:0.5;"/><text fill="#000000" font-family="sans-serif" font-size="13" font-weight="bold" lengthAdjust="spacing" textLength="58.9063" x="91.04" y="370.3638">Sistema</text><text fill="#000000" font-family="sans-serif" font-size="13" lengthAdjust="spacing" textLength="208.9395" x="154.0786" y="370.3638">presenta lista de investigadores</text><text fill="#000000" font-family="sans-serif" font-size="13" lengthAdjust="spacing" textLength="277.3799" x="91.04" y="385.4966">&#8226; ID, nombre, campo de cada investigador</text><text fill="#000000" font-family="sans-serif" font-size="13" lengthAdjust="spacing" textLength="188.481" x="91.04" y="400.6294">&#8226; Permite solicitar filtrar lista</text><text fill="#000000" font-family="sans-serif" font-size="13" lengthAdjust="spacing" textLength="237.1802" x="91.04" y="415.7622">&#8226; Permite solicitar abrir investigador</text><text fill="#000000" font-family="sans-serif" font-size="13" lengthAdjust="spacing" textLength="252.624" x="91.04" y="430.895">&#8226; Permite solicitar abrir panel principal</text><text fill="#000000" font-family="sans-serif" font-size="13" lengthAdjust="spacing" textLength="4.1323" x="91.04" y="446.0278">&#160;</text></g><!--link FiltrandoLista to FiltrandoLista--><g class="link" data-entity-1="ent0006" data-entity-2="ent0006" data-link-type="dependency" data-source-line="35" id="lnk7"><path d="M105.22,489.9969 C114.95,489.4969 123.04,493.2569 123.04,501.2969 C123.04,509.3369 120.9421,513.4048 111.2121,512.9048" fill="none" id="FiltrandoLista-to-FiltrandoLista" style="stroke:#008000;stroke-width:1;"/><polygon fill="#008000" points="105.22,512.5969,114.0029,517.0535,110.2134,512.8535,114.4134,509.064,105.22,512.5969" style="stroke:#008000;stroke-width:1;"/><path d="M128.04,481.2969 L128.04,521.2969 L362.04,521.2969 L362.04,491.2969 L352.04,481.2969 L128.04,481.2969" fill="#FEFFDD" style="stroke:#181818;stroke-width:0.5;"/><path d="M352.04,481.2969 L352.04,491.2969 L362.04,491.2969 L352.04,481.2969" fill="#FEFFDD" style="stroke:#181818;stroke-width:0.5;"/><text fill="#000000" font-family="sans-serif" font-size="13" font-weight="bold" lengthAdjust="spacing" textLength="92.5171" x="134.04" y="498.3638">Investigador</text><text fill="#000000" font-family="sans-serif" font-size="13" lengthAdjust="spacing" textLength="116.6509" x="230.6894" y="498.3638">solicita filtrar lista</text><text fill="#000000" font-family="sans-serif" font-size="13" font-weight="bold" lengthAdjust="spacing" textLength="58.9063" x="134.04" y="513.4966">Sistema</text><text fill="#000000" font-family="sans-serif" font-size="13" lengthAdjust="spacing" textLength="139.4199" x="197.0786" y="513.4966">presenta lista filtrada</text></g><!--link FiltrandoLista to *end*abrirInvestigadores--><g class="link" data-entity-1="ent0006" data-entity-2="ent0008" data-link-type="dependency" data-source-line="41" id="lnk9"><path d="M80.04,526.6469 C80.04,548.9469 80.04,574.8569 80.04,591.0369" fill="none" id="FiltrandoLista-to-*end*abrirInvestigadores" style="stroke:#008000;stroke-width:1;"/><polygon fill="#008000" points="80.04,597.0369,84.04,588.0369,80.04,592.0369,76.04,588.0369,80.04,597.0369" style="stroke:#008000;stroke-width:1;"/><path d="M85.04,549.2969 L85.04,574.2969 L379.04,574.2969 L379.04,559.2969 L369.04,549.2969 L85.04,549.2969" fill="#FEFFDD" style="stroke:#181818;stroke-width:0.5;"/><path d="M369.04,549.2969 L369.04,559.2969 L379.04,559.2969 L369.04,549.2969" fill="#FEFFDD" style="stroke:#181818;stroke-width:0.5;"/><text fill="#000000" font-family="sans-serif" font-size="13" font-weight="bold" lengthAdjust="spacing" textLength="90.251" x="91.04" y="566.3638">Coordinador</text><text fill="#000000" font-family="sans-serif" font-size="13" lengthAdjust="spacing" textLength="179.2769" x="185.4233" y="566.3638">solicita una de las opciones</text></g><g><rect fill="#F1F1F1" height="50" rx="12.5" ry="12.5" style="stroke:#181818;stroke-width:0.5;" width="195" x="9.04" y="724.3"/><line style="stroke:#181818;stroke-width:0.5;" x1="9.04" x2="204.04" y1="750.5969" y2="750.5969"/><text fill="#000000" font-family="sans-serif" font-size="14" lengthAdjust="spacing" textLength="175" x="19.04" y="742.2951">INVESTIGADOR_ABIERTO</text></g><g><rect fill="#F1F1F1" height="50" rx="12.5" ry="12.5" style="stroke:#181818;stroke-width:0.5;" width="213.0879" x="239" y="724.3"/><line style="stroke:#181818;stroke-width:0.5;" x1="239" x2="452.0879" y1="750.5969" y2="750.5969"/><text fill="#000000" font-family="sans-serif" font-size="14" lengthAdjust="spacing" textLength="193.0879" x="249" y="742.2951">PANEL_PRINCIPAL_ABIERTO</text></g><!--link in1 to abrirInvestigadores--><g class="link" data-entity-1="ent0002" data-entity-2="ent0004" data-link-type="dependency" data-source-line="4" id="lnk2"><path d="M117.37,57.32 C121.51,83.67 127.54,122 127.54,122 C127.54,122 129.6744,127.8468 136.3444,146.0368" fill="none" id="in1-to-abrirInvestigadores" style="stroke:#008000;stroke-width:1;"/><polygon fill="#008000" points="138.41,151.67,139.0671,141.8431,136.6887,146.9756,131.5561,144.5972,138.41,151.67" style="stroke:#008000;stroke-width:1;"/><path d="M132.54,92 L132.54,117 L289.54,117 L289.54,102 L279.54,92 L132.54,92" fill="#FEFFDD" style="stroke:#181818;stroke-width:0.5;"/><path d="M279.54,92 L279.54,102 L289.54,102 L279.54,92" fill="#FEFFDD" style="stroke:#181818;stroke-width:0.5;"/><text fill="#000000" font-family="sans-serif" font-size="13" lengthAdjust="spacing" textLength="136.4492" x="138.54" y="109.0669">abrirInvestigadores()</text></g><!--link in2 to abrirInvestigadores--><g class="link" data-entity-1="ent0003" data-entity-2="ent0004" data-link-type="dependency" data-source-line="10" id="lnk3"><path d="M329.93,57.24 C323.11,78.95 314.1485,107.5159 302.0585,145.9959" fill="none" id="in2-to-abrirInvestigadores" style="stroke:#008000;stroke-width:1;"/><polygon fill="#008000" points="300.26,151.72,306.7738,144.3328,301.7587,146.9499,299.1416,141.9348,300.26,151.72" style="stroke:#008000;stroke-width:1;"/><path d="M323.54,92 L323.54,117 L494.54,117 L494.54,102 L484.54,92 L323.54,92" fill="#FEFFDD" style="stroke:#181818;stroke-width:0.5;"/><path d="M484.54,92 L484.54,102 L494.54,102 L484.54,92" fill="#FEFFDD" style="stroke:#181818;stroke-width:0.5;"/><text fill="#000000" font-family="sans-serif" font-size="13" lengthAdjust="spacing" textLength="150.2935" x="329.54" y="109.0669">abrirInvestigadores(ID)</text></g><!--link abrirInvestigadores to INVESTIGADOR_ABIERTO--><g class="link" data-entity-1="ent0004" data-entity-2="ent0010" data-link-type="dependency" data-source-line="49" id="lnk11"><path d="M146.17,629.54 C133.29,668.13 123.7174,696.8179 116.4774,718.5379" fill="none" id="abrirInvestigadores-to-INVESTIGADOR_ABIERTO" style="stroke:#008000;stroke-width:1;"/><polygon fill="#008000" points="114.58,724.23,121.2208,716.9568,116.1611,719.4866,113.6313,714.4269,114.58,724.23" style="stroke:#008000;stroke-width:1;"/><path d="M139.54,664.3 L139.54,689.3 L281.54,689.3 L281.54,674.3 L271.54,664.3 L139.54,664.3" fill="#FEFFDD" style="stroke:#181818;stroke-width:0.5;"/><path d="M271.54,664.3 L271.54,674.3 L281.54,674.3 L271.54,664.3" fill="#FEFFDD" style="stroke:#181818;stroke-width:0.5;"/><text fill="#000000" font-family="sans-serif" font-size="13" lengthAdjust="spacing" textLength="121.6782" x="145.54" y="681.3669">abrirInvestigador()</text></g><!--link abrirInvestigadores to PANEL_PRINCIPAL_ABIERTO--><g class="link" data-entity-1="ent0004" data-entity-2="ent0012" data-link-type="dependency" data-source-line="56" id="lnk13"><path d="M305.59,629.54 C318.57,668.13 328.2285,696.8226 335.5285,718.5426" fill="none" id="abrirInvestigadores-to-PANEL_PRINCIPAL_ABIERTO" style="stroke:#008000;stroke-width:1;"/><polygon fill="#008000" points="337.44,724.23,338.3643,714.4246,335.8471,719.4905,330.7812,716.9733,337.44,724.23" style="stroke:#008000;stroke-width:1;"/><path d="M329.54,664.3 L329.54,689.3 L481.54,689.3 L481.54,674.3 L471.54,664.3 L329.54,664.3" fill="#FEFFDD" style="stroke:#181818;stroke-width:0.5;"/><path d="M471.54,664.3 L471.54,674.3 L481.54,674.3 L471.54,664.3" fill="#FEFFDD" style="stroke:#181818;stroke-width:0.5;"/><text fill="#000000" font-family="sans-serif" font-size="13" lengthAdjust="spacing" textLength="131.9424" x="335.54" y="681.3669">abrirPanelPrincipal()</text></g><!--SRC=[fLJTIiCm6BtFKuHwex8XxdeCwbObCDVI3K7666aRHrYQbBGAGmIVnKVpIKnIsZLhjw6cKDhaVDyvtr_oBUKPbZY5Z79Ix382Cy5s-WU0lC05WPJVGfn39t1dtdGTX6WsHe4xNRjto0iNlWCqeB-ys4X2-Ae_WZYIL2B-HlA2Rd0Y9Ca15ygJu9fb2pe0brU0y0Hgs9vtKFA6_hCtNlXDmi7_2T6aJTc1Cn8w1Jlm7G2eLcdhg4TX7qLUICmJCQLgltr-Jrdpt02Mroih7ji7D1Wh7hqnZ4Qsek5DD8AvO3IcoiX8LZcqagBjgfZrDwXV1vHDDGUAZucPgrEIOgCYKsI4Ap_CU4j8bv3lpo-89ZtbB8qawS4OfvdGs1Wds3AeuG6HALNKLPGIlXXniYGwWMkduomumvmm5GhbCSqms-UgxffwnqxHNxBNBALTo7Q4fvDTuXFyUwcg3O_g6miX4yhRybwvgIzJhIsoc0f-q6RW0wZLDLXDQZHxykOBzE1E_B2QypCZRDqOvncEt5uT986kUr2LlK7p0m00]--></g></svg>