<svg xmlns="http://www.w3.org/2000/svg" xmlns:xlink="http://www.w3.org/1999/xlink" contentStyleType="text/css" data-diagram-type="STATE" height="826px" preserveAspectRatio="none" style="width:669px;height:826px;background:#FFFFFF;" version="1.1" viewBox="0 0 669 826" width="669px" zoomAndPan="magnify"><defs/><g><g><rect fill="#F1F1F1" height="50" rx="12.5" ry="12.5" style="stroke:#181818;stroke-width:0.5;" width="215.043" x="223.98" y="7"/><line style="stroke:#181818;stroke-width:0.5;" x1="223.98" x2="439.023" y1="33.2969" y2="33.2969"/><text fill="#000000" font-family="sans-serif" font-size="14" lengthAdjust="spacing" textLength="195.043" x="233.98" y="24.9951">OPCIONES_PERFIL_ABIERTO</text></g><path d="M19.5,152 L643.5,152 A12.5,12.5 0 0 1 656,164.5 L656,178.2969 L7,178.2969 L7,164.5 A12.5,12.5 0 0 1 19.5,152" fill="#F1F1F1"/><rect fill="none" height="523.2969" rx="12.5" ry="12.5" style="stroke:#181818;stroke-width:0.5;" width="649" x="7" y="152"/><line style="stroke:#181818;stroke-width:0.5;" x1="7" x2="656" y1="178.2969" y2="178.2969"/><text fill="#000000" font-family="sans-serif" font-size="14" lengthAdjust="spacing" textLength="87.6572" x="287.6714" y="169.9951">editarPerfil()</text><g><rect fill="#F1F1F1" height="50" rx="12.5" ry="12.5" style="stroke:#181818;stroke-width:0.5;" width="50" x="171" y="280.2969"/><line style="stroke:#181818;stroke-width:0.5;" x1="171" x2="221" y1="306.5938" y2="306.5938"/><text fill="#000000" font-family="sans-serif" font-size="14" lengthAdjust="spacing" textLength="4.4502" x="193.7749" y="298.292">&#160;</text></g><g><rect fill="#F1F1F1" height="50" rx="12.5" ry="12.5" style="stroke:#181818;stroke-width:0.5;" width="50" x="171" y="522.2969"/><line style="stroke:#181818;stroke-width:0.5;" x1="171" x2="221" y1="548.5938" y2="548.5938"/><text fill="#000000" font-family="sans-serif" font-size="14" lengthAdjust="spacing" textLength="4.4502" x="193.7749" y="540.292">&#160;</text></g><ellipse cx="196" cy="199.2969" fill="#222222" rx="10" ry="10" style="stroke:#222222;stroke-width:1;"/><ellipse cx="196" cy="654.2969" fill="none" rx="11" ry="11" style="stroke:#222222;stroke-width:1;"/><ellipse cx="196" cy="654.2969" fill="#222222" rx="6" ry="6" style="stroke:#222222;stroke-width:1;"/><!--link *start*editarPerfil to EditandoDatos--><g class="link" data-entity-1="ent0003" data-entity-2="ent0004" data-link-type="dependency" data-source-line="14" id="lnk4"><path d="M196,209.5269 C196,225.2369 196,251.6569 196,274.1669" fill="none" id="*start*editarPerfil-to-EditandoDatos" style="stroke:#008000;stroke-width:1;"/><polygon fill="#008000" points="196,280.1669,200,271.1669,196,275.1669,192,271.1669,196,280.1669" style="stroke:#008000;stroke-width:1;"/><path d="M201,232.2969 L201,257.2969 L442,257.2969 L442,242.2969 L432,232.2969 L201,232.2969" fill="#FEFFDD" style="stroke:#181818;stroke-width:0.5;"/><path d="M432,232.2969 L432,242.2969 L442,242.2969 L432,232.2969" fill="#FEFFDD" style="stroke:#181818;stroke-width:0.5;"/><text fill="#000000" font-family="sans-serif" font-size="13" font-weight="bold" lengthAdjust="spacing" textLength="90.251" x="207" y="249.3638">Coordinador</text><text fill="#000000" font-family="sans-serif" font-size="13" lengthAdjust="spacing" textLength="125.7026" x="301.3833" y="249.3638">solicita editar perfil</text></g><!--link EditandoDatos to GuardandoDatos--><g class="link" data-entity-1="ent0004" data-entity-2="ent0005" data-link-type="dependency" data-source-line="19" id="lnk5"><path d="M170.87,312.2269 C121.81,323.8069 18,348.2969 18,348.2969 C18,348.2969 18,504.2969 18,504.2969 C18,504.2969 115.9705,527.4085 165.0305,538.9885" fill="none" id="EditandoDatos-to-GuardandoDatos" style="stroke:#008000;stroke-width:1;"/><polygon fill="#008000" points="170.87,540.3669,163.0296,534.4063,166.0037,539.2183,161.1918,542.1924,170.87,540.3669" style="stroke:#008000;stroke-width:1;"/><path d="M23,353.2969 L23,499.2969 L349,499.2969 L349,363.2969 L339,353.2969 L23,353.2969" fill="#FEFFDD" style="stroke:#181818;stroke-width:0.5;"/><path d="M339,353.2969 L339,363.2969 L349,363.2969 L339,353.2969" fill="#FEFFDD" style="stroke:#181818;stroke-width:0.5;"/><text fill="#000000" font-family="sans-serif" font-size="13" font-weight="bold" lengthAdjust="spacing" textLength="58.9063" x="29" y="370.3638">Sistema</text><text fill="#000000" font-family="sans-serif" font-size="13" lengthAdjust="spacing" textLength="155.7524" x="92.0386" y="370.3638">presenta datos de perfil</text><text fill="#000000" font-family="sans-serif" font-size="13" lengthAdjust="spacing" textLength="305.6143" x="29" y="385.4966">&#8226; ID, nombre, apellido, campo, carrera, master</text><text fill="#000000" font-family="sans-serif" font-size="13" lengthAdjust="spacing" textLength="263.834" x="29" y="400.6294">&#8226; Correo electr&#243;nico, tel&#233;fono, ubicaci&#243;n</text><text fill="#000000" font-family="sans-serif" font-size="13" lengthAdjust="spacing" textLength="4.1323" x="29" y="415.7622">&#160;</text><text fill="#000000" font-family="sans-serif" font-size="13" lengthAdjust="spacing" textLength="4.1323" x="29" y="430.895">&#160;</text><text fill="#000000" font-family="sans-serif" font-size="13" font-weight="bold" lengthAdjust="spacing" textLength="58.9063" x="29" y="446.0278">Sistema</text><text fill="#000000" font-family="sans-serif" font-size="13" lengthAdjust="spacing" textLength="110.5952" x="92.0386" y="446.0278">permite solicitar:</text><text fill="#000000" font-family="sans-serif" font-size="13" lengthAdjust="spacing" textLength="135.3955" x="29" y="461.1606">&#8226; modificar atributos</text><text fill="#000000" font-family="sans-serif" font-size="13" lengthAdjust="spacing" textLength="121.6655" x="29" y="476.2935">&#8226; guardar cambios</text><text fill="#000000" font-family="sans-serif" font-size="13" lengthAdjust="spacing" textLength="118.168" x="29" y="491.4263">&#8226; cancelar edici&#243;n</text></g><!--link GuardandoDatos to EditandoDatos--><g class="link" data-entity-1="ent0005" data-entity-2="ent0004" data-link-type="dependency" data-source-line="32" id="lnk6"><path d="M221.39,539.5469 C266.05,527.6769 354,504.2969 354,504.2969 C354,504.2969 354,348.2969 354,348.2969 C354,348.2969 271.8487,326.4581 227.1887,314.5881" fill="none" id="GuardandoDatos-to-EditandoDatos" style="stroke:#008000;stroke-width:1;"/><polygon fill="#008000" points="221.39,313.0469,229.0605,319.2245,226.2222,314.3312,231.1155,311.4929,221.39,313.0469" style="stroke:#008000;stroke-width:1;"/><path d="M359,413.7969 L359,438.7969 L647,438.7969 L647,423.7969 L637,413.7969 L359,413.7969" fill="#FEFFDD" style="stroke:#181818;stroke-width:0.5;"/><path d="M637,413.7969 L637,423.7969 L647,423.7969 L637,413.7969" fill="#FEFFDD" style="stroke:#181818;stroke-width:0.5;"/><text fill="#000000" font-family="sans-serif" font-size="13" font-weight="bold" lengthAdjust="spacing" textLength="90.251" x="365" y="430.8638">Coordinador</text><text fill="#000000" font-family="sans-serif" font-size="13" lengthAdjust="spacing" textLength="173.5005" x="459.3833" y="430.8638">solicita modificar atributos</text></g><!--link GuardandoDatos to *end*editarPerfil--><g class="link" data-entity-1="ent0005" data-entity-2="ent0007" data-link-type="dependency" data-source-line="37" id="lnk8"><path d="M170.74,555.6169 C129.2,567.6469 51,590.2969 51,590.2969 C51,590.2969 51,625.2969 51,625.2969 C51,625.2969 145.4891,643.5378 179.2091,650.0578" fill="none" id="GuardandoDatos-to-*end*editarPerfil" style="stroke:#008000;stroke-width:1;"/><polygon fill="#008000" points="185.1,651.1969,177.023,645.561,180.1909,650.2477,175.5043,653.4156,185.1,651.1969" style="stroke:#008000;stroke-width:1;"/><path d="M56,595.2969 L56,620.2969 L315,620.2969 L315,605.2969 L305,595.2969 L56,595.2969" fill="#FEFFDD" style="stroke:#181818;stroke-width:0.5;"/><path d="M305,595.2969 L305,605.2969 L315,605.2969 L305,595.2969" fill="#FEFFDD" style="stroke:#181818;stroke-width:0.5;"/><text fill="#000000" font-family="sans-serif" font-size="13" font-weight="bold" lengthAdjust="spacing" textLength="90.251" x="62" y="612.3638">Coordinador</text><text fill="#000000" font-family="sans-serif" font-size="13" lengthAdjust="spacing" textLength="144.5361" x="156.3833" y="612.3638">solicita guardar y salir</text></g><!--link GuardandoDatos to *end*editarPerfil--><g class="link" data-entity-1="ent0005" data-entity-2="ent0007" data-link-type="dependency" data-source-line="42" id="lnk9"><path d="M221.39,556.8969 C257.67,569.1869 320,590.2969 320,590.2969 C320,590.2969 320,625.2969 320,625.2969 C320,625.2969 242.4127,642.8157 212.4227,649.5857" fill="none" id="GuardandoDatos-to-*end*editarPerfil-1" style="stroke:#FF0000;stroke-width:1;"/><polygon fill="#FF0000" points="206.57,650.9069,216.2299,652.8269,211.4473,649.8059,214.4683,645.0232,206.57,650.9069" style="stroke:#FF0000;stroke-width:1;"/><path d="M325,595.2969 L325,620.2969 L596,620.2969 L596,605.2969 L586,595.2969 L325,595.2969" fill="#FEFFDD" style="stroke:#181818;stroke-width:0.5;"/><path d="M586,595.2969 L586,605.2969 L596,605.2969 L586,595.2969" fill="#FEFFDD" style="stroke:#181818;stroke-width:0.5;"/><text fill="#000000" font-family="sans-serif" font-size="13" font-weight="bold" lengthAdjust="spacing" textLength="90.251" x="331" y="612.3638">Coordinador</text><text fill="#000000" font-family="sans-serif" font-size="13" lengthAdjust="spacing" textLength="156.2729" x="425.3833" y="612.3638">solicita cancelar edici&#243;n</text></g><g><rect fill="#F1F1F1" height="50" rx="12.5" ry="12.5" style="stroke:#181818;stroke-width:0.5;" width="215.043" x="223.98" y="770.3"/><line style="stroke:#181818;stroke-width:0.5;" x1="223.98" x2="439.023" y1="796.5969" y2="796.5969"/><text fill="#000000" font-family="sans-serif" font-size="14" lengthAdjust="spacing" textLength="195.043" x="233.98" y="788.2951">OPCIONES_PERFIL_ABIERTO</text></g><!--link in1 to editarPerfil--><g class="link" data-entity-1="ent0002" data-entity-2="ent0003" data-link-type="dependency" data-source-line="4" id="lnk2"><path d="M331.5,57.33 C331.5,78.93 331.5,107.01 331.5,145.7" fill="none" id="in1-to-editarPerfil" style="stroke:#008000;stroke-width:1;"/><polygon fill="#008000" points="331.5,151.7,335.5,142.7,331.5,146.7,327.5,142.7,331.5,151.7" style="stroke:#008000;stroke-width:1;"/><path d="M336.5,92 L336.5,117 L438.5,117 L438.5,102 L428.5,92 L336.5,92" fill="#FEFFDD" style="stroke:#181818;stroke-width:0.5;"/><path d="M428.5,92 L428.5,102 L438.5,102 L428.5,92" fill="#FEFFDD" style="stroke:#181818;stroke-width:0.5;"/><text fill="#000000" font-family="sans-serif" font-size="13" lengthAdjust="spacing" textLength="81.396" x="342.5" y="109.0669">editarPerfil()</text></g><!--link editarPerfil to OPCIONES_PERFIL_ABIERTO--><g class="link" data-entity-1="ent0003" data-entity-2="ent0010" data-link-type="dependency" data-source-line="51" id="lnk11"><path d="M331.5,675.74 C331.5,714.41 331.5,742.47 331.5,764.04" fill="none" id="editarPerfil-to-OPCIONES_PERFIL_ABIERTO" style="stroke:#008000;stroke-width:1;"/><polygon fill="#008000" points="331.5,770.04,335.5,761.04,331.5,765.04,327.5,761.04,331.5,770.04" style="stroke:#008000;stroke-width:1;"/><path d="M336.5,710.3 L336.5,735.3 L490.5,735.3 L490.5,720.3 L480.5,710.3 L336.5,710.3" fill="#FEFFDD" style="stroke:#181818;stroke-width:0.5;"/><path d="M480.5,710.3 L480.5,720.3 L490.5,720.3 L480.5,710.3" fill="#FEFFDD" style="stroke:#181818;stroke-width:0.5;"/><text fill="#000000" font-family="sans-serif" font-size="13" lengthAdjust="spacing" textLength="133.853" x="342.5" y="727.3669">abrirOpcionesPerfil()</text></g><!--SRC=[dLHDYzim4BthLmpffIrPIgzb2RJPj0HA4tPxMvPbB4sMOMN9Z9L3A8N-bjvwxa_OVz9Vqf5JkzOkfgGs-4Fl-Rqt8rdjFOS61Mlm72WT6e8c-aD-CQPDc0Wul0PiORRPBjURJwkhs-tgyltwu-tRT-lLvUVDp6J2sVMpEo4ADsSB8CS9PKkoOsz2L8aOiloz6IFFNnWA3ZBUEutXphBap-2BCQ37aJtJKqchp0akNc2AxLFumnx53JWS1QvVtXI92mteA4NkF71UBPOnYkE0Bihvgse1RVHizSi_mQ4vbfpPVMdvsGoNqcUSe8mvcU2AsqGrTkwDK4j1tLsdvcZi_-lRTrXVp5MaheJcW0rvpoxEmMBTT3SH4fn3ZIefmqVBgECHo9DDyl0pi5Lo8l_mOnU3FkuhjcXP4LFMzZWTISrQGDyZUJDOrD7nJbK4C0bN-xxWZDrrVP2SikBHkCLWoIkWhVxhFYoW8SMZwPwSvDFdU2hrIHbquPtktFVa02rwbj9rmb78_RVVFtfjlXezYdzrNEB4Db5k15W9owQn70ErJ_Q3tm00]--></g></svg>