<?plantuml 1.2026.2?><svg xmlns="http://www.w3.org/2000/svg" xmlns:xlink="http://www.w3.org/1999/xlink" contentStyleType="text/css" data-diagram-type="SEQUENCE" height="343px" preserveAspectRatio="none" style="width:1198px;height:343px;background:#FFFFFF;" version="1.1" viewBox="0 0 1198 343" width="1198px" zoomAndPan="magnify"><defs/><g><g><title>..boundary..</title><rect fill="#FFFFFF" height="203.9297" style="stroke:#181818;stroke-width:1;" width="10" x="271.0254" y="114.7266"/></g><g><title>..control..</title><rect fill="#FFFFFF" height="145.6641" style="stroke:#181818;stroke-width:1;" width="10" x="567.084" y="143.8594"/></g><g><title>..entity..</title><rect fill="#FFFFFF" height="87.3984" style="stroke:#181818;stroke-width:1;" width="10" x="776.4526" y="172.9922"/></g><g><title>..database..</title><rect fill="#FFFFFF" height="29.1328" style="stroke:#181818;stroke-width:1;" width="10" x="1147.9341" y="202.125"/></g><g class="participant-lifeline" data-entity-uid="part1" data-qualified-name="Investigador" id="part1-lifeline"><g><title>Investigador</title><rect fill="#000000" fill-opacity="0.00000" height="253.0625" width="8" x="47.6235" y="83.5938"/><line style="stroke:#181818;stroke-width:0.5;stroke-dasharray:5,5;" x1="51" x2="51" y1="83.5938" y2="336.6563"/></g></g><g class="participant-lifeline" data-entity-uid="part2" data-qualified-name="DetallePublicacionView" id="part2-lifeline"><g><title>..boundary..</title><rect fill="#000000" fill-opacity="0.00000" height="253.0625" width="8" x="272.0254" y="83.5938"/><line style="stroke:#181818;stroke-width:0.5;stroke-dasharray:5,5;" x1="275.6914" x2="275.6914" y1="83.5938" y2="336.6563"/></g></g><g class="participant-lifeline" data-entity-uid="part3" data-qualified-name="PublicacionController" id="part3-lifeline"><g><title>..control..</title><rect fill="#000000" fill-opacity="0.00000" height="253.0625" width="8" x="568.084" y="83.5938"/><line style="stroke:#181818;stroke-width:0.5;stroke-dasharray:5,5;" x1="571.856" x2="571.856" y1="83.5938" y2="336.6563"/></g></g><g class="participant-lifeline" data-entity-uid="part4" data-qualified-name="PublicacionRepository" id="part4-lifeline"><g><title>..entity..</title><rect fill="#000000" fill-opacity="0.00000" height="253.0625" width="8" x="777.4526" y="83.5938"/><line style="stroke:#181818;stroke-width:0.5;stroke-dasharray:5,5;" x1="781.2749" x2="781.2749" y1="83.5938" y2="336.6563"/></g></g><g class="participant-lifeline" data-entity-uid="part5" data-qualified-name="Database" id="part5-lifeline"><g><title>..database..</title><rect fill="#000000" fill-opacity="0.00000" height="253.0625" width="8" x="1148.9341" y="83.5938"/><line style="stroke:#181818;stroke-width:0.5;stroke-dasharray:5,5;" x1="1152.8398" x2="1152.8398" y1="83.5938" y2="336.6563"/></g></g><g class="participant participant-head" data-entity-uid="part1" data-qualified-name="Investigador" id="part1-head"><text fill="#000000" font-family="sans-serif" font-size="14" lengthAdjust="spacing" textLength="87.2471" x="5" y="80.292">Investigador</text><ellipse cx="51.6235" cy="15.7969" fill="#E2E2F0" rx="8" ry="8" style="stroke:#181818;stroke-width:0.5;"/><path d="M51.6235,23.7969 L51.6235,50.7969 M38.6235,31.7969 L64.6235,31.7969 M51.6235,50.7969 L38.6235,65.7969 M51.6235,50.7969 L64.6235,65.7969" fill="none" style="stroke:#181818;stroke-width:0.5;"/></g><g class="participant participant-head" data-entity-uid="part2" data-qualified-name="DetallePublicacionView" id="part2-head"><text fill="#000000" font-family="sans-serif" font-size="14" font-style="italic" lengthAdjust="spacing" textLength="83.9863" x="231.0322" y="63.9951">&#171;boundary&#187;</text><text fill="#000000" font-family="sans-serif" font-size="14" lengthAdjust="spacing" textLength="162.668" x="191.6914" y="80.292">DetallePublicacionView</text><path d="M255.5254,23 L255.5254,47 M255.5254,35 L272.5254,35" fill="none" style="stroke:#181818;stroke-width:0.5;"/><ellipse cx="284.5254" cy="35" fill="#E2E2F0" rx="12" ry="12" style="stroke:#181818;stroke-width:0.5;"/></g><g class="participant participant-head" data-entity-uid="part3" data-qualified-name="PublicacionController" id="part3-head"><text fill="#000000" font-family="sans-serif" font-size="14" font-style="italic" lengthAdjust="spacing" textLength="66.1172" x="536.0254" y="63.9951">&#171;control&#187;</text><text fill="#000000" font-family="sans-serif" font-size="14" lengthAdjust="spacing" textLength="148.4561" x="494.856" y="80.292">PublicacionController</text><ellipse cx="572.084" cy="35" fill="#E2E2F0" rx="12" ry="12" style="stroke:#181818;stroke-width:0.5;"/><polygon fill="#181818" points="568.084,23,574.084,18,572.084,23,574.084,28,568.084,23" style="stroke:#181818;stroke-width:1;"/></g><g class="participant participant-head" data-entity-uid="part4" data-qualified-name="PublicacionRepository" id="part4-head"><text fill="#000000" font-family="sans-serif" font-size="14" font-style="italic" lengthAdjust="spacing" textLength="57.9209" x="749.4922" y="63.9951">&#171;entity&#187;</text><text fill="#000000" font-family="sans-serif" font-size="14" lengthAdjust="spacing" textLength="154.3555" x="701.2749" y="80.292">PublicacionRepository</text><ellipse cx="781.4526" cy="35" fill="#E2E2F0" rx="12" ry="12" style="stroke:#181818;stroke-width:0.5;"/><line style="stroke:#181818;stroke-width:0.5;" x1="769.4526" x2="793.4526" y1="49" y2="49"/></g><g class="participant participant-head" data-entity-uid="part5" data-qualified-name="Database" id="part5-head"><text fill="#000000" font-family="sans-serif" font-size="14" font-style="italic" lengthAdjust="spacing" textLength="82.1885" x="1108.8398" y="63.9951">&#171;database&#187;</text><text fill="#000000" font-family="sans-serif" font-size="14" lengthAdjust="spacing" textLength="66.8008" x="1116.5337" y="80.292">Database</text><path d="M1134.9341,15 C1134.9341,5 1152.9341,5 1152.9341,5 C1152.9341,5 1170.9341,5 1170.9341,15 L1170.9341,41 C1170.9341,51 1152.9341,51 1152.9341,51 C1152.9341,51 1134.9341,51 1134.9341,41 L1134.9341,15" fill="#E2E2F0" style="stroke:#181818;stroke-width:0.5;"/><path d="M1134.9341,15 C1134.9341,25 1152.9341,25 1152.9341,25 C1152.9341,25 1170.9341,25 1170.9341,15" fill="none" style="stroke:#181818;stroke-width:0.5;"/></g><g><title>..boundary..</title><rect fill="#FFFFFF" height="203.9297" style="stroke:#181818;stroke-width:1;" width="10" x="271.0254" y="114.7266"/></g><g><title>..control..</title><rect fill="#FFFFFF" height="145.6641" style="stroke:#181818;stroke-width:1;" width="10" x="567.084" y="143.8594"/></g><g><title>..entity..</title><rect fill="#FFFFFF" height="87.3984" style="stroke:#181818;stroke-width:1;" width="10" x="776.4526" y="172.9922"/></g><g><title>..database..</title><rect fill="#FFFFFF" height="29.1328" style="stroke:#181818;stroke-width:1;" width="10" x="1147.9341" y="202.125"/></g><g class="message" data-entity-1="part1" data-entity-2="part2" id="msg1"><polygon fill="#181818" points="259.0254,110.7266,269.0254,114.7266,259.0254,118.7266" style="stroke:#181818;stroke-width:1;"/><line style="stroke:#181818;stroke-width:1;" x1="51.6235" x2="265.0254" y1="114.7266" y2="114.7266"/><text fill="#000000" font-family="sans-serif" font-size="13" lengthAdjust="spacing" textLength="200.4019" x="58.6235" y="109.6606">abrirPublicacion(publicacionId)</text></g><g class="message" data-entity-1="part2" data-entity-2="part3" id="msg2"><polygon fill="#181818" points="555.084,139.8594,565.084,143.8594,555.084,147.8594" style="stroke:#181818;stroke-width:1;"/><line style="stroke:#181818;stroke-width:1;" x1="281.0254" x2="561.084" y1="143.8594" y2="143.8594"/><text fill="#000000" font-family="sans-serif" font-size="13" lengthAdjust="spacing" textLength="267.0586" x="288.0254" y="138.7935">obtenerDetallePublicacion(publicacionId)</text></g><g class="message" data-entity-1="part3" data-entity-2="part4" id="msg3"><polygon fill="#181818" points="764.4526,168.9922,774.4526,172.9922,764.4526,176.9922" style="stroke:#181818;stroke-width:1;"/><line style="stroke:#181818;stroke-width:1;" x1="577.084" x2="770.4526" y1="172.9922" y2="172.9922"/><text fill="#000000" font-family="sans-serif" font-size="13" lengthAdjust="spacing" textLength="180.3687" x="584.084" y="167.9263">obtenerPorId(publicacionId)</text></g><g class="message" data-entity-1="part4" data-entity-2="part5" id="msg4"><polygon fill="#181818" points="1135.9341,198.125,1145.9341,202.125,1135.9341,206.125" style="stroke:#181818;stroke-width:1;"/><line style="stroke:#181818;stroke-width:1;" x1="786.4526" x2="1141.9341" y1="202.125" y2="202.125"/><text fill="#000000" font-family="sans-serif" font-size="13" lengthAdjust="spacing" textLength="342.4814" x="793.4526" y="197.0591">select * from publicaciones where id = publicacionId</text></g><g class="message" data-entity-1="part5" data-entity-2="part4" id="msg5"><polygon fill="#181818" points="797.4526,227.2578,787.4526,231.2578,797.4526,235.2578" style="stroke:#181818;stroke-width:1;"/><line style="stroke:#181818;stroke-width:1;stroke-dasharray:2,2;" x1="791.4526" x2="1151.9341" y1="231.2578" y2="231.2578"/><text fill="#000000" font-family="sans-serif" font-size="13" lengthAdjust="spacing" textLength="109.6621" x="803.4526" y="226.1919">datosPublicacion</text></g><g class="message" data-entity-1="part4" data-entity-2="part3" id="msg6"><polygon fill="#181818" points="588.084,256.3906,578.084,260.3906,588.084,264.3906" style="stroke:#181818;stroke-width:1;"/><line style="stroke:#181818;stroke-width:1;stroke-dasharray:2,2;" x1="582.084" x2="780.4526" y1="260.3906" y2="260.3906"/><text fill="#000000" font-family="sans-serif" font-size="13" lengthAdjust="spacing" textLength="74.0327" x="594.084" y="255.3247">publicacion</text></g><g class="message" data-entity-1="part3" data-entity-2="part2" id="msg7"><polygon fill="#181818" points="292.0254,285.5234,282.0254,289.5234,292.0254,293.5234" style="stroke:#181818;stroke-width:1;"/><line style="stroke:#181818;stroke-width:1;stroke-dasharray:2,2;" x1="286.0254" x2="571.084" y1="289.5234" y2="289.5234"/><text fill="#000000" font-family="sans-serif" font-size="13" lengthAdjust="spacing" textLength="74.0327" x="298.0254" y="284.4575">publicacion</text></g><g class="message" data-entity-1="part2" data-entity-2="part1" id="msg8"><polygon fill="#181818" points="62.6235,314.6563,52.6235,318.6563,62.6235,322.6563" style="stroke:#181818;stroke-width:1;"/><line style="stroke:#181818;stroke-width:1;stroke-dasharray:2,2;" x1="56.6235" x2="275.0254" y1="318.6563" y2="318.6563"/><text fill="#000000" font-family="sans-serif" font-size="13" lengthAdjust="spacing" textLength="181.6128" x="68.6235" y="313.5903">mostrarDetalle(publicacion)</text></g><?plantuml-src ZPF1RiCW38RlF8MFwwI-G9JbibvwgtROtG5lGoCG6QTLtdvKRLgYadIN2E6VxuVVJlorlaV63gACZjANhPQXSmgr18QzFr8K-uqci6h3u0to23iIT8uEG-kiHcs3_xHqWhgU54sZTF32mK4cUhziEU8alTQJahnO6NFX1_KXskG_9k6bd7G61LkC1BjfKTVJNYgh_AwmRPPkMG6sR3dRVkdlwxtPd9zkZoYqG50Bu6HPVcm5eHNon8y75wsB95Ncpuspy6x6Xy1xyn-l-s5LHfvpdUAl898ZBV0ANnmwoFWKuVH3J60DlC7CE8lt2b8tudRbAQdL8MP5PUYHj73fbTRqPUBJJFByruRjEJ_hxz9a9OFPT5VGXVIhuZHHUMitis2Am3y0?></g></svg>
