<?plantuml 1.2026.2?><svg xmlns="http://www.w3.org/2000/svg" xmlns:xlink="http://www.w3.org/1999/xlink" contentStyleType="text/css" data-diagram-type="DESCRIPTION" height="408px" preserveAspectRatio="none" style="width:1815px;height:408px;background:#FFFFFF;" version="1.1" viewBox="0 0 1815 408" width="1815px" zoomAndPan="magnify"><defs/><g><!--cluster abrirPublicacion--><g class="cluster" data-qualified-name="abrirPublicacion" data-source-line="10" id="ent0004"><path d="M207.5,6 L329.4844,6 A3.75,3.75 0 0 1 331.9844,8.5 L338.9844,25.9688 L597.5,25.9688 A2.5,2.5 0 0 1 600,28.4688 L600,398.5 A2.5,2.5 0 0 1 597.5,401 L207.5,401 A2.5,2.5 0 0 1 205,398.5 L205,8.5 A2.5,2.5 0 0 1 207.5,6" fill="none" style="stroke:#000000;stroke-width:1.5;"/><line style="stroke:#000000;stroke-width:1.5;" x1="205" x2="338.9844" y1="25.9688" y2="25.9688"/><text fill="#000000" font-family="sans-serif" font-size="12" font-weight="bold" lengthAdjust="spacing" textLength="120.9844" x="209" y="19.1387">abrirPublicacion()</text></g><!--entity DetallePublicacionView--><g class="entity" data-qualified-name="abrirPublicacion.DetallePublicacionView" data-source-line="11" id="ent0005"><rect fill="#629EF9" height="33.9688" rx="2.5" ry="2.5" style="stroke:#181818;stroke-width:0.5;" width="159.4297" x="425.5" y="38"/><text fill="#000000" font-family="sans-serif" font-size="12" lengthAdjust="spacing" textLength="139.4297" x="435.5" y="59.1387">DetallePublicacionView</text></g><!--entity PublicacionController--><g class="entity" data-qualified-name="abrirPublicacion.PublicacionController" data-source-line="12" id="ent0006"><rect fill="#B5BD68" height="33.9688" rx="2.5" ry="2.5" style="stroke:#181818;stroke-width:0.5;" width="147.248" x="222.5" y="147"/><text fill="#000000" font-family="sans-serif" font-size="12" lengthAdjust="spacing" textLength="127.248" x="232.5" y="168.1387">PublicacionController</text></g><!--entity PublicacionRepository--><g class="entity" data-qualified-name="abrirPublicacion.PublicacionRepository" data-source-line="13" id="ent0007"><rect fill="#F2AC4E" height="33.9688" rx="2.5" ry="2.5" style="stroke:#181818;stroke-width:0.5;" width="152.3047" x="221" y="256"/><text fill="#000000" font-family="sans-serif" font-size="12" lengthAdjust="spacing" textLength="132.3047" x="231" y="277.1387">PublicacionRepository</text></g><!--entity Publicacion--><g class="entity" data-qualified-name="abrirPublicacion.Publicacion" data-source-line="14" id="ent0008"><rect fill="#F2AC4E" height="33.9688" rx="2.5" ry="2.5" style="stroke:#181818;stroke-width:0.5;" width="87.957" x="253" y="351"/><text fill="#000000" font-family="sans-serif" font-size="12" lengthAdjust="spacing" textLength="67.957" x="263" y="372.1387">Publicacion</text></g><!--entity PublicacionesAbiertas--><g class="entity" data-qualified-name="PublicacionesAbiertas" data-source-line="7" id="ent0002"><rect fill="#CDEBA5" height="33.9688" rx="2.5" ry="2.5" style="stroke:#181818;stroke-width:0.5;" width="181.6602" x="7" y="38"/><text fill="#000000" font-family="sans-serif" font-size="12" lengthAdjust="spacing" textLength="161.6602" x="17" y="59.1387">PUBLICACIONES_ABIERTAS</text></g><!--entity PublicacionAbierta--><g class="entity" data-qualified-name="PublicacionAbierta" data-source-line="8" id="ent0003"><rect fill="#CDEBA5" height="33.9688" rx="2.5" ry="2.5" style="stroke:#181818;stroke-width:0.5;" width="158.8438" x="615.5" y="147"/><text fill="#000000" font-family="sans-serif" font-size="12" lengthAdjust="spacing" textLength="138.8438" x="625.5" y="168.1387">PUBLICACION_ABIERTA</text></g><!--entity ResponderPublicacion--><g class="entity" data-qualified-name="ResponderPublicacion" data-source-line="17" id="ent0009"><rect fill="#CDEBA5" height="33.9688" rx="2.5" ry="2.5" style="stroke:#181818;stroke-width:0.5;" width="240.2598" x="809" y="147"/><text fill="#000000" font-family="sans-serif" font-size="12" lengthAdjust="spacing" textLength="220.2598" x="819" y="168.1387">:Collaboration ResponderPublicacion</text></g><!--entity EditarPublicacion--><g class="entity" data-qualified-name="EditarPublicacion" data-source-line="18" id="ent0010"><rect fill="#CDEBA5" height="33.9688" rx="2.5" ry="2.5" style="stroke:#181818;stroke-width:0.5;" width="211.3145" x="1084.5" y="147"/><text fill="#000000" font-family="sans-serif" font-size="12" lengthAdjust="spacing" textLength="191.3145" x="1094.5" y="168.1387">:Collaboration EditarPublicacion</text></g><!--entity EliminarPublicacion--><g class="entity" data-qualified-name="EliminarPublicacion" data-source-line="19" id="ent0011"><rect fill="#CDEBA5" height="33.9688" rx="2.5" ry="2.5" style="stroke:#181818;stroke-width:0.5;" width="224.9551" x="1330.5" y="147"/><text fill="#000000" font-family="sans-serif" font-size="12" lengthAdjust="spacing" textLength="204.9551" x="1340.5" y="168.1387">:Collaboration EliminarPublicacion</text></g><!--entity AbrirPublicaciones--><g class="entity" data-qualified-name="AbrirPublicaciones" data-source-line="20" id="ent0012"><rect fill="#CDEBA5" height="33.9688" rx="2.5" ry="2.5" style="stroke:#181818;stroke-width:0.5;" width="218.4512" x="1591" y="147"/><text fill="#000000" font-family="sans-serif" font-size="12" lengthAdjust="spacing" textLength="198.4512" x="1601" y="168.1387">:Collaboration AbrirPublicaciones</text></g><!--link PublicacionesAbiertas to DetallePublicacionView--><g class="link" data-entity-1="ent0002" data-entity-2="ent0005" data-link-type="dependency" data-source-line="22" id="lnk13"><path d="M189.09,55 C259.97,55 351.37,55 419.21,55" fill="none" id="PublicacionesAbiertas-to-DetallePublicacionView" style="stroke:#181818;stroke-width:1;"/><polygon fill="#181818" points="425.21,55,416.21,51,420.21,55,416.21,59,425.21,55" style="stroke:#181818;stroke-width:1;"/><text fill="#000000" font-family="sans-serif" font-size="12" lengthAdjust="spacing" textLength="184.9863" x="215.25" y="49.1387">abrirPublicacion(publicacionId)</text></g><!--link DetallePublicacionView to PublicacionController--><g class="link" data-entity-1="ent0005" data-entity-2="ent0006" data-link-type="dependency" data-source-line="24" id="lnk14"><path d="M425.19,70.74 C352.36,84.2 256,102 256,102 C256,102 256,117 256,117 C256,117 266.543,129.1223 278.073,142.3823" fill="none" id="DetallePublicacionView-to-PublicacionController" style="stroke:#181818;stroke-width:1;"/><polygon fill="#181818" points="282.01,146.91,279.123,137.4938,278.7292,143.1369,273.086,142.7431,282.01,146.91" style="stroke:#181818;stroke-width:1;"/><text fill="#000000" font-family="sans-serif" font-size="12" lengthAdjust="spacing" textLength="326.1445" x="257" y="114.1387">obtenerDetallePublicacion(publicacionId) : Publicacion</text></g><!--link PublicacionController to PublicacionRepository--><g class="link" data-entity-1="ent0006" data-entity-2="ent0007" data-link-type="dependency" data-source-line="25" id="lnk15"><path d="M296.15,181.25 C296.34,201.48 296.6034,229.8103 296.7934,249.9503" fill="none" id="PublicacionController-to-PublicacionRepository" style="stroke:#181818;stroke-width:1;"/><polygon fill="#181818" points="296.85,255.95,300.7649,246.9127,296.8028,250.9502,292.7653,246.9881,296.85,255.95" style="stroke:#181818;stroke-width:1;"/><text fill="#000000" font-family="sans-serif" font-size="12" lengthAdjust="spacing" textLength="246.123" x="297" y="223.1387">obtenerPorId(publicacionId) : Publicacion</text></g><!--link PublicacionRepository to Publicacion--><g class="link" data-entity-1="ent0007" data-entity-2="ent0008" data-link-type="association" data-source-line="26" id="lnk16"><path d="M297,290.2 C297,307.27 297,333.99 297,350.99" fill="none" id="PublicacionRepository-Publicacion" style="stroke:#181818;stroke-width:1;"/></g><!--link DetallePublicacionView to ResponderPublicacion--><g class="link" data-entity-1="ent0005" data-entity-2="ent0009" data-link-type="dependency" data-source-line="28" id="lnk17"><path d="M568.75,72.02 C621.56,85.3 688,102 688,102 C688,102 788.4634,127.4279 859.8634,145.4979" fill="none" id="DetallePublicacionView-to-ResponderPublicacion" style="stroke:#181818;stroke-width:1;stroke-dasharray:7,7;"/><polygon fill="#181818" points="865.68,146.97,857.9365,140.8841,860.8328,145.7433,855.9737,148.6396,865.68,146.97" style="stroke:#181818;stroke-width:1;"/><text fill="#000000" font-family="sans-serif" font-size="12" lengthAdjust="spacing" textLength="138.3867" x="747" y="114.1387">responderPublicacion()</text></g><!--link DetallePublicacionView to EditarPublicacion--><g class="link" data-entity-1="ent0005" data-entity-2="ent0010" data-link-type="dependency" data-source-line="29" id="lnk18"><path d="M584.66,65.42 C698.47,78.88 894,102 894,102 C894,102 1018.6534,127.6892 1106.3534,145.7592" fill="none" id="DetallePublicacionView-to-EditarPublicacion" style="stroke:#181818;stroke-width:1;stroke-dasharray:7,7;"/><polygon fill="#181818" points="1112.23,146.97,1104.2224,141.2361,1107.3329,145.961,1102.608,149.0715,1112.23,146.97" style="stroke:#181818;stroke-width:1;"/><text fill="#000000" font-family="sans-serif" font-size="12" lengthAdjust="spacing" textLength="112.6465" x="966" y="114.1387">editarPublicacion()</text></g><!--link DetallePublicacionView to EliminarPublicacion--><g class="link" data-entity-1="ent0005" data-entity-2="ent0011" data-link-type="dependency" data-source-line="30" id="lnk19"><path d="M584.7,62.3 C744.1,74.9 1087,102 1087,102 C1087,102 1238.0762,127.8869 1343.5562,145.9569" fill="none" id="DetallePublicacionView-to-EliminarPublicacion" style="stroke:#181818;stroke-width:1;stroke-dasharray:7,7;"/><polygon fill="#181818" points="1349.47,146.97,1341.2746,141.5078,1344.5418,146.1257,1339.9238,149.3929,1349.47,146.97" style="stroke:#181818;stroke-width:1;"/><text fill="#000000" font-family="sans-serif" font-size="12" lengthAdjust="spacing" textLength="126.2871" x="1174" y="114.1387">eliminarPublicacion()</text></g><!--link DetallePublicacionView to AbrirPublicaciones--><g class="link" data-entity-1="ent0005" data-entity-2="ent0012" data-link-type="dependency" data-source-line="31" id="lnk20"><path d="M584.66,60.56 C787.76,72.18 1309,102 1309,102 C1309,102 1475.4917,127.9753 1591.3417,146.0453" fill="none" id="DetallePublicacionView-to-AbrirPublicaciones" style="stroke:#181818;stroke-width:1;stroke-dasharray:7,7;"/><polygon fill="#181818" points="1597.27,146.97,1588.994,141.6308,1592.3297,146.1994,1587.7611,149.5352,1597.27,146.97" style="stroke:#181818;stroke-width:1;"/><text fill="#000000" font-family="sans-serif" font-size="12" lengthAdjust="spacing" textLength="119.127" x="1404" y="114.1387">abrirPublicaciones()</text></g><!--link DetallePublicacionView to PublicacionAbierta--><g class="link" data-entity-1="ent0005" data-entity-2="ent0003" data-link-type="dependency" data-source-line="33" id="lnk21"><path d="M535.43,72.09 C560.52,85.35 592,102 592,102 C592,102 632.2571,125.8432 662.7771,143.9132" fill="none" id="DetallePublicacionView-to-PublicacionAbierta" style="stroke:#181818;stroke-width:1;stroke-dasharray:7,7;"/><polygon fill="#181818" points="667.94,146.97,662.2335,138.9428,663.6376,144.4226,658.1577,145.8267,667.94,146.97" style="stroke:#181818;stroke-width:1;"/><text fill="#000000" font-family="sans-serif" font-size="12" lengthAdjust="spacing" textLength="62.4551" x="617" y="114.1387">&#171;finalizar&#187;</text></g><?plantuml-src ZPJ1Rk8m48RlVeeHNE2GIaNRgeqgf12256dL8jZjjRB9GAswTcGR8RhQTwzBTqbgcvISafdvFzl9fvWNBckgwIimkdhPQBMLLQw4qh1xvXQ9EVRDCwtKZiiDhAamxSuKrtGhx4n9-nbbmh7Y0ql-Xd0vQZK5bsZtDKAjnFxZWH2DAqlbHY3qysanoQwWD_yz-LdcMLu-t1VBfsnI5ejVsR87rC1yomHVqHLN4at6E6fBpJUC_mGVy2zEIErEG3S8FSeqrws9mV2GySlmXu2xcbLxKxHK26pDF7BS7SBn5lIlHxV5xDO7jSPozmQrSb7jRxpfG9zTiUhwfWEpm5ePRfNU-vYc0_tPACj_51qOFtoC_8r-mjJ98IXJcjgFuGMQMiaAjK-CDSxW5HMtD805rND8Whzo6M65zJDecMSAcWCiB1CIDHaIdOnFA9C67WxgvhwiXeISS2sf73JgJmgAMPIemwG7XxHD874R_OKQmuuBpPKkgxFPBKMJvClGgRDUN8oZKgNEwx0w67Pn0fzIGB_q3I6qo372OZSbr2Tq0SrWsFbImXzV2dTtQxSHmT-e7e_V0G00?></g></svg>