<?xml version="1.0" encoding="us-ascii" standalone="no"?><svg xmlns="http://www.w3.org/2000/svg" xmlns:xlink="http://www.w3.org/1999/xlink" contentStyleType="text/css" height="933px" preserveAspectRatio="none" style="width:969px;height:933px;background:#FFFFFF;" version="1.1" viewBox="0 0 969 933" width="969px" zoomAndPan="magnify"><defs/><g><g id="in1"><rect fill="#F1F1F1" height="50" rx="12.5" ry="12.5" style="stroke:#181818;stroke-width:0.5;" width="166" x="294.5" y="7"/><line style="stroke:#181818;stroke-width:0.5;" x1="294.5" x2="460.5" y1="34.6094" y2="34.6094"/><text fill="#000000" font-family="sans-serif" font-size="14" lengthAdjust="spacing" textLength="146" x="304.5" y="26.5332">PROYECTO_ABIERTO</text></g><path d="M19.5,118 L943.5,118 A12.5,12.5 0 0 1 956,130.5 L956,145.6094 L7,145.6094 L7,130.5 A12.5,12.5 0 0 1 19.5,118 " fill="#F1F1F1" style="stroke:#F1F1F1;stroke-width:1.0;"/><rect fill="none" height="662.6094" rx="12.5" ry="12.5" style="stroke:#181818;stroke-width:0.5;" width="949" x="7" y="118"/><line style="stroke:#181818;stroke-width:0.5;" x1="7" x2="956" y1="145.6094" y2="145.6094"/><text fill="#000000" font-family="sans-serif" font-size="14" lengthAdjust="spacing" textLength="115" x="424" y="137.5332">abrirEntregables()</text><g id="abrirEntregables.SolicitandoApertura"><rect fill="#F1F1F1" height="50" rx="12.5" ry="12.5" style="stroke:#181818;stroke-width:0.5;" width="50" x="288" y="248.6094"/><line style="stroke:#181818;stroke-width:0.5;" x1="288" x2="338" y1="276.2188" y2="276.2188"/><text fill="#000000" font-family="sans-serif" font-size="14" lengthAdjust="spacing" textLength="4" x="311" y="268.1426">&#160;</text></g><g id="abrirEntregables.MostrandoListado"><rect fill="#F1F1F1" height="50" rx="12.5" ry="12.5" style="stroke:#181818;stroke-width:0.5;" width="50" x="288" y="582.6094"/><line style="stroke:#181818;stroke-width:0.5;" x1="288" x2="338" y1="610.2188" y2="610.2188"/><text fill="#000000" font-family="sans-serif" font-size="14" lengthAdjust="spacing" textLength="4" x="311" y="602.1426">&#160;</text></g><g id="abrirEntregables.FiltrandoBuscando"><rect fill="#F1F1F1" height="50" rx="12.5" ry="12.5" style="stroke:#181818;stroke-width:0.5;" width="50" x="69" y="720.6094"/><line style="stroke:#181818;stroke-width:0.5;" x1="69" x2="119" y1="748.2188" y2="748.2188"/><text fill="#000000" font-family="sans-serif" font-size="14" lengthAdjust="spacing" textLength="4" x="92" y="740.1426">&#160;</text></g><ellipse cx="313" cy="166.6094" fill="#222222" rx="10" ry="10" style="stroke:#222222;stroke-width:1.0;"/><ellipse cx="629" cy="745.6094" fill="none" rx="11" ry="11" style="stroke:#222222;stroke-width:1.0;"/><ellipse cx="629" cy="745.6094" fill="#222222" rx="6" ry="6" style="stroke:#222222;stroke-width:1.0;"/><!--link *start*abrirEntregables to SolicitandoApertura--><g id="link_*start*abrirEntregables_SolicitandoApertura"><path d="M313,176.9294 C313,192.7894 313,219.5194 313,242.2494 " fill="none" id="*start*abrirEntregables-to-SolicitandoApertura" style="stroke:#008000;stroke-width:1.0;"/><polygon fill="#008000" points="313,248.2494,317,239.2494,313,243.2494,309,239.2494,313,248.2494" style="stroke:#008000;stroke-width:1.0;"/><path d="M318,199.6094 L318,225.6094 L563,225.6094 L563,209.6094 L553,199.6094 L318,199.6094 " fill="#FEFFDD" style="stroke:#181818;stroke-width:0.5;"/><path d="M553,199.6094 L553,209.6094 L563,209.6094 L553,199.6094 " fill="#FEFFDD" style="stroke:#181818;stroke-width:0.5;"/><text fill="#000000" font-family="sans-serif" font-size="13" font-weight="bold" lengthAdjust="spacing" textLength="79" x="324" y="218.1045">Coordinador</text><text fill="#000000" font-family="sans-serif" font-size="13" lengthAdjust="spacing" textLength="141" x="407" y="218.1045">solicita abrir entregables</text></g><!--link SolicitandoApertura to MostrandoListado--><g id="link_SolicitandoApertura_MostrandoListado"><path d="M313,298.7494 C313,360.0794 313,515.3294 313,576.5594 " fill="none" id="SolicitandoApertura-to-MostrandoListado" style="stroke:#008000;stroke-width:1.0;"/><polygon fill="#008000" points="313,582.5594,317,573.5594,313,577.5594,309,573.5594,313,582.5594" style="stroke:#008000;stroke-width:1.0;"/><path d="M318,321.6094 L318,559.6094 L653,559.6094 L653,331.6094 L643,321.6094 L318,321.6094 " fill="#FEFFDD" style="stroke:#181818;stroke-width:0.5;"/><path d="M643,321.6094 L643,331.6094 L653,331.6094 L643,321.6094 " fill="#FEFFDD" style="stroke:#181818;stroke-width:0.5;"/><text fill="#000000" font-family="sans-serif" font-size="13" font-weight="bold" lengthAdjust="spacing" textLength="51" x="324" y="340.1045">Sistema</text><text fill="#000000" font-family="sans-serif" font-size="13" lengthAdjust="spacing" textLength="259" x="379" y="340.1045">presenta y visualiza el listado de entregables</text><text fill="#000000" font-family="sans-serif" font-size="13" font-weight="bold" lengthAdjust="spacing" textLength="51" x="324" y="356.4561">Sistema</text><text fill="#000000" font-family="sans-serif" font-size="13" lengthAdjust="spacing" textLength="121" x="379" y="356.4561">muestra informaci&#243;n:</text><text fill="#000000" font-family="sans-serif" font-size="13" lengthAdjust="spacing" textLength="21" x="324" y="372.8076">&#8226; ID</text><text fill="#000000" font-family="sans-serif" font-size="13" lengthAdjust="spacing" textLength="40" x="324" y="389.1592">&#8226; T&#237;tulo</text><text fill="#000000" font-family="sans-serif" font-size="13" lengthAdjust="spacing" textLength="33" x="324" y="405.5107">&#8226; Tipo</text><text fill="#000000" font-family="sans-serif" font-size="13" lengthAdjust="spacing" textLength="80" x="324" y="421.8623">&#8226; Fecha l&#237;mite</text><text fill="#000000" font-family="sans-serif" font-size="13" lengthAdjust="spacing" textLength="50" x="324" y="438.2139">&#8226; Estado</text><text fill="#000000" font-family="sans-serif" font-size="13" lengthAdjust="spacing" textLength="190" x="324" y="454.5654">&#8226; Informaci&#243;n adicional (si aplica)</text><text fill="#000000" font-family="sans-serif" font-size="13" lengthAdjust="spacing" textLength="4" x="324" y="470.917">&#160;</text><text fill="#000000" font-family="sans-serif" font-size="13" font-weight="bold" lengthAdjust="spacing" textLength="51" x="324" y="487.2686">Sistema</text><text fill="#000000" font-family="sans-serif" font-size="13" lengthAdjust="spacing" textLength="206" x="379" y="487.2686">permite introducir filtros y b&#250;squeda</text><text fill="#000000" font-family="sans-serif" font-size="13" font-weight="bold" lengthAdjust="spacing" textLength="51" x="324" y="503.6201">Sistema</text><text fill="#000000" font-family="sans-serif" font-size="13" lengthAdjust="spacing" textLength="96" x="379" y="503.6201">permite solicitar:</text><text fill="#000000" font-family="sans-serif" font-size="13" lengthAdjust="spacing" textLength="100" x="324" y="519.9717">&#8226; Abrir entregable</text><text fill="#000000" font-family="sans-serif" font-size="13" lengthAdjust="spacing" textLength="104" x="324" y="536.3232">&#8226; Crear entregable</text><text fill="#000000" font-family="sans-serif" font-size="13" lengthAdjust="spacing" textLength="112" x="324" y="552.6748">&#8226; Volver al proyecto</text></g><!--link MostrandoListado to FiltrandoBuscando--><g id="link_MostrandoListado_FiltrandoBuscando"><path d="M287.85,612.1894 C216.51,622.3494 18,650.6094 18,650.6094 C18,650.6094 18,702.6094 18,702.6094 C18,702.6094 41.3277,715.5088 63.4377,727.7188 " fill="none" id="MostrandoListado-to-FiltrandoBuscando" style="stroke:#008000;stroke-width:1.0;"/><polygon fill="#008000" points="68.69,730.6194,62.7452,722.767,64.3131,728.2023,58.8778,729.7701,68.69,730.6194" style="stroke:#008000;stroke-width:1.0;"/><path d="M23,663.6094 L23,689.6094 L286,689.6094 L286,673.6094 L276,663.6094 L23,663.6094 " fill="#FEFFDD" style="stroke:#181818;stroke-width:0.5;"/><path d="M276,663.6094 L276,673.6094 L286,673.6094 L276,663.6094 " fill="#FEFFDD" style="stroke:#181818;stroke-width:0.5;"/><text fill="#000000" font-family="sans-serif" font-size="13" font-weight="bold" lengthAdjust="spacing" textLength="79" x="29" y="682.1045">Coordinador</text><text fill="#000000" font-family="sans-serif" font-size="13" lengthAdjust="spacing" textLength="159" x="112" y="682.1045">introduce filtros o b&#250;squeda</text></g><!--link FiltrandoBuscando to FiltrandoBuscando--><g id="link_FiltrandoBuscando_FiltrandoBuscando"><path d="M119.18,732.9094 C128.91,732.3494 137,736.5794 137,745.6094 C137,754.6394 134.9001,759.2141 125.1701,758.6541 " fill="none" id="FiltrandoBuscando-to-FiltrandoBuscando" style="stroke:#008000;stroke-width:1.0;"/><polygon fill="#008000" points="119.18,758.3094,127.9353,762.8199,124.1717,758.5967,128.395,754.8331,119.18,758.3094" style="stroke:#008000;stroke-width:1.0;"/><path d="M142,732.6094 L142,758.6094 L519,758.6094 L519,742.6094 L509,732.6094 L142,732.6094 " fill="#FEFFDD" style="stroke:#181818;stroke-width:0.5;"/><path d="M509,732.6094 L509,742.6094 L519,742.6094 L509,732.6094 " fill="#FEFFDD" style="stroke:#181818;stroke-width:0.5;"/><text fill="#000000" font-family="sans-serif" font-size="13" font-weight="bold" lengthAdjust="spacing" textLength="51" x="148" y="751.1045">Sistema</text><text fill="#000000" font-family="sans-serif" font-size="13" lengthAdjust="spacing" textLength="301" x="203" y="751.1045">muestra y visualiza el listado seg&#250;n filtros/b&#250;squeda</text></g><!--link FiltrandoBuscando to MostrandoListado--><g id="link_FiltrandoBuscando_MostrandoListado"><path d="M119.35,739.2094 C172.56,727.8594 291,702.6094 291,702.6094 C291,702.6094 299.4543,666.5119 305.9643,638.6619 " fill="none" id="FiltrandoBuscando-to-MostrandoListado" style="stroke:#008000;stroke-width:1.0;"/><polygon fill="#008000" points="307.33,632.8194,301.3864,640.6727,306.1919,637.6881,309.1765,642.4936,307.33,632.8194" style="stroke:#008000;stroke-width:1.0;"/><path d="M308,663.6094 L308,689.6094 L591,689.6094 L591,673.6094 L581,663.6094 L308,663.6094 " fill="#FEFFDD" style="stroke:#181818;stroke-width:0.5;"/><path d="M581,663.6094 L581,673.6094 L591,673.6094 L581,663.6094 " fill="#FEFFDD" style="stroke:#181818;stroke-width:0.5;"/><text fill="#000000" font-family="sans-serif" font-size="13" font-weight="bold" lengthAdjust="spacing" textLength="79" x="314" y="682.1045">Coordinador</text><text fill="#000000" font-family="sans-serif" font-size="13" lengthAdjust="spacing" textLength="179" x="397" y="682.1045">solicita continuar con el listado</text></g><!--link MostrandoListado to *end*abrirEntregables--><g id="link_MostrandoListado_*end*abrirEntregables"><path d="M338.22,612.2994 C408.25,622.5494 600,650.6094 600,650.6094 C600,650.6094 616.8306,705.1562 624.2406,729.1662 " fill="none" id="MostrandoListado-to-*end*abrirEntregables" style="stroke:#008000;stroke-width:1.0;"/><polygon fill="#008000" points="626.01,734.8994,627.178,725.12,624.5355,730.1217,619.5338,727.4792,626.01,734.8994" style="stroke:#008000;stroke-width:1.0;"/><path d="M620,655.6094 L620,697.6094 L947,697.6094 L947,665.6094 L937,655.6094 L620,655.6094 " fill="#FEFFDD" style="stroke:#181818;stroke-width:0.5;"/><path d="M937,655.6094 L937,665.6094 L947,665.6094 L937,655.6094 " fill="#FEFFDD" style="stroke:#181818;stroke-width:0.5;"/><text fill="#000000" font-family="sans-serif" font-size="13" font-weight="bold" lengthAdjust="spacing" textLength="79" x="626" y="674.1045">Coordinador</text><text fill="#000000" font-family="sans-serif" font-size="13" lengthAdjust="spacing" textLength="215" x="709" y="674.1045">solicita abrir un entregable del listado</text><text fill="#000000" font-family="sans-serif" font-size="13" font-weight="bold" lengthAdjust="spacing" textLength="51" x="626" y="690.4561">Sistema</text><text fill="#000000" font-family="sans-serif" font-size="13" lengthAdjust="spacing" textLength="251" x="681" y="690.4561">presenta y visualiza el entregable solicitado</text></g><g id="in2"><rect fill="#F1F1F1" height="50" rx="12.5" ry="12.5" style="stroke:#181818;stroke-width:0.5;" width="180" x="495.5" y="7"/><line style="stroke:#181818;stroke-width:0.5;" x1="495.5" x2="675.5" y1="34.6094" y2="34.6094"/><text fill="#000000" font-family="sans-serif" font-size="14" lengthAdjust="spacing" textLength="160" x="505.5" y="26.5332">ENTREGABLE_ABIERTO</text></g><g id="ENTREGABLES_ABIERTOS"><rect fill="#F1F1F1" height="50" rx="12.5" ry="12.5" style="stroke:#181818;stroke-width:0.5;" width="198" x="39.5" y="877"/><line style="stroke:#181818;stroke-width:0.5;" x1="39.5" x2="237.5" y1="904.6094" y2="904.6094"/><text fill="#000000" font-family="sans-serif" font-size="14" lengthAdjust="spacing" textLength="178" x="49.5" y="896.5332">ENTREGABLES_ABIERTOS</text></g><g id="ENTREGABLE_ABIERTO"><rect fill="#F1F1F1" height="50" rx="12.5" ry="12.5" style="stroke:#181818;stroke-width:0.5;" width="180" x="372.5" y="877"/><line style="stroke:#181818;stroke-width:0.5;" x1="372.5" x2="552.5" y1="904.6094" y2="904.6094"/><text fill="#000000" font-family="sans-serif" font-size="14" lengthAdjust="spacing" textLength="160" x="382.5" y="896.5332">ENTREGABLE_ABIERTO</text></g><g id="PROYECTO_ABIERTO"><rect fill="#F1F1F1" height="50" rx="12.5" ry="12.5" style="stroke:#181818;stroke-width:0.5;" width="166" x="651.5" y="877"/><line style="stroke:#181818;stroke-width:0.5;" x1="651.5" x2="817.5" y1="904.6094" y2="904.6094"/><text fill="#000000" font-family="sans-serif" font-size="14" lengthAdjust="spacing" textLength="146" x="661.5" y="896.5332">PROYECTO_ABIERTO</text></g><!--link in1 to abrirEntregables--><g id="link_in1_abrirEntregables"><path d="M383.54,57.13 C387.29,72.12 391.1137,87.3894 397.2937,112.0894 " fill="none" id="in1-to-abrirEntregables" style="stroke:#008000;stroke-width:1.0;"/><polygon fill="#008000" points="398.75,117.91,400.4459,108.2083,397.5364,113.0595,392.6851,110.15,398.75,117.91" style="stroke:#008000;stroke-width:1.0;"/></g><!--link in2 to abrirEntregables--><g id="link_in2_abrirEntregables"><path d="M579.46,57.13 C575.71,72.12 571.8863,87.3894 565.7063,112.0894 " fill="none" id="in2-to-abrirEntregables" style="stroke:#008000;stroke-width:1.0;"/><polygon fill="#008000" points="564.25,117.91,570.3149,110.15,565.4636,113.0595,562.5541,108.2083,564.25,117.91" style="stroke:#008000;stroke-width:1.0;"/></g><!--link abrirEntregables to ENTREGABLES_ABIERTOS--><g id="link_abrirEntregables_ENTREGABLES_ABIERTOS"><path d="M193.46,781.19 C177.31,799.74 167.5,811 167.5,811 C167.5,811 156.7001,844.5091 148.1101,871.1691 " fill="none" id="abrirEntregables-to-ENTREGABLES_ABIERTOS" style="stroke:#008000;stroke-width:1.0;"/><polygon fill="#008000" points="146.27,876.88,152.8374,869.5404,147.8034,872.1209,145.2229,867.087,146.27,876.88" style="stroke:#008000;stroke-width:1.0;"/><path d="M172.5,816 L172.5,842 L382.5,842 L382.5,826 L372.5,816 L172.5,816 " fill="#FEFFDD" style="stroke:#181818;stroke-width:0.5;"/><path d="M372.5,816 L372.5,826 L382.5,826 L372.5,816 " fill="#FEFFDD" style="stroke:#181818;stroke-width:0.5;"/><text fill="#000000" font-family="sans-serif" font-size="13" lengthAdjust="spacing" textLength="189" x="178.5" y="834.4951">Listado de entregables mostrado</text></g><!--link abrirEntregables to ENTREGABLE_ABIERTO--><g id="link_abrirEntregables_ENTREGABLE_ABIERTO"><path d="M402.61,781.19 C398.19,799.74 395.5,811 395.5,811 C395.5,811 395.5,847 395.5,847 C395.5,847 410.0173,858.7062 427.8573,873.0762 " fill="none" id="abrirEntregables-to-ENTREGABLE_ABIERTO" style="stroke:#008000;stroke-width:1.0;"/><polygon fill="#008000" points="432.53,876.84,428.0302,868.0792,428.6361,873.7035,423.0118,874.3094,432.53,876.84" style="stroke:#008000;stroke-width:1.0;"/><path d="M400.5,816 L400.5,842 L516.5,842 L516.5,826 L506.5,816 L400.5,816 " fill="#FEFFDD" style="stroke:#181818;stroke-width:0.5;"/><path d="M506.5,816 L506.5,826 L516.5,826 L506.5,816 " fill="#FEFFDD" style="stroke:#181818;stroke-width:0.5;"/><text fill="#000000" font-family="sans-serif" font-size="13" lengthAdjust="spacing" textLength="95" x="406.5" y="834.4951">abrirEntregable()</text></g><!--link abrirEntregables to ENTREGABLE_ABIERTO--><g id="link_abrirEntregables_ENTREGABLE_ABIERTO"><path d="M521.86,781.19 C524.13,799.74 525.5,811 525.5,811 C525.5,811 525.5,847 525.5,847 C525.5,847 512.0173,858.5673 495.2373,872.9373 " fill="none" id="abrirEntregables-to-ENTREGABLE_ABIERTO-1" style="stroke:#008000;stroke-width:1.0;"/><polygon fill="#008000" points="490.68,876.84,500.1177,874.0241,494.4777,873.5877,494.9141,867.9477,490.68,876.84" style="stroke:#008000;stroke-width:1.0;"/><path d="M530.5,816 L530.5,842 L650.5,842 L650.5,826 L640.5,816 L530.5,816 " fill="#FEFFDD" style="stroke:#181818;stroke-width:0.5;"/><path d="M640.5,816 L640.5,826 L650.5,826 L640.5,816 " fill="#FEFFDD" style="stroke:#181818;stroke-width:0.5;"/><text fill="#000000" font-family="sans-serif" font-size="13" lengthAdjust="spacing" textLength="99" x="536.5" y="834.4951">crearEntregable()</text></g><!--link abrirEntregables to PROYECTO_ABIERTO--><g id="link_abrirEntregables_PROYECTO_ABIERTO"><path d="M667.2,781.16 C689.66,821.16 705.9622,850.1884 718.0522,871.7184 " fill="none" id="abrirEntregables-to-PROYECTO_ABIERTO" style="stroke:#008000;stroke-width:1.0;"/><polygon fill="#008000" points="720.99,876.95,720.0711,867.1441,718.5419,872.5903,713.0956,871.0611,720.99,876.95" style="stroke:#008000;stroke-width:1.0;"/><path d="M707.5,816 L707.5,842 L813.5,842 L813.5,826 L803.5,816 L707.5,816 " fill="#FEFFDD" style="stroke:#181818;stroke-width:0.5;"/><path d="M803.5,816 L803.5,826 L813.5,826 L803.5,816 " fill="#FEFFDD" style="stroke:#181818;stroke-width:0.5;"/><text fill="#000000" font-family="sans-serif" font-size="13" lengthAdjust="spacing" textLength="85" x="713.5" y="834.4951">abrirProyecto()</text></g><!--SRC=[hLNDQjj04BxhAGRdOXT2Q8ub66nNAG6t3hOfb13AMfguIrQxwkugu9P2dwNtd7hBLM_I9-ci55c_3ggfVR2qE_lzpEoCpJsNCTCi0i4bsbsC42knSo-UPoop25o-1cPWSBrSVF9dwyNdoVJANwuN0y_jdDwSR3MYl3qT0zjehdrfDMxPHg0f4Sup1F_3Ukc_cqpdVXNZl1T6Spq3R2uEHmFuxdb0d_pKWBuKk5A21zmo6Qf9ZDecchM3tYjZjGkPSreFLJlYaeiyOfgOmFtcL3UlRciM3h59HL1AkapVPmiNc_5CAHroINJwucmp1lDyDlSBM4c4Eu4op61ouWwYcf1EHrqgLhIF4SiKn1eDqJBOmGCt2HFy6mCK59zXG8WjLGs4A477IsM_KpfY0Kz_opTPu9-Vl-3gxVvndJxQHAZodSVbooK6NnY8z37YvBTOzKiZ6LY50bX8sL2I2HWQ3YocvB2Hr-aHjKCbXLQhC0aeqtUkjigGwqtwPBuc6BANJXPrqgMnIQDY-usPHjQvyL691zH0WcEjTXXOrL7aPX5h5MxVoBuNhR2EU-UguRmkeyLqf8wkYtBWfXdSfa-oq7TslBhUVN2m6mCbBPS9bP6UAXh_jLuqAeuT1OciN27gmhg6darSGIZWcoP-U5vhrbOjb4DyLKpnbLVpC- -S511bYI6wCbyzYGgUEatZy73qlu03rw_703V_8JlqNZytUXNqBm00]--></g></svg>