<svg xmlns="http://www.w3.org/2000/svg" xmlns:xlink="http://www.w3.org/1999/xlink" contentStyleType="text/css" data-diagram-type="SALT" height="258px" preserveAspectRatio="none" style="width:631px;height:258px;background:#FFFFFF;" version="1.1" viewBox="0 0 631 258" width="631px" zoomAndPan="magnify"><defs/><g><line style="stroke:#AAAAAA;stroke-width:1;" x1="6" x2="624" y1="8.5" y2="8.5"/><line style="stroke:#AAAAAA;stroke-width:1;" x1="6" x2="624" y1="10.5" y2="10.5"/><text fill="#000000" font-family="sans-serif" font-size="12" font-weight="bold" lengthAdjust="spacing" textLength="231.5391" x="6" y="25.1387">GIPF - LISTADO DE RECOMPENSAS</text><line style="stroke:#AAAAAA;stroke-width:1;" x1="6" x2="624" y1="32.4688" y2="32.4688"/><line style="stroke:#AAAAAA;stroke-width:1;" x1="6" x2="624" y1="34.4688" y2="34.4688"/><text fill="#000000" font-family="sans-serif" font-size="12" font-weight="bold" lengthAdjust="spacing" textLength="193.9863" x="7" y="50.1074">Filtrar / buscar recompensas</text><text fill="#000000" font-family="sans-serif" font-size="12" font-weight="bold" lengthAdjust="spacing" textLength="33.9316" x="9" y="68.0762">Tipo:</text><rect fill="#EEEEEE" height="17.9688" rx="5" ry="5" style="stroke:#000000;stroke-width:2.5;" width="244" x="47.4316" y="59.4375"/><text fill="#000000" font-family="sans-serif" font-size="12" lengthAdjust="spacing" textLength="3.8145" x="167.5244" y="72.5762">&#160;</text><text fill="#000000" font-family="sans-serif" font-size="12" font-weight="bold" lengthAdjust="spacing" textLength="65.373" x="9" y="95.0449">Cantidad:</text><rect fill="#EEEEEE" height="17.9688" rx="5" ry="5" style="stroke:#000000;stroke-width:2.5;" width="212" x="78.873" y="86.4063"/><text fill="#000000" font-family="sans-serif" font-size="12" lengthAdjust="spacing" textLength="3.8145" x="182.9658" y="99.5449">&#160;</text><line style="stroke:#AAAAAA;stroke-width:1.5;" x1="7" x2="623" y1="114.375" y2="114.375"/><text fill="#000000" font-family="sans-serif" font-size="12" font-weight="bold" lengthAdjust="spacing" textLength="164.2266" x="7" y="130.0137">Listado de recompensas</text><line style="stroke:#AAAAAA;stroke-width:1;" x1="7" x2="623" y1="138.3438" y2="138.3438"/><text fill="#000000" font-family="sans-serif" font-size="12" font-weight="bold" lengthAdjust="spacing" textLength="29.1328" x="9" y="155.9824">Tipo</text><text fill="#000000" font-family="sans-serif" font-size="12" font-weight="bold" lengthAdjust="spacing" textLength="60.5742" x="40.1328" y="155.9824">Cantidad</text><text fill="#000000" font-family="sans-serif" font-size="12" lengthAdjust="spacing" textLength="135.9258" x="12" y="173.9512">Bono de productividad</text><line style="stroke:#000000;stroke-width:1;" x1="10" x2="181" y1="176.7813" y2="176.7813"/><line style="stroke:#000000;stroke-width:1;" x1="10" x2="10" y1="173.7813" y2="175.7813"/><line style="stroke:#000000;stroke-width:1;" x1="181" x2="181" y1="173.7813" y2="175.7813"/><text fill="#000000" font-family="sans-serif" font-size="12" lengthAdjust="spacing" textLength="34.3535" x="188" y="173.9512">500 &#8364;</text><line style="stroke:#000000;stroke-width:1;" x1="186" x2="229" y1="176.7813" y2="176.7813"/><line style="stroke:#000000;stroke-width:1;" x1="186" x2="186" y1="173.7813" y2="175.7813"/><line style="stroke:#000000;stroke-width:1;" x1="229" x2="229" y1="173.7813" y2="175.7813"/><text fill="#000000" font-family="sans-serif" font-size="12" lengthAdjust="spacing" textLength="136.623" x="12" y="193.9199">Premio a la innovaci&#243;n</text><line style="stroke:#000000;stroke-width:1;" x1="10" x2="189" y1="196.75" y2="196.75"/><line style="stroke:#000000;stroke-width:1;" x1="10" x2="10" y1="193.75" y2="195.75"/><line style="stroke:#000000;stroke-width:1;" x1="189" x2="189" y1="193.75" y2="195.75"/><text fill="#000000" font-family="sans-serif" font-size="12" lengthAdjust="spacing" textLength="41.9883" x="196" y="193.9199">1000 &#8364;</text><line style="stroke:#000000;stroke-width:1;" x1="194" x2="245" y1="196.75" y2="196.75"/><line style="stroke:#000000;stroke-width:1;" x1="194" x2="194" y1="193.75" y2="195.75"/><line style="stroke:#000000;stroke-width:1;" x1="245" x2="245" y1="193.75" y2="195.75"/><text fill="#000000" font-family="sans-serif" font-size="12" lengthAdjust="spacing" textLength="149.666" x="12" y="213.8887">Reconocimiento especial</text><line style="stroke:#000000;stroke-width:1;" x1="10" x2="197" y1="216.7188" y2="216.7188"/><line style="stroke:#000000;stroke-width:1;" x1="10" x2="10" y1="213.7188" y2="215.7188"/><line style="stroke:#000000;stroke-width:1;" x1="197" x2="197" y1="213.7188" y2="215.7188"/><text fill="#000000" font-family="sans-serif" font-size="12" lengthAdjust="spacing" textLength="38.5547" x="204" y="213.8887">Trofeo</text><line style="stroke:#000000;stroke-width:1;" x1="202" x2="253" y1="216.7188" y2="216.7188"/><line style="stroke:#000000;stroke-width:1;" x1="202" x2="202" y1="213.7188" y2="215.7188"/><line style="stroke:#000000;stroke-width:1;" x1="253" x2="253" y1="213.7188" y2="215.7188"/><line style="stroke:#AAAAAA;stroke-width:1.5;" x1="7" x2="623" y1="226.2188" y2="226.2188"/><rect fill="#EEEEEE" height="17.9688" rx="5" ry="5" style="stroke:#000000;stroke-width:2.5;" width="132" x="10.5" y="234.2188"/><text fill="#000000" font-family="sans-serif" font-size="12" lengthAdjust="spacing" textLength="106.998" x="23.001" y="247.3574">Abrir recompensa</text><rect fill="#EEEEEE" height="17.9688" rx="5" ry="5" style="stroke:#000000;stroke-width:2.5;" width="132" x="149.5" y="234.2188"/><text fill="#000000" font-family="sans-serif" font-size="12" lengthAdjust="spacing" textLength="110.9531" x="160.0234" y="247.3574">Crear recompensa</text><rect fill="#EEEEEE" height="17.9688" rx="5" ry="5" style="stroke:#000000;stroke-width:2.5;" width="124" x="288.5" y="234.2188"/><text fill="#000000" font-family="sans-serif" font-size="12" lengthAdjust="spacing" textLength="79.3184" x="310.8408" y="247.3574">Aplicar filtros</text><rect fill="#EEEEEE" height="17.9688" rx="5" ry="5" style="stroke:#000000;stroke-width:2.5;" width="124" x="419.5" y="234.2188"/><text fill="#000000" font-family="sans-serif" font-size="12" lengthAdjust="spacing" textLength="82.8867" x="440.0566" y="247.3574">Limpiar filtros</text><rect fill="#EEEEEE" height="17.9688" rx="5" ry="5" style="stroke:#000000;stroke-width:2.5;" width="68" x="550.5" y="234.2188"/><text fill="#000000" font-family="sans-serif" font-size="12" lengthAdjust="spacing" textLength="52.9395" x="558.0303" y="247.3574">Cancelar</text><!--SRC=[ZPFDJjj0483l-nGZd-1WS52fgeWYGk8WKeTO-U62EApjIJIgFMkjrq4LX4EVfxS-Gj-aJz9Taq8IHEcSnhFppR_FAYErgMHkG2QQz1XJLPJ8bQpyEz8urx90SI_0ocShZNAId5vSndtm8RgSJ3kz4VH268VTqJ0EhoQToSbXShfDF0LOittAZPOQ3Y6fgzGg-YNfCxfDDLyMdLAfsiu77k06_YctgrTqLxAXJ6R_4M63NebdzV5HR3OIaPrUfY33Drlm_NUwQKhPbWVOgDMzxtJYdIjkafPQPNLgQEaSlJNh7GS1_Fx-mzkbOeq5AP2GIo1cjPGf_Vh9tXfh1MzmxYHOfLGGib60LOafoTnxmgPQpL5vxuxh_gRZxcjZKBTk0rsDyfMnK-RaxcBk3aLLZIsYegGTcvrHYhdKwsMjn4gS8MVkceM8Spl1sJ229UgA54Fhu2WuEZvejH8qiXNipVWhgpi6bvfo14C5xekzYpY2IjKwHSZiVZKbjR7ulXZ8fOHnpSwl3IDRxg3tvQy1GbwILbpO6Od1zV35uUC7_vmCJ53RGk1wA7eubxNztq9ELKQyQCDislS_YKZoefOB6njPT9MDgx_PjyaV]--></g></svg>