<?xml version="1.0" encoding="us-ascii" standalone="no"?><svg xmlns="http://www.w3.org/2000/svg" xmlns:xlink="http://www.w3.org/1999/xlink" contentStyleType="text/css" height="1109px" preserveAspectRatio="none" style="width:859px;height:1109px;background:#FFFFFF;" version="1.1" viewBox="0 0 859 1109" width="859px" zoomAndPan="magnify"><defs/><g><g id="in1"><rect fill="#F1F1F1" height="50" rx="12.5" ry="12.5" style="stroke:#181818;stroke-width:0.5;" width="197" x="328" y="7"/><line style="stroke:#181818;stroke-width:0.5;" x1="328" x2="525" y1="34.6094" y2="34.6094"/><text fill="#000000" font-family="sans-serif" font-size="14" lengthAdjust="spacing" textLength="177" x="338" y="26.5332">CONVOCATORIA_ABIERTA</text></g><path d="M19.5,118 L833.5,118 A12.5,12.5 0 0 1 846,130.5 L846,145.6094 L7,145.6094 L7,130.5 A12.5,12.5 0 0 1 19.5,118 " fill="#F1F1F1" style="stroke:#F1F1F1;stroke-width:1.0;"/><rect fill="none" height="838.6094" rx="12.5" ry="12.5" style="stroke:#181818;stroke-width:0.5;" width="839" x="7" y="118"/><line style="stroke:#181818;stroke-width:0.5;" x1="7" x2="846" y1="145.6094" y2="145.6094"/><text fill="#000000" font-family="sans-serif" font-size="14" lengthAdjust="spacing" textLength="146" x="353.5" y="137.5332">importarConvocatoria()</text><g id="importarConvocatoria.SolicitandoImportacion"><rect fill="#F1F1F1" height="50" rx="12.5" ry="12.5" style="stroke:#181818;stroke-width:0.5;" width="50" x="233" y="248.6094"/><line style="stroke:#181818;stroke-width:0.5;" x1="233" x2="283" y1="276.2188" y2="276.2188"/><text fill="#000000" font-family="sans-serif" font-size="14" lengthAdjust="spacing" textLength="4" x="256" y="268.1426">&#160;</text></g><g id="importarConvocatoria.IntroduciendoFuente"><rect fill="#F1F1F1" height="50" rx="12.5" ry="12.5" style="stroke:#181818;stroke-width:0.5;" width="50" x="233" y="664.6094"/><line style="stroke:#181818;stroke-width:0.5;" x1="233" x2="283" y1="692.2188" y2="692.2188"/><text fill="#000000" font-family="sans-serif" font-size="14" lengthAdjust="spacing" textLength="4" x="256" y="684.1426">&#160;</text></g><g id="importarConvocatoria.ConfirmandoImportacion"><rect fill="#F1F1F1" height="50" rx="12.5" ry="12.5" style="stroke:#181818;stroke-width:0.5;" width="50" x="233" y="786.6094"/><line style="stroke:#181818;stroke-width:0.5;" x1="233" x2="283" y1="814.2188" y2="814.2188"/><text fill="#000000" font-family="sans-serif" font-size="14" lengthAdjust="spacing" textLength="4" x="256" y="806.1426">&#160;</text></g><ellipse cx="258" cy="166.6094" fill="#222222" rx="10" ry="10" style="stroke:#222222;stroke-width:1.0;"/><ellipse cx="258" cy="935.6094" fill="none" rx="11" ry="11" style="stroke:#222222;stroke-width:1.0;"/><ellipse cx="258" cy="935.6094" fill="#222222" rx="6" ry="6" style="stroke:#222222;stroke-width:1.0;"/><!--link *start*importarConvocatoria to SolicitandoImportacion--><g id="link_*start*importarConvocatoria_SolicitandoImportacion"><path d="M258,176.9294 C258,192.7894 258,219.5194 258,242.2494 " fill="none" id="*start*importarConvocatoria-to-SolicitandoImportacion" style="stroke:#008000;stroke-width:1.0;"/><polygon fill="#008000" points="258,248.2494,262,239.2494,258,243.2494,254,239.2494,258,248.2494" style="stroke:#008000;stroke-width:1.0;"/><path d="M263,199.6094 L263,225.6094 L549,225.6094 L549,209.6094 L539,199.6094 L263,199.6094 " fill="#FEFFDD" style="stroke:#181818;stroke-width:0.5;"/><path d="M539,199.6094 L539,209.6094 L549,209.6094 L539,199.6094 " fill="#FEFFDD" style="stroke:#181818;stroke-width:0.5;"/><text fill="#000000" font-family="sans-serif" font-size="13" font-weight="bold" lengthAdjust="spacing" textLength="79" x="269" y="218.1045">Coordinador</text><text fill="#000000" font-family="sans-serif" font-size="13" lengthAdjust="spacing" textLength="182" x="352" y="218.1045">solicita importar la convocatoria</text></g><!--link SolicitandoImportacion to IntroduciendoFuente--><g id="link_SolicitandoImportacion_IntroduciendoFuente"><path d="M258,298.6594 C258,371.8294 258,585.2394 258,658.4994 " fill="none" id="SolicitandoImportacion-to-IntroduciendoFuente" style="stroke:#008000;stroke-width:1.0;"/><polygon fill="#008000" points="258,664.4994,262,655.4994,258,659.4994,254,655.4994,258,664.4994" style="stroke:#008000;stroke-width:1.0;"/><path d="M263,321.6094 L263,641.6094 L592,641.6094 L592,331.6094 L582,321.6094 L263,321.6094 " fill="#FEFFDD" style="stroke:#181818;stroke-width:0.5;"/><path d="M582,321.6094 L582,331.6094 L592,331.6094 L582,321.6094 " fill="#FEFFDD" style="stroke:#181818;stroke-width:0.5;"/><text fill="#000000" font-family="sans-serif" font-size="13" font-weight="bold" lengthAdjust="spacing" textLength="51" x="269" y="340.1045">Sistema</text><text fill="#000000" font-family="sans-serif" font-size="13" lengthAdjust="spacing" textLength="195" x="324" y="340.1045">presenta la opci&#243;n de importaci&#243;n</text><text fill="#000000" font-family="sans-serif" font-size="13" font-weight="bold" lengthAdjust="spacing" textLength="51" x="269" y="356.4561">Sistema</text><text fill="#000000" font-family="sans-serif" font-size="13" lengthAdjust="spacing" textLength="246" x="324" y="356.4561">permite introducir la fuente de importaci&#243;n:</text><text fill="#000000" font-family="sans-serif" font-size="13" lengthAdjust="spacing" textLength="164" x="269" y="372.8076">&#8226; Archivo (PDF / DOC / XLS)</text><text fill="#000000" font-family="sans-serif" font-size="13" lengthAdjust="spacing" textLength="96" x="269" y="389.1592">&#8226; Enlace externo</text><text fill="#000000" font-family="sans-serif" font-size="13" lengthAdjust="spacing" textLength="4" x="269" y="405.5107">&#160;</text><text fill="#000000" font-family="sans-serif" font-size="13" font-weight="bold" lengthAdjust="spacing" textLength="51" x="269" y="421.8623">Sistema</text><text fill="#000000" font-family="sans-serif" font-size="13" lengthAdjust="spacing" textLength="253" x="324" y="421.8623">muestra informaci&#243;n a incorporar (si aplica):</text><text fill="#000000" font-family="sans-serif" font-size="13" lengthAdjust="spacing" textLength="40" x="269" y="438.2139">&#8226; T&#237;tulo</text><text fill="#000000" font-family="sans-serif" font-size="13" lengthAdjust="spacing" textLength="36" x="269" y="454.5654">&#8226; &#193;rea</text><text fill="#000000" font-family="sans-serif" font-size="13" lengthAdjust="spacing" textLength="50" x="269" y="470.917">&#8226; Estado</text><text fill="#000000" font-family="sans-serif" font-size="13" lengthAdjust="spacing" textLength="114" x="269" y="487.2686">&#8226; Fechas relevantes</text><text fill="#000000" font-family="sans-serif" font-size="13" lengthAdjust="spacing" textLength="77" x="269" y="503.6201">&#8226; Descripci&#243;n</text><text fill="#000000" font-family="sans-serif" font-size="13" lengthAdjust="spacing" textLength="154" x="269" y="519.9717">&#8226; Requisitos y condiciones</text><text fill="#000000" font-family="sans-serif" font-size="13" lengthAdjust="spacing" textLength="203" x="269" y="536.3232">&#8226; Criterios de evaluaci&#243;n y dotaci&#243;n</text><text fill="#000000" font-family="sans-serif" font-size="13" lengthAdjust="spacing" textLength="155" x="269" y="552.6748">&#8226; Documentaci&#243;n asociada</text><text fill="#000000" font-family="sans-serif" font-size="13" lengthAdjust="spacing" textLength="147" x="269" y="569.0264">&#8226; Informaci&#243;n de contacto</text><text fill="#000000" font-family="sans-serif" font-size="13" lengthAdjust="spacing" textLength="4" x="269" y="585.3779">&#160;</text><text fill="#000000" font-family="sans-serif" font-size="13" font-weight="bold" lengthAdjust="spacing" textLength="51" x="269" y="601.7295">Sistema</text><text fill="#000000" font-family="sans-serif" font-size="13" lengthAdjust="spacing" textLength="96" x="324" y="601.7295">permite solicitar:</text><text fill="#000000" font-family="sans-serif" font-size="13" lengthAdjust="spacing" textLength="132" x="269" y="618.0811">&#8226; Importar convocatoria</text><text fill="#000000" font-family="sans-serif" font-size="13" lengthAdjust="spacing" textLength="60" x="269" y="634.4326">&#8226; Cancelar</text></g><!--link IntroduciendoFuente to ConfirmandoImportacion--><g id="link_IntroduciendoFuente_ConfirmandoImportacion"><path d="M258,714.8894 C258,735.7094 258,759.5494 258,780.3594 " fill="none" id="IntroduciendoFuente-to-ConfirmandoImportacion" style="stroke:#008000;stroke-width:1.0;"/><polygon fill="#008000" points="258,786.3594,262,777.3594,258,781.3594,254,777.3594,258,786.3594" style="stroke:#008000;stroke-width:1.0;"/><path d="M263,737.6094 L263,763.6094 L543,763.6094 L543,747.6094 L533,737.6094 L263,737.6094 " fill="#FEFFDD" style="stroke:#181818;stroke-width:0.5;"/><path d="M533,737.6094 L533,747.6094 L543,747.6094 L533,737.6094 " fill="#FEFFDD" style="stroke:#181818;stroke-width:0.5;"/><text fill="#000000" font-family="sans-serif" font-size="13" font-weight="bold" lengthAdjust="spacing" textLength="79" x="269" y="756.1045">Coordinador</text><text fill="#000000" font-family="sans-serif" font-size="13" lengthAdjust="spacing" textLength="176" x="352" y="756.1045">solicita importar la informaci&#243;n</text></g><!--link ConfirmandoImportacion to *end*importarConvocatoria--><g id="link_ConfirmandoImportacion_*end*importarConvocatoria"><path d="M232.77,817.0294 C171.15,827.8094 18,854.6094 18,854.6094 C18,854.6094 18,906.6094 18,906.6094 C18,906.6094 194.1503,927.165 241.1003,932.635 " fill="none" id="ConfirmandoImportacion-to-*end*importarConvocatoria" style="stroke:#008000;stroke-width:1.0;"/><polygon fill="#008000" points="247.06,933.3294,238.5834,928.3147,242.0936,932.7508,237.6576,936.261,247.06,933.3294" style="stroke:#008000;stroke-width:1.0;"/><path d="M23,859.6094 L23,901.6094 L473,901.6094 L473,869.6094 L463,859.6094 L23,859.6094 " fill="#FEFFDD" style="stroke:#181818;stroke-width:0.5;"/><path d="M463,859.6094 L463,869.6094 L473,869.6094 L463,859.6094 " fill="#FEFFDD" style="stroke:#181818;stroke-width:0.5;"/><text fill="#000000" font-family="sans-serif" font-size="13" font-weight="bold" lengthAdjust="spacing" textLength="51" x="29" y="878.1045">Sistema</text><text fill="#000000" font-family="sans-serif" font-size="13" lengthAdjust="spacing" textLength="177" x="84" y="878.1045">permite solicitar la importaci&#243;n</text><text fill="#000000" font-family="sans-serif" font-size="13" font-weight="bold" lengthAdjust="spacing" textLength="51" x="29" y="894.4561">Sistema</text><text fill="#000000" font-family="sans-serif" font-size="13" lengthAdjust="spacing" textLength="374" x="84" y="894.4561">presenta y visualiza la convocatoria con la informaci&#243;n importada</text></g><!--link ConfirmandoImportacion to *end*importarConvocatoria--><g id="link_ConfirmandoImportacion_*end*importarConvocatoria"><path d="M283.24,817.4294 C341.02,828.4594 478,854.6094 478,854.6094 C478,854.6094 478,906.6094 478,906.6094 C478,906.6094 319.252,926.8118 274.862,932.4618 " fill="none" id="ConfirmandoImportacion-to-*end*importarConvocatoria-1" style="stroke:#FF0000;stroke-width:1.0;"/><polygon fill="#FF0000" points="268.91,933.2194,278.343,936.051,273.87,932.5881,277.3329,928.115,268.91,933.2194" style="stroke:#FF0000;stroke-width:1.0;"/><path d="M483,859.6094 L483,901.6094 L837,901.6094 L837,869.6094 L827,859.6094 L483,859.6094 " fill="#FEFFDD" style="stroke:#181818;stroke-width:0.5;"/><path d="M827,859.6094 L827,869.6094 L837,869.6094 L827,859.6094 " fill="#FEFFDD" style="stroke:#181818;stroke-width:0.5;"/><text fill="#000000" font-family="sans-serif" font-size="13" font-weight="bold" lengthAdjust="spacing" textLength="79" x="489" y="878.1045">Coordinador</text><text fill="#000000" font-family="sans-serif" font-size="13" lengthAdjust="spacing" textLength="179" x="572" y="878.1045">solicita cancelar la importaci&#243;n</text><text fill="#000000" font-family="sans-serif" font-size="13" font-weight="bold" lengthAdjust="spacing" textLength="51" x="489" y="894.4561">Sistema</text><text fill="#000000" font-family="sans-serif" font-size="13" lengthAdjust="spacing" textLength="278" x="544" y="894.4561">presenta y visualiza la convocatoria sin cambios</text></g><g id="CONVOCATORIA_ABIERTA"><rect fill="#F1F1F1" height="50" rx="12.5" ry="12.5" style="stroke:#181818;stroke-width:0.5;" width="197" x="328" y="1053"/><line style="stroke:#181818;stroke-width:0.5;" x1="328" x2="525" y1="1080.6094" y2="1080.6094"/><text fill="#000000" font-family="sans-serif" font-size="14" lengthAdjust="spacing" textLength="177" x="338" y="1072.5332">CONVOCATORIA_ABIERTA</text></g><!--link in1 to importarConvocatoria--><g id="link_in1_importarConvocatoria"><path d="M426.5,57.28 C426.5,72.12 426.5,86.99 426.5,111.81 " fill="none" id="in1-to-importarConvocatoria" style="stroke:#008000;stroke-width:1.0;"/><polygon fill="#008000" points="426.5,117.81,430.5,108.81,426.5,112.81,422.5,108.81,426.5,117.81" style="stroke:#008000;stroke-width:1.0;"/></g><!--link importarConvocatoria to CONVOCATORIA_ABIERTA--><g id="link_importarConvocatoria_CONVOCATORIA_ABIERTA"><path d="M327.54,957.23 C323.12,975.91 320.5,987 320.5,987 C320.5,987 320.5,1023 320.5,1023 C320.5,1023 345.5133,1035.7474 373.7333,1050.1174 " fill="none" id="importarConvocatoria-to-CONVOCATORIA_ABIERTA" style="stroke:#008000;stroke-width:1.0;"/><polygon fill="#008000" points="379.08,1052.84,372.875,1045.1916,374.6244,1050.5712,369.2449,1052.3205,379.08,1052.84" style="stroke:#008000;stroke-width:1.0;"/><path d="M325.5,992 L325.5,1018 L481.5,1018 L481.5,1002 L471.5,992 L325.5,992 " fill="#FEFFDD" style="stroke:#181818;stroke-width:0.5;"/><path d="M471.5,992 L471.5,1002 L481.5,1002 L471.5,992 " fill="#FEFFDD" style="stroke:#181818;stroke-width:0.5;"/><text fill="#000000" font-family="sans-serif" font-size="13" lengthAdjust="spacing" textLength="135" x="331.5" y="1010.4951">Convocatoria importada</text></g><!--link importarConvocatoria to CONVOCATORIA_ABIERTA--><g id="link_importarConvocatoria_CONVOCATORIA_ABIERTA"><path d="M486.25,957.23 C488.92,975.91 490.5,987 490.5,987 C490.5,987 490.5,1023 490.5,1023 C490.5,1023 476.7567,1034.602 459.7167,1048.972 " fill="none" id="importarConvocatoria-to-CONVOCATORIA_ABIERTA-1" style="stroke:#FF0000;stroke-width:1.0;"/><polygon fill="#FF0000" points="455.13,1052.84,464.5888,1050.0958,458.9523,1049.6166,459.4314,1043.9801,455.13,1052.84" style="stroke:#FF0000;stroke-width:1.0;"/><path d="M495.5,992 L495.5,1018 L646.5,1018 L646.5,1002 L636.5,992 L495.5,992 " fill="#FEFFDD" style="stroke:#181818;stroke-width:0.5;"/><path d="M636.5,992 L636.5,1002 L646.5,1002 L636.5,992 " fill="#FEFFDD" style="stroke:#181818;stroke-width:0.5;"/><text fill="#000000" font-family="sans-serif" font-size="13" lengthAdjust="spacing" textLength="130" x="501.5" y="1010.4951">Importaci&#243;n cancelada</text></g><!--SRC=[hLNDYXD14BxFKpJnaXMMnQiiWJZPm80OIO88ooATxevRx4pNsDqJZ2BegtZtv2FaJVP9hEdCRz8nYYOGwEcg-dwgQc8VGEVSy8obe9NRvehbc6xBGnHPnvrYe9ynRjaWdhrwCul7ozay6RyRlqXkviln82flBs-Vl3TAwRlB4OCiH-EuYL5lK7271dXJAN3dIuSkXXS3zZcA67tssGFwKl02Kn3Wk9QOxDC4e3wEIxGpA0i1YYAdXT9E7GSHu1fCTbZC1zu-lUif-msmHYg9klJmmJ-uNerYH2D1Sudc-cerOhPARrnWAMUYwrAPI6HzjJs5C6IFrIcP8KeBi4vbtDF9ZR8Kp4iMc0lO_THCDYtovs2QCXdueQXWlOornptCV-uBF7xzpiP6tCC6sV3rPCgks6GMq-_RbukB9k96frmefZuwPJH68UYiKDOPya-laLgsfrmU1He29KE75XZFoJ9-qM8lTpzSaM9ptdqpYhUuD0wolPmgSKzZOLIgDfmasUPcegmmaBV6b0_dwaC15XnQjYrxAQ7iJoShDcIM0RedRwXaMbIyjqnYrsOFWQB8ofvKqYmAuBBbcdI5Kpq2f5WNTgjkL3rsfdKagGVmQFeyPQw5Iha9Z6DWrdgpU6AR_cb3kjqEK0f3zbZH7l_PHXmwvk7FxKEzHbks0Llm53xnmyKk3uTIwiAI_vKee-GvIITT5LLZ_vii2vgAPYiQxxw8Br4KVDNtPYNmRnBrzFHIMxjQgqvXL2QTHqWwBjJsT15-0G00]--></g></svg>