<?xml version="1.0" encoding="us-ascii" standalone="no"?><svg xmlns="http://www.w3.org/2000/svg" xmlns:xlink="http://www.w3.org/1999/xlink" contentStyleType="text/css" height="367px" preserveAspectRatio="none" style="width:469px;height:367px;background:#FFFFFF;" version="1.1" viewBox="0 0 469 367" width="469px" zoomAndPan="magnify"><defs/><g><line style="stroke:#AAAAAA;stroke-width:1.0;" x1="6" x2="462" y1="8.5" y2="8.5"/><line style="stroke:#AAAAAA;stroke-width:1.0;" x1="6" x2="462" y1="10.5" y2="10.5"/><text fill="#000000" font-family="sans-serif" font-size="12" font-weight="bold" lengthAdjust="spacing" textLength="152" x="6" y="26.457">GIPF - CREAR ENTREGABLE</text><line style="stroke:#AAAAAA;stroke-width:1.0;" x1="6" x2="462" y1="33.5938" y2="33.5938"/><line style="stroke:#AAAAAA;stroke-width:1.0;" x1="6" x2="462" y1="35.5938" y2="35.5938"/><text fill="#000000" font-family="sans-serif" font-size="12" font-weight="bold" lengthAdjust="spacing" textLength="117" x="7" y="52.5508">Datos del entregable</text><line style="stroke:#AAAAAA;stroke-width:1.0;" x1="7" x2="461" y1="60.6875" y2="60.6875"/><text fill="#000000" font-family="sans-serif" font-size="12" font-weight="bold" lengthAdjust="spacing" textLength="34" x="10" y="80.6445">T&#237;tulo:</text><rect fill="#EEEEEE" height="19.0938" rx="5" ry="5" style="stroke:#000000;stroke-width:2.5;" width="308" x="48.5" y="70.6875"/><text fill="#000000" font-family="sans-serif" font-size="12" lengthAdjust="spacing" textLength="3" x="201" y="85.1445">&#160;</text><line style="stroke:#AAAAAA;stroke-width:1.0;" x1="9" x2="459" y1="98.7813" y2="98.7813"/><text fill="#000000" font-family="sans-serif" font-size="12" font-weight="bold" lengthAdjust="spacing" textLength="27" x="10" y="116.7383">Tipo:</text><text fill="#000000" font-family="sans-serif" font-size="12" lengthAdjust="spacing" textLength="42" x="43" y="117.7383">Informe</text><line style="stroke:#000000;stroke-width:1.0;" x1="41" x2="100" y1="120.375" y2="120.375"/><line style="stroke:#000000;stroke-width:1.0;" x1="41" x2="41" y1="117.375" y2="119.375"/><line style="stroke:#000000;stroke-width:1.0;" x1="100" x2="100" y1="117.375" y2="119.375"/><text fill="#000000" font-family="sans-serif" font-size="12" lengthAdjust="spacing" textLength="43" x="107" y="117.7383">Dataset</text><line style="stroke:#000000;stroke-width:1.0;" x1="105" x2="164" y1="120.375" y2="120.375"/><line style="stroke:#000000;stroke-width:1.0;" x1="105" x2="105" y1="117.375" y2="119.375"/><line style="stroke:#000000;stroke-width:1.0;" x1="164" x2="164" y1="117.375" y2="119.375"/><text fill="#000000" font-family="sans-serif" font-size="12" lengthAdjust="spacing" textLength="73" x="171" y="117.7383">Presentaci&#243;n</text><line style="stroke:#000000;stroke-width:1.0;" x1="169" x2="268" y1="120.375" y2="120.375"/><line style="stroke:#000000;stroke-width:1.0;" x1="169" x2="169" y1="117.375" y2="119.375"/><line style="stroke:#000000;stroke-width:1.0;" x1="268" x2="268" y1="117.375" y2="119.375"/><text fill="#000000" font-family="sans-serif" font-size="12" lengthAdjust="spacing" textLength="23" x="275" y="117.7383">Otro</text><line style="stroke:#000000;stroke-width:1.0;" x1="273" x2="308" y1="120.375" y2="120.375"/><line style="stroke:#000000;stroke-width:1.0;" x1="273" x2="273" y1="117.375" y2="119.375"/><line style="stroke:#000000;stroke-width:1.0;" x1="308" x2="308" y1="117.375" y2="119.375"/><line style="stroke:#AAAAAA;stroke-width:1.0;" x1="9" x2="459" y1="129.875" y2="129.875"/><text fill="#000000" font-family="sans-serif" font-size="12" font-weight="bold" lengthAdjust="spacing" textLength="78" x="10" y="147.832">Estado inicial:</text><text fill="#000000" font-family="sans-serif" font-size="12" lengthAdjust="spacing" textLength="56" x="94" y="148.832">Pendiente</text><line style="stroke:#000000;stroke-width:1.0;" x1="92" x2="167" y1="151.4688" y2="151.4688"/><line style="stroke:#000000;stroke-width:1.0;" x1="92" x2="92" y1="148.4688" y2="150.4688"/><line style="stroke:#000000;stroke-width:1.0;" x1="167" x2="167" y1="148.4688" y2="150.4688"/><text fill="#000000" font-family="sans-serif" font-size="12" lengthAdjust="spacing" textLength="49" x="174" y="148.832">En curso</text><line style="stroke:#000000;stroke-width:1.0;" x1="172" x2="239" y1="151.4688" y2="151.4688"/><line style="stroke:#000000;stroke-width:1.0;" x1="172" x2="172" y1="148.4688" y2="150.4688"/><line style="stroke:#000000;stroke-width:1.0;" x1="239" x2="239" y1="148.4688" y2="150.4688"/><text fill="#000000" font-family="sans-serif" font-size="12" lengthAdjust="spacing" textLength="57" x="246" y="148.832">Entregado</text><line style="stroke:#000000;stroke-width:1.0;" x1="244" x2="319" y1="151.4688" y2="151.4688"/><line style="stroke:#000000;stroke-width:1.0;" x1="244" x2="244" y1="148.4688" y2="150.4688"/><line style="stroke:#000000;stroke-width:1.0;" x1="319" x2="319" y1="148.4688" y2="150.4688"/><line style="stroke:#AAAAAA;stroke-width:1.0;" x1="9" x2="459" y1="160.9688" y2="160.9688"/><text fill="#000000" font-family="sans-serif" font-size="12" font-weight="bold" lengthAdjust="spacing" textLength="71" x="10" y="178.9258">Fecha l&#237;mite:</text><rect fill="#EEEEEE" height="19.0938" rx="5" ry="5" style="stroke:#000000;stroke-width:2.5;" width="100" x="85.5" y="168.9688"/><text fill="#000000" font-family="sans-serif" font-size="12" lengthAdjust="spacing" textLength="3" x="134" y="183.4258">&#160;</text><line style="stroke:#AAAAAA;stroke-width:1.0;" x1="9" x2="459" y1="197.0625" y2="197.0625"/><text fill="#000000" font-family="sans-serif" font-size="12" font-weight="bold" lengthAdjust="spacing" textLength="130" x="10" y="215.0195">Descripci&#243;n (opcional):</text><rect fill="#EEEEEE" height="19.0938" rx="5" ry="5" style="stroke:#000000;stroke-width:2.5;" width="308" x="145.5" y="206.0625"/><text fill="#000000" font-family="sans-serif" font-size="12" lengthAdjust="spacing" textLength="3" x="298" y="220.5195">&#160;</text><line style="stroke:#AAAAAA;stroke-width:1.0;" x1="8" x2="460" y1="236.1563" y2="236.1563"/><text fill="#000000" font-family="sans-serif" font-size="12" font-style="italic" lengthAdjust="spacing" textLength="267" x="8" y="253.1133">El ID del entregable se genera autom&#225;ticamente</text><text fill="#000000" font-family="sans-serif" font-size="12" font-style="italic" lengthAdjust="spacing" textLength="350" x="8" y="270.207">Tras crearlo, el entregable se abrir&#225; para continuar su definici&#243;n</text><line style="stroke:#AAAAAA;stroke-width:1.5;" x1="7" x2="461" y1="279.3438" y2="279.3438"/><text fill="#000000" font-family="sans-serif" font-size="12" font-weight="bold" lengthAdjust="spacing" textLength="102" x="7" y="296.3008">Adjunto (opcional)</text><rect fill="#EEEEEE" height="19.0938" rx="5" ry="5" style="stroke:#000000;stroke-width:2.5;" width="132" x="11.5" y="305.4375"/><text fill="#000000" font-family="sans-serif" font-size="12" lengthAdjust="spacing" textLength="77" x="39" y="319.8945">A&#241;adir archivo</text><rect fill="#EEEEEE" height="19.0938" rx="5" ry="5" style="stroke:#000000;stroke-width:2.5;" width="124" x="150.5" y="305.4375"/><text fill="#000000" font-family="sans-serif" font-size="12" lengthAdjust="spacing" textLength="75" x="175" y="319.8945">A&#241;adir enlace</text><line style="stroke:#AAAAAA;stroke-width:1.5;" x1="7" x2="461" y1="334.5313" y2="334.5313"/><rect fill="#EEEEEE" height="19.0938" rx="5" ry="5" style="stroke:#000000;stroke-width:2.5;" width="132" x="10.5" y="342.5313"/><text fill="#000000" font-family="sans-serif" font-size="12" lengthAdjust="spacing" textLength="93" x="30" y="356.9883">Crear entregable</text><rect fill="#EEEEEE" height="19.0938" rx="5" ry="5" style="stroke:#000000;stroke-width:2.5;" width="164" x="149.5" y="342.5313"/><text fill="#000000" font-family="sans-serif" font-size="12" lengthAdjust="spacing" textLength="112" x="175.5" y="356.9883">Volver a entregables</text><!--SRC=[ZPJ1RXen48RlVeeH9v1AGYYfAaHH22m82WqY6oueXzdT0LmjDhAzH1Kbxv87oA7g8_1YzIvaiz2qmQVnuFd-yUzXhxH1PJI61dn5g1nX5CtG2wdum1LD5Iw8hHdOzSMk9AXvzKvts8OYD4TEOmJEDtVaT1hNVQTsxjKFp-vAzrKjD593G25GAfEMnAjOJCFNmZTsbkLkdqqKocfS3pzX0YUj-yq1AAENSlaoXQuXrnLJgHQKixkSRHyrcIGUAjBs4kZpxM-HP6wCaZdOl2lWMCS32LnmdsEOaHgI2BXbxiGS0NwajDnl4hk2amJQvCyHmktpWXjwqv_tNMYHzXLV9hU3lBI151WMzZHsRElwPFiFbV_RHutNdH2whQE10Kqm8q4A0ICZ5zidmtqxfTQusZcl7oDSXNetsg7y07-Hq5DSRPzWYPRdIs6uY521ZgpgD7aZwy01TyFIyF6HPSUx4NoFX94Plmw6-sY69z3O_iA0Aq3bp_bAmdtoJYzP4Y7wb7shVoYl9ytuUfcB9Q2n35TauPcytiCsRCEkxBJ5Vtl6XY4ASpVeWpskRTzmSLOkbIjd7_FkF88sUN1n2ULIjLAgbYwXwRWG_rnW-Swmlog3bf6oVGPS6yMzo5X2WVLmXJ2oRl05LU5cIQBN-lgI04Uik98YVZFM6mzU3tog5A-vWLjISUlZ0MlH52FxRNA4BmCkPbMuSzl5pwoFOXRXpB99iwQqNFMZ2ixj7m00]--></g></svg>