<?plantuml 1.2026.2?><svg xmlns="http://www.w3.org/2000/svg" xmlns:xlink="http://www.w3.org/1999/xlink" contentStyleType="text/css" data-diagram-type="DESCRIPTION" height="408px" preserveAspectRatio="none" style="width:1468px;height:408px;background:#FFFFFF;" version="1.1" viewBox="0 0 1468 408" width="1468px" zoomAndPan="magnify"><defs/><g><!--cluster abrirInvestigadores--><g class="cluster" data-qualified-name="abrirInvestigadores" data-source-line="10" id="ent0004"><path d="M176,6 L321.2871,6 A3.75,3.75 0 0 1 323.7871,8.5 L330.7871,25.9688 L495,25.9688 A2.5,2.5 0 0 1 497.5,28.4688 L497.5,398.5 A2.5,2.5 0 0 1 495,401 L176,401 A2.5,2.5 0 0 1 173.5,398.5 L173.5,8.5 A2.5,2.5 0 0 1 176,6" fill="none" style="stroke:#000000;stroke-width:1.5;"/><line style="stroke:#000000;stroke-width:1.5;" x1="173.5" x2="330.7871" y1="25.9688" y2="25.9688"/><text fill="#000000" font-family="sans-serif" font-size="12" font-weight="bold" lengthAdjust="spacing" textLength="144.2871" x="177.5" y="19.1387">abrirInvestigadores()</text></g><!--entity ListarInvestigadoresView--><g class="entity" data-qualified-name="abrirInvestigadores.ListarInvestigadoresView" data-source-line="11" id="ent0005"><rect fill="#629EF9" height="33.9688" rx="2.5" ry="2.5" style="stroke:#181818;stroke-width:0.5;" width="170.4219" x="311.5" y="38"/><text fill="#000000" font-family="sans-serif" font-size="12" lengthAdjust="spacing" textLength="150.4219" x="321.5" y="59.1387">ListarInvestigadoresView</text></g><!--entity InvestigadorController--><g class="entity" data-qualified-name="abrirInvestigadores.InvestigadorController" data-source-line="12" id="ent0006"><rect fill="#B5BD68" height="33.9688" rx="2.5" ry="2.5" style="stroke:#181818;stroke-width:0.5;" width="154.0742" x="189.5" y="147"/><text fill="#000000" font-family="sans-serif" font-size="12" lengthAdjust="spacing" textLength="134.0742" x="199.5" y="168.1387">InvestigadorController</text></g><!--entity InvestigadorRepository--><g class="entity" data-qualified-name="abrirInvestigadores.InvestigadorRepository" data-source-line="13" id="ent0007"><rect fill="#F2AC4E" height="33.9688" rx="2.5" ry="2.5" style="stroke:#181818;stroke-width:0.5;" width="159.1309" x="189" y="256"/><text fill="#000000" font-family="sans-serif" font-size="12" lengthAdjust="spacing" textLength="139.1309" x="199" y="277.1387">InvestigadorRepository</text></g><!--entity Investigador--><g class="entity" data-qualified-name="abrirInvestigadores.Investigador" data-source-line="14" id="ent0008"><rect fill="#F2AC4E" height="33.9688" rx="2.5" ry="2.5" style="stroke:#181818;stroke-width:0.5;" width="94.7832" x="221" y="351"/><text fill="#000000" font-family="sans-serif" font-size="12" lengthAdjust="spacing" textLength="74.7832" x="231" y="372.1387">Investigador</text></g><!--entity NavegacionSistema--><g class="entity" data-qualified-name="NavegacionSistema" data-source-line="7" id="ent0002"><rect fill="#CDEBA5" height="33.9688" rx="2.5" ry="2.5" style="stroke:#181818;stroke-width:0.5;" width="142.8125" x="7" y="38"/><text fill="#000000" font-family="sans-serif" font-size="12" lengthAdjust="spacing" textLength="122.8125" x="17" y="59.1387">Navegaci&#243;n Sistema</text></g><!--entity InvestigadoresAbiertas--><g class="entity" data-qualified-name="InvestigadoresAbiertas" data-source-line="8" id="ent0003"><rect fill="#CDEBA5" height="33.9688" rx="2.5" ry="2.5" style="stroke:#181818;stroke-width:0.5;" width="192.8164" x="514" y="147"/><text fill="#000000" font-family="sans-serif" font-size="12" lengthAdjust="spacing" textLength="172.8164" x="524" y="168.1387">INVESTIGADORES_ABIERTOS</text></g><!--entity AbrirInvestigador--><g class="entity" data-qualified-name="AbrirInvestigador" data-source-line="17" id="ent0009"><rect fill="#CDEBA5" height="33.9688" rx="2.5" ry="2.5" style="stroke:#181818;stroke-width:0.5;" width="211.6426" x="742.5" y="147"/><text fill="#000000" font-family="sans-serif" font-size="12" lengthAdjust="spacing" textLength="191.6426" x="752.5" y="168.1387">:Collaboration AbrirInvestigador</text></g><!--entity CrearInvestigador--><g class="entity" data-qualified-name="CrearInvestigador" data-source-line="18" id="ent0010"><rect fill="#CDEBA5" height="33.9688" rx="2.5" ry="2.5" style="stroke:#181818;stroke-width:0.5;" width="215.5977" x="989.5" y="147"/><text fill="#000000" font-family="sans-serif" font-size="12" lengthAdjust="spacing" textLength="195.5977" x="999.5" y="168.1387">:Collaboration CrearInvestigador</text></g><!--entity AbrirPanelPrincipal--><g class="entity" data-qualified-name="AbrirPanelPrincipal" data-source-line="19" id="ent0011"><rect fill="#CDEBA5" height="33.9688" rx="2.5" ry="2.5" style="stroke:#181818;stroke-width:0.5;" width="221.1172" x="1241" y="147"/><text fill="#000000" font-family="sans-serif" font-size="12" lengthAdjust="spacing" textLength="201.1172" x="1251" y="168.1387">:Collaboration AbrirPanelPrincipal</text></g><!--link NavegacionSistema to ListarInvestigadoresView--><g class="link" data-entity-1="ent0002" data-entity-2="ent0005" data-link-type="dependency" data-source-line="21" id="lnk12"><path d="M150.26,55 C198.07,55 255.13,55 305.46,55" fill="none" id="NavegacionSistema-to-ListarInvestigadoresView" style="stroke:#181818;stroke-width:1;"/><polygon fill="#181818" points="311.46,55,302.46,51,306.46,55,302.46,59,311.46,55" style="stroke:#181818;stroke-width:1;"/><text fill="#000000" font-family="sans-serif" font-size="12" lengthAdjust="spacing" textLength="125.9531" x="168.25" y="49.1387">abrirInvestigadores()</text></g><!--link ListarInvestigadoresView to InvestigadorController--><g class="link" data-entity-1="ent0005" data-entity-2="ent0006" data-link-type="dependency" data-source-line="23" id="lnk13"><path d="M366.42,72.09 C341.62,85.35 310.5,102 310.5,102 C310.5,102 294.6111,124.0346 281.5711,142.1046" fill="none" id="ListarInvestigadoresView-to-InvestigadorController" style="stroke:#181818;stroke-width:1;"/><polygon fill="#181818" points="278.06,146.97,286.5702,142.0126,280.9859,142.9155,280.083,137.3311,278.06,146.97" style="stroke:#181818;stroke-width:1;"/><text fill="#000000" font-family="sans-serif" font-size="12" lengthAdjust="spacing" textLength="255.2344" x="311.5" y="114.1387">listarInvestigadores() : List&lt;Investigador&gt;</text></g><!--link InvestigadorController to InvestigadorRepository--><g class="link" data-entity-1="ent0006" data-entity-2="ent0007" data-link-type="dependency" data-source-line="24" id="lnk14"><path d="M266.8,181.25 C267.18,201.48 267.7068,229.8111 268.0868,249.9511" fill="none" id="InvestigadorController-to-InvestigadorRepository" style="stroke:#181818;stroke-width:1;"/><polygon fill="#181818" points="268.2,255.95,272.0295,246.8761,268.1057,250.9509,264.0309,247.0271,268.2,255.95" style="stroke:#181818;stroke-width:1;"/><text fill="#000000" font-family="sans-serif" font-size="12" lengthAdjust="spacing" textLength="219.7559" x="268.5" y="223.1387">obtenerTodos() : List&lt;Investigador&gt;</text></g><!--link InvestigadorRepository to Investigador--><g class="link" data-entity-1="ent0007" data-entity-2="ent0008" data-link-type="association" data-source-line="25" id="lnk15"><path d="M268.5,290.2 C268.5,307.27 268.5,333.99 268.5,350.99" fill="none" id="InvestigadorRepository-Investigador" style="stroke:#181818;stroke-width:1;"/></g><!--link ListarInvestigadoresView to AbrirInvestigador--><g class="link" data-entity-1="ent0005" data-entity-2="ent0009" data-link-type="dependency" data-source-line="27" id="lnk16"><path d="M481.74,71.32 C556.21,84.7 652.5,102 652.5,102 C652.5,102 733.201,127.1173 791.271,145.1873" fill="none" id="ListarInvestigadoresView-to-AbrirInvestigador" style="stroke:#181818;stroke-width:1;stroke-dasharray:7,7;"/><polygon fill="#181818" points="797,146.97,789.5949,140.4765,792.2258,145.4844,787.218,148.1152,797,146.97" style="stroke:#181818;stroke-width:1;"/><text fill="#000000" font-family="sans-serif" font-size="12" lengthAdjust="spacing" textLength="198.0527" x="700.5" y="114.1387">abrirInvestigador(investigadorId)</text></g><!--link ListarInvestigadoresView to CrearInvestigador--><g class="link" data-entity-1="ent0005" data-entity-2="ent0010" data-link-type="dependency" data-source-line="28" id="lnk17"><path d="M481.74,63.67 C627.13,76.76 907.5,102 907.5,102 C907.5,102 985.5771,127.0661 1041.8671,145.1361" fill="none" id="ListarInvestigadoresView-to-CrearInvestigador" style="stroke:#181818;stroke-width:1;stroke-dasharray:7,7;"/><polygon fill="#181818" points="1047.58,146.97,1040.2333,140.4105,1042.8193,145.4417,1037.7881,148.0277,1047.58,146.97" style="stroke:#181818;stroke-width:1;"/><text fill="#000000" font-family="sans-serif" font-size="12" lengthAdjust="spacing" textLength="115.3477" x="953.5" y="114.1387">crearInvestigador()</text></g><!--link ListarInvestigadoresView to AbrirPanelPrincipal--><g class="link" data-entity-1="ent0005" data-entity-2="ent0011" data-link-type="dependency" data-source-line="29" id="lnk18"><path d="M481.72,61.76 C664.44,74.1 1077.5,102 1077.5,102 C1077.5,102 1192.4733,127.5964 1273.6533,145.6664" fill="none" id="ListarInvestigadoresView-to-AbrirPanelPrincipal" style="stroke:#181818;stroke-width:1;stroke-dasharray:7,7;"/><polygon fill="#181818" points="1279.51,146.97,1271.5941,141.1101,1274.6294,145.8836,1269.8559,148.919,1279.51,146.97" style="stroke:#181818;stroke-width:1;"/><text fill="#000000" font-family="sans-serif" font-size="12" lengthAdjust="spacing" textLength="121.793" x="1144.5" y="114.1387">abrirPanelPrincipal()</text></g><!--link ListarInvestigadoresView to InvestigadoresAbiertas--><g class="link" data-entity-1="ent0005" data-entity-2="ent0003" data-link-type="dependency" data-source-line="31" id="lnk19"><path d="M457.71,72.09 C508.17,85.35 571.5,102 571.5,102 C571.5,102 585.4686,123.8445 597.0186,141.9145" fill="none" id="ListarInvestigadoresView-to-InvestigadoresAbiertas" style="stroke:#181818;stroke-width:1;stroke-dasharray:7,7;"/><polygon fill="#181818" points="600.25,146.97,598.7733,137.2325,597.5572,142.7571,592.0326,141.541,600.25,146.97" style="stroke:#181818;stroke-width:1;"/><text fill="#000000" font-family="sans-serif" font-size="12" lengthAdjust="spacing" textLength="62.4551" x="581.5" y="114.1387">&#171;finalizar&#187;</text></g><?plantuml-src ZPJ1RgCm48RlVefHSaaELDfeMsrHX4G9gP2gjWfHhwi19jIgQoFZDafN-rJx2FjYwz9k0p51uUP_PZvc_0_KJrnMgF4PCioVIgrUP14feJHi7xaXLd_5wqSir9RB4ZOewdPaGHjy4MQffFaepOHbzIUa_8tWswmL55oIsLK4bHAxzmDZcdA3iXG4usWHNuNdCBh5Loenvt__I4XvRUWPHu0r_DUL_5JxYfFRXpXT9zVXucuLfp_3goHUhU_I1f38LweDB-rmckemuwGDrenLTWGi2KQOQQwxMPDfKzeJWLyCxBFlONHZsyA3h0TEsuPmB0ZZYzbblBmyXBKp8tkRMWb1sfbZ7u9nTfuL5p-6G2kgLCsDqZi7j0_1U3aBe-_n4CWf_ohwtUkfRxT5OAOq6kiVX8VNsV0SzGHIf0bTagEUsjCzIXBtcikSLoZsNNLrnfnT14zxmL6JVUXTBSQEReLNM5o_qRxzZjogoHJyvltpjXwm8ylYyFV--w0oGvBqMXNg96vhTpolGnsOyEmiS1tlkQW9RnsIOZfCT9pt8J-K9jCJkkew_jbNLnmqy1tK_yFnOJxVS8c2lw4EWdy0?></g></svg>