<?plantuml 1.2026.2?><svg xmlns="http://www.w3.org/2000/svg" xmlns:xlink="http://www.w3.org/1999/xlink" contentStyleType="text/css" data-diagram-type="DESCRIPTION" height="408px" preserveAspectRatio="none" style="width:1624px;height:408px;background:#FFFFFF;" version="1.1" viewBox="0 0 1624 408" width="1624px" zoomAndPan="magnify"><defs/><g><!--cluster abrirProyectos--><g class="cluster" data-qualified-name="abrirProyectos" data-source-line="10" id="ent0004"><path d="M169,6 L280.7598,6 A3.75,3.75 0 0 1 283.2598,8.5 L290.2598,25.9688 L733,25.9688 A2.5,2.5 0 0 1 735.5,28.4688 L735.5,398.5 A2.5,2.5 0 0 1 733,401 L169,401 A2.5,2.5 0 0 1 166.5,398.5 L166.5,8.5 A2.5,2.5 0 0 1 169,6" fill="none" style="stroke:#000000;stroke-width:1.5;"/><line style="stroke:#000000;stroke-width:1.5;" x1="166.5" x2="290.2598" y1="25.9688" y2="25.9688"/><text fill="#000000" font-family="sans-serif" font-size="12" font-weight="bold" lengthAdjust="spacing" textLength="110.7598" x="170.5" y="19.1387">abrirProyectos()</text></g><!--entity ListarProyectosView--><g class="entity" data-qualified-name="abrirProyectos.ListarProyectosView" data-source-line="11" id="ent0005"><rect fill="#629EF9" height="33.9688" rx="2.5" ry="2.5" style="stroke:#181818;stroke-width:0.5;" width="140.8965" x="578" y="38"/><text fill="#000000" font-family="sans-serif" font-size="12" lengthAdjust="spacing" textLength="120.8965" x="588" y="59.1387">ListarProyectosView</text></g><!--entity ProyectosController--><g class="entity" data-qualified-name="abrirProyectos.ProyectosController" data-source-line="12" id="ent0006"><rect fill="#B5BD68" height="33.9688" rx="2.5" ry="2.5" style="stroke:#181818;stroke-width:0.5;" width="138.1836" x="284.5" y="147"/><text fill="#000000" font-family="sans-serif" font-size="12" lengthAdjust="spacing" textLength="118.1836" x="294.5" y="168.1387">ProyectosController</text></g><!--entity ProyectoRepository--><g class="entity" data-qualified-name="abrirProyectos.ProyectoRepository" data-source-line="13" id="ent0007"><rect fill="#F2AC4E" height="33.9688" rx="2.5" ry="2.5" style="stroke:#181818;stroke-width:0.5;" width="136.9883" x="285" y="256"/><text fill="#000000" font-family="sans-serif" font-size="12" lengthAdjust="spacing" textLength="116.9883" x="295" y="277.1387">ProyectoRepository</text></g><!--entity Proyecto--><g class="entity" data-qualified-name="abrirProyectos.Proyecto" data-source-line="14" id="ent0008"><rect fill="#F2AC4E" height="33.9688" rx="2.5" ry="2.5" style="stroke:#181818;stroke-width:0.5;" width="72.6406" x="317" y="351"/><text fill="#000000" font-family="sans-serif" font-size="12" lengthAdjust="spacing" textLength="52.6406" x="327" y="372.1387">Proyecto</text></g><!--entity NavegacionSistema--><g class="entity" data-qualified-name="NavegacionSistema" data-source-line="7" id="ent0002"><rect fill="#CDEBA5" height="33.9688" rx="2.5" ry="2.5" style="stroke:#181818;stroke-width:0.5;" width="142.8125" x="7" y="38"/><text fill="#000000" font-family="sans-serif" font-size="12" lengthAdjust="spacing" textLength="122.8125" x="17" y="59.1387">Navegaci&#243;n Sistema</text></g><!--entity ProyectosAbiertos--><g class="entity" data-qualified-name="ProyectosAbiertos" data-source-line="8" id="ent0003"><rect fill="#CDEBA5" height="33.9688" rx="2.5" ry="2.5" style="stroke:#181818;stroke-width:0.5;" width="158.9961" x="751" y="147"/><text fill="#000000" font-family="sans-serif" font-size="12" lengthAdjust="spacing" textLength="138.9961" x="761" y="168.1387">PROYECTOS_ABIERTOS</text></g><!--entity AbrirProyecto--><g class="entity" data-qualified-name="AbrirProyecto" data-source-line="17" id="ent0009"><rect fill="#CDEBA5" height="33.9688" rx="2.5" ry="2.5" style="stroke:#181818;stroke-width:0.5;" width="189.5" x="945" y="147"/><text fill="#000000" font-family="sans-serif" font-size="12" lengthAdjust="spacing" textLength="169.5" x="955" y="168.1387">:Collaboration AbrirProyecto</text></g><!--entity CrearProyecto--><g class="entity" data-qualified-name="CrearProyecto" data-source-line="18" id="ent0010"><rect fill="#CDEBA5" height="33.9688" rx="2.5" ry="2.5" style="stroke:#181818;stroke-width:0.5;" width="193.4551" x="1169" y="147"/><text fill="#000000" font-family="sans-serif" font-size="12" lengthAdjust="spacing" textLength="173.4551" x="1179" y="168.1387">:Collaboration CrearProyecto</text></g><!--entity AbrirPanelPrincipal--><g class="entity" data-qualified-name="AbrirPanelPrincipal" data-source-line="19" id="ent0011"><rect fill="#CDEBA5" height="33.9688" rx="2.5" ry="2.5" style="stroke:#181818;stroke-width:0.5;" width="221.1172" x="1397" y="147"/><text fill="#000000" font-family="sans-serif" font-size="12" lengthAdjust="spacing" textLength="201.1172" x="1407" y="168.1387">:Collaboration AbrirPanelPrincipal</text></g><!--link NavegacionSistema to ListarProyectosView--><g class="link" data-entity-1="ent0002" data-entity-2="ent0005" data-link-type="dependency" data-source-line="21" id="lnk12"><path d="M150.11,55 C259.85,55 462.34,55 571.63,55" fill="none" id="NavegacionSistema-to-ListarProyectosView" style="stroke:#181818;stroke-width:1;"/><polygon fill="#181818" points="577.63,55,568.63,51,572.63,55,568.63,59,577.63,55" style="stroke:#181818;stroke-width:1;"/><text fill="#000000" font-family="sans-serif" font-size="12" lengthAdjust="spacing" textLength="96.4277" x="316" y="49.1387">abrirProyectos()</text></g><!--link ListarProyectosView to ProyectosController--><g class="link" data-entity-1="ent0005" data-entity-2="ent0006" data-link-type="dependency" data-source-line="23" id="lnk13"><path d="M577.82,63.6 C456.26,76.66 220.5,102 220.5,102 C220.5,102 220.5,117 220.5,117 C220.5,117 262.9594,131.6893 301.3094,144.9493" fill="none" id="ListarProyectosView-to-ProyectosController" style="stroke:#181818;stroke-width:1;"/><polygon fill="#181818" points="306.98,146.91,299.7812,140.1886,302.2545,145.2761,297.167,147.7494,306.98,146.91" style="stroke:#181818;stroke-width:1;"/><text fill="#000000" font-family="sans-serif" font-size="12" lengthAdjust="spacing" textLength="203.5664" x="221.5" y="114.1387">listarProyectos() : List&lt;Proyecto&gt;</text></g><!--link ListarProyectosView to ProyectosController--><g class="link" data-entity-1="ent0005" data-entity-2="ent0006" data-link-type="dependency" data-source-line="27" id="lnk16"><path d="M585.8,72.02 C533.85,85.3 468.5,102 468.5,102 C468.5,102 423.0909,126.0893 389.0109,144.1593" fill="none" id="ListarProyectosView-to-ProyectosController-1" style="stroke:#181818;stroke-width:1;"/><polygon fill="#181818" points="383.71,146.97,393.5352,146.2879,388.1275,144.6278,389.7876,139.22,383.71,146.97" style="stroke:#181818;stroke-width:1;"/><text fill="#000000" font-family="sans-serif" font-size="12" lengthAdjust="spacing" textLength="249.0352" x="469.5" y="114.1387">filtrarProyectos(criterio) : List&lt;Proyecto&gt;</text></g><!--link ProyectosController to ProyectoRepository--><g class="link" data-entity-1="ent0006" data-entity-2="ent0007" data-link-type="dependency" data-source-line="24" id="lnk14"><path d="M304.88,181.09 C264.8,194.35 214.5,211 214.5,211 C214.5,211 214.5,226 214.5,226 C214.5,226 259.1037,240.7654 299.1837,254.0254" fill="none" id="ProyectosController-to-ProyectoRepository" style="stroke:#181818;stroke-width:1;"/><polygon fill="#181818" points="304.88,255.91,297.5919,249.2856,300.133,254.3395,295.0791,256.8807,304.88,255.91" style="stroke:#181818;stroke-width:1;"/><text fill="#000000" font-family="sans-serif" font-size="12" lengthAdjust="spacing" textLength="197.6133" x="215.5" y="223.1387">obtenerTodos() : List&lt;Proyecto&gt;</text></g><!--link ProyectosController to ProyectoRepository--><g class="link" data-entity-1="ent0006" data-entity-2="ent0007" data-link-type="dependency" data-source-line="28" id="lnk17"><path d="M375.88,181.09 C394.34,194.35 417.5,211 417.5,211 C417.5,211 417.5,226 417.5,226 C417.5,226 399.2131,239.1496 380.7531,252.4096" fill="none" id="ProyectosController-to-ProyectoRepository-1" style="stroke:#181818;stroke-width:1;"/><polygon fill="#181818" points="375.88,255.91,385.5233,253.9081,379.9409,252.993,380.8561,247.4107,375.88,255.91" style="stroke:#181818;stroke-width:1;"/><text fill="#000000" font-family="sans-serif" font-size="12" lengthAdjust="spacing" textLength="261.5391" x="418.5" y="223.1387">buscarPorCriterio(criterio) : List&lt;Proyecto&gt;</text></g><!--link ProyectoRepository to Proyecto--><g class="link" data-entity-1="ent0007" data-entity-2="ent0008" data-link-type="association" data-source-line="25" id="lnk15"><path d="M353.5,290.2 C353.5,307.27 353.5,333.99 353.5,350.99" fill="none" id="ProyectoRepository-Proyecto" style="stroke:#181818;stroke-width:1;"/></g><!--link ListarProyectosView to AbrirProyecto--><g class="link" data-entity-1="ent0005" data-entity-2="ent0009" data-link-type="dependency" data-source-line="30" id="lnk18"><path d="M709.71,72.09 C760.17,85.35 823.5,102 823.5,102 C823.5,102 912.9757,127.2697 976.9757,145.3397" fill="none" id="ListarProyectosView-to-AbrirProyecto" style="stroke:#181818;stroke-width:1;stroke-dasharray:7,7;"/><polygon fill="#181818" points="982.75,146.97,975.1755,140.675,977.9381,145.6114,973.0017,148.374,982.75,146.97" style="stroke:#181818;stroke-width:1;"/><text fill="#000000" font-family="sans-serif" font-size="12" lengthAdjust="spacing" textLength="154.3535" x="876.5" y="114.1387">abrirProyecto(proyectoId)</text></g><!--link ListarProyectosView to CrearProyecto--><g class="link" data-entity-1="ent0005" data-entity-2="ent0010" data-link-type="dependency" data-source-line="31" id="lnk19"><path d="M719.31,64.33 C831.98,77.59 1039.5,102 1039.5,102 C1039.5,102 1133.3672,127.3367 1200.3272,145.4067" fill="none" id="ListarProyectosView-to-CrearProyecto" style="stroke:#181818;stroke-width:1;stroke-dasharray:7,7;"/><polygon fill="#181818" points="1206.12,146.97,1198.473,140.7633,1201.2927,145.6673,1196.3887,148.487,1206.12,146.97" style="stroke:#181818;stroke-width:1;"/><text fill="#000000" font-family="sans-serif" font-size="12" lengthAdjust="spacing" textLength="93.2051" x="1094.5" y="114.1387">crearProyecto()</text></g><!--link ListarProyectosView to AbrirPanelPrincipal--><g class="link" data-entity-1="ent0005" data-entity-2="ent0011" data-link-type="dependency" data-source-line="32" id="lnk20"><path d="M719.02,61.92 C867.03,74.34 1196.5,102 1196.5,102 C1196.5,102 1327.7521,127.7454 1419.9021,145.8154" fill="none" id="ListarProyectosView-to-AbrirPanelPrincipal" style="stroke:#181818;stroke-width:1;stroke-dasharray:7,7;"/><polygon fill="#181818" points="1425.79,146.97,1417.7279,141.3129,1420.8834,146.0079,1416.1885,149.1634,1425.79,146.97" style="stroke:#181818;stroke-width:1;"/><text fill="#000000" font-family="sans-serif" font-size="12" lengthAdjust="spacing" textLength="121.793" x="1272.5" y="114.1387">abrirPanelPrincipal()</text></g><!--link ListarProyectosView to ProyectosAbiertos--><g class="link" data-entity-1="ent0005" data-entity-2="ent0003" data-link-type="dependency" data-source-line="34" id="lnk21"><path d="M676.13,72.09 C698.91,85.35 727.5,102 727.5,102 C727.5,102 767.7571,125.8432 798.2771,143.9132" fill="none" id="ListarProyectosView-to-ProyectosAbiertos" style="stroke:#181818;stroke-width:1;stroke-dasharray:7,7;"/><polygon fill="#181818" points="803.44,146.97,797.7335,138.9428,799.1376,144.4226,793.6577,145.8267,803.44,146.97" style="stroke:#181818;stroke-width:1;"/><text fill="#000000" font-family="sans-serif" font-size="12" lengthAdjust="spacing" textLength="62.4551" x="752.5" y="114.1387">&#171;finalizar&#187;</text></g><?plantuml-src fPHHQzim4CVVzIcEv2LvS65XBQq91jTre33Qa9J1diRPLbnHLJ9dfI4j-rJx2FjYKxt4jbAbwvXVRFrrzxkp_eVg1w4g97o43FE7alHQ5OcMcc1pBmndTRjVtsEXDqALi49PztUk-0hNqioqCdzICsbP_e2bUERmQTBRb49niwquL5fkNnUC4SyDgb9o62PNwMLy2eCRVE8bvkBNJmLBKHl-Y0F06lQwLZlLbpnVt7vBaxlRvVVuyZfTs8ycTqvwQuDr7MU2atqpLjd6iUGmm8m4jG6ZSPFWYl32m3vTlS4Nsm9s0Ly5tpHv7Xs6PvEBT7PnY6Y34djOfANavFRQwJ3CJhFYxFmOOi4hNGkZQUiGEXc6iqcSV4wF0PoqDlY7rv_GEYynquJ6UW5n_wGQZgDyW90GHvVWA1_k0HMNSn8g5nNANYUEpjYREOA0WiZdN0Y7iy6Op-2WiFaUsq8xyKxqQ0nXKsYwboBcizi1TYw6e3F35QSxNRmFwpaV12tfNxjV2McettvEzg8WeV_tDx9rdLkkfcG7V8_iRVha97BdxC2hKRNxk2x6Hm7Ec8MGzvUZyL_gEbErh-w8nyRbbV7cGWfXEbq9XL8y8qNHRm00?></g></svg>