<svg xmlns="http://www.w3.org/2000/svg" xmlns:xlink="http://www.w3.org/1999/xlink" contentStyleType="text/css" data-diagram-type="STATE" height="780px" preserveAspectRatio="none" style="width:470px;height:780px;background:#FFFFFF;" version="1.1" viewBox="0 0 470 780" width="470px" zoomAndPan="magnify"><defs/><g><g><rect fill="#F1F1F1" height="50" rx="12.5" ry="12.5" style="stroke:#181818;stroke-width:0.5;" width="184.6846" x="7" y="7"/><line style="stroke:#181818;stroke-width:0.5;" x1="7" x2="191.6846" y1="33.2969" y2="33.2969"/><text fill="#000000" font-family="sans-serif" font-size="14" lengthAdjust="spacing" textLength="164.6846" x="17" y="24.9951">RECOMPENSA_ABIERTA</text></g><g><rect fill="#F1F1F1" height="50" rx="12.5" ry="12.5" style="stroke:#181818;stroke-width:0.5;" width="213.0879" x="226.8" y="7"/><line style="stroke:#181818;stroke-width:0.5;" x1="226.8" x2="439.8879" y1="33.2969" y2="33.2969"/><text fill="#000000" font-family="sans-serif" font-size="14" lengthAdjust="spacing" textLength="193.0879" x="236.8" y="24.9951">PANEL_PRINCIPAL_ABIERTO</text></g><path d="M49.34,152 L383.34,152 A12.5,12.5 0 0 1 395.84,164.5 L395.84,178.2969 L36.84,178.2969 L36.84,164.5 A12.5,12.5 0 0 1 49.34,152" fill="#F1F1F1"/><rect fill="none" height="477.2969" rx="12.5" ry="12.5" style="stroke:#181818;stroke-width:0.5;" width="359" x="36.84" y="152"/><line style="stroke:#181818;stroke-width:0.5;" x1="36.84" x2="395.84" y1="178.2969" y2="178.2969"/><text fill="#000000" font-family="sans-serif" font-size="14" lengthAdjust="spacing" textLength="141.5723" x="145.5539" y="169.9951">abrirRecompensas()</text><g><rect fill="#F1F1F1" height="50" rx="12.5" ry="12.5" style="stroke:#181818;stroke-width:0.5;" width="50" x="48.84" y="280.2969"/><line style="stroke:#181818;stroke-width:0.5;" x1="48.84" x2="98.84" y1="306.5938" y2="306.5938"/><text fill="#000000" font-family="sans-serif" font-size="14" lengthAdjust="spacing" textLength="4.4502" x="71.6149" y="298.292">&#160;</text></g><g><rect fill="#F1F1F1" height="50" rx="12.5" ry="12.5" style="stroke:#181818;stroke-width:0.5;" width="50" x="48.84" y="476.2969"/><line style="stroke:#181818;stroke-width:0.5;" x1="48.84" x2="98.84" y1="502.5938" y2="502.5938"/><text fill="#000000" font-family="sans-serif" font-size="14" lengthAdjust="spacing" textLength="4.4502" x="71.6149" y="494.292">&#160;</text></g><ellipse cx="73.84" cy="199.2969" fill="#222222" rx="10" ry="10" style="stroke:#222222;stroke-width:1;"/><ellipse cx="73.84" cy="608.2969" fill="none" rx="11" ry="11" style="stroke:#222222;stroke-width:1;"/><ellipse cx="73.84" cy="608.2969" fill="#222222" rx="6" ry="6" style="stroke:#222222;stroke-width:1;"/><!--link *start*abrirRecompensas to MostrandoListado--><g class="link" data-entity-1="ent0004" data-entity-2="ent0005" data-link-type="dependency" data-source-line="20" id="lnk5"><path d="M73.84,209.5269 C73.84,225.2369 73.84,251.6569 73.84,274.1669" fill="none" id="*start*abrirRecompensas-to-MostrandoListado" style="stroke:#008000;stroke-width:1;"/><polygon fill="#008000" points="73.84,280.1669,77.84,271.1669,73.84,275.1669,69.84,271.1669,73.84,280.1669" style="stroke:#008000;stroke-width:1;"/><path d="M78.84,232.2969 L78.84,257.2969 L365.84,257.2969 L365.84,242.2969 L355.84,232.2969 L78.84,232.2969" fill="#FEFFDD" style="stroke:#181818;stroke-width:0.5;"/><path d="M355.84,232.2969 L355.84,242.2969 L365.84,242.2969 L355.84,232.2969" fill="#FEFFDD" style="stroke:#181818;stroke-width:0.5;"/><text fill="#000000" font-family="sans-serif" font-size="13" font-weight="bold" lengthAdjust="spacing" textLength="90.251" x="84.84" y="249.3638">Coordinador</text><text fill="#000000" font-family="sans-serif" font-size="13" lengthAdjust="spacing" textLength="171.666" x="179.2233" y="249.3638">solicita abrir recompensas</text></g><!--link MostrandoListado to FiltrandoListado--><g class="link" data-entity-1="ent0005" data-entity-2="ent0006" data-link-type="dependency" data-source-line="25" id="lnk6"><path d="M73.84,330.4769 C73.84,367.6469 73.84,432.4569 73.84,469.8169" fill="none" id="MostrandoListado-to-FiltrandoListado" style="stroke:#008000;stroke-width:1;"/><polygon fill="#008000" points="73.84,475.8169,77.84,466.8169,73.84,470.8169,69.84,466.8169,73.84,475.8169" style="stroke:#008000;stroke-width:1;"/><path d="M78.84,353.2969 L78.84,453.2969 L378.84,453.2969 L378.84,363.2969 L368.84,353.2969 L78.84,353.2969" fill="#FEFFDD" style="stroke:#181818;stroke-width:0.5;"/><path d="M368.84,353.2969 L368.84,363.2969 L378.84,363.2969 L368.84,353.2969" fill="#FEFFDD" style="stroke:#181818;stroke-width:0.5;"/><text fill="#000000" font-family="sans-serif" font-size="13" font-weight="bold" lengthAdjust="spacing" textLength="58.9063" x="84.84" y="370.3638">Sistema</text><text fill="#000000" font-family="sans-serif" font-size="13" lengthAdjust="spacing" textLength="216.6899" x="147.8786" y="370.3638">presenta listado de recompensas</text><text fill="#000000" font-family="sans-serif" font-size="13" lengthAdjust="spacing" textLength="39.5586" x="84.84" y="385.4966">&#8226; Tipo</text><text fill="#000000" font-family="sans-serif" font-size="13" lengthAdjust="spacing" textLength="70.2622" x="84.84" y="400.6294">&#8226; Cantidad</text><text fill="#000000" font-family="sans-serif" font-size="13" font-weight="bold" lengthAdjust="spacing" textLength="58.9063" x="84.84" y="415.7622">Sistema</text><text fill="#000000" font-family="sans-serif" font-size="13" lengthAdjust="spacing" textLength="110.5952" x="147.8786" y="415.7622">permite solicitar:</text><text fill="#000000" font-family="sans-serif" font-size="13" lengthAdjust="spacing" textLength="126.7881" x="84.84" y="430.895">&#8226; abrir recompensa</text><text fill="#000000" font-family="sans-serif" font-size="13" lengthAdjust="spacing" textLength="130.0698" x="84.84" y="446.0278">&#8226; crear recompensa</text></g><!--link FiltrandoListado to *end*abrirRecompensas--><g class="link" data-entity-1="ent0006" data-entity-2="ent0007" data-link-type="dependency" data-source-line="35" id="lnk8"><path d="M73.84,526.6469 C73.84,548.9469 73.84,574.8569 73.84,591.0369" fill="none" id="FiltrandoListado-to-*end*abrirRecompensas" style="stroke:#008000;stroke-width:1;"/><polygon fill="#008000" points="73.84,597.0369,77.84,588.0369,73.84,592.0369,69.84,588.0369,73.84,597.0369" style="stroke:#008000;stroke-width:1;"/><path d="M78.84,549.2969 L78.84,574.2969 L386.84,574.2969 L386.84,559.2969 L376.84,549.2969 L78.84,549.2969" fill="#FEFFDD" style="stroke:#181818;stroke-width:0.5;"/><path d="M376.84,549.2969 L376.84,559.2969 L386.84,559.2969 L376.84,549.2969" fill="#FEFFDD" style="stroke:#181818;stroke-width:0.5;"/><text fill="#000000" font-family="sans-serif" font-size="13" font-weight="bold" lengthAdjust="spacing" textLength="90.251" x="84.84" y="566.3638">Coordinador</text><text fill="#000000" font-family="sans-serif" font-size="13" lengthAdjust="spacing" textLength="193.0322" x="179.2233" y="566.3638">solicita una opci&#243;n del listado</text></g><g><rect fill="#F1F1F1" height="50" rx="12.5" ry="12.5" style="stroke:#181818;stroke-width:0.5;" width="184.6846" x="124" y="724.3"/><line style="stroke:#181818;stroke-width:0.5;" x1="124" x2="308.6846" y1="750.5969" y2="750.5969"/><text fill="#000000" font-family="sans-serif" font-size="14" lengthAdjust="spacing" textLength="164.6846" x="134" y="742.2951">RECOMPENSA_ABIERTA</text></g><!--link in1 to abrirRecompensas--><g class="link" data-entity-1="ent0002" data-entity-2="ent0004" data-link-type="dependency" data-source-line="4" id="lnk2"><path d="M107.29,57.24 C114.42,78.95 123.7889,107.5392 136.4189,146.0192" fill="none" id="in1-to-abrirRecompensas" style="stroke:#008000;stroke-width:1;"/><polygon fill="#008000" points="138.29,151.72,139.2838,141.9214,136.7307,146.9693,131.6828,144.4162,138.29,151.72" style="stroke:#008000;stroke-width:1;"/><path d="M133.34,92 L133.34,117 L278.34,117 L278.34,102 L268.34,92 L133.34,92" fill="#FEFFDD" style="stroke:#181818;stroke-width:0.5;"/><path d="M268.34,92 L268.34,102 L278.34,102 L268.34,92" fill="#FEFFDD" style="stroke:#181818;stroke-width:0.5;"/><text fill="#000000" font-family="sans-serif" font-size="13" lengthAdjust="spacing" textLength="124.687" x="139.34" y="109.0669">abrirRecompensa()</text></g><!--link in2 to abrirRecompensas--><g class="link" data-entity-1="ent0003" data-entity-2="ent0004" data-link-type="dependency" data-source-line="10" id="lnk3"><path d="M325.39,57.24 C318.27,78.95 308.8898,107.5388 296.2698,146.0188" fill="none" id="in2-to-abrirRecompensas" style="stroke:#008000;stroke-width:1;"/><polygon fill="#008000" points="294.4,151.72,301.0055,144.4147,295.9582,146.969,293.4039,141.9216,294.4,151.72" style="stroke:#008000;stroke-width:1;"/><path d="M318.34,92 L318.34,117 L463.34,117 L463.34,102 L453.34,92 L318.34,92" fill="#FEFFDD" style="stroke:#181818;stroke-width:0.5;"/><path d="M453.34,92 L453.34,102 L463.34,102 L453.34,92" fill="#FEFFDD" style="stroke:#181818;stroke-width:0.5;"/><text fill="#000000" font-family="sans-serif" font-size="13" lengthAdjust="spacing" textLength="124.687" x="324.34" y="109.0669">abrirRecompensa()</text></g><!--link abrirRecompensas to RECOMPENSA_ABIERTA--><g class="link" data-entity-1="ent0004" data-entity-2="ent0009" data-link-type="dependency" data-source-line="42" id="lnk10"><path d="M127.43,629.63 C120.63,647.83 116.34,659.3 116.34,659.3 C116.34,659.3 116.34,694.3 116.34,694.3 C116.34,694.3 139.2807,706.6889 165.7407,720.9789" fill="none" id="abrirRecompensas-to-RECOMPENSA_ABIERTA" style="stroke:#008000;stroke-width:1;"/><polygon fill="#008000" points="171.02,723.83,165.0018,716.0338,166.6206,721.454,161.2003,723.0728,171.02,723.83" style="stroke:#008000;stroke-width:1;"/><path d="M121.34,664.3 L121.34,689.3 L266.34,689.3 L266.34,674.3 L256.34,664.3 L121.34,664.3" fill="#FEFFDD" style="stroke:#181818;stroke-width:0.5;"/><path d="M256.34,664.3 L256.34,674.3 L266.34,674.3 L256.34,664.3" fill="#FEFFDD" style="stroke:#181818;stroke-width:0.5;"/><text fill="#000000" font-family="sans-serif" font-size="13" lengthAdjust="spacing" textLength="124.687" x="127.34" y="681.3669">abrirRecompensa()</text></g><!--link abrirRecompensas to RECOMPENSA_ABIERTA--><g class="link" data-entity-1="ent0004" data-entity-2="ent0009" data-link-type="dependency" data-source-line="47" id="lnk11"><path d="M268.8,629.63 C272.81,647.83 275.34,659.3 275.34,659.3 C275.34,659.3 275.34,694.3 275.34,694.3 C275.34,694.3 263.1156,705.4886 247.5056,719.7786" fill="none" id="abrirRecompensas-to-RECOMPENSA_ABIERTA-1" style="stroke:#008000;stroke-width:1;"/><polygon fill="#008000" points="243.08,723.83,252.4194,720.7033,246.768,720.4538,247.0175,714.8025,243.08,723.83" style="stroke:#008000;stroke-width:1;"/><path d="M280.34,664.3 L280.34,689.3 L428.34,689.3 L428.34,674.3 L418.34,664.3 L280.34,664.3" fill="#FEFFDD" style="stroke:#181818;stroke-width:0.5;"/><path d="M418.34,664.3 L418.34,674.3 L428.34,674.3 L418.34,664.3" fill="#FEFFDD" style="stroke:#181818;stroke-width:0.5;"/><text fill="#000000" font-family="sans-serif" font-size="13" lengthAdjust="spacing" textLength="127.9688" x="286.34" y="681.3669">crearRecompensa()</text></g><!--SRC=[hPDBQiCm48RtEeLmDqaXb6PPGi0rBWJoC4vs8GJ56eg8FHAIkmYbqBFq2Zr2RzAJL7AUibreQUsLvl5_yuzbinMec6O5pGL2kLD0bSntxa28ALa9LE0jPOO6QHpD9aaydOVhy7uKfuim82xNMruzQW1SzOQKRRJGAMIoK8266OBIAaXqwbjIotQw191JLt9czIjM4axZyJf9HzDeb8JZ0t3cWFr_1TRxAtezsEa6z9aGQfzzLs1VMpYHfjGCkHmB6-UoMV4WSh-YAbbUhpmJhJgU4HSOR8QHb9eBj2LwSBCPKYDpaOcIxMrGVR47rt4swqvrYZT2Oz3lHfZRF1IimYiD1j3YyuCYXyOCdwzlT26KF1qYXgNWZBSAWYw4PHvzwRjJMztXAP5fO8s4xxnkpdDkFyRlz_s4Z4gLYOztjARpum9yzWiXf76_Bj7DF-hdr_TFmjNEMeM_0000]--></g></svg>