<?xml version="1.0" encoding="us-ascii" standalone="no"?><svg xmlns="http://www.w3.org/2000/svg" xmlns:xlink="http://www.w3.org/1999/xlink" contentStyleType="text/css" height="826px" preserveAspectRatio="none" style="width:682px;height:826px;background:#FFFFFF;" version="1.1" viewBox="0 0 682 826" width="682px" zoomAndPan="magnify"><defs/><g><g id="in1"><rect fill="#F1F1F1" height="50" rx="12.5" ry="12.5" style="stroke:#181818;stroke-width:0.5;" width="198" x="239" y="7"/><line style="stroke:#181818;stroke-width:0.5;" x1="239" x2="437" y1="34.6094" y2="34.6094"/><text fill="#000000" font-family="sans-serif" font-size="14" lengthAdjust="spacing" textLength="178" x="249" y="26.5332">MI_PUBLICACION_ABIERTA</text></g><path d="M19.5,118 L656.7735,118 A12.5,12.5 0 0 1 669.2735,130.5 L669.2735,145.6094 L7,145.6094 L7,130.5 A12.5,12.5 0 0 1 19.5,118 " fill="#F1F1F1" style="stroke:#F1F1F1;stroke-width:1.0;"/><rect fill="none" height="555.6094" rx="12.5" ry="12.5" style="stroke:#181818;stroke-width:0.5;" width="662.2735" x="7" y="118"/><line style="stroke:#181818;stroke-width:0.5;" x1="7" x2="669.2735" y1="145.6094" y2="145.6094"/><text fill="#000000" font-family="sans-serif" font-size="14" lengthAdjust="spacing" textLength="131" x="272.6368" y="137.5332">eliminarPublicacion()</text><g id="eliminarPublicacion.ConfirmandoEliminacion"><rect fill="#F1F1F1" height="50" rx="12.5" ry="12.5" style="stroke:#181818;stroke-width:0.5;" width="50" x="179.2735" y="248.6094"/><line style="stroke:#181818;stroke-width:0.5;" x1="179.2735" x2="229.2735" y1="276.2188" y2="276.2188"/><text fill="#000000" font-family="sans-serif" font-size="14" lengthAdjust="spacing" textLength="4" x="202.2735" y="268.1426">&#160;</text></g><g id="eliminarPublicacion.Eliminando"><rect fill="#F1F1F1" height="50" rx="12.5" ry="12.5" style="stroke:#181818;stroke-width:0.5;" width="50" x="22.2735" y="502.6094"/><line style="stroke:#181818;stroke-width:0.5;" x1="22.2735" x2="72.2735" y1="530.2188" y2="530.2188"/><text fill="#000000" font-family="sans-serif" font-size="14" lengthAdjust="spacing" textLength="4" x="45.2735" y="522.1426">&#160;</text></g><ellipse cx="204.2735" cy="166.6094" fill="#222222" rx="10" ry="10" style="stroke:#222222;stroke-width:1.0;"/><ellipse cx="226.2735" cy="652.6094" fill="none" rx="11" ry="11" style="stroke:#222222;stroke-width:1.0;"/><ellipse cx="226.2735" cy="652.6094" fill="#222222" rx="6" ry="6" style="stroke:#222222;stroke-width:1.0;"/><!--link *start*eliminarPublicacion to ConfirmandoEliminacion--><g id="link_*start*eliminarPublicacion_ConfirmandoEliminacion"><path d="M204.2735,176.9294 C204.2735,192.7894 204.2735,219.5194 204.2735,242.2494 " fill="none" id="*start*eliminarPublicacion-to-ConfirmandoEliminacion" style="stroke:#008000;stroke-width:1.0;"/><polygon fill="#008000" points="204.2735,248.2494,208.2735,239.2494,204.2735,243.2494,200.2735,239.2494,204.2735,248.2494" style="stroke:#008000;stroke-width:1.0;"/><path d="M209.2735,199.6094 L209.2735,225.6094 L536.2735,225.6094 L536.2735,209.6094 L526.2735,199.6094 L209.2735,199.6094 " fill="#FEFFDD" style="stroke:#181818;stroke-width:0.5;"/><path d="M526.2735,199.6094 L526.2735,209.6094 L536.2735,209.6094 L526.2735,199.6094 " fill="#FEFFDD" style="stroke:#181818;stroke-width:0.5;"/><text fill="#000000" font-family="sans-serif" font-size="13" font-weight="bold" lengthAdjust="spacing" textLength="79" x="215.2735" y="218.1045">Coordinador</text><text fill="#000000" font-family="sans-serif" font-size="13" lengthAdjust="spacing" textLength="223" x="298.2735" y="218.1045">solicita eliminar una publicaci&#243;n propia</text></g><!--link ConfirmandoEliminacion to Eliminando--><g id="link_ConfirmandoEliminacion_Eliminando"><path d="M179.1435,280.5394 C130.0835,292.1194 26.2735,316.6094 26.2735,316.6094 C26.2735,316.6094 26.2735,483.6094 26.2735,483.6094 C26.2735,483.6094 28.1007,487.3579 32.9107,497.2079 " fill="none" id="ConfirmandoEliminacion-to-Eliminando" style="stroke:#008000;stroke-width:1.0;"/><polygon fill="#008000" points="35.5435,502.5994,35.1887,492.7569,33.3495,498.1065,28,496.2673,35.5435,502.5994" style="stroke:#008000;stroke-width:1.0;"/><path d="M31.2735,321.6094 L31.2735,478.6094 L364.2735,478.6094 L364.2735,331.6094 L354.2735,321.6094 L31.2735,321.6094 " fill="#FEFFDD" style="stroke:#181818;stroke-width:0.5;"/><path d="M354.2735,321.6094 L354.2735,331.6094 L364.2735,331.6094 L354.2735,321.6094 " fill="#FEFFDD" style="stroke:#181818;stroke-width:0.5;"/><text fill="#000000" font-family="sans-serif" font-size="13" font-weight="bold" lengthAdjust="spacing" textLength="51" x="37.2735" y="340.1045">Sistema</text><text fill="#000000" font-family="sans-serif" font-size="13" lengthAdjust="spacing" textLength="257" x="92.2735" y="340.1045">presenta la confirmaci&#243;n de eliminaci&#243;n con:</text><text fill="#000000" font-family="sans-serif" font-size="13" lengthAdjust="spacing" textLength="21" x="37.2735" y="356.4561">&#8226; ID</text><text fill="#000000" font-family="sans-serif" font-size="13" lengthAdjust="spacing" textLength="40" x="37.2735" y="372.8076">&#8226; T&#237;tulo</text><text fill="#000000" font-family="sans-serif" font-size="13" lengthAdjust="spacing" textLength="50" x="37.2735" y="389.1592">&#8226; Estado</text><text fill="#000000" font-family="sans-serif" font-size="13" lengthAdjust="spacing" textLength="68" x="37.2735" y="405.5107">&#8226; Visibilidad</text><text fill="#000000" font-family="sans-serif" font-size="13" lengthAdjust="spacing" textLength="4" x="37.2735" y="421.8623">&#160;</text><text fill="#000000" font-family="sans-serif" font-size="13" lengthAdjust="spacing" textLength="247" x="37.2735" y="438.2139">y permite solicitar las siguientes acciones:</text><text fill="#000000" font-family="sans-serif" font-size="13" lengthAdjust="spacing" textLength="145" x="37.2735" y="454.5654">&#8226; Eliminar definitivamente</text><text fill="#000000" font-family="sans-serif" font-size="13" lengthAdjust="spacing" textLength="60" x="37.2735" y="470.917">&#8226; Cancelar</text></g><!--link Eliminando to *end*eliminarPublicacion--><g id="link_Eliminando_*end*eliminarPublicacion"><path d="M64.0135,553.0694 C83.2735,581.2194 112.2735,623.6094 112.2735,623.6094 C112.2735,623.6094 181.7071,640.6565 209.9271,647.5965 " fill="none" id="Eliminando-to-*end*eliminarPublicacion" style="stroke:#008000;stroke-width:1.0;"/><polygon fill="#008000" points="215.7535,649.0294,207.9692,642.9958,210.8982,647.8353,206.0587,650.7644,215.7535,649.0294" style="stroke:#008000;stroke-width:1.0;"/><path d="M117.2735,576.6094 L117.2735,618.6094 L364.2735,618.6094 L364.2735,586.6094 L354.2735,576.6094 L117.2735,576.6094 " fill="#FEFFDD" style="stroke:#181818;stroke-width:0.5;"/><path d="M354.2735,576.6094 L354.2735,586.6094 L364.2735,586.6094 L354.2735,576.6094 " fill="#FEFFDD" style="stroke:#181818;stroke-width:0.5;"/><text fill="#000000" font-family="sans-serif" font-size="13" font-weight="bold" lengthAdjust="spacing" textLength="51" x="123.2735" y="595.1045">Sistema</text><text fill="#000000" font-family="sans-serif" font-size="13" lengthAdjust="spacing" textLength="124" x="178.2735" y="595.1045">elimina la publicaci&#243;n</text><text fill="#000000" font-family="sans-serif" font-size="13" lengthAdjust="spacing" textLength="226" x="123.2735" y="611.4561">y visualiza un mensaje de confirmaci&#243;n</text></g><!--link ConfirmandoEliminacion to *end*eliminarPublicacion--><g id="link_ConfirmandoEliminacion_*end*eliminarPublicacion"><path d="M229.3335,280.9894 C275.4935,292.7394 369.2735,316.6094 369.2735,316.6094 C369.2735,316.6094 369.2735,623.6094 369.2735,623.6094 C369.2735,623.6094 276.1614,641.8348 242.9114,648.3548 " fill="none" id="ConfirmandoEliminacion-to-*end*eliminarPublicacion" style="stroke:#FF0000;stroke-width:1.0;"/><polygon fill="#FF0000" points="237.0235,649.5094,246.6251,651.7028,241.9301,648.5472,245.0856,643.8523,237.0235,649.5094" style="stroke:#FF0000;stroke-width:1.0;"/><path d="M374.2735,506.6094 L374.2735,548.6094 L660.2735,548.6094 L660.2735,516.6094 L650.2735,506.6094 L374.2735,506.6094 " fill="#FEFFDD" style="stroke:#181818;stroke-width:0.5;"/><path d="M650.2735,506.6094 L650.2735,516.6094 L660.2735,516.6094 L650.2735,506.6094 " fill="#FEFFDD" style="stroke:#181818;stroke-width:0.5;"/><text fill="#000000" font-family="sans-serif" font-size="13" font-weight="bold" lengthAdjust="spacing" textLength="79" x="380.2735" y="525.1045">Coordinador</text><text fill="#000000" font-family="sans-serif" font-size="13" lengthAdjust="spacing" textLength="94" x="463.2735" y="525.1045">solicita cancelar</text><text fill="#000000" font-family="sans-serif" font-size="13" font-weight="bold" lengthAdjust="spacing" textLength="51" x="380.2735" y="541.4561">Sistema</text><text fill="#000000" font-family="sans-serif" font-size="13" lengthAdjust="spacing" textLength="210" x="435.2735" y="541.4561">mantiene la publicaci&#243;n sin cambios</text></g><g id="MIS_PUBLICACIONES_ABIERTAS"><rect fill="#F1F1F1" height="50" rx="12.5" ry="12.5" style="stroke:#181818;stroke-width:0.5;" width="234" x="96" y="770"/><line style="stroke:#181818;stroke-width:0.5;" x1="96" x2="330" y1="797.6094" y2="797.6094"/><text fill="#000000" font-family="sans-serif" font-size="14" lengthAdjust="spacing" textLength="214" x="106" y="789.5332">MIS_PUBLICACIONES_ABIERTAS</text></g><g id="MI_PUBLICACION_ABIERTA"><rect fill="#F1F1F1" height="50" rx="12.5" ry="12.5" style="stroke:#181818;stroke-width:0.5;" width="198" x="365" y="770"/><line style="stroke:#181818;stroke-width:0.5;" x1="365" x2="563" y1="797.6094" y2="797.6094"/><text fill="#000000" font-family="sans-serif" font-size="14" lengthAdjust="spacing" textLength="178" x="375" y="789.5332">MI_PUBLICACION_ABIERTA</text></g><!--link in1 to eliminarPublicacion--><g id="link_in1_eliminarPublicacion"><path d="M338,57.03 C338,72.11 338,87.33 338,111.86 " fill="none" id="in1-to-eliminarPublicacion" style="stroke:#008000;stroke-width:1.0;"/><polygon fill="#008000" points="338,117.86,342,108.86,338,112.86,334,108.86,338,117.86" style="stroke:#008000;stroke-width:1.0;"/></g><!--link eliminarPublicacion to MIS_PUBLICACIONES_ABIERTAS--><g id="link_eliminarPublicacion_MIS_PUBLICACIONES_ABIERTAS"><path d="M250.76,674.08 C238.38,713.4 229.3416,742.0869 222.4916,763.8469 " fill="none" id="eliminarPublicacion-to-MIS_PUBLICACIONES_ABIERTAS" style="stroke:#008000;stroke-width:1.0;"/><polygon fill="#008000" points="220.69,769.57,227.2079,762.1864,222.1914,764.8007,219.577,759.7842,220.69,769.57" style="stroke:#008000;stroke-width:1.0;"/><path d="M246,709 L246,735 L393,735 L393,719 L383,709 L246,709 " fill="#FEFFDD" style="stroke:#181818;stroke-width:0.5;"/><path d="M383,709 L383,719 L393,719 L383,709 " fill="#FEFFDD" style="stroke:#181818;stroke-width:0.5;"/><text fill="#000000" font-family="sans-serif" font-size="13" lengthAdjust="spacing" textLength="126" x="252" y="727.4951">Publicaci&#243;n eliminada</text></g><!--link eliminarPublicacion to MI_PUBLICACION_ABIERTA--><g id="link_eliminarPublicacion_MI_PUBLICACION_ABIERTA"><path d="M425.94,674.08 C438.42,713.4 447.524,742.0914 454.434,763.8514 " fill="none" id="eliminarPublicacion-to-MI_PUBLICACION_ABIERTA" style="stroke:#FF0000;stroke-width:1.0;"/><polygon fill="#FF0000" points="456.25,769.57,457.3384,759.7815,454.7367,764.8045,449.7137,762.2028,456.25,769.57" style="stroke:#FF0000;stroke-width:1.0;"/><path d="M450,709 L450,735 L601,735 L601,719 L591,709 L450,709 " fill="#FEFFDD" style="stroke:#181818;stroke-width:0.5;"/><path d="M591,709 L591,719 L601,719 L591,709 " fill="#FEFFDD" style="stroke:#181818;stroke-width:0.5;"/><text fill="#000000" font-family="sans-serif" font-size="13" lengthAdjust="spacing" textLength="130" x="456" y="727.4951">Eliminaci&#243;n cancelada</text></g><!--SRC=[bPHDRjH048NtVOhIi06aACesYaQQE5vO8ic82MoYA2gxAr6HThVLRKSQ419dOS-A8-Gcd8JoxzZ1Gy2pSRlBxxtwoZtXWMs17dCmRAdS5WI5CzjweLGeiIHWUmGOO76UtAu_dBvBebMKN5xShawJ-FtLQg7g_OFhL_UUoDuSB84CvspHhwlKS8OPEzjBpMmrqZFFNxzPm1UbGAxstONyf3PozevzZbQxk7shCVYZhjkKibRa-ktD9ELVTAmJ6Kac41wQ1oVfCdBEQodIpfySfai8Je9oYKDBK5c4ei__zDD2uLt1s0YGrOrg6sNUUf9kb7vVeWs7ad9iqXIU0bb9On2oJhqDeGVexLfsZnk5Nz- -Gt8st5uz_IWhuuPrB33rRlcH0wTiMADkUzX2GJvdYTMJy68U8F1znHA50c1MjqLXvnVth3JTiUMI7p6lQuU226r61lqCj1sH2IWPwpyHwY3KWCP3wdfvv52XuSyeKmI95F0JrUWcBFzhafxqI_7sVbBPcCApFiIh5Bxql141ByF5F6KNfa6_AZLtxCOGpvFD-6Z7c_vmRzGa-7fis8bgL3icUumw6FD_85EBUFAnjY365hy1]--></g></svg>