<?xml version="1.0" encoding="us-ascii" standalone="no"?><svg xmlns="http://www.w3.org/2000/svg" xmlns:xlink="http://www.w3.org/1999/xlink" contentStyleType="text/css" height="1013px" preserveAspectRatio="none" style="width:1144px;height:1013px;background:#FFFFFF;" version="1.1" viewBox="0 0 1144 1013" width="1144px" zoomAndPan="magnify"><defs/><g><g id="in1"><rect fill="#F1F1F1" height="50" rx="12.5" ry="12.5" style="stroke:#181818;stroke-width:0.5;" width="180" x="479" y="7"/><line style="stroke:#181818;stroke-width:0.5;" x1="479" x2="659" y1="34.6094" y2="34.6094"/><text fill="#000000" font-family="sans-serif" font-size="14" lengthAdjust="spacing" textLength="160" x="489" y="26.5332">ENTREGABLE_ABIERTO</text></g><path d="M19.5,118 L1118.5,118 A12.5,12.5 0 0 1 1131,130.5 L1131,145.6094 L7,145.6094 L7,130.5 A12.5,12.5 0 0 1 19.5,118 " fill="#F1F1F1" style="stroke:#F1F1F1;stroke-width:1.0;"/><rect fill="none" height="742.6094" rx="12.5" ry="12.5" style="stroke:#181818;stroke-width:0.5;" width="1124" x="7" y="118"/><line style="stroke:#181818;stroke-width:0.5;" x1="7" x2="1131" y1="145.6094" y2="145.6094"/><text fill="#000000" font-family="sans-serif" font-size="14" lengthAdjust="spacing" textLength="115" x="511.5" y="137.5332">editarEntregable()</text><g id="editarEntregable.SolicitandoEdicion"><rect fill="#F1F1F1" height="50" rx="12.5" ry="12.5" style="stroke:#181818;stroke-width:0.5;" width="50" x="291" y="248.6094"/><line style="stroke:#181818;stroke-width:0.5;" x1="291" x2="341" y1="276.2188" y2="276.2188"/><text fill="#000000" font-family="sans-serif" font-size="14" lengthAdjust="spacing" textLength="4" x="314" y="268.1426">&#160;</text></g><g id="editarEntregable.IntroduciendoCambios"><rect fill="#F1F1F1" height="50" rx="12.5" ry="12.5" style="stroke:#181818;stroke-width:0.5;" width="50" x="291" y="550.6094"/><line style="stroke:#181818;stroke-width:0.5;" x1="291" x2="341" y1="578.2188" y2="578.2188"/><text fill="#000000" font-family="sans-serif" font-size="14" lengthAdjust="spacing" textLength="4" x="314" y="570.1426">&#160;</text></g><g id="editarEntregable.ValidandoDatos"><rect fill="#F1F1F1" height="50" rx="12.5" ry="12.5" style="stroke:#181818;stroke-width:0.5;" width="50" x="291" y="689.6094"/><line style="stroke:#181818;stroke-width:0.5;" x1="291" x2="341" y1="717.2188" y2="717.2188"/><text fill="#000000" font-family="sans-serif" font-size="14" lengthAdjust="spacing" textLength="4" x="314" y="709.1426">&#160;</text></g><ellipse cx="316" cy="166.6094" fill="#222222" rx="10" ry="10" style="stroke:#222222;stroke-width:1.0;"/><ellipse cx="553" cy="839.6094" fill="none" rx="11" ry="11" style="stroke:#222222;stroke-width:1.0;"/><ellipse cx="553" cy="839.6094" fill="#222222" rx="6" ry="6" style="stroke:#222222;stroke-width:1.0;"/><!--link *start*editarEntregable to SolicitandoEdicion--><g id="link_*start*editarEntregable_SolicitandoEdicion"><path d="M316,176.9294 C316,192.7894 316,219.5194 316,242.2494 " fill="none" id="*start*editarEntregable-to-SolicitandoEdicion" style="stroke:#008000;stroke-width:1.0;"/><polygon fill="#008000" points="316,248.2494,320,239.2494,316,243.2494,312,239.2494,316,248.2494" style="stroke:#008000;stroke-width:1.0;"/><path d="M321,199.6094 L321,225.6094 L580,225.6094 L580,209.6094 L570,199.6094 L321,199.6094 " fill="#FEFFDD" style="stroke:#181818;stroke-width:0.5;"/><path d="M570,199.6094 L570,209.6094 L580,209.6094 L570,199.6094 " fill="#FEFFDD" style="stroke:#181818;stroke-width:0.5;"/><text fill="#000000" font-family="sans-serif" font-size="13" font-weight="bold" lengthAdjust="spacing" textLength="79" x="327" y="218.1045">Coordinador</text><text fill="#000000" font-family="sans-serif" font-size="13" lengthAdjust="spacing" textLength="155" x="410" y="218.1045">solicita editar el entregable</text></g><!--link SolicitandoEdicion to IntroduciendoCambios--><g id="link_SolicitandoEdicion_IntroduciendoCambios"><path d="M316,298.6494 C316,354.8294 316,488.1694 316,544.4494 " fill="none" id="SolicitandoEdicion-to-IntroduciendoCambios" style="stroke:#008000;stroke-width:1.0;"/><polygon fill="#008000" points="316,550.4494,320,541.4494,316,545.4494,312,541.4494,316,550.4494" style="stroke:#008000;stroke-width:1.0;"/><path d="M321,321.6094 L321,527.6094 L726,527.6094 L726,331.6094 L716,321.6094 L321,321.6094 " fill="#FEFFDD" style="stroke:#181818;stroke-width:0.5;"/><path d="M716,321.6094 L716,331.6094 L726,331.6094 L716,321.6094 " fill="#FEFFDD" style="stroke:#181818;stroke-width:0.5;"/><text fill="#000000" font-family="sans-serif" font-size="13" font-weight="bold" lengthAdjust="spacing" textLength="51" x="327" y="340.1045">Sistema</text><text fill="#000000" font-family="sans-serif" font-size="13" lengthAdjust="spacing" textLength="176" x="382" y="340.1045">presenta la pantalla de edici&#243;n</text><text fill="#000000" font-family="sans-serif" font-size="13" font-weight="bold" lengthAdjust="spacing" textLength="51" x="327" y="356.4561">Sistema</text><text fill="#000000" font-family="sans-serif" font-size="13" lengthAdjust="spacing" textLength="329" x="382" y="356.4561">muestra los datos actuales y permite introducir cambios:</text><text fill="#000000" font-family="sans-serif" font-size="13" lengthAdjust="spacing" textLength="40" x="327" y="372.8076">&#8226; T&#237;tulo</text><text fill="#000000" font-family="sans-serif" font-size="13" lengthAdjust="spacing" textLength="33" x="327" y="389.1592">&#8226; Tipo</text><text fill="#000000" font-family="sans-serif" font-size="13" lengthAdjust="spacing" textLength="80" x="327" y="405.5107">&#8226; Fecha l&#237;mite</text><text fill="#000000" font-family="sans-serif" font-size="13" lengthAdjust="spacing" textLength="50" x="327" y="421.8623">&#8226; Estado</text><text fill="#000000" font-family="sans-serif" font-size="13" lengthAdjust="spacing" textLength="137" x="327" y="438.2139">&#8226; Descripci&#243;n (si aplica)</text><text fill="#000000" font-family="sans-serif" font-size="13" lengthAdjust="spacing" textLength="157" x="327" y="454.5654">&#8226; Archivo adjunto (si aplica)</text><text fill="#000000" font-family="sans-serif" font-size="13" lengthAdjust="spacing" textLength="4" x="327" y="470.917">&#160;</text><text fill="#000000" font-family="sans-serif" font-size="13" font-weight="bold" lengthAdjust="spacing" textLength="51" x="327" y="487.2686">Sistema</text><text fill="#000000" font-family="sans-serif" font-size="13" lengthAdjust="spacing" textLength="96" x="382" y="487.2686">permite solicitar:</text><text fill="#000000" font-family="sans-serif" font-size="13" lengthAdjust="spacing" textLength="108" x="327" y="503.6201">&#8226; Guardar cambios</text><text fill="#000000" font-family="sans-serif" font-size="13" lengthAdjust="spacing" textLength="105" x="327" y="519.9717">&#8226; Cancelar edici&#243;n</text></g><!--link IntroduciendoCambios to ValidandoDatos--><g id="link_IntroduciendoCambios_ValidandoDatos"><path d="M290.85,580.1494 C219.01,590.2794 18,618.6094 18,618.6094 C18,618.6094 18,670.6094 18,670.6094 C18,670.6094 213.0715,698.7522 284.9115,709.1222 " fill="none" id="IntroduciendoCambios-to-ValidandoDatos" style="stroke:#008000;stroke-width:1.0;"/><polygon fill="#008000" points="290.85,709.9794,282.5138,704.7346,285.9013,709.265,281.3709,712.6525,290.85,709.9794" style="stroke:#008000;stroke-width:1.0;"/><path d="M23,631.6094 L23,657.6094 L289,657.6094 L289,641.6094 L279,631.6094 L23,631.6094 " fill="#FEFFDD" style="stroke:#181818;stroke-width:0.5;"/><path d="M279,631.6094 L279,641.6094 L289,641.6094 L279,631.6094 " fill="#FEFFDD" style="stroke:#181818;stroke-width:0.5;"/><text fill="#000000" font-family="sans-serif" font-size="13" font-weight="bold" lengthAdjust="spacing" textLength="79" x="29" y="650.1045">Coordinador</text><text fill="#000000" font-family="sans-serif" font-size="13" lengthAdjust="spacing" textLength="162" x="112" y="650.1045">solicita guardar los cambios</text></g><!--link ValidandoDatos to *end*editarEntregable--><g id="link_ValidandoDatos_*end*editarEntregable"><path d="M337.12,740.0694 C361.41,768.2194 398,810.6094 398,810.6094 C398,810.6094 501.4257,829.2921 536.4457,835.6221 " fill="none" id="ValidandoDatos-to-*end*editarEntregable" style="stroke:#008000;stroke-width:1.0;"/><polygon fill="#008000" points="542.35,836.6894,534.205,831.1523,537.4297,835.8,532.782,839.0247,542.35,836.6894" style="stroke:#008000;stroke-width:1.0;"/><path d="M403,763.6094 L403,805.6094 L770,805.6094 L770,773.6094 L760,763.6094 L403,763.6094 " fill="#FEFFDD" style="stroke:#181818;stroke-width:0.5;"/><path d="M760,763.6094 L760,773.6094 L770,773.6094 L760,763.6094 " fill="#FEFFDD" style="stroke:#181818;stroke-width:0.5;"/><text fill="#000000" font-family="sans-serif" font-size="13" font-weight="bold" lengthAdjust="spacing" textLength="51" x="409" y="782.1045">Sistema</text><text fill="#000000" font-family="sans-serif" font-size="13" lengthAdjust="spacing" textLength="271" x="464" y="782.1045">permite solicitar la actualizaci&#243;n del entregable</text><text fill="#000000" font-family="sans-serif" font-size="13" font-weight="bold" lengthAdjust="spacing" textLength="51" x="409" y="798.4561">Sistema</text><text fill="#000000" font-family="sans-serif" font-size="13" lengthAdjust="spacing" textLength="291" x="464" y="798.4561">presenta y visualiza el entregable con los cambios</text></g><!--link ValidandoDatos to IntroduciendoCambios--><g id="link_ValidandoDatos_IntroduciendoCambios"><path d="M316,689.2094 C316,664.2394 316,631.6794 316,606.7894 " fill="none" id="ValidandoDatos-to-IntroduciendoCambios" style="stroke:#FF0000;stroke-width:1.0;"/><polygon fill="#FF0000" points="316,600.7894,312,609.7894,316,605.7894,320,609.7894,316,600.7894" style="stroke:#FF0000;stroke-width:1.0;"/><path d="M321,623.6094 L321,665.6094 L769,665.6094 L769,633.6094 L759,623.6094 L321,623.6094 " fill="#FEFFDD" style="stroke:#181818;stroke-width:0.5;"/><path d="M759,623.6094 L759,633.6094 L769,633.6094 L759,623.6094 " fill="#FEFFDD" style="stroke:#181818;stroke-width:0.5;"/><text fill="#000000" font-family="sans-serif" font-size="13" font-weight="bold" lengthAdjust="spacing" textLength="51" x="327" y="642.1045">Sistema</text><text fill="#000000" font-family="sans-serif" font-size="13" lengthAdjust="spacing" textLength="183" x="382" y="642.1045">muestra errores de introducci&#243;n</text><text fill="#000000" font-family="sans-serif" font-size="13" font-weight="bold" lengthAdjust="spacing" textLength="51" x="327" y="658.4561">Sistema</text><text fill="#000000" font-family="sans-serif" font-size="13" lengthAdjust="spacing" textLength="372" x="382" y="658.4561">permite introducir correcciones y mantiene la pantalla de edici&#243;n</text></g><!--link IntroduciendoCambios to *end*editarEntregable--><g id="link_IntroduciendoCambios_*end*editarEntregable"><path d="M341,578.8994 C436.79,587.6594 775,618.6094 775,618.6094 C775,618.6094 775,810.6094 775,810.6094 C775,810.6094 614.7528,830.8185 569.9628,836.4685 " fill="none" id="IntroduciendoCambios-to-*end*editarEntregable" style="stroke:#FF0000;stroke-width:1.0;"/><polygon fill="#FF0000" points="564.01,837.2194,573.4398,840.0616,568.9707,836.5936,572.4386,832.1245,564.01,837.2194" style="stroke:#FF0000;stroke-width:1.0;"/><path d="M780,693.6094 L780,735.6094 L1122,735.6094 L1122,703.6094 L1112,693.6094 L780,693.6094 " fill="#FEFFDD" style="stroke:#181818;stroke-width:0.5;"/><path d="M1112,693.6094 L1112,703.6094 L1122,703.6094 L1112,693.6094 " fill="#FEFFDD" style="stroke:#181818;stroke-width:0.5;"/><text fill="#000000" font-family="sans-serif" font-size="13" font-weight="bold" lengthAdjust="spacing" textLength="79" x="786" y="712.1045">Coordinador</text><text fill="#000000" font-family="sans-serif" font-size="13" lengthAdjust="spacing" textLength="153" x="869" y="712.1045">solicita cancelar la edici&#243;n</text><text fill="#000000" font-family="sans-serif" font-size="13" font-weight="bold" lengthAdjust="spacing" textLength="51" x="786" y="728.4561">Sistema</text><text fill="#000000" font-family="sans-serif" font-size="13" lengthAdjust="spacing" textLength="266" x="841" y="728.4561">presenta y visualiza el entregable sin cambios</text></g><g id="ENTREGABLE_ABIERTO"><rect fill="#F1F1F1" height="50" rx="12.5" ry="12.5" style="stroke:#181818;stroke-width:0.5;" width="180" x="278" y="957"/><line style="stroke:#181818;stroke-width:0.5;" x1="278" x2="458" y1="984.6094" y2="984.6094"/><text fill="#000000" font-family="sans-serif" font-size="14" lengthAdjust="spacing" textLength="160" x="288" y="976.5332">ENTREGABLE_ABIERTO</text></g><g id="ENTREGABLES_ABIERTOS"><rect fill="#F1F1F1" height="50" rx="12.5" ry="12.5" style="stroke:#181818;stroke-width:0.5;" width="198" x="652" y="957"/><line style="stroke:#181818;stroke-width:0.5;" x1="652" x2="850" y1="984.6094" y2="984.6094"/><text fill="#000000" font-family="sans-serif" font-size="14" lengthAdjust="spacing" textLength="178" x="662" y="976.5332">ENTREGABLES_ABIERTOS</text></g><!--link in1 to editarEntregable--><g id="link_in1_editarEntregable"><path d="M569,57.17 C569,72.07 569,87.05 569,111.81 " fill="none" id="in1-to-editarEntregable" style="stroke:#008000;stroke-width:1.0;"/><polygon fill="#008000" points="569,117.81,573,108.81,569,112.81,565,108.81,569,117.81" style="stroke:#008000;stroke-width:1.0;"/></g><!--link editarEntregable to ENTREGABLE_ABIERTO--><g id="link_editarEntregable_ENTREGABLE_ABIERTO"><path d="M319.07,861.22 C306.53,879.83 299,891 299,891 C299,891 299,927 299,927 C299,927 314.0342,938.7732 332.4042,953.1432 " fill="none" id="editarEntregable-to-ENTREGABLE_ABIERTO" style="stroke:#008000;stroke-width:1.0;"/><polygon fill="#008000" points="337.13,956.84,332.5058,948.1442,333.1918,953.7593,327.5767,954.4453,337.13,956.84" style="stroke:#008000;stroke-width:1.0;"/><path d="M304,896 L304,922 L433,922 L433,906 L423,896 L304,896 " fill="#FEFFDD" style="stroke:#181818;stroke-width:0.5;"/><path d="M423,896 L423,906 L433,906 L423,896 " fill="#FEFFDD" style="stroke:#181818;stroke-width:0.5;"/><text fill="#000000" font-family="sans-serif" font-size="13" lengthAdjust="spacing" textLength="108" x="310" y="914.4951">Entregable editado</text></g><!--link editarEntregable to ENTREGABLE_ABIERTO--><g id="link_editarEntregable_ENTREGABLE_ABIERTO"><path d="M461.15,861.18 C449.63,900.77 442,927 442,927 C442,927 425.6583,938.9353 405.9483,953.3053 " fill="none" id="editarEntregable-to-ENTREGABLE_ABIERTO-1" style="stroke:#FF0000;stroke-width:1.0;"/><polygon fill="#FF0000" points="401.1,956.84,410.7289,954.7701,405.1402,953.8944,406.0159,948.3057,401.1,956.84" style="stroke:#FF0000;stroke-width:1.0;"/><path d="M456,896 L456,922 L583,922 L583,906 L573,896 L456,896 " fill="#FEFFDD" style="stroke:#181818;stroke-width:0.5;"/><path d="M573,896 L573,906 L583,906 L573,896 " fill="#FEFFDD" style="stroke:#181818;stroke-width:0.5;"/><text fill="#000000" font-family="sans-serif" font-size="13" lengthAdjust="spacing" textLength="106" x="462" y="914.4951">Edici&#243;n cancelada</text></g><!--link editarEntregable to ENTREGABLES_ABIERTOS--><g id="link_editarEntregable_ENTREGABLES_ABIERTOS"><path d="M642.03,861.18 C649.83,900.77 655,927 655,927 C655,927 677.2599,939.5296 702.8199,953.8996 " fill="none" id="editarEntregable-to-ENTREGABLES_ABIERTOS" style="stroke:#008000;stroke-width:1.0;"/><polygon fill="#008000" points="708.05,956.84,702.1651,948.9427,703.6916,954.3897,698.2446,955.9161,708.05,956.84" style="stroke:#008000;stroke-width:1.0;"/><path d="M660,896 L660,922 L796,922 L796,906 L786,896 L660,896 " fill="#FEFFDD" style="stroke:#181818;stroke-width:0.5;"/><path d="M786,896 L786,906 L796,906 L786,896 " fill="#FEFFDD" style="stroke:#181818;stroke-width:0.5;"/><text fill="#000000" font-family="sans-serif" font-size="13" lengthAdjust="spacing" textLength="115" x="666" y="914.4951">eliminarEntregable()</text></g><!--link editarEntregable to ENTREGABLES_ABIERTOS--><g id="link_editarEntregable_ENTREGABLES_ABIERTOS"><path d="M787.45,861.22 C798.42,879.83 805,891 805,891 C805,891 805,927 805,927 C805,927 793.7726,938.2274 779.4026,952.5974 " fill="none" id="editarEntregable-to-ENTREGABLES_ABIERTOS-1" style="stroke:#008000;stroke-width:1.0;"/><polygon fill="#008000" points="775.16,956.84,784.3524,953.3045,778.6955,953.3045,778.6955,947.6476,775.16,956.84" style="stroke:#008000;stroke-width:1.0;"/><path d="M810,896 L810,922 L933,922 L933,906 L923,896 L810,896 " fill="#FEFFDD" style="stroke:#181818;stroke-width:0.5;"/><path d="M923,896 L923,906 L933,906 L923,896 " fill="#FEFFDD" style="stroke:#181818;stroke-width:0.5;"/><text fill="#000000" font-family="sans-serif" font-size="13" lengthAdjust="spacing" textLength="102" x="816" y="914.4951">abrirEntregables()</text></g><!--SRC=[hLNDQXin4BxlKmpk9Ic4qci91iVPXa1f8JQzX536qk2eqKgBj1jmIw7FqdjEVGI_IP-ae_snLzwruz3Q5qaxy-cR-RxPzG_AvEWm0wqC5QkS8BTw5JP9uWii29Hv2-XXb7wStwHNauiFwPV9nNLwC_yqIiApizjNIqTaxix6G58Lw59JE5hYGcymTiyhmDt3azCHV4yIu5-TDU8_1ywiLe93ZRIfv9Kr_PXhHh6o58euQehPGbdVZ_gCMic0Sua5Fwy2Rb_VHINikSrOXh4cjEcXEZXVZAVMEgaCIklEtop6u9lKfbmW3RHjHKXYTXLIVNN_geZ9tfg6kCoKBoZ3YaVkoFF521eXHrveNiXA1Q7MlyrGJbQIBnodM0yoT0TG52Lgyh22d5ocAYiqZ1o8ci-x2klFprymNpyLfRRRlSgtc_SaxXbx_HHWDgSfYoEtGPVaXLDvHH5El0BCkJzukWcOE76l7YsW_5gQmaOnWtreQBUwk2tRgnATn4qPc_Cf6a4wQDVjLIpRa2wHS3isUx5zbWsve4MNO4mZlYKYm9u-pYYx3GgEgNLNtx0MGlPTlCzkAtXKliwDlGyYa7XXDOxaFqr1wsXopZB3C02jV_TEmP3HhNCamd1Mev3nF34LEZXRn_cbAV2GM7ij8bgVQZmuraTeuvKPrkL7alJUsrsNzJy8ILH39wt2uL7VDcO8kMd8ixXDlMqJ93w3Ey1uraBFOcpIAkD-Hr-b_uUE2wSwsRwB_HS0]--></g></svg>