<svg xmlns="http://www.w3.org/2000/svg" xmlns:xlink="http://www.w3.org/1999/xlink" contentStyleType="text/css" data-diagram-type="STATE" height="826px" preserveAspectRatio="none" style="width:697px;height:826px;background:#FFFFFF;" version="1.1" viewBox="0 0 697 826" width="697px" zoomAndPan="magnify"><defs/><g><g><rect fill="#F1F1F1" height="50" rx="12.5" ry="12.5" style="stroke:#181818;stroke-width:0.5;" width="215.043" x="237.98" y="7"/><line style="stroke:#181818;stroke-width:0.5;" x1="237.98" x2="453.023" y1="33.2969" y2="33.2969"/><text fill="#000000" font-family="sans-serif" font-size="14" lengthAdjust="spacing" textLength="195.043" x="247.98" y="24.9951">OPCIONES_PERFIL_ABIERTO</text></g><path d="M19.5,152 L671.5,152 A12.5,12.5 0 0 1 684,164.5 L684,178.2969 L7,178.2969 L7,164.5 A12.5,12.5 0 0 1 19.5,152" fill="#F1F1F1"/><rect fill="none" height="523.2969" rx="12.5" ry="12.5" style="stroke:#181818;stroke-width:0.5;" width="677" x="7" y="152"/><line style="stroke:#181818;stroke-width:0.5;" x1="7" x2="684" y1="178.2969" y2="178.2969"/><text fill="#000000" font-family="sans-serif" font-size="14" lengthAdjust="spacing" textLength="87.6572" x="301.6714" y="169.9951">editarPerfil()</text><g><rect fill="#F1F1F1" height="50" rx="12.5" ry="12.5" style="stroke:#181818;stroke-width:0.5;" width="50" x="184" y="280.2969"/><line style="stroke:#181818;stroke-width:0.5;" x1="184" x2="234" y1="306.5938" y2="306.5938"/><text fill="#000000" font-family="sans-serif" font-size="14" lengthAdjust="spacing" textLength="4.4502" x="206.7749" y="298.292">&#160;</text></g><g><rect fill="#F1F1F1" height="50" rx="12.5" ry="12.5" style="stroke:#181818;stroke-width:0.5;" width="50" x="184" y="522.2969"/><line style="stroke:#181818;stroke-width:0.5;" x1="184" x2="234" y1="548.5938" y2="548.5938"/><text fill="#000000" font-family="sans-serif" font-size="14" lengthAdjust="spacing" textLength="4.4502" x="206.7749" y="540.292">&#160;</text></g><ellipse cx="209" cy="199.2969" fill="#222222" rx="10" ry="10" style="stroke:#222222;stroke-width:1;"/><ellipse cx="209" cy="654.2969" fill="none" rx="11" ry="11" style="stroke:#222222;stroke-width:1;"/><ellipse cx="209" cy="654.2969" fill="#222222" rx="6" ry="6" style="stroke:#222222;stroke-width:1;"/><!--link *start*editarPerfil to EditandoDatos--><g class="link" data-entity-1="ent0003" data-entity-2="ent0004" data-link-type="dependency" data-source-line="14" id="lnk4"><path d="M209,209.5269 C209,225.2369 209,251.6569 209,274.1669" fill="none" id="*start*editarPerfil-to-EditandoDatos" style="stroke:#008000;stroke-width:1;"/><polygon fill="#008000" points="209,280.1669,213,271.1669,209,275.1669,205,271.1669,209,280.1669" style="stroke:#008000;stroke-width:1;"/><path d="M214,232.2969 L214,257.2969 L457,257.2969 L457,242.2969 L447,232.2969 L214,232.2969" fill="#FEFFDD" style="stroke:#181818;stroke-width:0.5;"/><path d="M447,232.2969 L447,242.2969 L457,242.2969 L447,232.2969" fill="#FEFFDD" style="stroke:#181818;stroke-width:0.5;"/><text fill="#000000" font-family="sans-serif" font-size="13" font-weight="bold" lengthAdjust="spacing" textLength="92.5171" x="220" y="249.3638">Investigador</text><text fill="#000000" font-family="sans-serif" font-size="13" lengthAdjust="spacing" textLength="125.7026" x="316.6494" y="249.3638">solicita editar perfil</text></g><!--link EditandoDatos to GuardandoDatos--><g class="link" data-entity-1="ent0004" data-entity-2="ent0005" data-link-type="dependency" data-source-line="19" id="lnk5"><path d="M183.64,311.8769 C131.68,323.2969 18,348.2969 18,348.2969 C18,348.2969 18,504.2969 18,504.2969 C18,504.2969 125.8199,528.0089 177.7799,539.4289" fill="none" id="EditandoDatos-to-GuardandoDatos" style="stroke:#008000;stroke-width:1;"/><polygon fill="#008000" points="183.64,540.7169,175.7084,534.8782,178.7566,539.6436,173.9912,542.6917,183.64,540.7169" style="stroke:#008000;stroke-width:1;"/><path d="M23,353.2969 L23,499.2969 L374,499.2969 L374,363.2969 L364,353.2969 L23,353.2969" fill="#FEFFDD" style="stroke:#181818;stroke-width:0.5;"/><path d="M364,353.2969 L364,363.2969 L374,363.2969 L364,353.2969" fill="#FEFFDD" style="stroke:#181818;stroke-width:0.5;"/><text fill="#000000" font-family="sans-serif" font-size="13" font-weight="bold" lengthAdjust="spacing" textLength="58.9063" x="29" y="370.3638">Sistema</text><text fill="#000000" font-family="sans-serif" font-size="13" lengthAdjust="spacing" textLength="155.7524" x="92.0386" y="370.3638">presenta datos de perfil</text><text fill="#000000" font-family="sans-serif" font-size="13" lengthAdjust="spacing" textLength="330.7891" x="29" y="385.4966">&#8226; ID, nombre, apellido, campo, carrera, master, rol</text><text fill="#000000" font-family="sans-serif" font-size="13" lengthAdjust="spacing" textLength="4.1323" x="29" y="400.6294">&#160;</text><text fill="#000000" font-family="sans-serif" font-size="13" lengthAdjust="spacing" textLength="4.1323" x="29" y="415.7622">&#160;</text><text fill="#000000" font-family="sans-serif" font-size="13" lengthAdjust="spacing" textLength="4.1323" x="29" y="430.895">&#160;</text><text fill="#000000" font-family="sans-serif" font-size="13" font-weight="bold" lengthAdjust="spacing" textLength="58.9063" x="29" y="446.0278">Sistema</text><text fill="#000000" font-family="sans-serif" font-size="13" lengthAdjust="spacing" textLength="110.5952" x="92.0386" y="446.0278">permite solicitar:</text><text fill="#000000" font-family="sans-serif" font-size="13" lengthAdjust="spacing" textLength="135.3955" x="29" y="461.1606">&#8226; modificar atributos</text><text fill="#000000" font-family="sans-serif" font-size="13" lengthAdjust="spacing" textLength="121.6655" x="29" y="476.2935">&#8226; guardar cambios</text><text fill="#000000" font-family="sans-serif" font-size="13" lengthAdjust="spacing" textLength="118.168" x="29" y="491.4263">&#8226; cancelar edici&#243;n</text></g><!--link GuardandoDatos to EditandoDatos--><g class="link" data-entity-1="ent0005" data-entity-2="ent0004" data-link-type="dependency" data-source-line="32" id="lnk6"><path d="M234.45,540.0069 C281.88,528.2969 379,504.2969 379,504.2969 C379,504.2969 379,348.2969 379,348.2969 C379,348.2969 287.7051,325.735 240.2751,314.025" fill="none" id="GuardandoDatos-to-EditandoDatos" style="stroke:#008000;stroke-width:1;"/><polygon fill="#008000" points="234.45,312.5869,242.2289,318.6275,239.3042,313.7853,244.1464,310.8607,234.45,312.5869" style="stroke:#008000;stroke-width:1;"/><path d="M384,413.7969 L384,438.7969 L675,438.7969 L675,423.7969 L665,413.7969 L384,413.7969" fill="#FEFFDD" style="stroke:#181818;stroke-width:0.5;"/><path d="M665,413.7969 L665,423.7969 L675,423.7969 L665,413.7969" fill="#FEFFDD" style="stroke:#181818;stroke-width:0.5;"/><text fill="#000000" font-family="sans-serif" font-size="13" font-weight="bold" lengthAdjust="spacing" textLength="92.5171" x="390" y="430.8638">Investigador</text><text fill="#000000" font-family="sans-serif" font-size="13" lengthAdjust="spacing" textLength="173.5005" x="486.6494" y="430.8638">solicita modificar atributos</text></g><!--link GuardandoDatos to *end*editarPerfil--><g class="link" data-entity-1="ent0005" data-entity-2="ent0007" data-link-type="dependency" data-source-line="37" id="lnk8"><path d="M183.57,555.6169 C141.74,567.6469 63,590.2969 63,590.2969 C63,590.2969 63,625.2969 63,625.2969 C63,625.2969 158.1776,643.5456 192.1376,650.0656" fill="none" id="GuardandoDatos-to-*end*editarPerfil" style="stroke:#008000;stroke-width:1;"/><polygon fill="#008000" points="198.03,651.1969,189.9456,645.5717,193.1197,650.2541,188.4372,653.4282,198.03,651.1969" style="stroke:#008000;stroke-width:1;"/><path d="M68,595.2969 L68,620.2969 L330,620.2969 L330,605.2969 L320,595.2969 L68,595.2969" fill="#FEFFDD" style="stroke:#181818;stroke-width:0.5;"/><path d="M320,595.2969 L320,605.2969 L330,605.2969 L320,595.2969" fill="#FEFFDD" style="stroke:#181818;stroke-width:0.5;"/><text fill="#000000" font-family="sans-serif" font-size="13" font-weight="bold" lengthAdjust="spacing" textLength="92.5171" x="74" y="612.3638">Investigador</text><text fill="#000000" font-family="sans-serif" font-size="13" lengthAdjust="spacing" textLength="144.5361" x="170.6494" y="612.3638">solicita guardar y salir</text></g><!--link GuardandoDatos to *end*editarPerfil--><g class="link" data-entity-1="ent0005" data-entity-2="ent0007" data-link-type="dependency" data-source-line="42" id="lnk9"><path d="M234.5,556.7969 C271.32,569.0669 335,590.2969 335,590.2969 C335,590.2969 335,625.2969 335,625.2969 C335,625.2969 256.0672,642.8355 225.5972,649.6055" fill="none" id="GuardandoDatos-to-*end*editarPerfil-1" style="stroke:#FF0000;stroke-width:1;"/><polygon fill="#FF0000" points="219.74,650.9069,229.3933,652.8596,224.621,649.8224,227.6582,645.05,219.74,650.9069" style="stroke:#FF0000;stroke-width:1;"/><path d="M340,595.2969 L340,620.2969 L613,620.2969 L613,605.2969 L603,595.2969 L340,595.2969" fill="#FEFFDD" style="stroke:#181818;stroke-width:0.5;"/><path d="M603,595.2969 L603,605.2969 L613,605.2969 L603,595.2969" fill="#FEFFDD" style="stroke:#181818;stroke-width:0.5;"/><text fill="#000000" font-family="sans-serif" font-size="13" font-weight="bold" lengthAdjust="spacing" textLength="92.5171" x="346" y="612.3638">Investigador</text><text fill="#000000" font-family="sans-serif" font-size="13" lengthAdjust="spacing" textLength="156.2729" x="442.6494" y="612.3638">solicita cancelar edici&#243;n</text></g><g><rect fill="#F1F1F1" height="50" rx="12.5" ry="12.5" style="stroke:#181818;stroke-width:0.5;" width="215.043" x="237.98" y="770.3"/><line style="stroke:#181818;stroke-width:0.5;" x1="237.98" x2="453.023" y1="796.5969" y2="796.5969"/><text fill="#000000" font-family="sans-serif" font-size="14" lengthAdjust="spacing" textLength="195.043" x="247.98" y="788.2951">OPCIONES_PERFIL_ABIERTO</text></g><!--link in1 to editarPerfil--><g class="link" data-entity-1="ent0002" data-entity-2="ent0003" data-link-type="dependency" data-source-line="4" id="lnk2"><path d="M345.5,57.33 C345.5,78.93 345.5,107.01 345.5,145.7" fill="none" id="in1-to-editarPerfil" style="stroke:#008000;stroke-width:1;"/><polygon fill="#008000" points="345.5,151.7,349.5,142.7,345.5,146.7,341.5,142.7,345.5,151.7" style="stroke:#008000;stroke-width:1;"/><path d="M350.5,92 L350.5,117 L452.5,117 L452.5,102 L442.5,92 L350.5,92" fill="#FEFFDD" style="stroke:#181818;stroke-width:0.5;"/><path d="M442.5,92 L442.5,102 L452.5,102 L442.5,92" fill="#FEFFDD" style="stroke:#181818;stroke-width:0.5;"/><text fill="#000000" font-family="sans-serif" font-size="13" lengthAdjust="spacing" textLength="81.396" x="356.5" y="109.0669">editarPerfil()</text></g><!--link editarPerfil to OPCIONES_PERFIL_ABIERTO--><g class="link" data-entity-1="ent0003" data-entity-2="ent0010" data-link-type="dependency" data-source-line="51" id="lnk11"><path d="M345.5,675.74 C345.5,714.41 345.5,742.47 345.5,764.04" fill="none" id="editarPerfil-to-OPCIONES_PERFIL_ABIERTO" style="stroke:#008000;stroke-width:1;"/><polygon fill="#008000" points="345.5,770.04,349.5,761.04,345.5,765.04,341.5,761.04,345.5,770.04" style="stroke:#008000;stroke-width:1;"/><path d="M350.5,710.3 L350.5,735.3 L504.5,735.3 L504.5,720.3 L494.5,710.3 L350.5,710.3" fill="#FEFFDD" style="stroke:#181818;stroke-width:0.5;"/><path d="M494.5,710.3 L494.5,720.3 L504.5,720.3 L494.5,710.3" fill="#FEFFDD" style="stroke:#181818;stroke-width:0.5;"/><text fill="#000000" font-family="sans-serif" font-size="13" lengthAdjust="spacing" textLength="133.853" x="356.5" y="727.3669">abrirOpcionesPerfil()</text></g><!--SRC=[dLHjIkH04FtVfoXc_-WI4V-A3Epgh0J46TH_8b99bqCndUvG7OL11C_Y5Jo2D_4aTcSsi-aTWpWTo4U_b_TULQVZ5snh5Ap0iALcMHFKpYpZWrA-mOQ0xG6WXz5qTfnFpoUNjxF9nP_yxFRNxtnoSJKTgKZOk_un5o9xipS6qjoWp4Zks2ZhWeIpKNwX-iZEhYAh8UATKnzkBLF-21wLWZ1Mx54u0caIELQx4soStuHFxr7q6eULmFNFcoHneW4j9SaT9uwASMuVo3SyH-taQByOWtU6o_3gt-HGhsgEzAwsUA_MfzIe7o7DEHZXadr35RRkjP0d6znrgwQfx__-_0BvIHP4ga8e0wp96DOkWnAhkhs8a6065GP9oK2SKMdQJqr9AWwvkjBbS6rNESrt77G16-7YlgiZOlEsF8dc1VVcIxGbcG243fRyzcgJvlrByTyo3YxU5cit5FjR8S8NjOLrrvKbU3GigUs0fP3Utl2BTgid5KQo3Vj53lm1qZsEXR1CwvAT9R-nrJy0]--></g></svg>