<?xml version="1.0" encoding="us-ascii" standalone="no"?><svg xmlns="http://www.w3.org/2000/svg" xmlns:xlink="http://www.w3.org/1999/xlink" contentStyleType="text/css" height="982px" preserveAspectRatio="none" style="width:475px;height:982px;background:#FFFFFF;" version="1.1" viewBox="0 0 475 982" width="475px" zoomAndPan="magnify"><defs/><g><line style="stroke:#AAAAAA;stroke-width:1.0;" x1="6" x2="468" y1="8.5" y2="8.5"/><line style="stroke:#AAAAAA;stroke-width:1.0;" x1="6" x2="468" y1="10.5" y2="10.5"/><text fill="#000000" font-family="sans-serif" font-size="12" font-weight="bold" lengthAdjust="spacing" textLength="192" x="6" y="26.457">GIPF - IMPORTAR CONVOCATORIA</text><line style="stroke:#AAAAAA;stroke-width:1.0;" x1="6" x2="468" y1="33.5938" y2="33.5938"/><line style="stroke:#AAAAAA;stroke-width:1.0;" x1="6" x2="468" y1="35.5938" y2="35.5938"/><text fill="#000000" font-family="sans-serif" font-size="12" font-weight="bold" lengthAdjust="spacing" textLength="126" x="6" y="51.5508">Fuente de importaci&#243;n</text><line style="stroke:#AAAAAA;stroke-width:1.0;" x1="6" x2="468" y1="59.6875" y2="59.6875"/><text fill="#000000" font-family="sans-serif" font-size="12" font-weight="bold" lengthAdjust="spacing" textLength="105" x="8" y="78.6445">Archivo (opcional):</text><rect fill="#EEEEEE" height="19.0938" rx="5" ry="5" style="stroke:#000000;stroke-width:2.5;" width="172" x="117.5" y="68.6875"/><text fill="#000000" font-family="sans-serif" font-size="12" lengthAdjust="spacing" textLength="107" x="150" y="83.1445">Seleccionar archivo</text><line style="stroke:#AAAAAA;stroke-width:1.0;" x1="7" x2="408" y1="96.7813" y2="96.7813"/><text fill="#000000" font-family="sans-serif" font-size="12" font-weight="bold" lengthAdjust="spacing" textLength="147" x="8" y="114.7383">Enlace externo (opcional):</text><rect fill="#EEEEEE" height="19.0938" rx="5" ry="5" style="stroke:#000000;stroke-width:2.5;" width="244" x="159.5" y="104.7813"/><text fill="#000000" font-family="sans-serif" font-size="12" lengthAdjust="spacing" textLength="3" x="280" y="119.2383">&#160;</text><line style="stroke:#AAAAAA;stroke-width:1.5;" x1="6" x2="468" y1="133.875" y2="133.875"/><text fill="#000000" font-family="sans-serif" font-size="12" font-weight="bold" lengthAdjust="spacing" textLength="114" x="6" y="150.832">Informaci&#243;n general</text><line style="stroke:#AAAAAA;stroke-width:1.0;" x1="6" x2="468" y1="158.9688" y2="158.9688"/><text fill="#000000" font-family="sans-serif" font-size="12" font-weight="bold" lengthAdjust="spacing" textLength="34" x="8" y="177.9258">T&#237;tulo:</text><rect fill="#EEEEEE" height="19.0938" rx="5" ry="5" style="stroke:#000000;stroke-width:2.5;" width="308" x="46.5" y="167.9688"/><text fill="#000000" font-family="sans-serif" font-size="12" lengthAdjust="spacing" textLength="3" x="199" y="182.4258">&#160;</text><line style="stroke:#AAAAAA;stroke-width:1.0;" x1="7" x2="359" y1="196.0625" y2="196.0625"/><text fill="#000000" font-family="sans-serif" font-size="12" font-weight="bold" lengthAdjust="spacing" textLength="30" x="8" y="214.0195">&#193;rea:</text><rect fill="#EEEEEE" height="19.0938" rx="5" ry="5" style="stroke:#000000;stroke-width:2.5;" width="164" x="42.5" y="204.0625"/><text fill="#000000" font-family="sans-serif" font-size="12" lengthAdjust="spacing" textLength="3" x="123" y="218.5195">&#160;</text><line style="stroke:#AAAAAA;stroke-width:1.0;" x1="7" x2="359" y1="232.1563" y2="232.1563"/><text fill="#000000" font-family="sans-serif" font-size="12" font-weight="bold" lengthAdjust="spacing" textLength="42" x="8" y="250.1133">Estado:</text><text fill="#000000" font-family="sans-serif" font-size="12" lengthAdjust="spacing" textLength="38" x="56" y="251.1133">Abierta</text><line style="stroke:#000000;stroke-width:1.0;" x1="54" x2="113" y1="253.75" y2="253.75"/><line style="stroke:#000000;stroke-width:1.0;" x1="54" x2="54" y1="250.75" y2="252.75"/><line style="stroke:#000000;stroke-width:1.0;" x1="113" x2="113" y1="250.75" y2="252.75"/><text fill="#000000" font-family="sans-serif" font-size="12" lengthAdjust="spacing" textLength="48" x="120" y="251.1133">Borrador</text><line style="stroke:#000000;stroke-width:1.0;" x1="118" x2="185" y1="253.75" y2="253.75"/><line style="stroke:#000000;stroke-width:1.0;" x1="118" x2="118" y1="250.75" y2="252.75"/><line style="stroke:#000000;stroke-width:1.0;" x1="185" x2="185" y1="250.75" y2="252.75"/><line style="stroke:#AAAAAA;stroke-width:1.0;" x1="7" x2="359" y1="263.25" y2="263.25"/><text fill="#000000" font-family="sans-serif" font-size="12" font-weight="bold" lengthAdjust="spacing" textLength="53" x="8" y="281.207">Apertura:</text><rect fill="#EEEEEE" height="19.0938" rx="5" ry="5" style="stroke:#000000;stroke-width:2.5;" width="100" x="65.5" y="271.25"/><text fill="#000000" font-family="sans-serif" font-size="12" lengthAdjust="spacing" textLength="3" x="114" y="285.707">&#160;</text><line style="stroke:#AAAAAA;stroke-width:1.0;" x1="7" x2="359" y1="299.3438" y2="299.3438"/><text fill="#000000" font-family="sans-serif" font-size="12" font-weight="bold" lengthAdjust="spacing" textLength="38" x="8" y="317.3008">Cierre:</text><rect fill="#EEEEEE" height="19.0938" rx="5" ry="5" style="stroke:#000000;stroke-width:2.5;" width="180" x="50.5" y="307.3438"/><text fill="#000000" font-family="sans-serif" font-size="12" lengthAdjust="spacing" textLength="3" x="139" y="321.8008">&#160;</text><line style="stroke:#AAAAAA;stroke-width:1.0;" x1="7" x2="359" y1="335.4375" y2="335.4375"/><text fill="#000000" font-family="sans-serif" font-size="12" font-weight="bold" lengthAdjust="spacing" textLength="45" x="8" y="353.3945">Publica:</text><rect fill="#EEEEEE" height="19.0938" rx="5" ry="5" style="stroke:#000000;stroke-width:2.5;" width="244" x="57.5" y="343.4375"/><text fill="#000000" font-family="sans-serif" font-size="12" lengthAdjust="spacing" textLength="3" x="178" y="357.8945">&#160;</text><line style="stroke:#AAAAAA;stroke-width:1.5;" x1="6" x2="468" y1="372.5313" y2="372.5313"/><text fill="#000000" font-family="sans-serif" font-size="12" font-weight="bold" lengthAdjust="spacing" textLength="68" x="6" y="389.4883">Descripci&#243;n</text><line style="stroke:#AAAAAA;stroke-width:1.0;" x1="6" x2="468" y1="397.625" y2="397.625"/><rect fill="#EEEEEE" height="19.0938" rx="5" ry="5" style="stroke:#000000;stroke-width:2.5;" width="452" x="10.5" y="406.625"/><text fill="#000000" font-family="sans-serif" font-size="12" lengthAdjust="spacing" textLength="3" x="235" y="421.082">&#160;</text><line style="stroke:#AAAAAA;stroke-width:1.5;" x1="6" x2="468" y1="435.7188" y2="435.7188"/><text fill="#000000" font-family="sans-serif" font-size="12" font-weight="bold" lengthAdjust="spacing" textLength="60" x="6" y="452.6758">Requisitos</text><line style="stroke:#AAAAAA;stroke-width:1.0;" x1="6" x2="468" y1="460.8125" y2="460.8125"/><rect fill="#EEEEEE" height="19.0938" rx="5" ry="5" style="stroke:#000000;stroke-width:2.5;" width="452" x="10.5" y="469.8125"/><text fill="#000000" font-family="sans-serif" font-size="12" lengthAdjust="spacing" textLength="3" x="235" y="484.2695">&#160;</text><line style="stroke:#AAAAAA;stroke-width:1.5;" x1="6" x2="468" y1="498.9063" y2="498.9063"/><text fill="#000000" font-family="sans-serif" font-size="12" font-weight="bold" lengthAdjust="spacing" textLength="131" x="6" y="515.8633">Dotaci&#243;n y condiciones</text><line style="stroke:#AAAAAA;stroke-width:1.0;" x1="6" x2="468" y1="524" y2="524"/><rect fill="#EEEEEE" height="19.0938" rx="5" ry="5" style="stroke:#000000;stroke-width:2.5;" width="452" x="10.5" y="533"/><text fill="#000000" font-family="sans-serif" font-size="12" lengthAdjust="spacing" textLength="3" x="235" y="547.457">&#160;</text><line style="stroke:#AAAAAA;stroke-width:1.5;" x1="6" x2="468" y1="562.0938" y2="562.0938"/><text fill="#000000" font-family="sans-serif" font-size="12" font-weight="bold" lengthAdjust="spacing" textLength="130" x="6" y="579.0508">Criterios de evaluaci&#243;n</text><line style="stroke:#AAAAAA;stroke-width:1.0;" x1="6" x2="468" y1="587.1875" y2="587.1875"/><rect fill="#EEEEEE" height="19.0938" rx="5" ry="5" style="stroke:#000000;stroke-width:2.5;" width="452" x="10.5" y="596.1875"/><text fill="#000000" font-family="sans-serif" font-size="12" lengthAdjust="spacing" textLength="3" x="235" y="610.6445">&#160;</text><line style="stroke:#AAAAAA;stroke-width:1.5;" x1="6" x2="468" y1="625.2813" y2="625.2813"/><text fill="#000000" font-family="sans-serif" font-size="12" font-weight="bold" lengthAdjust="spacing" textLength="161" x="6" y="642.2383">Presentaci&#243;n de propuestas</text><line style="stroke:#AAAAAA;stroke-width:1.0;" x1="6" x2="468" y1="650.375" y2="650.375"/><rect fill="#EEEEEE" height="19.0938" rx="5" ry="5" style="stroke:#000000;stroke-width:2.5;" width="452" x="10.5" y="659.375"/><text fill="#000000" font-family="sans-serif" font-size="12" lengthAdjust="spacing" textLength="3" x="235" y="673.832">&#160;</text><line style="stroke:#AAAAAA;stroke-width:1.5;" x1="6" x2="468" y1="688.4688" y2="688.4688"/><text fill="#000000" font-family="sans-serif" font-size="12" font-weight="bold" lengthAdjust="spacing" textLength="89" x="6" y="705.4258">Documentaci&#243;n</text><line style="stroke:#AAAAAA;stroke-width:1.0;" x1="6" x2="468" y1="713.5625" y2="713.5625"/><text fill="#000000" font-family="sans-serif" font-size="12" lengthAdjust="spacing" textLength="115" x="11" y="732.5195">&#128206; A&#241;adir documento</text><line style="stroke:#000000;stroke-width:1.0;" x1="9" x2="164" y1="735.1563" y2="735.1563"/><line style="stroke:#000000;stroke-width:1.0;" x1="9" x2="9" y1="732.1563" y2="734.1563"/><line style="stroke:#000000;stroke-width:1.0;" x1="164" x2="164" y1="732.1563" y2="734.1563"/><rect fill="#EEEEEE" height="19.0938" rx="5" ry="5" style="stroke:#000000;stroke-width:2.5;" width="52" x="170.5" y="722.5625"/><text fill="#000000" font-family="sans-serif" font-size="12" lengthAdjust="spacing" textLength="35" x="179" y="737.0195">A&#241;adir</text><text fill="#000000" font-family="sans-serif" font-size="12" lengthAdjust="spacing" textLength="96" x="11" y="760.6133">&#128206; A&#241;adir plantilla</text><line style="stroke:#000000;stroke-width:1.0;" x1="9" x2="164" y1="763.25" y2="763.25"/><line style="stroke:#000000;stroke-width:1.0;" x1="9" x2="9" y1="760.25" y2="762.25"/><line style="stroke:#000000;stroke-width:1.0;" x1="164" x2="164" y1="760.25" y2="762.25"/><rect fill="#EEEEEE" height="19.0938" rx="5" ry="5" style="stroke:#000000;stroke-width:2.5;" width="52" x="170.5" y="750.6563"/><text fill="#000000" font-family="sans-serif" font-size="12" lengthAdjust="spacing" textLength="35" x="179" y="765.1133">A&#241;adir</text><text fill="#000000" font-family="sans-serif" font-size="12" lengthAdjust="spacing" textLength="86" x="11" y="788.707">&#128206; A&#241;adir anexo</text><line style="stroke:#000000;stroke-width:1.0;" x1="9" x2="132" y1="791.3438" y2="791.3438"/><line style="stroke:#000000;stroke-width:1.0;" x1="9" x2="9" y1="788.3438" y2="790.3438"/><line style="stroke:#000000;stroke-width:1.0;" x1="132" x2="132" y1="788.3438" y2="790.3438"/><rect fill="#EEEEEE" height="19.0938" rx="5" ry="5" style="stroke:#000000;stroke-width:2.5;" width="52" x="138.5" y="778.75"/><text fill="#000000" font-family="sans-serif" font-size="12" lengthAdjust="spacing" textLength="35" x="147" y="793.207">A&#241;adir</text><line style="stroke:#AAAAAA;stroke-width:1.5;" x1="6" x2="468" y1="807.8438" y2="807.8438"/><text fill="#000000" font-family="sans-serif" font-size="12" font-weight="bold" lengthAdjust="spacing" textLength="51" x="6" y="824.8008">Contacto</text><line style="stroke:#AAAAAA;stroke-width:1.0;" x1="6" x2="468" y1="832.9375" y2="832.9375"/><text fill="#000000" font-family="sans-serif" font-size="12" font-weight="bold" lengthAdjust="spacing" textLength="34" x="8" y="851.8945">Email:</text><rect fill="#EEEEEE" height="19.0938" rx="5" ry="5" style="stroke:#000000;stroke-width:2.5;" width="140" x="46.5" y="841.9375"/><text fill="#000000" font-family="sans-serif" font-size="12" lengthAdjust="spacing" textLength="3" x="115" y="856.3945">&#160;</text><line style="stroke:#AAAAAA;stroke-width:1.0;" x1="7" x2="191" y1="870.0313" y2="870.0313"/><text fill="#000000" font-family="sans-serif" font-size="12" font-weight="bold" lengthAdjust="spacing" textLength="45" x="8" y="887.9883">Horario:</text><rect fill="#EEEEEE" height="19.0938" rx="5" ry="5" style="stroke:#000000;stroke-width:2.5;" width="108" x="57.5" y="878.0313"/><text fill="#000000" font-family="sans-serif" font-size="12" lengthAdjust="spacing" textLength="3" x="110" y="892.4883">&#160;</text><line style="stroke:#AAAAAA;stroke-width:1.0;" x1="6" x2="468" y1="907.125" y2="907.125"/><text fill="#000000" font-family="sans-serif" font-size="12" font-style="italic" lengthAdjust="spacing" textLength="287" x="6" y="924.082">El ID de la convocatoria se genera autom&#225;ticamente</text><text fill="#000000" font-family="sans-serif" font-size="12" font-style="italic" lengthAdjust="spacing" textLength="457" x="6" y="941.1758">Tras la importaci&#243;n, la convocatoria permanecer&#225; abierta y se visualiza actualizada</text><line style="stroke:#AAAAAA;stroke-width:1.0;" x1="6" x2="468" y1="949.3125" y2="949.3125"/><rect fill="#EEEEEE" height="19.0938" rx="5" ry="5" style="stroke:#000000;stroke-width:2.5;" width="172" x="9.5" y="957.3125"/><text fill="#000000" font-family="sans-serif" font-size="12" lengthAdjust="spacing" textLength="118" x="36.5" y="971.7695">Importar convocatoria</text><rect fill="#EEEEEE" height="19.0938" rx="5" ry="5" style="stroke:#000000;stroke-width:2.5;" width="68" x="188.5" y="957.3125"/><text fill="#000000" font-family="sans-serif" font-size="12" lengthAdjust="spacing" textLength="50" x="197.5" y="971.7695">Cancelar</text><!--SRC=[lLPDRXen5DxFAPvO9L9924sh2gKeP82KD1H4I3PH5e-P5sB9OqyzzZHfIgHUe9iUeCe1kgXw12xK8zI6WVoK394guGqUptpVztxytcCtqQXqWbm3YsAfx9ClHIe3r58nB7vYYiuLHkHTUs3NMxiccvr1TR_LRK8HMkrkfzUlzS3lV3Zf-BL-fzUgxMmEgdU06Q9fI6Y2a6PY0Hl_5lDlYyN9prHfidEWcWekM2fXJSO1amBvUiKXu0kSmX5n2YQd2Z3xxWn6SuACSSxL41m30hhKfCHYojmrunvDNRgvcRlM4kTIHLE7O4Y25F8bZlN7FxNXyfdIZqrOvDxugoBCvSiDZhqBuToSQoZK1eniaWhsgR0dbR9lLG56EHIrs0ACMcn3dhPlbHGj2KKUGTSCE0lml_DOfoHGB5vsCP-Ph0NAJmdtwADX2TCoMQbiNMPL25SGI14oLn2qMXjynMmzCfcupa0fSeEhZtzNKMAxKnOCQqYiP6p8riIg4nAOQ6v8NWif_Fdn_HlKnhymP0h232TTkPvcf_ShvZ4WvYWqunoV2q11bmlP5sHKEWUqND816n4o_dJ9vjNxEwdGNfd5u4U6MUpKC5PjS6ZLNNOvkki-7tIGKDQr0OsMqVXMssxYuaaxcwmwW_SL9WvwVtoz-8VBDi781YiWDRu5d3PHMrvM8cM9GSu-MvL0JtSXJWGU67eDfwri6ZzWFdEU-YW2uZY9_iZR9H6wyUrvNPVFu_OXfAGIMyImjL4kbRStNgxrBmmqQG1Rhw1SgcoNAgLNu3Vwu5wlUslxtSEq38aqoex6a2LQiO7Hbc7TEy0KeMViFOce0fsOn47z_Um06Y9bIWeN9U_Wf7ttmUljuXxJTZehQmkSjBqwdQEn_p4Q8f0X4yCA7FURnJVU8OgXmQ7bfiJpfULLLnLe7Fq5]--></g></svg>