<?plantuml 1.2026.2?><svg xmlns="http://www.w3.org/2000/svg" xmlns:xlink="http://www.w3.org/1999/xlink" contentStyleType="text/css" data-diagram-type="DESCRIPTION" height="313px" preserveAspectRatio="none" style="width:949px;height:313px;background:#FFFFFF;" version="1.1" viewBox="0 0 949 313" width="949px" zoomAndPan="magnify"><defs/><g><!--cluster crearProyecto--><g class="cluster" data-qualified-name="crearProyecto" data-source-line="10" id="ent0004"><path d="M8.5,6 L115.666,6 A3.75,3.75 0 0 1 118.166,8.5 L125.166,25.9688 L414.5,25.9688 A2.5,2.5 0 0 1 417,28.4688 L417,303.5 A2.5,2.5 0 0 1 414.5,306 L8.5,306 A2.5,2.5 0 0 1 6,303.5 L6,8.5 A2.5,2.5 0 0 1 8.5,6" fill="none" style="stroke:#000000;stroke-width:1.5;"/><line style="stroke:#000000;stroke-width:1.5;" x1="6" x2="125.166" y1="25.9688" y2="25.9688"/><text fill="#000000" font-family="sans-serif" font-size="12" font-weight="bold" lengthAdjust="spacing" textLength="106.166" x="10" y="19.1387">crearProyecto()</text></g><!--entity CrearProyectoView--><g class="entity" data-qualified-name="crearProyecto.CrearProyectoView" data-source-line="11" id="ent0005"><rect fill="#629EF9" height="33.9688" rx="2.5" ry="2.5" style="stroke:#181818;stroke-width:0.5;" width="134.3633" x="267" y="38"/><text fill="#000000" font-family="sans-serif" font-size="12" lengthAdjust="spacing" textLength="114.3633" x="277" y="59.1387">CrearProyectoView</text></g><!--entity ProyectoController--><g class="entity" data-qualified-name="crearProyecto.ProyectoController" data-source-line="12" id="ent0006"><rect fill="#B5BD68" height="33.9688" rx="2.5" ry="2.5" style="stroke:#181818;stroke-width:0.5;" width="131.9316" x="23" y="147"/><text fill="#000000" font-family="sans-serif" font-size="12" lengthAdjust="spacing" textLength="111.9316" x="33" y="168.1387">ProyectoController</text></g><!--entity ProyectoRepository--><g class="entity" data-qualified-name="crearProyecto.ProyectoRepository" data-source-line="13" id="ent0007"><rect fill="#F2AC4E" height="33.9688" rx="2.5" ry="2.5" style="stroke:#181818;stroke-width:0.5;" width="136.9883" x="22.5" y="256"/><text fill="#000000" font-family="sans-serif" font-size="12" lengthAdjust="spacing" textLength="116.9883" x="32.5" y="277.1387">ProyectoRepository</text></g><!--entity Proyecto--><g class="entity" data-qualified-name="crearProyecto.Proyecto" data-source-line="14" id="ent0008"><rect fill="#F2AC4E" height="33.9688" rx="2.5" ry="2.5" style="stroke:#181818;stroke-width:0.5;" width="72.6406" x="244.5" y="147"/><text fill="#000000" font-family="sans-serif" font-size="12" lengthAdjust="spacing" textLength="52.6406" x="254.5" y="168.1387">Proyecto</text></g><!--entity ProyectosAbiertos--><g class="entity" data-qualified-name="ProyectosAbiertos" data-source-line="7" id="ent0002"><rect fill="#CDEBA5" height="33.9688" rx="2.5" ry="2.5" style="stroke:#181818;stroke-width:0.5;" width="158.9961" x="464.5" y="147"/><text fill="#000000" font-family="sans-serif" font-size="12" lengthAdjust="spacing" textLength="138.9961" x="474.5" y="168.1387">PROYECTOS_ABIERTOS</text></g><!--entity ProyectoAbierto--><g class="entity" data-qualified-name="ProyectoAbierto" data-source-line="8" id="ent0003"><rect fill="#CDEBA5" height="33.9688" rx="2.5" ry="2.5" style="stroke:#181818;stroke-width:0.5;" width="143.7617" x="712" y="147"/><text fill="#000000" font-family="sans-serif" font-size="12" lengthAdjust="spacing" textLength="123.7617" x="722" y="168.1387">PROYECTO_ABIERTO</text></g><!--link ProyectosAbiertos to CrearProyectoView--><g class="link" data-entity-1="ent0002" data-entity-2="ent0005" data-link-type="dependency" data-source-line="17" id="lnk9"><path d="M506.93,146.91 C476.36,133.65 438,117 438,117 C438,117 397.316,93.1347 366.496,75.0647" fill="none" id="ProyectosAbiertos-to-CrearProyectoView" style="stroke:#181818;stroke-width:1;"/><polygon fill="#181818" points="361.32,72.03,367.0608,80.0327,365.6333,74.5589,371.1071,73.1314,361.32,72.03" style="stroke:#181818;stroke-width:1;"/><text fill="#000000" font-family="sans-serif" font-size="12" lengthAdjust="spacing" textLength="93.2051" x="439" y="114.1387">crearProyecto()</text></g><!--link CrearProyectoView to ProyectosAbiertos--><g class="link" data-entity-1="ent0005" data-entity-2="ent0002" data-link-type="dependency" data-source-line="24" id="lnk14"><path d="M401.03,71.19 C460.16,84.59 537,102 537,102 C537,102 539.4071,122.939 541.4771,141.009" fill="none" id="CrearProyectoView-to-ProyectosAbiertos" style="stroke:#181818;stroke-width:1;stroke-dasharray:7,7;"/><polygon fill="#181818" points="542.16,146.97,545.1097,137.5732,541.5909,142.0025,537.1617,138.4837,542.16,146.97" style="stroke:#181818;stroke-width:1;"/><text fill="#000000" font-family="sans-serif" font-size="12" lengthAdjust="spacing" textLength="166.084" x="540" y="114.1387">&#171;cancelar&#187; abrirProyectos()</text></g><!--link CrearProyectoView to ProyectoController--><g class="link" data-entity-1="ent0005" data-entity-2="ent0006" data-link-type="dependency" data-source-line="19" id="lnk10"><path d="M266.87,67.31 C186.03,80.93 61,102 61,102 C61,102 61,117 61,117 C61,117 68.0079,128.5263 76.0879,141.7863" fill="none" id="CrearProyectoView-to-ProyectoController" style="stroke:#181818;stroke-width:1;"/><polygon fill="#181818" points="79.21,146.91,77.9426,137.143,76.6082,142.6403,71.111,141.3059,79.21,146.91" style="stroke:#181818;stroke-width:1;"/><text fill="#000000" font-family="sans-serif" font-size="12" lengthAdjust="spacing" textLength="342.8438" x="62" y="114.1387">crear(titulo, estado, f_inicio, f_fin, descripcion) : Proyecto</text></g><!--link ProyectoController to Proyecto--><g class="link" data-entity-1="ent0006" data-entity-2="ent0008" data-link-type="dependency" data-source-line="20" id="lnk11"><path d="M155.08,164 C185.01,164 213.27,164 238.48,164" fill="none" id="ProyectoController-to-Proyecto" style="stroke:#181818;stroke-width:1;"/><polygon fill="#181818" points="244.48,164,235.48,160,239.48,164,235.48,168,244.48,164" style="stroke:#181818;stroke-width:1;"/><text fill="#000000" font-family="sans-serif" font-size="12" lengthAdjust="spacing" textLength="53.0391" x="173.25" y="158.1387">&#171;create&#187;</text></g><!--link ProyectoController to ProyectoRepository--><g class="link" data-entity-1="ent0006" data-entity-2="ent0007" data-link-type="dependency" data-source-line="21" id="lnk12"><path d="M89.3,181.25 C89.68,201.48 90.2068,229.8111 90.5868,249.9511" fill="none" id="ProyectoController-to-ProyectoRepository" style="stroke:#181818;stroke-width:1;"/><polygon fill="#181818" points="90.7,255.95,94.5295,246.8761,90.6057,250.9509,86.5309,247.0271,90.7,255.95" style="stroke:#181818;stroke-width:1;"/><text fill="#000000" font-family="sans-serif" font-size="12" lengthAdjust="spacing" textLength="109.7988" x="92" y="223.1387">guardar(proyecto)</text></g><!--link CrearProyectoView to ProyectoAbierto--><g class="link" data-entity-1="ent0005" data-entity-2="ent0003" data-link-type="dependency" data-source-line="23" id="lnk13"><path d="M401.24,64.12 C510.62,77.32 715,102 715,102 C715,102 740.9348,124.926 761.3748,142.996" fill="none" id="CrearProyectoView-to-ProyectoAbierto" style="stroke:#181818;stroke-width:1;stroke-dasharray:7,7;"/><polygon fill="#181818" points="765.87,146.97,761.7765,138.0121,762.124,143.6583,756.4778,144.0058,765.87,146.97" style="stroke:#181818;stroke-width:1;"/><text fill="#000000" font-family="sans-serif" font-size="12" lengthAdjust="spacing" textLength="209.4668" x="732" y="114.1387">&#171;finalizar&#187; abrirProyecto(proyecto)</text></g><?plantuml-src VL9TQy8m57tFhxZO5mKL9bDcaOBM2djIT0ps96bxhS4iAKb4TEo_BtRQ3wlsfSczvvnxxY5wnqHA5Vs6a4QxHCczY7t9fOB3bXaaEk_hBOtbWOa4DfJhScUA6xhdPYQ5-QU6t6hT1wpO2U6bLsfo9j0SKuHKykFvGeZ2o52HS0J7dmQJSHyQY-NyA_0_vglrUF8UBEsX0LJ3GicZ1Kiz3Xag-t_6lL8hp0kHaDHwfWb28r98rRNTR6NeIWr-2DYlcDJmo-rFXeUCLAk2C-WDWzdmbdx5-3OW9Jb7LR5ObC49-s4yU7iaiCHKQcQaEbO4YZ8uizxOVmqU2LHeEVYNa5hGq54ThxwY2pVn4LAFeHDRQdsx2xTfcDbpsGRKnZwvDcpMJB28PQSD4ss8KKUAfROaMk3cIkHEO9dBQzs5qUWymg3dtGMNVHMXkP3igOgji_JIkxjLj-lTlghpGEkOSdQYolE0XeeLsHHgpyNop3F_L4J8wsgwsVe3?></g></svg>