<svg xmlns="http://www.w3.org/2000/svg" xmlns:xlink="http://www.w3.org/1999/xlink" contentStyleType="text/css" data-diagram-type="STATE" height="795px" preserveAspectRatio="none" style="width:551px;height:795px;background:#FFFFFF;" version="1.1" viewBox="0 0 551 795" width="551px" zoomAndPan="magnify"><defs/><g><g><rect fill="#F1F1F1" height="50" rx="12.5" ry="12.5" style="stroke:#181818;stroke-width:0.5;" width="213.0879" x="7" y="7"/><line style="stroke:#181818;stroke-width:0.5;" x1="7" x2="220.0879" y1="33.2969" y2="33.2969"/><text fill="#000000" font-family="sans-serif" font-size="14" lengthAdjust="spacing" textLength="193.0879" x="17" y="24.9951">PANEL_PRINCIPAL_ABIERTO</text></g><path d="M60.04,152 L391.04,152 A12.5,12.5 0 0 1 403.54,164.5 L403.54,178.2969 L47.54,178.2969 L47.54,164.5 A12.5,12.5 0 0 1 60.04,152" fill="#F1F1F1"/><rect fill="none" height="492.2969" rx="12.5" ry="12.5" style="stroke:#181818;stroke-width:0.5;" width="356" x="47.54" y="152"/><line style="stroke:#181818;stroke-width:0.5;" x1="47.54" x2="403.54" y1="178.2969" y2="178.2969"/><text fill="#000000" font-family="sans-serif" font-size="14" lengthAdjust="spacing" textLength="146.9453" x="152.0673" y="169.9951">abrirInvestigadores()</text><g><rect fill="#F1F1F1" height="50" rx="12.5" ry="12.5" style="stroke:#181818;stroke-width:0.5;" width="50" x="59.54" y="280.2969"/><line style="stroke:#181818;stroke-width:0.5;" x1="59.54" x2="109.54" y1="306.5938" y2="306.5938"/><text fill="#000000" font-family="sans-serif" font-size="14" lengthAdjust="spacing" textLength="4.4502" x="82.3149" y="298.292">&#160;</text></g><g><rect fill="#F1F1F1" height="50" rx="12.5" ry="12.5" style="stroke:#181818;stroke-width:0.5;" width="50" x="59.54" y="491.2969"/><line style="stroke:#181818;stroke-width:0.5;" x1="59.54" x2="109.54" y1="517.5938" y2="517.5938"/><text fill="#000000" font-family="sans-serif" font-size="14" lengthAdjust="spacing" textLength="4.4502" x="82.3149" y="509.292">&#160;</text></g><ellipse cx="84.54" cy="199.2969" fill="#222222" rx="10" ry="10" style="stroke:#222222;stroke-width:1;"/><ellipse cx="84.54" cy="623.2969" fill="none" rx="11" ry="11" style="stroke:#222222;stroke-width:1;"/><ellipse cx="84.54" cy="623.2969" fill="#222222" rx="6" ry="6" style="stroke:#222222;stroke-width:1;"/><!--link *start*abrirInvestigadores to MostrandoLista--><g class="link" data-entity-1="ent0003" data-entity-2="ent0004" data-link-type="dependency" data-source-line="14" id="lnk4"><path d="M84.54,209.5269 C84.54,225.2369 84.54,251.6569 84.54,274.1669" fill="none" id="*start*abrirInvestigadores-to-MostrandoLista" style="stroke:#008000;stroke-width:1;"/><polygon fill="#008000" points="84.54,280.1669,88.54,271.1669,84.54,275.1669,80.54,271.1669,84.54,280.1669" style="stroke:#008000;stroke-width:1;"/><path d="M89.54,232.2969 L89.54,257.2969 L384.54,257.2969 L384.54,242.2969 L374.54,232.2969 L89.54,232.2969" fill="#FEFFDD" style="stroke:#181818;stroke-width:0.5;"/><path d="M374.54,232.2969 L374.54,242.2969 L384.54,242.2969 L374.54,232.2969" fill="#FEFFDD" style="stroke:#181818;stroke-width:0.5;"/><text fill="#000000" font-family="sans-serif" font-size="13" font-weight="bold" lengthAdjust="spacing" textLength="90.251" x="95.54" y="249.3638">Coordinador</text><text fill="#000000" font-family="sans-serif" font-size="13" lengthAdjust="spacing" textLength="180.1211" x="189.9233" y="249.3638">solicita abrir investigadores</text></g><!--link MostrandoLista to FiltrandoLista--><g class="link" data-entity-1="ent0004" data-entity-2="ent0005" data-link-type="dependency" data-source-line="19" id="lnk5"><path d="M84.54,330.6769 C84.54,370.9569 84.54,444.8969 84.54,485.0669" fill="none" id="MostrandoLista-to-FiltrandoLista" style="stroke:#008000;stroke-width:1;"/><polygon fill="#008000" points="84.54,491.0669,88.54,482.0669,84.54,486.0669,80.54,482.0669,84.54,491.0669" style="stroke:#008000;stroke-width:1;"/><path d="M89.54,353.2969 L89.54,468.2969 L394.54,468.2969 L394.54,363.2969 L384.54,353.2969 L89.54,353.2969" fill="#FEFFDD" style="stroke:#181818;stroke-width:0.5;"/><path d="M384.54,353.2969 L384.54,363.2969 L394.54,363.2969 L384.54,353.2969" fill="#FEFFDD" style="stroke:#181818;stroke-width:0.5;"/><text fill="#000000" font-family="sans-serif" font-size="13" font-weight="bold" lengthAdjust="spacing" textLength="58.9063" x="95.54" y="370.3638">Sistema</text><text fill="#000000" font-family="sans-serif" font-size="13" lengthAdjust="spacing" textLength="208.9395" x="158.5786" y="370.3638">presenta lista de investigadores</text><text fill="#000000" font-family="sans-serif" font-size="13" lengthAdjust="spacing" textLength="277.3799" x="95.54" y="385.4966">&#8226; ID, nombre, campo de cada investigador</text><text fill="#000000" font-family="sans-serif" font-size="13" lengthAdjust="spacing" textLength="188.481" x="95.54" y="400.6294">&#8226; Permite solicitar filtrar lista</text><text fill="#000000" font-family="sans-serif" font-size="13" lengthAdjust="spacing" textLength="237.1802" x="95.54" y="415.7622">&#8226; Permite solicitar abrir investigador</text><text fill="#000000" font-family="sans-serif" font-size="13" lengthAdjust="spacing" textLength="284.7178" x="95.54" y="430.895">&#8226; Permite solicitar crear investigador nuevo</text><text fill="#000000" font-family="sans-serif" font-size="13" lengthAdjust="spacing" textLength="252.624" x="95.54" y="446.0278">&#8226; Permite solicitar abrir panel principal</text><text fill="#000000" font-family="sans-serif" font-size="13" lengthAdjust="spacing" textLength="4.1323" x="95.54" y="461.1606">&#160;</text></g><!--link FiltrandoLista to FiltrandoLista--><g class="link" data-entity-1="ent0005" data-entity-2="ent0005" data-link-type="dependency" data-source-line="30" id="lnk6"><path d="M109.72,504.9969 C119.45,504.4969 127.54,508.2569 127.54,516.2969 C127.54,524.3369 125.4421,528.4048 115.7121,527.9048" fill="none" id="FiltrandoLista-to-FiltrandoLista" style="stroke:#008000;stroke-width:1;"/><polygon fill="#008000" points="109.72,527.5969,118.5029,532.0535,114.7134,527.8535,118.9134,524.064,109.72,527.5969" style="stroke:#008000;stroke-width:1;"/><path d="M132.54,496.2969 L132.54,536.2969 L364.54,536.2969 L364.54,506.2969 L354.54,496.2969 L132.54,496.2969" fill="#FEFFDD" style="stroke:#181818;stroke-width:0.5;"/><path d="M354.54,496.2969 L354.54,506.2969 L364.54,506.2969 L354.54,496.2969" fill="#FEFFDD" style="stroke:#181818;stroke-width:0.5;"/><text fill="#000000" font-family="sans-serif" font-size="13" font-weight="bold" lengthAdjust="spacing" textLength="90.251" x="138.54" y="513.3638">Coordinador</text><text fill="#000000" font-family="sans-serif" font-size="13" lengthAdjust="spacing" textLength="116.6509" x="232.9233" y="513.3638">solicita filtrar lista</text><text fill="#000000" font-family="sans-serif" font-size="13" font-weight="bold" lengthAdjust="spacing" textLength="58.9063" x="138.54" y="528.4966">Sistema</text><text fill="#000000" font-family="sans-serif" font-size="13" lengthAdjust="spacing" textLength="139.4199" x="201.5786" y="528.4966">presenta lista filtrada</text></g><!--link FiltrandoLista to *end*abrirInvestigadores--><g class="link" data-entity-1="ent0005" data-entity-2="ent0007" data-link-type="dependency" data-source-line="36" id="lnk8"><path d="M84.54,541.6469 C84.54,563.9469 84.54,589.8569 84.54,606.0369" fill="none" id="FiltrandoLista-to-*end*abrirInvestigadores" style="stroke:#008000;stroke-width:1;"/><polygon fill="#008000" points="84.54,612.0369,88.54,603.0369,84.54,607.0369,80.54,603.0369,84.54,612.0369" style="stroke:#008000;stroke-width:1;"/><path d="M89.54,564.2969 L89.54,589.2969 L383.54,589.2969 L383.54,574.2969 L373.54,564.2969 L89.54,564.2969" fill="#FEFFDD" style="stroke:#181818;stroke-width:0.5;"/><path d="M373.54,564.2969 L373.54,574.2969 L383.54,574.2969 L373.54,564.2969" fill="#FEFFDD" style="stroke:#181818;stroke-width:0.5;"/><text fill="#000000" font-family="sans-serif" font-size="13" font-weight="bold" lengthAdjust="spacing" textLength="90.251" x="95.54" y="581.3638">Coordinador</text><text fill="#000000" font-family="sans-serif" font-size="13" lengthAdjust="spacing" textLength="179.2769" x="189.9233" y="581.3638">solicita una de las opciones</text></g><g><rect fill="#F1F1F1" height="50" rx="12.5" ry="12.5" style="stroke:#181818;stroke-width:0.5;" width="164.3887" x="255.35" y="7"/><line style="stroke:#181818;stroke-width:0.5;" x1="255.35" x2="419.7387" y1="33.2969" y2="33.2969"/><text fill="#000000" font-family="sans-serif" font-size="14" lengthAdjust="spacing" textLength="144.3887" x="265.35" y="24.9951">PROYECTO_ABIERTO</text></g><g><rect fill="#F1F1F1" height="50" rx="12.5" ry="12.5" style="stroke:#181818;stroke-width:0.5;" width="195" x="10.04" y="739.3"/><line style="stroke:#181818;stroke-width:0.5;" x1="10.04" x2="205.04" y1="765.5969" y2="765.5969"/><text fill="#000000" font-family="sans-serif" font-size="14" lengthAdjust="spacing" textLength="175" x="20.04" y="757.2951">INVESTIGADOR_ABIERTO</text></g><g><rect fill="#F1F1F1" height="50" rx="12.5" ry="12.5" style="stroke:#181818;stroke-width:0.5;" width="213.0879" x="314" y="739.3"/><line style="stroke:#181818;stroke-width:0.5;" x1="314" x2="527.0879" y1="765.5969" y2="765.5969"/><text fill="#000000" font-family="sans-serif" font-size="14" lengthAdjust="spacing" textLength="193.0879" x="324" y="757.2951">PANEL_PRINCIPAL_ABIERTO</text></g><!--link in1 to abrirInvestigadores--><g class="link" data-entity-1="ent0002" data-entity-2="ent0003" data-link-type="dependency" data-source-line="4" id="lnk2"><path d="M117.37,57.32 C121.51,83.67 127.54,122 127.54,122 C127.54,122 129.6187,127.8172 136.1087,146.0572" fill="none" id="in1-to-abrirInvestigadores" style="stroke:#008000;stroke-width:1;"/><polygon fill="#008000" points="138.12,151.71,138.8715,141.8899,136.4439,146.9993,131.3344,144.5716,138.12,151.71" style="stroke:#008000;stroke-width:1;"/><path d="M132.54,92 L132.54,117 L289.54,117 L289.54,102 L279.54,92 L132.54,92" fill="#FEFFDD" style="stroke:#181818;stroke-width:0.5;"/><path d="M279.54,92 L279.54,102 L289.54,102 L279.54,92" fill="#FEFFDD" style="stroke:#181818;stroke-width:0.5;"/><text fill="#000000" font-family="sans-serif" font-size="13" lengthAdjust="spacing" textLength="136.4492" x="138.54" y="109.0669">abrirInvestigadores()</text></g><!--link PROYECTO_ABIERTO to abrirInvestigadores--><g class="link" data-entity-1="ent0009" data-entity-2="ent0003" data-link-type="dependency" data-source-line="43" id="lnk10"><path d="M330.02,57.46 C323.35,79.15 314.6135,107.545 302.7935,145.985" fill="none" id="PROYECTO_ABIERTO-to-abrirInvestigadores" style="stroke:#008000;stroke-width:1;"/><polygon fill="#008000" points="301.03,151.72,307.4985,144.2931,302.4996,146.9408,299.8519,141.9419,301.03,151.72" style="stroke:#008000;stroke-width:1;"/><path d="M323.54,92 L323.54,117 L494.54,117 L494.54,102 L484.54,92 L323.54,92" fill="#FEFFDD" style="stroke:#181818;stroke-width:0.5;"/><path d="M484.54,92 L484.54,102 L494.54,102 L484.54,92" fill="#FEFFDD" style="stroke:#181818;stroke-width:0.5;"/><text fill="#000000" font-family="sans-serif" font-size="13" lengthAdjust="spacing" textLength="150.2935" x="329.54" y="109.0669">abrirInvestigadores(ID)</text></g><!--link abrirInvestigadores to INVESTIGADOR_ABIERTO--><g class="link" data-entity-1="ent0003" data-entity-2="ent0011" data-link-type="dependency" data-source-line="49" id="lnk12"><path d="M51.6,644.59 C38.67,662.84 30.54,674.3 30.54,674.3 C30.54,674.3 30.54,709.3 30.54,709.3 C30.54,709.3 47.3681,721.0942 67.7381,735.3842" fill="none" id="abrirInvestigadores-to-INVESTIGADOR_ABIERTO" style="stroke:#008000;stroke-width:1;"/><polygon fill="#008000" points="72.65,738.83,67.5794,730.3867,68.5568,735.9585,62.985,736.9359,72.65,738.83" style="stroke:#008000;stroke-width:1;"/><path d="M35.54,679.3 L35.54,704.3 L177.54,704.3 L177.54,689.3 L167.54,679.3 L35.54,679.3" fill="#FEFFDD" style="stroke:#181818;stroke-width:0.5;"/><path d="M167.54,679.3 L167.54,689.3 L177.54,689.3 L167.54,679.3" fill="#FEFFDD" style="stroke:#181818;stroke-width:0.5;"/><text fill="#000000" font-family="sans-serif" font-size="13" lengthAdjust="spacing" textLength="121.6782" x="41.54" y="696.3669">abrirInvestigador()</text></g><!--link abrirInvestigadores to INVESTIGADOR_ABIERTO--><g class="link" data-entity-1="ent0003" data-entity-2="ent0011" data-link-type="dependency" data-source-line="54" id="lnk13"><path d="M194.67,644.66 C189.91,682.5 186.54,709.3 186.54,709.3 C186.54,709.3 169.2029,721.1535 148.3029,735.4435" fill="none" id="abrirInvestigadores-to-INVESTIGADOR_ABIERTO-1" style="stroke:#008000;stroke-width:1;"/><polygon fill="#008000" points="143.35,738.83,153.0371,737.0522,147.4775,736.0079,148.5218,730.4483,143.35,738.83" style="stroke:#008000;stroke-width:1;"/><path d="M195.54,679.3 L195.54,704.3 L340.54,704.3 L340.54,689.3 L330.54,679.3 L195.54,679.3" fill="#FEFFDD" style="stroke:#181818;stroke-width:0.5;"/><path d="M330.54,679.3 L330.54,689.3 L340.54,689.3 L330.54,679.3" fill="#FEFFDD" style="stroke:#181818;stroke-width:0.5;"/><text fill="#000000" font-family="sans-serif" font-size="13" lengthAdjust="spacing" textLength="124.96" x="201.54" y="696.3669">crearInvestigador()</text></g><!--link abrirInvestigadores to PANEL_PRINCIPAL_ABIERTO--><g class="link" data-entity-1="ent0003" data-entity-2="ent0014" data-link-type="dependency" data-source-line="60" id="lnk15"><path d="M356.96,644.57 C377.56,683.03 393.0185,711.8901 404.6285,733.5801" fill="none" id="abrirInvestigadores-to-PANEL_PRINCIPAL_ABIERTO" style="stroke:#008000;stroke-width:1;"/><polygon fill="#008000" points="407.46,738.87,406.7393,729.0475,405.1004,734.4618,399.6862,732.8229,407.46,738.87" style="stroke:#008000;stroke-width:1;"/><path d="M392.54,679.3 L392.54,704.3 L544.54,704.3 L544.54,689.3 L534.54,679.3 L392.54,679.3" fill="#FEFFDD" style="stroke:#181818;stroke-width:0.5;"/><path d="M534.54,679.3 L534.54,689.3 L544.54,689.3 L534.54,679.3" fill="#FEFFDD" style="stroke:#181818;stroke-width:0.5;"/><text fill="#000000" font-family="sans-serif" font-size="13" lengthAdjust="spacing" textLength="131.9424" x="398.54" y="696.3669">abrirPanelPrincipal()</text></g><!--SRC=[fLJHQi8m57tFLuJkPHlAsBi8dNOZu6ofCXWYahQP1DCaf5MGCTYtxDFs9KiYxOosocOBfKtEFUVSstjJh2YNME4SCif9kPK4Ii6svWE0eiGbWPJVGrn0B_B7mMWHnMWyG94_MlWFA8YdeGSCe3kxMYf2-BpRXpXHL26-8KL9bpWJYXI02yqak55PWGR0zGqWF8C6LkaseAoFncWFlWC0zRMBzVIjiS-YA1NccHXHlNwy_qZP_hu5p6xdJZOk1xGO9nkpq4lw0o5KHhanrBjB-h0GZAPKHrY_kefEFKnGbR1v1_NZG6_Voe7TDYSJlKjoR5r8BKQuvc6MBIDDHhu_lo0QTZHPdYZIWIdEfJ3O56VO2QZX4L4vrT9LbWg-MNDg9tG2TroE4-1K4Uo28L-JZJZBBp4dJ6TFUKebPh_bhRkiNd6h-f-2j_xwuvgS_ZqxV8R_xbHtxT_jhRdj2AOdGSYK2dxGcE030135uMimc8RLl5y-wcYuF-nD44S3ZL-2oHGz-SCmhaoS4N5EaylvRHUsyfyLQ3au6tA8JDT6LTFkgVm0]--></g></svg>