<?xml version="1.0" encoding="us-ascii" standalone="no"?><svg xmlns="http://www.w3.org/2000/svg" xmlns:xlink="http://www.w3.org/1999/xlink" contentStyleType="text/css" height="839px" preserveAspectRatio="none" style="width:524px;height:839px;background:#FFFFFF;" version="1.1" viewBox="0 0 524 839" width="524px" zoomAndPan="magnify"><defs/><g><g id="SESION_CERRADA"><rect fill="#F1F1F1" height="50" rx="12.5" ry="12.5" style="stroke:#181818;stroke-width:0.5;" width="145" x="186.5" y="7"/><line style="stroke:#181818;stroke-width:0.5;" x1="186.5" x2="331.5" y1="34.6094" y2="34.6094"/><text fill="#000000" font-family="sans-serif" font-size="14" lengthAdjust="spacing" textLength="125" x="196.5" y="26.5332">SESION_CERRADA</text></g><path d="M19.5,118 L498.5,118 A12.5,12.5 0 0 1 511,130.5 L511,145.6094 L7,145.6094 L7,130.5 A12.5,12.5 0 0 1 19.5,118 " fill="#F1F1F1" style="stroke:#F1F1F1;stroke-width:1.0;"/><rect fill="none" height="568.6094" rx="12.5" ry="12.5" style="stroke:#181818;stroke-width:0.5;" width="504" x="7" y="118"/><line style="stroke:#181818;stroke-width:0.5;" x1="7" x2="511" y1="145.6094" y2="145.6094"/><text fill="#000000" font-family="sans-serif" font-size="14" lengthAdjust="spacing" textLength="90" x="214" y="137.5332">iniciarSesion()</text><g id="iniciarSesion.SolicitandoAcceso"><rect fill="#F1F1F1" height="50" rx="12.5" ry="12.5" style="stroke:#181818;stroke-width:0.5;" width="50" x="114" y="248.6094"/><line style="stroke:#181818;stroke-width:0.5;" x1="114" x2="164" y1="276.2188" y2="276.2188"/><text fill="#000000" font-family="sans-serif" font-size="14" lengthAdjust="spacing" textLength="4" x="137" y="268.1426">&#160;</text></g><g id="iniciarSesion.ProporcionandoCredenciales"><rect fill="#F1F1F1" height="50" rx="12.5" ry="12.5" style="stroke:#181818;stroke-width:0.5;" width="50" x="19" y="403.6094"/><line style="stroke:#181818;stroke-width:0.5;" x1="19" x2="69" y1="431.2188" y2="431.2188"/><text fill="#000000" font-family="sans-serif" font-size="14" lengthAdjust="spacing" textLength="4" x="42" y="423.1426">&#160;</text></g><g id="elem_c"><polygon fill="#F1F1F1" points="144,558.6094,156,570.6094,144,582.6094,132,570.6094,144,558.6094" style="stroke:#181818;stroke-width:0.5;"/></g><ellipse cx="139" cy="166.6094" fill="#222222" rx="10" ry="10" style="stroke:#222222;stroke-width:1.0;"/><ellipse cx="144" cy="665.6094" fill="none" rx="11" ry="11" style="stroke:#222222;stroke-width:1.0;"/><ellipse cx="144" cy="665.6094" fill="#222222" rx="6" ry="6" style="stroke:#222222;stroke-width:1.0;"/><!--link *start*iniciarSesion to SolicitandoAcceso--><g id="link_*start*iniciarSesion_SolicitandoAcceso"><path d="M139,176.9294 C139,192.7894 139,219.5194 139,242.2494 " fill="none" id="*start*iniciarSesion-to-SolicitandoAcceso" style="stroke:#008000;stroke-width:1.0;"/><polygon fill="#008000" points="139,248.2494,143,239.2494,139,243.2494,135,239.2494,139,248.2494" style="stroke:#008000;stroke-width:1.0;"/><path d="M144,199.6094 L144,225.6094 L402,225.6094 L402,209.6094 L392,199.6094 L144,199.6094 " fill="#FEFFDD" style="stroke:#181818;stroke-width:0.5;"/><path d="M392,199.6094 L392,209.6094 L402,209.6094 L392,199.6094 " fill="#FEFFDD" style="stroke:#181818;stroke-width:0.5;"/><text fill="#000000" font-family="sans-serif" font-size="13" font-weight="bold" lengthAdjust="spacing" textLength="78" x="150" y="218.1045">Investigador</text><text fill="#000000" font-family="sans-serif" font-size="13" lengthAdjust="spacing" textLength="155" x="232" y="218.1045">solicita acceder al sistema</text></g><!--link SolicitandoAcceso to ProporcionandoCredenciales--><g id="link_SolicitandoAcceso_ProporcionandoCredenciales"><path d="M113.76,285.3194 C84.43,297.7594 40,316.6094 40,316.6094 C40,316.6094 40,385.6094 40,385.6094 C40,385.6094 40.2211,387.9664 41.1011,397.2064 " fill="none" id="SolicitandoAcceso-to-ProporcionandoCredenciales" style="stroke:#008000;stroke-width:1.0;"/><polygon fill="#008000" points="41.67,403.1794,44.7987,393.8407,41.196,398.2019,36.8347,394.5992,41.67,403.1794" style="stroke:#008000;stroke-width:1.0;"/><path d="M45,321.6094 L45,380.6094 L221,380.6094 L221,331.6094 L211,321.6094 L45,321.6094 " fill="#FEFFDD" style="stroke:#181818;stroke-width:0.5;"/><path d="M211,321.6094 L211,331.6094 L221,331.6094 L211,321.6094 " fill="#FEFFDD" style="stroke:#181818;stroke-width:0.5;"/><text fill="#000000" font-family="sans-serif" font-size="13" font-weight="bold" lengthAdjust="spacing" textLength="51" x="51" y="340.1045">Sistema</text><text fill="#000000" font-family="sans-serif" font-size="13" lengthAdjust="spacing" textLength="100" x="106" y="340.1045">permite introducir</text><text fill="#000000" font-family="sans-serif" font-size="13" lengthAdjust="spacing" textLength="51" x="51" y="356.4561">&#8226; usuario</text><text fill="#000000" font-family="sans-serif" font-size="13" lengthAdjust="spacing" textLength="73" x="51" y="372.8076">&#8226; contrase&#241;a</text></g><!--link ProporcionandoCredenciales to c--><g id="link_ProporcionandoCredenciales_c"><path d="M47.47,453.6994 C52.18,486.3394 60,540.6094 60,540.6094 C60,540.6094 108.718,557.4329 129.968,564.7629 " fill="none" id="ProporcionandoCredenciales-to-c" style="stroke:#008000;stroke-width:1.0;"/><polygon fill="#008000" points="135.64,566.7194,128.4363,560.0032,130.9133,565.0889,125.8276,567.566,135.64,566.7194" style="stroke:#008000;stroke-width:1.0;"/><path d="M65,476.6094 L65,535.6094 L221,535.6094 L221,486.6094 L211,476.6094 L65,476.6094 " fill="#FEFFDD" style="stroke:#181818;stroke-width:0.5;"/><path d="M211,476.6094 L211,486.6094 L221,486.6094 L211,476.6094 " fill="#FEFFDD" style="stroke:#181818;stroke-width:0.5;"/><text fill="#000000" font-family="sans-serif" font-size="13" font-weight="bold" lengthAdjust="spacing" textLength="78" x="71" y="495.1045">Investigador</text><text fill="#000000" font-family="sans-serif" font-size="13" lengthAdjust="spacing" textLength="53" x="153" y="495.1045">introduce</text><text fill="#000000" font-family="sans-serif" font-size="13" lengthAdjust="spacing" textLength="51" x="71" y="511.4561">&#8226; usuario</text><text fill="#000000" font-family="sans-serif" font-size="13" lengthAdjust="spacing" textLength="73" x="71" y="527.8076">&#8226; contrase&#241;a</text></g><!--link c to SolicitandoAcceso--><g id="link_c_SolicitandoAcceso"><path d="M152.16,566.7194 C172.9,559.3894 226,540.6094 226,540.6094 C226,540.6094 226,316.6094 226,316.6094 C226,316.6094 195.2639,301.7667 169.5639,289.3667 " fill="none" id="c-to-SolicitandoAcceso" style="stroke:#FF0000;stroke-width:1.0;"/><polygon fill="#FF0000" points="164.16,286.7594,170.5276,294.2729,168.6632,288.9321,174.004,287.0678,164.16,286.7594" style="stroke:#FF0000;stroke-width:1.0;"/><path d="M231,415.6094 L231,441.6094 L502,441.6094 L502,425.6094 L492,415.6094 L231,415.6094 " fill="#FEFFDD" style="stroke:#181818;stroke-width:0.5;"/><path d="M492,415.6094 L492,425.6094 L502,425.6094 L492,415.6094 " fill="#FEFFDD" style="stroke:#181818;stroke-width:0.5;"/><text fill="#000000" font-family="sans-serif" font-size="13" font-weight="bold" lengthAdjust="spacing" textLength="51" x="237" y="434.1045">Sistema</text><text fill="#000000" font-family="sans-serif" font-size="13" lengthAdjust="spacing" textLength="195" x="292" y="434.1045">presenta credenciales incorrectas</text></g><!--link c to *end*iniciarSesion--><g id="link_c_*end*iniciarSesion"><path d="M144,582.6394 C144,600.8294 144,630.8394 144,648.4394 " fill="none" id="c-to-*end*iniciarSesion" style="stroke:#008000;stroke-width:1.0;"/><polygon fill="#008000" points="144,654.4394,148,645.4394,144,649.4394,140,645.4394,144,654.4394" style="stroke:#008000;stroke-width:1.0;"/><path d="M149,605.6094 L149,631.6094 L372,631.6094 L372,615.6094 L362,605.6094 L149,605.6094 " fill="#FEFFDD" style="stroke:#181818;stroke-width:0.5;"/><path d="M362,605.6094 L362,615.6094 L372,615.6094 L362,605.6094 " fill="#FEFFDD" style="stroke:#181818;stroke-width:0.5;"/><text fill="#000000" font-family="sans-serif" font-size="13" font-weight="bold" lengthAdjust="spacing" textLength="51" x="155" y="624.1045">Sistema</text><text fill="#000000" font-family="sans-serif" font-size="13" lengthAdjust="spacing" textLength="147" x="210" y="624.1045">presenta acceso correcto</text></g><g id="PANEL_PRINCIPAL_ABIERTO"><rect fill="#F1F1F1" height="50" rx="12.5" ry="12.5" style="stroke:#181818;stroke-width:0.5;" width="210" x="154" y="783"/><line style="stroke:#181818;stroke-width:0.5;" x1="154" x2="364" y1="810.6094" y2="810.6094"/><text fill="#000000" font-family="sans-serif" font-size="14" lengthAdjust="spacing" textLength="190" x="164" y="802.5332">PANEL_PRINCIPAL_ABIERTO</text></g><!--link SESION_CERRADA to iniciarSesion--><g id="link_SESION_CERRADA_iniciarSesion"><path d="M259,57.18 C259,72.23 259,87.36 259,111.83 " fill="none" id="SESION_CERRADA-to-iniciarSesion" style="stroke:#008000;stroke-width:1.0;"/><polygon fill="#008000" points="259,117.83,263,108.83,259,112.83,255,108.83,259,117.83" style="stroke:#008000;stroke-width:1.0;"/></g><!--link iniciarSesion to PANEL_PRINCIPAL_ABIERTO--><g id="link_iniciarSesion_PANEL_PRINCIPAL_ABIERTO"><path d="M259,687.03 C259,726.46 259,754.87 259,776.61 " fill="none" id="iniciarSesion-to-PANEL_PRINCIPAL_ABIERTO" style="stroke:#008000;stroke-width:1.0;"/><polygon fill="#008000" points="259,782.61,263,773.61,259,777.61,255,773.61,259,782.61" style="stroke:#008000;stroke-width:1.0;"/><path d="M264,722 L264,748 L477,748 L477,732 L467,722 L264,722 " fill="#FEFFDD" style="stroke:#181818;stroke-width:0.5;"/><path d="M467,722 L467,732 L477,732 L467,722 " fill="#FEFFDD" style="stroke:#181818;stroke-width:0.5;"/><text fill="#000000" font-family="sans-serif" font-size="13" font-weight="bold" lengthAdjust="spacing" textLength="51" x="270" y="740.4951">Sistema</text><text fill="#000000" font-family="sans-serif" font-size="13" lengthAdjust="spacing" textLength="137" x="325" y="740.4951">presenta panel principal</text></g><!--SRC=[dPDHQi9048RVznIBVMaBqWk4G6hp412Lf6yYCcu6knXtmkvQa5BeMNg3dg4twKaw9bPSDBGs-pJ3F_FzCxjnAsrgiB2MbJRejpNAcghjBX2YI8jiF9eFqZnF7XBPdrujBQAPzMEfZLOQR85Ean72UV0O9YKusGiorpSz-IA4vA_Lz_Ymgg2ALHvCIObIwEXKCh5KarNSPASQM2pHSECAtP5MoIXIJwGLnd6BcTxE0jVdIOQuc0tpqAic4ItYp3oZyte99TdeRX5Bjo-Lm8KbMWcLTDfvN4DJWwPi6hNW4r1WuvTfplafMbHZfKQxriswlQLoexHjL5zlxtBZDc0r7M95h067dn_dN7Rx2Eogls_fnnB-qv7QWTd7PPSLBCUYGyFtf8x7qKQHjQWyk2xgOLn-D9UHeBtXFO52mAiGuMyHF8Hab0xdapmR3R99CfmdzrcQFuv5WEx2rc2muf1dqpLKue3y1W00]--></g></svg>