<?plantuml 1.2026.2?><svg xmlns="http://www.w3.org/2000/svg" xmlns:xlink="http://www.w3.org/1999/xlink" contentStyleType="text/css" data-diagram-type="DESCRIPTION" height="313px" preserveAspectRatio="none" style="width:1053px;height:313px;background:#FFFFFF;" version="1.1" viewBox="0 0 1053 313" width="1053px" zoomAndPan="magnify"><defs/><g><!--cluster crearPublicacion--><g class="cluster" data-qualified-name="crearPublicacion" data-source-line="10" id="ent0004"><path d="M8.5,6 L133.0332,6 A3.75,3.75 0 0 1 135.5332,8.5 L142.5332,25.9688 L415.5,25.9688 A2.5,2.5 0 0 1 418,28.4688 L418,303.5 A2.5,2.5 0 0 1 415.5,306 L8.5,306 A2.5,2.5 0 0 1 6,303.5 L6,8.5 A2.5,2.5 0 0 1 8.5,6" fill="none" style="stroke:#000000;stroke-width:1.5;"/><line style="stroke:#000000;stroke-width:1.5;" x1="6" x2="142.5332" y1="25.9688" y2="25.9688"/><text fill="#000000" font-family="sans-serif" font-size="12" font-weight="bold" lengthAdjust="spacing" textLength="123.5332" x="10" y="19.1387">crearPublicacion()</text></g><!--entity CrearPublicacionView--><g class="entity" data-qualified-name="crearPublicacion.CrearPublicacionView" data-source-line="11" id="ent0005"><rect fill="#629EF9" height="33.9688" rx="2.5" ry="2.5" style="stroke:#181818;stroke-width:0.5;" width="149.6797" x="252" y="38"/><text fill="#000000" font-family="sans-serif" font-size="12" lengthAdjust="spacing" textLength="129.6797" x="262" y="59.1387">CrearPublicacionView</text></g><!--entity PublicacionController--><g class="entity" data-qualified-name="crearPublicacion.PublicacionController" data-source-line="12" id="ent0006"><rect fill="#B5BD68" height="33.9688" rx="2.5" ry="2.5" style="stroke:#181818;stroke-width:0.5;" width="147.248" x="22.5" y="147"/><text fill="#000000" font-family="sans-serif" font-size="12" lengthAdjust="spacing" textLength="127.248" x="32.5" y="168.1387">PublicacionController</text></g><!--entity PublicacionRepository--><g class="entity" data-qualified-name="crearPublicacion.PublicacionRepository" data-source-line="13" id="ent0007"><rect fill="#F2AC4E" height="33.9688" rx="2.5" ry="2.5" style="stroke:#181818;stroke-width:0.5;" width="152.3047" x="22" y="256"/><text fill="#000000" font-family="sans-serif" font-size="12" lengthAdjust="spacing" textLength="132.3047" x="32" y="277.1387">PublicacionRepository</text></g><!--entity Publicacion--><g class="entity" data-qualified-name="crearPublicacion.Publicacion" data-source-line="14" id="ent0008"><rect fill="#F2AC4E" height="33.9688" rx="2.5" ry="2.5" style="stroke:#181818;stroke-width:0.5;" width="87.957" x="259" y="147"/><text fill="#000000" font-family="sans-serif" font-size="12" lengthAdjust="spacing" textLength="67.957" x="269" y="168.1387">Publicacion</text></g><!--entity Sesion--><g class="entity" data-qualified-name="crearPublicacion.Sesion" data-source-line="15" id="ent0009"><rect fill="#F2AC4E" height="33.9688" rx="2.5" ry="2.5" style="stroke:#181818;stroke-width:0.5;" width="59.5332" x="209" y="256"/><text fill="#000000" font-family="sans-serif" font-size="12" lengthAdjust="spacing" textLength="39.5332" x="219" y="277.1387">Sesion</text></g><!--entity MisPublicacionesAbiertas--><g class="entity" data-qualified-name="MisPublicacionesAbiertas" data-source-line="7" id="ent0002"><rect fill="#CDEBA5" height="33.9688" rx="2.5" ry="2.5" style="stroke:#181818;stroke-width:0.5;" width="209.1699" x="461.5" y="147"/><text fill="#000000" font-family="sans-serif" font-size="12" lengthAdjust="spacing" textLength="189.1699" x="471.5" y="168.1387">MIS_PUBLICACIONES_ABIERTAS</text></g><!--entity MiPublicacionAbierta--><g class="entity" data-qualified-name="MiPublicacionAbierta" data-source-line="8" id="ent0003"><rect fill="#CDEBA5" height="33.9688" rx="2.5" ry="2.5" style="stroke:#181818;stroke-width:0.5;" width="178.7363" x="752.5" y="147"/><text fill="#000000" font-family="sans-serif" font-size="12" lengthAdjust="spacing" textLength="158.7363" x="762.5" y="168.1387">MI_PUBLICACION_ABIERTA</text></g><!--link MisPublicacionesAbiertas to CrearPublicacionView--><g class="link" data-entity-1="ent0002" data-entity-2="ent0005" data-link-type="dependency" data-source-line="18" id="lnk10"><path d="M521.58,146.91 C484.96,133.65 439,117 439,117 C439,117 394.8793,92.9697 361.6993,74.8997" fill="none" id="MisPublicacionesAbiertas-to-CrearPublicacionView" style="stroke:#181818;stroke-width:1;"/><polygon fill="#181818" points="356.43,72.03,362.4208,79.8473,360.821,74.4214,366.247,72.8217,356.43,72.03" style="stroke:#181818;stroke-width:1;"/><text fill="#000000" font-family="sans-serif" font-size="12" lengthAdjust="spacing" textLength="108.5215" x="440" y="114.1387">crearPublicacion()</text></g><!--link CrearPublicacionView to MisPublicacionesAbiertas--><g class="link" data-entity-1="ent0005" data-entity-2="ent0002" data-link-type="dependency" data-source-line="26" id="lnk16"><path d="M402.25,71.32 C468,84.7 553,102 553,102 C553,102 557.4797,123.0317 561.3297,141.1017" fill="none" id="CrearPublicacionView-to-MisPublicacionesAbiertas" style="stroke:#181818;stroke-width:1;stroke-dasharray:7,7;"/><polygon fill="#181818" points="562.58,146.97,564.6167,137.334,561.5381,142.0798,556.7924,139.0011,562.58,146.97" style="stroke:#181818;stroke-width:1;"/><text fill="#000000" font-family="sans-serif" font-size="12" lengthAdjust="spacing" textLength="208.7227" x="558" y="114.1387">&#171;cancelar&#187; abrirMisPublicaciones()</text></g><!--link CrearPublicacionView to PublicacionController--><g class="link" data-entity-1="ent0005" data-entity-2="ent0006" data-link-type="dependency" data-source-line="20" id="lnk11"><path d="M251.68,68.69 C170.87,82.31 54,102 54,102 C54,102 54,117 54,117 C54,117 65.1538,129.2196 77.2638,142.4796" fill="none" id="CrearPublicacionView-to-PublicacionController" style="stroke:#181818;stroke-width:1;"/><polygon fill="#181818" points="81.31,146.91,78.1943,137.5669,77.9382,143.218,72.2871,142.9618,81.31,146.91" style="stroke:#181818;stroke-width:1;"/><text fill="#000000" font-family="sans-serif" font-size="12" lengthAdjust="spacing" textLength="343.5996" x="55" y="114.1387">crear(titulo, estado, visibilidad, descripcion) : Publicacion</text></g><!--link PublicacionController to Sesion--><g class="link" data-entity-1="ent0006" data-entity-2="ent0009" data-link-type="dependency" data-source-line="21" id="lnk12"><path d="M129.58,181.09 C157.26,194.35 192,211 192,211 C192,211 209.0684,233.1468 222.9884,251.2168" fill="none" id="PublicacionController-to-Sesion" style="stroke:#181818;stroke-width:1;"/><polygon fill="#181818" points="226.65,255.97,224.3264,246.3992,223.5987,252.009,217.9888,251.2812,226.65,255.97" style="stroke:#181818;stroke-width:1;"/><text fill="#000000" font-family="sans-serif" font-size="12" lengthAdjust="spacing" textLength="169.752" x="205" y="223.1387">getUsuarioActual() : Usuario</text></g><!--link PublicacionController to Publicacion--><g class="link" data-entity-1="ent0006" data-entity-2="ent0008" data-link-type="dependency" data-source-line="22" id="lnk13"><path d="M169.56,164 C199.43,164 226.93,164 252.9,164" fill="none" id="PublicacionController-to-Publicacion" style="stroke:#181818;stroke-width:1;"/><polygon fill="#181818" points="258.9,164,249.9,160,253.9,164,249.9,168,258.9,164" style="stroke:#181818;stroke-width:1;"/><text fill="#000000" font-family="sans-serif" font-size="12" lengthAdjust="spacing" textLength="53.0391" x="187.75" y="158.1387">&#171;create&#187;</text></g><!--link PublicacionController to PublicacionRepository--><g class="link" data-entity-1="ent0006" data-entity-2="ent0007" data-link-type="dependency" data-source-line="23" id="lnk14"><path d="M83.76,181.09 C73.67,194.35 61,211 61,211 C61,211 61,226 61,226 C61,226 70.6285,237.9755 81.2985,251.2355" fill="none" id="PublicacionController-to-PublicacionRepository" style="stroke:#181818;stroke-width:1;"/><polygon fill="#181818" points="85.06,255.91,82.5341,246.3905,81.9254,252.0146,76.3014,251.4059,85.06,255.91" style="stroke:#181818;stroke-width:1;"/><text fill="#000000" font-family="sans-serif" font-size="12" lengthAdjust="spacing" textLength="125.1152" x="62" y="223.1387">guardar(publicacion)</text></g><!--link CrearPublicacionView to MiPublicacionAbierta--><g class="link" data-entity-1="ent0005" data-entity-2="ent0003" data-link-type="dependency" data-source-line="25" id="lnk15"><path d="M402.24,63.73 C529.84,76.83 775,102 775,102 C775,102 800.1131,124.861 819.9631,142.931" fill="none" id="CrearPublicacionView-to-MiPublicacionAbierta" style="stroke:#181818;stroke-width:1;stroke-dasharray:7,7;"/><polygon fill="#181818" points="824.4,146.97,820.4373,137.9535,820.7026,143.6041,815.0519,143.8694,824.4,146.97" style="stroke:#181818;stroke-width:1;"/><text fill="#000000" font-family="sans-serif" font-size="12" lengthAdjust="spacing" textLength="253.7871" x="792" y="114.1387">&#171;finalizar&#187; abrirMiPublicacion(publicacion)</text></g><?plantuml-src VPFTQjj048Nlzoa6-yO6En3JXCO4WQp8O6ZQ43Mz3IDfh0pPQiNkgiOfVVUkP2UMbRLrjTfpvfi_oRnoMQ76tv1YzbfeLPTvfAJIi7bXIy9ywEO5SxNXie0rIjDLxcYDjRHBLTfTQ2eTosz8-8tWSjOH9PTajnL1fUIsUH52KsQnB2J1CBgB5-4L3EvNoVF3q-BRAWgZrO_lSV8SBbRnuyym6G0Qk6VpKAUICynObMJ2b4bRD7vKb_JEsMCwb3r3YCfrWmN18DE4kkCOZTke_ZNy5U2UG-f1r7FyOjgqeJu1XjUpctXvquTqR96Rf5PIacufNWM6wLMQNtyzWtcaIXcsIc_xc8C2m-KiZBx4Pp3zu5CX2Pbtz-xuOVmdnAaDmbHF0--Svl1v7q9u9phD7SCxfJraPDdMKas0Z7MV-GJ-iE6K9UUOJo0dasckciWnpBiWuHzzcs_NunmAia-cHiqgp6oDSjGmzZUdulLnlNEulMtgj1G4vr9wD-WgSBborsHra4zDwk8YyFu5JGLhBb7o6-eW04mrwoFZCVqCtB_djaKiCv9T_h5tDFuF?></g></svg>