<?xml version="1.0" encoding="us-ascii" standalone="no"?><svg xmlns="http://www.w3.org/2000/svg" xmlns:xlink="http://www.w3.org/1999/xlink" contentStyleType="text/css" height="857px" preserveAspectRatio="none" style="width:660px;height:857px;background:#FFFFFF;" version="1.1" viewBox="0 0 660 857" width="660px" zoomAndPan="magnify"><defs/><g><!--cluster cerrarSesion--><g id="cluster_cerrarSesion"><path d="M198.5,112 L634.5,112 A12.5,12.5 0 0 1 647,124.5 L647,134.6094 L186,134.6094 L186,124.5 A12.5,12.5 0 0 1 198.5,112 " fill="#F1F1F1" style="stroke:#F1F1F1;stroke-width:1.0;"/><rect fill="none" height="516" rx="12.5" ry="12.5" style="stroke:#181818;stroke-width:0.5;" width="461" x="186" y="112"/><line style="stroke:#181818;stroke-width:0.5;" x1="186" x2="647" y1="134.6094" y2="134.6094"/><text fill="#000000" font-family="sans-serif" font-size="14" lengthAdjust="spacing" textLength="91" x="371" y="130.5332">cerrarSesion()</text></g><g id="cerrarSesion.SolicitandoCierre"><rect fill="#F1F1F1" height="50" rx="12.5" ry="12.5" style="stroke:#181818;stroke-width:0.5;" width="50" x="228" y="272"/><line style="stroke:#181818;stroke-width:0.5;" x1="228" x2="278" y1="299.6094" y2="299.6094"/><text fill="#000000" font-family="sans-serif" font-size="14" lengthAdjust="spacing" textLength="4" x="251" y="291.5332">&#160;</text></g><g id="cerrarSesion.ConfirmandoCierre"><rect fill="#F1F1F1" height="50" rx="12.5" ry="12.5" style="stroke:#181818;stroke-width:0.5;" width="50" x="228" y="434"/><line style="stroke:#181818;stroke-width:0.5;" x1="228" x2="278" y1="461.6094" y2="461.6094"/><text fill="#000000" font-family="sans-serif" font-size="14" lengthAdjust="spacing" textLength="4" x="251" y="453.5332">&#160;</text></g><g id="elem_c"><polygon fill="#F1F1F1" points="253,580,265,592,253,604,241,592,253,580" style="stroke:#181818;stroke-width:0.5;"/></g><ellipse cx="253" cy="166" fill="#222222" rx="10" ry="10" style="stroke:#222222;stroke-width:1.0;"/><g id="in1"><rect fill="#F1F1F1" height="50" rx="12.5" ry="12.5" style="stroke:#181818;stroke-width:0.5;" width="210" x="89" y="7"/><line style="stroke:#181818;stroke-width:0.5;" x1="89" x2="299" y1="34.6094" y2="34.6094"/><text fill="#000000" font-family="sans-serif" font-size="14" lengthAdjust="spacing" textLength="190" x="99" y="26.5332">PANEL_PRINCIPAL_ABIERTO</text></g><g id="PANEL_PRINCIPAL_ABIERTO"><rect fill="#F1F1F1" height="50" rx="12.5" ry="12.5" style="stroke:#181818;stroke-width:0.5;" width="210" x="7" y="718"/><line style="stroke:#181818;stroke-width:0.5;" x1="7" x2="217" y1="745.6094" y2="745.6094"/><text fill="#000000" font-family="sans-serif" font-size="14" lengthAdjust="spacing" textLength="190" x="17" y="737.5332">PANEL_PRINCIPAL_ABIERTO</text></g><g id="SESION_CERRADA"><rect fill="#F1F1F1" height="50" rx="12.5" ry="12.5" style="stroke:#181818;stroke-width:0.5;" width="145" x="322.5" y="718"/><line style="stroke:#181818;stroke-width:0.5;" x1="322.5" x2="467.5" y1="745.6094" y2="745.6094"/><text fill="#000000" font-family="sans-serif" font-size="14" lengthAdjust="spacing" textLength="125" x="332.5" y="737.5332">SESION_CERRADA</text></g><ellipse cx="395" cy="840" fill="none" rx="11" ry="11" style="stroke:#222222;stroke-width:1.0;"/><ellipse cx="395" cy="840" fill="#222222" rx="6" ry="6" style="stroke:#222222;stroke-width:1.0;"/><!--link in1 to cerrarSesion--><g id="link_in1_cerrarSesion"><path d="M194,57.21 C194,66.5875 194,77.8775 194,89.5708 C194,95.4174 194,101.3649 194,107.2245 C194,108.6894 194,104.1488 194,105.5998 " fill="none" id="in1-to-cerrarSesion" style="stroke:#008000;stroke-width:1.0;"/><polygon fill="#008000" points="194,111.5998,198,102.5998,194,106.5998,190,102.5998,194,111.5998" style="stroke:#008000;stroke-width:1.0;"/></g><!--link *start*cerrarSesion to SolicitandoCierre--><g id="link_*start*cerrarSesion_SolicitandoCierre"><path d="M253,176.28 C253,196.09 253,237.09 253,265.96 " fill="none" id="*start*cerrarSesion-to-SolicitandoCierre" style="stroke:#008000;stroke-width:1.0;"/><polygon fill="#008000" points="253,271.96,257,262.96,253,266.96,249,262.96,253,271.96" style="stroke:#008000;stroke-width:1.0;"/><path d="M258,211 L258,237 L481,237 L481,221 L471,211 L258,211 " fill="#FEFFDD" style="stroke:#181818;stroke-width:0.5;"/><path d="M471,211 L471,221 L481,221 L471,211 " fill="#FEFFDD" style="stroke:#181818;stroke-width:0.5;"/><text fill="#000000" font-family="sans-serif" font-size="13" font-weight="bold" lengthAdjust="spacing" textLength="78" x="264" y="229.4951">Investigador</text><text fill="#000000" font-family="sans-serif" font-size="13" lengthAdjust="spacing" textLength="120" x="346" y="229.4951">solicita cerrar sesi&#243;n</text></g><!--link SolicitandoCierre to ConfirmandoCierre--><g id="link_SolicitandoCierre_ConfirmandoCierre"><path d="M253,322.3 C253,352.55 253,397.89 253,428 " fill="none" id="SolicitandoCierre-to-ConfirmandoCierre" style="stroke:#008000;stroke-width:1.0;"/><polygon fill="#008000" points="253,434,257,425,253,429,249,425,253,434" style="stroke:#008000;stroke-width:1.0;"/><path d="M258,357 L258,399 L531,399 L531,367 L521,357 L258,357 " fill="#FEFFDD" style="stroke:#181818;stroke-width:0.5;"/><path d="M521,357 L521,367 L531,367 L521,357 " fill="#FEFFDD" style="stroke:#181818;stroke-width:0.5;"/><text fill="#000000" font-family="sans-serif" font-size="13" font-weight="bold" lengthAdjust="spacing" textLength="51" x="264" y="375.4951">Sistema</text><text fill="#000000" font-family="sans-serif" font-size="13" lengthAdjust="spacing" textLength="197" x="319" y="375.4951">presenta solicitud de confirmaci&#243;n</text><text fill="#000000" font-family="sans-serif" font-size="13" lengthAdjust="spacing" textLength="145" x="264" y="391.8467">&#191;Desea cerrar la sesi&#243;n?</text></g><!--link ConfirmandoCierre to c--><g id="link_ConfirmandoCierre_c"><path d="M253,484.03 C253,512.54 253,552.86 253,573.93 " fill="none" id="ConfirmandoCierre-to-c" style="stroke:#008000;stroke-width:1.0;"/><polygon fill="#008000" points="253,579.93,257,570.93,253,574.93,249,570.93,253,579.93" style="stroke:#008000;stroke-width:1.0;"/><path d="M258,519 L258,545 L618,545 L618,529 L608,519 L258,519 " fill="#FEFFDD" style="stroke:#181818;stroke-width:0.5;"/><path d="M608,519 L608,529 L618,529 L608,519 " fill="#FEFFDD" style="stroke:#181818;stroke-width:0.5;"/><text fill="#000000" font-family="sans-serif" font-size="13" font-weight="bold" lengthAdjust="spacing" textLength="78" x="264" y="537.4951">Investigador</text><text fill="#000000" font-family="sans-serif" font-size="13" lengthAdjust="spacing" textLength="257" x="346" y="537.4951">solicita confirmar o solicita cancelar el cierre</text></g><!--link c to PANEL_PRINCIPAL_ABIERTO--><g id="link_c_PANEL_PRINCIPAL_ABIERTO"><path d="M244.85,596.34 C214.38,608.82 109,652 109,652 C109,652 109,688 109,688 C109,688 109.5265,697.4793 110.3265,711.8493 " fill="none" id="c-to-PANEL_PRINCIPAL_ABIERTO" style="stroke:#0000FF;stroke-width:1.0;"/><polygon fill="#0000FF" points="110.66,717.84,114.1535,708.6316,110.3821,712.8477,106.1659,709.0763,110.66,717.84" style="stroke:#0000FF;stroke-width:1.0;"/><path d="M114,657 L114,683 L347,683 L347,667 L337,657 L114,657 " fill="#FEFFDD" style="stroke:#181818;stroke-width:0.5;"/><path d="M337,657 L337,667 L347,667 L337,657 " fill="#FEFFDD" style="stroke:#181818;stroke-width:0.5;"/><text fill="#000000" font-family="sans-serif" font-size="13" font-weight="bold" lengthAdjust="spacing" textLength="78" x="120" y="675.4951">Investigador</text><text fill="#000000" font-family="sans-serif" font-size="13" lengthAdjust="spacing" textLength="130" x="202" y="675.4951">solicita cancelar cierre</text></g><!--link c to SESION_CERRADA--><g id="link_c_SESION_CERRADA"><path d="M260.08,597.06 C283.35,610.39 356,652 356,652 C356,652 370.6148,685.7145 382.1648,712.3745 " fill="none" id="c-to-SESION_CERRADA" style="stroke:#008000;stroke-width:1.0;"/><polygon fill="#008000" points="384.55,717.88,384.6426,708.0316,382.5623,713.2921,377.3019,711.2118,384.55,717.88" style="stroke:#008000;stroke-width:1.0;"/><path d="M376,657 L376,683 L591,683 L591,667 L581,657 L376,657 " fill="#FEFFDD" style="stroke:#181818;stroke-width:0.5;"/><path d="M581,657 L581,667 L591,667 L581,657 " fill="#FEFFDD" style="stroke:#181818;stroke-width:0.5;"/><text fill="#000000" font-family="sans-serif" font-size="13" font-weight="bold" lengthAdjust="spacing" textLength="51" x="382" y="675.4951">Sistema</text><text fill="#000000" font-family="sans-serif" font-size="13" lengthAdjust="spacing" textLength="139" x="437" y="675.4951">presenta sesi&#243;n cerrada</text></g><!--link SESION_CERRADA to *end*--><g id="link_SESION_CERRADA_*end*"><path d="M395,768.46 C395,788.04 395,808.49 395,822.8 " fill="none" id="SESION_CERRADA-to-*end*" style="stroke:#008000;stroke-width:1.0;"/><polygon fill="#008000" points="395,828.8,399,819.8,395,823.8,391,819.8,395,828.8" style="stroke:#008000;stroke-width:1.0;"/></g><!--SRC=[dP9DQiCm48NtEiNWRjf2ADqR5zVnmX2IO7SNGb3aQIgYI4Po2g7qL3r0eRrOvPyu5dQxgBNoyFJUDwCnUouBgka119TOdWg4GebJzKE8AMc9mEKzK0FUCfp7iyqoJUPHiWndc_0nYTEdXKSgmMHrjTE8SZq9WA7ML6Tek99datwjTkiNhcyyU2C4xDUeFNkiA5E2CrvIcQk8MpqE9P6IprmVHYKCV9-zACum21htrUtQ8HqFaCfUjfXs2Fkwu6-3HBwYAVcEvahxTzi0J7krxGoCxUJxGzPwb7bjqeGEGXo4yGR6439kIZpGEhtGQ53Qz1RZc4Dk6swzM4VozJcrmWvIq3FdmmZe0CLzrV_CfdNKe7f5AXaAMqC1xD9on_9E2AkIj-A8LV0lUqSSbBynpebjtALjvgv3d2MB-IQAqpISXeE0yGTevjbCEASzRzVD2R9xI7u0]--></g></svg>