<?xml version="1.0" encoding="us-ascii" standalone="no"?><svg xmlns="http://www.w3.org/2000/svg" xmlns:xlink="http://www.w3.org/1999/xlink" contentStyleType="text/css" height="669px" preserveAspectRatio="none" style="width:626px;height:669px;background:#FFFFFF;" version="1.1" viewBox="0 0 626 669" width="626px" zoomAndPan="magnify"><defs/><g><g id="in1"><rect fill="#F1F1F1" height="50" rx="12.5" ry="12.5" style="stroke:#181818;stroke-width:0.5;" width="210" x="221" y="7"/><line style="stroke:#181818;stroke-width:0.5;" x1="221" x2="431" y1="34.6094" y2="34.6094"/><text fill="#000000" font-family="sans-serif" font-size="14" lengthAdjust="spacing" textLength="190" x="231" y="26.5332">PANEL_PRINCIPAL_ABIERTO</text></g><path d="M105.5,118 L546.5,118 A12.5,12.5 0 0 1 559,130.5 L559,145.6094 L93,145.6094 L93,130.5 A12.5,12.5 0 0 1 105.5,118 " fill="#F1F1F1" style="stroke:#F1F1F1;stroke-width:1.0;"/><rect fill="none" height="398.6094" rx="12.5" ry="12.5" style="stroke:#181818;stroke-width:0.5;" width="466" x="93" y="118"/><line style="stroke:#181818;stroke-width:0.5;" x1="93" x2="559" y1="145.6094" y2="145.6094"/><text fill="#000000" font-family="sans-serif" font-size="14" lengthAdjust="spacing" textLength="187" x="232.5" y="137.5332">abrirOpcionesCargaTrabajo()</text><g id="abrirOpcionesCargaTrabajo.CargandoCargaTrabajo"><rect fill="#F1F1F1" height="50" rx="12.5" ry="12.5" style="stroke:#181818;stroke-width:0.5;" width="50" x="105" y="248.6094"/><line style="stroke:#181818;stroke-width:0.5;" x1="105" x2="155" y1="276.2188" y2="276.2188"/><text fill="#000000" font-family="sans-serif" font-size="14" lengthAdjust="spacing" textLength="4" x="128" y="268.1426">&#160;</text></g><ellipse cx="130" cy="166.6094" fill="#222222" rx="10" ry="10" style="stroke:#222222;stroke-width:1.0;"/><ellipse cx="130" cy="495.6094" fill="none" rx="11" ry="11" style="stroke:#222222;stroke-width:1.0;"/><ellipse cx="130" cy="495.6094" fill="#222222" rx="6" ry="6" style="stroke:#222222;stroke-width:1.0;"/><!--link *start*abrirOpcionesCargaTrabajo to CargandoCargaTrabajo--><g id="link_*start*abrirOpcionesCargaTrabajo_CargandoCargaTrabajo"><path d="M130,176.9294 C130,192.7894 130,219.5194 130,242.2494 " fill="none" id="*start*abrirOpcionesCargaTrabajo-to-CargandoCargaTrabajo" style="stroke:#008000;stroke-width:1.0;"/><polygon fill="#008000" points="130,248.2494,134,239.2494,130,243.2494,126,239.2494,130,248.2494" style="stroke:#008000;stroke-width:1.0;"/><path d="M135,199.6094 L135,225.6094 L500,225.6094 L500,209.6094 L490,199.6094 L135,199.6094 " fill="#FEFFDD" style="stroke:#181818;stroke-width:0.5;"/><path d="M490,199.6094 L490,209.6094 L500,209.6094 L490,199.6094 " fill="#FEFFDD" style="stroke:#181818;stroke-width:0.5;"/><text fill="#000000" font-family="sans-serif" font-size="13" font-weight="bold" lengthAdjust="spacing" textLength="78" x="141" y="218.1045">Investigador</text><text fill="#000000" font-family="sans-serif" font-size="13" lengthAdjust="spacing" textLength="262" x="223" y="218.1045">solicita abrir las opciones de carga de trabajo</text></g><!--link CargandoCargaTrabajo to *end*abrirOpcionesCargaTrabajo--><g id="link_CargandoCargaTrabajo_*end*abrirOpcionesCargaTrabajo"><path d="M130,298.9894 C130,346.8794 130,445.3994 130,478.4094 " fill="none" id="CargandoCargaTrabajo-to-*end*abrirOpcionesCargaTrabajo" style="stroke:#008000;stroke-width:1.0;"/><polygon fill="#008000" points="130,484.4094,134,475.4094,130,479.4094,126,475.4094,130,484.4094" style="stroke:#008000;stroke-width:1.0;"/><path d="M135,321.6094 L135,461.6094 L550,461.6094 L550,331.6094 L540,321.6094 L135,321.6094 " fill="#FEFFDD" style="stroke:#181818;stroke-width:0.5;"/><path d="M540,321.6094 L540,331.6094 L550,331.6094 L540,321.6094 " fill="#FEFFDD" style="stroke:#181818;stroke-width:0.5;"/><text fill="#000000" font-family="sans-serif" font-size="13" font-weight="bold" lengthAdjust="spacing" textLength="51" x="141" y="340.1045">Sistema</text><text fill="#000000" font-family="sans-serif" font-size="13" lengthAdjust="spacing" textLength="289" x="196" y="340.1045">muestra la informaci&#243;n de carga de trabajo propia:</text><text fill="#000000" font-family="sans-serif" font-size="13" lengthAdjust="spacing" textLength="117" x="141" y="356.4561">&#8226; Resumen personal</text><text fill="#000000" font-family="sans-serif" font-size="13" lengthAdjust="spacing" textLength="394" x="141" y="372.8076">&#8226; Detalle semanal (docencia, investigaci&#243;n, actividades acad&#233;micas)</text><text fill="#000000" font-family="sans-serif" font-size="13" lengthAdjust="spacing" textLength="258" x="141" y="389.1592">&#8226; Total semanal y margen docente (si aplica)</text><text fill="#000000" font-family="sans-serif" font-size="13" lengthAdjust="spacing" textLength="4" x="141" y="405.5107">&#160;</text><text fill="#000000" font-family="sans-serif" font-size="13" lengthAdjust="spacing" textLength="247" x="141" y="421.8623">y permite solicitar las siguientes acciones:</text><text fill="#000000" font-family="sans-serif" font-size="13" lengthAdjust="spacing" textLength="140" x="141" y="438.2139">&#8226; Editar carga de trabajo</text><text fill="#000000" font-family="sans-serif" font-size="13" lengthAdjust="spacing" textLength="123" x="141" y="454.5654">&#8226; Abrir panel principal</text></g><g id="OPCIONES_CARGA_TRABAJO_ABIERTAS"><rect fill="#F1F1F1" height="50" rx="12.5" ry="12.5" style="stroke:#181818;stroke-width:0.5;" width="294" x="7" y="613"/><line style="stroke:#181818;stroke-width:0.5;" x1="7" x2="301" y1="640.6094" y2="640.6094"/><text fill="#000000" font-family="sans-serif" font-size="14" lengthAdjust="spacing" textLength="274" x="17" y="632.5332">OPCIONES_CARGA_TRABAJO_ABIERTAS</text></g><g id="PANEL_PRINCIPAL_ABIERTO"><rect fill="#F1F1F1" height="50" rx="12.5" ry="12.5" style="stroke:#181818;stroke-width:0.5;" width="210" x="408" y="613"/><line style="stroke:#181818;stroke-width:0.5;" x1="408" x2="618" y1="640.6094" y2="640.6094"/><text fill="#000000" font-family="sans-serif" font-size="14" lengthAdjust="spacing" textLength="190" x="418" y="632.5332">PANEL_PRINCIPAL_ABIERTO</text></g><!--link in1 to abrirOpcionesCargaTrabajo--><g id="link_in1_abrirOpcionesCargaTrabajo"><path d="M326,57.17 C326,72.44 326,87.76 326,111.69 " fill="none" id="in1-to-abrirOpcionesCargaTrabajo" style="stroke:#008000;stroke-width:1.0;"/><polygon fill="#008000" points="326,117.69,330,108.69,326,112.69,322,108.69,326,117.69" style="stroke:#008000;stroke-width:1.0;"/></g><!--link abrirOpcionesCargaTrabajo to OPCIONES_CARGA_TRABAJO_ABIERTAS--><g id="link_abrirOpcionesCargaTrabajo_OPCIONES_CARGA_TRABAJO_ABIERTAS"><path d="M111.29,517.13 C91.68,535.27 79,547 79,547 C79,547 79,583 79,583 C79,583 95.6098,594.9655 115.5798,609.3355 " fill="none" id="abrirOpcionesCargaTrabajo-to-OPCIONES_CARGA_TRABAJO_ABIERTAS" style="stroke:#008000;stroke-width:1.0;"/><polygon fill="#008000" points="120.45,612.84,115.4811,604.3365,116.3915,609.9196,110.8084,610.8301,120.45,612.84" style="stroke:#008000;stroke-width:1.0;"/><path d="M84,552 L84,578 L278,578 L278,562 L268,552 L84,552 " fill="#FEFFDD" style="stroke:#181818;stroke-width:0.5;"/><path d="M268,552 L268,562 L278,562 L268,552 " fill="#FEFFDD" style="stroke:#181818;stroke-width:0.5;"/><text fill="#000000" font-family="sans-serif" font-size="13" lengthAdjust="spacing" textLength="173" x="90" y="570.4951">Carga de trabajo propia visible</text></g><!--link abrirOpcionesCargaTrabajo to OPCIONES_CARGA_TRABAJO_ABIERTAS--><g id="link_abrirOpcionesCargaTrabajo_OPCIONES_CARGA_TRABAJO_ABIERTAS"><path d="M296.69,517.28 C291.12,555.03 287,583 287,583 C287,583 254.4696,596.2138 219.0596,610.5838 " fill="none" id="abrirOpcionesCargaTrabajo-to-OPCIONES_CARGA_TRABAJO_ABIERTAS-1" style="stroke:#008000;stroke-width:1.0;"/><polygon fill="#008000" points="213.5,612.84,223.3436,613.1621,218.133,610.9598,220.3353,605.7493,213.5,612.84" style="stroke:#008000;stroke-width:1.0;"/><path d="M296,552 L296,578 L433,578 L433,562 L423,552 L296,552 " fill="#FEFFDD" style="stroke:#181818;stroke-width:0.5;"/><path d="M423,552 L423,562 L433,562 L423,552 " fill="#FEFFDD" style="stroke:#181818;stroke-width:0.5;"/><text fill="#000000" font-family="sans-serif" font-size="13" lengthAdjust="spacing" textLength="116" x="302" y="570.4951">editarCargaTrabajo()</text></g><!--link abrirOpcionesCargaTrabajo to PANEL_PRINCIPAL_ABIERTO--><g id="link_abrirOpcionesCargaTrabajo_PANEL_PRINCIPAL_ABIERTO"><path d="M442.57,517.04 C465.08,555.38 482.6519,585.3161 495.6819,607.5061 " fill="none" id="abrirOpcionesCargaTrabajo-to-PANEL_PRINCIPAL_ABIERTO" style="stroke:#008000;stroke-width:1.0;"/><polygon fill="#008000" points="498.72,612.68,497.6121,602.8937,496.1882,608.3684,490.7135,606.9445,498.72,612.68" style="stroke:#008000;stroke-width:1.0;"/><path d="M482,552 L482,578 L619,578 L619,562 L609,552 L482,552 " fill="#FEFFDD" style="stroke:#181818;stroke-width:0.5;"/><path d="M609,552 L609,562 L619,562 L609,552 " fill="#FEFFDD" style="stroke:#181818;stroke-width:0.5;"/><text fill="#000000" font-family="sans-serif" font-size="13" lengthAdjust="spacing" textLength="116" x="488" y="570.4951">abrirPanelPrincipal()</text></g><!--SRC=[jLF1Yjim4BtxAuRqafHTIgzb2NZTK5oMs3YvBKiOszCmNLiIaXC8fT1lwQtdViB-IR-a8pd9nk0SUgXziJLFxxrv8xbdLWOjjj2mekvW28nk3ludYbo77G6hzu0E9dcyN3niyY9T9caUFspY-tHHhBD9v06tZs-sbaWztSu1IyisCnLhHIv1kyMrnHA_wXFZLK3GkLgTpYRmBOf0dfvd8g_i21XLww6KXps-VHeu6qLweD92fvKFuJait9NpLEt9TRp5MjkxT-KSd6wuuWvx_z28j3xQX9gWygJ-exiW9bK7yjxFcFx0e1Y-wcV5hgCMWvLs9zOiYWSPpnTjMwpuvRSQim76QiFu8T3y-V4J2dAxbXGOiauhRCw5ZzHXqn0uKP5rcDQw8bKnteZ8COiWSmDOTRpd6cjf7IkiNtwrNA6RdRdMMhZEJ0TenPLe1aPfRUeOq4YSEEkJENWxBKlfb78ViEFjZlqMhzDd_Th9eWwuqU1zFGvpCgYeaHHOMZ77TizZ-Hv5rq_ZvMIoF4cpvMArIUBYKxnP5_5z_3axNe9u5GqcbepF0FRik6meUZqL_q6SGYh3Y_FFYbSk-r0fKEK-tloKxgNKNm00]--></g></svg>