<?plantuml 1.2026.2?><svg xmlns="http://www.w3.org/2000/svg" xmlns:xlink="http://www.w3.org/1999/xlink" contentStyleType="text/css" data-diagram-type="DESCRIPTION" height="408px" preserveAspectRatio="none" style="width:1229px;height:408px;background:#FFFFFF;" version="1.1" viewBox="0 0 1229 408" width="1229px" zoomAndPan="magnify"><defs/><g><!--cluster abrirPublicaciones--><g class="cluster" data-qualified-name="abrirPublicaciones" data-source-line="10" id="ent0004"><path d="M221.5,6 L358.7656,6 A3.75,3.75 0 0 1 361.2656,8.5 L368.2656,25.9688 L526.5,25.9688 A2.5,2.5 0 0 1 529,28.4688 L529,398.5 A2.5,2.5 0 0 1 526.5,401 L221.5,401 A2.5,2.5 0 0 1 219,398.5 L219,8.5 A2.5,2.5 0 0 1 221.5,6" fill="none" style="stroke:#000000;stroke-width:1.5;"/><line style="stroke:#000000;stroke-width:1.5;" x1="219" x2="368.2656" y1="25.9688" y2="25.9688"/><text fill="#000000" font-family="sans-serif" font-size="12" font-weight="bold" lengthAdjust="spacing" textLength="136.2656" x="223" y="19.1387">abrirPublicaciones()</text></g><!--entity ListarPublicacionesView--><g class="entity" data-qualified-name="abrirPublicaciones.ListarPublicacionesView" data-source-line="11" id="ent0005"><rect fill="#629EF9" height="33.9688" rx="2.5" ry="2.5" style="stroke:#181818;stroke-width:0.5;" width="163.5957" x="349" y="38"/><text fill="#000000" font-family="sans-serif" font-size="12" lengthAdjust="spacing" textLength="143.5957" x="359" y="59.1387">ListarPublicacionesView</text></g><!--entity PublicacionController--><g class="entity" data-qualified-name="abrirPublicaciones.PublicacionController" data-source-line="12" id="ent0006"><rect fill="#B5BD68" height="33.9688" rx="2.5" ry="2.5" style="stroke:#181818;stroke-width:0.5;" width="147.248" x="235.5" y="147"/><text fill="#000000" font-family="sans-serif" font-size="12" lengthAdjust="spacing" textLength="127.248" x="245.5" y="168.1387">PublicacionController</text></g><!--entity PublicacionRepository--><g class="entity" data-qualified-name="abrirPublicaciones.PublicacionRepository" data-source-line="13" id="ent0007"><rect fill="#F2AC4E" height="33.9688" rx="2.5" ry="2.5" style="stroke:#181818;stroke-width:0.5;" width="152.3047" x="235" y="256"/><text fill="#000000" font-family="sans-serif" font-size="12" lengthAdjust="spacing" textLength="132.3047" x="245" y="277.1387">PublicacionRepository</text></g><!--entity Publicacion--><g class="entity" data-qualified-name="abrirPublicaciones.Publicacion" data-source-line="14" id="ent0008"><rect fill="#F2AC4E" height="33.9688" rx="2.5" ry="2.5" style="stroke:#181818;stroke-width:0.5;" width="87.957" x="267" y="351"/><text fill="#000000" font-family="sans-serif" font-size="12" lengthAdjust="spacing" textLength="67.957" x="277" y="372.1387">Publicacion</text></g><!--entity PanelPrincipalAbierto--><g class="entity" data-qualified-name="PanelPrincipalAbierto" data-source-line="7" id="ent0002"><rect fill="#CDEBA5" height="33.9688" rx="2.5" ry="2.5" style="stroke:#181818;stroke-width:0.5;" width="185.5039" x="7" y="38"/><text fill="#000000" font-family="sans-serif" font-size="12" lengthAdjust="spacing" textLength="165.5039" x="17" y="59.1387">PANEL_PRINCIPAL_ABIERTO</text></g><!--entity PublicacionesAbiertas--><g class="entity" data-qualified-name="PublicacionesAbiertas" data-source-line="8" id="ent0003"><rect fill="#CDEBA5" height="33.9688" rx="2.5" ry="2.5" style="stroke:#181818;stroke-width:0.5;" width="181.6602" x="545" y="147"/><text fill="#000000" font-family="sans-serif" font-size="12" lengthAdjust="spacing" textLength="161.6602" x="555" y="168.1387">PUBLICACIONES_ABIERTAS</text></g><!--entity AbrirPublicacion--><g class="entity" data-qualified-name="AbrirPublicacion" data-source-line="17" id="ent0009"><rect fill="#CDEBA5" height="33.9688" rx="2.5" ry="2.5" style="stroke:#181818;stroke-width:0.5;" width="204.8164" x="762.5" y="147"/><text fill="#000000" font-family="sans-serif" font-size="12" lengthAdjust="spacing" textLength="184.8164" x="772.5" y="168.1387">:Collaboration AbrirPublicacion</text></g><!--entity AbrirPanelPrincipal--><g class="entity" data-qualified-name="AbrirPanelPrincipal" data-source-line="18" id="ent0010"><rect fill="#CDEBA5" height="33.9688" rx="2.5" ry="2.5" style="stroke:#181818;stroke-width:0.5;" width="221.1172" x="1002.5" y="147"/><text fill="#000000" font-family="sans-serif" font-size="12" lengthAdjust="spacing" textLength="201.1172" x="1012.5" y="168.1387">:Collaboration AbrirPanelPrincipal</text></g><!--link PanelPrincipalAbierto to ListarPublicacionesView--><g class="link" data-entity-1="ent0002" data-entity-2="ent0005" data-link-type="dependency" data-source-line="20" id="lnk11"><path d="M193.08,55 C242.03,55 295.51,55 342.75,55" fill="none" id="PanelPrincipalAbierto-to-ListarPublicacionesView" style="stroke:#181818;stroke-width:1;"/><polygon fill="#181818" points="348.75,55,339.75,51,343.75,55,339.75,59,348.75,55" style="stroke:#181818;stroke-width:1;"/><text fill="#000000" font-family="sans-serif" font-size="12" lengthAdjust="spacing" textLength="119.127" x="211.5" y="49.1387">abrirPublicaciones()</text></g><!--link ListarPublicacionesView to PublicacionController--><g class="link" data-entity-1="ent0005" data-entity-2="ent0006" data-link-type="dependency" data-source-line="22" id="lnk12"><path d="M402.67,72.09 C379.31,85.35 350,102 350,102 C350,102 335.2679,123.9209 323.1179,141.9909" fill="none" id="ListarPublicacionesView-to-PublicacionController" style="stroke:#181818;stroke-width:1;"/><polygon fill="#181818" points="319.77,146.97,328.1112,141.7332,322.5599,142.8207,321.4724,137.2694,319.77,146.97" style="stroke:#181818;stroke-width:1;"/><text fill="#000000" font-family="sans-serif" font-size="12" lengthAdjust="spacing" textLength="241.582" x="351" y="114.1387">listarPublicaciones() : List&lt;Publicacion&gt;</text></g><!--link PublicacionController to PublicacionRepository--><g class="link" data-entity-1="ent0006" data-entity-2="ent0007" data-link-type="dependency" data-source-line="23" id="lnk13"><path d="M309.3,181.25 C309.68,201.48 310.2068,229.8111 310.5868,249.9511" fill="none" id="PublicacionController-to-PublicacionRepository" style="stroke:#181818;stroke-width:1;"/><polygon fill="#181818" points="310.7,255.95,314.5295,246.8761,310.6057,250.9509,306.5309,247.0271,310.7,255.95" style="stroke:#181818;stroke-width:1;"/><text fill="#000000" font-family="sans-serif" font-size="12" lengthAdjust="spacing" textLength="212.9414" x="311" y="223.1387">obtenerTodas() : List&lt;Publicacion&gt;</text></g><!--link PublicacionRepository to Publicacion--><g class="link" data-entity-1="ent0007" data-entity-2="ent0008" data-link-type="association" data-source-line="24" id="lnk14"><path d="M311,290.2 C311,307.27 311,333.99 311,350.99" fill="none" id="PublicacionRepository-Publicacion" style="stroke:#181818;stroke-width:1;"/></g><!--link ListarPublicacionesView to AbrirPublicacion--><g class="link" data-entity-1="ent0005" data-entity-2="ent0009" data-link-type="dependency" data-source-line="26" id="lnk15"><path d="M513.25,71.32 C585.1,84.7 678,102 678,102 C678,102 754.7557,127.0397 810.1657,145.1097" fill="none" id="ListarPublicacionesView-to-AbrirPublicacion" style="stroke:#181818;stroke-width:1;stroke-dasharray:7,7;"/><polygon fill="#181818" points="815.87,146.97,808.5537,140.3767,811.1164,145.4198,806.0733,147.9825,815.87,146.97" style="stroke:#181818;stroke-width:1;"/><text fill="#000000" font-family="sans-serif" font-size="12" lengthAdjust="spacing" textLength="184.9863" x="724" y="114.1387">abrirPublicacion(publicacionId)</text></g><!--link ListarPublicacionesView to AbrirPanelPrincipal--><g class="link" data-entity-1="ent0005" data-entity-2="ent0010" data-link-type="dependency" data-source-line="27" id="lnk16"><path d="M513.17,63.78 C651.75,76.89 917,102 917,102 C917,102 997.701,127.1173 1055.771,145.1873" fill="none" id="ListarPublicacionesView-to-AbrirPanelPrincipal" style="stroke:#181818;stroke-width:1;stroke-dasharray:7,7;"/><polygon fill="#181818" points="1061.5,146.97,1054.0949,140.4765,1056.7258,145.4844,1051.718,148.1152,1061.5,146.97" style="stroke:#181818;stroke-width:1;"/><text fill="#000000" font-family="sans-serif" font-size="12" lengthAdjust="spacing" textLength="121.793" x="965" y="114.1387">abrirPanelPrincipal()</text></g><!--link ListarPublicacionesView to PublicacionesAbiertas--><g class="link" data-entity-1="ent0005" data-entity-2="ent0003" data-link-type="dependency" data-source-line="29" id="lnk17"><path d="M489.06,72.09 C536.93,85.35 597,102 597,102 C597,102 610.9686,123.8445 622.5186,141.9145" fill="none" id="ListarPublicacionesView-to-PublicacionesAbiertas" style="stroke:#181818;stroke-width:1;stroke-dasharray:7,7;"/><polygon fill="#181818" points="625.75,146.97,624.2733,137.2325,623.0572,142.7571,617.5326,141.541,625.75,146.97" style="stroke:#181818;stroke-width:1;"/><text fill="#000000" font-family="sans-serif" font-size="12" lengthAdjust="spacing" textLength="62.4551" x="607" y="114.1387">&#171;finalizar&#187;</text></g><?plantuml-src ZPDVQy8m5CNVyoak-g8F7KosiHKfnAv2GLnHjzTnqqONbYKbYOWR--whkgr_h6AVsdlk-ONSSslVXShHu0SmJDzNHgzL5cgf3MpUXEF4_kls3JEz4Me5IvIsgZpo9Qwb6slb3bOc2rPxmrnyShWUL4Gf57VRd4EkvNRtGOZXgKEraXowuMCqehVGIUWqchmcitWQnWcTlD9H7CqMJnr02magBXCZL2fob9G9RfnkXJoF9d58m_Xf6ir_4NH-OAoP52ccGYjk3mYqXEJ5HN35eOFC25DhwlNtncC1lWWKJtb-PoAimthJY-2RlV-41jsxmKCqVcYYAerXCKwZfUIcUODIWIwxPTdT_HdCZEVQ2gVDjeaf5UYE1pIyYSvWckP_otThddwnAHAPDkXspRGnnJsjMRoOKzk72gfM9wHrRy0pNd0g5H_Qze2GKo5wMS5g3SOlzlx8q-k3lpzwM2a7f3tP9hjComVD75VSB7I65q0hENjU5NdwObTNmL4ynyFfvULxdFKleDKI-GFMYkV6lUEq_iW-38TBeL2AJpH1y0C0?></g></svg>