<?plantuml 1.2026.2?><svg xmlns="http://www.w3.org/2000/svg" xmlns:xlink="http://www.w3.org/1999/xlink" contentStyleType="text/css" data-diagram-type="SEQUENCE" height="343px" preserveAspectRatio="none" style="width:911px;height:343px;background:#FFFFFF;" version="1.1" viewBox="0 0 911 343" width="911px" zoomAndPan="magnify"><defs/><g><g><title>..boundary..</title><rect fill="#FFFFFF" height="203.9297" style="stroke:#181818;stroke-width:1;" width="10" x="314.105" y="114.7266"/></g><g><title>..control..</title><rect fill="#FFFFFF" height="145.6641" style="stroke:#181818;stroke-width:1;" width="10" x="488.0972" y="143.8594"/></g><g><title>..entity..</title><rect fill="#FFFFFF" height="87.3984" style="stroke:#181818;stroke-width:1;" width="10" x="655.5029" y="172.9922"/></g><g><title>..database..</title><rect fill="#FFFFFF" height="29.1328" style="stroke:#181818;stroke-width:1;" width="10" x="861.3677" y="202.125"/></g><g class="participant-lifeline" data-entity-uid="part1" data-qualified-name="Investigador" id="part1-lifeline"><g><title>Investigador</title><rect fill="#000000" fill-opacity="0.00000" height="253.0625" width="8" x="47.6235" y="83.5938"/><line style="stroke:#181818;stroke-width:0.5;stroke-dasharray:5,5;" x1="51" x2="51" y1="83.5938" y2="336.6563"/></g></g><g class="participant-lifeline" data-entity-uid="part2" data-qualified-name="ListarPublicacionesView" id="part2-lifeline"><g><title>..boundary..</title><rect fill="#000000" fill-opacity="0.00000" height="253.0625" width="8" x="315.105" y="83.5938"/><line style="stroke:#181818;stroke-width:0.5;stroke-dasharray:5,5;" x1="318.3408" x2="318.3408" y1="83.5938" y2="336.6563"/></g></g><g class="participant-lifeline" data-entity-uid="part3" data-qualified-name="PublicacionController" id="part3-lifeline"><g><title>..control..</title><rect fill="#000000" fill-opacity="0.00000" height="253.0625" width="8" x="489.0972" y="83.5938"/><line style="stroke:#181818;stroke-width:0.5;stroke-dasharray:5,5;" x1="492.8691" x2="492.8691" y1="83.5938" y2="336.6563"/></g></g><g class="participant-lifeline" data-entity-uid="part4" data-qualified-name="PublicacionRepository" id="part4-lifeline"><g><title>..entity..</title><rect fill="#000000" fill-opacity="0.00000" height="253.0625" width="8" x="656.5029" y="83.5938"/><line style="stroke:#181818;stroke-width:0.5;stroke-dasharray:5,5;" x1="660.3252" x2="660.3252" y1="83.5938" y2="336.6563"/></g></g><g class="participant-lifeline" data-entity-uid="part5" data-qualified-name="Database" id="part5-lifeline"><g><title>..database..</title><rect fill="#000000" fill-opacity="0.00000" height="253.0625" width="8" x="862.3677" y="83.5938"/><line style="stroke:#181818;stroke-width:0.5;stroke-dasharray:5,5;" x1="866.2734" x2="866.2734" y1="83.5938" y2="336.6563"/></g></g><g class="participant participant-head" data-entity-uid="part1" data-qualified-name="Investigador" id="part1-head"><text fill="#000000" font-family="sans-serif" font-size="14" lengthAdjust="spacing" textLength="87.2471" x="5" y="80.292">Investigador</text><ellipse cx="51.6235" cy="15.7969" fill="#E2E2F0" rx="8" ry="8" style="stroke:#181818;stroke-width:0.5;"/><path d="M51.6235,23.7969 L51.6235,50.7969 M38.6235,31.7969 L64.6235,31.7969 M51.6235,50.7969 L38.6235,65.7969 M51.6235,50.7969 L64.6235,65.7969" fill="none" style="stroke:#181818;stroke-width:0.5;"/></g><g class="participant participant-head" data-entity-uid="part2" data-qualified-name="ListarPublicacionesView" id="part2-head"><text fill="#000000" font-family="sans-serif" font-size="14" font-style="italic" lengthAdjust="spacing" textLength="83.9863" x="274.1118" y="63.9951">&#171;boundary&#187;</text><text fill="#000000" font-family="sans-serif" font-size="14" lengthAdjust="spacing" textLength="167.5283" x="232.3408" y="80.292">ListarPublicacionesView</text><path d="M298.605,23 L298.605,47 M298.605,35 L315.605,35" fill="none" style="stroke:#181818;stroke-width:0.5;"/><ellipse cx="327.605" cy="35" fill="#E2E2F0" rx="12" ry="12" style="stroke:#181818;stroke-width:0.5;"/></g><g class="participant participant-head" data-entity-uid="part3" data-qualified-name="PublicacionController" id="part3-head"><text fill="#000000" font-family="sans-serif" font-size="14" font-style="italic" lengthAdjust="spacing" textLength="66.1172" x="457.0386" y="63.9951">&#171;control&#187;</text><text fill="#000000" font-family="sans-serif" font-size="14" lengthAdjust="spacing" textLength="148.4561" x="415.8691" y="80.292">PublicacionController</text><ellipse cx="493.0972" cy="35" fill="#E2E2F0" rx="12" ry="12" style="stroke:#181818;stroke-width:0.5;"/><polygon fill="#181818" points="489.0972,23,495.0972,18,493.0972,23,495.0972,28,489.0972,23" style="stroke:#181818;stroke-width:1;"/></g><g class="participant participant-head" data-entity-uid="part4" data-qualified-name="PublicacionRepository" id="part4-head"><text fill="#000000" font-family="sans-serif" font-size="14" font-style="italic" lengthAdjust="spacing" textLength="57.9209" x="628.5425" y="63.9951">&#171;entity&#187;</text><text fill="#000000" font-family="sans-serif" font-size="14" lengthAdjust="spacing" textLength="154.3555" x="580.3252" y="80.292">PublicacionRepository</text><ellipse cx="660.5029" cy="35" fill="#E2E2F0" rx="12" ry="12" style="stroke:#181818;stroke-width:0.5;"/><line style="stroke:#181818;stroke-width:0.5;" x1="648.5029" x2="672.5029" y1="49" y2="49"/></g><g class="participant participant-head" data-entity-uid="part5" data-qualified-name="Database" id="part5-head"><text fill="#000000" font-family="sans-serif" font-size="14" font-style="italic" lengthAdjust="spacing" textLength="82.1885" x="822.2734" y="63.9951">&#171;database&#187;</text><text fill="#000000" font-family="sans-serif" font-size="14" lengthAdjust="spacing" textLength="66.8008" x="829.9673" y="80.292">Database</text><path d="M848.3677,15 C848.3677,5 866.3677,5 866.3677,5 C866.3677,5 884.3677,5 884.3677,15 L884.3677,41 C884.3677,51 866.3677,51 866.3677,51 C866.3677,51 848.3677,51 848.3677,41 L848.3677,15" fill="#E2E2F0" style="stroke:#181818;stroke-width:0.5;"/><path d="M848.3677,15 C848.3677,25 866.3677,25 866.3677,25 C866.3677,25 884.3677,25 884.3677,15" fill="none" style="stroke:#181818;stroke-width:0.5;"/></g><g><title>..boundary..</title><rect fill="#FFFFFF" height="203.9297" style="stroke:#181818;stroke-width:1;" width="10" x="314.105" y="114.7266"/></g><g><title>..control..</title><rect fill="#FFFFFF" height="145.6641" style="stroke:#181818;stroke-width:1;" width="10" x="488.0972" y="143.8594"/></g><g><title>..entity..</title><rect fill="#FFFFFF" height="87.3984" style="stroke:#181818;stroke-width:1;" width="10" x="655.5029" y="172.9922"/></g><g><title>..database..</title><rect fill="#FFFFFF" height="29.1328" style="stroke:#181818;stroke-width:1;" width="10" x="861.3677" y="202.125"/></g><g class="message" data-entity-1="part1" data-entity-2="part2" id="msg1"><polygon fill="#181818" points="302.105,110.7266,312.105,114.7266,302.105,118.7266" style="stroke:#181818;stroke-width:1;"/><line style="stroke:#181818;stroke-width:1;" x1="51.6235" x2="308.105" y1="114.7266" y2="114.7266"/><text fill="#000000" font-family="sans-serif" font-size="13" lengthAdjust="spacing" textLength="129.0542" x="58.6235" y="109.6606">abrirPublicaciones()</text></g><g class="message" data-entity-1="part2" data-entity-2="part3" id="msg2"><polygon fill="#181818" points="476.0972,139.8594,486.0972,143.8594,476.0972,147.8594" style="stroke:#181818;stroke-width:1;"/><line style="stroke:#181818;stroke-width:1;" x1="324.105" x2="482.0972" y1="143.8594" y2="143.8594"/><text fill="#000000" font-family="sans-serif" font-size="13" lengthAdjust="spacing" textLength="130.9395" x="331.105" y="138.7935">listarPublicaciones()</text></g><g class="message" data-entity-1="part3" data-entity-2="part4" id="msg3"><polygon fill="#181818" points="643.5029,168.9922,653.5029,172.9922,643.5029,176.9922" style="stroke:#181818;stroke-width:1;"/><line style="stroke:#181818;stroke-width:1;" x1="498.0972" x2="649.5029" y1="172.9922" y2="172.9922"/><text fill="#000000" font-family="sans-serif" font-size="13" lengthAdjust="spacing" textLength="99.9121" x="505.0972" y="167.9263">obtenerTodas()</text></g><g class="message" data-entity-1="part4" data-entity-2="part5" id="msg4"><polygon fill="#181818" points="849.3677,198.125,859.3677,202.125,849.3677,206.125" style="stroke:#181818;stroke-width:1;"/><line style="stroke:#181818;stroke-width:1;" x1="665.5029" x2="855.3677" y1="202.125" y2="202.125"/><text fill="#000000" font-family="sans-serif" font-size="13" lengthAdjust="spacing" textLength="176.8647" x="672.5029" y="197.0591">select * from publicaciones</text></g><g class="message" data-entity-1="part5" data-entity-2="part4" id="msg5"><polygon fill="#181818" points="676.5029,227.2578,666.5029,231.2578,676.5029,235.2578" style="stroke:#181818;stroke-width:1;"/><line style="stroke:#181818;stroke-width:1;stroke-dasharray:2,2;" x1="670.5029" x2="865.3677" y1="231.2578" y2="231.2578"/><text fill="#000000" font-family="sans-serif" font-size="13" lengthAdjust="spacing" textLength="88.8037" x="682.5029" y="226.1919">publicaciones</text></g><g class="message" data-entity-1="part4" data-entity-2="part3" id="msg6"><polygon fill="#181818" points="509.0972,256.3906,499.0972,260.3906,509.0972,264.3906" style="stroke:#181818;stroke-width:1;"/><line style="stroke:#181818;stroke-width:1;stroke-dasharray:2,2;" x1="503.0972" x2="659.5029" y1="260.3906" y2="260.3906"/><text fill="#000000" font-family="sans-serif" font-size="13" lengthAdjust="spacing" textLength="88.8037" x="515.0972" y="255.3247">publicaciones</text></g><g class="message" data-entity-1="part3" data-entity-2="part2" id="msg7"><polygon fill="#181818" points="335.105,285.5234,325.105,289.5234,335.105,293.5234" style="stroke:#181818;stroke-width:1;"/><line style="stroke:#181818;stroke-width:1;stroke-dasharray:2,2;" x1="329.105" x2="492.0972" y1="289.5234" y2="289.5234"/><text fill="#000000" font-family="sans-serif" font-size="13" lengthAdjust="spacing" textLength="88.8037" x="341.105" y="284.4575">publicaciones</text></g><g class="message" data-entity-1="part2" data-entity-2="part1" id="msg8"><polygon fill="#181818" points="62.6235,314.6563,52.6235,318.6563,62.6235,322.6563" style="stroke:#181818;stroke-width:1;"/><line style="stroke:#181818;stroke-width:1;stroke-dasharray:2,2;" x1="56.6235" x2="318.105" y1="318.6563" y2="318.6563"/><text fill="#000000" font-family="sans-serif" font-size="13" lengthAdjust="spacing" textLength="238.4814" x="68.6235" y="313.5903">mostrarPublicaciones(publicaciones)</text></g><?plantuml-src ZPF1JiCm38RlUGeV6T9UeAfwWGiI1uGGTpSrA29DAiSTwjlZQUkMigPmgQhuz_V_STtqvSA0Z3qacJpfavsLiVS6hKI6ft2W9EuJkyYcZMFea2TuTacGNyRMEulMnK3ftT4trFKiQHfZOn2E7ZBPm-d84wlqN5Sb1N4ovS9N6c9o6c1IuQcikWu5Mqm4Z_DBNSzdMZPvMDWtnPWLOCjkMRZR7M_i3YXKwZCbdbgjNx82VzkIEwsscNNOqYMRK0Mn5Gh4Rx734lwgD-iKnL_6Ma4YJrRW7ZuuzZ3a-Q_uMMykZVkDa4j8HxUOGh2DyHQPVzuy7-pcglp78ljsnHrHayL-Lj17_Tj-ByV2RfVx5SW_?></g></svg>
