<svg xmlns="http://www.w3.org/2000/svg" xmlns:xlink="http://www.w3.org/1999/xlink" contentStyleType="text/css" data-diagram-type="STATE" height="720px" preserveAspectRatio="none" style="width:756px;height:720px;background:#FFFFFF;" version="1.1" viewBox="0 0 756 720" width="756px" zoomAndPan="magnify"><defs/><g><g><rect fill="#F1F1F1" height="50" rx="12.5" ry="12.5" style="stroke:#181818;stroke-width:0.5;" width="181.9844" x="284.01" y="7"/><line style="stroke:#181818;stroke-width:0.5;" x1="284.01" x2="465.9944" y1="33.2969" y2="33.2969"/><text fill="#000000" font-family="sans-serif" font-size="14" lengthAdjust="spacing" textLength="161.9844" x="294.01" y="24.9951">PUBLICACION_ABIERTA</text></g><path d="M19.5,152 L730.5,152 A12.5,12.5 0 0 1 743,164.5 L743,178.2969 L7,178.2969 L7,164.5 A12.5,12.5 0 0 1 19.5,152" fill="#F1F1F1"/><rect fill="none" height="417.2969" rx="12.5" ry="12.5" style="stroke:#181818;stroke-width:0.5;" width="736" x="7" y="152"/><line style="stroke:#181818;stroke-width:0.5;" x1="7" x2="743" y1="178.2969" y2="178.2969"/><text fill="#000000" font-family="sans-serif" font-size="14" lengthAdjust="spacing" textLength="161.4512" x="294.2744" y="169.9951">responderPublicacion()</text><g><rect fill="#F1F1F1" height="50" rx="12.5" ry="12.5" style="stroke:#181818;stroke-width:0.5;" width="50" x="216" y="280.2969"/><line style="stroke:#181818;stroke-width:0.5;" x1="216" x2="266" y1="306.5938" y2="306.5938"/><text fill="#000000" font-family="sans-serif" font-size="14" lengthAdjust="spacing" textLength="4.4502" x="238.7749" y="298.292">&#160;</text></g><g><rect fill="#F1F1F1" height="50" rx="12.5" ry="12.5" style="stroke:#181818;stroke-width:0.5;" width="50" x="19" y="416.2969"/><line style="stroke:#181818;stroke-width:0.5;" x1="19" x2="69" y1="442.5938" y2="442.5938"/><text fill="#000000" font-family="sans-serif" font-size="14" lengthAdjust="spacing" textLength="4.4502" x="41.7749" y="434.292">&#160;</text></g><ellipse cx="241" cy="199.2969" fill="#222222" rx="10" ry="10" style="stroke:#222222;stroke-width:1;"/><ellipse cx="232" cy="548.2969" fill="none" rx="11" ry="11" style="stroke:#222222;stroke-width:1;"/><ellipse cx="232" cy="548.2969" fill="#222222" rx="6" ry="6" style="stroke:#222222;stroke-width:1;"/><!--link *start*responderPublicacion to IntroduciendoRespuesta--><g class="link" data-entity-1="ent0003" data-entity-2="ent0004" data-link-type="dependency" data-source-line="14" id="lnk4"><path d="M241,209.5269 C241,225.2369 241,251.6569 241,274.1669" fill="none" id="*start*responderPublicacion-to-IntroduciendoRespuesta" style="stroke:#008000;stroke-width:1;"/><polygon fill="#008000" points="241,280.1669,245,271.1669,241,275.1669,237,271.1669,241,280.1669" style="stroke:#008000;stroke-width:1;"/><path d="M246,232.2969 L246,257.2969 L555,257.2969 L555,242.2969 L545,232.2969 L246,232.2969" fill="#FEFFDD" style="stroke:#181818;stroke-width:0.5;"/><path d="M545,232.2969 L545,242.2969 L555,242.2969 L545,232.2969" fill="#FEFFDD" style="stroke:#181818;stroke-width:0.5;"/><text fill="#000000" font-family="sans-serif" font-size="13" font-weight="bold" lengthAdjust="spacing" textLength="90.251" x="252" y="249.3638">Coordinador</text><text fill="#000000" font-family="sans-serif" font-size="13" lengthAdjust="spacing" textLength="194.2256" x="346.3833" y="249.3638">solicita responder publicaci&#243;n</text></g><!--link IntroduciendoRespuesta to RespuestaRegistrada--><g class="link" data-entity-1="ent0004" data-entity-2="ent0005" data-link-type="dependency" data-source-line="19" id="lnk5"><path d="M215.73,312.2269 C166.39,323.8069 62,348.2969 62,348.2969 C62,348.2969 55.2113,382.9784 49.8813,410.2384" fill="none" id="IntroduciendoRespuesta-to-RespuestaRegistrada" style="stroke:#008000;stroke-width:1;"/><polygon fill="#008000" points="48.73,416.1269,54.3827,408.0617,49.6895,411.2198,46.5314,406.5266,48.73,416.1269" style="stroke:#008000;stroke-width:1;"/><path d="M67,353.2969 L67,393.2969 L419,393.2969 L419,363.2969 L409,353.2969 L67,353.2969" fill="#FEFFDD" style="stroke:#181818;stroke-width:0.5;"/><path d="M409,353.2969 L409,363.2969 L419,363.2969 L409,353.2969" fill="#FEFFDD" style="stroke:#181818;stroke-width:0.5;"/><text fill="#000000" font-family="sans-serif" font-size="13" font-weight="bold" lengthAdjust="spacing" textLength="58.9063" x="73" y="370.3638">Sistema</text><text fill="#000000" font-family="sans-serif" font-size="13" lengthAdjust="spacing" textLength="186.5132" x="136.0386" y="370.3638">permite introducir respuesta</text><text fill="#000000" font-family="sans-serif" font-size="13" font-weight="bold" lengthAdjust="spacing" textLength="90.251" x="73" y="385.4966">Coordinador</text><text fill="#000000" font-family="sans-serif" font-size="13" lengthAdjust="spacing" textLength="237.2246" x="167.3833" y="385.4966">introduce contenido y solicita enviar</text></g><!--link IntroduciendoRespuesta to *end*responderPublicacion--><g class="link" data-entity-1="ent0004" data-entity-2="ent0006" data-link-type="dependency" data-source-line="25" id="lnk7"><path d="M266.45,312.1369 C316.73,323.6769 424,348.2969 424,348.2969 C424,348.2969 424,519.2969 424,519.2969 C424,519.2969 290.0673,538.8319 249.0873,544.8019" fill="none" id="IntroduciendoRespuesta-to-*end*responderPublicacion" style="stroke:#FF0000;stroke-width:1;"/><polygon fill="#FF0000" points="243.15,545.6669,252.6326,548.3277,248.0978,544.9461,251.4794,540.4112,243.15,545.6669" style="stroke:#FF0000;stroke-width:1;"/><path d="M429,428.7969 L429,453.7969 L734,453.7969 L734,438.7969 L724,428.7969 L429,428.7969" fill="#FEFFDD" style="stroke:#181818;stroke-width:0.5;"/><path d="M724,428.7969 L724,438.7969 L734,438.7969 L724,428.7969" fill="#FEFFDD" style="stroke:#181818;stroke-width:0.5;"/><text fill="#000000" font-family="sans-serif" font-size="13" font-weight="bold" lengthAdjust="spacing" textLength="90.251" x="435" y="445.8638">Coordinador</text><text fill="#000000" font-family="sans-serif" font-size="13" lengthAdjust="spacing" textLength="189.6362" x="529.3833" y="445.8638">solicita cancelar la operaci&#243;n</text></g><!--link RespuestaRegistrada to *end*responderPublicacion--><g class="link" data-entity-1="ent0005" data-entity-2="ent0006" data-link-type="dependency" data-source-line="30" id="lnk8"><path d="M34.69,466.7269 C31.17,475.9669 28,484.2969 28,484.2969 C28,484.2969 28,519.2969 28,519.2969 C28,519.2969 172.7156,539.1618 215.0856,544.9718" fill="none" id="RespuestaRegistrada-to-*end*responderPublicacion" style="stroke:#008000;stroke-width:1;"/><polygon fill="#008000" points="221.03,545.7869,212.6569,540.6013,216.0764,545.1076,211.57,548.5271,221.03,545.7869" style="stroke:#008000;stroke-width:1;"/><path d="M33,489.2969 L33,514.2969 L419,514.2969 L419,499.2969 L409,489.2969 L33,489.2969" fill="#FEFFDD" style="stroke:#181818;stroke-width:0.5;"/><path d="M409,489.2969 L409,499.2969 L419,499.2969 L409,489.2969" fill="#FEFFDD" style="stroke:#181818;stroke-width:0.5;"/><text fill="#000000" font-family="sans-serif" font-size="13" font-weight="bold" lengthAdjust="spacing" textLength="58.9063" x="39" y="506.3638">Sistema</text><text fill="#000000" font-family="sans-serif" font-size="13" lengthAdjust="spacing" textLength="302.6436" x="102.0386" y="506.3638">presenta confirmaci&#243;n de respuesta publicada</text></g><g><rect fill="#F1F1F1" height="50" rx="12.5" ry="12.5" style="stroke:#181818;stroke-width:0.5;" width="208.6035" x="270.7" y="664.3"/><line style="stroke:#181818;stroke-width:0.5;" x1="270.7" x2="479.3035" y1="690.5969" y2="690.5969"/><text fill="#000000" font-family="sans-serif" font-size="14" lengthAdjust="spacing" textLength="188.6035" x="280.7" y="682.2951">PUBLICACIONES_ABIERTAS</text></g><!--link in2 to responderPublicacion--><g class="link" data-entity-1="ent0002" data-entity-2="ent0003" data-link-type="dependency" data-source-line="4" id="lnk2"><path d="M375,57.29 C375,79.17 375,107.67 375,145.66" fill="none" id="in2-to-responderPublicacion" style="stroke:#008000;stroke-width:1;"/><polygon fill="#008000" points="375,151.66,379,142.66,375,146.66,371,142.66,375,151.66" style="stroke:#008000;stroke-width:1;"/><path d="M380,92 L380,117 L550,117 L550,102 L540,92 L380,92" fill="#FEFFDD" style="stroke:#181818;stroke-width:0.5;"/><path d="M540,92 L540,102 L550,102 L540,92" fill="#FEFFDD" style="stroke:#181818;stroke-width:0.5;"/><text fill="#000000" font-family="sans-serif" font-size="13" lengthAdjust="spacing" textLength="149.9189" x="386" y="109.0669">responderPublicacion()</text></g><!--link responderPublicacion to PUBLICACIONES_ABIERTAS--><g class="link" data-entity-1="ent0003" data-entity-2="ent0009" data-link-type="dependency" data-source-line="36" id="lnk10"><path d="M375,569.45 C375,607.45 375,635.97 375,657.9" fill="none" id="responderPublicacion-to-PUBLICACIONES_ABIERTAS" style="stroke:#008000;stroke-width:1;"/><polygon fill="#008000" points="375,663.9,379,654.9,375,658.9,371,654.9,375,663.9" style="stroke:#008000;stroke-width:1;"/><path d="M380,604.3 L380,629.3 L530,629.3 L530,614.3 L520,604.3 L380,604.3" fill="#FEFFDD" style="stroke:#181818;stroke-width:0.5;"/><path d="M520,604.3 L520,614.3 L530,614.3 L520,604.3" fill="#FEFFDD" style="stroke:#181818;stroke-width:0.5;"/><text fill="#000000" font-family="sans-serif" font-size="13" lengthAdjust="spacing" textLength="129.0542" x="386" y="621.3669">abrirPublicaciones()</text></g><!--SRC=[bLFDQi904BxlKmpffIr8eMSHL3m4IYknFOcKINOgYybCsCI2b3vL7w4lrjreZA6hO7BQp3Vp_MocsXWkqM81kM6gToL1AVdE7vIgQgm933y2LX3DtoPFyNGyZL-UtyUJU9QyZYFbYuFbpTeIyMem0ajLAQp9phTfRZBCZB1YSME4FSL6XH2tTufOWyUrh25O8oFS7y6NKk2UVNVaNWUEkRQYjvbnqoLnZLjozV-uOocXjQbgYnhtqvRtgvwz2mDx9ls7OJgQYbXj6BNOuKCwWagSObDZvmxAriNl3pTjNH3-52RiQGg9FoTeuG1KO2Ec95kOvduF5BQHrJaA66Yn19bmJMoqmAwpHVnfq5vbmvBs9bpGrwUO8MUKeuKSGPoTioa68kf5U8cz5vaBYDWp2tyOM-m9GLENN7kXXqiuwlXMmJ-_9-DamsQBTiSM_VN1r9hJ0LITBCyV]--></g></svg>