<?plantuml 1.2026.2?><svg xmlns="http://www.w3.org/2000/svg" xmlns:xlink="http://www.w3.org/1999/xlink" contentStyleType="text/css" data-diagram-type="DESCRIPTION" height="408px" preserveAspectRatio="none" style="width:1521px;height:408px;background:#FFFFFF;" version="1.1" viewBox="0 0 1521 408" width="1521px" zoomAndPan="magnify"><defs/><g><!--cluster abrirSolicitudesEliminacionPerfil--><g class="cluster" data-qualified-name="abrirSolicitudesEliminacionPerfil" data-source-line="10" id="ent0004"><path d="M212,6 L445.0898,6 A3.75,3.75 0 0 1 447.5898,8.5 L454.5898,25.9688 L620,25.9688 A2.5,2.5 0 0 1 622.5,28.4688 L622.5,398.5 A2.5,2.5 0 0 1 620,401 L212,401 A2.5,2.5 0 0 1 209.5,398.5 L209.5,8.5 A2.5,2.5 0 0 1 212,6" fill="none" style="stroke:#000000;stroke-width:1.5;"/><line style="stroke:#000000;stroke-width:1.5;" x1="209.5" x2="454.5898" y1="25.9688" y2="25.9688"/><text fill="#000000" font-family="sans-serif" font-size="12" font-weight="bold" lengthAdjust="spacing" textLength="232.0898" x="213.5" y="19.1387">abrirSolicitudesEliminacionPerfil()</text></g><!--entity ListarSolicitudesView--><g class="entity" data-qualified-name="abrirSolicitudesEliminacionPerfil.ListarSolicitudesView" data-source-line="11" id="ent0005"><rect fill="#629EF9" height="33.9688" rx="2.5" ry="2.5" style="stroke:#181818;stroke-width:0.5;" width="147.125" x="459" y="38"/><text fill="#000000" font-family="sans-serif" font-size="12" lengthAdjust="spacing" textLength="127.125" x="469" y="59.1387">ListarSolicitudesView</text></g><!--entity PerfilController--><g class="entity" data-qualified-name="abrirSolicitudesEliminacionPerfil.PerfilController" data-source-line="12" id="ent0006"><rect fill="#B5BD68" height="33.9688" rx="2.5" ry="2.5" style="stroke:#181818;stroke-width:0.5;" width="109.7363" x="225.5" y="147"/><text fill="#000000" font-family="sans-serif" font-size="12" lengthAdjust="spacing" textLength="89.7363" x="235.5" y="168.1387">PerfilController</text></g><!--entity SolicitudEliminacionRepository--><g class="entity" data-qualified-name="abrirSolicitudesEliminacionPerfil.SolicitudEliminacionRepository" data-source-line="13" id="ent0007"><rect fill="#F2AC4E" height="33.9688" rx="2.5" ry="2.5" style="stroke:#181818;stroke-width:0.5;" width="204.9453" x="225" y="256"/><text fill="#000000" font-family="sans-serif" font-size="12" lengthAdjust="spacing" textLength="184.9453" x="235" y="277.1387">SolicitudEliminacionRepository</text></g><!--entity SolicitudEliminacion--><g class="entity" data-qualified-name="abrirSolicitudesEliminacionPerfil.SolicitudEliminacion" data-source-line="14" id="ent0008"><rect fill="#F2AC4E" height="33.9688" rx="2.5" ry="2.5" style="stroke:#181818;stroke-width:0.5;" width="140.5977" x="257" y="351"/><text fill="#000000" font-family="sans-serif" font-size="12" lengthAdjust="spacing" textLength="120.5977" x="267" y="372.1387">SolicitudEliminacion</text></g><!--entity OpcionesPerfilAbierto--><g class="entity" data-qualified-name="OpcionesPerfilAbierto" data-source-line="7" id="ent0002"><rect fill="#CDEBA5" height="33.9688" rx="2.5" ry="2.5" style="stroke:#181818;stroke-width:0.5;" width="187.1797" x="7" y="38"/><text fill="#000000" font-family="sans-serif" font-size="12" lengthAdjust="spacing" textLength="167.1797" x="17" y="59.1387">OPCIONES_PERFIL_ABIERTO</text></g><!--entity SolicitudesAbiertas--><g class="entity" data-qualified-name="SolicitudesAbiertas" data-source-line="8" id="ent0003"><rect fill="#CDEBA5" height="33.9688" rx="2.5" ry="2.5" style="stroke:#181818;stroke-width:0.5;" width="296.3223" x="638.5" y="147"/><text fill="#000000" font-family="sans-serif" font-size="12" lengthAdjust="spacing" textLength="276.3223" x="648.5" y="168.1387">SOLICITUDES_ELIMINACION_PERFIL_ABIERTAS</text></g><!--entity AbrirSolicitud--><g class="entity" data-qualified-name="AbrirSolicitud" data-source-line="17" id="ent0009"><rect fill="#CDEBA5" height="33.9688" rx="2.5" ry="2.5" style="stroke:#181818;stroke-width:0.5;" width="287.9023" x="969.5" y="147"/><text fill="#000000" font-family="sans-serif" font-size="12" lengthAdjust="spacing" textLength="267.9023" x="979.5" y="168.1387">:Collaboration AbrirSolicitudEliminacionPerfil</text></g><!--entity AbrirOpcionesPerfil--><g class="entity" data-qualified-name="AbrirOpcionesPerfil" data-source-line="18" id="ent0010"><rect fill="#CDEBA5" height="33.9688" rx="2.5" ry="2.5" style="stroke:#181818;stroke-width:0.5;" width="222.8809" x="1293" y="147"/><text fill="#000000" font-family="sans-serif" font-size="12" lengthAdjust="spacing" textLength="202.8809" x="1303" y="168.1387">:Collaboration AbrirOpcionesPerfil</text></g><!--link OpcionesPerfilAbierto to ListarSolicitudesView--><g class="link" data-entity-1="ent0002" data-entity-2="ent0005" data-link-type="dependency" data-source-line="20" id="lnk11"><path d="M194.24,55 C273.65,55 379.93,55 452.97,55" fill="none" id="OpcionesPerfilAbierto-to-ListarSolicitudesView" style="stroke:#181818;stroke-width:1;"/><polygon fill="#181818" points="458.97,55,449.97,51,453.97,55,449.97,59,458.97,55" style="stroke:#181818;stroke-width:1;"/><text fill="#000000" font-family="sans-serif" font-size="12" lengthAdjust="spacing" textLength="202.2129" x="225.5" y="49.1387">abrirSolicitudesEliminacionPerfil()</text></g><!--link ListarSolicitudesView to PerfilController--><g class="link" data-entity-1="ent0005" data-entity-2="ent0006" data-link-type="dependency" data-source-line="22" id="lnk12"><path d="M485.28,72.09 C446.35,85.35 397.5,102 397.5,102 C397.5,102 351.2307,126.1269 316.5607,144.1969" fill="none" id="ListarSolicitudesView-to-PerfilController" style="stroke:#181818;stroke-width:1;"/><polygon fill="#181818" points="311.24,146.97,321.0698,146.3574,315.6739,144.659,317.3723,139.2632,311.24,146.97" style="stroke:#181818;stroke-width:1;"/><text fill="#000000" font-family="sans-serif" font-size="12" lengthAdjust="spacing" textLength="344.2559" x="398.5" y="114.1387">listarSolicitudesPendientes() : List&lt;SolicitudEliminacion&gt;</text></g><!--link PerfilController to SolicitudEliminacionRepository--><g class="link" data-entity-1="ent0006" data-entity-2="ent0007" data-link-type="dependency" data-source-line="23" id="lnk13"><path d="M287.64,181.25 C296.52,201.48 309.1862,230.3169 318.0362,250.4569" fill="none" id="PerfilController-to-SolicitudEliminacionRepository" style="stroke:#181818;stroke-width:1;"/><polygon fill="#181818" points="320.45,255.95,320.4914,246.1012,318.4385,251.3725,313.1673,249.3196,320.45,255.95" style="stroke:#181818;stroke-width:1;"/><text fill="#000000" font-family="sans-serif" font-size="12" lengthAdjust="spacing" textLength="332.0859" x="307.5" y="223.1387">obtenerTodasPendientes() : List&lt;SolicitudEliminacion&gt;</text></g><!--link SolicitudEliminacionRepository to SolicitudEliminacion--><g class="link" data-entity-1="ent0007" data-entity-2="ent0008" data-link-type="association" data-source-line="24" id="lnk14"><path d="M327.5,290.2 C327.5,307.27 327.5,333.99 327.5,350.99" fill="none" id="SolicitudEliminacionRepository-SolicitudEliminacion" style="stroke:#181818;stroke-width:1;"/></g><!--link ListarSolicitudesView to AbrirSolicitud--><g class="link" data-entity-1="ent0005" data-entity-2="ent0009" data-link-type="dependency" data-source-line="26" id="lnk15"><path d="M606.05,67.43 C693.71,81.05 828.5,102 828.5,102 C828.5,102 948.3128,127.6444 1032.7528,145.7144" fill="none" id="ListarSolicitudesView-to-AbrirSolicitud" style="stroke:#181818;stroke-width:1;stroke-dasharray:7,7;"/><polygon fill="#181818" points="1038.62,146.97,1030.6563,141.1752,1033.7307,145.9237,1028.9822,148.9981,1038.62,146.97" style="stroke:#181818;stroke-width:1;"/><text fill="#000000" font-family="sans-serif" font-size="12" lengthAdjust="spacing" textLength="249.8555" x="897.5" y="114.1387">abrirSolicitudEliminacionPerfil(solicitudId)</text></g><!--link ListarSolicitudesView to AbrirOpcionesPerfil--><g class="link" data-entity-1="ent0005" data-entity-2="ent0010" data-link-type="dependency" data-source-line="27" id="lnk16"><path d="M606.11,61.43 C770.96,73.61 1155.5,102 1155.5,102 C1155.5,102 1259.4722,127.4727 1333.2522,145.5427" fill="none" id="ListarSolicitudesView-to-AbrirOpcionesPerfil" style="stroke:#181818;stroke-width:1;stroke-dasharray:7,7;"/><polygon fill="#181818" points="1339.08,146.97,1331.2899,140.9438,1334.2235,145.7806,1329.3868,148.7142,1339.08,146.97" style="stroke:#181818;stroke-width:1;"/><text fill="#000000" font-family="sans-serif" font-size="12" lengthAdjust="spacing" textLength="123.5566" x="1216.5" y="114.1387">abrirOpcionesPerfil()</text></g><!--link ListarSolicitudesView to SolicitudesAbiertas--><g class="link" data-entity-1="ent0005" data-entity-2="ent0003" data-link-type="dependency" data-source-line="29" id="lnk17"><path d="M606.19,71.77 C668.43,85.08 747.5,102 747.5,102 C747.5,102 761.4686,123.8445 773.0186,141.9145" fill="none" id="ListarSolicitudesView-to-SolicitudesAbiertas" style="stroke:#181818;stroke-width:1;stroke-dasharray:7,7;"/><polygon fill="#181818" points="776.25,146.97,774.7733,137.2325,773.5572,142.7571,768.0326,141.541,776.25,146.97" style="stroke:#181818;stroke-width:1;"/><text fill="#000000" font-family="sans-serif" font-size="12" lengthAdjust="spacing" textLength="62.4551" x="757.5" y="114.1387">&#171;finalizar&#187;</text></g><?plantuml-src bPH1R-8m48Nl_XKZk9H3AYtQLcs48gKXI97O1X5shvL31chLjIFR2D6g_xrEwD8ac8Nb5i_pDvFt9kWN9aggw2laTFcoLd8ZYaXogM3xp0mIVQZhPrh8BHDhM56kcvKnhkY6cuaKPdyrvvRb5cJi3U77i57aJA3PbGYbvBlgWH25IqF5cYFqet7y4Dv0Bvr5IVeOPq-pU3v9fa_XGnBF5saFg8QqN38fKCzGhHWFSuRAI1SaIwT9b2n-ZoqddYQ_aiUmehQPOLP3CydPafbDWNfFf9gGqhuNNIFqQAwOQaXYpbwPeDKS-ock1ZNbh0xU2TZVzx2zATE6Dk_yORYjOSuAz6-7z_7alelPuoDhkPASewe9tKFevpTvSNlNlNpeqPXtZgNKp4YrQ_lZb41_CWoZd_4bu9Eu0-J3kHA-NJPESwcegSHXo-eZe-ikRSsbqFP-VOFQvuGuzn0yvGNkw7ouO8q8SSVk5HRRpTEtNrD7F4DHC1G6zTK0_7gGaSkbW1mjHztYtpdx87E30jL25lG_UftP7izpzZtbnVLrq8csQ-sniVflAIa6vx3jOB_OxSFJGLKKnv-93wFHoex4sHjLGV09?></g></svg>