<?xml version="1.0" encoding="us-ascii" standalone="no"?><svg xmlns="http://www.w3.org/2000/svg" xmlns:xlink="http://www.w3.org/1999/xlink" contentStyleType="text/css" height="345px" preserveAspectRatio="none" style="width:491px;height:345px;background:#FFFFFF;" version="1.1" viewBox="0 0 491 345" width="491px" zoomAndPan="magnify"><defs/><g><line style="stroke:#AAAAAA;stroke-width:1.0;" x1="6" x2="484" y1="8.5" y2="8.5"/><line style="stroke:#AAAAAA;stroke-width:1.0;" x1="6" x2="484" y1="10.5" y2="10.5"/><text fill="#000000" font-family="sans-serif" font-size="12" font-weight="bold" lengthAdjust="spacing" textLength="157" x="6" y="26.457">GIPF - EDITAR PUBLICACI&#211;N</text><line style="stroke:#AAAAAA;stroke-width:1.0;" x1="6" x2="484" y1="33.5938" y2="33.5938"/><line style="stroke:#AAAAAA;stroke-width:1.0;" x1="6" x2="484" y1="35.5938" y2="35.5938"/><text fill="#000000" font-family="sans-serif" font-size="12" font-weight="bold" lengthAdjust="spacing" textLength="14" x="8" y="53.5508">ID:</text><text fill="#000000" font-family="sans-serif" font-size="12" lengthAdjust="spacing" textLength="188" x="24" y="53.5508">"PUB-INV-2025-014" (solo lectura)</text><text fill="#000000" font-family="sans-serif" font-size="12" font-weight="bold" lengthAdjust="spacing" textLength="34" x="8" y="72.6445">T&#237;tulo:</text><rect fill="#EEEEEE" height="19.0938" rx="5" ry="5" style="stroke:#000000;stroke-width:2.5;" width="380" x="46.5" y="62.6875"/><text fill="#000000" font-family="sans-serif" font-size="12" lengthAdjust="spacing" textLength="260" x="106.5" y="77.1445">Resultados preliminares de investigaci&#243;n 2025</text><text fill="#000000" font-family="sans-serif" font-size="12" font-weight="bold" lengthAdjust="spacing" textLength="42" x="8" y="100.7383">Estado:</text><text fill="#000000" font-family="sans-serif" font-size="12" lengthAdjust="spacing" textLength="48" x="56" y="101.7383">Borrador</text><line style="stroke:#000000;stroke-width:1.0;" x1="54" x2="121" y1="104.375" y2="104.375"/><line style="stroke:#000000;stroke-width:1.0;" x1="54" x2="54" y1="101.375" y2="103.375"/><line style="stroke:#000000;stroke-width:1.0;" x1="121" x2="121" y1="101.375" y2="103.375"/><text fill="#000000" font-family="sans-serif" font-size="12" lengthAdjust="spacing" textLength="55" x="128" y="101.7383">Publicada</text><line style="stroke:#000000;stroke-width:1.0;" x1="126" x2="201" y1="104.375" y2="104.375"/><line style="stroke:#000000;stroke-width:1.0;" x1="126" x2="126" y1="101.375" y2="103.375"/><line style="stroke:#000000;stroke-width:1.0;" x1="201" x2="201" y1="101.375" y2="103.375"/><text fill="#000000" font-family="sans-serif" font-size="12" font-weight="bold" lengthAdjust="spacing" textLength="61" x="8" y="123.832">Visibilidad:</text><text fill="#000000" font-family="sans-serif" font-size="12" lengthAdjust="spacing" textLength="41" x="75" y="124.832">P&#250;blica</text><line style="stroke:#000000;stroke-width:1.0;" x1="73" x2="132" y1="127.4688" y2="127.4688"/><line style="stroke:#000000;stroke-width:1.0;" x1="73" x2="73" y1="124.4688" y2="126.4688"/><line style="stroke:#000000;stroke-width:1.0;" x1="132" x2="132" y1="124.4688" y2="126.4688"/><text fill="#000000" font-family="sans-serif" font-size="12" lengthAdjust="spacing" textLength="41" x="139" y="124.832">Privada</text><line style="stroke:#000000;stroke-width:1.0;" x1="137" x2="196" y1="127.4688" y2="127.4688"/><line style="stroke:#000000;stroke-width:1.0;" x1="137" x2="137" y1="124.4688" y2="126.4688"/><line style="stroke:#000000;stroke-width:1.0;" x1="196" x2="196" y1="124.4688" y2="126.4688"/><line style="stroke:#AAAAAA;stroke-width:1.0;" x1="6" x2="484" y1="137.9688" y2="137.9688"/><text fill="#000000" font-family="sans-serif" font-size="12" font-weight="bold" lengthAdjust="spacing" textLength="68" x="6" y="154.9258">Descripci&#243;n</text><rect fill="#EEEEEE" height="19.0938" rx="5" ry="5" style="stroke:#000000;stroke-width:2.5;" width="468" x="10.5" y="164.0625"/><text fill="#000000" font-family="sans-serif" font-size="12" lengthAdjust="spacing" textLength="3" x="243" y="178.5195">&#160;</text><line style="stroke:#AAAAAA;stroke-width:1.0;" x1="6" x2="484" y1="193.1563" y2="193.1563"/><text fill="#000000" font-family="sans-serif" font-size="12" font-weight="bold" lengthAdjust="spacing" textLength="109" x="6" y="210.1133">Adjuntos (opcional)</text><rect fill="#EEEEEE" height="19.0938" rx="5" ry="5" style="stroke:#000000;stroke-width:2.5;" width="116" x="10.5" y="219.25"/><text fill="#000000" font-family="sans-serif" font-size="12" lengthAdjust="spacing" textLength="79" x="29" y="233.707">A&#241;adir adjunto</text><line style="stroke:#AAAAAA;stroke-width:1.0;" x1="7" x2="350" y1="247.3438" y2="247.3438"/><text fill="#000000" font-family="sans-serif" font-size="12" lengthAdjust="spacing" textLength="183" x="11" y="265.3008">&#128206; Informe_Resultados_2025.pdf</text><line style="stroke:#000000;stroke-width:1.0;" x1="9" x2="252" y1="267.9375" y2="267.9375"/><line style="stroke:#000000;stroke-width:1.0;" x1="9" x2="9" y1="264.9375" y2="266.9375"/><line style="stroke:#000000;stroke-width:1.0;" x1="252" x2="252" y1="264.9375" y2="266.9375"/><rect fill="#EEEEEE" height="19.0938" rx="5" ry="5" style="stroke:#000000;stroke-width:2.5;" width="28" x="258.5" y="255.3438"/><text fill="#000000" font-family="sans-serif" font-size="12" lengthAdjust="spacing" textLength="18" x="263.5" y="269.8008">Ver</text><rect fill="#EEEEEE" height="19.0938" rx="5" ry="5" style="stroke:#000000;stroke-width:2.5;" width="52" x="293.5" y="255.3438"/><text fill="#000000" font-family="sans-serif" font-size="12" lengthAdjust="spacing" textLength="33" x="303" y="269.8008">Quitar</text><text fill="#000000" font-family="sans-serif" font-size="12" lengthAdjust="spacing" textLength="143" x="11" y="293.3945">&#128206; Dataset_Resumen.xlsx</text><line style="stroke:#000000;stroke-width:1.0;" x1="9" x2="196" y1="296.0313" y2="296.0313"/><line style="stroke:#000000;stroke-width:1.0;" x1="9" x2="9" y1="293.0313" y2="295.0313"/><line style="stroke:#000000;stroke-width:1.0;" x1="196" x2="196" y1="293.0313" y2="295.0313"/><rect fill="#EEEEEE" height="19.0938" rx="5" ry="5" style="stroke:#000000;stroke-width:2.5;" width="28" x="202.5" y="283.4375"/><text fill="#000000" font-family="sans-serif" font-size="12" lengthAdjust="spacing" textLength="18" x="207.5" y="297.8945">Ver</text><rect fill="#EEEEEE" height="19.0938" rx="5" ry="5" style="stroke:#000000;stroke-width:2.5;" width="52" x="237.5" y="283.4375"/><text fill="#000000" font-family="sans-serif" font-size="12" lengthAdjust="spacing" textLength="33" x="247" y="297.8945">Quitar</text><line style="stroke:#AAAAAA;stroke-width:1.0;" x1="6" x2="484" y1="312.5313" y2="312.5313"/><rect fill="#EEEEEE" height="19.0938" rx="5" ry="5" style="stroke:#000000;stroke-width:2.5;" width="124" x="9.5" y="320.5313"/><text fill="#000000" font-family="sans-serif" font-size="12" lengthAdjust="spacing" textLength="96" x="23.5" y="334.9883">Guardar cambios</text><rect fill="#EEEEEE" height="19.0938" rx="5" ry="5" style="stroke:#000000;stroke-width:2.5;" width="68" x="140.5" y="320.5313"/><text fill="#000000" font-family="sans-serif" font-size="12" lengthAdjust="spacing" textLength="50" x="149.5" y="334.9883">Cancelar</text><!--SRC=[dPBFZjem4CRlVefHJd081GfL5MrN2mHGA6nJ5hWWj79YGrqvDhATTAijhz3BFa2Ve8UgjrvveJv2dKIKF-fUwej7rlm-ptmpDzfWPJJc1YXXDWxJYBCOnqmAznDJTArmGj4Z0dlUs5C4Lz7rC0W7u4BV3sQTAOJpxZZeTNh1_kdswaLqVKmleX8lefmDV2zFWY_WMD0DRXTkizvik_L6ou6Abbm2fx595Qx2xXoTxR-RbCi3luGfrIatc4WDMqKvIvZ0YceW59Z8g3PiOvlP_nIGVm6hIy6-pk63tYCuNQcKVL5EKLxf1i4Ex2x91TCiOfmHJ4xmSF-hG4fSiUmCtfL-k2uw-EXJ7IksBKhywzo9NqluxxDwxiyE-PWAOnsho6q-QCoh__eQbftz3qoO0bm2f-PPkMEYy_lRqrS8n5ggXDuVHtAVUrxRadNknd91rIg_twVvefrFebJmiS6Qca8XeQBsmFM3SqXwLk6YGLltCCMAO0KnJY8cTS7qi8WfBwaTkg62v5kFKCYnCFF963Agj3K36ZLRTQlsiZBxaCA0Hj1esztnMdMltePUVvOlKgkAAiDmd3L1orJ550ZJHh4eDLQXYaOump2rbh64Ul1kIyN8VtjuWBx8c9B2DcZGQ34v9hngkLrcu8ugMmii9iYdQsojj4Gi2HCR3-QpWViQZR7Of7XZjQb6FMbrrMSF-dT_0000]--></g></svg>