<?xml version="1.0" encoding="us-ascii" standalone="no"?><svg xmlns="http://www.w3.org/2000/svg" xmlns:xlink="http://www.w3.org/1999/xlink" contentStyleType="text/css" height="990px" preserveAspectRatio="none" style="width:881px;height:990px;background:#FFFFFF;" version="1.1" viewBox="0 0 881 990" width="881px" zoomAndPan="magnify"><defs/><g><g id="in1"><rect fill="#F1F1F1" height="50" rx="12.5" ry="12.5" style="stroke:#181818;stroke-width:0.5;" width="210" x="274" y="7"/><line style="stroke:#181818;stroke-width:0.5;" x1="274" x2="484" y1="34.6094" y2="34.6094"/><text fill="#000000" font-family="sans-serif" font-size="14" lengthAdjust="spacing" textLength="190" x="284" y="26.5332">PANEL_PRINCIPAL_ABIERTO</text></g><path d="M272,118 L724,118 A12.5,12.5 0 0 1 736.5,130.5 L736.5,145.6094 L259.5,145.6094 L259.5,130.5 A12.5,12.5 0 0 1 272,118 " fill="#F1F1F1" style="stroke:#F1F1F1;stroke-width:1.0;"/><rect fill="none" height="719.6094" rx="12.5" ry="12.5" style="stroke:#181818;stroke-width:0.5;" width="477" x="259.5" y="118"/><line style="stroke:#181818;stroke-width:0.5;" x1="259.5" x2="736.5" y1="145.6094" y2="145.6094"/><text fill="#000000" font-family="sans-serif" font-size="14" lengthAdjust="spacing" textLength="147" x="424.5" y="137.5332">abrirMisPublicaciones()</text><g id="abrirMisPublicaciones.MostrandoLista"><rect fill="#F1F1F1" height="50" rx="12.5" ry="12.5" style="stroke:#181818;stroke-width:0.5;" width="50" x="271.5" y="248.6094"/><line style="stroke:#181818;stroke-width:0.5;" x1="271.5" x2="321.5" y1="276.2188" y2="276.2188"/><text fill="#000000" font-family="sans-serif" font-size="14" lengthAdjust="spacing" textLength="4" x="294.5" y="268.1426">&#160;</text></g><g id="abrirMisPublicaciones.FiltrandoLista"><rect fill="#F1F1F1" height="50" rx="12.5" ry="12.5" style="stroke:#181818;stroke-width:0.5;" width="50" x="271.5" y="682.6094"/><line style="stroke:#181818;stroke-width:0.5;" x1="271.5" x2="321.5" y1="710.2188" y2="710.2188"/><text fill="#000000" font-family="sans-serif" font-size="14" lengthAdjust="spacing" textLength="4" x="294.5" y="702.1426">&#160;</text></g><ellipse cx="296.5" cy="166.6094" fill="#222222" rx="10" ry="10" style="stroke:#222222;stroke-width:1.0;"/><ellipse cx="296.5" cy="816.6094" fill="none" rx="11" ry="11" style="stroke:#222222;stroke-width:1.0;"/><ellipse cx="296.5" cy="816.6094" fill="#222222" rx="6" ry="6" style="stroke:#222222;stroke-width:1.0;"/><!--link *start*abrirMisPublicaciones to MostrandoLista--><g id="link_*start*abrirMisPublicaciones_MostrandoLista"><path d="M296.5,176.9294 C296.5,192.7894 296.5,219.5194 296.5,242.2494 " fill="none" id="*start*abrirMisPublicaciones-to-MostrandoLista" style="stroke:#008000;stroke-width:1.0;"/><polygon fill="#008000" points="296.5,248.2494,300.5,239.2494,296.5,243.2494,292.5,239.2494,296.5,248.2494" style="stroke:#008000;stroke-width:1.0;"/><path d="M301.5,199.6094 L301.5,225.6094 L657.5,225.6094 L657.5,209.6094 L647.5,199.6094 L301.5,199.6094 " fill="#FEFFDD" style="stroke:#181818;stroke-width:0.5;"/><path d="M647.5,199.6094 L647.5,209.6094 L657.5,209.6094 L647.5,199.6094 " fill="#FEFFDD" style="stroke:#181818;stroke-width:0.5;"/><text fill="#000000" font-family="sans-serif" font-size="13" font-weight="bold" lengthAdjust="spacing" textLength="79" x="307.5" y="218.1045">Coordinador</text><text fill="#000000" font-family="sans-serif" font-size="13" lengthAdjust="spacing" textLength="252" x="390.5" y="218.1045">solicita abrir el listado de sus publicaciones</text></g><!--link MostrandoLista to FiltrandoLista--><g id="link_MostrandoLista_FiltrandoLista"><path d="M296.5,298.7594 C296.5,374.4594 296.5,600.5294 296.5,676.3594 " fill="none" id="MostrandoLista-to-FiltrandoLista" style="stroke:#008000;stroke-width:1.0;"/><polygon fill="#008000" points="296.5,682.3594,300.5,673.3594,296.5,677.3594,292.5,673.3594,296.5,682.3594" style="stroke:#008000;stroke-width:1.0;"/><path d="M301.5,321.6094 L301.5,658.6094 L638.5,658.6094 L638.5,331.6094 L628.5,321.6094 L301.5,321.6094 " fill="#FEFFDD" style="stroke:#181818;stroke-width:0.5;"/><path d="M628.5,321.6094 L628.5,331.6094 L638.5,331.6094 L628.5,321.6094 " fill="#FEFFDD" style="stroke:#181818;stroke-width:0.5;"/><text fill="#000000" font-family="sans-serif" font-size="13" font-weight="bold" lengthAdjust="spacing" textLength="51" x="307.5" y="340.1045">Sistema</text><text fill="#000000" font-family="sans-serif" font-size="13" lengthAdjust="spacing" textLength="236" x="362.5" y="340.1045">presenta el bloque de filtrar / buscar con:</text><text fill="#000000" font-family="sans-serif" font-size="13" lengthAdjust="spacing" textLength="40" x="307.5" y="356.4561">&#8226; T&#237;tulo</text><text fill="#000000" font-family="sans-serif" font-size="13" lengthAdjust="spacing" textLength="50" x="307.5" y="372.8076">&#8226; Estado</text><text fill="#000000" font-family="sans-serif" font-size="13" lengthAdjust="spacing" textLength="92" x="307.5" y="389.1592">&#8226; Fecha (desde)</text><text fill="#000000" font-family="sans-serif" font-size="13" lengthAdjust="spacing" textLength="89" x="307.5" y="405.5107">&#8226; Fecha (hasta)</text><text fill="#000000" font-family="sans-serif" font-size="13" lengthAdjust="spacing" textLength="4" x="307.5" y="421.8623">&#160;</text><text fill="#000000" font-family="sans-serif" font-size="13" font-weight="bold" lengthAdjust="spacing" textLength="51" x="307.5" y="438.2139">Sistema</text><text fill="#000000" font-family="sans-serif" font-size="13" lengthAdjust="spacing" textLength="261" x="362.5" y="438.2139">presenta el listado de mis publicaciones con:</text><text fill="#000000" font-family="sans-serif" font-size="13" lengthAdjust="spacing" textLength="21" x="307.5" y="454.5654">&#8226; ID</text><text fill="#000000" font-family="sans-serif" font-size="13" lengthAdjust="spacing" textLength="40" x="307.5" y="470.917">&#8226; T&#237;tulo</text><text fill="#000000" font-family="sans-serif" font-size="13" lengthAdjust="spacing" textLength="50" x="307.5" y="487.2686">&#8226; Estado</text><text fill="#000000" font-family="sans-serif" font-size="13" lengthAdjust="spacing" textLength="45" x="307.5" y="503.6201">&#8226; Fecha</text><text fill="#000000" font-family="sans-serif" font-size="13" lengthAdjust="spacing" textLength="64" x="307.5" y="519.9717">&#8226; Resumen</text><text fill="#000000" font-family="sans-serif" font-size="13" lengthAdjust="spacing" textLength="123" x="307.5" y="536.3232">&#8226; abrirMiPublicacion()</text><text fill="#000000" font-family="sans-serif" font-size="13" lengthAdjust="spacing" textLength="4" x="307.5" y="552.6748">&#160;</text><text fill="#000000" font-family="sans-serif" font-size="13" lengthAdjust="spacing" textLength="247" x="307.5" y="569.0264">y permite solicitar las siguientes acciones:</text><text fill="#000000" font-family="sans-serif" font-size="13" lengthAdjust="spacing" textLength="84" x="307.5" y="585.3779">&#8226; Aplicar filtros</text><text fill="#000000" font-family="sans-serif" font-size="13" lengthAdjust="spacing" textLength="86" x="307.5" y="601.7295">&#8226; Limpiar filtros</text><text fill="#000000" font-family="sans-serif" font-size="13" lengthAdjust="spacing" textLength="105" x="307.5" y="618.0811">&#8226; Abrir publicaci&#243;n</text><text fill="#000000" font-family="sans-serif" font-size="13" lengthAdjust="spacing" textLength="109" x="307.5" y="634.4326">&#8226; Crear publicaci&#243;n</text><text fill="#000000" font-family="sans-serif" font-size="13" lengthAdjust="spacing" textLength="123" x="307.5" y="650.7842">&#8226; Abrir panel principal</text></g><!--link FiltrandoLista to FiltrandoLista--><g id="link_FiltrandoLista_FiltrandoLista"><path d="M321.68,696.0294 C331.41,695.5194 339.5,699.3794 339.5,707.6094 C339.5,715.8394 337.4018,720.0134 327.6718,719.5034 " fill="none" id="FiltrandoLista-to-FiltrandoLista" style="stroke:#008000;stroke-width:1.0;"/><polygon fill="#008000" points="321.68,719.1894,330.4583,723.655,326.6731,719.4511,330.877,715.6659,321.68,719.1894" style="stroke:#008000;stroke-width:1.0;"/><path d="M344.5,686.6094 L344.5,728.6094 L727.5,728.6094 L727.5,696.6094 L717.5,686.6094 L344.5,686.6094 " fill="#FEFFDD" style="stroke:#181818;stroke-width:0.5;"/><path d="M717.5,686.6094 L717.5,696.6094 L727.5,696.6094 L717.5,686.6094 " fill="#FEFFDD" style="stroke:#181818;stroke-width:0.5;"/><text fill="#000000" font-family="sans-serif" font-size="13" font-weight="bold" lengthAdjust="spacing" textLength="79" x="350.5" y="705.1045">Coordinador</text><text fill="#000000" font-family="sans-serif" font-size="13" lengthAdjust="spacing" textLength="279" x="433.5" y="705.1045">solicita introducir criterios de filtrado o b&#250;squeda</text><text fill="#000000" font-family="sans-serif" font-size="13" font-weight="bold" lengthAdjust="spacing" textLength="51" x="350.5" y="721.4561">Sistema</text><text fill="#000000" font-family="sans-serif" font-size="13" lengthAdjust="spacing" textLength="173" x="405.5" y="721.4561">muestra el listado actualizado</text></g><!--link FiltrandoLista to *end*abrirMisPublicaciones--><g id="link_FiltrandoLista_*end*abrirMisPublicaciones"><path d="M296.5,732.6194 C296.5,755.5394 296.5,782.9694 296.5,799.5294 " fill="none" id="FiltrandoLista-to-*end*abrirMisPublicaciones" style="stroke:#008000;stroke-width:1.0;"/><polygon fill="#008000" points="296.5,805.5294,300.5,796.5294,296.5,800.5294,292.5,796.5294,296.5,805.5294" style="stroke:#008000;stroke-width:1.0;"/><path d="M301.5,756.6094 L301.5,782.6094 L597.5,782.6094 L597.5,766.6094 L587.5,756.6094 L301.5,756.6094 " fill="#FEFFDD" style="stroke:#181818;stroke-width:0.5;"/><path d="M587.5,756.6094 L587.5,766.6094 L597.5,766.6094 L587.5,756.6094 " fill="#FEFFDD" style="stroke:#181818;stroke-width:0.5;"/><text fill="#000000" font-family="sans-serif" font-size="13" font-weight="bold" lengthAdjust="spacing" textLength="51" x="307.5" y="775.1045">Sistema</text><text fill="#000000" font-family="sans-serif" font-size="13" lengthAdjust="spacing" textLength="220" x="362.5" y="775.1045">deja el listado de publicaciones visible</text></g><g id="in2"><rect fill="#F1F1F1" height="50" rx="12.5" ry="12.5" style="stroke:#181818;stroke-width:0.5;" width="198" x="519" y="7"/><line style="stroke:#181818;stroke-width:0.5;" x1="519" x2="717" y1="34.6094" y2="34.6094"/><text fill="#000000" font-family="sans-serif" font-size="14" lengthAdjust="spacing" textLength="178" x="529" y="26.5332">MI_PUBLICACION_ABIERTA</text></g><g id="MIS_PUBLICACIONES_ABIERTAS"><rect fill="#F1F1F1" height="50" rx="12.5" ry="12.5" style="stroke:#181818;stroke-width:0.5;" width="234" x="7" y="934"/><line style="stroke:#181818;stroke-width:0.5;" x1="7" x2="241" y1="961.6094" y2="961.6094"/><text fill="#000000" font-family="sans-serif" font-size="14" lengthAdjust="spacing" textLength="214" x="17" y="953.5332">MIS_PUBLICACIONES_ABIERTAS</text></g><g id="MI_PUBLICACION_ABIERTA"><rect fill="#F1F1F1" height="50" rx="12.5" ry="12.5" style="stroke:#181818;stroke-width:0.5;" width="198" x="368" y="934"/><line style="stroke:#181818;stroke-width:0.5;" x1="368" x2="566" y1="961.6094" y2="961.6094"/><text fill="#000000" font-family="sans-serif" font-size="14" lengthAdjust="spacing" textLength="178" x="378" y="953.5332">MI_PUBLICACION_ABIERTA</text></g><g id="PANEL_PRINCIPAL_ABIERTO"><rect fill="#F1F1F1" height="50" rx="12.5" ry="12.5" style="stroke:#181818;stroke-width:0.5;" width="210" x="661" y="934"/><line style="stroke:#181818;stroke-width:0.5;" x1="661" x2="871" y1="961.6094" y2="961.6094"/><text fill="#000000" font-family="sans-serif" font-size="14" lengthAdjust="spacing" textLength="190" x="671" y="953.5332">PANEL_PRINCIPAL_ABIERTO</text></g><!--link in1 to abrirMisPublicaciones--><g id="link_in1_abrirMisPublicaciones"><path d="M385.48,57.19 C389.48,72.12 393.5681,87.3342 400.1981,112.0942 " fill="none" id="in1-to-abrirMisPublicaciones" style="stroke:#008000;stroke-width:1.0;"/><polygon fill="#008000" points="401.75,117.89,403.286,108.1616,400.4567,113.0602,395.5582,110.2309,401.75,117.89" style="stroke:#008000;stroke-width:1.0;"/></g><!--link in2 to abrirMisPublicaciones--><g id="link_in2_abrirMisPublicaciones"><path d="M611.46,57.19 C607.43,72.12 603.315,87.3377 596.625,112.0977 " fill="none" id="in2-to-abrirMisPublicaciones" style="stroke:#008000;stroke-width:1.0;"/><polygon fill="#008000" points="595.06,117.89,601.2691,110.2449,596.3642,113.0631,593.546,108.1582,595.06,117.89" style="stroke:#008000;stroke-width:1.0;"/></g><!--link abrirMisPublicaciones to MIS_PUBLICACIONES_ABIERTAS--><g id="link_abrirMisPublicaciones_MIS_PUBLICACIONES_ABIERTAS"><path d="M259.33,748.11 C200.01,814.99 153,868 153,868 C153,868 142.2001,901.5091 133.6101,928.1691 " fill="none" id="abrirMisPublicaciones-to-MIS_PUBLICACIONES_ABIERTAS" style="stroke:#008000;stroke-width:1.0;"/><polygon fill="#008000" points="131.77,933.88,138.3374,926.5404,133.3034,929.1209,130.7229,924.087,131.77,933.88" style="stroke:#008000;stroke-width:1.0;"/><path d="M158,873 L158,899 L390,899 L390,883 L380,873 L158,873 " fill="#FEFFDD" style="stroke:#181818;stroke-width:0.5;"/><path d="M380,873 L380,883 L390,883 L380,873 " fill="#FEFFDD" style="stroke:#181818;stroke-width:0.5;"/><text fill="#000000" font-family="sans-serif" font-size="13" lengthAdjust="spacing" textLength="211" x="164" y="891.4951">Listado de mis publicaciones abierto</text></g><!--link abrirMisPublicaciones to MI_PUBLICACION_ABIERTA--><g id="link_abrirMisPublicaciones_MI_PUBLICACION_ABIERTA"><path d="M410.3,838.12 C405.74,856.77 403,868 403,868 C403,868 403,904 403,904 C403,904 416.7433,915.602 433.7833,929.972 " fill="none" id="abrirMisPublicaciones-to-MI_PUBLICACION_ABIERTA" style="stroke:#008000;stroke-width:1.0;"/><polygon fill="#008000" points="438.37,933.84,434.0686,924.9801,434.5477,930.6166,428.9112,931.0958,438.37,933.84" style="stroke:#008000;stroke-width:1.0;"/><path d="M408,873 L408,899 L543,899 L543,883 L533,873 L408,873 " fill="#FEFFDD" style="stroke:#181818;stroke-width:0.5;"/><path d="M533,873 L533,883 L543,883 L533,873 " fill="#FEFFDD" style="stroke:#181818;stroke-width:0.5;"/><text fill="#000000" font-family="sans-serif" font-size="13" lengthAdjust="spacing" textLength="114" x="414" y="891.4951">abrirMiPublicacion()</text></g><!--link abrirMisPublicaciones to MI_PUBLICACION_ABIERTA--><g id="link_abrirMisPublicaciones_MI_PUBLICACION_ABIERTA"><path d="M547.85,838.12 C550.44,856.77 552,868 552,868 C552,868 552,904 552,904 C552,904 532.7257,916.2547 510.0857,930.6247 " fill="none" id="abrirMisPublicaciones-to-MI_PUBLICACION_ABIERTA-1" style="stroke:#008000;stroke-width:1.0;"/><polygon fill="#008000" points="505.02,933.84,514.7622,932.3942,509.2415,931.1606,510.4751,925.6399,505.02,933.84" style="stroke:#008000;stroke-width:1.0;"/><path d="M557,873 L557,899 L682,899 L682,883 L672,873 L557,873 " fill="#FEFFDD" style="stroke:#181818;stroke-width:0.5;"/><path d="M672,873 L672,883 L682,883 L672,873 " fill="#FEFFDD" style="stroke:#181818;stroke-width:0.5;"/><text fill="#000000" font-family="sans-serif" font-size="13" lengthAdjust="spacing" textLength="104" x="563" y="891.4951">crearPublicacion()</text></g><!--link abrirMisPublicaciones to PANEL_PRINCIPAL_ABIERTO--><g id="link_abrirMisPublicaciones_PANEL_PRINCIPAL_ABIERTO"><path d="M698.89,838.06 C721.31,878.12 737.429,906.9446 749.449,928.4146 " fill="none" id="abrirMisPublicaciones-to-PANEL_PRINCIPAL_ABIERTO" style="stroke:#008000;stroke-width:1.0;"/><polygon fill="#008000" points="752.38,933.65,751.4737,923.8429,749.9375,929.2872,744.4932,927.751,752.38,933.65" style="stroke:#008000;stroke-width:1.0;"/><path d="M737,873 L737,899 L874,899 L874,883 L864,873 L737,873 " fill="#FEFFDD" style="stroke:#181818;stroke-width:0.5;"/><path d="M864,873 L864,883 L874,883 L864,873 " fill="#FEFFDD" style="stroke:#181818;stroke-width:0.5;"/><text fill="#000000" font-family="sans-serif" font-size="13" lengthAdjust="spacing" textLength="116" x="743" y="891.4951">abrirPanelPrincipal()</text></g><!--SRC=[hLN1Rjim3BtxAuJqaWmeYlKu507SB0KCEAcHTAUY26I9RRdAaYVP0x9XmBvbzvrswpL_iYyPvIIEdJbRLiovcAJq-4W-C-u9TSujpvX23SKo1vORjVH64BY25y1GlsRSiLuIJiVn8fb5qr6KXF4Yl8p6ivlhNk0FdDwUF5W0VNSwP3orQ2VeaZ9LABX0ey7jqCuhj4cqIDvTnj4e74NNqmrOwC7EZmVh35RmdP7-eCS-1m6ZPts_HpywFJ6ki5nB4oFvVuzVeMh6gmEth-vQF3imj248etrddoh7HJeS6MCbQYwDlJXBXymPeeS5NvV2GD5fkYyDay1SwLZUgjkZW9OLz9f7Es-BqXxjGvJc58MCLtHo2muquH2HL9aF9NWUznMGPMSiBPsW5s7qc-hwpw_VsCtgUr4gKzlZYdzjNe5uvAmlmKaOx7iVEHqU17-ZqkX9XdizQPE9tluJhzgQWIipqBMzqKz3FlqDpINBmMP8VTpEpZ958d7uK28HzW8KQsexMc7kOUowayRL_XYp73lyOQM6kixLZnspaGL-8BIvnJMrBBUe1UPSTMYcBOoNQEQWZ55J7R8Kn4DOQf95utOIeX4QbgwU7GbBygwfPoLuFJU7paLHSeMVjiCxkXRwH8yIlOJt-ofhA-mZEamLjBD_2OBkzTFQ2j6ykUR6y-sYcmSjLl6V1CvJ15kOO5VuCOcxrcixQQV6_tSIuUNwyXG7_dGw2acyx9EjwfjfVW40]--></g></svg>