<?plantuml 1.2026.2?><svg xmlns="http://www.w3.org/2000/svg" xmlns:xlink="http://www.w3.org/1999/xlink" contentStyleType="text/css" data-diagram-type="DESCRIPTION" height="313px" preserveAspectRatio="none" style="width:913px;height:313px;background:#FFFFFF;" version="1.1" viewBox="0 0 913 313" width="913px" zoomAndPan="magnify"><defs/><g><!--cluster eliminarPublicacion--><g class="cluster" data-qualified-name="eliminarPublicacion" data-source-line="10" id="ent0004"><path d="M8.5,6 L153.3887,6 A3.75,3.75 0 0 1 155.8887,8.5 L162.8887,25.9688 L465.5,25.9688 A2.5,2.5 0 0 1 468,28.4688 L468,303.5 A2.5,2.5 0 0 1 465.5,306 L8.5,306 A2.5,2.5 0 0 1 6,303.5 L6,8.5 A2.5,2.5 0 0 1 8.5,6" fill="none" style="stroke:#000000;stroke-width:1.5;"/><line style="stroke:#000000;stroke-width:1.5;" x1="6" x2="162.8887" y1="25.9688" y2="25.9688"/><text fill="#000000" font-family="sans-serif" font-size="12" font-weight="bold" lengthAdjust="spacing" textLength="143.8887" x="10" y="19.1387">eliminarPublicacion()</text></g><!--entity EliminarPublicacionView--><g class="entity" data-qualified-name="eliminarPublicacion.EliminarPublicacionView" data-source-line="11" id="ent0005"><rect fill="#629EF9" height="33.9688" rx="2.5" ry="2.5" style="stroke:#181818;stroke-width:0.5;" width="165.8633" x="286" y="38"/><text fill="#000000" font-family="sans-serif" font-size="12" lengthAdjust="spacing" textLength="145.8633" x="296" y="59.1387">EliminarPublicacionView</text></g><!--entity PublicacionController--><g class="entity" data-qualified-name="eliminarPublicacion.PublicacionController" data-source-line="12" id="ent0006"><rect fill="#B5BD68" height="33.9688" rx="2.5" ry="2.5" style="stroke:#181818;stroke-width:0.5;" width="147.248" x="92.5" y="147"/><text fill="#000000" font-family="sans-serif" font-size="12" lengthAdjust="spacing" textLength="127.248" x="102.5" y="168.1387">PublicacionController</text></g><!--entity PublicacionRepository--><g class="entity" data-qualified-name="eliminarPublicacion.PublicacionRepository" data-source-line="13" id="ent0007"><rect fill="#F2AC4E" height="33.9688" rx="2.5" ry="2.5" style="stroke:#181818;stroke-width:0.5;" width="152.3047" x="90" y="256"/><text fill="#000000" font-family="sans-serif" font-size="12" lengthAdjust="spacing" textLength="132.3047" x="100" y="277.1387">PublicacionRepository</text></g><!--entity MiPublicacionAbierta--><g class="entity" data-qualified-name="MiPublicacionAbierta" data-source-line="7" id="ent0002"><rect fill="#CDEBA5" height="33.9688" rx="2.5" ry="2.5" style="stroke:#181818;stroke-width:0.5;" width="178.7363" x="484.5" y="147"/><text fill="#000000" font-family="sans-serif" font-size="12" lengthAdjust="spacing" textLength="158.7363" x="494.5" y="168.1387">MI_PUBLICACION_ABIERTA</text></g><!--entity MisPublicacionesAbiertas--><g class="entity" data-qualified-name="MisPublicacionesAbiertas" data-source-line="8" id="ent0003"><rect fill="#CDEBA5" height="33.9688" rx="2.5" ry="2.5" style="stroke:#181818;stroke-width:0.5;" width="209.1699" x="698.5" y="147"/><text fill="#000000" font-family="sans-serif" font-size="12" lengthAdjust="spacing" textLength="189.1699" x="708.5" y="168.1387">MIS_PUBLICACIONES_ABIERTAS</text></g><!--link MiPublicacionAbierta to EliminarPublicacionView--><g class="link" data-entity-1="ent0002" data-entity-2="ent0005" data-link-type="dependency" data-source-line="16" id="lnk8"><path d="M543.1,146.87 C504.35,126.65 443.6592,94.9659 405.0092,74.7959" fill="none" id="MiPublicacionAbierta-to-EliminarPublicacionView" style="stroke:#181818;stroke-width:1;"/><polygon fill="#181818" points="399.69,72.02,405.8182,79.73,404.1227,74.3333,409.5195,72.6377,399.69,72.02" style="stroke:#181818;stroke-width:1;"/><text fill="#000000" font-family="sans-serif" font-size="12" lengthAdjust="spacing" textLength="126.2871" x="485" y="114.1387">eliminarPublicacion()</text></g><!--link EliminarPublicacionView to MiPublicacionAbierta--><g class="link" data-entity-1="ent0005" data-entity-2="ent0002" data-link-type="dependency" data-source-line="24" id="lnk13"><path d="M452.23,71.25 C525.29,84.64 620,102 620,102 C620,102 620,117 620,117 C620,117 607.5926,129.4074 594.3326,142.6674" fill="none" id="EliminarPublicacionView-to-MiPublicacionAbierta" style="stroke:#181818;stroke-width:1;stroke-dasharray:7,7;"/><polygon fill="#181818" points="590.09,146.91,599.2824,143.3745,593.6255,143.3745,593.6255,137.7176,590.09,146.91" style="stroke:#181818;stroke-width:1;"/><text fill="#000000" font-family="sans-serif" font-size="12" lengthAdjust="spacing" textLength="65.8418" x="621" y="114.1387">&#171;cancelar&#187;</text></g><!--link EliminarPublicacionView to PublicacionController--><g class="link" data-entity-1="ent0005" data-entity-2="ent0006" data-link-type="dependency" data-source-line="18" id="lnk9"><path d="M285.83,68.15 C192.5,81.77 54,102 54,102 C54,102 54,117 54,117 C54,117 88.9795,131.3714 121.2795,144.6314" fill="none" id="EliminarPublicacionView-to-PublicacionController" style="stroke:#181818;stroke-width:1;"/><polygon fill="#181818" points="126.83,146.91,120.0234,139.7917,122.2046,145.0111,116.9852,147.1924,126.83,146.91" style="stroke:#181818;stroke-width:1;"/><text fill="#000000" font-family="sans-serif" font-size="12" lengthAdjust="spacing" textLength="136.2891" x="55" y="114.1387">solicitarConfirmacion()</text></g><!--link EliminarPublicacionView to PublicacionController--><g class="link" data-entity-1="ent0005" data-entity-2="ent0006" data-link-type="dependency" data-source-line="20" id="lnk10"><path d="M321.08,72.09 C281.58,85.35 232,102 232,102 C232,102 207.3072,124.8285 187.7472,142.8985" fill="none" id="EliminarPublicacionView-to-PublicacionController-1" style="stroke:#181818;stroke-width:1;"/><polygon fill="#181818" points="183.34,146.97,192.6651,143.8009,187.0126,143.5771,187.2365,137.9247,183.34,146.97" style="stroke:#181818;stroke-width:1;"/><text fill="#000000" font-family="sans-serif" font-size="12" lengthAdjust="spacing" textLength="215.9824" x="233" y="114.1387">confirmarEliminacion(publicacionId)</text></g><!--link PublicacionController to PublicacionRepository--><g class="link" data-entity-1="ent0006" data-entity-2="ent0007" data-link-type="dependency" data-source-line="21" id="lnk11"><path d="M166,181.25 C166,201.48 166,229.81 166,249.95" fill="none" id="PublicacionController-to-PublicacionRepository" style="stroke:#181818;stroke-width:1;"/><polygon fill="#181818" points="166,255.95,170,246.95,166,250.95,162,246.95,166,255.95" style="stroke:#181818;stroke-width:1;"/><text fill="#000000" font-family="sans-serif" font-size="12" lengthAdjust="spacing" textLength="137.8242" x="167" y="223.1387">eliminar(publicacionId)</text></g><!--link EliminarPublicacionView to MisPublicacionesAbiertas--><g class="link" data-entity-1="ent0005" data-entity-2="ent0003" data-link-type="dependency" data-source-line="23" id="lnk12"><path d="M452.11,67.73 C548.69,81.36 695,102 695,102 C695,102 737.4058,125.9491 769.3958,144.0191" fill="none" id="EliminarPublicacionView-to-MisPublicacionesAbiertas" style="stroke:#181818;stroke-width:1;stroke-dasharray:7,7;"/><polygon fill="#181818" points="774.62,146.97,768.751,139.0608,770.2665,144.5109,764.8165,146.0264,774.62,146.97" style="stroke:#181818;stroke-width:1;"/><text fill="#000000" font-family="sans-serif" font-size="12" lengthAdjust="spacing" textLength="62.4551" x="723" y="114.1387">&#171;finalizar&#187;</text></g><?plantuml-src fP91Ru8m7CNl_HJ_m6KUD9cPPXf3WeW9oTpCs7Or1GesrfQqDKQNVVTLnWP1s0xZHjzxl_GzK3lASopn7Y8Sxp8f3Zpn11CIZbkg2L8_kjhYH1mfpo35JDML1KdnWUcbuFeh6Z73QZU4z4pWTbWJ6UL4dt82kM2domj2aiGQyumHiBs5FtT7OAs2pVfr_X1uhXSyFMxSUU0_lxWMO0KhkZv4ZCOufeAx4ILIutP4M6VuuJSbB36gnY6g92c4SjC6PmGimkYUSYnhlfjU4MvHu1s1UQgBMFwrwOsIOm7eqC0U3oV-Sj94rMoUMLKAneWiGAqAsD4eIiRtls2UIIuKrKAUcfXA0NivTBqx7tqWrBOwz6NVwQeoXTRv4EggtayChBNE59GmfrHZQGvJAlV_WiKbGvRXWfLNtY3feVPPczHgggfjazHvnS70wVm9fp2RfIR4w1bBn_c3SVrbBlaOyvYmI_mJ?></g></svg>