<?plantuml 1.2026.2?><svg xmlns="http://www.w3.org/2000/svg" xmlns:xlink="http://www.w3.org/1999/xlink" contentStyleType="text/css" data-diagram-type="DESCRIPTION" height="408px" preserveAspectRatio="none" style="width:1584px;height:408px;background:#FFFFFF;" version="1.1" viewBox="0 0 1584 408" width="1584px" zoomAndPan="magnify"><defs/><g><!--cluster abrirRecompensa--><g class="cluster" data-qualified-name="abrirRecompensa" data-source-line="10" id="ent0004"><path d="M201.5,6 L331.8574,6 A3.75,3.75 0 0 1 334.3574,8.5 L341.3574,25.9688 L616.5,25.9688 A2.5,2.5 0 0 1 619,28.4688 L619,398.5 A2.5,2.5 0 0 1 616.5,401 L201.5,401 A2.5,2.5 0 0 1 199,398.5 L199,8.5 A2.5,2.5 0 0 1 201.5,6" fill="none" style="stroke:#000000;stroke-width:1.5;"/><line style="stroke:#000000;stroke-width:1.5;" x1="199" x2="341.3574" y1="25.9688" y2="25.9688"/><text fill="#000000" font-family="sans-serif" font-size="12" font-weight="bold" lengthAdjust="spacing" textLength="129.3574" x="203" y="19.1387">abrirRecompensa()</text></g><!--entity DetalleRecompensaView--><g class="entity" data-qualified-name="abrirRecompensa.DetalleRecompensaView" data-source-line="11" id="ent0005"><rect fill="#629EF9" height="33.9688" rx="2.5" ry="2.5" style="stroke:#181818;stroke-width:0.5;" width="169.0332" x="434.5" y="38"/><text fill="#000000" font-family="sans-serif" font-size="12" lengthAdjust="spacing" textLength="149.0332" x="444.5" y="59.1387">DetalleRecompensaView</text></g><!--entity RecompensaController--><g class="entity" data-qualified-name="abrirRecompensa.RecompensaController" data-source-line="12" id="ent0006"><rect fill="#B5BD68" height="33.9688" rx="2.5" ry="2.5" style="stroke:#181818;stroke-width:0.5;" width="156.8516" x="216.5" y="147"/><text fill="#000000" font-family="sans-serif" font-size="12" lengthAdjust="spacing" textLength="136.8516" x="226.5" y="168.1387">RecompensaController</text></g><!--entity RecompensaRepository--><g class="entity" data-qualified-name="abrirRecompensa.RecompensaRepository" data-source-line="13" id="ent0007"><rect fill="#F2AC4E" height="33.9688" rx="2.5" ry="2.5" style="stroke:#181818;stroke-width:0.5;" width="161.9082" x="215" y="256"/><text fill="#000000" font-family="sans-serif" font-size="12" lengthAdjust="spacing" textLength="141.9082" x="225" y="277.1387">RecompensaRepository</text></g><!--entity Recompensa--><g class="entity" data-qualified-name="abrirRecompensa.Recompensa" data-source-line="14" id="ent0008"><rect fill="#F2AC4E" height="33.9688" rx="2.5" ry="2.5" style="stroke:#181818;stroke-width:0.5;" width="97.5605" x="247" y="351"/><text fill="#000000" font-family="sans-serif" font-size="12" lengthAdjust="spacing" textLength="77.5605" x="257" y="372.1387">Recompensa</text></g><!--entity RecompensasAbiertas--><g class="entity" data-qualified-name="RecompensasAbiertas" data-source-line="7" id="ent0002"><rect fill="#CDEBA5" height="33.9688" rx="2.5" ry="2.5" style="stroke:#181818;stroke-width:0.5;" width="176.3926" x="7" y="38"/><text fill="#000000" font-family="sans-serif" font-size="12" lengthAdjust="spacing" textLength="156.3926" x="17" y="59.1387">RECOMPENSAS_ABIERTAS</text></g><!--entity RecompensaAbierta--><g class="entity" data-qualified-name="RecompensaAbierta" data-source-line="8" id="ent0003"><rect fill="#CDEBA5" height="33.9688" rx="2.5" ry="2.5" style="stroke:#181818;stroke-width:0.5;" width="161.1582" x="635.5" y="147"/><text fill="#000000" font-family="sans-serif" font-size="12" lengthAdjust="spacing" textLength="141.1582" x="645.5" y="168.1387">RECOMPENSA_ABIERTA</text></g><!--entity EditarRecompensa--><g class="entity" data-qualified-name="EditarRecompensa" data-source-line="17" id="ent0009"><rect fill="#CDEBA5" height="33.9688" rx="2.5" ry="2.5" style="stroke:#181818;stroke-width:0.5;" width="220.918" x="831.5" y="147"/><text fill="#000000" font-family="sans-serif" font-size="12" lengthAdjust="spacing" textLength="200.918" x="841.5" y="168.1387">:Collaboration EditarRecompensa</text></g><!--entity EliminarRecompensa--><g class="entity" data-qualified-name="EliminarRecompensa" data-source-line="18" id="ent0010"><rect fill="#CDEBA5" height="33.9688" rx="2.5" ry="2.5" style="stroke:#181818;stroke-width:0.5;" width="234.5586" x="1087.5" y="147"/><text fill="#000000" font-family="sans-serif" font-size="12" lengthAdjust="spacing" textLength="214.5586" x="1097.5" y="168.1387">:Collaboration EliminarRecompensa</text></g><!--entity AbrirRecompensas--><g class="entity" data-qualified-name="AbrirRecompensas" data-source-line="19" id="ent0011"><rect fill="#CDEBA5" height="33.9688" rx="2.5" ry="2.5" style="stroke:#181818;stroke-width:0.5;" width="220.6719" x="1357.5" y="147"/><text fill="#000000" font-family="sans-serif" font-size="12" lengthAdjust="spacing" textLength="200.6719" x="1367.5" y="168.1387">:Collaboration AbrirRecompensas</text></g><!--link RecompensasAbiertas to DetalleRecompensaView--><g class="link" data-entity-1="ent0002" data-entity-2="ent0005" data-link-type="dependency" data-source-line="21" id="lnk12"><path d="M183.11,55 C256.87,55 355.45,55 428.26,55" fill="none" id="RecompensasAbiertas-to-DetalleRecompensaView" style="stroke:#181818;stroke-width:1;"/><polygon fill="#181818" points="434.26,55,425.26,51,429.26,55,425.26,59,434.26,55" style="stroke:#181818;stroke-width:1;"/><text fill="#000000" font-family="sans-serif" font-size="12" lengthAdjust="spacing" textLength="200.4082" x="208.75" y="49.1387">abrirRecompensa(recompensaId)</text></g><!--link DetalleRecompensaView to RecompensaController--><g class="link" data-entity-1="ent0005" data-entity-2="ent0006" data-link-type="dependency" data-source-line="23" id="lnk13"><path d="M434.26,70.49 C355.41,83.98 250,102 250,102 C250,102 250,117 250,117 C250,117 262.0829,129.3623 275.0629,142.6223" fill="none" id="DetalleRecompensaView-to-RecompensaController" style="stroke:#181818;stroke-width:1;"/><polygon fill="#181818" points="279.26,146.91,275.8228,137.6804,275.7624,143.3369,270.1059,143.2766,279.26,146.91" style="stroke:#181818;stroke-width:1;"/><text fill="#000000" font-family="sans-serif" font-size="12" lengthAdjust="spacing" textLength="351.1699" x="251" y="114.1387">obtenerDetalleRecompensa(recompensaId) : Recompensa</text></g><!--link RecompensaController to RecompensaRepository--><g class="link" data-entity-1="ent0006" data-entity-2="ent0007" data-link-type="dependency" data-source-line="24" id="lnk14"><path d="M295.15,181.25 C295.34,201.48 295.6034,229.8103 295.7934,249.9503" fill="none" id="RecompensaController-to-RecompensaRepository" style="stroke:#181818;stroke-width:1;"/><polygon fill="#181818" points="295.85,255.95,299.7649,246.9127,295.8028,250.9502,291.7653,246.9881,295.85,255.95" style="stroke:#181818;stroke-width:1;"/><text fill="#000000" font-family="sans-serif" font-size="12" lengthAdjust="spacing" textLength="261.5449" x="296" y="223.1387">obtenerPorId(recompensaId) : Recompensa</text></g><!--link RecompensaRepository to Recompensa--><g class="link" data-entity-1="ent0007" data-entity-2="ent0008" data-link-type="association" data-source-line="25" id="lnk15"><path d="M296,290.2 C296,307.27 296,333.99 296,350.99" fill="none" id="RecompensaRepository-Recompensa" style="stroke:#181818;stroke-width:1;"/></g><!--link DetalleRecompensaView to EditarRecompensa--><g class="link" data-entity-1="ent0005" data-entity-2="ent0009" data-link-type="dependency" data-source-line="27" id="lnk16"><path d="M584.84,72.02 C639.38,85.3 708,102 708,102 C708,102 805.384,127.3867 874.714,145.4567" fill="none" id="DetalleRecompensaView-to-EditarRecompensa" style="stroke:#181818;stroke-width:1;stroke-dasharray:7,7;"/><polygon fill="#181818" points="880.52,146.97,872.8198,140.8294,875.6816,145.7089,870.8021,148.5708,880.52,146.97" style="stroke:#181818;stroke-width:1;"/><text fill="#000000" font-family="sans-serif" font-size="12" lengthAdjust="spacing" textLength="122.25" x="765" y="114.1387">editarRecompensa()</text></g><!--link DetalleRecompensaView to EliminarRecompensa--><g class="link" data-entity-1="ent0005" data-entity-2="ent0010" data-link-type="dependency" data-source-line="28" id="lnk17"><path d="M603.61,66.32 C714.76,79.89 896,102 896,102 C896,102 1026.3736,127.7381 1117.9236,145.8081" fill="none" id="DetalleRecompensaView-to-EliminarRecompensa" style="stroke:#181818;stroke-width:1;stroke-dasharray:7,7;"/><polygon fill="#181818" points="1123.81,146.97,1115.7549,141.3029,1118.9046,146.0018,1114.2058,149.1515,1123.81,146.97" style="stroke:#181818;stroke-width:1;"/><text fill="#000000" font-family="sans-serif" font-size="12" lengthAdjust="spacing" textLength="135.8906" x="971" y="114.1387">eliminarRecompensa()</text></g><!--link DetalleRecompensaView to AbrirRecompensas--><g class="link" data-entity-1="ent0005" data-entity-2="ent0011" data-link-type="dependency" data-source-line="29" id="lnk18"><path d="M603.76,62.54 C768.3,75.24 1115,102 1115,102 C1115,102 1264.7576,127.8784 1369.3376,145.9484" fill="none" id="DetalleRecompensaView-to-AbrirRecompensas" style="stroke:#181818;stroke-width:1;stroke-dasharray:7,7;"/><polygon fill="#181818" points="1375.25,146.97,1367.0625,141.496,1370.323,146.1187,1365.7004,149.3792,1375.25,146.97" style="stroke:#181818;stroke-width:1;"/><text fill="#000000" font-family="sans-serif" font-size="12" lengthAdjust="spacing" textLength="121.3477" x="1201" y="114.1387">abrirRecompensas()</text></g><!--link DetalleRecompensaView to RecompensaAbierta--><g class="link" data-entity-1="ent0005" data-entity-2="ent0003" data-link-type="dependency" data-source-line="31" id="lnk19"><path d="M551.18,72.09 C577.71,85.35 611,102 611,102 C611,102 652.1117,125.8864 683.2217,143.9564" fill="none" id="DetalleRecompensaView-to-RecompensaAbierta" style="stroke:#181818;stroke-width:1;stroke-dasharray:7,7;"/><polygon fill="#181818" points="688.41,146.97,682.6366,138.9908,684.0864,144.4587,678.6185,145.9085,688.41,146.97" style="stroke:#181818;stroke-width:1;"/><text fill="#000000" font-family="sans-serif" font-size="12" lengthAdjust="spacing" textLength="62.4551" x="637" y="114.1387">&#171;finalizar&#187;</text></g><?plantuml-src ZPHDJy9048Rl-oicS853JIHgj34ajPI4Wny1uzLCwO0RbzrcTWr1utztHQLrMmWzRMVcVMQsxwJsLUeI6LUGu_nroUPD5wbHXc7z8Xq9kylR5opCMkebB53PUcP42tnJRcoq-v7cohFQ2sRodU1qK4iggSbjIeBIgCttYn1CSuTwgGYwwIYxISwXCytI-zk7x6wMp9wJcqasVKnc7K0BKvgRLKdQearoIUpG7jR_oGFrhrY8qi-EIu8EvYovAkZrjueW2Xy2_5Drx8p8eL9KbJn9Mc-bhHdeNWokil5LYAcgKl_Ps7WX1oDN2UZcvtbnSRaVCgNIMEaCRm98bO3kU92aPzb-I23T2JvRBOlzCYZC3QEJHaDMI8SSmCBWCHmbLr8tIOtm4QpalvbsImg3GhJi64GS3TiTZSCTwV7kE2dwGhJlGLHuO9kvCPZSaIPkwFw38Qx9HUkQ13qgxtSz7WnFYkEujSs9edh9dWkUd0mRViT0GQJNFoHlcEm1ZTX1HEXkmotRwn-wGUEF4SFrzS8FeEGxyd3u1G00?></g></svg>