<?plantuml 1.2026.2?><svg xmlns="http://www.w3.org/2000/svg" xmlns:xlink="http://www.w3.org/1999/xlink" contentStyleType="text/css" data-diagram-type="DESCRIPTION" height="313px" preserveAspectRatio="none" style="width:876px;height:313px;background:#FFFFFF;" version="1.1" viewBox="0 0 876 313" width="876px" zoomAndPan="magnify"><defs/><g><!--cluster eliminarRecompensa--><g class="cluster" data-qualified-name="eliminarRecompensa" data-source-line="10" id="ent0004"><path d="M8.5,6 L161.7617,6 A3.75,3.75 0 0 1 164.2617,8.5 L171.2617,25.9688 L471.5,25.9688 A2.5,2.5 0 0 1 474,28.4688 L474,303.5 A2.5,2.5 0 0 1 471.5,306 L8.5,306 A2.5,2.5 0 0 1 6,303.5 L6,8.5 A2.5,2.5 0 0 1 8.5,6" fill="none" style="stroke:#000000;stroke-width:1.5;"/><line style="stroke:#000000;stroke-width:1.5;" x1="6" x2="171.2617" y1="25.9688" y2="25.9688"/><text fill="#000000" font-family="sans-serif" font-size="12" font-weight="bold" lengthAdjust="spacing" textLength="152.2617" x="10" y="19.1387">eliminarRecompensa()</text></g><!--entity EliminarRecompensaView--><g class="entity" data-qualified-name="eliminarRecompensa.EliminarRecompensaView" data-source-line="11" id="ent0005"><rect fill="#629EF9" height="33.9688" rx="2.5" ry="2.5" style="stroke:#181818;stroke-width:0.5;" width="175.4668" x="282.5" y="38"/><text fill="#000000" font-family="sans-serif" font-size="12" lengthAdjust="spacing" textLength="155.4668" x="292.5" y="59.1387">EliminarRecompensaView</text></g><!--entity RecompensaController--><g class="entity" data-qualified-name="eliminarRecompensa.RecompensaController" data-source-line="12" id="ent0006"><rect fill="#B5BD68" height="33.9688" rx="2.5" ry="2.5" style="stroke:#181818;stroke-width:0.5;" width="156.8516" x="90.5" y="147"/><text fill="#000000" font-family="sans-serif" font-size="12" lengthAdjust="spacing" textLength="136.8516" x="100.5" y="168.1387">RecompensaController</text></g><!--entity RecompensaRepository--><g class="entity" data-qualified-name="eliminarRecompensa.RecompensaRepository" data-source-line="13" id="ent0007"><rect fill="#F2AC4E" height="33.9688" rx="2.5" ry="2.5" style="stroke:#181818;stroke-width:0.5;" width="161.9082" x="88" y="256"/><text fill="#000000" font-family="sans-serif" font-size="12" lengthAdjust="spacing" textLength="141.9082" x="98" y="277.1387">RecompensaRepository</text></g><!--entity RecompensaAbierta--><g class="entity" data-qualified-name="RecompensaAbierta" data-source-line="7" id="ent0002"><rect fill="#CDEBA5" height="33.9688" rx="2.5" ry="2.5" style="stroke:#181818;stroke-width:0.5;" width="161.1582" x="494.5" y="147"/><text fill="#000000" font-family="sans-serif" font-size="12" lengthAdjust="spacing" textLength="141.1582" x="504.5" y="168.1387">RECOMPENSA_ABIERTA</text></g><!--entity RecompensasAbiertas--><g class="entity" data-qualified-name="RecompensasAbiertas" data-source-line="8" id="ent0003"><rect fill="#CDEBA5" height="33.9688" rx="2.5" ry="2.5" style="stroke:#181818;stroke-width:0.5;" width="176.3926" x="694" y="147"/><text fill="#000000" font-family="sans-serif" font-size="12" lengthAdjust="spacing" textLength="156.3926" x="704" y="168.1387">RECOMPENSAS_ABIERTAS</text></g><!--link RecompensaAbierta to EliminarRecompensaView--><g class="link" data-entity-1="ent0002" data-entity-2="ent0005" data-link-type="dependency" data-source-line="16" id="lnk8"><path d="M544.52,146.97 C510.15,128.9 459,102 459,102 C459,102 432.1204,88.1045 406.4604,74.8445" fill="none" id="RecompensaAbierta-to-EliminarRecompensaView" style="stroke:#181818;stroke-width:1;"/><polygon fill="#181818" points="401.13,72.09,407.2892,79.7753,405.572,74.3854,410.9619,72.6682,401.13,72.09" style="stroke:#181818;stroke-width:1;"/><text fill="#000000" font-family="sans-serif" font-size="12" lengthAdjust="spacing" textLength="135.8906" x="489" y="114.1387">eliminarRecompensa()</text></g><!--link EliminarRecompensaView to RecompensaAbierta--><g class="link" data-entity-1="ent0005" data-entity-2="ent0002" data-link-type="dependency" data-source-line="24" id="lnk13"><path d="M457.58,71.32 C534.08,84.7 633,102 633,102 C633,102 633,117 633,117 C633,117 616.7111,129.9218 599.9911,143.1818" fill="none" id="EliminarRecompensaView-to-RecompensaAbierta" style="stroke:#181818;stroke-width:1;stroke-dasharray:7,7;"/><polygon fill="#181818" points="595.29,146.91,604.8271,144.4517,599.2076,143.8031,599.8561,138.1836,595.29,146.91" style="stroke:#181818;stroke-width:1;"/><text fill="#000000" font-family="sans-serif" font-size="12" lengthAdjust="spacing" textLength="65.8418" x="634" y="114.1387">&#171;cancelar&#187;</text></g><!--link EliminarRecompensaView to RecompensaController--><g class="link" data-entity-1="ent0005" data-entity-2="ent0006" data-link-type="dependency" data-source-line="18" id="lnk9"><path d="M282.4,68.75 C188.88,82.37 54,102 54,102 C54,102 54,117 54,117 C54,117 90.0489,131.4222 123.2089,144.6822" fill="none" id="EliminarRecompensaView-to-RecompensaController" style="stroke:#181818;stroke-width:1;"/><polygon fill="#181818" points="128.78,146.91,121.9085,139.8543,124.1374,145.0535,118.9382,147.2824,128.78,146.91" style="stroke:#181818;stroke-width:1;"/><text fill="#000000" font-family="sans-serif" font-size="12" lengthAdjust="spacing" textLength="136.2891" x="55" y="114.1387">solicitarConfirmacion()</text></g><!--link EliminarRecompensaView to RecompensaController--><g class="link" data-entity-1="ent0005" data-entity-2="ent0006" data-link-type="dependency" data-source-line="20" id="lnk10"><path d="M321.73,72.09 C281.94,85.35 232,102 232,102 C232,102 208.5314,124.7272 189.8614,142.7972" fill="none" id="EliminarRecompensaView-to-RecompensaController-1" style="stroke:#181818;stroke-width:1;"/><polygon fill="#181818" points="185.55,146.97,194.7989,143.585,189.1428,143.4927,189.2352,137.8366,185.55,146.97" style="stroke:#181818;stroke-width:1;"/><text fill="#000000" font-family="sans-serif" font-size="12" lengthAdjust="spacing" textLength="221.8008" x="233" y="114.1387">confirmarEliminacion(recompensaId)</text></g><!--link RecompensaController to RecompensaRepository--><g class="link" data-entity-1="ent0006" data-entity-2="ent0007" data-link-type="dependency" data-source-line="21" id="lnk11"><path d="M169,181.25 C169,201.48 169,229.81 169,249.95" fill="none" id="RecompensaController-to-RecompensaRepository" style="stroke:#181818;stroke-width:1;"/><polygon fill="#181818" points="169,255.95,173,246.95,169,250.95,165,246.95,169,255.95" style="stroke:#181818;stroke-width:1;"/><text fill="#000000" font-family="sans-serif" font-size="12" lengthAdjust="spacing" textLength="143.6426" x="170" y="223.1387">eliminar(recompensaId)</text></g><!--link EliminarRecompensaView to RecompensasAbiertas--><g class="link" data-entity-1="ent0005" data-entity-2="ent0003" data-link-type="dependency" data-source-line="23" id="lnk12"><path d="M457.92,67.97 C558.07,81.6 708,102 708,102 C708,102 735.9995,125.0845 757.9295,143.1545" fill="none" id="EliminarRecompensaView-to-RecompensasAbiertas" style="stroke:#181818;stroke-width:1;stroke-dasharray:7,7;"/><polygon fill="#181818" points="762.56,146.97,758.1579,138.1597,758.7012,143.7904,753.0705,144.3338,762.56,146.97" style="stroke:#181818;stroke-width:1;"/><text fill="#000000" font-family="sans-serif" font-size="12" lengthAdjust="spacing" textLength="62.4551" x="727" y="114.1387">&#171;finalizar&#187;</text></g><?plantuml-src dP9VQy8m5CNVyoakxSjyK9XCsKGAjLRmONzenrv7cjxMO9gK928wzjrNNMUbrZ7Mj_IStyczXvWrboNLj824idMkrKQcWH9AmtR5BH9pqisAfchBPGuP5UPScMD6Dy8kbBJVQ2Agh6v3pFS8jyCpKN29TbSYb4hi3WT2D39BPIuGt60UplmHE54OF3--X4-n_-xFbc7qwZj03KJ8L56YDDHFE6fBVsVZ7pXkqQR63I5bDJlD4HmKlE2IwiPrqpjYbm9y4AY-vcudlF2ySTmUyMu9tF7m8Lmyj8CQLr3LfvKGg5l3DmAuoIX9n_VNGo8ibU5MwLqhf170NGpzu2uaduHSz0jztVUkh321hie8kR9mFwsIkhQOW562CswfhdvcN1UKSIN_5yNg15sZnoHziYxJ7kbiiXNPrDDisOgvDjnWu7Mzj0bCfrbb5tnFjUVzZQxX0ykeP2WEw1S0?></g></svg>