<?plantuml 1.2026.2?><svg xmlns="http://www.w3.org/2000/svg" xmlns:xlink="http://www.w3.org/1999/xlink" contentStyleType="text/css" data-diagram-type="DESCRIPTION" height="313px" preserveAspectRatio="none" style="width:1591px;height:313px;background:#FFFFFF;" version="1.1" viewBox="0 0 1591 313" width="1591px" zoomAndPan="magnify"><defs/><g><!--cluster abrirOpcionesCargaTrabajo--><g class="cluster" data-qualified-name="abrirOpcionesCargaTrabajo" data-source-line="10" id="ent0004"><path d="M211.5,6 L408.9473,6 A3.75,3.75 0 0 1 411.4473,8.5 L418.4473,25.9688 L795.5,25.9688 A2.5,2.5 0 0 1 798,28.4688 L798,303.5 A2.5,2.5 0 0 1 795.5,306 L211.5,306 A2.5,2.5 0 0 1 209,303.5 L209,8.5 A2.5,2.5 0 0 1 211.5,6" fill="none" style="stroke:#000000;stroke-width:1.5;"/><line style="stroke:#000000;stroke-width:1.5;" x1="209" x2="418.4473" y1="25.9688" y2="25.9688"/><text fill="#000000" font-family="sans-serif" font-size="12" font-weight="bold" lengthAdjust="spacing" textLength="196.4473" x="213" y="19.1387">abrirOpcionesCargaTrabajo()</text></g><!--entity OpcionesCargaTrabajoView--><g class="entity" data-qualified-name="abrirOpcionesCargaTrabajo.OpcionesCargaTrabajoView" data-source-line="11" id="ent0005"><rect fill="#629EF9" height="33.9688" rx="2.5" ry="2.5" style="stroke:#181818;stroke-width:0.5;" width="185.2168" x="597.5" y="38"/><text fill="#000000" font-family="sans-serif" font-size="12" lengthAdjust="spacing" textLength="165.2168" x="607.5" y="59.1387">OpcionesCargaTrabajoView</text></g><!--entity CargaTrabajoController--><g class="entity" data-qualified-name="abrirOpcionesCargaTrabajo.CargaTrabajoController" data-source-line="12" id="ent0006"><rect fill="#B5BD68" height="33.9688" rx="2.5" ry="2.5" style="stroke:#181818;stroke-width:0.5;" width="160.1914" x="531" y="147"/><text fill="#000000" font-family="sans-serif" font-size="12" lengthAdjust="spacing" textLength="140.1914" x="541" y="168.1387">CargaTrabajoController</text></g><!--entity InvestigadorRepository--><g class="entity" data-qualified-name="abrirOpcionesCargaTrabajo.InvestigadorRepository" data-source-line="13" id="ent0007"><rect fill="#F2AC4E" height="33.9688" rx="2.5" ry="2.5" style="stroke:#181818;stroke-width:0.5;" width="159.1309" x="224.5" y="256"/><text fill="#000000" font-family="sans-serif" font-size="12" lengthAdjust="spacing" textLength="139.1309" x="234.5" y="277.1387">InvestigadorRepository</text></g><!--entity Sesion--><g class="entity" data-qualified-name="abrirOpcionesCargaTrabajo.Sesion" data-source-line="14" id="ent0008"><rect fill="#F2AC4E" height="33.9688" rx="2.5" ry="2.5" style="stroke:#181818;stroke-width:0.5;" width="59.5332" x="581" y="256"/><text fill="#000000" font-family="sans-serif" font-size="12" lengthAdjust="spacing" textLength="39.5332" x="591" y="277.1387">Sesion</text></g><!--entity PanelPrincipalAbierto--><g class="entity" data-qualified-name="PanelPrincipalAbierto" data-source-line="7" id="ent0002"><rect fill="#CDEBA5" height="33.9688" rx="2.5" ry="2.5" style="stroke:#181818;stroke-width:0.5;" width="185.5039" x="7" y="38"/><text fill="#000000" font-family="sans-serif" font-size="12" lengthAdjust="spacing" textLength="165.5039" x="17" y="59.1387">PANEL_PRINCIPAL_ABIERTO</text></g><!--entity OpcionesCargaTrabajoAbiertas--><g class="entity" data-qualified-name="OpcionesCargaTrabajoAbiertas" data-source-line="8" id="ent0003"><rect fill="#CDEBA5" height="33.9688" rx="2.5" ry="2.5" style="stroke:#181818;stroke-width:0.5;" width="255.0137" x="814.5" y="147"/><text fill="#000000" font-family="sans-serif" font-size="12" lengthAdjust="spacing" textLength="235.0137" x="824.5" y="168.1387">OPCIONES_CARGA_TRABAJO_ABIERTAS</text></g><!--entity EditarCargaTrabajo--><g class="entity" data-qualified-name="EditarCargaTrabajo" data-source-line="17" id="ent0009"><rect fill="#CDEBA5" height="33.9688" rx="2.5" ry="2.5" style="stroke:#181818;stroke-width:0.5;" width="224.2578" x="1105" y="147"/><text fill="#000000" font-family="sans-serif" font-size="12" lengthAdjust="spacing" textLength="204.2578" x="1115" y="168.1387">:Collaboration EditarCargaTrabajo</text></g><!--entity AbrirPanelPrincipal--><g class="entity" data-qualified-name="AbrirPanelPrincipal" data-source-line="18" id="ent0010"><rect fill="#CDEBA5" height="33.9688" rx="2.5" ry="2.5" style="stroke:#181818;stroke-width:0.5;" width="221.1172" x="1364.5" y="147"/><text fill="#000000" font-family="sans-serif" font-size="12" lengthAdjust="spacing" textLength="201.1172" x="1374.5" y="168.1387">:Collaboration AbrirPanelPrincipal</text></g><!--link PanelPrincipalAbierto to OpcionesCargaTrabajoView--><g class="link" data-entity-1="ent0002" data-entity-2="ent0005" data-link-type="dependency" data-source-line="20" id="lnk11"><path d="M193.16,55 C303.73,55 480.97,55 591.33,55" fill="none" id="PanelPrincipalAbierto-to-OpcionesCargaTrabajoView" style="stroke:#181818;stroke-width:1;"/><polygon fill="#181818" points="597.33,55,588.33,51,592.33,55,588.33,59,597.33,55" style="stroke:#181818;stroke-width:1;"/><text fill="#000000" font-family="sans-serif" font-size="12" lengthAdjust="spacing" textLength="174.0117" x="308.25" y="49.1387">abrirOpcionesCargaTrabajo()</text></g><!--link OpcionesCargaTrabajoView to CargaTrabajoController--><g class="link" data-entity-1="ent0005" data-entity-2="ent0006" data-link-type="dependency" data-source-line="22" id="lnk12"><path d="M678,72.25 C663.07,92.48 641.2839,121.9831 626.4139,142.1231" fill="none" id="OpcionesCargaTrabajoView-to-CargaTrabajoController" style="stroke:#181818;stroke-width:1;"/><polygon fill="#181818" points="622.85,146.95,631.4137,142.0856,625.8199,142.9276,624.9778,137.3337,622.85,146.95" style="stroke:#181818;stroke-width:1;"/><text fill="#000000" font-family="sans-serif" font-size="12" lengthAdjust="spacing" textLength="129.0527" x="656" y="114.1387">cargarCargaTrabajo()</text></g><!--link CargaTrabajoController to Sesion--><g class="link" data-entity-1="ent0006" data-entity-2="ent0008" data-link-type="dependency" data-source-line="24" id="lnk13"><path d="M611,181.25 C611,201.48 611,229.81 611,249.95" fill="none" id="CargaTrabajoController-to-Sesion" style="stroke:#181818;stroke-width:1;"/><polygon fill="#181818" points="611,255.95,615,246.95,611,250.95,607,246.95,611,255.95" style="stroke:#181818;stroke-width:1;"/><text fill="#000000" font-family="sans-serif" font-size="12" lengthAdjust="spacing" textLength="169.752" x="612" y="223.1387">getUsuarioActual() : Usuario</text></g><!--link CargaTrabajoController to InvestigadorRepository--><g class="link" data-entity-1="ent0006" data-entity-2="ent0007" data-link-type="dependency" data-source-line="25" id="lnk14"><path d="M530.91,176.55 C436.42,190.17 292,211 292,211 C292,211 292,226 292,226 C292,226 294.8251,236.8444 298.2851,250.1044" fill="none" id="CargaTrabajoController-to-InvestigadorRepository" style="stroke:#181818;stroke-width:1;"/><polygon fill="#181818" points="299.8,255.91,301.3981,246.1917,298.5376,251.072,293.6573,248.2115,299.8,255.91" style="stroke:#181818;stroke-width:1;"/><text fill="#000000" font-family="sans-serif" font-size="12" lengthAdjust="spacing" textLength="309.4219" x="293" y="223.1387">obtenerCargaTrabajo(investigadorId) : Investigador</text></g><!--link OpcionesCargaTrabajoView to EditarCargaTrabajo--><g class="link" data-entity-1="ent0005" data-entity-2="ent0009" data-link-type="dependency" data-source-line="27" id="lnk15"><path d="M768.9,72.02 C868.39,92.22 1032.57,125.5562 1132.11,145.7662" fill="none" id="OpcionesCargaTrabajoView-to-EditarCargaTrabajo" style="stroke:#181818;stroke-width:1;stroke-dasharray:7,7;"/><polygon fill="#181818" points="1137.99,146.96,1129.9659,141.2492,1133.09,145.9651,1128.3741,149.0893,1137.99,146.96" style="stroke:#181818;stroke-width:1;"/><text fill="#000000" font-family="sans-serif" font-size="12" lengthAdjust="spacing" textLength="125.5898" x="986" y="114.1387">editarCargaTrabajo()</text></g><!--link OpcionesCargaTrabajoView to AbrirPanelPrincipal--><g class="link" data-entity-1="ent0005" data-entity-2="ent0010" data-link-type="dependency" data-source-line="28" id="lnk16"><path d="M782.51,65.9 C908.89,79.42 1120,102 1120,102 C1120,102 1270.6366,127.8841 1375.8166,145.9541" fill="none" id="OpcionesCargaTrabajoView-to-AbrirPanelPrincipal" style="stroke:#181818;stroke-width:1;stroke-dasharray:7,7;"/><polygon fill="#181818" points="1381.73,146.97,1373.5372,141.5039,1376.8022,146.1234,1372.1827,149.3884,1381.73,146.97" style="stroke:#181818;stroke-width:1;"/><text fill="#000000" font-family="sans-serif" font-size="12" lengthAdjust="spacing" textLength="121.793" x="1206" y="114.1387">abrirPanelPrincipal()</text></g><!--link OpcionesCargaTrabajoView to OpcionesCargaTrabajoAbiertas--><g class="link" data-entity-1="ent0005" data-entity-2="ent0003" data-link-type="dependency" data-source-line="30" id="lnk17"><path d="M727.73,72.02 C775.23,92.19 850.8671,124.3054 898.4971,144.5254" fill="none" id="OpcionesCargaTrabajoView-to-OpcionesCargaTrabajoAbiertas" style="stroke:#181818;stroke-width:1;stroke-dasharray:7,7;"/><polygon fill="#181818" points="904.02,146.87,897.2987,139.6711,899.4176,144.9162,894.1725,147.035,904.02,146.87" style="stroke:#181818;stroke-width:1;"/><text fill="#000000" font-family="sans-serif" font-size="12" lengthAdjust="spacing" textLength="62.4551" x="832" y="114.1387">&#171;finalizar&#187;</text></g><?plantuml-src ZPD1Rvj048Nl_8gHVKaEZbIhYHeKMLeJN5551c6tLsk0DTbckujcrxMSglyzWAqKEmig9vZtzcE6DvWNeIea_0KPvYybwPqg0YqrmVvPMEwPTzqyOw7tGfMmHMcwoYFVuaxQXLRsU3IJDSjjM8bN3f-c7L4AnUsXub1fUMWUF8zuRb6LaiCuU0pdx1P62Lk6JviaZPP1bB2d3Pj7ORgEHu064bHS9YHKBYgKB1ESh7P1uYI8ucMusWGi_SeswvJDsRVun6Ah5XPNkT2Acm2fn3LXXZ_r4Od6ywfwC2mvZ30ZGIxlrNMBwTNXZmVrzQ-xaSlrG_1zRpkD2EExwNsukB-4TNr1_Rr9IycfHRab66UtMN7tvH8KgT_SM57MeLFAAss4rNHeGMu9neif2pw7bw0LD_K4xS7ZxRlnhpDflzuXYPacj8qvB8H5wlRUeZwM_uF5cb3EjwM5EUgUvzmgcD1arXkA3mDhuNczMKwA6kgEnuUygTCbgoVCbdJyp3wKt7utEoIXMMvtAA-kmOTJPH3W3jW7dLck-7alekEDYkODtTC3Gz_Sp1mf-i0_rEfv1ocE-4v9d1S7CsX0G_--3myFMw5GYbUasUmD?></g></svg>