<?xml version="1.0" encoding="us-ascii" standalone="no"?><svg xmlns="http://www.w3.org/2000/svg" xmlns:xlink="http://www.w3.org/1999/xlink" contentStyleType="text/css" height="450px" preserveAspectRatio="none" style="width:587px;height:450px;background:#FFFFFF;" version="1.1" viewBox="0 0 587 450" width="587px" zoomAndPan="magnify"><defs/><g><line style="stroke:#AAAAAA;stroke-width:1.0;" x1="6" x2="580" y1="8.5" y2="8.5"/><line style="stroke:#AAAAAA;stroke-width:1.0;" x1="6" x2="580" y1="10.5" y2="10.5"/><text fill="#000000" font-family="sans-serif" font-size="12" font-weight="bold" lengthAdjust="spacing" textLength="118" x="6" y="26.457">GIPF - ENTREGABLES</text><line style="stroke:#AAAAAA;stroke-width:1.0;" x1="6" x2="580" y1="33.5938" y2="33.5938"/><line style="stroke:#AAAAAA;stroke-width:1.0;" x1="6" x2="580" y1="35.5938" y2="35.5938"/><rect fill="#EEEEEE" height="19.0938" rx="5" ry="5" style="stroke:#000000;stroke-width:2.5;" width="148" x="9.5" y="42.5938"/><text fill="#000000" font-family="sans-serif" font-size="12" lengthAdjust="spacing" textLength="95" x="36" y="57.0508">Volver al proyecto</text><line style="stroke:#AAAAAA;stroke-width:1.0;" x1="6" x2="580" y1="70.6875" y2="70.6875"/><text fill="#000000" font-family="sans-serif" font-size="12" font-weight="bold" lengthAdjust="spacing" textLength="153" x="6" y="87.6445">Filtrar / buscar entregables</text><text fill="#000000" font-family="sans-serif" font-size="12" font-weight="bold" lengthAdjust="spacing" textLength="14" x="9" y="107.7383">ID:</text><rect fill="#EEEEEE" height="19.0938" rx="5" ry="5" style="stroke:#000000;stroke-width:2.5;" width="100" x="27.5" y="97.7813"/><text fill="#000000" font-family="sans-serif" font-size="12" lengthAdjust="spacing" textLength="3" x="76" y="112.2383">&#160;</text><text fill="#000000" font-family="sans-serif" font-size="12" font-weight="bold" lengthAdjust="spacing" textLength="34" x="9" y="135.832">T&#237;tulo:</text><rect fill="#EEEEEE" height="19.0938" rx="5" ry="5" style="stroke:#000000;stroke-width:2.5;" width="244" x="47.5" y="125.875"/><text fill="#000000" font-family="sans-serif" font-size="12" lengthAdjust="spacing" textLength="3" x="168" y="140.332">&#160;</text><text fill="#000000" font-family="sans-serif" font-size="12" font-weight="bold" lengthAdjust="spacing" textLength="27" x="9" y="163.9258">Tipo:</text><text fill="#000000" font-family="sans-serif" font-size="12" lengthAdjust="spacing" textLength="35" x="42" y="164.9258">Todos</text><line style="stroke:#000000;stroke-width:1.0;" x1="40" x2="83" y1="167.5625" y2="167.5625"/><line style="stroke:#000000;stroke-width:1.0;" x1="40" x2="40" y1="164.5625" y2="166.5625"/><line style="stroke:#000000;stroke-width:1.0;" x1="83" x2="83" y1="164.5625" y2="166.5625"/><text fill="#000000" font-family="sans-serif" font-size="12" lengthAdjust="spacing" textLength="42" x="90" y="164.9258">Informe</text><line style="stroke:#000000;stroke-width:1.0;" x1="88" x2="147" y1="167.5625" y2="167.5625"/><line style="stroke:#000000;stroke-width:1.0;" x1="88" x2="88" y1="164.5625" y2="166.5625"/><line style="stroke:#000000;stroke-width:1.0;" x1="147" x2="147" y1="164.5625" y2="166.5625"/><text fill="#000000" font-family="sans-serif" font-size="12" lengthAdjust="spacing" textLength="43" x="154" y="164.9258">Dataset</text><line style="stroke:#000000;stroke-width:1.0;" x1="152" x2="211" y1="167.5625" y2="167.5625"/><line style="stroke:#000000;stroke-width:1.0;" x1="152" x2="152" y1="164.5625" y2="166.5625"/><line style="stroke:#000000;stroke-width:1.0;" x1="211" x2="211" y1="164.5625" y2="166.5625"/><text fill="#000000" font-family="sans-serif" font-size="12" lengthAdjust="spacing" textLength="73" x="218" y="164.9258">Presentaci&#243;n</text><line style="stroke:#000000;stroke-width:1.0;" x1="216" x2="315" y1="167.5625" y2="167.5625"/><line style="stroke:#000000;stroke-width:1.0;" x1="216" x2="216" y1="164.5625" y2="166.5625"/><line style="stroke:#000000;stroke-width:1.0;" x1="315" x2="315" y1="164.5625" y2="166.5625"/><text fill="#000000" font-family="sans-serif" font-size="12" lengthAdjust="spacing" textLength="23" x="322" y="164.9258">Otro</text><line style="stroke:#000000;stroke-width:1.0;" x1="320" x2="355" y1="167.5625" y2="167.5625"/><line style="stroke:#000000;stroke-width:1.0;" x1="320" x2="320" y1="164.5625" y2="166.5625"/><line style="stroke:#000000;stroke-width:1.0;" x1="355" x2="355" y1="164.5625" y2="166.5625"/><text fill="#000000" font-family="sans-serif" font-size="12" font-weight="bold" lengthAdjust="spacing" textLength="42" x="9" y="187.0195">Estado:</text><text fill="#000000" font-family="sans-serif" font-size="12" lengthAdjust="spacing" textLength="35" x="57" y="188.0195">Todos</text><line style="stroke:#000000;stroke-width:1.0;" x1="55" x2="98" y1="190.6563" y2="190.6563"/><line style="stroke:#000000;stroke-width:1.0;" x1="55" x2="55" y1="187.6563" y2="189.6563"/><line style="stroke:#000000;stroke-width:1.0;" x1="98" x2="98" y1="187.6563" y2="189.6563"/><text fill="#000000" font-family="sans-serif" font-size="12" lengthAdjust="spacing" textLength="56" x="105" y="188.0195">Pendiente</text><line style="stroke:#000000;stroke-width:1.0;" x1="103" x2="178" y1="190.6563" y2="190.6563"/><line style="stroke:#000000;stroke-width:1.0;" x1="103" x2="103" y1="187.6563" y2="189.6563"/><line style="stroke:#000000;stroke-width:1.0;" x1="178" x2="178" y1="187.6563" y2="189.6563"/><text fill="#000000" font-family="sans-serif" font-size="12" lengthAdjust="spacing" textLength="49" x="185" y="188.0195">En curso</text><line style="stroke:#000000;stroke-width:1.0;" x1="183" x2="250" y1="190.6563" y2="190.6563"/><line style="stroke:#000000;stroke-width:1.0;" x1="183" x2="183" y1="187.6563" y2="189.6563"/><line style="stroke:#000000;stroke-width:1.0;" x1="250" x2="250" y1="187.6563" y2="189.6563"/><text fill="#000000" font-family="sans-serif" font-size="12" lengthAdjust="spacing" textLength="57" x="257" y="188.0195">Entregado</text><line style="stroke:#000000;stroke-width:1.0;" x1="255" x2="330" y1="190.6563" y2="190.6563"/><line style="stroke:#000000;stroke-width:1.0;" x1="255" x2="255" y1="187.6563" y2="189.6563"/><line style="stroke:#000000;stroke-width:1.0;" x1="330" x2="330" y1="187.6563" y2="189.6563"/><text fill="#000000" font-family="sans-serif" font-size="12" font-weight="bold" lengthAdjust="spacing" textLength="117" x="9" y="210.1133">Fecha l&#237;mite (desde):</text><rect fill="#EEEEEE" height="19.0938" rx="5" ry="5" style="stroke:#000000;stroke-width:2.5;" width="100" x="130.5" y="200.1563"/><text fill="#000000" font-family="sans-serif" font-size="12" lengthAdjust="spacing" textLength="3" x="179" y="214.6133">&#160;</text><text fill="#000000" font-family="sans-serif" font-size="12" font-weight="bold" lengthAdjust="spacing" textLength="114" x="9" y="238.207">Fecha l&#237;mite (hasta):</text><rect fill="#EEEEEE" height="19.0938" rx="5" ry="5" style="stroke:#000000;stroke-width:2.5;" width="100" x="127.5" y="228.25"/><text fill="#000000" font-family="sans-serif" font-size="12" lengthAdjust="spacing" textLength="3" x="176" y="242.707">&#160;</text><rect fill="#EEEEEE" height="19.0938" rx="5" ry="5" style="stroke:#000000;stroke-width:2.5;" width="60" x="10.5" y="257.3438"/><text fill="#000000" font-family="sans-serif" font-size="12" lengthAdjust="spacing" textLength="42" x="19.5" y="271.8008">Limpiar</text><rect fill="#EEEEEE" height="19.0938" rx="5" ry="5" style="stroke:#000000;stroke-width:2.5;" width="52" x="77.5" y="257.3438"/><text fill="#000000" font-family="sans-serif" font-size="12" lengthAdjust="spacing" textLength="39" x="84" y="271.8008">Buscar</text><line style="stroke:#AAAAAA;stroke-width:1.0;" x1="6" x2="580" y1="286.4375" y2="286.4375"/><text fill="#000000" font-family="sans-serif" font-size="12" font-weight="bold" lengthAdjust="spacing" textLength="42" x="6" y="303.3945">Listado</text><text fill="#000000" font-family="sans-serif" font-size="12" font-weight="bold" lengthAdjust="spacing" textLength="11" x="8" y="322.4883">ID</text><text fill="#000000" font-family="sans-serif" font-size="12" font-weight="bold" lengthAdjust="spacing" textLength="31" x="21" y="322.4883">T&#237;tulo</text><text fill="#000000" font-family="sans-serif" font-size="12" font-weight="bold" lengthAdjust="spacing" textLength="24" x="54" y="322.4883">Tipo</text><text fill="#000000" font-family="sans-serif" font-size="12" font-weight="bold" lengthAdjust="spacing" textLength="68" x="80" y="322.4883">Fecha l&#237;mite</text><text fill="#000000" font-family="sans-serif" font-size="12" font-weight="bold" lengthAdjust="spacing" textLength="39" x="150" y="322.4883">Estado</text><text fill="#000000" font-family="sans-serif" font-size="12" font-weight="bold" lengthAdjust="spacing" textLength="39" x="191" y="322.4883">Acci&#243;n</text><text fill="#000000" font-family="sans-serif" font-size="12" lengthAdjust="spacing" textLength="49" x="11" y="341.582">ENT-045</text><line style="stroke:#000000;stroke-width:1.0;" x1="9" x2="68" y1="344.2188" y2="344.2188"/><line style="stroke:#000000;stroke-width:1.0;" x1="9" x2="9" y1="341.2188" y2="343.2188"/><line style="stroke:#000000;stroke-width:1.0;" x1="68" x2="68" y1="341.2188" y2="343.2188"/><text fill="#000000" font-family="sans-serif" font-size="12" lengthAdjust="spacing" textLength="150" x="75" y="341.582">Memoria t&#233;cnica - versi&#243;n 1</text><line style="stroke:#000000;stroke-width:1.0;" x1="73" x2="292" y1="344.2188" y2="344.2188"/><line style="stroke:#000000;stroke-width:1.0;" x1="73" x2="73" y1="341.2188" y2="343.2188"/><line style="stroke:#000000;stroke-width:1.0;" x1="292" x2="292" y1="341.2188" y2="343.2188"/><text fill="#000000" font-family="sans-serif" font-size="12" lengthAdjust="spacing" textLength="42" x="299" y="341.582">Informe</text><line style="stroke:#000000;stroke-width:1.0;" x1="297" x2="356" y1="344.2188" y2="344.2188"/><line style="stroke:#000000;stroke-width:1.0;" x1="297" x2="297" y1="341.2188" y2="343.2188"/><line style="stroke:#000000;stroke-width:1.0;" x1="356" x2="356" y1="341.2188" y2="343.2188"/><text fill="#000000" font-family="sans-serif" font-size="12" lengthAdjust="spacing" textLength="62" x="363" y="341.582">30/06/2025</text><line style="stroke:#000000;stroke-width:1.0;" x1="361" x2="444" y1="344.2188" y2="344.2188"/><line style="stroke:#000000;stroke-width:1.0;" x1="361" x2="361" y1="341.2188" y2="343.2188"/><line style="stroke:#000000;stroke-width:1.0;" x1="444" x2="444" y1="341.2188" y2="343.2188"/><text fill="#000000" font-family="sans-serif" font-size="12" lengthAdjust="spacing" textLength="56" x="451" y="341.582">Pendiente</text><line style="stroke:#000000;stroke-width:1.0;" x1="449" x2="524" y1="344.2188" y2="344.2188"/><line style="stroke:#000000;stroke-width:1.0;" x1="449" x2="449" y1="341.2188" y2="343.2188"/><line style="stroke:#000000;stroke-width:1.0;" x1="524" x2="524" y1="341.2188" y2="343.2188"/><rect fill="#EEEEEE" height="19.0938" rx="5" ry="5" style="stroke:#000000;stroke-width:2.5;" width="44" x="530.5" y="331.625"/><text fill="#000000" font-family="sans-serif" font-size="12" lengthAdjust="spacing" textLength="25" x="540" y="346.082">Abrir</text><text fill="#000000" font-family="sans-serif" font-size="12" lengthAdjust="spacing" textLength="49" x="11" y="369.6758">ENT-052</text><line style="stroke:#000000;stroke-width:1.0;" x1="9" x2="68" y1="372.3125" y2="372.3125"/><line style="stroke:#000000;stroke-width:1.0;" x1="9" x2="9" y1="369.3125" y2="371.3125"/><line style="stroke:#000000;stroke-width:1.0;" x1="68" x2="68" y1="369.3125" y2="371.3125"/><text fill="#000000" font-family="sans-serif" font-size="12" lengthAdjust="spacing" textLength="159" x="75" y="369.6758">Dataset resultados encuesta</text><line style="stroke:#000000;stroke-width:1.0;" x1="73" x2="292" y1="372.3125" y2="372.3125"/><line style="stroke:#000000;stroke-width:1.0;" x1="73" x2="73" y1="369.3125" y2="371.3125"/><line style="stroke:#000000;stroke-width:1.0;" x1="292" x2="292" y1="369.3125" y2="371.3125"/><text fill="#000000" font-family="sans-serif" font-size="12" lengthAdjust="spacing" textLength="43" x="299" y="369.6758">Dataset</text><line style="stroke:#000000;stroke-width:1.0;" x1="297" x2="356" y1="372.3125" y2="372.3125"/><line style="stroke:#000000;stroke-width:1.0;" x1="297" x2="297" y1="369.3125" y2="371.3125"/><line style="stroke:#000000;stroke-width:1.0;" x1="356" x2="356" y1="369.3125" y2="371.3125"/><text fill="#000000" font-family="sans-serif" font-size="12" lengthAdjust="spacing" textLength="62" x="363" y="369.6758">15/07/2025</text><line style="stroke:#000000;stroke-width:1.0;" x1="361" x2="444" y1="372.3125" y2="372.3125"/><line style="stroke:#000000;stroke-width:1.0;" x1="361" x2="361" y1="369.3125" y2="371.3125"/><line style="stroke:#000000;stroke-width:1.0;" x1="444" x2="444" y1="369.3125" y2="371.3125"/><text fill="#000000" font-family="sans-serif" font-size="12" lengthAdjust="spacing" textLength="49" x="451" y="369.6758">En curso</text><line style="stroke:#000000;stroke-width:1.0;" x1="449" x2="516" y1="372.3125" y2="372.3125"/><line style="stroke:#000000;stroke-width:1.0;" x1="449" x2="449" y1="369.3125" y2="371.3125"/><line style="stroke:#000000;stroke-width:1.0;" x1="516" x2="516" y1="369.3125" y2="371.3125"/><rect fill="#EEEEEE" height="19.0938" rx="5" ry="5" style="stroke:#000000;stroke-width:2.5;" width="44" x="522.5" y="359.7188"/><text fill="#000000" font-family="sans-serif" font-size="12" lengthAdjust="spacing" textLength="25" x="532" y="374.1758">Abrir</text><text fill="#000000" font-family="sans-serif" font-size="12" lengthAdjust="spacing" textLength="49" x="11" y="397.7695">ENT-060</text><line style="stroke:#000000;stroke-width:1.0;" x1="9" x2="68" y1="400.4063" y2="400.4063"/><line style="stroke:#000000;stroke-width:1.0;" x1="9" x2="9" y1="397.4063" y2="399.4063"/><line style="stroke:#000000;stroke-width:1.0;" x1="68" x2="68" y1="397.4063" y2="399.4063"/><text fill="#000000" font-family="sans-serif" font-size="12" lengthAdjust="spacing" textLength="132" x="75" y="397.7695">Presentaci&#243;n de avance</text><line style="stroke:#000000;stroke-width:1.0;" x1="73" x2="252" y1="400.4063" y2="400.4063"/><line style="stroke:#000000;stroke-width:1.0;" x1="73" x2="73" y1="397.4063" y2="399.4063"/><line style="stroke:#000000;stroke-width:1.0;" x1="252" x2="252" y1="397.4063" y2="399.4063"/><text fill="#000000" font-family="sans-serif" font-size="12" lengthAdjust="spacing" textLength="73" x="259" y="397.7695">Presentaci&#243;n</text><line style="stroke:#000000;stroke-width:1.0;" x1="257" x2="356" y1="400.4063" y2="400.4063"/><line style="stroke:#000000;stroke-width:1.0;" x1="257" x2="257" y1="397.4063" y2="399.4063"/><line style="stroke:#000000;stroke-width:1.0;" x1="356" x2="356" y1="397.4063" y2="399.4063"/><text fill="#000000" font-family="sans-serif" font-size="12" lengthAdjust="spacing" textLength="62" x="363" y="397.7695">01/08/2025</text><line style="stroke:#000000;stroke-width:1.0;" x1="361" x2="444" y1="400.4063" y2="400.4063"/><line style="stroke:#000000;stroke-width:1.0;" x1="361" x2="361" y1="397.4063" y2="399.4063"/><line style="stroke:#000000;stroke-width:1.0;" x1="444" x2="444" y1="397.4063" y2="399.4063"/><text fill="#000000" font-family="sans-serif" font-size="12" lengthAdjust="spacing" textLength="57" x="451" y="397.7695">Entregado</text><line style="stroke:#000000;stroke-width:1.0;" x1="449" x2="524" y1="400.4063" y2="400.4063"/><line style="stroke:#000000;stroke-width:1.0;" x1="449" x2="449" y1="397.4063" y2="399.4063"/><line style="stroke:#000000;stroke-width:1.0;" x1="524" x2="524" y1="397.4063" y2="399.4063"/><rect fill="#EEEEEE" height="19.0938" rx="5" ry="5" style="stroke:#000000;stroke-width:2.5;" width="44" x="530.5" y="387.8125"/><text fill="#000000" font-family="sans-serif" font-size="12" lengthAdjust="spacing" textLength="25" x="540" y="402.2695">Abrir</text><line style="stroke:#AAAAAA;stroke-width:1.0;" x1="6" x2="580" y1="416.9063" y2="416.9063"/><rect fill="#EEEEEE" height="19.0938" rx="5" ry="5" style="stroke:#000000;stroke-width:2.5;" width="132" x="9.5" y="424.9063"/><text fill="#000000" font-family="sans-serif" font-size="12" lengthAdjust="spacing" textLength="93" x="29" y="439.3633">Crear entregable</text><!--SRC=[ZLJ1Rk8m4BtxAqQSsaDAeD2jKBTg2m7HXIrgAHV4mKccO2cnaUsmgbW-Q0yzxIVmOpinjA70hjQ7Q3oUUJEUzvmROxcsXYSMUAY53gJLEELXWiRx8JI-Q9uYMxAljDXLUDtf3jhWGV1z-1XqRkzwmTDLERpU7BCbZ4SgMQ06di1SgrUCh9h0YZ7FOtbsMoHMSmrb23CJaO55EOUpP41hytKMK5QtrSWFuIUCOMVbm9_YXkitcoNgQF3XEamNyu_S9PI6AbQcH7QfAr-KJj7PBMwvGUliWKP35-2HMF-MplDWjIh1QXyve277nx47A6D181lqG4AKQQEs6pUR-1XY6wCPXsJzbWgBS1AZYV7q_wQqbphZrDo_KpTV8hSdqhdWUf87tZa2yv22tfvm5tLC5ZnkETnMA7ZQST3aYzsd1Wjty86zsTz6RkxEyTvXYNJf-RMwcryVKwK51xl-5KaHSP8jITFaIL0v8FRSB_iNvQfVhH_oChxDdyPahqozkgi8835aITwY8LL76LAx1ugfrCl-bwB8Bjt7QrpuXqg3684lk8pmBohqAsN_ShVAXuvsosnf8rgR6ZyzHVTYL-o6Hf3_61WR95pQvtvlCpz5upiZzDhP-Sbmba4RGwZKeUetQdx3hqCp649-VCfEEeFUeWf6PJf2Y4aTMeIP9OHJTazNWCTCMf5Y0nxcAEzRtzuT4CY5q4gcr1Ix7_MBW8kQToSiFA7EVpEZFclX2wUvKqQaOY6d3NWUjhrBrkDocl4fOQDXJKMu-hK1mTCV]--></g></svg>