<?xml version="1.0" encoding="us-ascii" standalone="no"?><svg xmlns="http://www.w3.org/2000/svg" xmlns:xlink="http://www.w3.org/1999/xlink" contentStyleType="text/css" height="964px" preserveAspectRatio="none" style="width:872px;height:964px;background:#FFFFFF;" version="1.1" viewBox="0 0 872 964" width="872px" zoomAndPan="magnify"><defs/><g><g id="in1"><rect fill="#F1F1F1" height="50" rx="12.5" ry="12.5" style="stroke:#181818;stroke-width:0.5;" width="198" x="334" y="7"/><line style="stroke:#181818;stroke-width:0.5;" x1="334" x2="532" y1="34.6094" y2="34.6094"/><text fill="#000000" font-family="sans-serif" font-size="14" lengthAdjust="spacing" textLength="178" x="344" y="26.5332">MI_PUBLICACION_ABIERTA</text></g><path d="M19.5,118 L846.5,118 A12.5,12.5 0 0 1 859,130.5 L859,145.6094 L7,145.6094 L7,130.5 A12.5,12.5 0 0 1 19.5,118 " fill="#F1F1F1" style="stroke:#F1F1F1;stroke-width:1.0;"/><rect fill="none" height="693.6094" rx="12.5" ry="12.5" style="stroke:#181818;stroke-width:0.5;" width="852" x="7" y="118"/><line style="stroke:#181818;stroke-width:0.5;" x1="7" x2="859" y1="145.6094" y2="145.6094"/><text fill="#000000" font-family="sans-serif" font-size="14" lengthAdjust="spacing" textLength="118" x="374" y="137.5332">editarPublicacion()</text><g id="editarPublicacion.MostrandoPublicacion"><rect fill="#F1F1F1" height="50" rx="12.5" ry="12.5" style="stroke:#181818;stroke-width:0.5;" width="50" x="269" y="248.6094"/><line style="stroke:#181818;stroke-width:0.5;" x1="269" x2="319" y1="276.2188" y2="276.2188"/><text fill="#000000" font-family="sans-serif" font-size="14" lengthAdjust="spacing" textLength="4" x="292" y="268.1426">&#160;</text></g><g id="editarPublicacion.EditandoDatos"><rect fill="#F1F1F1" height="50" rx="12.5" ry="12.5" style="stroke:#181818;stroke-width:0.5;" width="50" x="269" y="517.6094"/><line style="stroke:#181818;stroke-width:0.5;" x1="269" x2="319" y1="545.2188" y2="545.2188"/><text fill="#000000" font-family="sans-serif" font-size="14" lengthAdjust="spacing" textLength="4" x="292" y="537.1426">&#160;</text></g><g id="editarPublicacion.ValidandoDatos"><rect fill="#F1F1F1" height="50" rx="12.5" ry="12.5" style="stroke:#181818;stroke-width:0.5;" width="50" x="250" y="656.6094"/><line style="stroke:#181818;stroke-width:0.5;" x1="250" x2="300" y1="684.2188" y2="684.2188"/><text fill="#000000" font-family="sans-serif" font-size="14" lengthAdjust="spacing" textLength="4" x="273" y="676.1426">&#160;</text></g><ellipse cx="294" cy="166.6094" fill="#222222" rx="10" ry="10" style="stroke:#222222;stroke-width:1.0;"/><ellipse cx="426" cy="790.6094" fill="none" rx="11" ry="11" style="stroke:#222222;stroke-width:1.0;"/><ellipse cx="426" cy="790.6094" fill="#222222" rx="6" ry="6" style="stroke:#222222;stroke-width:1.0;"/><!--link *start*editarPublicacion to MostrandoPublicacion--><g id="link_*start*editarPublicacion_MostrandoPublicacion"><path d="M294,176.9294 C294,192.7894 294,219.5194 294,242.2494 " fill="none" id="*start*editarPublicacion-to-MostrandoPublicacion" style="stroke:#008000;stroke-width:1.0;"/><polygon fill="#008000" points="294,248.2494,298,239.2494,294,243.2494,290,239.2494,294,248.2494" style="stroke:#008000;stroke-width:1.0;"/><path d="M299,199.6094 L299,225.6094 L612,225.6094 L612,209.6094 L602,199.6094 L299,199.6094 " fill="#FEFFDD" style="stroke:#181818;stroke-width:0.5;"/><path d="M602,199.6094 L602,209.6094 L612,209.6094 L602,199.6094 " fill="#FEFFDD" style="stroke:#181818;stroke-width:0.5;"/><text fill="#000000" font-family="sans-serif" font-size="13" font-weight="bold" lengthAdjust="spacing" textLength="78" x="305" y="218.1045">Investigador</text><text fill="#000000" font-family="sans-serif" font-size="13" lengthAdjust="spacing" textLength="210" x="387" y="218.1045">solicita editar una publicaci&#243;n propia</text></g><!--link MostrandoPublicacion to EditandoDatos--><g id="link_MostrandoPublicacion_EditandoDatos"><path d="M294,298.7794 C294,349.4794 294,460.4794 294,511.3094 " fill="none" id="MostrandoPublicacion-to-EditandoDatos" style="stroke:#008000;stroke-width:1.0;"/><polygon fill="#008000" points="294,517.3094,298,508.3094,294,512.3094,290,508.3094,294,517.3094" style="stroke:#008000;stroke-width:1.0;"/><path d="M299,321.6094 L299,494.6094 L701,494.6094 L701,331.6094 L691,321.6094 L299,321.6094 " fill="#FEFFDD" style="stroke:#181818;stroke-width:0.5;"/><path d="M691,321.6094 L691,331.6094 L701,331.6094 L691,321.6094 " fill="#FEFFDD" style="stroke:#181818;stroke-width:0.5;"/><text fill="#000000" font-family="sans-serif" font-size="13" font-weight="bold" lengthAdjust="spacing" textLength="51" x="305" y="340.1045">Sistema</text><text fill="#000000" font-family="sans-serif" font-size="13" lengthAdjust="spacing" textLength="326" x="360" y="340.1045">presenta el formulario de edici&#243;n con los datos actuales:</text><text fill="#000000" font-family="sans-serif" font-size="13" lengthAdjust="spacing" textLength="40" x="305" y="356.4561">&#8226; T&#237;tulo</text><text fill="#000000" font-family="sans-serif" font-size="13" lengthAdjust="spacing" textLength="50" x="305" y="372.8076">&#8226; Estado</text><text fill="#000000" font-family="sans-serif" font-size="13" lengthAdjust="spacing" textLength="68" x="305" y="389.1592">&#8226; Visibilidad</text><text fill="#000000" font-family="sans-serif" font-size="13" lengthAdjust="spacing" textLength="77" x="305" y="405.5107">&#8226; Descripci&#243;n</text><text fill="#000000" font-family="sans-serif" font-size="13" lengthAdjust="spacing" textLength="120" x="305" y="421.8623">&#8226; Adjuntos (opcional)</text><text fill="#000000" font-family="sans-serif" font-size="13" lengthAdjust="spacing" textLength="4" x="305" y="438.2139">&#160;</text><text fill="#000000" font-family="sans-serif" font-size="13" lengthAdjust="spacing" textLength="247" x="305" y="454.5654">y permite solicitar las siguientes acciones:</text><text fill="#000000" font-family="sans-serif" font-size="13" lengthAdjust="spacing" textLength="108" x="305" y="470.917">&#8226; Guardar cambios</text><text fill="#000000" font-family="sans-serif" font-size="13" lengthAdjust="spacing" textLength="60" x="305" y="487.2686">&#8226; Cancelar</text></g><!--link EditandoDatos to ValidandoDatos--><g id="link_EditandoDatos_ValidandoDatos"><path d="M268.53,547.4894 C200.2,557.8794 18,585.6094 18,585.6094 C18,585.6094 18,637.6094 18,637.6094 C18,637.6094 179.3023,664.5993 243.9723,675.4193 " fill="none" id="EditandoDatos-to-ValidandoDatos" style="stroke:#008000;stroke-width:1.0;"/><polygon fill="#008000" points="249.89,676.4094,241.6735,670.9791,244.9585,675.5843,240.3533,678.8694,249.89,676.4094" style="stroke:#008000;stroke-width:1.0;"/><path d="M23,598.6094 L23,624.6094 L267,624.6094 L267,608.6094 L257,598.6094 L23,598.6094 " fill="#FEFFDD" style="stroke:#181818;stroke-width:0.5;"/><path d="M257,598.6094 L257,608.6094 L267,608.6094 L257,598.6094 " fill="#FEFFDD" style="stroke:#181818;stroke-width:0.5;"/><text fill="#000000" font-family="sans-serif" font-size="13" font-weight="bold" lengthAdjust="spacing" textLength="78" x="29" y="617.1045">Investigador</text><text fill="#000000" font-family="sans-serif" font-size="13" lengthAdjust="spacing" textLength="141" x="111" y="617.1045">solicita guardar cambios</text></g><!--link ValidandoDatos to *end*editarPublicacion--><g id="link_ValidandoDatos_*end*editarPublicacion"><path d="M275.31,706.7394 C275.6,729.9694 276,761.6094 276,761.6094 C276,761.6094 374.9219,780.0783 409.3119,786.4983 " fill="none" id="ValidandoDatos-to-*end*editarPublicacion" style="stroke:#008000;stroke-width:1.0;"/><polygon fill="#008000" points="415.21,787.5994,407.0969,782.0157,410.2949,786.6818,405.6288,789.8798,415.21,787.5994" style="stroke:#008000;stroke-width:1.0;"/><path d="M281,730.6094 L281,756.6094 L559,756.6094 L559,740.6094 L549,730.6094 L281,730.6094 " fill="#FEFFDD" style="stroke:#181818;stroke-width:0.5;"/><path d="M549,730.6094 L549,740.6094 L559,740.6094 L549,730.6094 " fill="#FEFFDD" style="stroke:#181818;stroke-width:0.5;"/><text fill="#000000" font-family="sans-serif" font-size="13" font-weight="bold" lengthAdjust="spacing" textLength="51" x="287" y="749.1045">Sistema</text><text fill="#000000" font-family="sans-serif" font-size="13" lengthAdjust="spacing" textLength="202" x="342" y="749.1045">visualiza la publicaci&#243;n actualizada</text></g><!--link ValidandoDatos to EditandoDatos--><g id="link_ValidandoDatos_EditandoDatos"><path d="M278.38,656.2094 C281.85,631.2394 286.3762,598.6226 289.8262,573.7326 " fill="none" id="ValidandoDatos-to-EditandoDatos" style="stroke:#FF0000;stroke-width:1.0;"/><polygon fill="#FF0000" points="290.65,567.7894,285.4522,576.155,289.9635,572.742,293.3764,577.2533,290.65,567.7894" style="stroke:#FF0000;stroke-width:1.0;"/><path d="M293,590.6094 L293,632.6094 L552,632.6094 L552,600.6094 L542,590.6094 L293,590.6094 " fill="#FEFFDD" style="stroke:#181818;stroke-width:0.5;"/><path d="M542,590.6094 L542,600.6094 L552,600.6094 L542,590.6094 " fill="#FEFFDD" style="stroke:#181818;stroke-width:0.5;"/><text fill="#000000" font-family="sans-serif" font-size="13" font-weight="bold" lengthAdjust="spacing" textLength="51" x="299" y="609.1045">Sistema</text><text fill="#000000" font-family="sans-serif" font-size="13" lengthAdjust="spacing" textLength="183" x="354" y="609.1045">muestra errores de introducci&#243;n</text><text fill="#000000" font-family="sans-serif" font-size="13" font-weight="bold" lengthAdjust="spacing" textLength="51" x="299" y="625.4561">Sistema</text><text fill="#000000" font-family="sans-serif" font-size="13" lengthAdjust="spacing" textLength="178" x="354" y="625.4561">permite introducir correcciones</text></g><!--link EditandoDatos to *end*editarPublicacion--><g id="link_EditandoDatos_*end*editarPublicacion"><path d="M319.12,547.5594 C385.58,558.0194 561,585.6094 561,585.6094 C561,585.6094 564,725.6094 564,725.6094 C564,725.6094 564,761.6094 564,761.6094 C564,761.6094 475.2402,779.6163 442.7102,786.2163 " fill="none" id="EditandoDatos-to-*end*editarPublicacion" style="stroke:#FF0000;stroke-width:1.0;"/><polygon fill="#FF0000" points="436.83,787.4094,446.4456,789.54,441.7302,786.4152,444.8549,781.6997,436.83,787.4094" style="stroke:#FF0000;stroke-width:1.0;"/><path d="M568,660.6094 L568,702.6094 L850,702.6094 L850,670.6094 L840,660.6094 L568,660.6094 " fill="#FEFFDD" style="stroke:#181818;stroke-width:0.5;"/><path d="M840,660.6094 L840,670.6094 L850,670.6094 L840,660.6094 " fill="#FEFFDD" style="stroke:#181818;stroke-width:0.5;"/><text fill="#000000" font-family="sans-serif" font-size="13" font-weight="bold" lengthAdjust="spacing" textLength="78" x="574" y="679.1045">Investigador</text><text fill="#000000" font-family="sans-serif" font-size="13" lengthAdjust="spacing" textLength="94" x="656" y="679.1045">solicita cancelar</text><text fill="#000000" font-family="sans-serif" font-size="13" font-weight="bold" lengthAdjust="spacing" textLength="51" x="574" y="695.4561">Sistema</text><text fill="#000000" font-family="sans-serif" font-size="13" lengthAdjust="spacing" textLength="206" x="629" y="695.4561">visualiza la publicaci&#243;n sin cambios</text></g><g id="MI_PUBLICACION_ABIERTA"><rect fill="#F1F1F1" height="50" rx="12.5" ry="12.5" style="stroke:#181818;stroke-width:0.5;" width="198" x="126" y="908"/><line style="stroke:#181818;stroke-width:0.5;" x1="126" x2="324" y1="935.6094" y2="935.6094"/><text fill="#000000" font-family="sans-serif" font-size="14" lengthAdjust="spacing" textLength="178" x="136" y="927.5332">MI_PUBLICACION_ABIERTA</text></g><g id="MIS_PUBLICACIONES_ABIERTAS"><rect fill="#F1F1F1" height="50" rx="12.5" ry="12.5" style="stroke:#181818;stroke-width:0.5;" width="234" x="440" y="908"/><line style="stroke:#181818;stroke-width:0.5;" x1="440" x2="674" y1="935.6094" y2="935.6094"/><text fill="#000000" font-family="sans-serif" font-size="14" lengthAdjust="spacing" textLength="214" x="450" y="927.5332">MIS_PUBLICACIONES_ABIERTAS</text></g><!--link in1 to editarPublicacion--><g id="link_in1_editarPublicacion"><path d="M433,57.1 C433,71.99 433,86.94 433,111.58 " fill="none" id="in1-to-editarPublicacion" style="stroke:#008000;stroke-width:1.0;"/><polygon fill="#008000" points="433,117.58,437,108.58,433,112.58,429,108.58,433,117.58" style="stroke:#008000;stroke-width:1.0;"/></g><!--link editarPublicacion to MI_PUBLICACION_ABIERTA--><g id="link_editarPublicacion_MI_PUBLICACION_ABIERTA"><path d="M268.2,812.18 C259.35,830.77 254,842 254,842 C254,842 243.2001,875.5091 234.6101,902.1691 " fill="none" id="editarPublicacion-to-MI_PUBLICACION_ABIERTA" style="stroke:#008000;stroke-width:1.0;"/><polygon fill="#008000" points="232.77,907.88,239.3374,900.5404,234.3034,903.1209,231.7229,898.087,232.77,907.88" style="stroke:#008000;stroke-width:1.0;"/><path d="M259,847 L259,873 L417,873 L417,857 L407,847 L259,847 " fill="#FEFFDD" style="stroke:#181818;stroke-width:0.5;"/><path d="M407,847 L407,857 L417,857 L407,847 " fill="#FEFFDD" style="stroke:#181818;stroke-width:0.5;"/><text fill="#000000" font-family="sans-serif" font-size="13" lengthAdjust="spacing" textLength="137" x="265" y="865.4951">Publicaci&#243;n actualizada</text></g><!--link editarPublicacion to MIS_PUBLICACIONES_ABIERTAS--><g id="link_editarPublicacion_MIS_PUBLICACIONES_ABIERTAS"><path d="M430.24,812.18 C430.09,830.77 430,842 430,842 C430,842 430,878 430,878 C430,878 460.8478,891.1236 494.6678,905.4936 " fill="none" id="editarPublicacion-to-MIS_PUBLICACIONES_ABIERTAS" style="stroke:#FF0000;stroke-width:1.0;"/><polygon fill="#FF0000" points="500.19,907.84,493.471,900.639,495.5882,905.8847,490.3425,908.0019,500.19,907.84" style="stroke:#FF0000;stroke-width:1.0;"/><path d="M435,847 L435,873 L591,873 L591,857 L581,847 L435,847 " fill="#FEFFDD" style="stroke:#181818;stroke-width:0.5;"/><path d="M581,847 L581,857 L591,857 L581,847 " fill="#FEFFDD" style="stroke:#181818;stroke-width:0.5;"/><text fill="#000000" font-family="sans-serif" font-size="13" lengthAdjust="spacing" textLength="135" x="441" y="865.4951">abrirMisPublicaciones()</text></g><!--link editarPublicacion to MIS_PUBLICACIONES_ABIERTAS--><g id="link_editarPublicacion_MIS_PUBLICACIONES_ABIERTAS"><path d="M586.76,812.18 C595.01,830.77 600,842 600,842 C600,842 600,878 600,878 C600,878 591.429,888.7775 579.979,903.1475 " fill="none" id="editarPublicacion-to-MIS_PUBLICACIONES_ABIERTAS-1" style="stroke:#008000;stroke-width:1.0;"/><polygon fill="#008000" points="576.24,907.84,584.9769,903.2939,579.3558,903.9296,578.7202,898.3085,576.24,907.84" style="stroke:#008000;stroke-width:1.0;"/><path d="M605,847 L605,873 L746,873 L746,857 L736,847 L605,847 " fill="#FEFFDD" style="stroke:#181818;stroke-width:0.5;"/><path d="M736,847 L736,857 L746,857 L736,847 " fill="#FEFFDD" style="stroke:#181818;stroke-width:0.5;"/><text fill="#000000" font-family="sans-serif" font-size="13" lengthAdjust="spacing" textLength="120" x="611" y="865.4951">eliminarPublicacion()</text></g><!--SRC=[dLJ1Yjim4BtxAqHwIGhBqcjP0jbiM0nD6vhjNfPb6LlJC5rPCfAya9P2lwNtdle9-oVzaeuS9x5YfqrhdoIDtdlptY3tIBe42uLGfD6lInIbKUkmI1BdmQCW_Kg04uDv-h3uSFacdKwcwRkt3vFBTFR-PZ98mldPtOkLHTJtPsE1aZpOHPKfoY4dexT0dOCQjhCx70t4boGH_6tk3VZdohbnteAMfWtTgPe5E2ww0czSz_WM5CdzULrmz_8-Qk0eaJOCnBBPdSTwuo8Rf_e9dQSLI6ClphEnS8Rli8QcNL5f4EKMwFcd5gKr9K5z7xMiGJSw-dWZOTtU-XGjoNaie1PJMdIeWnWbFXfRL0ei6I7hC3Poyd3TE243g83SLw3GlQxHVdtxBcwUV_XAcTrwndxA_VAM76KKJ9MxlIjqkQMonjzjJkIdIWUAeIb3Pw16cxRNeaHR43UojSuAnL4vMbN4uZ6e2ZVQgguhi98BSoWoQim8-rFGENAJFVP6xaM-7Wp5lqUzwb4JaySK4JkFtqbPFf7ZQEWpi3lnH6r2unC99r5RbFytJaM5OKG5Mcjuii8SaVRMo2hVXtquWasusq9Ycuors4HwIb2DtZyPTJoRl3qH9rlgIFUd-JL9kkzOz7hqFfD997fnBBsz4RqaZH7pTDdcc2stBCkO1Z9BTawkXO9kEFeRIwkLqtXGKK7wu17Vi_m6]--></g></svg>