<svg xmlns="http://www.w3.org/2000/svg" xmlns:xlink="http://www.w3.org/1999/xlink" contentStyleType="text/css" data-diagram-type="STATE" height="750px" preserveAspectRatio="none" style="width:709px;height:750px;background:#FFFFFF;" version="1.1" viewBox="0 0 709 750" width="709px" zoomAndPan="magnify"><defs/><g><g><rect fill="#F1F1F1" height="50" rx="12.5" ry="12.5" style="stroke:#181818;stroke-width:0.5;" width="213.0879" x="223.98" y="7"/><line style="stroke:#181818;stroke-width:0.5;" x1="223.98" x2="437.0679" y1="33.2969" y2="33.2969"/><text fill="#000000" font-family="sans-serif" font-size="14" lengthAdjust="spacing" textLength="193.0879" x="233.98" y="24.9951">PANEL_PRINCIPAL_ABIERTO</text></g><path d="M137.02,152 L524.02,152 A12.5,12.5 0 0 1 536.52,164.5 L536.52,178.2969 L124.52,178.2969 L124.52,164.5 A12.5,12.5 0 0 1 137.02,152" fill="#F1F1F1"/><rect fill="none" height="447.2969" rx="12.5" ry="12.5" style="stroke:#181818;stroke-width:0.5;" width="412" x="124.52" y="152"/><line style="stroke:#181818;stroke-width:0.5;" x1="124.52" x2="536.52" y1="178.2969" y2="178.2969"/><text fill="#000000" font-family="sans-serif" font-size="14" lengthAdjust="spacing" textLength="144.1494" x="258.4453" y="169.9951">abrirOpcionesPerfil()</text><g><rect fill="#F1F1F1" height="50" rx="12.5" ry="12.5" style="stroke:#181818;stroke-width:0.5;" width="50" x="136.52" y="280.2969"/><line style="stroke:#181818;stroke-width:0.5;" x1="136.52" x2="186.52" y1="306.5938" y2="306.5938"/><text fill="#000000" font-family="sans-serif" font-size="14" lengthAdjust="spacing" textLength="4.4502" x="159.2949" y="298.292">&#160;</text></g><g><rect fill="#F1F1F1" height="50" rx="12.5" ry="12.5" style="stroke:#181818;stroke-width:0.5;" width="50" x="136.52" y="446.2969"/><line style="stroke:#181818;stroke-width:0.5;" x1="136.52" x2="186.52" y1="472.5938" y2="472.5938"/><text fill="#000000" font-family="sans-serif" font-size="14" lengthAdjust="spacing" textLength="4.4502" x="159.2949" y="464.292">&#160;</text></g><ellipse cx="161.52" cy="199.2969" fill="#222222" rx="10" ry="10" style="stroke:#222222;stroke-width:1;"/><ellipse cx="161.52" cy="578.2969" fill="none" rx="11" ry="11" style="stroke:#222222;stroke-width:1;"/><ellipse cx="161.52" cy="578.2969" fill="#222222" rx="6" ry="6" style="stroke:#222222;stroke-width:1;"/><!--link *start*abrirOpcionesPerfil to MostrandoLista--><g class="link" data-entity-1="ent0003" data-entity-2="ent0004" data-link-type="dependency" data-source-line="17" id="lnk4"><path d="M161.52,209.5269 C161.52,225.2369 161.52,251.6569 161.52,274.1669" fill="none" id="*start*abrirOpcionesPerfil-to-MostrandoLista" style="stroke:#008000;stroke-width:1;"/><polygon fill="#008000" points="161.52,280.1669,165.52,271.1669,161.52,275.1669,157.52,271.1669,161.52,280.1669" style="stroke:#008000;stroke-width:1;"/><path d="M166.52,232.2969 L166.52,257.2969 L463.52,257.2969 L463.52,242.2969 L453.52,232.2969 L166.52,232.2969" fill="#FEFFDD" style="stroke:#181818;stroke-width:0.5;"/><path d="M453.52,232.2969 L453.52,242.2969 L463.52,242.2969 L453.52,232.2969" fill="#FEFFDD" style="stroke:#181818;stroke-width:0.5;"/><text fill="#000000" font-family="sans-serif" font-size="13" font-weight="bold" lengthAdjust="spacing" textLength="92.5171" x="172.52" y="249.3638">Investigador</text><text fill="#000000" font-family="sans-serif" font-size="13" lengthAdjust="spacing" textLength="180.0132" x="269.1694" y="249.3638">solicita abrir opciones perfil</text></g><!--link MostrandoLista to FiltrandoLista--><g class="link" data-entity-1="ent0004" data-entity-2="ent0005" data-link-type="dependency" data-source-line="22" id="lnk5"><path d="M161.52,330.4969 C161.52,361.5069 161.52,408.9469 161.52,439.9969" fill="none" id="MostrandoLista-to-FiltrandoLista" style="stroke:#008000;stroke-width:1;"/><polygon fill="#008000" points="161.52,445.9969,165.52,436.9969,161.52,440.9969,157.52,436.9969,161.52,445.9969" style="stroke:#008000;stroke-width:1;"/><path d="M166.52,353.2969 L166.52,423.2969 L527.52,423.2969 L527.52,363.2969 L517.52,353.2969 L166.52,353.2969" fill="#FEFFDD" style="stroke:#181818;stroke-width:0.5;"/><path d="M517.52,353.2969 L517.52,363.2969 L527.52,363.2969 L517.52,353.2969" fill="#FEFFDD" style="stroke:#181818;stroke-width:0.5;"/><text fill="#000000" font-family="sans-serif" font-size="13" font-weight="bold" lengthAdjust="spacing" textLength="58.9063" x="172.52" y="370.3638">Sistema</text><text fill="#000000" font-family="sans-serif" font-size="13" lengthAdjust="spacing" textLength="277.5703" x="235.5586" y="370.3638">presenta las opciones disponibles en perfil</text><text fill="#000000" font-family="sans-serif" font-size="13" lengthAdjust="spacing" textLength="241.9155" x="172.52" y="385.4966">&#8226; ID, nombre, campo de investigador</text><text fill="#000000" font-family="sans-serif" font-size="13" lengthAdjust="spacing" textLength="197.5327" x="172.52" y="400.6294">&#8226; Permite solicitar editar perfil</text><text fill="#000000" font-family="sans-serif" font-size="13" lengthAdjust="spacing" textLength="278.1099" x="172.52" y="415.7622">&#8226; Permite solicitar volver al panel principal</text></g><!--link FiltrandoLista to *end*abrirOpcionesPerfil--><g class="link" data-entity-1="ent0005" data-entity-2="ent0006" data-link-type="dependency" data-source-line="30" id="lnk7"><path d="M161.52,496.6469 C161.52,518.9469 161.52,544.8569 161.52,561.0369" fill="none" id="FiltrandoLista-to-*end*abrirOpcionesPerfil" style="stroke:#008000;stroke-width:1;"/><polygon fill="#008000" points="161.52,567.0369,165.52,558.0369,161.52,562.0369,157.52,558.0369,161.52,567.0369" style="stroke:#008000;stroke-width:1;"/><path d="M166.52,519.2969 L166.52,544.2969 L460.52,544.2969 L460.52,529.2969 L450.52,519.2969 L166.52,519.2969" fill="#FEFFDD" style="stroke:#181818;stroke-width:0.5;"/><path d="M450.52,519.2969 L450.52,529.2969 L460.52,529.2969 L450.52,519.2969" fill="#FEFFDD" style="stroke:#181818;stroke-width:0.5;"/><text fill="#000000" font-family="sans-serif" font-size="13" font-weight="bold" lengthAdjust="spacing" textLength="90.251" x="172.52" y="536.3638">Coordinador</text><text fill="#000000" font-family="sans-serif" font-size="13" lengthAdjust="spacing" textLength="179.2769" x="266.9033" y="536.3638">solicita una de las opciones</text></g><g><rect fill="#F1F1F1" height="50" rx="12.5" ry="12.5" style="stroke:#181818;stroke-width:0.5;" width="215.043" x="7" y="694.3"/><line style="stroke:#181818;stroke-width:0.5;" x1="7" x2="222.043" y1="720.5969" y2="720.5969"/><text fill="#000000" font-family="sans-serif" font-size="14" lengthAdjust="spacing" textLength="195.043" x="17" y="712.2951">OPCIONES_PERFIL_ABIERTO</text></g><g><rect fill="#F1F1F1" height="50" rx="12.5" ry="12.5" style="stroke:#181818;stroke-width:0.5;" width="147.251" x="256.9" y="694.3"/><line style="stroke:#181818;stroke-width:0.5;" x1="256.9" x2="404.151" y1="720.5969" y2="720.5969"/><text fill="#000000" font-family="sans-serif" font-size="14" lengthAdjust="spacing" textLength="127.251" x="266.9" y="712.2951">SESION_CERRADA</text></g><g><rect fill="#F1F1F1" height="50" rx="12.5" ry="12.5" style="stroke:#181818;stroke-width:0.5;" width="213.0879" x="463.98" y="694.3"/><line style="stroke:#181818;stroke-width:0.5;" x1="463.98" x2="677.0679" y1="720.5969" y2="720.5969"/><text fill="#000000" font-family="sans-serif" font-size="14" lengthAdjust="spacing" textLength="193.0879" x="473.98" y="712.2951">PANEL_PRINCIPAL_ABIERTO</text></g><!--link in2 to abrirOpcionesPerfil--><g class="link" data-entity-1="ent0002" data-entity-2="ent0003" data-link-type="dependency" data-source-line="5" id="lnk2"><path d="M330.52,57.3 C330.52,79.1 330.52,107.48 330.52,145.71" fill="none" id="in2-to-abrirOpcionesPerfil" style="stroke:#008000;stroke-width:1;"/><polygon fill="#008000" points="330.52,151.71,334.52,142.71,330.52,146.71,326.52,142.71,330.52,151.71" style="stroke:#008000;stroke-width:1;"/><path d="M335.52,92 L335.52,117 L489.52,117 L489.52,102 L479.52,92 L335.52,92" fill="#FEFFDD" style="stroke:#181818;stroke-width:0.5;"/><path d="M479.52,92 L479.52,102 L489.52,102 L479.52,92" fill="#FEFFDD" style="stroke:#181818;stroke-width:0.5;"/><text fill="#000000" font-family="sans-serif" font-size="13" lengthAdjust="spacing" textLength="133.853" x="341.52" y="109.0669">abrirOpcionesPerfil()</text></g><!--link abrirOpcionesPerfil to OPCIONES_PERFIL_ABIERTO--><g class="link" data-entity-1="ent0003" data-entity-2="ent0008" data-link-type="dependency" data-source-line="36" id="lnk9"><path d="M189.46,599.77 C165.29,638 146.7668,667.2988 133.0068,689.0588" fill="none" id="abrirOpcionesPerfil-to-OPCIONES_PERFIL_ABIERTO" style="stroke:#008000;stroke-width:1;"/><polygon fill="#008000" points="129.8,694.13,137.9909,688.6611,132.4723,689.904,131.2294,684.3854,129.8,694.13" style="stroke:#008000;stroke-width:1;"/><path d="M172.52,634.3 L172.52,659.3 L274.52,659.3 L274.52,644.3 L264.52,634.3 L172.52,634.3" fill="#FEFFDD" style="stroke:#181818;stroke-width:0.5;"/><path d="M264.52,634.3 L264.52,644.3 L274.52,644.3 L264.52,634.3" fill="#FEFFDD" style="stroke:#181818;stroke-width:0.5;"/><text fill="#000000" font-family="sans-serif" font-size="13" lengthAdjust="spacing" textLength="81.396" x="178.52" y="651.3669">editarPerfil()</text></g><!--link abrirOpcionesPerfil to SESION_CERRADA--><g class="link" data-entity-1="ent0003" data-entity-2="ent0010" data-link-type="dependency" data-source-line="42" id="lnk11"><path d="M327.88,599.33 C327.66,617.64 327.52,629.3 327.52,629.3 C327.52,629.3 327.52,664.3 327.52,664.3 C327.52,664.3 328.0388,673.5491 328.8288,687.8391" fill="none" id="abrirOpcionesPerfil-to-SESION_CERRADA" style="stroke:#008000;stroke-width:1;"/><polygon fill="#008000" points="329.16,693.83,332.6571,684.6229,328.884,688.8376,324.6693,685.0645,329.16,693.83" style="stroke:#008000;stroke-width:1;"/><path d="M332.52,634.3 L332.52,659.3 L522.52,659.3 L522.52,644.3 L512.52,634.3 L332.52,634.3" fill="#FEFFDD" style="stroke:#181818;stroke-width:0.5;"/><path d="M512.52,634.3 L512.52,644.3 L522.52,644.3 L512.52,634.3" fill="#FEFFDD" style="stroke:#181818;stroke-width:0.5;"/><text fill="#000000" font-family="sans-serif" font-size="13" lengthAdjust="spacing" textLength="169.1143" x="338.52" y="651.3669">solicitarEliminacionPerfil()</text></g><!--link abrirOpcionesPerfil to PANEL_PRINCIPAL_ABIERTO--><g class="link" data-entity-1="ent0003" data-entity-2="ent0012" data-link-type="dependency" data-source-line="49" id="lnk13"><path d="M507.67,599.33 C522.24,617.64 531.52,629.3 531.52,629.3 C531.52,629.3 545.913,662.134 557.453,688.484" fill="none" id="abrirOpcionesPerfil-to-PANEL_PRINCIPAL_ABIERTO" style="stroke:#008000;stroke-width:1;"/><polygon fill="#008000" points="559.86,693.98,559.9135,684.1313,557.8542,689.4,552.5855,687.3406,559.86,693.98" style="stroke:#008000;stroke-width:1;"/><path d="M550.52,634.3 L550.52,659.3 L702.52,659.3 L702.52,644.3 L692.52,634.3 L550.52,634.3" fill="#FEFFDD" style="stroke:#181818;stroke-width:0.5;"/><path d="M692.52,634.3 L692.52,644.3 L702.52,644.3 L692.52,634.3" fill="#FEFFDD" style="stroke:#181818;stroke-width:0.5;"/><text fill="#000000" font-family="sans-serif" font-size="13" lengthAdjust="spacing" textLength="131.9424" x="556.52" y="651.3669">abrirPanelPrincipal()</text></g><!--SRC=[XLFHQjim57tNLroobssq5FPS0bxgWY5DZBEtKe8StvLBvIiXUO4o1lkMVTg-P5VEubg9GssGPUdet7EEfF12xBJNBHXYx5uTWhFcDVuefKAdEmJYBw03pCfibI-tPLMi5aMPBRVProAllgrdAWAk7pyyUqH-kfw3hZtvjTkHPGmb-kza55jXiXpBlAW9mCTF2hc125D3vGbShsHo_Gn-AWNo7DREv1NiWmsTrzpO9Sdu-VmzcV5y3tZy_9JuIJcWnoH-ui1jFIzuZw6ZPzrOVtjJpo5OGpkI9RrWiFyLWpja4fSTJSU-6fgJYcCn9u8lQTd8BBQwb-4y1cJXCM9u4D5GS9QfDj977clw-_iF57TNmjlM7gzWfrjdeOaduStWW9JyMn81HxCUiEa_9updkBqrU_IW3JZDAAqdtf7JQJ9lgQJMarHaoov6iR3MDyJdk_A3TNGrJYMj_4jD7TMayBfS5EjLljcMUNLV39SYFU-7GAOE-dlqctmZzDj5NbNPNPQo3a7cXbhn5qacBzDxHIvSx8axMyPzAe_RD2hp3m00]--></g></svg>