<svg xmlns="http://www.w3.org/2000/svg" xmlns:xlink="http://www.w3.org/1999/xlink" contentStyleType="text/css" data-diagram-type="SALT" height="303px" preserveAspectRatio="none" style="width:719px;height:303px;background:#FFFFFF;" version="1.1" viewBox="0 0 719 303" width="719px" zoomAndPan="magnify"><defs/><g><line style="stroke:#AAAAAA;stroke-width:1;" x1="6" x2="712" y1="8.5" y2="8.5"/><line style="stroke:#AAAAAA;stroke-width:1;" x1="6" x2="712" y1="10.5" y2="10.5"/><text fill="#000000" font-family="sans-serif" font-size="12" font-weight="bold" lengthAdjust="spacing" textLength="163.3066" x="6" y="25.1387">GIPF - INVESTIGADORES</text><line style="stroke:#AAAAAA;stroke-width:1;" x1="6" x2="712" y1="32.4688" y2="32.4688"/><line style="stroke:#AAAAAA;stroke-width:1;" x1="6" x2="712" y1="34.4688" y2="34.4688"/><text fill="#000000" font-family="sans-serif" font-size="12" font-weight="bold" lengthAdjust="spacing" textLength="105.0352" x="7" y="50.1074">Filtrar / buscar:</text><text fill="#000000" font-family="sans-serif" font-size="12" font-weight="bold" lengthAdjust="spacing" textLength="19.2246" x="9" y="68.0762">ID:</text><rect fill="#EEEEEE" height="17.9688" rx="5" ry="5" style="stroke:#000000;stroke-width:2.5;" width="68" x="71.7363" y="59.4375"/><text fill="#000000" font-family="sans-serif" font-size="12" lengthAdjust="spacing" textLength="3.8145" x="103.8291" y="72.5762">&#160;</text><text fill="#000000" font-family="sans-serif" font-size="12" font-weight="bold" lengthAdjust="spacing" textLength="58.2363" x="9" y="93.0449">Nombre:</text><rect fill="#EEEEEE" height="17.9688" rx="5" ry="5" style="stroke:#000000;stroke-width:2.5;" width="164" x="71.7363" y="84.4063"/><text fill="#000000" font-family="sans-serif" font-size="12" lengthAdjust="spacing" textLength="3.8145" x="151.8291" y="97.5449">&#160;</text><text fill="#000000" font-family="sans-serif" font-size="12" font-weight="bold" lengthAdjust="spacing" textLength="51.041" x="9" y="120.0137">Campo:</text><rect fill="#EEEEEE" height="17.9688" rx="5" ry="5" style="stroke:#000000;stroke-width:2.5;" width="164" x="64.541" y="111.375"/><text fill="#000000" font-family="sans-serif" font-size="12" lengthAdjust="spacing" textLength="3.8145" x="144.6338" y="124.5137">&#160;</text><text fill="#000000" font-family="sans-serif" font-size="12" font-weight="bold" lengthAdjust="spacing" textLength="50.8066" x="9" y="144.9824">Estado:</text><text fill="#000000" font-family="sans-serif" font-size="12" lengthAdjust="spacing" textLength="35.8828" x="66.041" y="145.9824">Todos</text><line style="stroke:#000000;stroke-width:1;" x1="64.041" x2="107.041" y1="148.8125" y2="148.8125"/><line style="stroke:#000000;stroke-width:1;" x1="64.041" x2="64.041" y1="145.8125" y2="147.8125"/><line style="stroke:#000000;stroke-width:1;" x1="107.041" x2="107.041" y1="145.8125" y2="147.8125"/><text fill="#000000" font-family="sans-serif" font-size="12" lengthAdjust="spacing" textLength="37.2891" x="114.041" y="145.9824">Activo</text><line style="stroke:#000000;stroke-width:1;" x1="112.041" x2="163.041" y1="148.8125" y2="148.8125"/><line style="stroke:#000000;stroke-width:1;" x1="112.041" x2="112.041" y1="145.8125" y2="147.8125"/><line style="stroke:#000000;stroke-width:1;" x1="163.041" x2="163.041" y1="145.8125" y2="147.8125"/><text fill="#000000" font-family="sans-serif" font-size="12" lengthAdjust="spacing" textLength="47.5781" x="170.041" y="145.9824">Inactivo</text><line style="stroke:#000000;stroke-width:1;" x1="168.041" x2="235.041" y1="148.8125" y2="148.8125"/><line style="stroke:#000000;stroke-width:1;" x1="168.041" x2="168.041" y1="145.8125" y2="147.8125"/><line style="stroke:#000000;stroke-width:1;" x1="235.041" x2="235.041" y1="145.8125" y2="147.8125"/><line style="stroke:#AAAAAA;stroke-width:1.5;" x1="7" x2="711" y1="159.3125" y2="159.3125"/><text fill="#000000" font-family="sans-serif" font-size="12" font-weight="bold" lengthAdjust="spacing" textLength="158.1504" x="7" y="174.9512">Lista de investigadores</text><line style="stroke:#AAAAAA;stroke-width:1;" x1="7" x2="711" y1="183.2813" y2="183.2813"/><text fill="#000000" font-family="sans-serif" font-size="12" font-weight="bold" lengthAdjust="spacing" textLength="14.4258" x="9" y="200.9199">ID</text><text fill="#000000" font-family="sans-serif" font-size="12" font-weight="bold" lengthAdjust="spacing" textLength="53.4375" x="25.4258" y="200.9199">Nombre</text><text fill="#000000" font-family="sans-serif" font-size="12" font-weight="bold" lengthAdjust="spacing" textLength="46.2422" x="80.8633" y="200.9199">Campo</text><text fill="#000000" font-family="sans-serif" font-size="12" lengthAdjust="spacing" textLength="47.959" x="12" y="218.8887">INV-001</text><line style="stroke:#000000;stroke-width:1;" x1="10" x2="69" y1="221.7188" y2="221.7188"/><line style="stroke:#000000;stroke-width:1;" x1="10" x2="10" y1="218.7188" y2="220.7188"/><line style="stroke:#000000;stroke-width:1;" x1="69" x2="69" y1="218.7188" y2="220.7188"/><text fill="#000000" font-family="sans-serif" font-size="12" lengthAdjust="spacing" textLength="62.3086" x="76" y="218.8887">Ana L&#243;pez</text><line style="stroke:#000000;stroke-width:1;" x1="74" x2="149" y1="221.7188" y2="221.7188"/><line style="stroke:#000000;stroke-width:1;" x1="74" x2="74" y1="218.7188" y2="220.7188"/><line style="stroke:#000000;stroke-width:1;" x1="149" x2="149" y1="218.7188" y2="220.7188"/><text fill="#000000" font-family="sans-serif" font-size="12" lengthAdjust="spacing" textLength="122.9648" x="156" y="218.8887">Inteligencia Artificial</text><line style="stroke:#000000;stroke-width:1;" x1="154" x2="341" y1="221.7188" y2="221.7188"/><line style="stroke:#000000;stroke-width:1;" x1="154" x2="154" y1="218.7188" y2="220.7188"/><line style="stroke:#000000;stroke-width:1;" x1="341" x2="341" y1="218.7188" y2="220.7188"/><text fill="#000000" font-family="sans-serif" font-size="12" lengthAdjust="spacing" textLength="47.959" x="12" y="238.8574">INV-002</text><line style="stroke:#000000;stroke-width:1;" x1="10" x2="69" y1="241.6875" y2="241.6875"/><line style="stroke:#000000;stroke-width:1;" x1="10" x2="10" y1="238.6875" y2="240.6875"/><line style="stroke:#000000;stroke-width:1;" x1="69" x2="69" y1="238.6875" y2="240.6875"/><text fill="#000000" font-family="sans-serif" font-size="12" lengthAdjust="spacing" textLength="76.002" x="76" y="238.8574">Mario Garc&#237;a</text><line style="stroke:#000000;stroke-width:1;" x1="74" x2="173" y1="241.6875" y2="241.6875"/><line style="stroke:#000000;stroke-width:1;" x1="74" x2="74" y1="238.6875" y2="240.6875"/><line style="stroke:#000000;stroke-width:1;" x1="173" x2="173" y1="238.6875" y2="240.6875"/><text fill="#000000" font-family="sans-serif" font-size="12" lengthAdjust="spacing" textLength="51.6504" x="180" y="238.8574">Big Data</text><line style="stroke:#000000;stroke-width:1;" x1="178" x2="245" y1="241.6875" y2="241.6875"/><line style="stroke:#000000;stroke-width:1;" x1="178" x2="178" y1="238.6875" y2="240.6875"/><line style="stroke:#000000;stroke-width:1;" x1="245" x2="245" y1="238.6875" y2="240.6875"/><text fill="#000000" font-family="sans-serif" font-size="12" lengthAdjust="spacing" textLength="47.959" x="12" y="258.8262">INV-003</text><line style="stroke:#000000;stroke-width:1;" x1="10" x2="69" y1="261.6563" y2="261.6563"/><line style="stroke:#000000;stroke-width:1;" x1="10" x2="10" y1="258.6563" y2="260.6563"/><line style="stroke:#000000;stroke-width:1;" x1="69" x2="69" y1="258.6563" y2="260.6563"/><text fill="#000000" font-family="sans-serif" font-size="12" lengthAdjust="spacing" textLength="68.625" x="76" y="258.8262">Luc&#237;a P&#233;rez</text><line style="stroke:#000000;stroke-width:1;" x1="74" x2="165" y1="261.6563" y2="261.6563"/><line style="stroke:#000000;stroke-width:1;" x1="74" x2="74" y1="258.6563" y2="260.6563"/><line style="stroke:#000000;stroke-width:1;" x1="165" x2="165" y1="258.6563" y2="260.6563"/><text fill="#000000" font-family="sans-serif" font-size="12" lengthAdjust="spacing" textLength="91.3594" x="172" y="258.8262">Ciberseguridad</text><line style="stroke:#000000;stroke-width:1;" x1="170" x2="285" y1="261.6563" y2="261.6563"/><line style="stroke:#000000;stroke-width:1;" x1="170" x2="170" y1="258.6563" y2="260.6563"/><line style="stroke:#000000;stroke-width:1;" x1="285" x2="285" y1="258.6563" y2="260.6563"/><line style="stroke:#AAAAAA;stroke-width:1.5;" x1="7" x2="711" y1="271.1563" y2="271.1563"/><rect fill="#EEEEEE" height="17.9688" rx="5" ry="5" style="stroke:#000000;stroke-width:2.5;" width="148" x="10.5" y="279.1563"/><text fill="#000000" font-family="sans-serif" font-size="12" lengthAdjust="spacing" textLength="107.4199" x="30.79" y="292.2949">Abrir investigador</text><rect fill="#EEEEEE" height="17.9688" rx="5" ry="5" style="stroke:#000000;stroke-width:2.5;" width="148" x="165.5" y="279.1563"/><text fill="#000000" font-family="sans-serif" font-size="12" lengthAdjust="spacing" textLength="111.375" x="183.8125" y="292.2949">Crear investigador</text><rect fill="#EEEEEE" height="17.9688" rx="5" ry="5" style="stroke:#000000;stroke-width:2.5;" width="124" x="320.5" y="279.1563"/><text fill="#000000" font-family="sans-serif" font-size="12" lengthAdjust="spacing" textLength="79.3184" x="342.8408" y="292.2949">Aplicar filtros</text><rect fill="#EEEEEE" height="17.9688" rx="5" ry="5" style="stroke:#000000;stroke-width:2.5;" width="124" x="451.5" y="279.1563"/><text fill="#000000" font-family="sans-serif" font-size="12" lengthAdjust="spacing" textLength="82.8867" x="472.0566" y="292.2949">Limpiar filtros</text><rect fill="#EEEEEE" height="17.9688" rx="5" ry="5" style="stroke:#000000;stroke-width:2.5;" width="124" x="582.5" y="279.1563"/><text fill="#000000" font-family="sans-serif" font-size="12" lengthAdjust="spacing" textLength="88.4531" x="600.2734" y="292.2949">Panel principal</text><!--SRC=[XLDBRjj03DtFAGYjaeKIs_sWCD8WZd-mAoT6_Da4Nb0IBH2LPeJHo47gElVfegiUmHVhI76SA4xJMP6SnqVE8-SYCwXDXh41z3NhWLnHPZZ2K6dAt3lMjDIOa5WBiEUhFQLnvf_t1-CUk32ucdSdqq6_rRc-wKxEJltpAl8nSPVJuzXer70AVfu5g9jxV1LQUXO_w9G8-0ctJ-551LIGNgd4rtG0V7aMcmFgDYQfUZ_fe5BNgXNkazRWJ5MeCiVQJYiml5AbEP2uSpRFPJTYRpuyY9UQU6nP8IJWYlOLPLptNP5s3UsrUFRBLnRkAm4SEpQtLgi_zYuHlEsVb7uuzgvyWQ6O8v818xIquILRAtRU9ccK92FKhA2FEjZ-nZ9ooH5qqE0_qZwK82yly33U_j95UHjfiqyweoZN76Be_5V2zMshsDoAV8jYfcrD-4QubSPiLm-MnIwgh8nvdAJyAZP6IJ6acgqAASQx5Tg8ZRWW6HPVHeXnZDBCHXwiRCki9DHF6hN6fvDwtIU3zThHJ7wNwav2e6o1cC1mGiVYg3_s85Ev3WX2EtxDVcvi-h4OuWhX9fS5hWdNASbXvzjJ0BfonLh9XAGHm_de6V3vetl91YQaRICm7uaEBJ6tdxeh0nMoZ9emc_RSBy936UKOMMwIegqihxwtTvE_]--></g></svg>