<?xml version="1.0" encoding="us-ascii" standalone="no"?><svg xmlns="http://www.w3.org/2000/svg" xmlns:xlink="http://www.w3.org/1999/xlink" contentStyleType="text/css" height="840px" preserveAspectRatio="none" style="width:685px;height:840px;background:#FFFFFF;" version="1.1" viewBox="0 0 685 840" width="685px" zoomAndPan="magnify"><defs/><g><g id="in1"><rect fill="#F1F1F1" height="50" rx="12.5" ry="12.5" style="stroke:#181818;stroke-width:0.5;" width="180" x="249.5" y="7"/><line style="stroke:#181818;stroke-width:0.5;" x1="249.5" x2="429.5" y1="34.6094" y2="34.6094"/><text fill="#000000" font-family="sans-serif" font-size="14" lengthAdjust="spacing" textLength="160" x="259.5" y="26.5332">ENTREGABLE_ABIERTO</text></g><path d="M19.5,118 L659.5,118 A12.5,12.5 0 0 1 672,130.5 L672,145.6094 L7,145.6094 L7,130.5 A12.5,12.5 0 0 1 19.5,118 " fill="#F1F1F1" style="stroke:#F1F1F1;stroke-width:1.0;"/><rect fill="none" height="569.6094" rx="12.5" ry="12.5" style="stroke:#181818;stroke-width:0.5;" width="665" x="7" y="118"/><line style="stroke:#181818;stroke-width:0.5;" x1="7" x2="672" y1="145.6094" y2="145.6094"/><text fill="#000000" font-family="sans-serif" font-size="14" lengthAdjust="spacing" textLength="128" x="275.5" y="137.5332">eliminarEntregable()</text><g id="eliminarEntregable.SolicitandoEliminacion"><rect fill="#F1F1F1" height="50" rx="12.5" ry="12.5" style="stroke:#181818;stroke-width:0.5;" width="50" x="151" y="248.6094"/><line style="stroke:#181818;stroke-width:0.5;" x1="151" x2="201" y1="276.2188" y2="276.2188"/><text fill="#000000" font-family="sans-serif" font-size="14" lengthAdjust="spacing" textLength="4" x="174" y="268.1426">&#160;</text></g><g id="eliminarEntregable.ConfirmandoEliminacion"><rect fill="#F1F1F1" height="50" rx="12.5" ry="12.5" style="stroke:#181818;stroke-width:0.5;" width="50" x="151" y="517.6094"/><line style="stroke:#181818;stroke-width:0.5;" x1="151" x2="201" y1="545.2188" y2="545.2188"/><text fill="#000000" font-family="sans-serif" font-size="14" lengthAdjust="spacing" textLength="4" x="174" y="537.1426">&#160;</text></g><ellipse cx="176" cy="166.6094" fill="#222222" rx="10" ry="10" style="stroke:#222222;stroke-width:1.0;"/><ellipse cx="176" cy="666.6094" fill="none" rx="11" ry="11" style="stroke:#222222;stroke-width:1.0;"/><ellipse cx="176" cy="666.6094" fill="#222222" rx="6" ry="6" style="stroke:#222222;stroke-width:1.0;"/><!--link *start*eliminarEntregable to SolicitandoEliminacion--><g id="link_*start*eliminarEntregable_SolicitandoEliminacion"><path d="M176,176.9294 C176,192.7894 176,219.5194 176,242.2494 " fill="none" id="*start*eliminarEntregable-to-SolicitandoEliminacion" style="stroke:#008000;stroke-width:1.0;"/><polygon fill="#008000" points="176,248.2494,180,239.2494,176,243.2494,172,239.2494,176,248.2494" style="stroke:#008000;stroke-width:1.0;"/><path d="M181,199.6094 L181,225.6094 L453,225.6094 L453,209.6094 L443,199.6094 L181,199.6094 " fill="#FEFFDD" style="stroke:#181818;stroke-width:0.5;"/><path d="M443,199.6094 L443,209.6094 L453,209.6094 L443,199.6094 " fill="#FEFFDD" style="stroke:#181818;stroke-width:0.5;"/><text fill="#000000" font-family="sans-serif" font-size="13" font-weight="bold" lengthAdjust="spacing" textLength="79" x="187" y="218.1045">Coordinador</text><text fill="#000000" font-family="sans-serif" font-size="13" lengthAdjust="spacing" textLength="168" x="270" y="218.1045">solicita eliminar el entregable</text></g><!--link SolicitandoEliminacion to ConfirmandoEliminacion--><g id="link_SolicitandoEliminacion_ConfirmandoEliminacion"><path d="M176,298.7794 C176,349.4794 176,460.4794 176,511.3094 " fill="none" id="SolicitandoEliminacion-to-ConfirmandoEliminacion" style="stroke:#008000;stroke-width:1.0;"/><polygon fill="#008000" points="176,517.3094,180,508.3094,176,512.3094,172,508.3094,176,517.3094" style="stroke:#008000;stroke-width:1.0;"/><path d="M181,321.6094 L181,494.6094 L496,494.6094 L496,331.6094 L486,321.6094 L181,321.6094 " fill="#FEFFDD" style="stroke:#181818;stroke-width:0.5;"/><path d="M486,321.6094 L486,331.6094 L496,331.6094 L486,321.6094 " fill="#FEFFDD" style="stroke:#181818;stroke-width:0.5;"/><text fill="#000000" font-family="sans-serif" font-size="13" font-weight="bold" lengthAdjust="spacing" textLength="51" x="187" y="340.1045">Sistema</text><text fill="#000000" font-family="sans-serif" font-size="13" lengthAdjust="spacing" textLength="239" x="242" y="340.1045">presenta una confirmaci&#243;n de eliminaci&#243;n</text><text fill="#000000" font-family="sans-serif" font-size="13" font-weight="bold" lengthAdjust="spacing" textLength="51" x="187" y="356.4561">Sistema</text><text fill="#000000" font-family="sans-serif" font-size="13" lengthAdjust="spacing" textLength="206" x="242" y="356.4561">muestra informaci&#243;n del entregable:</text><text fill="#000000" font-family="sans-serif" font-size="13" lengthAdjust="spacing" textLength="21" x="187" y="372.8076">&#8226; ID</text><text fill="#000000" font-family="sans-serif" font-size="13" lengthAdjust="spacing" textLength="40" x="187" y="389.1592">&#8226; T&#237;tulo</text><text fill="#000000" font-family="sans-serif" font-size="13" lengthAdjust="spacing" textLength="33" x="187" y="405.5107">&#8226; Tipo</text><text fill="#000000" font-family="sans-serif" font-size="13" lengthAdjust="spacing" textLength="50" x="187" y="421.8623">&#8226; Estado</text><text fill="#000000" font-family="sans-serif" font-size="13" lengthAdjust="spacing" textLength="4" x="187" y="438.2139">&#160;</text><text fill="#000000" font-family="sans-serif" font-size="13" font-weight="bold" lengthAdjust="spacing" textLength="51" x="187" y="454.5654">Sistema</text><text fill="#000000" font-family="sans-serif" font-size="13" lengthAdjust="spacing" textLength="96" x="242" y="454.5654">permite solicitar:</text><text fill="#000000" font-family="sans-serif" font-size="13" lengthAdjust="spacing" textLength="133" x="187" y="470.917">&#8226; Confirmar eliminaci&#243;n</text><text fill="#000000" font-family="sans-serif" font-size="13" lengthAdjust="spacing" textLength="60" x="187" y="487.2686">&#8226; Cancelar</text></g><!--link ConfirmandoEliminacion to *end*eliminarEntregable--><g id="link_ConfirmandoEliminacion_*end*eliminarEntregable"><path d="M150.96,550.2694 C106.41,562.1094 18,585.6094 18,585.6094 C18,585.6094 18,637.6094 18,637.6094 C18,637.6094 123.5322,656.3118 159.2322,662.6418 " fill="none" id="ConfirmandoEliminacion-to-*end*eliminarEntregable" style="stroke:#008000;stroke-width:1.0;"/><polygon fill="#008000" points="165.14,663.6894,156.9766,658.1795,160.2168,662.8164,155.5799,666.0567,165.14,663.6894" style="stroke:#008000;stroke-width:1.0;"/><path d="M23,598.6094 L23,624.6094 L308,624.6094 L308,608.6094 L298,598.6094 L23,598.6094 " fill="#FEFFDD" style="stroke:#181818;stroke-width:0.5;"/><path d="M298,598.6094 L298,608.6094 L308,608.6094 L298,598.6094 " fill="#FEFFDD" style="stroke:#181818;stroke-width:0.5;"/><text fill="#000000" font-family="sans-serif" font-size="13" font-weight="bold" lengthAdjust="spacing" textLength="79" x="29" y="617.1045">Coordinador</text><text fill="#000000" font-family="sans-serif" font-size="13" lengthAdjust="spacing" textLength="181" x="112" y="617.1045">solicita confirmar la eliminaci&#243;n</text></g><!--link ConfirmandoEliminacion to *end*eliminarEntregable--><g id="link_ConfirmandoEliminacion_*end*eliminarEntregable"><path d="M201.13,551.3094 C240.68,563.4394 313,585.6094 313,585.6094 C313,585.6094 313,637.6094 313,637.6094 C313,637.6094 224.9285,655.6082 192.6285,662.2082 " fill="none" id="ConfirmandoEliminacion-to-*end*eliminarEntregable-1" style="stroke:#FF0000;stroke-width:1.0;"/><polygon fill="#FF0000" points="186.75,663.4094,196.3686,665.5266,191.6488,662.4084,194.767,657.6886,186.75,663.4094" style="stroke:#FF0000;stroke-width:1.0;"/><path d="M318,590.6094 L318,632.6094 L663,632.6094 L663,600.6094 L653,590.6094 L318,590.6094 " fill="#FEFFDD" style="stroke:#181818;stroke-width:0.5;"/><path d="M653,590.6094 L653,600.6094 L663,600.6094 L653,590.6094 " fill="#FEFFDD" style="stroke:#181818;stroke-width:0.5;"/><text fill="#000000" font-family="sans-serif" font-size="13" font-weight="bold" lengthAdjust="spacing" textLength="79" x="324" y="609.1045">Coordinador</text><text fill="#000000" font-family="sans-serif" font-size="13" lengthAdjust="spacing" textLength="177" x="407" y="609.1045">solicita cancelar la eliminaci&#243;n</text><text fill="#000000" font-family="sans-serif" font-size="13" font-weight="bold" lengthAdjust="spacing" textLength="51" x="324" y="625.4561">Sistema</text><text fill="#000000" font-family="sans-serif" font-size="13" lengthAdjust="spacing" textLength="269" x="379" y="625.4561">presenta el listado de entregables sin cambios</text></g><g id="ENTREGABLES_ABIERTOS"><rect fill="#F1F1F1" height="50" rx="12.5" ry="12.5" style="stroke:#181818;stroke-width:0.5;" width="198" x="128.5" y="784"/><line style="stroke:#181818;stroke-width:0.5;" x1="128.5" x2="326.5" y1="811.6094" y2="811.6094"/><text fill="#000000" font-family="sans-serif" font-size="14" lengthAdjust="spacing" textLength="178" x="138.5" y="803.5332">ENTREGABLES_ABIERTOS</text></g><g id="ENTREGABLE_ABIERTO"><rect fill="#F1F1F1" height="50" rx="12.5" ry="12.5" style="stroke:#181818;stroke-width:0.5;" width="180" x="361.5" y="784"/><line style="stroke:#181818;stroke-width:0.5;" x1="361.5" x2="541.5" y1="811.6094" y2="811.6094"/><text fill="#000000" font-family="sans-serif" font-size="14" lengthAdjust="spacing" textLength="160" x="371.5" y="803.5332">ENTREGABLE_ABIERTO</text></g><!--link in1 to eliminarEntregable--><g id="link_in1_eliminarEntregable"><path d="M339.5,57.21 C339.5,72.28 339.5,87.44 339.5,111.95 " fill="none" id="in1-to-eliminarEntregable" style="stroke:#008000;stroke-width:1.0;"/><polygon fill="#008000" points="339.5,117.95,343.5,108.95,339.5,112.95,335.5,108.95,339.5,117.95" style="stroke:#008000;stroke-width:1.0;"/></g><!--link eliminarEntregable to ENTREGABLES_ABIERTOS--><g id="link_eliminarEntregable_ENTREGABLES_ABIERTOS"><path d="M260.72,688.15 C249.8,727.55 241.8733,756.1482 235.8533,777.8582 " fill="none" id="eliminarEntregable-to-ENTREGABLES_ABIERTOS" style="stroke:#008000;stroke-width:1.0;"/><polygon fill="#008000" points="234.25,783.64,240.5094,776.0361,235.586,778.8218,232.8003,773.8984,234.25,783.64" style="stroke:#008000;stroke-width:1.0;"/><path d="M257.5,723 L257.5,749 L380.5,749 L380.5,733 L370.5,723 L257.5,723 " fill="#FEFFDD" style="stroke:#181818;stroke-width:0.5;"/><path d="M370.5,723 L370.5,733 L380.5,733 L370.5,723 " fill="#FEFFDD" style="stroke:#181818;stroke-width:0.5;"/><text fill="#000000" font-family="sans-serif" font-size="13" lengthAdjust="spacing" textLength="102" x="263.5" y="741.4951">abrirEntregables()</text></g><!--link eliminarEntregable to ENTREGABLE_ABIERTO--><g id="link_eliminarEntregable_ENTREGABLE_ABIERTO"><path d="M418.28,688.15 C429.2,727.55 437.1267,756.1482 443.1467,777.8582 " fill="none" id="eliminarEntregable-to-ENTREGABLE_ABIERTO" style="stroke:#FF0000;stroke-width:1.0;"/><polygon fill="#FF0000" points="444.75,783.64,446.1997,773.8984,443.414,778.8218,438.4906,776.0361,444.75,783.64" style="stroke:#FF0000;stroke-width:1.0;"/><path d="M439.5,723 L439.5,749 L555.5,749 L555.5,733 L545.5,723 L439.5,723 " fill="#FEFFDD" style="stroke:#181818;stroke-width:0.5;"/><path d="M545.5,723 L545.5,733 L555.5,733 L545.5,723 " fill="#FEFFDD" style="stroke:#181818;stroke-width:0.5;"/><text fill="#000000" font-family="sans-serif" font-size="13" lengthAdjust="spacing" textLength="95" x="445.5" y="741.4951">abrirEntregable()</text></g><!--SRC=[dLHBQiCm4Dth5CBT98LGkYqXaAQc14eBSNOX5DbMmX1vP2Hb4KgXP-c-gnuXD-b9AYkEFxKIsjeRZJJlwSqRINe3c3F5CYe0kTdbdEPIx8g046sOuHJmcZ9DW_1nFWllnxSFuVFuTXhEvay1ATO6YukruXoNWn7b0Z90fa8qYgzPB2gMxeeZxKxt-W5z8OJQxu0Cx6zJ8oaW0SCmbU41b834Rjv4uWfKzZFF9IukbosvPpXHMag9XIqRDp6CHnCfLMgJKgc6L_68wX9U5MS7bDUb5p2EgUCw2F1lsD9qGlyfJH5empFczEIAQxizerjaD2bv4jX_8ash3hZOXywsN1l5RBzNie5hLdJZS5zlxtHwLmtd-m-p5RAE8Q-3qFOcbSIhbgiCR4575rNDVlH0TKMxPOO95qnv3FQxrpBO7eA_TpYf50dM5VLR3Ogd_rTG5kqLSEeWsEu9S2rm9w1gfAOQq59cCKZTBk6L4CzTRHfOFmJHyIM8IAiM5Yjee7MlJsgB_EobDTr7vYnpa_WR]--></g></svg>