<?xml version="1.0" encoding="us-ascii" standalone="no"?><svg xmlns="http://www.w3.org/2000/svg" xmlns:xlink="http://www.w3.org/1999/xlink" contentStyleType="text/css" height="718px" preserveAspectRatio="none" style="width:661px;height:718px;background:#FFFFFF;" version="1.1" viewBox="0 0 661 718" width="661px" zoomAndPan="magnify"><defs/><g><g id="in1"><rect fill="#F1F1F1" height="50" rx="12.5" ry="12.5" style="stroke:#181818;stroke-width:0.5;" width="210" x="245" y="7"/><line style="stroke:#181818;stroke-width:0.5;" x1="245" x2="455" y1="34.6094" y2="34.6094"/><text fill="#000000" font-family="sans-serif" font-size="14" lengthAdjust="spacing" textLength="190" x="255" y="26.5332">PANEL_PRINCIPAL_ABIERTO</text></g><path d="M154,118 L546,118 A12.5,12.5 0 0 1 558.5,130.5 L558.5,145.6094 L141.5,145.6094 L141.5,130.5 A12.5,12.5 0 0 1 154,118 " fill="#F1F1F1" style="stroke:#F1F1F1;stroke-width:1.0;"/><rect fill="none" height="447.6094" rx="12.5" ry="12.5" style="stroke:#181818;stroke-width:0.5;" width="417" x="141.5" y="118"/><line style="stroke:#181818;stroke-width:0.5;" x1="141.5" x2="558.5" y1="145.6094" y2="145.6094"/><text fill="#000000" font-family="sans-serif" font-size="14" lengthAdjust="spacing" textLength="187" x="256.5" y="137.5332">abrirOpcionesCargaTrabajo()</text><g id="abrirOpcionesCargaTrabajo.CargandoCargaTrabajo"><rect fill="#F1F1F1" height="50" rx="12.5" ry="12.5" style="stroke:#181818;stroke-width:0.5;" width="50" x="153.5" y="248.6094"/><line style="stroke:#181818;stroke-width:0.5;" x1="153.5" x2="203.5" y1="276.2188" y2="276.2188"/><text fill="#000000" font-family="sans-serif" font-size="14" lengthAdjust="spacing" textLength="4" x="176.5" y="268.1426">&#160;</text></g><ellipse cx="178.5" cy="166.6094" fill="#222222" rx="10" ry="10" style="stroke:#222222;stroke-width:1.0;"/><ellipse cx="178.5" cy="544.6094" fill="none" rx="11" ry="11" style="stroke:#222222;stroke-width:1.0;"/><ellipse cx="178.5" cy="544.6094" fill="#222222" rx="6" ry="6" style="stroke:#222222;stroke-width:1.0;"/><!--link *start*abrirOpcionesCargaTrabajo to CargandoCargaTrabajo--><g id="link_*start*abrirOpcionesCargaTrabajo_CargandoCargaTrabajo"><path d="M178.5,176.9294 C178.5,192.7894 178.5,219.5194 178.5,242.2494 " fill="none" id="*start*abrirOpcionesCargaTrabajo-to-CargandoCargaTrabajo" style="stroke:#008000;stroke-width:1.0;"/><polygon fill="#008000" points="178.5,248.2494,182.5,239.2494,178.5,243.2494,174.5,239.2494,178.5,248.2494" style="stroke:#008000;stroke-width:1.0;"/><path d="M183.5,199.6094 L183.5,225.6094 L549.5,225.6094 L549.5,209.6094 L539.5,199.6094 L183.5,199.6094 " fill="#FEFFDD" style="stroke:#181818;stroke-width:0.5;"/><path d="M539.5,199.6094 L539.5,209.6094 L549.5,209.6094 L539.5,199.6094 " fill="#FEFFDD" style="stroke:#181818;stroke-width:0.5;"/><text fill="#000000" font-family="sans-serif" font-size="13" font-weight="bold" lengthAdjust="spacing" textLength="79" x="189.5" y="218.1045">Coordinador</text><text fill="#000000" font-family="sans-serif" font-size="13" lengthAdjust="spacing" textLength="262" x="272.5" y="218.1045">solicita abrir las opciones de carga de trabajo</text></g><!--link CargandoCargaTrabajo to *end*abrirOpcionesCargaTrabajo--><g id="link_CargandoCargaTrabajo_*end*abrirOpcionesCargaTrabajo"><path d="M178.5,298.9594 C178.5,355.7294 178.5,489.0094 178.5,527.5694 " fill="none" id="CargandoCargaTrabajo-to-*end*abrirOpcionesCargaTrabajo" style="stroke:#008000;stroke-width:1.0;"/><polygon fill="#008000" points="178.5,533.5694,182.5,524.5694,178.5,528.5694,174.5,524.5694,178.5,533.5694" style="stroke:#008000;stroke-width:1.0;"/><path d="M183.5,321.6094 L183.5,510.6094 L509.5,510.6094 L509.5,331.6094 L499.5,321.6094 L183.5,321.6094 " fill="#FEFFDD" style="stroke:#181818;stroke-width:0.5;"/><path d="M499.5,321.6094 L499.5,331.6094 L509.5,331.6094 L499.5,321.6094 " fill="#FEFFDD" style="stroke:#181818;stroke-width:0.5;"/><text fill="#000000" font-family="sans-serif" font-size="13" font-weight="bold" lengthAdjust="spacing" textLength="51" x="189.5" y="340.1045">Sistema</text><text fill="#000000" font-family="sans-serif" font-size="13" lengthAdjust="spacing" textLength="250" x="244.5" y="340.1045">muestra la informaci&#243;n de carga de trabajo:</text><text fill="#000000" font-family="sans-serif" font-size="13" lengthAdjust="spacing" textLength="114" x="189.5" y="356.4561">&#8226; Filtros disponibles</text><text fill="#000000" font-family="sans-serif" font-size="13" lengthAdjust="spacing" textLength="102" x="189.5" y="372.8076">&#8226; Resumen global</text><text fill="#000000" font-family="sans-serif" font-size="13" lengthAdjust="spacing" textLength="121" x="189.5" y="389.1592">&#8226; Detalle por persona</text><text fill="#000000" font-family="sans-serif" font-size="13" lengthAdjust="spacing" textLength="211" x="189.5" y="405.5107">&#8226; Detalle de la persona seleccionada</text><text fill="#000000" font-family="sans-serif" font-size="13" lengthAdjust="spacing" textLength="4" x="189.5" y="421.8623">&#160;</text><text fill="#000000" font-family="sans-serif" font-size="13" lengthAdjust="spacing" textLength="247" x="189.5" y="438.2139">y permite solicitar las siguientes acciones:</text><text fill="#000000" font-family="sans-serif" font-size="13" lengthAdjust="spacing" textLength="84" x="189.5" y="454.5654">&#8226; Aplicar filtros</text><text fill="#000000" font-family="sans-serif" font-size="13" lengthAdjust="spacing" textLength="86" x="189.5" y="470.917">&#8226; Limpiar filtros</text><text fill="#000000" font-family="sans-serif" font-size="13" lengthAdjust="spacing" textLength="140" x="189.5" y="487.2686">&#8226; Editar carga de trabajo</text><text fill="#000000" font-family="sans-serif" font-size="13" lengthAdjust="spacing" textLength="123" x="189.5" y="503.6201">&#8226; Abrir panel principal</text></g><g id="OPCIONES_CARGA_TRABAJO_ABIERTAS"><rect fill="#F1F1F1" height="50" rx="12.5" ry="12.5" style="stroke:#181818;stroke-width:0.5;" width="294" x="7" y="662"/><line style="stroke:#181818;stroke-width:0.5;" x1="7" x2="301" y1="689.6094" y2="689.6094"/><text fill="#000000" font-family="sans-serif" font-size="14" lengthAdjust="spacing" textLength="274" x="17" y="681.5332">OPCIONES_CARGA_TRABAJO_ABIERTAS</text></g><g id="PANEL_PRINCIPAL_ABIERTO"><rect fill="#F1F1F1" height="50" rx="12.5" ry="12.5" style="stroke:#181818;stroke-width:0.5;" width="210" x="432" y="662"/><line style="stroke:#181818;stroke-width:0.5;" x1="432" x2="642" y1="689.6094" y2="689.6094"/><text fill="#000000" font-family="sans-serif" font-size="14" lengthAdjust="spacing" textLength="190" x="442" y="681.5332">PANEL_PRINCIPAL_ABIERTO</text></g><!--link in1 to abrirOpcionesCargaTrabajo--><g id="link_in1_abrirOpcionesCargaTrabajo"><path d="M350,57.17 C350,72.41 350,87.77 350,112 " fill="none" id="in1-to-abrirOpcionesCargaTrabajo" style="stroke:#008000;stroke-width:1.0;"/><polygon fill="#008000" points="350,118,354,109,350,113,346,109,350,118" style="stroke:#008000;stroke-width:1.0;"/></g><!--link abrirOpcionesCargaTrabajo to OPCIONES_CARGA_TRABAJO_ABIERTAS--><g id="link_abrirOpcionesCargaTrabajo_OPCIONES_CARGA_TRABAJO_ABIERTAS"><path d="M141.43,522.48 C93.35,563.86 56,596 56,596 C56,596 56,632 56,632 C56,632 78.8144,644.5753 104.9044,658.9453 " fill="none" id="abrirOpcionesCargaTrabajo-to-OPCIONES_CARGA_TRABAJO_ABIERTAS" style="stroke:#008000;stroke-width:1.0;"/><polygon fill="#008000" points="110.16,661.84,104.2065,653.9943,105.7804,659.4278,100.3469,661.0017,110.16,661.84" style="stroke:#008000;stroke-width:1.0;"/><path d="M61,601 L61,627 L302,627 L302,611 L292,601 L61,601 " fill="#FEFFDD" style="stroke:#181818;stroke-width:0.5;"/><path d="M292,601 L292,611 L302,611 L292,601 " fill="#FEFFDD" style="stroke:#181818;stroke-width:0.5;"/><text fill="#000000" font-family="sans-serif" font-size="13" lengthAdjust="spacing" textLength="220" x="67" y="619.4951">Pantalla de carga de trabajo mostrada</text></g><!--link abrirOpcionesCargaTrabajo to OPCIONES_CARGA_TRABAJO_ABIERTAS--><g id="link_abrirOpcionesCargaTrabajo_OPCIONES_CARGA_TRABAJO_ABIERTAS"><path d="M319.9,566.06 C314.74,604.3 311,632 311,632 C311,632 271.7142,645.5198 229.9042,659.8898 " fill="none" id="abrirOpcionesCargaTrabajo-to-OPCIONES_CARGA_TRABAJO_ABIERTAS-1" style="stroke:#008000;stroke-width:1.0;"/><polygon fill="#008000" points="224.23,661.84,234.0415,662.6975,228.9585,660.2148,231.4412,655.1319,224.23,661.84" style="stroke:#008000;stroke-width:1.0;"/><path d="M320,601 L320,627 L457,627 L457,611 L447,601 L320,601 " fill="#FEFFDD" style="stroke:#181818;stroke-width:0.5;"/><path d="M447,601 L447,611 L457,611 L447,601 " fill="#FEFFDD" style="stroke:#181818;stroke-width:0.5;"/><text fill="#000000" font-family="sans-serif" font-size="13" lengthAdjust="spacing" textLength="116" x="326" y="619.4951">editarCargaTrabajo()</text></g><!--link abrirOpcionesCargaTrabajo to PANEL_PRINCIPAL_ABIERTO--><g id="link_abrirOpcionesCargaTrabajo_PANEL_PRINCIPAL_ABIERTO"><path d="M480.73,566.48 C491.29,584.53 498,596 498,596 C498,596 512.6148,629.7145 524.1648,656.3745 " fill="none" id="abrirOpcionesCargaTrabajo-to-PANEL_PRINCIPAL_ABIERTO" style="stroke:#008000;stroke-width:1.0;"/><polygon fill="#008000" points="526.55,661.88,526.6426,652.0316,524.5623,657.2921,519.3019,655.2118,526.55,661.88" style="stroke:#008000;stroke-width:1.0;"/><path d="M517,601 L517,627 L654,627 L654,611 L644,601 L517,601 " fill="#FEFFDD" style="stroke:#181818;stroke-width:0.5;"/><path d="M644,601 L644,611 L654,611 L644,601 " fill="#FEFFDD" style="stroke:#181818;stroke-width:0.5;"/><text fill="#000000" font-family="sans-serif" font-size="13" lengthAdjust="spacing" textLength="116" x="523" y="619.4951">abrirPanelPrincipal()</text></g><!--SRC=[jLF1Yjim4BtxAuRqqXQMqcjP0betBIaXDavkonB6zcoOhYm9IJc4KkYtz1Vw2VsJVaabESd6h7teeVR5ddbwx-cDv9vO6RJOWMH5_cW8Z9R7-9DbpgCdOFKUqC6i5El5QbTMotM-BCLg9-wMYsfRpB88kBb_jRT4wk5c3bXRjeLfM2joETezRYtM-5MV6IS1IMUo-_hD3Bvb6OIdvvc5Dwn86DNgeLI4tRzz63WRHKQWqe5EgnZ2KohSrlDSQzkombRRstVr79oMtB37tZx8eAnFBg4bQ29d_F1NlAJQnDtR6PCV-0j-9-ris7dgC5df3kI2JF0GflEeROSD__wbncnyIEl__FW9drXwguDNTaOhhYMvIwyYT-X8mLxg6kMb_94yIXcFX0L3rcc5Btf1AjWuTS6Hf2Q6WYtscpx6NiTXG-S0- -mSxmzCoeVqiEbZVFOgJ806u6Fl-L9VSMTufBve4-_e319V6fb1HHACPTMmEMtpCg7lMJPzBg-7L9JvibWlDhjSL9_5Rbk9E_6bE5q7iSa6mojHnPXmR3JGwJZ54DJpCVaF5YXbCxn8_wmuSVc7IecgZ26NvuolfVu2]--></g></svg>