<?xml version="1.0" encoding="us-ascii" standalone="no"?><svg xmlns="http://www.w3.org/2000/svg" xmlns:xlink="http://www.w3.org/1999/xlink" contentStyleType="text/css" height="817px" preserveAspectRatio="none" style="width:742px;height:817px;background:#FFFFFF;" version="1.1" viewBox="0 0 742 817" width="742px" zoomAndPan="magnify"><defs/><g><g id="in1"><rect fill="#F1F1F1" height="50" rx="12.5" ry="12.5" style="stroke:#181818;stroke-width:0.5;" width="210" x="48" y="7"/><line style="stroke:#181818;stroke-width:0.5;" x1="48" x2="258" y1="34.6094" y2="34.6094"/><text fill="#000000" font-family="sans-serif" font-size="14" lengthAdjust="spacing" textLength="190" x="58" y="26.5332">PANEL_PRINCIPAL_ABIERTO</text></g><path d="M36,118 L716,118 A12.5,12.5 0 0 1 728.5,130.5 L728.5,145.6094 L23.5,145.6094 L23.5,130.5 A12.5,12.5 0 0 1 36,118 " fill="#F1F1F1" style="stroke:#F1F1F1;stroke-width:1.0;"/><rect fill="none" height="546.6094" rx="12.5" ry="12.5" style="stroke:#181818;stroke-width:0.5;" width="705" x="23.5" y="118"/><line style="stroke:#181818;stroke-width:0.5;" x1="23.5" x2="728.5" y1="145.6094" y2="145.6094"/><text fill="#000000" font-family="sans-serif" font-size="14" lengthAdjust="spacing" textLength="102" x="325" y="137.5332">abrirProyectos()</text><g id="abrirProyectos.MostrandoLista"><rect fill="#F1F1F1" height="50" rx="12.5" ry="12.5" style="stroke:#181818;stroke-width:0.5;" width="50" x="35.5" y="248.6094"/><line style="stroke:#181818;stroke-width:0.5;" x1="35.5" x2="85.5" y1="276.2188" y2="276.2188"/><text fill="#000000" font-family="sans-serif" font-size="14" lengthAdjust="spacing" textLength="4" x="58.5" y="268.1426">&#160;</text></g><g id="abrirProyectos.FiltrandoLista"><rect fill="#F1F1F1" height="50" rx="12.5" ry="12.5" style="stroke:#181818;stroke-width:0.5;" width="50" x="35.5" y="387.6094"/><line style="stroke:#181818;stroke-width:0.5;" x1="35.5" x2="85.5" y1="415.2188" y2="415.2188"/><text fill="#000000" font-family="sans-serif" font-size="14" lengthAdjust="spacing" textLength="4" x="58.5" y="407.1426">&#160;</text></g><g id="abrirProyectos.SolicitandoAccion"><rect fill="#F1F1F1" height="50" rx="12.5" ry="12.5" style="stroke:#181818;stroke-width:0.5;" width="50" x="35.5" y="510.6094"/><line style="stroke:#181818;stroke-width:0.5;" x1="35.5" x2="85.5" y1="538.2188" y2="538.2188"/><text fill="#000000" font-family="sans-serif" font-size="14" lengthAdjust="spacing" textLength="4" x="58.5" y="530.1426">&#160;</text></g><ellipse cx="60.5" cy="166.6094" fill="#222222" rx="10" ry="10" style="stroke:#222222;stroke-width:1.0;"/><ellipse cx="60.5" cy="643.6094" fill="none" rx="11" ry="11" style="stroke:#222222;stroke-width:1.0;"/><ellipse cx="60.5" cy="643.6094" fill="#222222" rx="6" ry="6" style="stroke:#222222;stroke-width:1.0;"/><!--link *start*abrirProyectos to MostrandoLista--><g id="link_*start*abrirProyectos_MostrandoLista"><path d="M60.5,176.9294 C60.5,192.7894 60.5,219.5194 60.5,242.2494 " fill="none" id="*start*abrirProyectos-to-MostrandoLista" style="stroke:#008000;stroke-width:1.0;"/><polygon fill="#008000" points="60.5,248.2494,64.5,239.2494,60.5,243.2494,56.5,239.2494,60.5,248.2494" style="stroke:#008000;stroke-width:1.0;"/><path d="M65.5,199.6094 L65.5,225.6094 L419.5,225.6094 L419.5,209.6094 L409.5,199.6094 L65.5,199.6094 " fill="#FEFFDD" style="stroke:#181818;stroke-width:0.5;"/><path d="M409.5,199.6094 L409.5,209.6094 L419.5,209.6094 L409.5,199.6094 " fill="#FEFFDD" style="stroke:#181818;stroke-width:0.5;"/><text fill="#000000" font-family="sans-serif" font-size="13" font-weight="bold" lengthAdjust="spacing" textLength="78" x="71.5" y="218.1045">Investigador</text><text fill="#000000" font-family="sans-serif" font-size="13" lengthAdjust="spacing" textLength="251" x="153.5" y="218.1045">solicita abrir el listado de proyectos propios</text></g><!--link MostrandoLista to FiltrandoLista--><g id="link_MostrandoLista_FiltrandoLista"><path d="M60.5,298.7894 C60.5,323.6794 60.5,356.2394 60.5,381.2094 " fill="none" id="MostrandoLista-to-FiltrandoLista" style="stroke:#008000;stroke-width:1.0;"/><polygon fill="#008000" points="60.5,387.2094,64.5,378.2094,60.5,382.2094,56.5,378.2094,60.5,387.2094" style="stroke:#008000;stroke-width:1.0;"/><path d="M65.5,321.6094 L65.5,363.6094 L719.5,363.6094 L719.5,331.6094 L709.5,321.6094 L65.5,321.6094 " fill="#FEFFDD" style="stroke:#181818;stroke-width:0.5;"/><path d="M709.5,321.6094 L709.5,331.6094 L719.5,331.6094 L709.5,321.6094 " fill="#FEFFDD" style="stroke:#181818;stroke-width:0.5;"/><text fill="#000000" font-family="sans-serif" font-size="13" font-weight="bold" lengthAdjust="spacing" textLength="51" x="71.5" y="340.1045">Sistema</text><text fill="#000000" font-family="sans-serif" font-size="13" lengthAdjust="spacing" textLength="410" x="126.5" y="340.1045">presenta el listado de proyectos propios del investigador con sus datos</text><text fill="#000000" font-family="sans-serif" font-size="13" lengthAdjust="spacing" textLength="633" x="71.5" y="356.4561">principales (ID, t&#237;tulo, estado, inicio y fin) y permite solicitar la introducci&#243;n de criterios de filtrado y b&#250;squeda.</text></g><!--link FiltrandoLista to FiltrandoLista--><g id="link_FiltrandoLista_FiltrandoLista"><path d="M85.68,401.0294 C95.41,400.5194 103.5,404.3794 103.5,412.6094 C103.5,420.8394 101.4018,425.0134 91.6718,424.5034 " fill="none" id="FiltrandoLista-to-FiltrandoLista" style="stroke:#008000;stroke-width:1.0;"/><polygon fill="#008000" points="85.68,424.1894,94.4583,428.655,90.6731,424.4511,94.877,420.6659,85.68,424.1894" style="stroke:#008000;stroke-width:1.0;"/><path d="M108.5,391.6094 L108.5,433.6094 L528.5,433.6094 L528.5,401.6094 L518.5,391.6094 L108.5,391.6094 " fill="#FEFFDD" style="stroke:#181818;stroke-width:0.5;"/><path d="M518.5,391.6094 L518.5,401.6094 L528.5,401.6094 L518.5,391.6094 " fill="#FEFFDD" style="stroke:#181818;stroke-width:0.5;"/><text fill="#000000" font-family="sans-serif" font-size="13" font-weight="bold" lengthAdjust="spacing" textLength="78" x="114.5" y="410.1045">Investigador</text><text fill="#000000" font-family="sans-serif" font-size="13" lengthAdjust="spacing" textLength="317" x="196.5" y="410.1045">solicita introducir filtros y/o solicita introducir b&#250;squeda</text><text fill="#000000" font-family="sans-serif" font-size="13" font-weight="bold" lengthAdjust="spacing" textLength="51" x="114.5" y="426.4561">Sistema</text><text fill="#000000" font-family="sans-serif" font-size="13" lengthAdjust="spacing" textLength="173" x="169.5" y="426.4561">muestra el listado actualizado</text></g><!--link FiltrandoLista to SolicitandoAccion--><g id="link_FiltrandoLista_SolicitandoAccion"><path d="M60.5,437.8094 C60.5,458.9094 60.5,483.3694 60.5,504.4594 " fill="none" id="FiltrandoLista-to-SolicitandoAccion" style="stroke:#008000;stroke-width:1.0;"/><polygon fill="#008000" points="60.5,510.4594,64.5,501.4594,60.5,505.4594,56.5,501.4594,60.5,510.4594" style="stroke:#008000;stroke-width:1.0;"/><path d="M65.5,461.6094 L65.5,487.6094 L412.5,487.6094 L412.5,471.6094 L402.5,461.6094 L65.5,461.6094 " fill="#FEFFDD" style="stroke:#181818;stroke-width:0.5;"/><path d="M402.5,461.6094 L402.5,471.6094 L412.5,471.6094 L402.5,461.6094 " fill="#FEFFDD" style="stroke:#181818;stroke-width:0.5;"/><text fill="#000000" font-family="sans-serif" font-size="13" font-weight="bold" lengthAdjust="spacing" textLength="78" x="71.5" y="480.1045">Investigador</text><text fill="#000000" font-family="sans-serif" font-size="13" lengthAdjust="spacing" textLength="244" x="153.5" y="480.1045">solicita una acci&#243;n disponible en el listado</text></g><!--link SolicitandoAccion to *end*abrirProyectos--><g id="link_SolicitandoAccion_*end*abrirProyectos"><path d="M60.5,560.6594 C60.5,583.2594 60.5,609.9894 60.5,626.4094 " fill="none" id="SolicitandoAccion-to-*end*abrirProyectos" style="stroke:#008000;stroke-width:1.0;"/><polygon fill="#008000" points="60.5,632.4094,64.5,623.4094,60.5,627.4094,56.5,623.4094,60.5,632.4094" style="stroke:#008000;stroke-width:1.0;"/><path d="M65.5,583.6094 L65.5,609.6094 L332.5,609.6094 L332.5,593.6094 L322.5,583.6094 L65.5,583.6094 " fill="#FEFFDD" style="stroke:#181818;stroke-width:0.5;"/><path d="M322.5,583.6094 L322.5,593.6094 L332.5,593.6094 L322.5,583.6094 " fill="#FEFFDD" style="stroke:#181818;stroke-width:0.5;"/><text fill="#000000" font-family="sans-serif" font-size="13" font-weight="bold" lengthAdjust="spacing" textLength="51" x="71.5" y="602.1045">Sistema</text><text fill="#000000" font-family="sans-serif" font-size="13" lengthAdjust="spacing" textLength="191" x="126.5" y="602.1045">presenta la navegaci&#243;n solicitada</text></g><g id="in2"><rect fill="#F1F1F1" height="50" rx="12.5" ry="12.5" style="stroke:#181818;stroke-width:0.5;" width="166" x="293" y="7"/><line style="stroke:#181818;stroke-width:0.5;" x1="293" x2="459" y1="34.6094" y2="34.6094"/><text fill="#000000" font-family="sans-serif" font-size="14" lengthAdjust="spacing" textLength="146" x="303" y="26.5332">PROYECTO_ABIERTO</text></g><g id="in3"><rect fill="#F1F1F1" height="50" rx="12.5" ry="12.5" style="stroke:#181818;stroke-width:0.5;" width="190" x="494" y="7"/><line style="stroke:#181818;stroke-width:0.5;" x1="494" x2="684" y1="34.6094" y2="34.6094"/><text fill="#000000" font-family="sans-serif" font-size="14" lengthAdjust="spacing" textLength="170" x="504" y="26.5332">INVESTIGADOR_ABIERTO</text></g><g id="PROYECTOS_ABIERTOS"><rect fill="#F1F1F1" height="50" rx="12.5" ry="12.5" style="stroke:#181818;stroke-width:0.5;" width="184" x="7" y="761"/><line style="stroke:#181818;stroke-width:0.5;" x1="7" x2="191" y1="788.6094" y2="788.6094"/><text fill="#000000" font-family="sans-serif" font-size="14" lengthAdjust="spacing" textLength="164" x="17" y="780.5332">PROYECTOS_ABIERTOS</text></g><g id="PROYECTO_ABIERTO"><rect fill="#F1F1F1" height="50" rx="12.5" ry="12.5" style="stroke:#181818;stroke-width:0.5;" width="166" x="293" y="761"/><line style="stroke:#181818;stroke-width:0.5;" x1="293" x2="459" y1="788.6094" y2="788.6094"/><text fill="#000000" font-family="sans-serif" font-size="14" lengthAdjust="spacing" textLength="146" x="303" y="780.5332">PROYECTO_ABIERTO</text></g><g id="PANEL_PRINCIPAL_ABIERTO"><rect fill="#F1F1F1" height="50" rx="12.5" ry="12.5" style="stroke:#181818;stroke-width:0.5;" width="210" x="494" y="761"/><line style="stroke:#181818;stroke-width:0.5;" x1="494" x2="704" y1="788.6094" y2="788.6094"/><text fill="#000000" font-family="sans-serif" font-size="14" lengthAdjust="spacing" textLength="190" x="504" y="780.5332">PANEL_PRINCIPAL_ABIERTO</text></g><!--link in1 to abrirProyectos--><g id="link_in1_abrirProyectos"><path d="M167.98,57.01 C177.4,72.12 187.4835,88.2898 202.8035,112.8398 " fill="none" id="in1-to-abrirProyectos" style="stroke:#008000;stroke-width:1.0;"/><polygon fill="#008000" points="205.98,117.93,204.6088,108.1771,203.333,113.6882,197.8219,112.4123,205.98,117.93" style="stroke:#008000;stroke-width:1.0;"/></g><!--link in2 to abrirProyectos--><g id="link_in2_abrirProyectos"><path d="M376,57.01 C376,72.12 376,87.38 376,111.93 " fill="none" id="in2-to-abrirProyectos" style="stroke:#008000;stroke-width:1.0;"/><polygon fill="#008000" points="376,117.93,380,108.93,376,112.93,372,108.93,376,117.93" style="stroke:#008000;stroke-width:1.0;"/></g><!--link in3 to abrirProyectos--><g id="link_in3_abrirProyectos"><path d="M574.69,57.01 C565.69,72.12 556.1015,88.2258 541.4715,112.7758 " fill="none" id="in3-to-abrirProyectos" style="stroke:#008000;stroke-width:1.0;"/><polygon fill="#008000" points="538.4,117.93,546.4434,112.2464,540.9596,113.6348,539.5712,108.151,538.4,117.93" style="stroke:#008000;stroke-width:1.0;"/></g><!--link abrirProyectos to PROYECTOS_ABIERTOS--><g id="link_abrirProyectos_PROYECTOS_ABIERTOS"><path d="M155.16,665.17 C140.25,683.58 131,695 131,695 C131,695 119.0583,728.5661 109.5883,755.2261 " fill="none" id="abrirProyectos-to-PROYECTOS_ABIERTOS" style="stroke:#008000;stroke-width:1.0;"/><polygon fill="#008000" points="107.58,760.88,114.3618,753.738,109.2536,756.1684,106.8232,751.0603,107.58,760.88" style="stroke:#008000;stroke-width:1.0;"/><path d="M136,700 L136,726 L363,726 L363,710 L353,700 L136,700 " fill="#FEFFDD" style="stroke:#181818;stroke-width:0.5;"/><path d="M353,700 L353,710 L363,710 L353,700 " fill="#FEFFDD" style="stroke:#181818;stroke-width:0.5;"/><text fill="#000000" font-family="sans-serif" font-size="13" lengthAdjust="spacing" textLength="206" x="142" y="718.4951">Listado de proyectos propios visible</text></g><!--link abrirProyectos to PROYECTO_ABIERTO--><g id="link_abrirProyectos_PROYECTO_ABIERTO"><path d="M376,665.1 C376,704.61 376,733.22 376,754.97 " fill="none" id="abrirProyectos-to-PROYECTO_ABIERTO" style="stroke:#008000;stroke-width:1.0;"/><polygon fill="#008000" points="376,760.97,380,751.97,376,755.97,372,751.97,376,760.97" style="stroke:#008000;stroke-width:1.0;"/><path d="M381,700 L381,726 L487,726 L487,710 L477,700 L381,700 " fill="#FEFFDD" style="stroke:#181818;stroke-width:0.5;"/><path d="M477,700 L477,710 L487,710 L477,700 " fill="#FEFFDD" style="stroke:#181818;stroke-width:0.5;"/><text fill="#000000" font-family="sans-serif" font-size="13" lengthAdjust="spacing" textLength="85" x="387" y="718.4951">abrirProyecto()</text></g><!--link abrirProyectos to PANEL_PRINCIPAL_ABIERTO--><g id="link_abrirProyectos_PANEL_PRINCIPAL_ABIERTO"><path d="M530.88,665.1 C553.33,704.61 570.0256,734.0035 582.3856,755.7535 " fill="none" id="abrirProyectos-to-PANEL_PRINCIPAL_ABIERTO" style="stroke:#008000;stroke-width:1.0;"/><polygon fill="#008000" points="585.35,760.97,584.381,751.1689,582.8796,756.6229,577.4257,755.1215,585.35,760.97" style="stroke:#008000;stroke-width:1.0;"/><path d="M571,700 L571,726 L708,726 L708,710 L698,700 L571,700 " fill="#FEFFDD" style="stroke:#181818;stroke-width:0.5;"/><path d="M698,700 L698,710 L708,710 L698,700 " fill="#FEFFDD" style="stroke:#181818;stroke-width:0.5;"/><text fill="#000000" font-family="sans-serif" font-size="13" lengthAdjust="spacing" textLength="116" x="577" y="718.4951">abrirPanelPrincipal()</text></g><!--SRC=[dPJDRjf04CVlVeeLlK156ZMvHaXkGYjB52oCAbLH52ts58soxBgxQoItwYFrr5kkl5XdRGpUugPGE61cP_xpcm-lUKAPSytNJA04M-R0SYLAzoS8ZEKM6CgtZ1lMYyFfUF8OpwFfRHI7ayVmNJIUBsQzm3bStBzQQG3vS35YVAbHnrgLa5fb3Z9NjSnyzdbykvYruwzEYh-kugFfft6oY3w4TxDvM-Fw10tVMidvflwWnxu70QDF7T6ZBxbzLCPgBZCrGR8Vdxz7yU9veWIcQ9r7cAQeP9tZ_lM3HzsHHYfIKTADvwaot2n7aTo0iRZYcT8tbyiHCplvka06Wjn985CietdkwwMd7AaRJWPaLcdN87vYZwcZj2wcX4vXpIkSN8C1IJh_026ZeBaUYc4fgPg23hZTSUOQPOev5s1OFxeRChlzQGkXXWmguI49KEsAbUmBoW7zvA3NI81DKpGJd9oiLbb1lT_-aWucrUIZQmYAT3LcJcIvVJPV2yZucuus-RtudpRzVNGD8SslmY6oyb9rdkyPkvg_Bi3Dijrxdjg22_n6p-SLTRosvzTLI5hBfkzeSYLnAO0OMeGTL4UfFJ1wSSxRH5e1oJUmuZL8GxThuJxrZo3uuuvePsskhgIvTvB00vYyjEiRDAxmu53c2PcQH7uUBx0_E56o-_hkKkOIHDoyTstztm00]--></g></svg>