<svg xmlns="http://www.w3.org/2000/svg" xmlns:xlink="http://www.w3.org/1999/xlink" contentStyleType="text/css" data-diagram-type="STATE" height="517px" preserveAspectRatio="none" style="width:706px;height:517px;background:#FFFFFF;" version="1.1" viewBox="0 0 706 517" width="706px" zoomAndPan="magnify"><title>Diagrama de estados de un investigador/docente (contexto de red de investigadores)</title><defs/><g><g class="title" data-source-line="1"><text fill="#000000" font-family="sans-serif" font-size="14" font-weight="bold" lengthAdjust="spacing" textLength="678.5625" x="10" y="22.9951">Diagrama de estados de un investigador/docente (contexto de red de investigadores)</text></g><ellipse cx="475.834" cy="53.2969" fill="#222222" rx="10" ry="10" style="stroke:#222222;stroke-width:1;"/><g><rect fill="#F1F1F1" height="50" rx="12.5" ry="12.5" style="stroke:#181818;stroke-width:0.5;" width="95.6875" x="427.984" y="124.2969"/><line style="stroke:#181818;stroke-width:0.5;" x1="427.984" x2="523.6715" y1="150.5938" y2="150.5938"/><text fill="#000000" font-family="sans-serif" font-size="14" lengthAdjust="spacing" textLength="75.6875" x="437.984" y="142.292">Registrado</text></g><g><rect fill="#F1F1F1" height="50" rx="12.5" ry="12.5" style="stroke:#181818;stroke-width:0.5;" width="63.5039" x="302.084" y="251.2969"/><line style="stroke:#181818;stroke-width:0.5;" x1="302.084" x2="365.5879" y1="277.5938" y2="277.5938"/><text fill="#000000" font-family="sans-serif" font-size="14" lengthAdjust="spacing" textLength="43.5039" x="312.084" y="269.292">Activo</text></g><g><rect fill="#F1F1F1" height="50" rx="12.5" ry="12.5" style="stroke:#181818;stroke-width:0.5;" width="75.5078" x="143.074" y="378.2969"/><line style="stroke:#181818;stroke-width:0.5;" x1="143.074" x2="218.5818" y1="404.5938" y2="404.5938"/><text fill="#000000" font-family="sans-serif" font-size="14" lengthAdjust="spacing" textLength="55.5078" x="153.074" y="396.292">Inactivo</text></g><g><rect fill="#F1F1F1" height="50" rx="12.5" ry="12.5" style="stroke:#181818;stroke-width:0.5;" width="89.0566" x="431.304" y="378.2969"/><line style="stroke:#181818;stroke-width:0.5;" x1="431.304" x2="520.3606" y1="404.5938" y2="404.5938"/><text fill="#000000" font-family="sans-serif" font-size="14" lengthAdjust="spacing" textLength="69.0566" x="441.304" y="396.292">Eliminado</text></g><ellipse cx="475.834" cy="500.2969" fill="none" rx="11" ry="11" style="stroke:#222222;stroke-width:1;"/><ellipse cx="475.834" cy="500.2969" fill="#222222" rx="6" ry="6" style="stroke:#222222;stroke-width:1;"/><!--link *start* to Registrado--><g class="link" data-entity-1="ent0002" data-entity-2="ent0003" data-link-type="dependency" data-source-line="3" id="lnk4"><path d="M475.834,63.6569 C475.834,77.5869 475.834,98.2469 475.834,117.9469" fill="none" id="*start*-to-Registrado" style="stroke:#181818;stroke-width:1;"/><polygon fill="#181818" points="475.834,123.9469,479.834,114.9469,475.834,118.9469,471.834,114.9469,475.834,123.9469" style="stroke:#181818;stroke-width:1;"/></g><!--link Registrado to Activo--><g class="link" data-entity-1="ent0003" data-entity-2="ent0005" data-link-type="dependency" data-source-line="5" id="lnk6"><path d="M448.114,174.6969 C423.094,196.7169 390.9783,224.9931 365.9783,246.9931" fill="none" id="Registrado-to-Activo" style="stroke:#181818;stroke-width:1;"/><polygon fill="#181818" points="361.474,250.9569,370.8729,248.0141,365.2275,247.6537,365.5879,242.0084,361.474,250.9569" style="stroke:#181818;stroke-width:1;"/><text fill="#000000" font-family="sans-serif" font-size="13" lengthAdjust="spacing" textLength="77.4287" x="414.834" y="217.3638">validarPerfil</text></g><!--link Activo to Inactivo--><g class="link" data-entity-1="ent0005" data-entity-2="ent0007" data-link-type="dependency" data-source-line="6" id="lnk8"><path d="M301.584,280.0369 C244.214,285.6469 128.164,300.5969 103.834,331.2969 C87.064,352.4569 110.2866,370.2852 137.2666,383.7652" fill="none" id="Activo-to-Inactivo" style="stroke:#181818;stroke-width:1;"/><polygon fill="#181818" points="142.634,386.4469,136.3707,378.8461,138.1612,384.2121,132.7951,386.0026,142.634,386.4469" style="stroke:#181818;stroke-width:1;"/><text fill="#000000" font-family="sans-serif" font-size="13" lengthAdjust="spacing" textLength="105.0664" x="104.834" y="344.3638">pausarActividad</text></g><!--link Inactivo to Activo--><g class="link" data-entity-1="ent0007" data-entity-2="ent0005" data-link-type="dependency" data-source-line="7" id="lnk9"><path d="M209.794,377.7969 C226.164,364.0369 247.044,346.5969 265.834,331.2969 C277.874,321.4869 286.5315,314.5634 298.1915,305.3234" fill="none" id="Inactivo-to-Activo" style="stroke:#181818;stroke-width:1;"/><polygon fill="#181818" points="302.894,301.5969,293.3559,304.0516,298.9752,304.7023,298.3246,310.3216,302.894,301.5969" style="stroke:#181818;stroke-width:1;"/><text fill="#000000" font-family="sans-serif" font-size="13" lengthAdjust="spacing" textLength="118.6948" x="266.834" y="344.3638">reactivarActividad</text></g><!--link Registrado to Eliminado--><g class="link" data-entity-1="ent0003" data-entity-2="ent0010" data-link-type="dependency" data-source-line="11" id="lnk11"><path d="M488.644,174.5469 C506.864,212.3569 535.944,287.3569 515.834,348.2969 C512.324,358.9369 509.5159,364.4572 502.7559,373.1172" fill="none" id="Registrado-to-Eliminado" style="stroke:#181818;stroke-width:1;"/><polygon fill="#181818" points="499.064,377.8469,507.755,373.2137,502.1406,373.9055,501.4488,368.2911,499.064,377.8469" style="stroke:#181818;stroke-width:1;"/><text fill="#000000" font-family="sans-serif" font-size="13" lengthAdjust="spacing" textLength="99.6646" x="523.834" y="280.8638">eliminarCuenta</text></g><!--link Activo to Eliminado--><g class="link" data-entity-1="ent0005" data-entity-2="ent0010" data-link-type="dependency" data-source-line="12" id="lnk12"><path d="M359.544,301.6269 C374.374,315.4969 393.454,333.0869 410.834,348.2969 C422.094,358.1569 430.0662,364.908 441.1662,374.068" fill="none" id="Activo-to-Eliminado" style="stroke:#181818;stroke-width:1;"/><polygon fill="#181818" points="445.794,377.8869,441.3983,369.0733,441.9375,374.7044,436.3064,375.2437,445.794,377.8869" style="stroke:#181818;stroke-width:1;"/><text fill="#000000" font-family="sans-serif" font-size="13" lengthAdjust="spacing" textLength="99.6646" x="411.834" y="344.3638">eliminarCuenta</text></g><!--link Eliminado to *end*--><g class="link" data-entity-1="ent0010" data-entity-2="ent0013" data-link-type="dependency" data-source-line="15" id="lnk14"><path d="M475.834,428.7569 C475.834,448.3369 475.834,468.7869 475.834,483.0969" fill="none" id="Eliminado-to-*end*" style="stroke:#181818;stroke-width:1;"/><polygon fill="#181818" points="475.834,489.0969,479.834,480.0969,475.834,484.0969,471.834,480.0969,475.834,489.0969" style="stroke:#181818;stroke-width:1;"/></g><!--SRC=[VOyz2m8n38Rt_8gCAeZx3OAeWvkuYaEunYFGQoND7Vvys_FZJWIdl7tUXuQOc6VS2JLABQ5Zv6JaOYgn2oYXpq2QZ7JbOit166TrpEDkiKZAheofo6aES5vSSBbSuuaRIQQP0unvg3QrIH-nmfwyED8ZwrKyl70n3e7UpeswH3fqsNNmgRv-KXxeL8IVlNilhOJogf2VMRTTFesck_zO06DPr7ph0m00]--></g></svg>