<svg xmlns="http://www.w3.org/2000/svg" xmlns:xlink="http://www.w3.org/1999/xlink" contentStyleType="text/css" data-diagram-type="STATE" height="660px" preserveAspectRatio="none" style="width:608px;height:660px;background:#FFFFFF;" version="1.1" viewBox="0 0 608 660" width="608px" zoomAndPan="magnify"><title>Diagrama de estados de un proyecto (contexto de red de investigadores)</title><defs/><g><g class="title" data-source-line="1"><text fill="#000000" font-family="sans-serif" font-size="14" font-weight="bold" lengthAdjust="spacing" textLength="580.4121" x="10" y="22.9951">Diagrama de estados de un proyecto (contexto de red de investigadores)</text></g><ellipse cx="283.8161" cy="53.2969" fill="#222222" rx="10" ry="10" style="stroke:#222222;stroke-width:1;"/><g><rect fill="#F1F1F1" height="50" rx="12.5" ry="12.5" style="stroke:#181818;stroke-width:0.5;" width="93.5684" x="237.0361" y="124.2969"/><line style="stroke:#181818;stroke-width:0.5;" x1="237.0361" x2="330.6044" y1="150.5938" y2="150.5938"/><text fill="#000000" font-family="sans-serif" font-size="14" lengthAdjust="spacing" textLength="73.5684" x="247.0361" y="142.292">Disponible</text></g><g><rect fill="#F1F1F1" height="50" rx="12.5" ry="12.5" style="stroke:#181818;stroke-width:0.5;" width="139.6563" x="121.9861" y="251.2969"/><line style="stroke:#181818;stroke-width:0.5;" x1="121.9861" x2="261.6423" y1="277.5938" y2="277.5938"/><text fill="#000000" font-family="sans-serif" font-size="14" lengthAdjust="spacing" textLength="119.6563" x="131.9861" y="269.292">EnReclutamiento</text></g><g><rect fill="#F1F1F1" height="50" rx="12.5" ry="12.5" style="stroke:#181818;stroke-width:0.5;" width="75.5078" x="199.0661" y="505.2969"/><line style="stroke:#181818;stroke-width:0.5;" x1="199.0661" x2="274.5739" y1="531.5938" y2="531.5938"/><text fill="#000000" font-family="sans-serif" font-size="14" lengthAdjust="spacing" textLength="55.5078" x="209.0661" y="523.292">Inactivo</text></g><g><rect fill="#F1F1F1" height="50" rx="12.5" ry="12.5" style="stroke:#181818;stroke-width:0.5;" width="63.5039" x="155.0661" y="378.2969"/><line style="stroke:#181818;stroke-width:0.5;" x1="155.0661" x2="218.57" y1="404.5938" y2="404.5938"/><text fill="#000000" font-family="sans-serif" font-size="14" lengthAdjust="spacing" textLength="43.5039" x="165.0661" y="396.292">Activo</text></g><ellipse cx="236.8161" cy="643.2969" fill="none" rx="11" ry="11" style="stroke:#222222;stroke-width:1;"/><ellipse cx="236.8161" cy="643.2969" fill="#222222" rx="6" ry="6" style="stroke:#222222;stroke-width:1;"/><!--link *start* to Disponible--><g class="link" data-entity-1="ent0002" data-entity-2="ent0003" data-link-type="dependency" data-source-line="3" id="lnk4"><path d="M283.8161,63.6569 C283.8161,77.5869 283.8161,98.2469 283.8161,117.9469" fill="none" id="*start*-to-Disponible" style="stroke:#181818;stroke-width:1;"/><polygon fill="#181818" points="283.8161,123.9469,287.8161,114.9469,283.8161,118.9469,279.8161,114.9469,283.8161,123.9469" style="stroke:#181818;stroke-width:1;"/></g><!--link Disponible to EnReclutamiento--><g class="link" data-entity-1="ent0003" data-entity-2="ent0005" data-link-type="dependency" data-source-line="5" id="lnk6"><path d="M237.9861,174.7769 C226.6361,182.8169 215.5261,192.7069 207.8161,204.2969 C198.6461,218.0769 195.3583,230.3869 193.6683,244.9369" fill="none" id="Disponible-to-EnReclutamiento" style="stroke:#181818;stroke-width:1;"/><polygon fill="#181818" points="192.9761,250.8969,197.9877,242.4185,193.5529,245.9303,190.0411,241.4955,192.9761,250.8969" style="stroke:#181818;stroke-width:1;"/><text fill="#000000" font-family="sans-serif" font-size="13" lengthAdjust="spacing" textLength="134.1895" x="208.8161" y="217.3638">iniciarReclutamiento</text></g><!--link Disponible to Inactivo--><g class="link" data-entity-1="ent0003" data-entity-2="ent0007" data-link-type="dependency" data-source-line="6" id="lnk8"><path d="M323.3661,174.5469 C333.1761,182.6869 342.4261,192.6969 347.8161,204.2969 C363.3661,237.7669 532.9161,126.9169 318.8161,475.2969 C308.5561,491.9969 296.2422,501.7299 279.9722,510.5399" fill="none" id="Disponible-to-Inactivo" style="stroke:#181818;stroke-width:1;"/><polygon fill="#181818" points="274.6961,513.3969,284.5149,512.6289,279.0928,511.0161,280.7056,505.594,274.6961,513.3969" style="stroke:#181818;stroke-width:1;"/><text fill="#000000" font-family="sans-serif" font-size="13" lengthAdjust="spacing" textLength="55.4214" x="397.8161" y="344.3638">cancelar</text></g><!--link EnReclutamiento to Activo--><g class="link" data-entity-1="ent0005" data-entity-2="ent0009" data-link-type="dependency" data-source-line="8" id="lnk10"><path d="M186.3361,301.6269 C184.5061,310.8669 182.7161,321.5169 181.8161,331.2969 C180.3961,346.7969 180.8891,358.2863 182.4691,371.9963" fill="none" id="EnReclutamiento-to-Activo" style="stroke:#181818;stroke-width:1;"/><polygon fill="#181818" points="183.1561,377.9569,186.0994,368.5581,182.5836,372.9898,178.152,369.474,183.1561,377.9569" style="stroke:#181818;stroke-width:1;"/><text fill="#000000" font-family="sans-serif" font-size="13" lengthAdjust="spacing" textLength="143.9395" x="182.8161" y="344.3638">asignarInvestigadores</text></g><!--link Activo to Inactivo--><g class="link" data-entity-1="ent0009" data-entity-2="ent0007" data-link-type="dependency" data-source-line="10" id="lnk11"><path d="M154.7361,414.5869 C122.6461,426.6469 80.4961,448.4669 98.8161,475.2969 C121.0761,507.9169 160.3287,519.8962 192.9387,525.0162" fill="none" id="Activo-to-Inactivo" style="stroke:#181818;stroke-width:1;"/><polygon fill="#181818" points="198.8661,525.9469,190.5954,520.5993,193.9266,525.1713,189.3545,528.5025,198.8661,525.9469" style="stroke:#181818;stroke-width:1;"/><text fill="#000000" font-family="sans-serif" font-size="13" lengthAdjust="spacing" textLength="44.5415" x="99.8161" y="471.3638">pausar</text></g><!--link Activo to Inactivo--><g class="link" data-entity-1="ent0009" data-entity-2="ent0007" data-link-type="dependency" data-source-line="11" id="lnk12"><path d="M181.4361,428.4869 C179.4261,442.6269 178.8661,460.5469 184.8161,475.2969 C189.2961,486.4069 193.0234,492.2542 201.4034,500.6342" fill="none" id="Activo-to-Inactivo-1" style="stroke:#181818;stroke-width:1;"/><polygon fill="#181818" points="205.6461,504.8769,202.1105,495.6845,202.1105,501.3413,196.4537,501.3413,205.6461,504.8769" style="stroke:#181818;stroke-width:1;"/><text fill="#000000" font-family="sans-serif" font-size="13" lengthAdjust="spacing" textLength="56.2656" x="185.8161" y="471.3638">terminar</text></g><!--link Inactivo to Activo--><g class="link" data-entity-1="ent0007" data-entity-2="ent0009" data-link-type="dependency" data-source-line="14" id="lnk13"><path d="M246.5761,505.0469 C250.7561,490.8769 253.3461,472.9669 246.8161,458.2969 C240.8861,444.9869 234.5471,437.3426 223.5571,428.4826" fill="none" id="Inactivo-to-Activo" style="stroke:#181818;stroke-width:1;"/><polygon fill="#181818" points="218.8861,424.7169,223.3822,433.4796,222.7786,427.855,228.4032,427.2515,218.8861,424.7169" style="stroke:#181818;stroke-width:1;"/><text fill="#000000" font-family="sans-serif" font-size="13" lengthAdjust="spacing" textLength="58.1699" x="251.8161" y="471.3638">reactivar</text></g><!--link Inactivo to *end*--><g class="link" data-entity-1="ent0007" data-entity-2="ent0014" data-link-type="dependency" data-source-line="15" id="lnk15"><path d="M236.8161,555.6569 C236.8161,579.5269 236.8161,608.7569 236.8161,626.0069" fill="none" id="Inactivo-to-*end*" style="stroke:#181818;stroke-width:1;"/><polygon fill="#181818" points="236.8161,632.0069,240.8161,623.0069,236.8161,627.0069,232.8161,623.0069,236.8161,632.0069" style="stroke:#181818;stroke-width:1;"/><text fill="#000000" font-family="sans-serif" font-size="13" lengthAdjust="spacing" textLength="51.7524" x="237.8161" y="598.3638">finalizar</text></g><!--SRC=[RP3D2i9038JlUOezgj0Ny208UkZLgtY8srW2ssp9fg8-lQa_I8kd7MQ-JC8QMwAmOsmLEmmD1Ig6JIwZ72JqckyKBOT5p69qS-M1KZC-B5UdkNLUgIm1ZgjJgAgDzvK-2vyJ0Vpq6EtbG34DXXsJM5vx1qT6dRYpcL0BHkEhqn4bKa85c1MzkEs7miAjeDQJym3UyQonnw5utz_CI3kMSHjypSaUfPVfm2JsNrY7YmycVg0-0G00]--></g></svg>