<svg xmlns="http://www.w3.org/2000/svg" xmlns:xlink="http://www.w3.org/1999/xlink" contentStyleType="text/css" data-diagram-type="STATE" height="660px" preserveAspectRatio="none" style="width:716px;height:660px;background:#FFFFFF;" version="1.1" viewBox="0 0 716 660" width="716px" zoomAndPan="magnify"><title>Diagrama de estados de un investigador/docente (contexto de gesti&#243;n de un proyecto)</title><defs/><g><g class="title" data-source-line="1"><text fill="#000000" font-family="sans-serif" font-size="14" font-weight="bold" lengthAdjust="spacing" textLength="688.5977" x="10" y="22.9951">Diagrama de estados de un investigador/docente (contexto de gesti&#243;n de un proyecto)</text></g><ellipse cx="63.2306" cy="53.2969" fill="#222222" rx="10" ry="10" style="stroke:#222222;stroke-width:1;"/><g><rect fill="#F1F1F1" height="50" rx="12.5" ry="12.5" style="stroke:#181818;stroke-width:0.5;" width="99.1328" x="13.6606" y="124.2969"/><line style="stroke:#181818;stroke-width:0.5;" x1="13.6606" x2="112.7934" y1="150.5938" y2="150.5938"/><text fill="#000000" font-family="sans-serif" font-size="14" lengthAdjust="spacing" textLength="79.1328" x="23.6606" y="142.292">EnProyecto</text></g><g><rect fill="#F1F1F1" height="50" rx="12.5" ry="12.5" style="stroke:#181818;stroke-width:0.5;" width="110.3643" x="198.0406" y="251.2969"/><line style="stroke:#181818;stroke-width:0.5;" x1="198.0406" x2="308.4048" y1="277.5938" y2="277.5938"/><text fill="#000000" font-family="sans-serif" font-size="14" lengthAdjust="spacing" textLength="90.3643" x="208.0406" y="269.292">Investigando</text></g><g><rect fill="#F1F1F1" height="50" rx="12.5" ry="12.5" style="stroke:#181818;stroke-width:0.5;" width="184.6641" x="335.8906" y="378.2969"/><line style="stroke:#181818;stroke-width:0.5;" x1="335.8906" x2="520.5546" y1="404.5938" y2="404.5938"/><text fill="#000000" font-family="sans-serif" font-size="14" lengthAdjust="spacing" textLength="164.6641" x="345.8906" y="396.292">PreparandoEntregables</text></g><g><rect fill="#F1F1F1" height="50" rx="12.5" ry="12.5" style="stroke:#181818;stroke-width:0.5;" width="176.4404" x="427.0106" y="505.2969"/><line style="stroke:#181818;stroke-width:0.5;" x1="427.0106" x2="603.451" y1="531.5938" y2="531.5938"/><text fill="#000000" font-family="sans-serif" font-size="14" lengthAdjust="spacing" textLength="156.4404" x="437.0106" y="523.292">RevisandoEntregables</text></g><g><rect fill="#F1F1F1" height="50" rx="12.5" ry="12.5" style="stroke:#181818;stroke-width:0.5;" width="79.2197" x="135.6206" y="505.2969"/><line style="stroke:#181818;stroke-width:0.5;" x1="135.6206" x2="214.8403" y1="531.5938" y2="531.5938"/><text fill="#000000" font-family="sans-serif" font-size="14" lengthAdjust="spacing" textLength="59.2197" x="145.6206" y="523.292">Pausado</text></g><ellipse cx="515.2306" cy="643.2969" fill="none" rx="11" ry="11" style="stroke:#222222;stroke-width:1;"/><ellipse cx="515.2306" cy="643.2969" fill="#222222" rx="6" ry="6" style="stroke:#222222;stroke-width:1;"/><!--link *start* to EnProyecto--><g class="link" data-entity-1="ent0002" data-entity-2="ent0003" data-link-type="dependency" data-source-line="3" id="lnk4"><path d="M63.2306,63.6569 C63.2306,77.5869 63.2306,98.2469 63.2306,117.9469" fill="none" id="*start*-to-EnProyecto" style="stroke:#181818;stroke-width:1;"/><polygon fill="#181818" points="63.2306,123.9469,67.2306,114.9469,63.2306,118.9469,59.2306,114.9469,63.2306,123.9469" style="stroke:#181818;stroke-width:1;"/></g><!--link EnProyecto to Investigando--><g class="link" data-entity-1="ent0003" data-entity-2="ent0005" data-link-type="dependency" data-source-line="5" id="lnk6"><path d="M100.3106,174.6969 C133.7906,196.7169 177.7781,225.6592 211.2181,247.6592" fill="none" id="EnProyecto-to-Investigando" style="stroke:#181818;stroke-width:1;"/><polygon fill="#181818" points="216.2306,250.9569,210.9103,242.6687,212.0535,248.2088,206.5133,249.352,216.2306,250.9569" style="stroke:#181818;stroke-width:1;"/><text fill="#000000" font-family="sans-serif" font-size="13" lengthAdjust="spacing" textLength="96.5605" x="170.2306" y="217.3638">iniciarProyecto</text></g><!--link Investigando to PreparandoEntregables--><g class="link" data-entity-1="ent0005" data-entity-2="ent0007" data-link-type="dependency" data-source-line="6" id="lnk8"><path d="M287.3806,301.6969 C318.2206,323.7169 358.4676,352.4702 389.2776,374.4702" fill="none" id="Investigando-to-PreparandoEntregables" style="stroke:#181818;stroke-width:1;"/><polygon fill="#181818" points="394.1606,377.9569,389.1606,369.4716,390.0914,375.0513,384.5117,375.9821,394.1606,377.9569" style="stroke:#181818;stroke-width:1;"/><text fill="#000000" font-family="sans-serif" font-size="13" lengthAdjust="spacing" textLength="105.46" x="351.2306" y="344.3638">resultadosListos</text></g><!--link PreparandoEntregables to RevisandoEntregables--><g class="link" data-entity-1="ent0007" data-entity-2="ent0009" data-link-type="dependency" data-source-line="7" id="lnk10"><path d="M432.1206,428.4969 C435.2906,442.9769 440.8306,461.2369 450.2306,475.2969 C457.7206,486.5169 463.5621,492.8779 473.9421,501.2579" fill="none" id="PreparandoEntregables-to-RevisandoEntregables" style="stroke:#181818;stroke-width:1;"/><polygon fill="#181818" points="478.6106,505.0269,474.1205,496.2611,474.7201,501.8861,469.0952,502.4857,478.6106,505.0269" style="stroke:#181818;stroke-width:1;"/><text fill="#000000" font-family="sans-serif" font-size="13" lengthAdjust="spacing" textLength="112.5503" x="451.2306" y="471.3638">enviarResultados</text></g><!--link Investigando to Pausado--><g class="link" data-entity-1="ent0005" data-entity-2="ent0011" data-link-type="dependency" data-source-line="8" id="lnk12"><path d="M234.4506,301.5269 C220.3406,321.1169 201.8506,349.9769 192.2306,378.2969 C177.6606,421.1369 175.016,468.347 174.836,498.807" fill="none" id="Investigando-to-Pausado" style="stroke:#181818;stroke-width:1;"/><polygon fill="#181818" points="174.8006,504.8069,178.8537,495.8307,174.8301,499.807,170.8538,495.7834,174.8006,504.8069" style="stroke:#181818;stroke-width:1;"/><text fill="#000000" font-family="sans-serif" font-size="13" lengthAdjust="spacing" textLength="124.9409" x="193.2306" y="407.8638">pausarPorRecursos</text></g><!--link PreparandoEntregables to Pausado--><g class="link" data-entity-1="ent0007" data-entity-2="ent0011" data-link-type="dependency" data-source-line="9" id="lnk13"><path d="M378.8406,428.6969 C331.1006,452.2869 265.0394,484.9184 220.7094,506.8284" fill="none" id="PreparandoEntregables-to-Pausado" style="stroke:#181818;stroke-width:1;"/><polygon fill="#181818" points="215.3306,509.4869,225.1712,509.085,219.813,507.2715,221.6265,501.9132,215.3306,509.4869" style="stroke:#181818;stroke-width:1;"/><text fill="#000000" font-family="sans-serif" font-size="13" lengthAdjust="spacing" textLength="104.5903" x="317.2306" y="471.3638">esperarRevision</text></g><!--link Pausado to EnProyecto--><g class="link" data-entity-1="ent0011" data-entity-2="ent0003" data-link-type="dependency" data-source-line="10" id="lnk14"><path d="M158.1006,504.9269 C135.5706,471.4069 96.7806,408.3869 79.2306,348.2969 C61.5306,287.7169 60.785,218.5643 61.895,180.6343" fill="none" id="Pausado-to-EnProyecto" style="stroke:#181818;stroke-width:1;"/><polygon fill="#181818" points="62.0706,174.6369,57.809,183.516,61.9243,179.6347,65.8056,183.75,62.0706,174.6369" style="stroke:#181818;stroke-width:1;"/><text fill="#000000" font-family="sans-serif" font-size="13" lengthAdjust="spacing" textLength="116.3779" x="80.2306" y="344.3638">reanudarProyecto</text></g><!--link RevisandoEntregables to Investigando--><g class="link" data-entity-1="ent0009" data-entity-2="ent0005" data-link-type="dependency" data-source-line="11" id="lnk15"><path d="M546.9806,504.9769 C555.5206,496.6069 563.6506,486.4869 568.2306,475.2969 C585.3006,433.5269 566.5606,413.4169 538.2306,378.2969 C482.1206,308.7369 380.5593,287.6388 314.8193,280.8988" fill="none" id="RevisandoEntregables-to-Investigando" style="stroke:#181818;stroke-width:1;"/><polygon fill="#181818" points="308.8506,280.2869,317.3957,285.1839,313.8245,280.7968,318.2116,277.2256,308.8506,280.2869" style="stroke:#181818;stroke-width:1;"/><text fill="#000000" font-family="sans-serif" font-size="13" lengthAdjust="spacing" textLength="135.7065" x="572.2306" y="407.8638">solicitarCorrecciones</text></g><!--link RevisandoEntregables to *end*--><g class="link" data-entity-1="ent0009" data-entity-2="ent0016" data-link-type="dependency" data-source-line="12" id="lnk17"><path d="M515.2306,555.6569 C515.2306,579.5269 515.2306,608.7569 515.2306,626.0069" fill="none" id="RevisandoEntregables-to-*end*" style="stroke:#181818;stroke-width:1;"/><polygon fill="#181818" points="515.2306,632.0069,519.2306,623.0069,515.2306,627.0069,511.2306,623.0069,515.2306,632.0069" style="stroke:#181818;stroke-width:1;"/><text fill="#000000" font-family="sans-serif" font-size="13" lengthAdjust="spacing" textLength="127.5181" x="516.2306" y="598.3638">aceptarEntregables</text></g><!--SRC=[VL6zQWCn3Dxz51xRGkYUeKkQeT3Xo1eoABOu35V9IFRHFbSUeIzM-SWlkNIohEzFbaig0_ht1Bt05_Y87hL0P6rb9Pzej4RghIMlaGDIGVyKs8xlmetKD_ptG4T15lx1KFZPkUtBpYyMRtvDtR7ftAMUe8-JFKNsIqjB8O6SwJTmutU26QHTrrG4UzWFg2OKr3fCStycBQnkdjWiDZWclNT06YrvS_QPoOQgC8sPMoKT6prKqN_ZBYhKZD8YB3ynkHDokwBfCK0rNgrXTkIPzIaFjhy2ic8H3C5IK1-hs_yiFGJC9ha2_m00]--></g></svg>