<?xml version="1.0" encoding="us-ascii" standalone="no"?><svg xmlns="http://www.w3.org/2000/svg" xmlns:xlink="http://www.w3.org/1999/xlink" contentStyleType="text/css" height="840px" preserveAspectRatio="none" style="width:619px;height:840px;background:#FFFFFF;" version="1.1" viewBox="0 0 619 840" width="619px" zoomAndPan="magnify"><defs/><g><g id="in1"><rect fill="#F1F1F1" height="50" rx="12.5" ry="12.5" style="stroke:#181818;stroke-width:0.5;" width="180" x="216.5" y="7"/><line style="stroke:#181818;stroke-width:0.5;" x1="216.5" x2="396.5" y1="34.6094" y2="34.6094"/><text fill="#000000" font-family="sans-serif" font-size="14" lengthAdjust="spacing" textLength="160" x="226.5" y="26.5332">ENTREGABLE_ABIERTO</text></g><path d="M19.5,118 L593.5,118 A12.5,12.5 0 0 1 606,130.5 L606,145.6094 L7,145.6094 L7,130.5 A12.5,12.5 0 0 1 19.5,118 " fill="#F1F1F1" style="stroke:#F1F1F1;stroke-width:1.0;"/><rect fill="none" height="569.6094" rx="12.5" ry="12.5" style="stroke:#181818;stroke-width:0.5;" width="599" x="7" y="118"/><line style="stroke:#181818;stroke-width:0.5;" x1="7" x2="606" y1="145.6094" y2="145.6094"/><text fill="#000000" font-family="sans-serif" font-size="14" lengthAdjust="spacing" textLength="128" x="242.5" y="137.5332">eliminarEntregable()</text><g id="eliminarEntregable.SolicitandoEliminacion"><rect fill="#F1F1F1" height="50" rx="12.5" ry="12.5" style="stroke:#181818;stroke-width:0.5;" width="50" x="150" y="248.6094"/><line style="stroke:#181818;stroke-width:0.5;" x1="150" x2="200" y1="276.2188" y2="276.2188"/><text fill="#000000" font-family="sans-serif" font-size="14" lengthAdjust="spacing" textLength="4" x="173" y="268.1426">&#160;</text></g><g id="eliminarEntregable.ConfirmandoEliminacion"><rect fill="#F1F1F1" height="50" rx="12.5" ry="12.5" style="stroke:#181818;stroke-width:0.5;" width="50" x="150" y="517.6094"/><line style="stroke:#181818;stroke-width:0.5;" x1="150" x2="200" y1="545.2188" y2="545.2188"/><text fill="#000000" font-family="sans-serif" font-size="14" lengthAdjust="spacing" textLength="4" x="173" y="537.1426">&#160;</text></g><ellipse cx="175" cy="166.6094" fill="#222222" rx="10" ry="10" style="stroke:#222222;stroke-width:1.0;"/><ellipse cx="175" cy="666.6094" fill="none" rx="11" ry="11" style="stroke:#222222;stroke-width:1.0;"/><ellipse cx="175" cy="666.6094" fill="#222222" rx="6" ry="6" style="stroke:#222222;stroke-width:1.0;"/><!--link *start*eliminarEntregable to SolicitandoEliminacion--><g id="link_*start*eliminarEntregable_SolicitandoEliminacion"><path d="M175,176.9294 C175,192.7894 175,219.5194 175,242.2494 " fill="none" id="*start*eliminarEntregable-to-SolicitandoEliminacion" style="stroke:#008000;stroke-width:1.0;"/><polygon fill="#008000" points="175,248.2494,179,239.2494,175,243.2494,171,239.2494,175,248.2494" style="stroke:#008000;stroke-width:1.0;"/><path d="M180,199.6094 L180,225.6094 L490,225.6094 L490,209.6094 L480,199.6094 L180,199.6094 " fill="#FEFFDD" style="stroke:#181818;stroke-width:0.5;"/><path d="M480,199.6094 L480,209.6094 L490,209.6094 L480,199.6094 " fill="#FEFFDD" style="stroke:#181818;stroke-width:0.5;"/><text fill="#000000" font-family="sans-serif" font-size="13" font-weight="bold" lengthAdjust="spacing" textLength="78" x="186" y="218.1045">Investigador</text><text fill="#000000" font-family="sans-serif" font-size="13" lengthAdjust="spacing" textLength="207" x="268" y="218.1045">solicita eliminar el entregable propio</text></g><!--link SolicitandoEliminacion to ConfirmandoEliminacion--><g id="link_SolicitandoEliminacion_ConfirmandoEliminacion"><path d="M175,298.7794 C175,349.4794 175,460.4794 175,511.3094 " fill="none" id="SolicitandoEliminacion-to-ConfirmandoEliminacion" style="stroke:#008000;stroke-width:1.0;"/><polygon fill="#008000" points="175,517.3094,179,508.3094,175,512.3094,171,508.3094,175,517.3094" style="stroke:#008000;stroke-width:1.0;"/><path d="M180,321.6094 L180,494.6094 L495,494.6094 L495,331.6094 L485,321.6094 L180,321.6094 " fill="#FEFFDD" style="stroke:#181818;stroke-width:0.5;"/><path d="M485,321.6094 L485,331.6094 L495,331.6094 L485,321.6094 " fill="#FEFFDD" style="stroke:#181818;stroke-width:0.5;"/><text fill="#000000" font-family="sans-serif" font-size="13" font-weight="bold" lengthAdjust="spacing" textLength="51" x="186" y="340.1045">Sistema</text><text fill="#000000" font-family="sans-serif" font-size="13" lengthAdjust="spacing" textLength="239" x="241" y="340.1045">presenta una confirmaci&#243;n de eliminaci&#243;n</text><text fill="#000000" font-family="sans-serif" font-size="13" font-weight="bold" lengthAdjust="spacing" textLength="51" x="186" y="356.4561">Sistema</text><text fill="#000000" font-family="sans-serif" font-size="13" lengthAdjust="spacing" textLength="206" x="241" y="356.4561">muestra informaci&#243;n del entregable:</text><text fill="#000000" font-family="sans-serif" font-size="13" lengthAdjust="spacing" textLength="21" x="186" y="372.8076">&#8226; ID</text><text fill="#000000" font-family="sans-serif" font-size="13" lengthAdjust="spacing" textLength="40" x="186" y="389.1592">&#8226; T&#237;tulo</text><text fill="#000000" font-family="sans-serif" font-size="13" lengthAdjust="spacing" textLength="33" x="186" y="405.5107">&#8226; Tipo</text><text fill="#000000" font-family="sans-serif" font-size="13" lengthAdjust="spacing" textLength="50" x="186" y="421.8623">&#8226; Estado</text><text fill="#000000" font-family="sans-serif" font-size="13" lengthAdjust="spacing" textLength="4" x="186" y="438.2139">&#160;</text><text fill="#000000" font-family="sans-serif" font-size="13" font-weight="bold" lengthAdjust="spacing" textLength="51" x="186" y="454.5654">Sistema</text><text fill="#000000" font-family="sans-serif" font-size="13" lengthAdjust="spacing" textLength="96" x="241" y="454.5654">permite solicitar:</text><text fill="#000000" font-family="sans-serif" font-size="13" lengthAdjust="spacing" textLength="133" x="186" y="470.917">&#8226; Confirmar eliminaci&#243;n</text><text fill="#000000" font-family="sans-serif" font-size="13" lengthAdjust="spacing" textLength="60" x="186" y="487.2686">&#8226; Cancelar</text></g><!--link ConfirmandoEliminacion to *end*eliminarEntregable--><g id="link_ConfirmandoEliminacion_*end*eliminarEntregable"><path d="M149.78,550.3594 C105.39,562.2294 18,585.6094 18,585.6094 C18,585.6094 18,637.6094 18,637.6094 C18,637.6094 122.8333,656.3053 158.3033,662.6353 " fill="none" id="ConfirmandoEliminacion-to-*end*eliminarEntregable" style="stroke:#008000;stroke-width:1.0;"/><polygon fill="#008000" points="164.21,663.6894,156.0527,658.1704,159.2878,662.811,154.6472,666.046,164.21,663.6894" style="stroke:#008000;stroke-width:1.0;"/><path d="M23,598.6094 L23,624.6094 L307,624.6094 L307,608.6094 L297,598.6094 L23,598.6094 " fill="#FEFFDD" style="stroke:#181818;stroke-width:0.5;"/><path d="M297,598.6094 L297,608.6094 L307,608.6094 L297,598.6094 " fill="#FEFFDD" style="stroke:#181818;stroke-width:0.5;"/><text fill="#000000" font-family="sans-serif" font-size="13" font-weight="bold" lengthAdjust="spacing" textLength="78" x="29" y="617.1045">Investigador</text><text fill="#000000" font-family="sans-serif" font-size="13" lengthAdjust="spacing" textLength="181" x="111" y="617.1045">solicita confirmar la eliminaci&#243;n</text></g><!--link ConfirmandoEliminacion to *end*eliminarEntregable--><g id="link_ConfirmandoEliminacion_*end*eliminarEntregable"><path d="M200.13,551.3094 C239.68,563.4394 312,585.6094 312,585.6094 C312,585.6094 312,637.6094 312,637.6094 C312,637.6094 223.9285,655.6082 191.6285,662.2082 " fill="none" id="ConfirmandoEliminacion-to-*end*eliminarEntregable-1" style="stroke:#FF0000;stroke-width:1.0;"/><polygon fill="#FF0000" points="185.75,663.4094,195.3686,665.5266,190.6488,662.4084,193.767,657.6886,185.75,663.4094" style="stroke:#FF0000;stroke-width:1.0;"/><path d="M317,590.6094 L317,632.6094 L597,632.6094 L597,600.6094 L587,590.6094 L317,590.6094 " fill="#FEFFDD" style="stroke:#181818;stroke-width:0.5;"/><path d="M587,590.6094 L587,600.6094 L597,600.6094 L587,590.6094 " fill="#FEFFDD" style="stroke:#181818;stroke-width:0.5;"/><text fill="#000000" font-family="sans-serif" font-size="13" font-weight="bold" lengthAdjust="spacing" textLength="78" x="323" y="609.1045">Investigador</text><text fill="#000000" font-family="sans-serif" font-size="13" lengthAdjust="spacing" textLength="177" x="405" y="609.1045">solicita cancelar la eliminaci&#243;n</text><text fill="#000000" font-family="sans-serif" font-size="13" font-weight="bold" lengthAdjust="spacing" textLength="51" x="323" y="625.4561">Sistema</text><text fill="#000000" font-family="sans-serif" font-size="13" lengthAdjust="spacing" textLength="202" x="378" y="625.4561">presenta el entregable sin cambios</text></g><g id="ENTREGABLES_ABIERTOS"><rect fill="#F1F1F1" height="50" rx="12.5" ry="12.5" style="stroke:#181818;stroke-width:0.5;" width="198" x="95.5" y="784"/><line style="stroke:#181818;stroke-width:0.5;" x1="95.5" x2="293.5" y1="811.6094" y2="811.6094"/><text fill="#000000" font-family="sans-serif" font-size="14" lengthAdjust="spacing" textLength="178" x="105.5" y="803.5332">ENTREGABLES_ABIERTOS</text></g><g id="ENTREGABLE_ABIERTO"><rect fill="#F1F1F1" height="50" rx="12.5" ry="12.5" style="stroke:#181818;stroke-width:0.5;" width="180" x="328.5" y="784"/><line style="stroke:#181818;stroke-width:0.5;" x1="328.5" x2="508.5" y1="811.6094" y2="811.6094"/><text fill="#000000" font-family="sans-serif" font-size="14" lengthAdjust="spacing" textLength="160" x="338.5" y="803.5332">ENTREGABLE_ABIERTO</text></g><!--link in1 to eliminarEntregable--><g id="link_in1_eliminarEntregable"><path d="M306.5,57.21 C306.5,72.28 306.5,87.44 306.5,111.95 " fill="none" id="in1-to-eliminarEntregable" style="stroke:#008000;stroke-width:1.0;"/><polygon fill="#008000" points="306.5,117.95,310.5,108.95,306.5,112.95,302.5,108.95,306.5,117.95" style="stroke:#008000;stroke-width:1.0;"/></g><!--link eliminarEntregable to ENTREGABLES_ABIERTOS--><g id="link_eliminarEntregable_ENTREGABLES_ABIERTOS"><path d="M227.72,688.15 C216.8,727.55 208.8733,756.1482 202.8533,777.8582 " fill="none" id="eliminarEntregable-to-ENTREGABLES_ABIERTOS" style="stroke:#008000;stroke-width:1.0;"/><polygon fill="#008000" points="201.25,783.64,207.5094,776.0361,202.586,778.8218,199.8003,773.8984,201.25,783.64" style="stroke:#008000;stroke-width:1.0;"/><path d="M224.5,723 L224.5,749 L366.5,749 L366.5,733 L356.5,723 L224.5,723 " fill="#FEFFDD" style="stroke:#181818;stroke-width:0.5;"/><path d="M356.5,723 L356.5,733 L366.5,733 L356.5,723 " fill="#FEFFDD" style="stroke:#181818;stroke-width:0.5;"/><text fill="#000000" font-family="sans-serif" font-size="13" lengthAdjust="spacing" textLength="121" x="230.5" y="741.4951">Entregable eliminado</text></g><!--link eliminarEntregable to ENTREGABLE_ABIERTO--><g id="link_eliminarEntregable_ENTREGABLE_ABIERTO"><path d="M385.28,688.15 C396.2,727.55 404.1267,756.1482 410.1467,777.8582 " fill="none" id="eliminarEntregable-to-ENTREGABLE_ABIERTO" style="stroke:#FF0000;stroke-width:1.0;"/><polygon fill="#FF0000" points="411.75,783.64,413.1997,773.8984,410.414,778.8218,405.4906,776.0361,411.75,783.64" style="stroke:#FF0000;stroke-width:1.0;"/><path d="M406.5,723 L406.5,749 L522.5,749 L522.5,733 L512.5,723 L406.5,723 " fill="#FEFFDD" style="stroke:#181818;stroke-width:0.5;"/><path d="M512.5,723 L512.5,733 L522.5,733 L512.5,723 " fill="#FEFFDD" style="stroke:#181818;stroke-width:0.5;"/><text fill="#000000" font-family="sans-serif" font-size="13" lengthAdjust="spacing" textLength="95" x="412.5" y="741.4951">abrirEntregable()</text></g><!--SRC=[fLJHIiCm57tFLuJwei8GNsKCDYqo48LrRsD8scRZilIc99amHF1RVFV9JzYV-2LcMTSsDXFHzYKtkVVqd7FJgrU09LEie0AGcqt9QId5PXSGeWqpd09UKgPf5DzF9_7jS7GNFmv7utWoVOZ8xgmtEragpd7U6r0ke01aAaQZ-9AbeaRfdZZGxlRfMKIV2Q7ssLT6zhMfYHIGWM6OotXVb874Rjwrn0MeudkUIvoTppswFs2Yj90ITxQit4O_7OpnYMi3IvPBrRz81rHNzRKwkw2yKLWgMO9qvHnpXxad4lwmn-s8ZcFS4j265ypHAXNNbWMZQsGqgt0os7uWpUjEk3XKNQojICLitnUoLTSMTkNgFb_VwFYcNawtxsOjP1D3sGInxL4kIP0jLmLOGGSpLOD-y41rIRjZXXaNJ0KC3hld6MmlmnywdTMK1Eko-Yq9nVD_KAXa1naSkmh-nTI05gP8GMgVzmiXWJ-rRLip1fB374Y89w1LM67PpZVEXF4hHxf3niTcgG9lM3J0Nm00]--></g></svg>