<?xml version="1.0" encoding="us-ascii" standalone="no"?><svg xmlns="http://www.w3.org/2000/svg" xmlns:xlink="http://www.w3.org/1999/xlink" contentStyleType="text/css" height="839px" preserveAspectRatio="none" style="width:468px;height:839px;background:#FFFFFF;" version="1.1" viewBox="0 0 468 839" width="468px" zoomAndPan="magnify"><defs/><g><g id="SESION_CERRADA"><rect fill="#F1F1F1" height="50" rx="12.5" ry="12.5" style="stroke:#181818;stroke-width:0.5;" width="145" x="137" y="7"/><line style="stroke:#181818;stroke-width:0.5;" x1="137" x2="282" y1="34.6094" y2="34.6094"/><text fill="#000000" font-family="sans-serif" font-size="14" lengthAdjust="spacing" textLength="125" x="147" y="26.5332">SESION_CERRADA</text></g><path d="M19.5,118 L399.5,118 A12.5,12.5 0 0 1 412,130.5 L412,145.6094 L7,145.6094 L7,130.5 A12.5,12.5 0 0 1 19.5,118 " fill="#F1F1F1" style="stroke:#F1F1F1;stroke-width:1.0;"/><rect fill="none" height="568.6094" rx="12.5" ry="12.5" style="stroke:#181818;stroke-width:0.5;" width="405" x="7" y="118"/><line style="stroke:#181818;stroke-width:0.5;" x1="7" x2="412" y1="145.6094" y2="145.6094"/><text fill="#000000" font-family="sans-serif" font-size="14" lengthAdjust="spacing" textLength="90" x="164.5" y="137.5332">iniciarSesion()</text><g id="iniciarSesion.SolicitandoAcceso"><rect fill="#F1F1F1" height="50" rx="12.5" ry="12.5" style="stroke:#181818;stroke-width:0.5;" width="50" x="114" y="248.6094"/><line style="stroke:#181818;stroke-width:0.5;" x1="114" x2="164" y1="276.2188" y2="276.2188"/><text fill="#000000" font-family="sans-serif" font-size="14" lengthAdjust="spacing" textLength="4" x="137" y="268.1426">&#160;</text></g><g id="iniciarSesion.ProporcionandoCredenciales"><rect fill="#F1F1F1" height="50" rx="12.5" ry="12.5" style="stroke:#181818;stroke-width:0.5;" width="50" x="19" y="403.6094"/><line style="stroke:#181818;stroke-width:0.5;" x1="19" x2="69" y1="431.2188" y2="431.2188"/><text fill="#000000" font-family="sans-serif" font-size="14" lengthAdjust="spacing" textLength="4" x="42" y="423.1426">&#160;</text></g><g id="elem_c"><polygon fill="#F1F1F1" points="144,558.6094,156,570.6094,144,582.6094,132,570.6094,144,558.6094" style="stroke:#181818;stroke-width:0.5;"/></g><ellipse cx="139" cy="166.6094" fill="#222222" rx="10" ry="10" style="stroke:#222222;stroke-width:1.0;"/><ellipse cx="144" cy="665.6094" fill="none" rx="11" ry="11" style="stroke:#222222;stroke-width:1.0;"/><ellipse cx="144" cy="665.6094" fill="#222222" rx="6" ry="6" style="stroke:#222222;stroke-width:1.0;"/><!--link *start*iniciarSesion to SolicitandoAcceso--><g id="link_*start*iniciarSesion_SolicitandoAcceso"><path d="M139,176.9294 C139,192.7894 139,219.5194 139,242.2494 " fill="none" id="*start*iniciarSesion-to-SolicitandoAcceso" style="stroke:#008000;stroke-width:1.0;"/><polygon fill="#008000" points="139,248.2494,143,239.2494,139,243.2494,135,239.2494,139,248.2494" style="stroke:#008000;stroke-width:1.0;"/><path d="M144,199.6094 L144,225.6094 L403,225.6094 L403,209.6094 L393,199.6094 L144,199.6094 " fill="#FEFFDD" style="stroke:#181818;stroke-width:0.5;"/><path d="M393,199.6094 L393,209.6094 L403,209.6094 L393,199.6094 " fill="#FEFFDD" style="stroke:#181818;stroke-width:0.5;"/><text fill="#000000" font-family="sans-serif" font-size="13" font-weight="bold" lengthAdjust="spacing" textLength="79" x="150" y="218.1045">Coordinador</text><text fill="#000000" font-family="sans-serif" font-size="13" lengthAdjust="spacing" textLength="155" x="233" y="218.1045">solicita acceder al sistema</text></g><!--link SolicitandoAcceso to ProporcionandoCredenciales--><g id="link_SolicitandoAcceso_ProporcionandoCredenciales"><path d="M113.76,285.3194 C84.43,297.7594 40,316.6094 40,316.6094 C40,316.6094 40,385.6094 40,385.6094 C40,385.6094 40.2211,387.9664 41.1011,397.2064 " fill="none" id="SolicitandoAcceso-to-ProporcionandoCredenciales" style="stroke:#008000;stroke-width:1.0;"/><polygon fill="#008000" points="41.67,403.1794,44.7987,393.8407,41.196,398.2019,36.8347,394.5992,41.67,403.1794" style="stroke:#008000;stroke-width:1.0;"/><path d="M45,321.6094 L45,380.6094 L221,380.6094 L221,331.6094 L211,321.6094 L45,321.6094 " fill="#FEFFDD" style="stroke:#181818;stroke-width:0.5;"/><path d="M211,321.6094 L211,331.6094 L221,331.6094 L211,321.6094 " fill="#FEFFDD" style="stroke:#181818;stroke-width:0.5;"/><text fill="#000000" font-family="sans-serif" font-size="13" font-weight="bold" lengthAdjust="spacing" textLength="51" x="51" y="340.1045">Sistema</text><text fill="#000000" font-family="sans-serif" font-size="13" lengthAdjust="spacing" textLength="100" x="106" y="340.1045">permite introducir</text><text fill="#000000" font-family="sans-serif" font-size="13" lengthAdjust="spacing" textLength="51" x="51" y="356.4561">&#8226; usuario</text><text fill="#000000" font-family="sans-serif" font-size="13" lengthAdjust="spacing" textLength="73" x="51" y="372.8076">&#8226; contrase&#241;a</text></g><!--link ProporcionandoCredenciales to c--><g id="link_ProporcionandoCredenciales_c"><path d="M47.25,453.6994 C51.67,486.3394 59,540.6094 59,540.6094 C59,540.6094 108.361,557.4532 129.861,564.7832 " fill="none" id="ProporcionandoCredenciales-to-c" style="stroke:#008000;stroke-width:1.0;"/><polygon fill="#008000" points="135.54,566.7194,128.3122,560.0291,130.8075,565.1059,125.7307,567.6012,135.54,566.7194" style="stroke:#008000;stroke-width:1.0;"/><path d="M64,476.6094 L64,535.6094 L221,535.6094 L221,486.6094 L211,476.6094 L64,476.6094 " fill="#FEFFDD" style="stroke:#181818;stroke-width:0.5;"/><path d="M211,476.6094 L211,486.6094 L221,486.6094 L211,476.6094 " fill="#FEFFDD" style="stroke:#181818;stroke-width:0.5;"/><text fill="#000000" font-family="sans-serif" font-size="13" font-weight="bold" lengthAdjust="spacing" textLength="79" x="70" y="495.1045">Coordinador</text><text fill="#000000" font-family="sans-serif" font-size="13" lengthAdjust="spacing" textLength="53" x="153" y="495.1045">introduce</text><text fill="#000000" font-family="sans-serif" font-size="13" lengthAdjust="spacing" textLength="51" x="70" y="511.4561">&#8226; usuario</text><text fill="#000000" font-family="sans-serif" font-size="13" lengthAdjust="spacing" textLength="73" x="70" y="527.8076">&#8226; contrase&#241;a</text></g><!--link c to SolicitandoAcceso--><g id="link_c_SolicitandoAcceso"><path d="M152.16,566.7194 C172.9,559.3894 226,540.6094 226,540.6094 C226,540.6094 226,316.6094 226,316.6094 C226,316.6094 195.2639,301.7667 169.5639,289.3667 " fill="none" id="c-to-SolicitandoAcceso" style="stroke:#FF0000;stroke-width:1.0;"/><polygon fill="#FF0000" points="164.16,286.7594,170.5276,294.2729,168.6632,288.9321,174.004,287.0678,164.16,286.7594" style="stroke:#FF0000;stroke-width:1.0;"/><path d="M231,415.6094 L231,441.6094 L393,441.6094 L393,425.6094 L383,415.6094 L231,415.6094 " fill="#FEFFDD" style="stroke:#181818;stroke-width:0.5;"/><path d="M383,415.6094 L383,425.6094 L393,425.6094 L383,415.6094 " fill="#FEFFDD" style="stroke:#181818;stroke-width:0.5;"/><text fill="#000000" font-family="sans-serif" font-size="13" lengthAdjust="spacing" textLength="141" x="237" y="434.1045">credenciales incorrectas</text></g><!--link c to *end*iniciarSesion--><g id="link_c_*end*iniciarSesion"><path d="M144,582.6394 C144,600.8294 144,630.8394 144,648.4394 " fill="none" id="c-to-*end*iniciarSesion" style="stroke:#008000;stroke-width:1.0;"/><polygon fill="#008000" points="144,654.4394,148,645.4394,144,649.4394,140,645.4394,144,654.4394" style="stroke:#008000;stroke-width:1.0;"/><path d="M149,605.6094 L149,631.6094 L301,631.6094 L301,615.6094 L291,605.6094 L149,605.6094 " fill="#FEFFDD" style="stroke:#181818;stroke-width:0.5;"/><path d="M291,605.6094 L291,615.6094 L301,615.6094 L291,605.6094 " fill="#FEFFDD" style="stroke:#181818;stroke-width:0.5;"/><text fill="#000000" font-family="sans-serif" font-size="13" lengthAdjust="spacing" textLength="131" x="155" y="624.1045">credenciales correctas</text></g><g id="PANEL_PRINCIPAL_ABIERTO"><rect fill="#F1F1F1" height="50" rx="12.5" ry="12.5" style="stroke:#181818;stroke-width:0.5;" width="210" x="104.5" y="783"/><line style="stroke:#181818;stroke-width:0.5;" x1="104.5" x2="314.5" y1="810.6094" y2="810.6094"/><text fill="#000000" font-family="sans-serif" font-size="14" lengthAdjust="spacing" textLength="190" x="114.5" y="802.5332">PANEL_PRINCIPAL_ABIERTO</text></g><!--link SESION_CERRADA to iniciarSesion--><g id="link_SESION_CERRADA_iniciarSesion"><path d="M209.5,57.18 C209.5,72.23 209.5,87.36 209.5,111.83 " fill="none" id="SESION_CERRADA-to-iniciarSesion" style="stroke:#008000;stroke-width:1.0;"/><polygon fill="#008000" points="209.5,117.83,213.5,108.83,209.5,112.83,205.5,108.83,209.5,117.83" style="stroke:#008000;stroke-width:1.0;"/></g><!--link iniciarSesion to PANEL_PRINCIPAL_ABIERTO--><g id="link_iniciarSesion_PANEL_PRINCIPAL_ABIERTO"><path d="M209.5,687.03 C209.5,726.46 209.5,754.87 209.5,776.61 " fill="none" id="iniciarSesion-to-PANEL_PRINCIPAL_ABIERTO" style="stroke:#008000;stroke-width:1.0;"/><polygon fill="#008000" points="209.5,782.61,213.5,773.61,209.5,777.61,205.5,773.61,209.5,782.61" style="stroke:#008000;stroke-width:1.0;"/><path d="M214.5,722 L214.5,748 L461.5,748 L461.5,732 L451.5,722 L214.5,722 " fill="#FEFFDD" style="stroke:#181818;stroke-width:0.5;"/><path d="M451.5,722 L451.5,732 L461.5,732 L451.5,722 " fill="#FEFFDD" style="stroke:#181818;stroke-width:0.5;"/><text fill="#000000" font-family="sans-serif" font-size="13" font-weight="bold" lengthAdjust="spacing" textLength="79" x="220.5" y="740.4951">Coordinador</text><text fill="#000000" font-family="sans-serif" font-size="13" lengthAdjust="spacing" textLength="143" x="303.5" y="740.4951">accede al panel principal</text></g><!--SRC=[dP9HIiD048RVznHBVL6XU84GY34FWTAMnBTIodGpwD9qPvbD7ue8diKRU0PluadS95fScc8r2u4T_fd_czbn6sqiC6nbhGqsUulIKhrlBqAKMPdFfgiqAuhaBf7ZnSK38vhbE9RQQAM1ItIQZ12kWGR3e0GdHq7ayceaduIG_klr8t-yggJQgnem5ILAeQDZoPp94YjVf5MbZ1KQNxX6zqEhP1IfHz8AuxYtMLml0-fX9qC-sGFxfZTT85h7AH5Nsa157DsiO-c-CYNul0fPGYsTTWrkeKj1KtLrUjyZdu3YbsQ6SChUgaEno5lTJRjXgdPASwVwU7cLExS3rdIuA_8QSFZ-DaHvcYF0LMSFwPi8_mcaMb-FyOUdKZ-fjL74ZAe1TwhweIk_6cTKF57lMOXmruFdJQRPP3KlyccQpvF9AhdDi-9-9WAdWUdrczKkbWM3_i- -7ssX5WVVJm00]--></g></svg>