<?plantuml 1.2026.2?><svg xmlns="http://www.w3.org/2000/svg" xmlns:xlink="http://www.w3.org/1999/xlink" contentStyleType="text/css" data-diagram-type="DESCRIPTION" height="313px" preserveAspectRatio="none" style="width:938px;height:313px;background:#FFFFFF;" version="1.1" viewBox="0 0 938 313" width="938px" zoomAndPan="magnify"><defs/><g><!--cluster editarRecompensa--><g class="cluster" data-qualified-name="editarRecompensa" data-source-line="9" id="ent0003"><path d="M8.5,6 L146.8145,6 A3.75,3.75 0 0 1 149.3145,8.5 L156.3145,25.9688 L577.5,25.9688 A2.5,2.5 0 0 1 580,28.4688 L580,303.5 A2.5,2.5 0 0 1 577.5,306 L8.5,306 A2.5,2.5 0 0 1 6,303.5 L6,8.5 A2.5,2.5 0 0 1 8.5,6" fill="none" style="stroke:#000000;stroke-width:1.5;"/><line style="stroke:#000000;stroke-width:1.5;" x1="6" x2="156.3145" y1="25.9688" y2="25.9688"/><text fill="#000000" font-family="sans-serif" font-size="12" font-weight="bold" lengthAdjust="spacing" textLength="137.3145" x="10" y="19.1387">editarRecompensa()</text></g><!--entity EditarRecompensaView--><g class="entity" data-qualified-name="editarRecompensa.EditarRecompensaView" data-source-line="10" id="ent0004"><rect fill="#629EF9" height="33.9688" rx="2.5" ry="2.5" style="stroke:#181818;stroke-width:0.5;" width="161.8262" x="402" y="38"/><text fill="#000000" font-family="sans-serif" font-size="12" lengthAdjust="spacing" textLength="141.8262" x="412" y="59.1387">EditarRecompensaView</text></g><!--entity RecompensaController--><g class="entity" data-qualified-name="editarRecompensa.RecompensaController" data-source-line="11" id="ent0005"><rect fill="#B5BD68" height="33.9688" rx="2.5" ry="2.5" style="stroke:#181818;stroke-width:0.5;" width="156.8516" x="88.5" y="147"/><text fill="#000000" font-family="sans-serif" font-size="12" lengthAdjust="spacing" textLength="136.8516" x="98.5" y="168.1387">RecompensaController</text></g><!--entity RecompensaRepository--><g class="entity" data-qualified-name="editarRecompensa.RecompensaRepository" data-source-line="12" id="ent0006"><rect fill="#F2AC4E" height="33.9688" rx="2.5" ry="2.5" style="stroke:#181818;stroke-width:0.5;" width="161.9082" x="150" y="256"/><text fill="#000000" font-family="sans-serif" font-size="12" lengthAdjust="spacing" textLength="141.9082" x="160" y="277.1387">RecompensaRepository</text></g><!--entity RecompensaAbierta--><g class="entity" data-qualified-name="RecompensaAbierta" data-source-line="7" id="ent0002"><rect fill="#CDEBA5" height="33.9688" rx="2.5" ry="2.5" style="stroke:#181818;stroke-width:0.5;" width="161.1582" x="604.5" y="147"/><text fill="#000000" font-family="sans-serif" font-size="12" lengthAdjust="spacing" textLength="141.1582" x="614.5" y="168.1387">RECOMPENSA_ABIERTA</text></g><!--link RecompensaAbierta to EditarRecompensaView--><g class="link" data-entity-1="ent0002" data-entity-2="ent0004" data-link-type="dependency" data-source-line="15" id="lnk7"><path d="M626.59,146.91 C578.43,133.65 518,117 518,117 C518,117 505.5564,95.304 495.1864,77.234" fill="none" id="RecompensaAbierta-to-EditarRecompensaView" style="stroke:#181818;stroke-width:1;"/><polygon fill="#181818" points="492.2,72.03,493.2104,81.8269,494.6887,76.3666,500.149,77.845,492.2,72.03" style="stroke:#181818;stroke-width:1;"/><text fill="#000000" font-family="sans-serif" font-size="12" lengthAdjust="spacing" textLength="122.25" x="519" y="114.1387">editarRecompensa()</text></g><!--link EditarRecompensaView to RecompensaAbierta--><g class="link" data-entity-1="ent0004" data-entity-2="ent0002" data-link-type="dependency" data-source-line="23" id="lnk12"><path d="M540.01,72.09 C587.01,85.35 646,102 646,102 C646,102 659.9686,123.8445 671.5186,141.9145" fill="none" id="EditarRecompensaView-to-RecompensaAbierta" style="stroke:#181818;stroke-width:1;stroke-dasharray:7,7;"/><polygon fill="#181818" points="674.75,146.97,673.2733,137.2325,672.0572,142.7571,666.5326,141.541,674.75,146.97" style="stroke:#181818;stroke-width:1;"/><text fill="#000000" font-family="sans-serif" font-size="12" lengthAdjust="spacing" textLength="133.6465" x="657" y="114.1387">&#171;finalizar&#187; confirmar()</text></g><!--link EditarRecompensaView to RecompensaAbierta--><g class="link" data-entity-1="ent0004" data-entity-2="ent0002" data-link-type="dependency" data-source-line="24" id="lnk13"><path d="M564.38,67.85 C658.01,81.48 799,102 799,102 C799,102 799,117 799,117 C799,117 763.3145,131.4059 730.4345,144.6659" fill="none" id="EditarRecompensaView-to-RecompensaAbierta-1" style="stroke:#181818;stroke-width:1;stroke-dasharray:7,7;"/><polygon fill="#181818" points="724.87,146.91,734.7129,147.2536,729.5071,145.0399,731.7207,139.8342,724.87,146.91" style="stroke:#181818;stroke-width:1;"/><text fill="#000000" font-family="sans-serif" font-size="12" lengthAdjust="spacing" textLength="130.1777" x="800" y="114.1387">&#171;cancelar&#187; cancelar()</text></g><!--link EditarRecompensaView to RecompensaController--><g class="link" data-entity-1="ent0004" data-entity-2="ent0005" data-link-type="dependency" data-source-line="17" id="lnk8"><path d="M401.8,64.71 C277.43,78.04 54,102 54,102 C54,102 54,117 54,117 C54,117 89.3324,131.3888 121.9224,144.6488" fill="none" id="EditarRecompensaView-to-RecompensaController" style="stroke:#181818;stroke-width:1;"/><polygon fill="#181818" points="127.48,146.91,120.6511,139.8131,122.8487,145.0256,117.6361,147.2232,127.48,146.91" style="stroke:#181818;stroke-width:1;"/><text fill="#000000" font-family="sans-serif" font-size="12" lengthAdjust="spacing" textLength="134.4844" x="55" y="114.1387">cargarDatosActuales()</text></g><!--link EditarRecompensaView to RecompensaController--><g class="link" data-entity-1="ent0004" data-entity-2="ent0005" data-link-type="dependency" data-source-line="20" id="lnk10"><path d="M403.23,72.02 C337.14,85.3 254,102 254,102 C254,102 220.5426,125.4553 194.7726,143.5253" fill="none" id="EditarRecompensaView-to-RecompensaController-1" style="stroke:#181818;stroke-width:1;"/><polygon fill="#181818" points="189.86,146.97,199.5254,145.078,193.9538,144.0994,194.9324,138.5278,189.86,146.97" style="stroke:#181818;stroke-width:1;"/><text fill="#000000" font-family="sans-serif" font-size="12" lengthAdjust="spacing" textLength="246.3223" x="255" y="114.1387">guardarCambios(datosNuevos) : boolean</text></g><!--link RecompensaController to RecompensaRepository--><g class="link" data-entity-1="ent0005" data-entity-2="ent0006" data-link-type="dependency" data-source-line="18" id="lnk9"><path d="M127.48,181.09 C94.89,194.35 54,211 54,211 C54,211 54,226 54,226 C54,226 112.2428,241.1413 163.2828,254.4013" fill="none" id="RecompensaController-to-RecompensaRepository" style="stroke:#181818;stroke-width:1;"/><polygon fill="#181818" points="169.09,255.91,161.385,249.7755,164.2506,254.6528,159.3734,257.5184,169.09,255.91" style="stroke:#181818;stroke-width:1;"/><text fill="#000000" font-family="sans-serif" font-size="12" lengthAdjust="spacing" textLength="261.5449" x="55" y="223.1387">obtenerPorId(recompensaId) : Recompensa</text></g><!--link RecompensaController to RecompensaRepository--><g class="link" data-entity-1="ent0005" data-entity-2="ent0006" data-link-type="dependency" data-source-line="21" id="lnk11"><path d="M220.86,181.09 C265.27,194.35 321,211 321,211 C321,211 321,226 321,226 C321,226 293.7729,239.9199 267.8229,253.1799" fill="none" id="RecompensaController-to-RecompensaRepository-1" style="stroke:#181818;stroke-width:1;"/><polygon fill="#181818" points="262.48,255.91,272.3144,255.3767,266.9324,253.6349,268.6742,248.2529,262.48,255.91" style="stroke:#181818;stroke-width:1;"/><text fill="#000000" font-family="sans-serif" font-size="12" lengthAdjust="spacing" textLength="202.0371" x="322" y="223.1387">actualizar(recompensa) : boolean</text></g><?plantuml-src bP91J-Cm48Nl_XMZzj8UYaG5Q8bGfP2cKW-mgAoueaay3HQk9nexMnN4Vz-qNP4e3OVcvFYz-VoUPVzkN8c26yWmVo-4AwSJjYomVJE1bF_M_HjgtXfNm1gjRojpMcDbmu9TE8vcjcRr6vxD1y7bj2LQuoZiIeAIxMx_evHG7j0Lbc2OpDFx-1e6gpJv_V2KFZx7h_7zCbtzYGU07bQKywOavp7E34b0fShwR2m81gHDG6aSe_5XfBiDdmhghpbpa7OSBuQsXz4-0OOtqzjqSTk5DAwahYriBKadSYF0CBlEzCsldo4hAjcRmBBhG1e1Xejfd5obwakfatk1YKnclGKYEBqefNghJdJDwCiVGOvIeCmni8_pKA4bNsDwktOeJO48E0laI9vObdeatvQb7aFK6Za_Nb6XQ9G4DvbXFzBxd8yL_MM_9sVCbj2T7HSFJSq7IYji6zYVy-9YTlfm8xYxMnjtnCrcaBDR6zdKwF6Pb1nTJlO8-RySZVy1?></g></svg>