<?plantuml 1.2026.2?><svg xmlns="http://www.w3.org/2000/svg" xmlns:xlink="http://www.w3.org/1999/xlink" contentStyleType="text/css" data-diagram-type="DESCRIPTION" height="408px" preserveAspectRatio="none" style="width:1445px;height:408px;background:#FFFFFF;" version="1.1" viewBox="0 0 1445 408" width="1445px" zoomAndPan="magnify"><defs/><g><!--cluster abrirEntregables--><g class="cluster" data-qualified-name="abrirEntregables" data-source-line="10" id="ent0004"><path d="M169.5,6 L295.3105,6 A3.75,3.75 0 0 1 297.8105,8.5 L304.8105,25.9688 L543.5,25.9688 A2.5,2.5 0 0 1 546,28.4688 L546,398.5 A2.5,2.5 0 0 1 543.5,401 L169.5,401 A2.5,2.5 0 0 1 167,398.5 L167,8.5 A2.5,2.5 0 0 1 169.5,6" fill="none" style="stroke:#000000;stroke-width:1.5;"/><line style="stroke:#000000;stroke-width:1.5;" x1="167" x2="304.8105" y1="25.9688" y2="25.9688"/><text fill="#000000" font-family="sans-serif" font-size="12" font-weight="bold" lengthAdjust="spacing" textLength="124.8105" x="171" y="19.1387">abrirEntregables()</text></g><!--entity ListarEntregablesView--><g class="entity" data-qualified-name="abrirEntregables.ListarEntregablesView" data-source-line="11" id="ent0005"><rect fill="#629EF9" height="33.9688" rx="2.5" ry="2.5" style="stroke:#181818;stroke-width:0.5;" width="153.7695" x="376" y="38"/><text fill="#000000" font-family="sans-serif" font-size="12" lengthAdjust="spacing" textLength="133.7695" x="386" y="59.1387">ListarEntregablesView</text></g><!--entity EntregableController--><g class="entity" data-qualified-name="abrirEntregables.EntregableController" data-source-line="12" id="ent0006"><rect fill="#B5BD68" height="33.9688" rx="2.5" ry="2.5" style="stroke:#181818;stroke-width:0.5;" width="144.8047" x="183.5" y="147"/><text fill="#000000" font-family="sans-serif" font-size="12" lengthAdjust="spacing" textLength="124.8047" x="193.5" y="168.1387">EntregableController</text></g><!--entity EntregableRepository--><g class="entity" data-qualified-name="abrirEntregables.EntregableRepository" data-source-line="13" id="ent0007"><rect fill="#F2AC4E" height="33.9688" rx="2.5" ry="2.5" style="stroke:#181818;stroke-width:0.5;" width="149.8613" x="183" y="256"/><text fill="#000000" font-family="sans-serif" font-size="12" lengthAdjust="spacing" textLength="129.8613" x="193" y="277.1387">EntregableRepository</text></g><!--entity Entregable--><g class="entity" data-qualified-name="abrirEntregables.Entregable" data-source-line="14" id="ent0008"><rect fill="#F2AC4E" height="33.9688" rx="2.5" ry="2.5" style="stroke:#181818;stroke-width:0.5;" width="85.5137" x="215" y="351"/><text fill="#000000" font-family="sans-serif" font-size="12" lengthAdjust="spacing" textLength="65.5137" x="225" y="372.1387">Entregable</text></g><!--entity ProyectoAbierto--><g class="entity" data-qualified-name="ProyectoAbierto" data-source-line="7" id="ent0002"><rect fill="#CDEBA5" height="33.9688" rx="2.5" ry="2.5" style="stroke:#181818;stroke-width:0.5;" width="143.7617" x="7" y="38"/><text fill="#000000" font-family="sans-serif" font-size="12" lengthAdjust="spacing" textLength="123.7617" x="17" y="59.1387">PROYECTO_ABIERTO</text></g><!--entity EntregablesAbiertos--><g class="entity" data-qualified-name="EntregablesAbiertos" data-source-line="8" id="ent0003"><rect fill="#CDEBA5" height="33.9688" rx="2.5" ry="2.5" style="stroke:#181818;stroke-width:0.5;" width="173.7266" x="562" y="147"/><text fill="#000000" font-family="sans-serif" font-size="12" lengthAdjust="spacing" textLength="153.7266" x="572" y="168.1387">ENTREGABLES_ABIERTOS</text></g><!--entity AbrirEntregable--><g class="entity" data-qualified-name="AbrirEntregable" data-source-line="17" id="ent0009"><rect fill="#CDEBA5" height="33.9688" rx="2.5" ry="2.5" style="stroke:#181818;stroke-width:0.5;" width="202.373" x="771" y="147"/><text fill="#000000" font-family="sans-serif" font-size="12" lengthAdjust="spacing" textLength="182.373" x="781" y="168.1387">:Collaboration AbrirEntregable</text></g><!--entity CrearEntregable--><g class="entity" data-qualified-name="CrearEntregable" data-source-line="18" id="ent0010"><rect fill="#CDEBA5" height="33.9688" rx="2.5" ry="2.5" style="stroke:#181818;stroke-width:0.5;" width="206.3281" x="1008" y="147"/><text fill="#000000" font-family="sans-serif" font-size="12" lengthAdjust="spacing" textLength="186.3281" x="1018" y="168.1387">:Collaboration CrearEntregable</text></g><!--entity AbrirProyecto--><g class="entity" data-qualified-name="AbrirProyecto" data-source-line="19" id="ent0011"><rect fill="#CDEBA5" height="33.9688" rx="2.5" ry="2.5" style="stroke:#181818;stroke-width:0.5;" width="189.5" x="1249.5" y="147"/><text fill="#000000" font-family="sans-serif" font-size="12" lengthAdjust="spacing" textLength="169.5" x="1259.5" y="168.1387">:Collaboration AbrirProyecto</text></g><!--link ProyectoAbierto to ListarEntregablesView--><g class="link" data-entity-1="ent0002" data-entity-2="ent0005" data-link-type="dependency" data-source-line="21" id="lnk12"><path d="M151.11,55 C215.64,55 303.97,55 369.96,55" fill="none" id="ProyectoAbierto-to-ListarEntregablesView" style="stroke:#181818;stroke-width:1;"/><polygon fill="#181818" points="375.96,55,366.96,51,370.96,55,366.96,59,375.96,55" style="stroke:#181818;stroke-width:1;"/><text fill="#000000" font-family="sans-serif" font-size="12" lengthAdjust="spacing" textLength="173.4785" x="177" y="49.1387">abrirEntregables(proyectoId)</text></g><!--link ListarEntregablesView to EntregableController--><g class="link" data-entity-1="ent0005" data-entity-2="ent0006" data-link-type="dependency" data-source-line="23" id="lnk13"><path d="M377.06,72.02 C314.15,85.3 235,102 235,102 C235,102 235,117 235,117 C235,117 240.106,128.1929 246.166,141.4529" fill="none" id="ListarEntregablesView-to-EntregableController" style="stroke:#181818;stroke-width:1;"/><polygon fill="#181818" points="248.66,146.91,248.5571,137.0617,246.5817,142.3624,241.281,140.387,248.66,146.91" style="stroke:#181818;stroke-width:1;"/><text fill="#000000" font-family="sans-serif" font-size="12" lengthAdjust="spacing" textLength="293.4902" x="236" y="114.1387">listarEntregables(proyectoId) : List&lt;Entregable&gt;</text></g><!--link EntregableController to EntregableRepository--><g class="link" data-entity-1="ent0006" data-entity-2="ent0007" data-link-type="dependency" data-source-line="24" id="lnk14"><path d="M256.3,181.25 C256.68,201.48 257.2068,229.8111 257.5868,249.9511" fill="none" id="EntregableController-to-EntregableRepository" style="stroke:#181818;stroke-width:1;"/><polygon fill="#181818" points="257.7,255.95,261.5295,246.8761,257.6057,250.9509,253.5309,247.0271,257.7,255.95" style="stroke:#181818;stroke-width:1;"/><text fill="#000000" font-family="sans-serif" font-size="12" lengthAdjust="spacing" textLength="310.9336" x="258" y="223.1387">obtenerPorProyecto(proyectoId) : List&lt;Entregable&gt;</text></g><!--link EntregableRepository to Entregable--><g class="link" data-entity-1="ent0007" data-entity-2="ent0008" data-link-type="association" data-source-line="25" id="lnk15"><path d="M258,290.2 C258,307.27 258,333.99 258,350.99" fill="none" id="EntregableRepository-Entregable" style="stroke:#181818;stroke-width:1;"/></g><!--link ListarEntregablesView to AbrirEntregable--><g class="link" data-entity-1="ent0005" data-entity-2="ent0009" data-link-type="dependency" data-source-line="27" id="lnk16"><path d="M516.75,72.02 C569.56,85.3 636,102 636,102 C636,102 734.2609,127.3987 804.1809,145.4687" fill="none" id="ListarEntregablesView-to-AbrirEntregable" style="stroke:#181818;stroke-width:1;stroke-dasharray:7,7;"/><polygon fill="#181818" points="809.99,146.97,802.2772,140.8453,805.1491,145.7189,800.2754,148.5908,809.99,146.97" style="stroke:#181818;stroke-width:1;"/><text fill="#000000" font-family="sans-serif" font-size="12" lengthAdjust="spacing" textLength="179.5195" x="694" y="114.1387">abrirEntregable(entregableId)</text></g><!--link ListarEntregablesView to CrearEntregable--><g class="link" data-entity-1="ent0005" data-entity-2="ent0010" data-link-type="dependency" data-source-line="28" id="lnk17"><path d="M530.19,64.28 C653.7,77.52 882,102 882,102 C882,102 977.1821,127.3559 1045.0321,145.4259" fill="none" id="ListarEntregablesView-to-CrearEntregable" style="stroke:#181818;stroke-width:1;stroke-dasharray:7,7;"/><polygon fill="#181818" points="1050.83,146.97,1043.1626,140.7886,1045.9984,145.6832,1041.1037,148.5191,1050.83,146.97" style="stroke:#181818;stroke-width:1;"/><text fill="#000000" font-family="sans-serif" font-size="12" lengthAdjust="spacing" textLength="106.0781" x="938" y="114.1387">crearEntregable()</text></g><!--link ListarEntregablesView to AbrirProyecto--><g class="link" data-entity-1="ent0005" data-entity-2="ent0011" data-link-type="dependency" data-source-line="29" id="lnk18"><path d="M530.21,61.92 C692.26,74.34 1053,102 1053,102 C1053,102 1175.4476,127.6693 1261.6676,145.7393" fill="none" id="ListarEntregablesView-to-AbrirProyecto" style="stroke:#181818;stroke-width:1;stroke-dasharray:7,7;"/><polygon fill="#181818" points="1267.54,146.97,1259.5519,141.2089,1262.6463,145.9444,1257.9109,149.0388,1267.54,146.97" style="stroke:#181818;stroke-width:1;"/><text fill="#000000" font-family="sans-serif" font-size="12" lengthAdjust="spacing" textLength="90.1758" x="1124" y="114.1387">abrirProyecto()</text></g><!--link ListarEntregablesView to EntregablesAbiertos--><g class="link" data-entity-1="ent0005" data-entity-2="ent0003" data-link-type="dependency" data-source-line="31" id="lnk19"><path d="M482.73,72.09 C507.24,85.35 538,102 538,102 C538,102 581.6914,126.0109 614.5814,144.0809" fill="none" id="ListarEntregablesView-to-EntregablesAbiertos" style="stroke:#181818;stroke-width:1;stroke-dasharray:7,7;"/><polygon fill="#181818" points="619.84,146.97,613.8782,139.1306,615.4578,144.5624,610.026,146.1421,619.84,146.97" style="stroke:#181818;stroke-width:1;"/><text fill="#000000" font-family="sans-serif" font-size="12" lengthAdjust="spacing" textLength="62.4551" x="565" y="114.1387">&#171;finalizar&#187;</text></g><?plantuml-src ZLJ1QkCm4BthAuRaaXmSsD2MhGa6nrLAeJGX2OMU5YcUkAAgP2ILa2xxx-kwYUsgocvyicVcFRsPDvPz4QfaXhq2PvkNmkWtbMTQQWExP-6Gs2PldrckTq8Li6NITZCtk6LlqisqSfzGBYkkSC5Al2Fy67UIKYXq-nAXr7B_yK68mOrZgf08_Uo6JjDBw2sMyoUQhUU_qkaTNQxdFM0M5aRlgrATSe76wH2EFgoNz3QTtjFL4RggiLGvWmNZ4kq1RWafAzsiGEWnReJfb0o6DSWFmsy2rTEUsxiNrh5koQF0NOqDPg1_DRwciskVfYtBgg4PBIKQJtQRW3w_vFdLpzCaIoor5KwRlKVI9g0_6wVP1JrDua4Rm9-WON6r2f9nRPWJMa7wTN8rbnSxWoKpo7mMBtQkbkFkj4gE4KAylOB8H4dOl_ZRIWpA0_Wk7n8IDZtAAxwGat7rDtY0BX_4jOf9cqv8S26y0rgNOz3SeKApq4s_vv_GsPOewl2VwdCqIdoJlmriWCthnyHE4ta-nx3v6XWC_wVYsF11GzF_y5_w0_T439F9LYWcnJipIV8N?></g></svg>