<svg xmlns="http://www.w3.org/2000/svg" xmlns:xlink="http://www.w3.org/1999/xlink" contentStyleType="text/css" data-diagram-type="STATE" height="780px" preserveAspectRatio="none" style="width:1279px;height:780px;background:#FFFFFF;" version="1.1" viewBox="0 0 1279 780" width="1279px" zoomAndPan="magnify"><defs/><g><g><rect fill="#F1F1F1" height="50" rx="12.5" ry="12.5" style="stroke:#181818;stroke-width:0.5;" width="195" x="234.02" y="7"/><line style="stroke:#181818;stroke-width:0.5;" x1="234.02" x2="429.02" y1="33.2969" y2="33.2969"/><text fill="#000000" font-family="sans-serif" font-size="14" lengthAdjust="spacing" textLength="175" x="244.02" y="24.9951">INVESTIGADOR_ABIERTO</text></g><g><rect fill="#F1F1F1" height="50" rx="12.5" ry="12.5" style="stroke:#181818;stroke-width:0.5;" width="213.0879" x="463.98" y="7"/><line style="stroke:#181818;stroke-width:0.5;" x1="463.98" x2="677.0679" y1="33.2969" y2="33.2969"/><text fill="#000000" font-family="sans-serif" font-size="14" lengthAdjust="spacing" textLength="193.0879" x="473.98" y="24.9951">PANEL_PRINCIPAL_ABIERTO</text></g><g><rect fill="#F1F1F1" height="50" rx="12.5" ry="12.5" style="stroke:#181818;stroke-width:0.5;" width="342.376" x="712.33" y="7"/><line style="stroke:#181818;stroke-width:0.5;" x1="712.33" x2="1054.706" y1="33.2969" y2="33.2969"/><text fill="#000000" font-family="sans-serif" font-size="14" lengthAdjust="spacing" textLength="322.376" x="722.33" y="24.9951">SOLICITUDES_ELIMINACION_PERFIL_ABIERTAS</text></g><path d="M377.02,152 L764.02,152 A12.5,12.5 0 0 1 776.52,164.5 L776.52,178.2969 L364.52,178.2969 L364.52,164.5 A12.5,12.5 0 0 1 377.02,152" fill="#F1F1F1"/><rect fill="none" height="477.2969" rx="12.5" ry="12.5" style="stroke:#181818;stroke-width:0.5;" width="412" x="364.52" y="152"/><line style="stroke:#181818;stroke-width:0.5;" x1="364.52" x2="776.52" y1="178.2969" y2="178.2969"/><text fill="#000000" font-family="sans-serif" font-size="14" lengthAdjust="spacing" textLength="144.1494" x="498.4453" y="169.9951">abrirOpcionesPerfil()</text><g><rect fill="#F1F1F1" height="50" rx="12.5" ry="12.5" style="stroke:#181818;stroke-width:0.5;" width="50" x="376.52" y="280.2969"/><line style="stroke:#181818;stroke-width:0.5;" x1="376.52" x2="426.52" y1="306.5938" y2="306.5938"/><text fill="#000000" font-family="sans-serif" font-size="14" lengthAdjust="spacing" textLength="4.4502" x="399.2949" y="298.292">&#160;</text></g><g><rect fill="#F1F1F1" height="50" rx="12.5" ry="12.5" style="stroke:#181818;stroke-width:0.5;" width="50" x="376.52" y="476.2969"/><line style="stroke:#181818;stroke-width:0.5;" x1="376.52" x2="426.52" y1="502.5938" y2="502.5938"/><text fill="#000000" font-family="sans-serif" font-size="14" lengthAdjust="spacing" textLength="4.4502" x="399.2949" y="494.292">&#160;</text></g><ellipse cx="401.52" cy="199.2969" fill="#222222" rx="10" ry="10" style="stroke:#222222;stroke-width:1;"/><ellipse cx="401.52" cy="608.2969" fill="none" rx="11" ry="11" style="stroke:#222222;stroke-width:1;"/><ellipse cx="401.52" cy="608.2969" fill="#222222" rx="6" ry="6" style="stroke:#222222;stroke-width:1;"/><!--link *start*abrirOpcionesPerfil to MostrandoLista--><g class="link" data-entity-1="ent0005" data-entity-2="ent0006" data-link-type="dependency" data-source-line="30" id="lnk6"><path d="M401.52,209.5269 C401.52,225.2369 401.52,251.6569 401.52,274.1669" fill="none" id="*start*abrirOpcionesPerfil-to-MostrandoLista" style="stroke:#008000;stroke-width:1;"/><polygon fill="#008000" points="401.52,280.1669,405.52,271.1669,401.52,275.1669,397.52,271.1669,401.52,280.1669" style="stroke:#008000;stroke-width:1;"/><path d="M406.52,232.2969 L406.52,257.2969 L701.52,257.2969 L701.52,242.2969 L691.52,232.2969 L406.52,232.2969" fill="#FEFFDD" style="stroke:#181818;stroke-width:0.5;"/><path d="M691.52,232.2969 L691.52,242.2969 L701.52,242.2969 L691.52,232.2969" fill="#FEFFDD" style="stroke:#181818;stroke-width:0.5;"/><text fill="#000000" font-family="sans-serif" font-size="13" font-weight="bold" lengthAdjust="spacing" textLength="90.251" x="412.52" y="249.3638">Coordinador</text><text fill="#000000" font-family="sans-serif" font-size="13" lengthAdjust="spacing" textLength="180.0132" x="506.9033" y="249.3638">solicita abrir opciones perfil</text></g><!--link MostrandoLista to FiltrandoLista--><g class="link" data-entity-1="ent0006" data-entity-2="ent0007" data-link-type="dependency" data-source-line="35" id="lnk7"><path d="M401.52,330.4769 C401.52,367.6469 401.52,432.4569 401.52,469.8169" fill="none" id="MostrandoLista-to-FiltrandoLista" style="stroke:#008000;stroke-width:1;"/><polygon fill="#008000" points="401.52,475.8169,405.52,466.8169,401.52,470.8169,397.52,466.8169,401.52,475.8169" style="stroke:#008000;stroke-width:1;"/><path d="M406.52,353.2969 L406.52,453.2969 L767.52,453.2969 L767.52,363.2969 L757.52,353.2969 L406.52,353.2969" fill="#FEFFDD" style="stroke:#181818;stroke-width:0.5;"/><path d="M757.52,353.2969 L757.52,363.2969 L767.52,363.2969 L757.52,353.2969" fill="#FEFFDD" style="stroke:#181818;stroke-width:0.5;"/><text fill="#000000" font-family="sans-serif" font-size="13" font-weight="bold" lengthAdjust="spacing" textLength="58.9063" x="412.52" y="370.3638">Sistema</text><text fill="#000000" font-family="sans-serif" font-size="13" lengthAdjust="spacing" textLength="277.5703" x="475.5586" y="370.3638">presenta las opciones disponibles en perfil</text><text fill="#000000" font-family="sans-serif" font-size="13" lengthAdjust="spacing" textLength="277.3799" x="412.52" y="385.4966">&#8226; ID, nombre, campo de cada investigador</text><text fill="#000000" font-family="sans-serif" font-size="13" lengthAdjust="spacing" textLength="197.5327" x="412.52" y="400.6294">&#8226; Permite solicitar editar perfil</text><text fill="#000000" font-family="sans-serif" font-size="13" lengthAdjust="spacing" textLength="311.6699" x="412.52" y="415.7622">&#8226; Permite solicitar resolver solicitud eliminacion</text><text fill="#000000" font-family="sans-serif" font-size="13" lengthAdjust="spacing" textLength="278.1099" x="412.52" y="430.895">&#8226; Permite solicitar volver al panel principal</text><text fill="#000000" font-family="sans-serif" font-size="13" lengthAdjust="spacing" textLength="262.666" x="412.52" y="446.0278">&#8226; Permite solicitar volver al investigador</text></g><!--link FiltrandoLista to *end*abrirOpcionesPerfil--><g class="link" data-entity-1="ent0007" data-entity-2="ent0008" data-link-type="dependency" data-source-line="45" id="lnk9"><path d="M401.52,526.6469 C401.52,548.9469 401.52,574.8569 401.52,591.0369" fill="none" id="FiltrandoLista-to-*end*abrirOpcionesPerfil" style="stroke:#008000;stroke-width:1;"/><polygon fill="#008000" points="401.52,597.0369,405.52,588.0369,401.52,592.0369,397.52,588.0369,401.52,597.0369" style="stroke:#008000;stroke-width:1;"/><path d="M406.52,549.2969 L406.52,574.2969 L700.52,574.2969 L700.52,559.2969 L690.52,549.2969 L406.52,549.2969" fill="#FEFFDD" style="stroke:#181818;stroke-width:0.5;"/><path d="M690.52,549.2969 L690.52,559.2969 L700.52,559.2969 L690.52,549.2969" fill="#FEFFDD" style="stroke:#181818;stroke-width:0.5;"/><text fill="#000000" font-family="sans-serif" font-size="13" font-weight="bold" lengthAdjust="spacing" textLength="90.251" x="412.52" y="566.3638">Coordinador</text><text fill="#000000" font-family="sans-serif" font-size="13" lengthAdjust="spacing" textLength="179.2769" x="506.9033" y="566.3638">solicita una de las opciones</text></g><g><rect fill="#F1F1F1" height="50" rx="12.5" ry="12.5" style="stroke:#181818;stroke-width:0.5;" width="215.043" x="7" y="724.3"/><line style="stroke:#181818;stroke-width:0.5;" x1="7" x2="222.043" y1="750.5969" y2="750.5969"/><text fill="#000000" font-family="sans-serif" font-size="14" lengthAdjust="spacing" textLength="195.043" x="17" y="742.2951">OPCIONES_PERFIL_ABIERTO</text></g><g><rect fill="#F1F1F1" height="50" rx="12.5" ry="12.5" style="stroke:#181818;stroke-width:0.5;" width="147.251" x="256.9" y="724.3"/><line style="stroke:#181818;stroke-width:0.5;" x1="256.9" x2="404.151" y1="750.5969" y2="750.5969"/><text fill="#000000" font-family="sans-serif" font-size="14" lengthAdjust="spacing" textLength="127.251" x="266.9" y="742.2951">SESION_CERRADA</text></g><g><rect fill="#F1F1F1" height="50" rx="12.5" ry="12.5" style="stroke:#181818;stroke-width:0.5;" width="213.0879" x="451.98" y="724.3"/><line style="stroke:#181818;stroke-width:0.5;" x1="451.98" x2="665.0679" y1="750.5969" y2="750.5969"/><text fill="#000000" font-family="sans-serif" font-size="14" lengthAdjust="spacing" textLength="193.0879" x="461.98" y="742.2951">PANEL_PRINCIPAL_ABIERTO</text></g><g><rect fill="#F1F1F1" height="50" rx="12.5" ry="12.5" style="stroke:#181818;stroke-width:0.5;" width="195" x="700.02" y="724.3"/><line style="stroke:#181818;stroke-width:0.5;" x1="700.02" x2="895.02" y1="750.5969" y2="750.5969"/><text fill="#000000" font-family="sans-serif" font-size="14" lengthAdjust="spacing" textLength="175" x="710.02" y="742.2951">INVESTIGADOR_ABIERTO</text></g><g><rect fill="#F1F1F1" height="50" rx="12.5" ry="12.5" style="stroke:#181818;stroke-width:0.5;" width="342.376" x="930.33" y="724.3"/><line style="stroke:#181818;stroke-width:0.5;" x1="930.33" x2="1272.706" y1="750.5969" y2="750.5969"/><text fill="#000000" font-family="sans-serif" font-size="14" lengthAdjust="spacing" textLength="322.376" x="940.33" y="742.2951">SOLICITUDES_ELIMINACION_PERFIL_ABIERTAS</text></g><!--link in1 to abrirOpcionesPerfil--><g class="link" data-entity-1="ent0002" data-entity-2="ent0005" data-link-type="dependency" data-source-line="4" id="lnk2"><path d="M346,57.32 C361.7,83.67 384.52,122 384.52,122 C384.52,122 389.0643,128.5541 401.7143,146.7441" fill="none" id="in1-to-abrirOpcionesPerfil" style="stroke:#0000FF;stroke-width:1;"/><polygon fill="#0000FF" points="405.14,151.67,403.2854,141.9973,402.2853,147.5651,396.7175,146.5649,405.14,151.67" style="stroke:#0000FF;stroke-width:1;"/><path d="M389.52,92 L389.52,117 L557.52,117 L557.52,102 L547.52,92 L389.52,92" fill="#FEFFDD" style="stroke:#181818;stroke-width:0.5;"/><path d="M547.52,92 L547.52,102 L557.52,102 L547.52,92" fill="#FEFFDD" style="stroke:#181818;stroke-width:0.5;"/><text fill="#000000" font-family="sans-serif" font-size="13" lengthAdjust="spacing" textLength="147.6973" x="395.52" y="109.0669">abrirOpcionesPerfil(ID)</text></g><!--link in2 to abrirOpcionesPerfil--><g class="link" data-entity-1="ent0003" data-entity-2="ent0005" data-link-type="dependency" data-source-line="11" id="lnk3"><path d="M570.52,57.24 C570.52,78.95 570.52,107.24 570.52,145.72" fill="none" id="in2-to-abrirOpcionesPerfil" style="stroke:#008000;stroke-width:1;"/><polygon fill="#008000" points="570.52,151.72,574.52,142.72,570.52,146.72,566.52,142.72,570.52,151.72" style="stroke:#008000;stroke-width:1;"/><path d="M575.52,92 L575.52,117 L729.52,117 L729.52,102 L719.52,92 L575.52,92" fill="#FEFFDD" style="stroke:#181818;stroke-width:0.5;"/><path d="M719.52,92 L719.52,102 L729.52,102 L719.52,92" fill="#FEFFDD" style="stroke:#181818;stroke-width:0.5;"/><text fill="#000000" font-family="sans-serif" font-size="13" lengthAdjust="spacing" textLength="133.853" x="581.52" y="109.0669">abrirOpcionesPerfil()</text></g><!--link in3 to abrirOpcionesPerfil--><g class="link" data-entity-1="ent0004" data-entity-2="ent0005" data-link-type="dependency" data-source-line="18" id="lnk4"><path d="M862.25,57.24 C842.72,79.5 815.5273,110.47 780.7273,150.13" fill="none" id="in3-to-abrirOpcionesPerfil" style="stroke:#000000;stroke-width:1;"/><polygon fill="#000000" points="776.77,154.64,785.7126,150.5133,780.0678,150.8817,779.6993,145.2369,776.77,154.64" style="stroke:#000000;stroke-width:1;"/><path d="M835.52,92 L835.52,117 L989.52,117 L989.52,102 L979.52,92 L835.52,92" fill="#FEFFDD" style="stroke:#181818;stroke-width:0.5;"/><path d="M979.52,92 L979.52,102 L989.52,102 L979.52,92" fill="#FEFFDD" style="stroke:#181818;stroke-width:0.5;"/><text fill="#000000" font-family="sans-serif" font-size="13" lengthAdjust="spacing" textLength="133.853" x="841.52" y="109.0669">abrirOpcionesPerfil()</text></g><!--link abrirOpcionesPerfil to OPCIONES_PERFIL_ABIERTO--><g class="link" data-entity-1="ent0005" data-entity-2="ent0010" data-link-type="dependency" data-source-line="51" id="lnk11"><path d="M364.26,551.21 C290.16,608.53 224.52,659.3 224.52,659.3 C224.52,659.3 181.8146,693.8562 149.2446,720.2062" fill="none" id="abrirOpcionesPerfil-to-OPCIONES_PERFIL_ABIERTO" style="stroke:#008000;stroke-width:1;"/><polygon fill="#008000" points="144.58,723.98,154.0928,721.4291,148.4672,720.8352,149.061,715.2096,144.58,723.98" style="stroke:#008000;stroke-width:1;"/><path d="M229.52,664.3 L229.52,689.3 L331.52,689.3 L331.52,674.3 L321.52,664.3 L229.52,664.3" fill="#FEFFDD" style="stroke:#181818;stroke-width:0.5;"/><path d="M321.52,664.3 L321.52,674.3 L331.52,674.3 L321.52,664.3" fill="#FEFFDD" style="stroke:#181818;stroke-width:0.5;"/><text fill="#000000" font-family="sans-serif" font-size="13" lengthAdjust="spacing" textLength="81.396" x="235.52" y="681.3669">editarPerfil()</text></g><!--link abrirOpcionesPerfil to SESION_CERRADA--><g class="link" data-entity-1="ent0005" data-entity-2="ent0012" data-link-type="dependency" data-source-line="57" id="lnk13"><path d="M376.68,629.63 C361.87,647.83 352.52,659.3 352.52,659.3 C352.52,659.3 344.4912,691.8057 337.9712,718.1557" fill="none" id="abrirOpcionesPerfil-to-SESION_CERRADA" style="stroke:#008000;stroke-width:1;"/><polygon fill="#008000" points="336.53,723.98,342.5746,716.2043,337.731,719.1264,334.8089,714.2827,336.53,723.98" style="stroke:#008000;stroke-width:1;"/><path d="M357.52,664.3 L357.52,689.3 L547.52,689.3 L547.52,674.3 L537.52,664.3 L357.52,664.3" fill="#FEFFDD" style="stroke:#181818;stroke-width:0.5;"/><path d="M537.52,664.3 L537.52,674.3 L547.52,674.3 L537.52,664.3" fill="#FEFFDD" style="stroke:#181818;stroke-width:0.5;"/><text fill="#000000" font-family="sans-serif" font-size="13" lengthAdjust="spacing" textLength="169.1143" x="363.52" y="681.3669">solicitarEliminacionPerfil()</text></g><!--link abrirOpcionesPerfil to PANEL_PRINCIPAL_ABIERTO--><g class="link" data-entity-1="ent0005" data-entity-2="ent0014" data-link-type="dependency" data-source-line="64" id="lnk15"><path d="M562.52,629.54 C561.22,668.13 560.2615,696.5134 559.5315,718.2334" fill="none" id="abrirOpcionesPerfil-to-PANEL_PRINCIPAL_ABIERTO" style="stroke:#008000;stroke-width:1;"/><polygon fill="#008000" points="559.33,724.23,563.6301,715.3694,559.498,719.2328,555.6346,715.1007,559.33,724.23" style="stroke:#008000;stroke-width:1;"/><path d="M565.52,664.3 L565.52,689.3 L717.52,689.3 L717.52,674.3 L707.52,664.3 L565.52,664.3" fill="#FEFFDD" style="stroke:#181818;stroke-width:0.5;"/><path d="M707.52,664.3 L707.52,674.3 L717.52,674.3 L707.52,664.3" fill="#FEFFDD" style="stroke:#181818;stroke-width:0.5;"/><text fill="#000000" font-family="sans-serif" font-size="13" lengthAdjust="spacing" textLength="131.9424" x="571.52" y="681.3669">abrirPanelPrincipal()</text></g><!--link abrirOpcionesPerfil to INVESTIGADOR_ABIERTO--><g class="link" data-entity-1="ent0005" data-entity-2="ent0016" data-link-type="dependency" data-source-line="69" id="lnk17"><path d="M721.93,629.54 C746.49,668.13 765.159,697.4478 778.979,719.1678" fill="none" id="abrirOpcionesPerfil-to-INVESTIGADOR_ABIERTO" style="stroke:#0000FF;stroke-width:1;"/><polygon fill="#0000FF" points="782.2,724.23,780.7433,714.4895,779.5159,720.0115,773.9938,718.7841,782.2,724.23" style="stroke:#0000FF;stroke-width:1;"/><path d="M763.52,664.3 L763.52,689.3 L919.52,689.3 L919.52,674.3 L909.52,664.3 L763.52,664.3" fill="#FEFFDD" style="stroke:#181818;stroke-width:0.5;"/><path d="M909.52,664.3 L909.52,674.3 L919.52,674.3 L909.52,664.3" fill="#FEFFDD" style="stroke:#181818;stroke-width:0.5;"/><text fill="#000000" font-family="sans-serif" font-size="13" lengthAdjust="spacing" textLength="135.5225" x="769.52" y="681.3669">abrirInvestigador(ID)</text></g><!--link abrirOpcionesPerfil to SOLICITUDES_ELIMINACION_PERFIL_ABIERTAS--><g class="link" data-entity-1="ent0005" data-entity-2="ent0018" data-link-type="dependency" data-source-line="75" id="lnk19"><path d="M776.96,530.31 C884.76,602.71 1001.2694,680.9643 1060.3694,720.6643" fill="none" id="abrirOpcionesPerfil-to-SOLICITUDES_ELIMINACION_PERFIL_ABIERTAS" style="stroke:#000000;stroke-width:1;"/><polygon fill="#000000" points="1065.35,724.01,1060.1096,715.6711,1061.1995,721.2219,1055.6486,722.3119,1065.35,724.01" style="stroke:#000000;stroke-width:1;"/><path d="M1016.52,664.3 L1016.52,689.3 L1256.52,689.3 L1256.52,674.3 L1246.52,664.3 L1016.52,664.3" fill="#FEFFDD" style="stroke:#181818;stroke-width:0.5;"/><path d="M1246.52,664.3 L1246.52,674.3 L1256.52,674.3 L1246.52,664.3" fill="#FEFFDD" style="stroke:#181818;stroke-width:0.5;"/><text fill="#000000" font-family="sans-serif" font-size="13" lengthAdjust="spacing" textLength="219.064" x="1022.52" y="681.3669">abrirSolicitudesEliminacionPerfil()</text></g><!--SRC=[hLJTQjim5BxNKuZiPXijO-rj2RYsEmIkRUnqDwK4EJuh8h9a92TGnc3FiaVRaqnoQjTAbBOhjK6MfNFEzvrVlMQYfOesc3C1tKCBk9NymVuWf3lQ0MRYAwOQpqZwFIuNv5iGPSKok2HniSXcoDwUtdwe-0RkJkUOLegfh5qnAK3de7umZeGqLgIm26la4VX8eay8H8sj87g2FUjXyo2DasLUa3GaUP1CaSyiyhq246-6zWAVzy1bbf2GB6wYk5p62RacQH2IB5tcSN551Xv1QOcSMoANdAxMxqFaaOb7hcVcrP_XdmXXy-nqP-OrijTITugAMYRCd1_UNp4-lUy5RZ_VEO5rRU1Unl777bnKyr1ALJD1QwaklbHph2LdAsOqUhvOFXB6xIuaLclmsUxHkEm1JhdiyJr6fJItqD2UHgj0Wp1skF5t954ptKh1Acxs8AQS_lx-WqbqOkmsbO8JlA9DAt4DPbDJKnrRq1sxjrwEuYO73JCi1eyLXhh_x9azb3FS9D-26eusDGRE6XD5o_CPnUrEZNBSKW5cLKoiM4lvgtGEl1YBRqo26sad2QP0_hy8DeBQ84wJu2B_Ghx6S82pt7QWwKUd1pEtktQXzxNLI-RBkBGD7iP54KI1QtMCOloK7c_hlWHoP9vv9aHk4viFUNLWZe0CKzWtgZq0P585-qFu2C8uv5uv7JsevL3fe9-BvJy0]--></g></svg>