<?xml version="1.0" encoding="us-ascii" standalone="no"?><svg xmlns="http://www.w3.org/2000/svg" xmlns:xlink="http://www.w3.org/1999/xlink" contentStyleType="text/css" height="849px" preserveAspectRatio="none" style="width:923px;height:849px;background:#FFFFFF;" version="1.1" viewBox="0 0 923 849" width="923px" zoomAndPan="magnify"><defs/><g><g id="in1"><rect fill="#F1F1F1" height="50" rx="12.5" ry="12.5" style="stroke:#181818;stroke-width:0.5;" width="294" x="311.5" y="7"/><line style="stroke:#181818;stroke-width:0.5;" x1="311.5" x2="605.5" y1="34.6094" y2="34.6094"/><text fill="#000000" font-family="sans-serif" font-size="14" lengthAdjust="spacing" textLength="274" x="321.5" y="26.5332">OPCIONES_CARGA_TRABAJO_ABIERTAS</text></g><path d="M19.5,118 L897.5,118 A12.5,12.5 0 0 1 910,130.5 L910,145.6094 L7,145.6094 L7,130.5 A12.5,12.5 0 0 1 19.5,118 " fill="#F1F1F1" style="stroke:#F1F1F1;stroke-width:1.0;"/><rect fill="none" height="578.6094" rx="12.5" ry="12.5" style="stroke:#181818;stroke-width:0.5;" width="903" x="7" y="118"/><line style="stroke:#181818;stroke-width:0.5;" x1="7" x2="910" y1="145.6094" y2="145.6094"/><text fill="#000000" font-family="sans-serif" font-size="14" lengthAdjust="spacing" textLength="134" x="391.5" y="137.5332">editarCargaTrabajo()</text><g id="editarCargaTrabajo.MostrandoCarga"><rect fill="#F1F1F1" height="50" rx="12.5" ry="12.5" style="stroke:#181818;stroke-width:0.5;" width="50" x="291" y="248.6094"/><line style="stroke:#181818;stroke-width:0.5;" x1="291" x2="341" y1="276.2188" y2="276.2188"/><text fill="#000000" font-family="sans-serif" font-size="14" lengthAdjust="spacing" textLength="4" x="314" y="268.1426">&#160;</text></g><g id="editarCargaTrabajo.EditandoCarga"><rect fill="#F1F1F1" height="50" rx="12.5" ry="12.5" style="stroke:#181818;stroke-width:0.5;" width="50" x="291" y="386.6094"/><line style="stroke:#181818;stroke-width:0.5;" x1="291" x2="341" y1="414.2188" y2="414.2188"/><text fill="#000000" font-family="sans-serif" font-size="14" lengthAdjust="spacing" textLength="4" x="314" y="406.1426">&#160;</text></g><g id="editarCargaTrabajo.ValidandoDatos"><rect fill="#F1F1F1" height="50" rx="12.5" ry="12.5" style="stroke:#181818;stroke-width:0.5;" width="50" x="159" y="525.6094"/><line style="stroke:#181818;stroke-width:0.5;" x1="159" x2="209" y1="553.2188" y2="553.2188"/><text fill="#000000" font-family="sans-serif" font-size="14" lengthAdjust="spacing" textLength="4" x="182" y="545.1426">&#160;</text></g><ellipse cx="316" cy="166.6094" fill="#222222" rx="10" ry="10" style="stroke:#222222;stroke-width:1.0;"/><ellipse cx="392" cy="675.6094" fill="none" rx="11" ry="11" style="stroke:#222222;stroke-width:1.0;"/><ellipse cx="392" cy="675.6094" fill="#222222" rx="6" ry="6" style="stroke:#222222;stroke-width:1.0;"/><!--link *start*editarCargaTrabajo to MostrandoCarga--><g id="link_*start*editarCargaTrabajo_MostrandoCarga"><path d="M316,176.9294 C316,192.7894 316,219.5194 316,242.2494 " fill="none" id="*start*editarCargaTrabajo-to-MostrandoCarga" style="stroke:#008000;stroke-width:1.0;"/><polygon fill="#008000" points="316,248.2494,320,239.2494,316,243.2494,312,239.2494,316,248.2494" style="stroke:#008000;stroke-width:1.0;"/><path d="M321,199.6094 L321,225.6094 L706,225.6094 L706,209.6094 L696,199.6094 L321,199.6094 " fill="#FEFFDD" style="stroke:#181818;stroke-width:0.5;"/><path d="M696,199.6094 L696,209.6094 L706,209.6094 L696,199.6094 " fill="#FEFFDD" style="stroke:#181818;stroke-width:0.5;"/><text fill="#000000" font-family="sans-serif" font-size="13" font-weight="bold" lengthAdjust="spacing" textLength="79" x="327" y="218.1045">Coordinador</text><text fill="#000000" font-family="sans-serif" font-size="13" lengthAdjust="spacing" textLength="281" x="410" y="218.1045">solicita editar la carga de trabajo de una persona</text></g><!--link MostrandoCarga to EditandoCarga--><g id="link_MostrandoCarga_EditandoCarga"><path d="M316,298.6094 C316,323.3194 316,355.6094 316,380.3894 " fill="none" id="MostrandoCarga-to-EditandoCarga" style="stroke:#008000;stroke-width:1.0;"/><polygon fill="#008000" points="316,386.3894,320,377.3894,316,381.3894,312,377.3894,316,386.3894" style="stroke:#008000;stroke-width:1.0;"/><path d="M321,321.6094 L321,363.6094 L597,363.6094 L597,331.6094 L587,321.6094 L321,321.6094 " fill="#FEFFDD" style="stroke:#181818;stroke-width:0.5;"/><path d="M587,321.6094 L587,331.6094 L597,331.6094 L587,321.6094 " fill="#FEFFDD" style="stroke:#181818;stroke-width:0.5;"/><text fill="#000000" font-family="sans-serif" font-size="13" font-weight="bold" lengthAdjust="spacing" textLength="51" x="327" y="340.1045">Sistema</text><text fill="#000000" font-family="sans-serif" font-size="13" lengthAdjust="spacing" textLength="200" x="382" y="340.1045">presenta la carga de trabajo actual</text><text fill="#000000" font-family="sans-serif" font-size="13" font-weight="bold" lengthAdjust="spacing" textLength="51" x="327" y="356.4561">Sistema</text><text fill="#000000" font-family="sans-serif" font-size="13" lengthAdjust="spacing" textLength="190" x="382" y="356.4561">permite introducir modificaciones</text></g><!--link EditandoCarga to ValidandoDatos--><g id="link_EditandoCarga_ValidandoDatos"><path d="M290.85,416.1494 C219.01,426.2794 18,454.6094 18,454.6094 C18,454.6094 18,506.6094 18,506.6094 C18,506.6094 106.5417,529.5448 152.9817,541.5748 " fill="none" id="EditandoCarga-to-ValidandoDatos" style="stroke:#008000;stroke-width:1.0;"/><polygon fill="#008000" points="158.79,543.0794,151.0806,536.9503,153.9498,541.8255,149.0745,544.6947,158.79,543.0794" style="stroke:#008000;stroke-width:1.0;"/><path d="M23,467.6094 L23,493.6094 L289,493.6094 L289,477.6094 L279,467.6094 L23,467.6094 " fill="#FEFFDD" style="stroke:#181818;stroke-width:0.5;"/><path d="M279,467.6094 L279,477.6094 L289,477.6094 L279,467.6094 " fill="#FEFFDD" style="stroke:#181818;stroke-width:0.5;"/><text fill="#000000" font-family="sans-serif" font-size="13" font-weight="bold" lengthAdjust="spacing" textLength="79" x="29" y="486.1045">Coordinador</text><text fill="#000000" font-family="sans-serif" font-size="13" lengthAdjust="spacing" textLength="162" x="112" y="486.1045">solicita guardar los cambios</text></g><!--link ValidandoDatos to *end*editarCargaTrabajo--><g id="link_ValidandoDatos_*end*editarCargaTrabajo"><path d="M184.26,576.0694 C184.55,604.2194 185,646.6094 185,646.6094 C185,646.6094 332.6241,666.5752 375.2141,672.3352 " fill="none" id="ValidandoDatos-to-*end*editarCargaTrabajo" style="stroke:#008000;stroke-width:1.0;"/><polygon fill="#008000" points="381.16,673.1394,372.7773,667.9693,376.2051,672.4693,371.7051,675.8971,381.16,673.1394" style="stroke:#008000;stroke-width:1.0;"/><path d="M190,599.6094 L190,641.6094 L581,641.6094 L581,609.6094 L571,599.6094 L190,599.6094 " fill="#FEFFDD" style="stroke:#181818;stroke-width:0.5;"/><path d="M571,599.6094 L571,609.6094 L581,609.6094 L571,599.6094 " fill="#FEFFDD" style="stroke:#181818;stroke-width:0.5;"/><text fill="#000000" font-family="sans-serif" font-size="13" font-weight="bold" lengthAdjust="spacing" textLength="51" x="196" y="618.1045">Sistema</text><text fill="#000000" font-family="sans-serif" font-size="13" lengthAdjust="spacing" textLength="315" x="251" y="618.1045">permite solicitar la actualizaci&#243;n de la carga de trabajo</text><text fill="#000000" font-family="sans-serif" font-size="13" font-weight="bold" lengthAdjust="spacing" textLength="51" x="196" y="634.4561">Sistema</text><text fill="#000000" font-family="sans-serif" font-size="13" lengthAdjust="spacing" textLength="231" x="251" y="634.4561">presenta la carga de trabajo actualizada</text></g><!--link ValidandoDatos to EditandoCarga--><g id="link_ValidandoDatos_EditandoCarga"><path d="M209.24,539.7394 C241.71,527.0494 294,506.6094 294,506.6094 C294,506.6094 302.4543,470.5119 308.9643,442.6619 " fill="none" id="ValidandoDatos-to-EditandoCarga" style="stroke:#FF0000;stroke-width:1.0;"/><polygon fill="#FF0000" points="310.33,436.8194,304.3864,444.6727,309.1919,441.6881,312.1765,446.4936,310.33,436.8194" style="stroke:#FF0000;stroke-width:1.0;"/><path d="M311,459.6094 L311,501.6094 L570,501.6094 L570,469.6094 L560,459.6094 L311,459.6094 " fill="#FEFFDD" style="stroke:#181818;stroke-width:0.5;"/><path d="M560,459.6094 L560,469.6094 L570,469.6094 L560,459.6094 " fill="#FEFFDD" style="stroke:#181818;stroke-width:0.5;"/><text fill="#000000" font-family="sans-serif" font-size="13" font-weight="bold" lengthAdjust="spacing" textLength="51" x="317" y="478.1045">Sistema</text><text fill="#000000" font-family="sans-serif" font-size="13" lengthAdjust="spacing" textLength="183" x="372" y="478.1045">muestra errores de introducci&#243;n</text><text fill="#000000" font-family="sans-serif" font-size="13" font-weight="bold" lengthAdjust="spacing" textLength="51" x="317" y="494.4561">Sistema</text><text fill="#000000" font-family="sans-serif" font-size="13" lengthAdjust="spacing" textLength="178" x="372" y="494.4561">permite introducir correcciones</text></g><!--link EditandoCarga to *end*editarCargaTrabajo--><g id="link_EditandoCarga_*end*editarCargaTrabajo"><path d="M341.22,416.6394 C407.04,427.1494 579,454.6094 579,454.6094 C579,454.6094 586,594.6094 586,594.6094 C586,594.6094 586,646.6094 586,646.6094 C586,646.6094 449.3185,666.3323 408.6485,672.2023 " fill="none" id="EditandoCarga-to-*end*editarCargaTrabajo" style="stroke:#FF0000;stroke-width:1.0;"/><polygon fill="#FF0000" points="402.71,673.0594,412.1891,675.7327,407.6587,672.3451,411.0463,667.8147,402.71,673.0594" style="stroke:#FF0000;stroke-width:1.0;"/><path d="M590,529.6094 L590,571.6094 L901,571.6094 L901,539.6094 L891,529.6094 L590,529.6094 " fill="#FEFFDD" style="stroke:#181818;stroke-width:0.5;"/><path d="M891,529.6094 L891,539.6094 L901,539.6094 L891,529.6094 " fill="#FEFFDD" style="stroke:#181818;stroke-width:0.5;"/><text fill="#000000" font-family="sans-serif" font-size="13" font-weight="bold" lengthAdjust="spacing" textLength="79" x="596" y="548.1045">Coordinador</text><text fill="#000000" font-family="sans-serif" font-size="13" lengthAdjust="spacing" textLength="153" x="679" y="548.1045">solicita cancelar la edici&#243;n</text><text fill="#000000" font-family="sans-serif" font-size="13" font-weight="bold" lengthAdjust="spacing" textLength="51" x="596" y="564.4561">Sistema</text><text fill="#000000" font-family="sans-serif" font-size="13" lengthAdjust="spacing" textLength="235" x="651" y="564.4561">presenta la carga de trabajo sin cambios</text></g><g id="OPCIONES_CARGA_TRABAJO_ABIERTAS"><rect fill="#F1F1F1" height="50" rx="12.5" ry="12.5" style="stroke:#181818;stroke-width:0.5;" width="294" x="170.5" y="793"/><line style="stroke:#181818;stroke-width:0.5;" x1="170.5" x2="464.5" y1="820.6094" y2="820.6094"/><text fill="#000000" font-family="sans-serif" font-size="14" lengthAdjust="spacing" textLength="274" x="180.5" y="812.5332">OPCIONES_CARGA_TRABAJO_ABIERTAS</text></g><g id="PANEL_PRINCIPAL_ABIERTO"><rect fill="#F1F1F1" height="50" rx="12.5" ry="12.5" style="stroke:#181818;stroke-width:0.5;" width="210" x="530.5" y="793"/><line style="stroke:#181818;stroke-width:0.5;" x1="530.5" x2="740.5" y1="820.6094" y2="820.6094"/><text fill="#000000" font-family="sans-serif" font-size="14" lengthAdjust="spacing" textLength="190" x="540.5" y="812.5332">PANEL_PRINCIPAL_ABIERTO</text></g><!--link in1 to editarCargaTrabajo--><g id="link_in1_editarCargaTrabajo"><path d="M458.5,57.22 C458.5,72.25 458.5,87.35 458.5,111.81 " fill="none" id="in1-to-editarCargaTrabajo" style="stroke:#008000;stroke-width:1.0;"/><polygon fill="#008000" points="458.5,117.81,462.5,108.81,458.5,112.81,454.5,108.81,458.5,117.81" style="stroke:#008000;stroke-width:1.0;"/></g><!--link editarCargaTrabajo to OPCIONES_CARGA_TRABAJO_ABIERTAS--><g id="link_editarCargaTrabajo_OPCIONES_CARGA_TRABAJO_ABIERTAS"><path d="M299.96,697.04 C289.78,715.57 283.5,727 283.5,727 C283.5,727 283.5,763 283.5,763 C283.5,763 290.0426,773.393 299.0926,787.763 " fill="none" id="editarCargaTrabajo-to-OPCIONES_CARGA_TRABAJO_ABIERTAS" style="stroke:#008000;stroke-width:1.0;"/><polygon fill="#008000" points="302.29,792.84,300.8785,783.0928,299.6255,788.6091,294.1091,787.3561,302.29,792.84" style="stroke:#008000;stroke-width:1.0;"/><path d="M288.5,732 L288.5,758 L410.5,758 L410.5,742 L400.5,732 L288.5,732 " fill="#FEFFDD" style="stroke:#181818;stroke-width:0.5;"/><path d="M400.5,732 L400.5,742 L410.5,742 L400.5,732 " fill="#FEFFDD" style="stroke:#181818;stroke-width:0.5;"/><text fill="#000000" font-family="sans-serif" font-size="13" lengthAdjust="spacing" textLength="101" x="294.5" y="750.4951">Edici&#243;n finalizada</text></g><!--link editarCargaTrabajo to OPCIONES_CARGA_TRABAJO_ABIERTAS--><g id="link_editarCargaTrabajo_OPCIONES_CARGA_TRABAJO_ABIERTAS"><path d="M426.74,697.15 C422.46,736.11 419.5,763 419.5,763 C419.5,763 395.5934,775.664 368.4334,790.034 " fill="none" id="editarCargaTrabajo-to-OPCIONES_CARGA_TRABAJO_ABIERTAS-1" style="stroke:#FF0000;stroke-width:1.0;"/><polygon fill="#FF0000" points="363.13,792.84,372.9558,792.1667,367.5495,790.5017,369.2145,785.0954,363.13,792.84" style="stroke:#FF0000;stroke-width:1.0;"/><path d="M427.5,732 L427.5,758 L554.5,758 L554.5,742 L544.5,732 L427.5,732 " fill="#FEFFDD" style="stroke:#181818;stroke-width:0.5;"/><path d="M544.5,732 L544.5,742 L554.5,742 L544.5,732 " fill="#FEFFDD" style="stroke:#181818;stroke-width:0.5;"/><text fill="#000000" font-family="sans-serif" font-size="13" lengthAdjust="spacing" textLength="106" x="433.5" y="750.4951">Edici&#243;n cancelada</text></g><!--link editarCargaTrabajo to PANEL_PRINCIPAL_ABIERTO--><g id="link_editarCargaTrabajo_PANEL_PRINCIPAL_ABIERTO"><path d="M583.59,697.2 C600.68,736.65 613.1854,765.4942 622.5754,787.1742 " fill="none" id="editarCargaTrabajo-to-PANEL_PRINCIPAL_ABIERTO" style="stroke:#008000;stroke-width:1.0;"/><polygon fill="#008000" points="624.96,792.68,625.0535,782.8316,622.9728,788.0919,617.7125,786.0111,624.96,792.68" style="stroke:#008000;stroke-width:1.0;"/><path d="M614.5,732 L614.5,758 L751.5,758 L751.5,742 L741.5,732 L614.5,732 " fill="#FEFFDD" style="stroke:#181818;stroke-width:0.5;"/><path d="M741.5,732 L741.5,742 L751.5,742 L741.5,732 " fill="#FEFFDD" style="stroke:#181818;stroke-width:0.5;"/><text fill="#000000" font-family="sans-serif" font-size="13" lengthAdjust="spacing" textLength="116" x="620.5" y="750.4951">abrirPanelPrincipal()</text></g><!--SRC=[dLHVRvim47_dKrZPIpkfclPUHQ8CJPcw12NHNgegEknhv1Lyw6mUkccVQXzXNsmsa7OiJiS2B-2pV__km3vgqm13BIfjq3qrA1ggdi9BabW73eKsxmLOCLiLsMArp3UxB5r_J7VRTNgJVbhjqfj5ljwccraIDbxTlTapehc_cWjKsW5dm7lOCfJmbGwGnvMEuNZvud8clYU9y5T_SkPll_KpMSTW57MRZ-jvG3fT_WALLg7-0HpP7l_kxVr8VOJ2a8SW4w9wx1Qkotb6n4eRKCJNxygvi5HfwSa7Zw828GE0K2ZSuDK_jWP4Wsp9zD1eL0VVQnbpZsGTEukfscZhi8PEKSDeqNX5CIaWNGjLz1XohRlsEoRLIisY9gKVj0IfoQ2Dw1w96yd-A_7_JdFV0giG9rbleYurnVZ7B2C1lhtJqXfi7vYx3lOfwM_U-Q-V9kGNoVBCx3sgWabU6DLv4r2t6EP983DvGK73eQkTeOdjbyICSdhp1xsl9N-otnACnAfFttz9fsM-5h3L9ZuiFv8ayWlwSrp-yRDBHcRoGQ1uy5Q6Xhva4sSQmZcFPqXd0ispeI9TvhUxOhrOPeiYlHqOLcC2A5bp0GQhWhMHke7gulA5upS0]--></g></svg>