<?plantuml 1.2026.2?><svg xmlns="http://www.w3.org/2000/svg" xmlns:xlink="http://www.w3.org/1999/xlink" contentStyleType="text/css" data-diagram-type="DESCRIPTION" height="313px" preserveAspectRatio="none" style="width:930px;height:313px;background:#FFFFFF;" version="1.1" viewBox="0 0 930 313" width="930px" zoomAndPan="magnify"><defs/><g><!--cluster importarConvocatoria--><g class="cluster" data-qualified-name="importarConvocatoria" data-source-line="9" id="ent0003"><path d="M8.5,6 L168.5703,6 A3.75,3.75 0 0 1 171.0703,8.5 L178.0703,25.9688 L728.5,25.9688 A2.5,2.5 0 0 1 731,28.4688 L731,303.5 A2.5,2.5 0 0 1 728.5,306 L8.5,306 A2.5,2.5 0 0 1 6,303.5 L6,8.5 A2.5,2.5 0 0 1 8.5,6" fill="none" style="stroke:#000000;stroke-width:1.5;"/><line style="stroke:#000000;stroke-width:1.5;" x1="6" x2="178.0703" y1="25.9688" y2="25.9688"/><text fill="#000000" font-family="sans-serif" font-size="12" font-weight="bold" lengthAdjust="spacing" textLength="159.0703" x="10" y="19.1387">importarConvocatoria()</text></g><!--entity ImportarConvocatoriaView--><g class="entity" data-qualified-name="importarConvocatoria.ImportarConvocatoriaView" data-source-line="10" id="ent0004"><rect fill="#629EF9" height="33.9688" rx="2.5" ry="2.5" style="stroke:#181818;stroke-width:0.5;" width="180.2422" x="535" y="38"/><text fill="#000000" font-family="sans-serif" font-size="12" lengthAdjust="spacing" textLength="160.2422" x="545" y="59.1387">ImportarConvocatoriaView</text></g><!--entity ConvocatoriaController--><g class="entity" data-qualified-name="importarConvocatoria.ConvocatoriaController" data-source-line="11" id="ent0005"><rect fill="#B5BD68" height="33.9688" rx="2.5" ry="2.5" style="stroke:#181818;stroke-width:0.5;" width="158.6797" x="245.5" y="147"/><text fill="#000000" font-family="sans-serif" font-size="12" lengthAdjust="spacing" textLength="138.6797" x="255.5" y="168.1387">ConvocatoriaController</text></g><!--entity ConvocatoriaRepository--><g class="entity" data-qualified-name="importarConvocatoria.ConvocatoriaRepository" data-source-line="12" id="ent0006"><rect fill="#F2AC4E" height="33.9688" rx="2.5" ry="2.5" style="stroke:#181818;stroke-width:0.5;" width="163.7363" x="22" y="256"/><text fill="#000000" font-family="sans-serif" font-size="12" lengthAdjust="spacing" textLength="143.7363" x="32" y="277.1387">ConvocatoriaRepository</text></g><!--entity ExternalSourceAdapter--><g class="entity" data-qualified-name="importarConvocatoria.ExternalSourceAdapter" data-source-line="13" id="ent0007"><rect fill="#F2AC4E" height="33.9688" rx="2.5" ry="2.5" style="stroke:#181818;stroke-width:0.5;" width="159.2949" x="387.5" y="256"/><text fill="#000000" font-family="sans-serif" font-size="12" lengthAdjust="spacing" textLength="139.2949" x="397.5" y="277.1387">ExternalSourceAdapter</text></g><!--entity ConvocatoriaAbierta--><g class="entity" data-qualified-name="ConvocatoriaAbierta" data-source-line="7" id="ent0002"><rect fill="#CDEBA5" height="33.9688" rx="2.5" ry="2.5" style="stroke:#181818;stroke-width:0.5;" width="175.3438" x="747.5" y="147"/><text fill="#000000" font-family="sans-serif" font-size="12" lengthAdjust="spacing" textLength="155.3438" x="757.5" y="168.1387">CONVOCATORIA_ABIERTA</text></g><!--link ConvocatoriaAbierta to ImportarConvocatoriaView--><g class="link" data-entity-1="ent0002" data-entity-2="ent0004" data-link-type="dependency" data-source-line="16" id="lnk8"><path d="M760.8,146.98 C699.33,133.7 622,117 622,117 C622,117 622,102 622,102 C622,102 622.7017,91.3374 623.5617,78.0774" fill="none" id="ConvocatoriaAbierta-to-ImportarConvocatoriaView" style="stroke:#181818;stroke-width:1;"/><polygon fill="#181818" points="623.95,72.09,619.3759,80.8122,623.6264,77.0795,627.3591,81.33,623.95,72.09" style="stroke:#181818;stroke-width:1;"/><text fill="#000000" font-family="sans-serif" font-size="12" lengthAdjust="spacing" textLength="140.6602" x="623" y="114.1387">importarConvocatoria()</text></g><!--link ImportarConvocatoriaView to ConvocatoriaAbierta--><g class="link" data-entity-1="ent0004" data-entity-2="ent0002" data-link-type="dependency" data-source-line="22" id="lnk12"><path d="M675.01,72.09 C716.25,85.35 768,102 768,102 C768,102 793.1131,124.861 812.9631,142.931" fill="none" id="ImportarConvocatoriaView-to-ConvocatoriaAbierta" style="stroke:#181818;stroke-width:1;stroke-dasharray:7,7;"/><polygon fill="#181818" points="817.4,146.97,813.4373,137.9535,813.7026,143.6041,808.0519,143.8694,817.4,146.97" style="stroke:#181818;stroke-width:1;"/><text fill="#000000" font-family="sans-serif" font-size="12" lengthAdjust="spacing" textLength="62.4551" x="785" y="114.1387">&#171;finalizar&#187;</text></g><!--link ImportarConvocatoriaView to ConvocatoriaAbierta--><g class="link" data-entity-1="ent0004" data-entity-2="ent0002" data-link-type="dependency" data-source-line="23" id="lnk13"><path d="M705.47,72.02 C772.13,85.3 856,102 856,102 C856,102 856,117 856,117 C856,117 850.894,128.1929 844.834,141.4529" fill="none" id="ImportarConvocatoriaView-to-ConvocatoriaAbierta-1" style="stroke:#181818;stroke-width:1;stroke-dasharray:7,7;"/><polygon fill="#181818" points="842.34,146.91,849.719,140.387,844.4183,142.3624,842.4429,137.0617,842.34,146.91" style="stroke:#181818;stroke-width:1;"/><text fill="#000000" font-family="sans-serif" font-size="12" lengthAdjust="spacing" textLength="65.8418" x="857" y="114.1387">&#171;cancelar&#187;</text></g><!--link ImportarConvocatoriaView to ConvocatoriaController--><g class="link" data-entity-1="ent0004" data-entity-2="ent0005" data-link-type="dependency" data-source-line="18" id="lnk9"><path d="M534.76,71.32 C455.93,84.7 354,102 354,102 C354,102 343.786,123.4811 335.196,141.5511" fill="none" id="ImportarConvocatoriaView-to-ConvocatoriaController" style="stroke:#181818;stroke-width:1;"/><polygon fill="#181818" points="332.62,146.97,340.0966,140.559,334.7667,142.4543,332.8714,137.1244,332.62,146.97" style="stroke:#181818;stroke-width:1;"/><text fill="#000000" font-family="sans-serif" font-size="12" lengthAdjust="spacing" textLength="258.5742" x="355" y="114.1387">solicitarImportacion(fuente) : Convocatoria</text></g><!--link ConvocatoriaController to ExternalSourceAdapter--><g class="link" data-entity-1="ent0005" data-entity-2="ent0007" data-link-type="dependency" data-source-line="19" id="lnk10"><path d="M361.02,181.09 C390.73,194.35 428,211 428,211 C428,211 441.9686,232.8445 453.5186,250.9145" fill="none" id="ConvocatoriaController-to-ExternalSourceAdapter" style="stroke:#181818;stroke-width:1;"/><polygon fill="#181818" points="456.75,255.97,455.2733,246.2325,454.0572,251.7571,448.5326,250.541,456.75,255.97" style="stroke:#181818;stroke-width:1;"/><text fill="#000000" font-family="sans-serif" font-size="12" lengthAdjust="spacing" textLength="246.668" x="439" y="223.1387">extraerDatos(fuente) : ConvocatoriaData</text></g><!--link ConvocatoriaController to ConvocatoriaRepository--><g class="link" data-entity-1="ent0005" data-entity-2="ent0006" data-link-type="dependency" data-source-line="20" id="lnk11"><path d="M245.46,178.31 C164.24,191.89 50,211 50,211 C50,211 50,226 50,226 C50,226 64.9721,238.7598 80.5421,252.0198" fill="none" id="ConvocatoriaController-to-ConvocatoriaRepository" style="stroke:#181818;stroke-width:1;"/><polygon fill="#181818" points="85.11,255.91,80.8516,247.0294,81.3034,252.6681,75.6646,253.1199,85.11,255.91" style="stroke:#181818;stroke-width:1;"/><text fill="#000000" font-family="sans-serif" font-size="12" lengthAdjust="spacing" textLength="368.666" x="51" y="223.1387">actualizarConDatosExternos(convocatoriaId, datos) : boolean</text></g><?plantuml-src dPDHJy8m58NV-ojku0KICP6eqSMGp34INYH1uwkvwoxOM7gNhXFH-DyjWyZKZWVtrEtSyvtsD2jVb2dGuWeob2zBovN94zPiOVsi78doMo-VCUUrCajOe2wRofWMM6atOUDsranxLdZWNhqJd0qRebQ6tAOWA5XljYz2M98EpL8JT9DnUXjVG2UPtJtEalXXDf_6J_7jD9q_n1t04X8shopHiLKOPugiGo4AduzBWevQ5Uo_sEPKhryRGn9y2F3F8Ryp3KmzAbhNY3OHkfV3wtHo_HlMdFDhPrbhid-ESP2Wcrra-UNLCT2S2YwLNsx-W0uIT2V3E3bFVuFIDqVMeBxdoagASopSVaD1vHlpAKIWU1ZOmQYrbGZ2jo54Qu-3tFF2rKHGibPIUTlUBXMRtg8YuwWFqG-RQActvWTF6W6zEOjanzvKjc2zTXmTlem8KBeAjNglZrmdx3RXasJ3CirF8D-gs-2CMHEQ8ssTdev2lqC4DpSBPNPvez6__1AD9BsrVm40?></g></svg>