<?xml version="1.0" encoding="us-ascii" standalone="no"?><svg xmlns="http://www.w3.org/2000/svg" xmlns:xlink="http://www.w3.org/1999/xlink" contentStyleType="text/css" height="849px" preserveAspectRatio="none" style="width:922px;height:849px;background:#FFFFFF;" version="1.1" viewBox="0 0 922 849" width="922px" zoomAndPan="magnify"><defs/><g><g id="in1"><rect fill="#F1F1F1" height="50" rx="12.5" ry="12.5" style="stroke:#181818;stroke-width:0.5;" width="294" x="311" y="7"/><line style="stroke:#181818;stroke-width:0.5;" x1="311" x2="605" y1="34.6094" y2="34.6094"/><text fill="#000000" font-family="sans-serif" font-size="14" lengthAdjust="spacing" textLength="274" x="321" y="26.5332">OPCIONES_CARGA_TRABAJO_ABIERTAS</text></g><path d="M19.5,118 L896.5,118 A12.5,12.5 0 0 1 909,130.5 L909,145.6094 L7,145.6094 L7,130.5 A12.5,12.5 0 0 1 19.5,118 " fill="#F1F1F1" style="stroke:#F1F1F1;stroke-width:1.0;"/><rect fill="none" height="578.6094" rx="12.5" ry="12.5" style="stroke:#181818;stroke-width:0.5;" width="902" x="7" y="118"/><line style="stroke:#181818;stroke-width:0.5;" x1="7" x2="909" y1="145.6094" y2="145.6094"/><text fill="#000000" font-family="sans-serif" font-size="14" lengthAdjust="spacing" textLength="134" x="391" y="137.5332">editarCargaTrabajo()</text><g id="editarCargaTrabajo.MostrandoCarga"><rect fill="#F1F1F1" height="50" rx="12.5" ry="12.5" style="stroke:#181818;stroke-width:0.5;" width="50" x="290" y="248.6094"/><line style="stroke:#181818;stroke-width:0.5;" x1="290" x2="340" y1="276.2188" y2="276.2188"/><text fill="#000000" font-family="sans-serif" font-size="14" lengthAdjust="spacing" textLength="4" x="313" y="268.1426">&#160;</text></g><g id="editarCargaTrabajo.EditandoCarga"><rect fill="#F1F1F1" height="50" rx="12.5" ry="12.5" style="stroke:#181818;stroke-width:0.5;" width="50" x="290" y="386.6094"/><line style="stroke:#181818;stroke-width:0.5;" x1="290" x2="340" y1="414.2188" y2="414.2188"/><text fill="#000000" font-family="sans-serif" font-size="14" lengthAdjust="spacing" textLength="4" x="313" y="406.1426">&#160;</text></g><g id="editarCargaTrabajo.ValidandoDatos"><rect fill="#F1F1F1" height="50" rx="12.5" ry="12.5" style="stroke:#181818;stroke-width:0.5;" width="50" x="158" y="525.6094"/><line style="stroke:#181818;stroke-width:0.5;" x1="158" x2="208" y1="553.2188" y2="553.2188"/><text fill="#000000" font-family="sans-serif" font-size="14" lengthAdjust="spacing" textLength="4" x="181" y="545.1426">&#160;</text></g><ellipse cx="315" cy="166.6094" fill="#222222" rx="10" ry="10" style="stroke:#222222;stroke-width:1.0;"/><ellipse cx="391" cy="675.6094" fill="none" rx="11" ry="11" style="stroke:#222222;stroke-width:1.0;"/><ellipse cx="391" cy="675.6094" fill="#222222" rx="6" ry="6" style="stroke:#222222;stroke-width:1.0;"/><!--link *start*editarCargaTrabajo to MostrandoCarga--><g id="link_*start*editarCargaTrabajo_MostrandoCarga"><path d="M315,176.9294 C315,192.7894 315,219.5194 315,242.2494 " fill="none" id="*start*editarCargaTrabajo-to-MostrandoCarga" style="stroke:#008000;stroke-width:1.0;"/><polygon fill="#008000" points="315,248.2494,319,239.2494,315,243.2494,311,239.2494,315,248.2494" style="stroke:#008000;stroke-width:1.0;"/><path d="M320,199.6094 L320,225.6094 L615,225.6094 L615,209.6094 L605,199.6094 L320,199.6094 " fill="#FEFFDD" style="stroke:#181818;stroke-width:0.5;"/><path d="M605,199.6094 L605,209.6094 L615,209.6094 L605,199.6094 " fill="#FEFFDD" style="stroke:#181818;stroke-width:0.5;"/><text fill="#000000" font-family="sans-serif" font-size="13" font-weight="bold" lengthAdjust="spacing" textLength="78" x="326" y="218.1045">Investigador</text><text fill="#000000" font-family="sans-serif" font-size="13" lengthAdjust="spacing" textLength="192" x="408" y="218.1045">solicita editar su carga de trabajo</text></g><!--link MostrandoCarga to EditandoCarga--><g id="link_MostrandoCarga_EditandoCarga"><path d="M315,298.6094 C315,323.3194 315,355.6094 315,380.3894 " fill="none" id="MostrandoCarga-to-EditandoCarga" style="stroke:#008000;stroke-width:1.0;"/><polygon fill="#008000" points="315,386.3894,319,377.3894,315,381.3894,311,377.3894,315,386.3894" style="stroke:#008000;stroke-width:1.0;"/><path d="M320,321.6094 L320,363.6094 L596,363.6094 L596,331.6094 L586,321.6094 L320,321.6094 " fill="#FEFFDD" style="stroke:#181818;stroke-width:0.5;"/><path d="M586,321.6094 L586,331.6094 L596,331.6094 L586,321.6094 " fill="#FEFFDD" style="stroke:#181818;stroke-width:0.5;"/><text fill="#000000" font-family="sans-serif" font-size="13" font-weight="bold" lengthAdjust="spacing" textLength="51" x="326" y="340.1045">Sistema</text><text fill="#000000" font-family="sans-serif" font-size="13" lengthAdjust="spacing" textLength="200" x="381" y="340.1045">presenta la carga de trabajo actual</text><text fill="#000000" font-family="sans-serif" font-size="13" font-weight="bold" lengthAdjust="spacing" textLength="51" x="326" y="356.4561">Sistema</text><text fill="#000000" font-family="sans-serif" font-size="13" lengthAdjust="spacing" textLength="190" x="381" y="356.4561">permite introducir modificaciones</text></g><!--link EditandoCarga to ValidandoDatos--><g id="link_EditandoCarga_ValidandoDatos"><path d="M289.93,416.1494 C218.33,426.2794 18,454.6094 18,454.6094 C18,454.6094 18,506.6094 18,506.6094 C18,506.6094 105.9739,529.5362 152.1339,541.5662 " fill="none" id="EditandoCarga-to-ValidandoDatos" style="stroke:#008000;stroke-width:1.0;"/><polygon fill="#008000" points="157.94,543.0794,150.2397,536.9389,153.1016,541.8184,148.2221,544.6804,157.94,543.0794" style="stroke:#008000;stroke-width:1.0;"/><path d="M23,467.6094 L23,493.6094 L288,493.6094 L288,477.6094 L278,467.6094 L23,467.6094 " fill="#FEFFDD" style="stroke:#181818;stroke-width:0.5;"/><path d="M278,467.6094 L278,477.6094 L288,477.6094 L278,467.6094 " fill="#FEFFDD" style="stroke:#181818;stroke-width:0.5;"/><text fill="#000000" font-family="sans-serif" font-size="13" font-weight="bold" lengthAdjust="spacing" textLength="78" x="29" y="486.1045">Investigador</text><text fill="#000000" font-family="sans-serif" font-size="13" lengthAdjust="spacing" textLength="162" x="111" y="486.1045">solicita guardar los cambios</text></g><!--link ValidandoDatos to *end*editarCargaTrabajo--><g id="link_ValidandoDatos_*end*editarCargaTrabajo"><path d="M183.26,576.0694 C183.55,604.2194 184,646.6094 184,646.6094 C184,646.6094 331.6241,666.5752 374.2141,672.3352 " fill="none" id="ValidandoDatos-to-*end*editarCargaTrabajo" style="stroke:#008000;stroke-width:1.0;"/><polygon fill="#008000" points="380.16,673.1394,371.7773,667.9693,375.2051,672.4693,370.7051,675.8971,380.16,673.1394" style="stroke:#008000;stroke-width:1.0;"/><path d="M189,599.6094 L189,641.6094 L580,641.6094 L580,609.6094 L570,599.6094 L189,599.6094 " fill="#FEFFDD" style="stroke:#181818;stroke-width:0.5;"/><path d="M570,599.6094 L570,609.6094 L580,609.6094 L570,599.6094 " fill="#FEFFDD" style="stroke:#181818;stroke-width:0.5;"/><text fill="#000000" font-family="sans-serif" font-size="13" font-weight="bold" lengthAdjust="spacing" textLength="51" x="195" y="618.1045">Sistema</text><text fill="#000000" font-family="sans-serif" font-size="13" lengthAdjust="spacing" textLength="315" x="250" y="618.1045">permite solicitar la actualizaci&#243;n de la carga de trabajo</text><text fill="#000000" font-family="sans-serif" font-size="13" font-weight="bold" lengthAdjust="spacing" textLength="51" x="195" y="634.4561">Sistema</text><text fill="#000000" font-family="sans-serif" font-size="13" lengthAdjust="spacing" textLength="231" x="250" y="634.4561">presenta la carga de trabajo actualizada</text></g><!--link ValidandoDatos to EditandoCarga--><g id="link_ValidandoDatos_EditandoCarga"><path d="M208.24,539.7394 C240.71,527.0494 293,506.6094 293,506.6094 C293,506.6094 301.4543,470.5119 307.9643,442.6619 " fill="none" id="ValidandoDatos-to-EditandoCarga" style="stroke:#FF0000;stroke-width:1.0;"/><polygon fill="#FF0000" points="309.33,436.8194,303.3864,444.6727,308.1919,441.6881,311.1765,446.4936,309.33,436.8194" style="stroke:#FF0000;stroke-width:1.0;"/><path d="M310,459.6094 L310,501.6094 L569,501.6094 L569,469.6094 L559,459.6094 L310,459.6094 " fill="#FEFFDD" style="stroke:#181818;stroke-width:0.5;"/><path d="M559,459.6094 L559,469.6094 L569,469.6094 L559,459.6094 " fill="#FEFFDD" style="stroke:#181818;stroke-width:0.5;"/><text fill="#000000" font-family="sans-serif" font-size="13" font-weight="bold" lengthAdjust="spacing" textLength="51" x="316" y="478.1045">Sistema</text><text fill="#000000" font-family="sans-serif" font-size="13" lengthAdjust="spacing" textLength="183" x="371" y="478.1045">muestra errores de introducci&#243;n</text><text fill="#000000" font-family="sans-serif" font-size="13" font-weight="bold" lengthAdjust="spacing" textLength="51" x="316" y="494.4561">Sistema</text><text fill="#000000" font-family="sans-serif" font-size="13" lengthAdjust="spacing" textLength="178" x="371" y="494.4561">permite introducir correcciones</text></g><!--link EditandoCarga to *end*editarCargaTrabajo--><g id="link_EditandoCarga_*end*editarCargaTrabajo"><path d="M340.22,416.6394 C406.04,427.1494 578,454.6094 578,454.6094 C578,454.6094 585,594.6094 585,594.6094 C585,594.6094 585,646.6094 585,646.6094 C585,646.6094 448.3185,666.3323 407.6485,672.2023 " fill="none" id="EditandoCarga-to-*end*editarCargaTrabajo" style="stroke:#FF0000;stroke-width:1.0;"/><polygon fill="#FF0000" points="401.71,673.0594,411.1891,675.7327,406.6587,672.3451,410.0463,667.8147,401.71,673.0594" style="stroke:#FF0000;stroke-width:1.0;"/><path d="M589,529.6094 L589,571.6094 L900,571.6094 L900,539.6094 L890,529.6094 L589,529.6094 " fill="#FEFFDD" style="stroke:#181818;stroke-width:0.5;"/><path d="M890,529.6094 L890,539.6094 L900,539.6094 L890,529.6094 " fill="#FEFFDD" style="stroke:#181818;stroke-width:0.5;"/><text fill="#000000" font-family="sans-serif" font-size="13" font-weight="bold" lengthAdjust="spacing" textLength="78" x="595" y="548.1045">Investigador</text><text fill="#000000" font-family="sans-serif" font-size="13" lengthAdjust="spacing" textLength="153" x="677" y="548.1045">solicita cancelar la edici&#243;n</text><text fill="#000000" font-family="sans-serif" font-size="13" font-weight="bold" lengthAdjust="spacing" textLength="51" x="595" y="564.4561">Sistema</text><text fill="#000000" font-family="sans-serif" font-size="13" lengthAdjust="spacing" textLength="235" x="650" y="564.4561">presenta la carga de trabajo sin cambios</text></g><g id="OPCIONES_CARGA_TRABAJO_ABIERTAS"><rect fill="#F1F1F1" height="50" rx="12.5" ry="12.5" style="stroke:#181818;stroke-width:0.5;" width="294" x="165" y="793"/><line style="stroke:#181818;stroke-width:0.5;" x1="165" x2="459" y1="820.6094" y2="820.6094"/><text fill="#000000" font-family="sans-serif" font-size="14" lengthAdjust="spacing" textLength="274" x="175" y="812.5332">OPCIONES_CARGA_TRABAJO_ABIERTAS</text></g><g id="PANEL_PRINCIPAL_ABIERTO"><rect fill="#F1F1F1" height="50" rx="12.5" ry="12.5" style="stroke:#181818;stroke-width:0.5;" width="210" x="530" y="793"/><line style="stroke:#181818;stroke-width:0.5;" x1="530" x2="740" y1="820.6094" y2="820.6094"/><text fill="#000000" font-family="sans-serif" font-size="14" lengthAdjust="spacing" textLength="190" x="540" y="812.5332">PANEL_PRINCIPAL_ABIERTO</text></g><!--link in1 to editarCargaTrabajo--><g id="link_in1_editarCargaTrabajo"><path d="M458,57.22 C458,72.25 458,87.35 458,111.81 " fill="none" id="in1-to-editarCargaTrabajo" style="stroke:#008000;stroke-width:1.0;"/><polygon fill="#008000" points="458,117.81,462,108.81,458,112.81,454,108.81,458,117.81" style="stroke:#008000;stroke-width:1.0;"/></g><!--link editarCargaTrabajo to OPCIONES_CARGA_TRABAJO_ABIERTAS--><g id="link_editarCargaTrabajo_OPCIONES_CARGA_TRABAJO_ABIERTAS"><path d="M291.31,697.04 C280.6,715.57 274,727 274,727 C274,727 274,763 274,763 C274,763 281.4253,773.5644 291.5453,787.9344 " fill="none" id="editarCargaTrabajo-to-OPCIONES_CARGA_TRABAJO_ABIERTAS" style="stroke:#008000;stroke-width:1.0;"/><polygon fill="#008000" points="295,792.84,293.0883,783.1785,292.1211,788.752,286.5475,787.7848,295,792.84" style="stroke:#008000;stroke-width:1.0;"/><path d="M279,732 L279,758 L410,758 L410,742 L400,732 L279,732 " fill="#FEFFDD" style="stroke:#181818;stroke-width:0.5;"/><path d="M400,732 L400,742 L410,742 L400,732 " fill="#FEFFDD" style="stroke:#181818;stroke-width:0.5;"/><text fill="#000000" font-family="sans-serif" font-size="13" lengthAdjust="spacing" textLength="110" x="285" y="750.4951">Edici&#243;n confirmada</text></g><!--link editarCargaTrabajo to OPCIONES_CARGA_TRABAJO_ABIERTAS--><g id="link_editarCargaTrabajo_OPCIONES_CARGA_TRABAJO_ABIERTAS"><path d="M426.24,697.15 C421.96,736.11 419,763 419,763 C419,763 393.7171,775.7679 365.2271,790.1379 " fill="none" id="editarCargaTrabajo-to-OPCIONES_CARGA_TRABAJO_ABIERTAS-1" style="stroke:#FF0000;stroke-width:1.0;"/><polygon fill="#FF0000" points="359.87,792.84,369.7071,792.3583,364.3343,790.5883,366.1043,785.2155,359.87,792.84" style="stroke:#FF0000;stroke-width:1.0;"/><path d="M427,732 L427,758 L554,758 L554,742 L544,732 L427,732 " fill="#FEFFDD" style="stroke:#181818;stroke-width:0.5;"/><path d="M544,732 L544,742 L554,742 L544,732 " fill="#FEFFDD" style="stroke:#181818;stroke-width:0.5;"/><text fill="#000000" font-family="sans-serif" font-size="13" lengthAdjust="spacing" textLength="106" x="433" y="750.4951">Edici&#243;n cancelada</text></g><!--link editarCargaTrabajo to PANEL_PRINCIPAL_ABIERTO--><g id="link_editarCargaTrabajo_PANEL_PRINCIPAL_ABIERTO"><path d="M583.09,697.2 C600.18,736.65 612.6854,765.4942 622.0754,787.1742 " fill="none" id="editarCargaTrabajo-to-PANEL_PRINCIPAL_ABIERTO" style="stroke:#008000;stroke-width:1.0;"/><polygon fill="#008000" points="624.46,792.68,624.5535,782.8316,622.4728,788.0919,617.2125,786.0111,624.46,792.68" style="stroke:#008000;stroke-width:1.0;"/><path d="M614,732 L614,758 L751,758 L751,742 L741,732 L614,732 " fill="#FEFFDD" style="stroke:#181818;stroke-width:0.5;"/><path d="M741,732 L741,742 L751,742 L741,732 " fill="#FEFFDD" style="stroke:#181818;stroke-width:0.5;"/><text fill="#000000" font-family="sans-serif" font-size="13" lengthAdjust="spacing" textLength="116" x="620" y="750.4951">abrirPanelPrincipal()</text></g><!--SRC=[dPJVRjCm5CRlynHMkTcG9iJzL2ah4IeQRTHMt4nJTMAVLOSvTdJi80t4K_48l1XsaZ92qX6QNCL_plTzl-FOFPAfWA4KcWpwfmf5PVLJ_4WIvy6Z8FDMW1EpTRvOhbVPThz8D-_J_MwJtgGVrllqPfbjTkbsbiI5LtUl3enexg_c0XLvu0Nm0NOC1NosnvB3cKPXE7nnEHFVaaI4fzqv2szO-j4wps2KRHOFvxDOwVJq9z2aulmxyDQrzUzUt_VSZqWO6qfO4r4zDWFNnNnflg3pT01b-VfDCHVEQf91lGifN2rah20K2jzXY7lHgAPWgzvNwnaPPXdpiINdiOJ6GiNeq0GB6WRQ0gIlGOzkGowfQRXdgsf9B4ghw84aIB86tOZldhcUxRyO_p-_Gmsi0a1jNKXH5cJ73FHbUWv2HwVXwd8VbJboQp7Hrn3zvmyJ0Ox0F1D-gAfWKXP6TTuHA6kC1qeWims6eeTZMvj04_ilBJFAwTtl_Bv4_dJ39HY9kiKVVfxJFbyYxCYCdvRlIJ9oxVnvNlvnmIMzD5bdC20o3yHbxEWpd76bZiwPEYsT2JA_0-NfAhlTvvlbQh7CqzjEOTqNW8A9Sp2eSoOZgG9zSVciyGi0]--></g></svg>