<?xml version="1.0" encoding="us-ascii" standalone="no"?><svg xmlns="http://www.w3.org/2000/svg" xmlns:xlink="http://www.w3.org/1999/xlink" contentStyleType="text/css" height="380px" preserveAspectRatio="none" style="width:466px;height:380px;background:#FFFFFF;" version="1.1" viewBox="0 0 466 380" width="466px" zoomAndPan="magnify"><defs/><g><line style="stroke:#AAAAAA;stroke-width:1.0;" x1="6" x2="459" y1="8.5" y2="8.5"/><line style="stroke:#AAAAAA;stroke-width:1.0;" x1="6" x2="459" y1="10.5" y2="10.5"/><text fill="#000000" font-family="sans-serif" font-size="12" font-weight="bold" lengthAdjust="spacing" textLength="154" x="6" y="26.457">GIPF - EDITAR ENTREGABLE</text><line style="stroke:#AAAAAA;stroke-width:1.0;" x1="6" x2="459" y1="33.5938" y2="33.5938"/><line style="stroke:#AAAAAA;stroke-width:1.0;" x1="6" x2="459" y1="35.5938" y2="35.5938"/><text fill="#000000" font-family="sans-serif" font-size="12" font-weight="bold" lengthAdjust="spacing" textLength="117" x="7" y="52.5508">Datos del entregable</text><line style="stroke:#AAAAAA;stroke-width:1.0;" x1="7" x2="458" y1="60.6875" y2="60.6875"/><text fill="#000000" font-family="sans-serif" font-size="12" font-weight="bold" lengthAdjust="spacing" textLength="14" x="9" y="79.6445">ID:</text><text fill="#000000" font-family="sans-serif" font-size="12" lengthAdjust="spacing" textLength="49" x="28" y="79.6445">ENT-045</text><line style="stroke:#000000;stroke-width:1.0;" x1="26" x2="85" y1="82.2813" y2="82.2813"/><line style="stroke:#000000;stroke-width:1.0;" x1="26" x2="26" y1="79.2813" y2="81.2813"/><line style="stroke:#000000;stroke-width:1.0;" x1="85" x2="85" y1="79.2813" y2="81.2813"/><line style="stroke:#AAAAAA;stroke-width:1.0;" x1="8" x2="457" y1="90.7813" y2="90.7813"/><text fill="#000000" font-family="sans-serif" font-size="12" font-weight="bold" lengthAdjust="spacing" textLength="34" x="9" y="108.7383">T&#237;tulo:</text><rect fill="#EEEEEE" height="19.0938" rx="5" ry="5" style="stroke:#000000;stroke-width:2.5;" width="236" x="47.5" y="98.7813"/><text fill="#000000" font-family="sans-serif" font-size="12" lengthAdjust="spacing" textLength="150" x="90.5" y="113.2383">Memoria t&#233;cnica - versi&#243;n 1</text><line style="stroke:#AAAAAA;stroke-width:1.0;" x1="8" x2="457" y1="126.875" y2="126.875"/><text fill="#000000" font-family="sans-serif" font-size="12" font-weight="bold" lengthAdjust="spacing" textLength="27" x="9" y="144.832">Tipo:</text><text fill="#000000" font-family="sans-serif" font-size="12" lengthAdjust="spacing" textLength="42" x="42" y="145.832">Informe</text><line style="stroke:#000000;stroke-width:1.0;" x1="40" x2="99" y1="148.4688" y2="148.4688"/><line style="stroke:#000000;stroke-width:1.0;" x1="40" x2="40" y1="145.4688" y2="147.4688"/><line style="stroke:#000000;stroke-width:1.0;" x1="99" x2="99" y1="145.4688" y2="147.4688"/><text fill="#000000" font-family="sans-serif" font-size="12" lengthAdjust="spacing" textLength="43" x="106" y="145.832">Dataset</text><line style="stroke:#000000;stroke-width:1.0;" x1="104" x2="163" y1="148.4688" y2="148.4688"/><line style="stroke:#000000;stroke-width:1.0;" x1="104" x2="104" y1="145.4688" y2="147.4688"/><line style="stroke:#000000;stroke-width:1.0;" x1="163" x2="163" y1="145.4688" y2="147.4688"/><text fill="#000000" font-family="sans-serif" font-size="12" lengthAdjust="spacing" textLength="73" x="170" y="145.832">Presentaci&#243;n</text><line style="stroke:#000000;stroke-width:1.0;" x1="168" x2="267" y1="148.4688" y2="148.4688"/><line style="stroke:#000000;stroke-width:1.0;" x1="168" x2="168" y1="145.4688" y2="147.4688"/><line style="stroke:#000000;stroke-width:1.0;" x1="267" x2="267" y1="145.4688" y2="147.4688"/><text fill="#000000" font-family="sans-serif" font-size="12" lengthAdjust="spacing" textLength="23" x="274" y="145.832">Otro</text><line style="stroke:#000000;stroke-width:1.0;" x1="272" x2="307" y1="148.4688" y2="148.4688"/><line style="stroke:#000000;stroke-width:1.0;" x1="272" x2="272" y1="145.4688" y2="147.4688"/><line style="stroke:#000000;stroke-width:1.0;" x1="307" x2="307" y1="145.4688" y2="147.4688"/><line style="stroke:#AAAAAA;stroke-width:1.0;" x1="8" x2="457" y1="157.9688" y2="157.9688"/><text fill="#000000" font-family="sans-serif" font-size="12" font-weight="bold" lengthAdjust="spacing" textLength="42" x="9" y="175.9258">Estado:</text><text fill="#000000" font-family="sans-serif" font-size="12" lengthAdjust="spacing" textLength="56" x="57" y="176.9258">Pendiente</text><line style="stroke:#000000;stroke-width:1.0;" x1="55" x2="130" y1="179.5625" y2="179.5625"/><line style="stroke:#000000;stroke-width:1.0;" x1="55" x2="55" y1="176.5625" y2="178.5625"/><line style="stroke:#000000;stroke-width:1.0;" x1="130" x2="130" y1="176.5625" y2="178.5625"/><text fill="#000000" font-family="sans-serif" font-size="12" lengthAdjust="spacing" textLength="49" x="137" y="176.9258">En curso</text><line style="stroke:#000000;stroke-width:1.0;" x1="135" x2="202" y1="179.5625" y2="179.5625"/><line style="stroke:#000000;stroke-width:1.0;" x1="135" x2="135" y1="176.5625" y2="178.5625"/><line style="stroke:#000000;stroke-width:1.0;" x1="202" x2="202" y1="176.5625" y2="178.5625"/><text fill="#000000" font-family="sans-serif" font-size="12" lengthAdjust="spacing" textLength="57" x="209" y="176.9258">Entregado</text><line style="stroke:#000000;stroke-width:1.0;" x1="207" x2="282" y1="179.5625" y2="179.5625"/><line style="stroke:#000000;stroke-width:1.0;" x1="207" x2="207" y1="176.5625" y2="178.5625"/><line style="stroke:#000000;stroke-width:1.0;" x1="282" x2="282" y1="176.5625" y2="178.5625"/><line style="stroke:#AAAAAA;stroke-width:1.0;" x1="8" x2="457" y1="189.0625" y2="189.0625"/><text fill="#000000" font-family="sans-serif" font-size="12" font-weight="bold" lengthAdjust="spacing" textLength="71" x="9" y="207.0195">Fecha l&#237;mite:</text><rect fill="#EEEEEE" height="19.0938" rx="5" ry="5" style="stroke:#000000;stroke-width:2.5;" width="100" x="84.5" y="197.0625"/><text fill="#000000" font-family="sans-serif" font-size="12" lengthAdjust="spacing" textLength="62" x="103.5" y="211.5195">30/06/2025</text><line style="stroke:#AAAAAA;stroke-width:1.0;" x1="8" x2="457" y1="225.1563" y2="225.1563"/><text fill="#000000" font-family="sans-serif" font-size="12" font-weight="bold" lengthAdjust="spacing" textLength="129" x="9" y="243.1133">Descripci&#243;n (si aplica):</text><rect fill="#EEEEEE" height="19.0938" rx="5" ry="5" style="stroke:#000000;stroke-width:2.5;" width="308" x="143.5" y="234.1563"/><text fill="#000000" font-family="sans-serif" font-size="12" lengthAdjust="spacing" textLength="3" x="296" y="248.6133">&#160;</text><line style="stroke:#AAAAAA;stroke-width:1.5;" x1="7" x2="458" y1="264.25" y2="264.25"/><text fill="#000000" font-family="sans-serif" font-size="12" font-weight="bold" lengthAdjust="spacing" textLength="101" x="7" y="281.207">Adjunto (si aplica)</text><rect fill="#EEEEEE" height="19.0938" rx="5" ry="5" style="stroke:#000000;stroke-width:2.5;" width="300" x="11.5" y="290.3438"/><text fill="#000000" font-family="sans-serif" font-size="12" lengthAdjust="spacing" textLength="187" x="68" y="304.8008">A&#241;adir / modificar archivo o enlace</text><line style="stroke:#AAAAAA;stroke-width:1.5;" x1="7" x2="458" y1="319.4375" y2="319.4375"/><rect fill="#EEEEEE" height="19.0938" rx="5" ry="5" style="stroke:#000000;stroke-width:2.5;" width="124" x="10.5" y="327.4375"/><text fill="#000000" font-family="sans-serif" font-size="12" lengthAdjust="spacing" textLength="96" x="24.5" y="341.8945">Guardar cambios</text><rect fill="#EEEEEE" height="19.0938" rx="5" ry="5" style="stroke:#000000;stroke-width:2.5;" width="132" x="141.5" y="327.4375"/><text fill="#000000" font-family="sans-serif" font-size="12" lengthAdjust="spacing" textLength="93" x="161" y="341.8945">Cancelar edici&#243;n</text><line style="stroke:#AAAAAA;stroke-width:1.0;" x1="7" x2="458" y1="355.5313" y2="355.5313"/><text fill="#000000" font-family="sans-serif" font-size="12" font-style="italic" lengthAdjust="spacing" textLength="191" x="7" y="372.4883">El ID del entregable no es editable</text><!--SRC=[ZLF1Rjf04BtlLumumS718H1L5aKXs20eD8WukI0EQtk0hUnTjBicgcZoFptaKFKJ-B6EJI1HHQNkQJtxzksRDyytnd9j3KyjO29e7qYhSSMZ59qdeN6fUOPinpxJOkseCnXE- -10u0_3xWo2h-4i67Hlnq6x7dKE808JpkTM6KWm1JmHbXZ78G3GsW71XhvNLE47L8ZBSPkj2ZoNnuGxeSBzgyrJTOJEOOAPqeA3tV-CfOWvATgYDcB_My8bBCvHYCtf_WugGxbKEiDAyJ19vGPjkPzgD2IOnmLLMRcpMf6cCvG1MPTy99sYJ0JTFj064k9S6_NsKPgG_8EgZ_6QGxf_pOJ5zpQltBfxNM-uZTRPddmqiHQRKYjKZG2-IScCsadI7FvhBGf9puozlB1YTDtaMowj-iXOJkvjR7Fexd_nH6YeGwOIiII01gxZjTWgK3JlbCT8f4VA7Sm7ETS9eMAUHKAPHT5TZyiOKofIxieMYXQBUB2sw0Gf3Fs_uWEIoCqXfcMQH8SLZzoGxKM06PkcNDg7oVWG1aLPk23pcXTNrN2TGnyZk6n1m_MQhkUse1U4K1pNM7Km7MyRO5IkINaYZDKYoYqnrDY8RpdCo12HeGTt6vGZ_ykn087S2graHYhPw77o3hXkEhV2mZrgqWAF4-RZakVqbmKo9jFaoeE7iEzyOcCkLpbV4JSQrbF4gxzx4Dp_0G00]--></g></svg>