<svg xmlns="http://www.w3.org/2000/svg" xmlns:xlink="http://www.w3.org/1999/xlink" contentStyleType="text/css" data-diagram-type="STATE" height="644px" preserveAspectRatio="none" style="width:414px;height:644px;background:#FFFFFF;" version="1.1" viewBox="0 0 414 644" width="414px" zoomAndPan="magnify"><defs/><g><g><rect fill="#F1F1F1" height="50" rx="12.5" ry="12.5" style="stroke:#181818;stroke-width:0.5;" width="202.458" x="102.77" y="7"/><line style="stroke:#181818;stroke-width:0.5;" x1="102.77" x2="305.228" y1="33.2969" y2="33.2969"/><text fill="#000000" font-family="sans-serif" font-size="14" lengthAdjust="spacing" textLength="182.458" x="112.77" y="24.9951">RECOMPENSAS_ABIERTAS</text></g><path d="M19.5,152 L388.5,152 A12.5,12.5 0 0 1 401,164.5 L401,178.2969 L7,178.2969 L7,164.5 A12.5,12.5 0 0 1 19.5,152" fill="#F1F1F1"/><rect fill="none" height="341.2969" rx="12.5" ry="12.5" style="stroke:#181818;stroke-width:0.5;" width="394" x="7" y="152"/><line style="stroke:#181818;stroke-width:0.5;" x1="7" x2="401" y1="178.2969" y2="178.2969"/><text fill="#000000" font-family="sans-serif" font-size="14" lengthAdjust="spacing" textLength="134.2783" x="136.8608" y="169.9951">abrirRecompensa()</text><g><rect fill="#F1F1F1" height="50" rx="12.5" ry="12.5" style="stroke:#181818;stroke-width:0.5;" width="50" x="19" y="280.2969"/><line style="stroke:#181818;stroke-width:0.5;" x1="19" x2="69" y1="306.5937" y2="306.5937"/><text fill="#000000" font-family="sans-serif" font-size="14" lengthAdjust="spacing" textLength="4.4502" x="41.7749" y="298.292">&#160;</text></g><ellipse cx="44" cy="199.2969" fill="#222222" rx="10" ry="10" style="stroke:#222222;stroke-width:1;"/><ellipse cx="44" cy="472.2969" fill="none" rx="11" ry="11" style="stroke:#222222;stroke-width:1;"/><ellipse cx="44" cy="472.2969" fill="#222222" rx="6" ry="6" style="stroke:#222222;stroke-width:1;"/><!--link *start*abrirRecompensa to MostrandoRecompensa--><g class="link" data-entity-1="ent0003" data-entity-2="ent0004" data-link-type="dependency" data-source-line="13" id="lnk4"><path d="M44,209.5269 C44,225.2369 44,251.6569 44,274.1669" fill="none" id="*start*abrirRecompensa-to-MostrandoRecompensa" style="stroke:#008000;stroke-width:1;"/><polygon fill="#008000" points="44,280.1669,48,271.1669,44,275.1669,40,271.1669,44,280.1669" style="stroke:#008000;stroke-width:1;"/><path d="M49,232.2969 L49,257.2969 L360,257.2969 L360,242.2969 L350,232.2969 L49,232.2969" fill="#FEFFDD" style="stroke:#181818;stroke-width:0.5;"/><path d="M350,232.2969 L350,242.2969 L360,242.2969 L350,232.2969" fill="#FEFFDD" style="stroke:#181818;stroke-width:0.5;"/><text fill="#000000" font-family="sans-serif" font-size="13" font-weight="bold" lengthAdjust="spacing" textLength="92.5171" x="55" y="249.3638">Investigador</text><text fill="#000000" font-family="sans-serif" font-size="13" lengthAdjust="spacing" textLength="193.4702" x="151.6494" y="249.3638">solicita abrir una recompensa</text></g><!--link MostrandoRecompensa to *end*abrirRecompensa--><g class="link" data-entity-1="ent0004" data-entity-2="ent0005" data-link-type="dependency" data-source-line="18" id="lnk6"><path d="M44,330.6469 C44,367.3969 44,429.4769 44,455.1469" fill="none" id="MostrandoRecompensa-to-*end*abrirRecompensa" style="stroke:#008000;stroke-width:1;"/><polygon fill="#008000" points="44,461.1469,48,452.1469,44,456.1469,40,452.1469,44,461.1469" style="stroke:#008000;stroke-width:1;"/><path d="M49,353.2969 L49,438.2969 L392,438.2969 L392,363.2969 L382,353.2969 L49,353.2969" fill="#FEFFDD" style="stroke:#181818;stroke-width:0.5;"/><path d="M382,353.2969 L382,363.2969 L392,363.2969 L382,353.2969" fill="#FEFFDD" style="stroke:#181818;stroke-width:0.5;"/><text fill="#000000" font-family="sans-serif" font-size="13" font-weight="bold" lengthAdjust="spacing" textLength="58.9063" x="55" y="370.3638">Sistema</text><text fill="#000000" font-family="sans-serif" font-size="13" lengthAdjust="spacing" textLength="259.6699" x="118.0386" y="370.3638">presenta informaci&#243;n de la recompensa</text><text fill="#000000" font-family="sans-serif" font-size="13" lengthAdjust="spacing" textLength="39.5586" x="55" y="385.4966">&#8226; Tipo</text><text fill="#000000" font-family="sans-serif" font-size="13" lengthAdjust="spacing" textLength="70.2622" x="55" y="400.6294">&#8226; Cantidad</text><text fill="#000000" font-family="sans-serif" font-size="13" lengthAdjust="spacing" textLength="4.1323" x="55" y="415.7622">&#160;</text><text fill="#000000" font-family="sans-serif" font-size="13" lengthAdjust="spacing" textLength="4.1323" x="55" y="430.895">&#160;</text></g><g><rect fill="#F1F1F1" height="50" rx="12.5" ry="12.5" style="stroke:#181818;stroke-width:0.5;" width="202.458" x="102.77" y="588.3"/><line style="stroke:#181818;stroke-width:0.5;" x1="102.77" x2="305.228" y1="614.5969" y2="614.5969"/><text fill="#000000" font-family="sans-serif" font-size="14" lengthAdjust="spacing" textLength="182.458" x="112.77" y="606.2951">RECOMPENSAS_ABIERTAS</text></g><!--link in2 to abrirRecompensa--><g class="link" data-entity-1="ent0002" data-entity-2="ent0003" data-link-type="dependency" data-source-line="4" id="lnk2"><path d="M204,57.12 C204,79.27 204,108.25 204,145.61" fill="none" id="in2-to-abrirRecompensa" style="stroke:#008000;stroke-width:1;"/><polygon fill="#008000" points="204,151.61,208,142.61,204,146.61,200,142.61,204,151.61" style="stroke:#008000;stroke-width:1;"/><path d="M209,92 L209,117 L354,117 L354,102 L344,92 L209,92" fill="#FEFFDD" style="stroke:#181818;stroke-width:0.5;"/><path d="M344,92 L344,102 L354,102 L344,92" fill="#FEFFDD" style="stroke:#181818;stroke-width:0.5;"/><text fill="#000000" font-family="sans-serif" font-size="13" lengthAdjust="spacing" textLength="124.687" x="215" y="109.0669">abrirRecompensa()</text></g><!--link abrirRecompensa to RECOMPENSAS_ABIERTAS--><g class="link" data-entity-1="ent0003" data-entity-2="ent0007" data-link-type="dependency" data-source-line="29" id="lnk8"><path d="M204,493.65 C204,530.85 204,559.71 204,581.88" fill="none" id="abrirRecompensa-to-RECOMPENSAS_ABIERTAS" style="stroke:#008000;stroke-width:1;"/><polygon fill="#008000" points="204,587.88,208,578.88,204,582.88,200,578.88,204,587.88" style="stroke:#008000;stroke-width:1;"/><path d="M209,528.3 L209,553.3 L361,553.3 L361,538.3 L351,528.3 L209,528.3" fill="#FEFFDD" style="stroke:#181818;stroke-width:0.5;"/><path d="M351,528.3 L351,538.3 L361,538.3 L351,528.3" fill="#FEFFDD" style="stroke:#181818;stroke-width:0.5;"/><text fill="#000000" font-family="sans-serif" font-size="13" lengthAdjust="spacing" textLength="131.46" x="215" y="545.3669">abrirRecompensas()</text></g><!--SRC=[VP71IWCn48RlUOfXlQXG1CzbOIrxwA4gkxsL8hERQGdTdOGa2aK4dyLNy15y4v_4P8jjTrjD830p_yp_XN4RnGOjjj0e9hyr14OtsnW8uJnw0iMtW0wI8fyyp1xp-p8hdxAxQLxCip8HiJfQNAmj4Iz7AM1bbIsergqXTYXOXn6Qu_YD61GlhmInX2ZvDHieEkEJhWHUXO1mTZr9k44tqyvRPAcFt3lLudhPGpmdZBeUQaoCgtJAB-IyMgFKTdnJfU1qeshbSKSApunW-sCENuhH6RCUJ83xqxnKpbEBdQ-nv8Y3h-ALjYtMwkkJGH8q9m3VxnymLqRlWmcoLn9bbpWyUz0t8OQhwJ6Us_o_YtL7c_q1]--></g></svg>