<?plantuml 1.2026.2?><svg xmlns="http://www.w3.org/2000/svg" xmlns:xlink="http://www.w3.org/1999/xlink" contentStyleType="text/css" data-diagram-type="SEQUENCE" height="343px" preserveAspectRatio="none" style="width:928px;height:343px;background:#FFFFFF;" version="1.1" viewBox="0 0 928 343" width="928px" zoomAndPan="magnify"><defs/><g><g><title>..boundary..</title><rect fill="#FFFFFF" height="203.9297" style="stroke:#181818;stroke-width:1;" width="10" x="314.8159" y="114.7266"/></g><g><title>..control..</title><rect fill="#FFFFFF" height="145.6641" style="stroke:#181818;stroke-width:1;" width="10" x="495.7056" y="143.8594"/></g><g><title>..entity..</title><rect fill="#FFFFFF" height="87.3984" style="stroke:#181818;stroke-width:1;" width="10" x="674.3154" y="172.9922"/></g><g><title>..database..</title><rect fill="#FFFFFF" height="29.1328" style="stroke:#181818;stroke-width:1;" width="10" x="878.4854" y="202.125"/></g><g class="participant-lifeline" data-entity-uid="part1" data-qualified-name="Investigador" id="part1-lifeline"><g><title>Investigador</title><rect fill="#000000" fill-opacity="0.00000" height="253.0625" width="8" x="47.6235" y="83.5938"/><line style="stroke:#181818;stroke-width:0.5;stroke-dasharray:5,5;" x1="51" x2="51" y1="83.5938" y2="336.6563"/></g></g><g class="participant-lifeline" data-entity-uid="part2" data-qualified-name="ListarRecompensasView" id="part2-lifeline"><g><title>..boundary..</title><rect fill="#000000" fill-opacity="0.00000" height="253.0625" width="8" x="315.8159" y="83.5938"/><line style="stroke:#181818;stroke-width:0.5;stroke-dasharray:5,5;" x1="319.7563" x2="319.7563" y1="83.5938" y2="336.6563"/></g></g><g class="participant-lifeline" data-entity-uid="part3" data-qualified-name="RecompensaController" id="part3-lifeline"><g><title>..control..</title><rect fill="#000000" fill-opacity="0.00000" height="253.0625" width="8" x="496.7056" y="83.5938"/><line style="stroke:#181818;stroke-width:0.5;stroke-dasharray:5,5;" x1="499.8755" x2="499.8755" y1="83.5938" y2="336.6563"/></g></g><g class="participant-lifeline" data-entity-uid="part4" data-qualified-name="RecompensaRepository" id="part4-lifeline"><g><title>..entity..</title><rect fill="#000000" fill-opacity="0.00000" height="253.0625" width="8" x="675.3154" y="83.5938"/><line style="stroke:#181818;stroke-width:0.5;stroke-dasharray:5,5;" x1="678.5356" x2="678.5356" y1="83.5938" y2="336.6563"/></g></g><g class="participant-lifeline" data-entity-uid="part5" data-qualified-name="Database" id="part5-lifeline"><g><title>..database..</title><rect fill="#000000" fill-opacity="0.00000" height="253.0625" width="8" x="879.4854" y="83.5938"/><line style="stroke:#181818;stroke-width:0.5;stroke-dasharray:5,5;" x1="883.3911" x2="883.3911" y1="83.5938" y2="336.6563"/></g></g><g class="participant participant-head" data-entity-uid="part1" data-qualified-name="Investigador" id="part1-head"><text fill="#000000" font-family="sans-serif" font-size="14" lengthAdjust="spacing" textLength="87.2471" x="5" y="80.292">Investigador</text><ellipse cx="51.6235" cy="15.7969" fill="#E2E2F0" rx="8" ry="8" style="stroke:#181818;stroke-width:0.5;"/><path d="M51.6235,23.7969 L51.6235,50.7969 M38.6235,31.7969 L64.6235,31.7969 M51.6235,50.7969 L38.6235,65.7969 M51.6235,50.7969 L64.6235,65.7969" fill="none" style="stroke:#181818;stroke-width:0.5;"/></g><g class="participant participant-head" data-entity-uid="part2" data-qualified-name="ListarRecompensasView" id="part2-head"><text fill="#000000" font-family="sans-serif" font-size="14" font-style="italic" lengthAdjust="spacing" textLength="83.9863" x="274.8228" y="63.9951">&#171;boundary&#187;</text><text fill="#000000" font-family="sans-serif" font-size="14" lengthAdjust="spacing" textLength="170.1191" x="231.7563" y="80.292">ListarRecompensasView</text><path d="M299.3159,23 L299.3159,47 M299.3159,35 L316.3159,35" fill="none" style="stroke:#181818;stroke-width:0.5;"/><ellipse cx="328.3159" cy="35" fill="#E2E2F0" rx="12" ry="12" style="stroke:#181818;stroke-width:0.5;"/></g><g class="participant participant-head" data-entity-uid="part3" data-qualified-name="RecompensaController" id="part3-head"><text fill="#000000" font-family="sans-serif" font-size="14" font-style="italic" lengthAdjust="spacing" textLength="66.1172" x="464.647" y="63.9951">&#171;control&#187;</text><text fill="#000000" font-family="sans-serif" font-size="14" lengthAdjust="spacing" textLength="159.6602" x="417.8755" y="80.292">RecompensaController</text><ellipse cx="500.7056" cy="35" fill="#E2E2F0" rx="12" ry="12" style="stroke:#181818;stroke-width:0.5;"/><polygon fill="#181818" points="496.7056,23,502.7056,18,500.7056,23,502.7056,28,496.7056,23" style="stroke:#181818;stroke-width:1;"/></g><g class="participant participant-head" data-entity-uid="part4" data-qualified-name="RecompensaRepository" id="part4-head"><text fill="#000000" font-family="sans-serif" font-size="14" font-style="italic" lengthAdjust="spacing" textLength="57.9209" x="647.355" y="63.9951">&#171;entity&#187;</text><text fill="#000000" font-family="sans-serif" font-size="14" lengthAdjust="spacing" textLength="165.5596" x="593.5356" y="80.292">RecompensaRepository</text><ellipse cx="679.3154" cy="35" fill="#E2E2F0" rx="12" ry="12" style="stroke:#181818;stroke-width:0.5;"/><line style="stroke:#181818;stroke-width:0.5;" x1="667.3154" x2="691.3154" y1="49" y2="49"/></g><g class="participant participant-head" data-entity-uid="part5" data-qualified-name="Database" id="part5-head"><text fill="#000000" font-family="sans-serif" font-size="14" font-style="italic" lengthAdjust="spacing" textLength="82.1885" x="839.3911" y="63.9951">&#171;database&#187;</text><text fill="#000000" font-family="sans-serif" font-size="14" lengthAdjust="spacing" textLength="66.8008" x="847.085" y="80.292">Database</text><path d="M865.4854,15 C865.4854,5 883.4854,5 883.4854,5 C883.4854,5 901.4854,5 901.4854,15 L901.4854,41 C901.4854,51 883.4854,51 883.4854,51 C883.4854,51 865.4854,51 865.4854,41 L865.4854,15" fill="#E2E2F0" style="stroke:#181818;stroke-width:0.5;"/><path d="M865.4854,15 C865.4854,25 883.4854,25 883.4854,25 C883.4854,25 901.4854,25 901.4854,15" fill="none" style="stroke:#181818;stroke-width:0.5;"/></g><g><title>..boundary..</title><rect fill="#FFFFFF" height="203.9297" style="stroke:#181818;stroke-width:1;" width="10" x="314.8159" y="114.7266"/></g><g><title>..control..</title><rect fill="#FFFFFF" height="145.6641" style="stroke:#181818;stroke-width:1;" width="10" x="495.7056" y="143.8594"/></g><g><title>..entity..</title><rect fill="#FFFFFF" height="87.3984" style="stroke:#181818;stroke-width:1;" width="10" x="674.3154" y="172.9922"/></g><g><title>..database..</title><rect fill="#FFFFFF" height="29.1328" style="stroke:#181818;stroke-width:1;" width="10" x="878.4854" y="202.125"/></g><g class="message" data-entity-1="part1" data-entity-2="part2" id="msg1"><polygon fill="#181818" points="302.8159,110.7266,312.8159,114.7266,302.8159,118.7266" style="stroke:#181818;stroke-width:1;"/><line style="stroke:#181818;stroke-width:1;" x1="51.6235" x2="308.8159" y1="114.7266" y2="114.7266"/><text fill="#000000" font-family="sans-serif" font-size="13" lengthAdjust="spacing" textLength="131.46" x="58.6235" y="109.6606">abrirRecompensas()</text></g><g class="message" data-entity-1="part2" data-entity-2="part3" id="msg2"><polygon fill="#181818" points="483.7056,139.8594,493.7056,143.8594,483.7056,147.8594" style="stroke:#181818;stroke-width:1;"/><line style="stroke:#181818;stroke-width:1;" x1="324.8159" x2="489.7056" y1="143.8594" y2="143.8594"/><text fill="#000000" font-family="sans-serif" font-size="13" lengthAdjust="spacing" textLength="133.3452" x="331.8159" y="138.7935">listarRecompensas()</text></g><g class="message" data-entity-1="part3" data-entity-2="part4" id="msg3"><polygon fill="#181818" points="662.3154,168.9922,672.3154,172.9922,662.3154,176.9922" style="stroke:#181818;stroke-width:1;"/><line style="stroke:#181818;stroke-width:1;" x1="505.7056" x2="668.3154" y1="172.9922" y2="172.9922"/><text fill="#000000" font-family="sans-serif" font-size="13" lengthAdjust="spacing" textLength="99.9121" x="512.7056" y="167.9263">obtenerTodas()</text></g><g class="message" data-entity-1="part4" data-entity-2="part5" id="msg4"><polygon fill="#181818" points="866.4854,198.125,876.4854,202.125,866.4854,206.125" style="stroke:#181818;stroke-width:1;"/><line style="stroke:#181818;stroke-width:1;" x1="684.3154" x2="872.4854" y1="202.125" y2="202.125"/><text fill="#000000" font-family="sans-serif" font-size="13" lengthAdjust="spacing" textLength="175.1699" x="691.3154" y="197.0591">select * from recompensas</text></g><g class="message" data-entity-1="part5" data-entity-2="part4" id="msg5"><polygon fill="#181818" points="695.3154,227.2578,685.3154,231.2578,695.3154,235.2578" style="stroke:#181818;stroke-width:1;"/><line style="stroke:#181818;stroke-width:1;stroke-dasharray:2,2;" x1="689.3154" x2="882.4854" y1="231.2578" y2="231.2578"/><text fill="#000000" font-family="sans-serif" font-size="13" lengthAdjust="spacing" textLength="87.1089" x="701.3154" y="226.1919">recompensas</text></g><g class="message" data-entity-1="part4" data-entity-2="part3" id="msg6"><polygon fill="#181818" points="516.7056,256.3906,506.7056,260.3906,516.7056,264.3906" style="stroke:#181818;stroke-width:1;"/><line style="stroke:#181818;stroke-width:1;stroke-dasharray:2,2;" x1="510.7056" x2="678.3154" y1="260.3906" y2="260.3906"/><text fill="#000000" font-family="sans-serif" font-size="13" lengthAdjust="spacing" textLength="87.1089" x="522.7056" y="255.3247">recompensas</text></g><g class="message" data-entity-1="part3" data-entity-2="part2" id="msg7"><polygon fill="#181818" points="335.8159,285.5234,325.8159,289.5234,335.8159,293.5234" style="stroke:#181818;stroke-width:1;"/><line style="stroke:#181818;stroke-width:1;stroke-dasharray:2,2;" x1="329.8159" x2="499.7056" y1="289.5234" y2="289.5234"/><text fill="#000000" font-family="sans-serif" font-size="13" lengthAdjust="spacing" textLength="87.1089" x="341.8159" y="284.4575">recompensas</text></g><g class="message" data-entity-1="part2" data-entity-2="part1" id="msg8"><polygon fill="#181818" points="62.6235,314.6563,52.6235,318.6563,62.6235,322.6563" style="stroke:#181818;stroke-width:1;"/><line style="stroke:#181818;stroke-width:1;stroke-dasharray:2,2;" x1="56.6235" x2="318.8159" y1="318.6563" y2="318.6563"/><text fill="#000000" font-family="sans-serif" font-size="13" lengthAdjust="spacing" textLength="239.1924" x="68.6235" y="313.5903">mostrarRecompensas(recompensas)</text></g><?plantuml-src XPF1JiCm38RlUGeV6T9UeAfwWGiIfmbnTrk38j9uShoXlZr6esiA2RjKbVtx-stNJHy-7b5mWgHp87kA7_Gq1OU3ii1JF5DI_uuZY-lv54UK6PvzKfG33JmTAIPChvu-eMqNGTUvWQCA1rX53vT8837bJzg45DNhdEaETEJapNmstILhiX4LUqm4ZyjBsounIxkyKTXtbHORm5vy7hxRVK_gpwXKhd5babaKHsiW_DRd5gKQLmHj3BATDC2zKYHvuR76NkMko33sTOqD90eqADp3c_04iZQ-eXUrkvRjw_tbX97-CiejrHTQuTqODr_bF_Tm4vvzfyeb67rpVGrCRF_HzWOodrrkL6H-0G00?></g></svg>
