<svg xmlns="http://www.w3.org/2000/svg" xmlns:xlink="http://www.w3.org/1999/xlink" contentStyleType="text/css" data-diagram-type="STATE" height="822px" preserveAspectRatio="none" style="width:509px;height:822px;background:#FFFFFF;" version="1.1" viewBox="0 0 509 822" width="509px" zoomAndPan="magnify"><defs/><g><g><rect fill="#F1F1F1" height="50" rx="12.5" ry="12.5" style="stroke:#181818;stroke-width:0.5;" width="215.043" x="130.02" y="7"/><line style="stroke:#181818;stroke-width:0.5;" x1="130.02" x2="345.063" y1="33.2969" y2="33.2969"/><text fill="#000000" font-family="sans-serif" font-size="14" lengthAdjust="spacing" textLength="195.043" x="140.02" y="24.9951">OPCIONES_PERFIL_ABIERTO</text></g><path d="M20.54,152 L454.54,152 A12.5,12.5 0 0 1 467.04,164.5 L467.04,178.2969 L8.04,178.2969 L8.04,164.5 A12.5,12.5 0 0 1 20.54,152" fill="#F1F1F1"/><rect fill="none" height="519.2969" rx="12.5" ry="12.5" style="stroke:#181818;stroke-width:0.5;" width="459" x="8.04" y="152"/><line style="stroke:#181818;stroke-width:0.5;" x1="8.04" x2="467.04" y1="178.2969" y2="178.2969"/><text fill="#000000" font-family="sans-serif" font-size="14" lengthAdjust="spacing" textLength="182.123" x="146.4785" y="169.9951">solicitarEliminacionPerfil()</text><g><rect fill="#F1F1F1" height="50" rx="12.5" ry="12.5" style="stroke:#181818;stroke-width:0.5;" width="50" x="20.04" y="280.2969"/><line style="stroke:#181818;stroke-width:0.5;" x1="20.04" x2="70.04" y1="306.5938" y2="306.5938"/><text fill="#000000" font-family="sans-serif" font-size="14" lengthAdjust="spacing" textLength="4.4502" x="42.8149" y="298.292">&#160;</text></g><g><rect fill="#F1F1F1" height="50" rx="12.5" ry="12.5" style="stroke:#181818;stroke-width:0.5;" width="50" x="20.04" y="416.2969"/><line style="stroke:#181818;stroke-width:0.5;" x1="20.04" x2="70.04" y1="442.5938" y2="442.5938"/><text fill="#000000" font-family="sans-serif" font-size="14" lengthAdjust="spacing" textLength="4.4502" x="42.8149" y="434.292">&#160;</text></g><g><rect fill="#F1F1F1" height="50" rx="12.5" ry="12.5" style="stroke:#181818;stroke-width:0.5;" width="50" x="20.04" y="552.2969"/><line style="stroke:#181818;stroke-width:0.5;" x1="20.04" x2="70.04" y1="578.5938" y2="578.5938"/><text fill="#000000" font-family="sans-serif" font-size="14" lengthAdjust="spacing" textLength="4.4502" x="42.8149" y="570.292">&#160;</text></g><ellipse cx="45.04" cy="199.2969" fill="#222222" rx="10" ry="10" style="stroke:#222222;stroke-width:1;"/><ellipse cx="45.04" cy="650.2969" fill="none" rx="11" ry="11" style="stroke:#222222;stroke-width:1;"/><ellipse cx="45.04" cy="650.2969" fill="#222222" rx="6" ry="6" style="stroke:#222222;stroke-width:1;"/><!--link *start*solicitarEliminacionPerfil to SeleccionandoPerfil--><g class="link" data-entity-1="ent0003" data-entity-2="ent0004" data-link-type="dependency" data-source-line="16" id="lnk4"><path d="M45.04,209.5269 C45.04,225.2369 45.04,251.6569 45.04,274.1669" fill="none" id="*start*solicitarEliminacionPerfil-to-SeleccionandoPerfil" style="stroke:#008000;stroke-width:1;"/><polygon fill="#008000" points="45.04,280.1669,49.04,271.1669,45.04,275.1669,41.04,271.1669,45.04,280.1669" style="stroke:#008000;stroke-width:1;"/><path d="M50.04,232.2969 L50.04,257.2969 L382.04,257.2969 L382.04,242.2969 L372.04,232.2969 L50.04,232.2969" fill="#FEFFDD" style="stroke:#181818;stroke-width:0.5;"/><path d="M372.04,232.2969 L372.04,242.2969 L382.04,242.2969 L372.04,232.2969" fill="#FEFFDD" style="stroke:#181818;stroke-width:0.5;"/><text fill="#000000" font-family="sans-serif" font-size="13" font-weight="bold" lengthAdjust="spacing" textLength="90.251" x="56.04" y="249.3638">Coordinador</text><text fill="#000000" font-family="sans-serif" font-size="13" lengthAdjust="spacing" textLength="217.3247" x="150.4233" y="249.3638">solicita la eliminacion de su perfil</text></g><!--link SeleccionandoPerfil to ConfirmandoSolicitud--><g class="link" data-entity-1="ent0004" data-entity-2="ent0005" data-link-type="dependency" data-source-line="21" id="lnk5"><path d="M45.04,330.5669 C45.04,354.8469 45.04,385.9869 45.04,410.2069" fill="none" id="SeleccionandoPerfil-to-ConfirmandoSolicitud" style="stroke:#008000;stroke-width:1;"/><polygon fill="#008000" points="45.04,416.2069,49.04,407.2069,45.04,411.2069,41.04,407.2069,45.04,416.2069" style="stroke:#008000;stroke-width:1;"/><path d="M50.04,353.2969 L50.04,393.2969 L458.04,393.2969 L458.04,363.2969 L448.04,353.2969 L50.04,353.2969" fill="#FEFFDD" style="stroke:#181818;stroke-width:0.5;"/><path d="M448.04,353.2969 L448.04,363.2969 L458.04,363.2969 L448.04,353.2969" fill="#FEFFDD" style="stroke:#181818;stroke-width:0.5;"/><text fill="#000000" font-family="sans-serif" font-size="13" font-weight="bold" lengthAdjust="spacing" textLength="58.9063" x="56.04" y="370.3638">Sistema</text><text fill="#000000" font-family="sans-serif" font-size="13" lengthAdjust="spacing" textLength="324.2383" x="119.0786" y="370.3638">presenta confirmaci&#243;n de solicitud de eliminaci&#243;n</text><text fill="#000000" font-family="sans-serif" font-size="13" lengthAdjust="spacing" textLength="148.2178" x="56.04" y="385.4966">&#8226; Confirmar o cancelar</text></g><!--link ConfirmandoSolicitud to SolicitudEnviada--><g class="link" data-entity-1="ent0005" data-entity-2="ent0006" data-link-type="dependency" data-source-line="27" id="lnk6"><path d="M45.04,466.5669 C45.04,490.8469 45.04,521.9869 45.04,546.2069" fill="none" id="ConfirmandoSolicitud-to-SolicitudEnviada" style="stroke:#008000;stroke-width:1;"/><polygon fill="#008000" points="45.04,552.2069,49.04,543.2069,45.04,547.2069,41.04,543.2069,45.04,552.2069" style="stroke:#008000;stroke-width:1;"/><path d="M50.04,489.2969 L50.04,529.2969 L425.04,529.2969 L425.04,499.2969 L415.04,489.2969 L50.04,489.2969" fill="#FEFFDD" style="stroke:#181818;stroke-width:0.5;"/><path d="M415.04,489.2969 L415.04,499.2969 L425.04,499.2969 L415.04,489.2969" fill="#FEFFDD" style="stroke:#181818;stroke-width:0.5;"/><text fill="#000000" font-family="sans-serif" font-size="13" font-weight="bold" lengthAdjust="spacing" textLength="90.251" x="56.04" y="506.3638">Coordinador</text><text fill="#000000" font-family="sans-serif" font-size="13" lengthAdjust="spacing" textLength="191.5405" x="150.4233" y="506.3638">solicita confirmar eliminaci&#243;n</text><text fill="#000000" font-family="sans-serif" font-size="13" font-weight="bold" lengthAdjust="spacing" textLength="58.9063" x="56.04" y="521.4966">Sistema</text><text fill="#000000" font-family="sans-serif" font-size="13" lengthAdjust="spacing" textLength="291.2559" x="119.0786" y="521.4966">permite confirmar la solicitud de eliminaci&#243;n</text></g><!--link SolicitudEnviada to *end*solicitarEliminacionPerfil--><g class="link" data-entity-1="ent0006" data-entity-2="ent0007" data-link-type="dependency" data-source-line="34" id="lnk8"><path d="M45.04,602.7269 C45.04,615.0869 45.04,623.4269 45.04,632.8969" fill="none" id="SolicitudEnviada-to-*end*solicitarEliminacionPerfil" style="stroke:#008000;stroke-width:1;"/><polygon fill="#008000" points="45.04,638.8969,49.04,629.8969,45.04,633.8969,41.04,629.8969,45.04,638.8969" style="stroke:#008000;stroke-width:1;"/></g><g><rect fill="#F1F1F1" height="50" rx="12.5" ry="12.5" style="stroke:#181818;stroke-width:0.5;" width="213.0879" x="7" y="766.3"/><line style="stroke:#181818;stroke-width:0.5;" x1="7" x2="220.0879" y1="792.5969" y2="792.5969"/><text fill="#000000" font-family="sans-serif" font-size="14" lengthAdjust="spacing" textLength="193.0879" x="17" y="784.2951">PANEL_PRINCIPAL_ABIERTO</text></g><g><rect fill="#F1F1F1" height="50" rx="12.5" ry="12.5" style="stroke:#181818;stroke-width:0.5;" width="215.043" x="255.02" y="766.3"/><line style="stroke:#181818;stroke-width:0.5;" x1="255.02" x2="470.063" y1="792.5969" y2="792.5969"/><text fill="#000000" font-family="sans-serif" font-size="14" lengthAdjust="spacing" textLength="195.043" x="265.02" y="784.2951">OPCIONES_PERFIL_ABIERTO</text></g><!--link in1 to solicitarEliminacionPerfil--><g class="link" data-entity-1="ent0002" data-entity-2="ent0003" data-link-type="dependency" data-source-line="4" id="lnk2"><path d="M237.54,57.49 C237.54,79.15 237.54,107.25 237.54,145.9" fill="none" id="in1-to-solicitarEliminacionPerfil" style="stroke:#008000;stroke-width:1;"/><polygon fill="#008000" points="237.54,151.9,241.54,142.9,237.54,146.9,233.54,142.9,237.54,151.9" style="stroke:#008000;stroke-width:1;"/><path d="M242.54,92 L242.54,117 L432.54,117 L432.54,102 L422.54,92 L242.54,92" fill="#FEFFDD" style="stroke:#181818;stroke-width:0.5;"/><path d="M422.54,92 L422.54,102 L432.54,102 L422.54,92" fill="#FEFFDD" style="stroke:#181818;stroke-width:0.5;"/><text fill="#000000" font-family="sans-serif" font-size="13" lengthAdjust="spacing" textLength="169.1143" x="248.54" y="109.0669">solicitarEliminacionPerfil()</text></g><!--link solicitarEliminacionPerfil to PANEL_PRINCIPAL_ABIERTO--><g class="link" data-entity-1="ent0003" data-entity-2="ent0009" data-link-type="dependency" data-source-line="39" id="lnk10"><path d="M152.52,671.59 C139.82,710.27 130.4904,738.679 123.4004,760.289" fill="none" id="solicitarEliminacionPerfil-to-PANEL_PRINCIPAL_ABIERTO" style="stroke:#008000;stroke-width:1;"/><polygon fill="#008000" points="121.53,765.99,128.1363,758.6854,123.0887,761.2392,120.535,756.1915,121.53,765.99" style="stroke:#008000;stroke-width:1;"/><path d="M145.54,706.3 L145.54,731.3 L258.54,731.3 L258.54,716.3 L248.54,706.3 L145.54,706.3" fill="#FEFFDD" style="stroke:#181818;stroke-width:0.5;"/><path d="M248.54,706.3 L248.54,716.3 L258.54,716.3 L248.54,706.3" fill="#FEFFDD" style="stroke:#181818;stroke-width:0.5;"/><text fill="#000000" font-family="sans-serif" font-size="13" lengthAdjust="spacing" textLength="92.5044" x="151.54" y="723.3669">iniciarSesion()</text></g><!--link solicitarEliminacionPerfil to OPCIONES_PERFIL_ABIERTO--><g class="link" data-entity-1="ent0003" data-entity-2="ent0011" data-link-type="dependency" data-source-line="45" id="lnk12"><path d="M323.25,671.59 C336.05,710.27 345.4529,738.6845 352.6129,760.2945" fill="none" id="solicitarEliminacionPerfil-to-OPCIONES_PERFIL_ABIERTO" style="stroke:#008000;stroke-width:1;"/><polygon fill="#008000" points="354.5,765.99,355.4664,756.1887,352.9274,761.2437,347.8724,758.7048,354.5,765.99" style="stroke:#008000;stroke-width:1;"/><path d="M348.54,706.3 L348.54,731.3 L502.54,731.3 L502.54,716.3 L492.54,706.3 L348.54,706.3" fill="#FEFFDD" style="stroke:#181818;stroke-width:0.5;"/><path d="M492.54,706.3 L492.54,716.3 L502.54,716.3 L492.54,706.3" fill="#FEFFDD" style="stroke:#181818;stroke-width:0.5;"/><text fill="#000000" font-family="sans-serif" font-size="13" lengthAdjust="spacing" textLength="133.853" x="354.54" y="723.3669">abrirOpcionesPerfil()</text></g><!--SRC=[bLFTIiCm5BxFKuHwey8GxyTWbWg5iPRLkp56bfx9OMbIaauO8lWileAFu9lu92Rhjfgk7TfUfVdo_JN7R52MJBE22fHGxKgWfH8xjo34LAm2YlAUCaE390tZP1fbopIQFSQJvVWXZcPFIK0SO32_UjO0SZ4OKQC4SgoOZWGMA1b79LFGQnH4Aakef1FRa7xSzGq1cLE79aSR_UYzkqja0NqbXDgdPWhiQuza880x69EvElWx0uLAhb4N3fBL2jkyW-gu5SaNP3chrUQt2w-NFa6l5FTXk1g5IkdSniYL7jwjcawfO1IQX3ItnMnfsP0rlRbLXwHdgJTUbwSCJGK5s_ifDHYGrWy_C73y-gpj77dSucJLRkvfljy_JgAQAigPv22Oxl3UvStliztwlyla9oTdHjjvGHTecPiJzaTSZkgdgNz7ox4NnruN1o9lxihtN_RVHzBnD9eiqray3UDqV1f9VynGMYgcCp2Mf3LPVvFfcNnVXgqqwgHq563EnlW7]--></g></svg>