<?xml version="1.0" encoding="us-ascii" standalone="no"?><svg xmlns="http://www.w3.org/2000/svg" xmlns:xlink="http://www.w3.org/1999/xlink" contentStyleType="text/css" height="996px" preserveAspectRatio="none" style="width:1139px;height:996px;background:#FFFFFF;" version="1.1" viewBox="0 0 1139 996" width="1139px" zoomAndPan="magnify"><defs/><g><g id="in1"><rect fill="#F1F1F1" height="50" rx="12.5" ry="12.5" style="stroke:#181818;stroke-width:0.5;" width="198" x="467.5" y="7"/><line style="stroke:#181818;stroke-width:0.5;" x1="467.5" x2="665.5" y1="34.6094" y2="34.6094"/><text fill="#000000" font-family="sans-serif" font-size="14" lengthAdjust="spacing" textLength="178" x="477.5" y="26.5332">ENTREGABLES_ABIERTOS</text></g><path d="M19.5,118 L1113.5,118 A12.5,12.5 0 0 1 1126,130.5 L1126,145.6094 L7,145.6094 L7,130.5 A12.5,12.5 0 0 1 19.5,118 " fill="#F1F1F1" style="stroke:#F1F1F1;stroke-width:1.0;"/><rect fill="none" height="725.6094" rx="12.5" ry="12.5" style="stroke:#181818;stroke-width:0.5;" width="1119" x="7" y="118"/><line style="stroke:#181818;stroke-width:0.5;" x1="7" x2="1126" y1="145.6094" y2="145.6094"/><text fill="#000000" font-family="sans-serif" font-size="14" lengthAdjust="spacing" textLength="112" x="510.5" y="137.5332">crearEntregable()</text><g id="crearEntregable.SolicitandoDatos"><rect fill="#F1F1F1" height="50" rx="12.5" ry="12.5" style="stroke:#181818;stroke-width:0.5;" width="50" x="281" y="248.6094"/><line style="stroke:#181818;stroke-width:0.5;" x1="281" x2="331" y1="276.2188" y2="276.2188"/><text fill="#000000" font-family="sans-serif" font-size="14" lengthAdjust="spacing" textLength="4" x="304" y="268.1426">&#160;</text></g><g id="crearEntregable.RegistrandoEntregable"><rect fill="#F1F1F1" height="50" rx="12.5" ry="12.5" style="stroke:#181818;stroke-width:0.5;" width="50" x="281" y="533.6094"/><line style="stroke:#181818;stroke-width:0.5;" x1="281" x2="331" y1="561.2188" y2="561.2188"/><text fill="#000000" font-family="sans-serif" font-size="14" lengthAdjust="spacing" textLength="4" x="304" y="553.1426">&#160;</text></g><g id="crearEntregable.ValidandoDatos"><rect fill="#F1F1F1" height="50" rx="12.5" ry="12.5" style="stroke:#181818;stroke-width:0.5;" width="50" x="281" y="672.6094"/><line style="stroke:#181818;stroke-width:0.5;" x1="281" x2="331" y1="700.2188" y2="700.2188"/><text fill="#000000" font-family="sans-serif" font-size="14" lengthAdjust="spacing" textLength="4" x="304" y="692.1426">&#160;</text></g><ellipse cx="306" cy="166.6094" fill="#222222" rx="10" ry="10" style="stroke:#222222;stroke-width:1.0;"/><ellipse cx="543" cy="822.6094" fill="none" rx="11" ry="11" style="stroke:#222222;stroke-width:1.0;"/><ellipse cx="543" cy="822.6094" fill="#222222" rx="6" ry="6" style="stroke:#222222;stroke-width:1.0;"/><!--link *start*crearEntregable to SolicitandoDatos--><g id="link_*start*crearEntregable_SolicitandoDatos"><path d="M306,176.9294 C306,192.7894 306,219.5194 306,242.2494 " fill="none" id="*start*crearEntregable-to-SolicitandoDatos" style="stroke:#008000;stroke-width:1.0;"/><polygon fill="#008000" points="306,248.2494,310,239.2494,306,243.2494,302,239.2494,306,248.2494" style="stroke:#008000;stroke-width:1.0;"/><path d="M311,199.6094 L311,225.6094 L553,225.6094 L553,209.6094 L543,199.6094 L311,199.6094 " fill="#FEFFDD" style="stroke:#181818;stroke-width:0.5;"/><path d="M543,199.6094 L543,209.6094 L553,209.6094 L543,199.6094 " fill="#FEFFDD" style="stroke:#181818;stroke-width:0.5;"/><text fill="#000000" font-family="sans-serif" font-size="13" font-weight="bold" lengthAdjust="spacing" textLength="79" x="317" y="218.1045">Coordinador</text><text fill="#000000" font-family="sans-serif" font-size="13" lengthAdjust="spacing" textLength="138" x="400" y="218.1045">solicita crear entregable</text></g><!--link SolicitandoDatos to RegistrandoEntregable--><g id="link_SolicitandoDatos_RegistrandoEntregable"><path d="M306,298.7394 C306,352.2094 306,474.1294 306,527.5394 " fill="none" id="SolicitandoDatos-to-RegistrandoEntregable" style="stroke:#008000;stroke-width:1.0;"/><polygon fill="#008000" points="306,533.5394,310,524.5394,306,528.5394,302,524.5394,306,533.5394" style="stroke:#008000;stroke-width:1.0;"/><path d="M311,321.6094 L311,510.6094 L732,510.6094 L732,331.6094 L722,321.6094 L311,321.6094 " fill="#FEFFDD" style="stroke:#181818;stroke-width:0.5;"/><path d="M722,321.6094 L722,331.6094 L732,331.6094 L722,321.6094 " fill="#FEFFDD" style="stroke:#181818;stroke-width:0.5;"/><text fill="#000000" font-family="sans-serif" font-size="13" font-weight="bold" lengthAdjust="spacing" textLength="51" x="317" y="340.1045">Sistema</text><text fill="#000000" font-family="sans-serif" font-size="13" lengthAdjust="spacing" textLength="345" x="372" y="340.1045">muestra y permite introducir los datos del nuevo entregable:</text><text fill="#000000" font-family="sans-serif" font-size="13" lengthAdjust="spacing" textLength="40" x="317" y="356.4561">&#8226; T&#237;tulo</text><text fill="#000000" font-family="sans-serif" font-size="13" lengthAdjust="spacing" textLength="262" x="317" y="372.8076">&#8226; Tipo (informe / dataset / presentaci&#243;n / otro)</text><text fill="#000000" font-family="sans-serif" font-size="13" lengthAdjust="spacing" textLength="80" x="317" y="389.1592">&#8226; Fecha l&#237;mite</text><text fill="#000000" font-family="sans-serif" font-size="13" lengthAdjust="spacing" textLength="249" x="317" y="405.5107">&#8226; Estado (pendiente / en curso / entregado)</text><text fill="#000000" font-family="sans-serif" font-size="13" lengthAdjust="spacing" textLength="137" x="317" y="421.8623">&#8226; Descripci&#243;n (opcional)</text><text fill="#000000" font-family="sans-serif" font-size="13" lengthAdjust="spacing" textLength="157" x="317" y="438.2139">&#8226; Archivo adjunto (opcional)</text><text fill="#000000" font-family="sans-serif" font-size="13" lengthAdjust="spacing" textLength="4" x="317" y="454.5654">&#160;</text><text fill="#000000" font-family="sans-serif" font-size="13" font-weight="bold" lengthAdjust="spacing" textLength="51" x="317" y="470.917">Sistema</text><text fill="#000000" font-family="sans-serif" font-size="13" lengthAdjust="spacing" textLength="96" x="372" y="470.917">permite solicitar:</text><text fill="#000000" font-family="sans-serif" font-size="13" lengthAdjust="spacing" textLength="104" x="317" y="487.2686">&#8226; Crear entregable</text><text fill="#000000" font-family="sans-serif" font-size="13" lengthAdjust="spacing" textLength="187" x="317" y="503.6201">&#8226; Volver a entregables (cancelar)</text></g><!--link RegistrandoEntregable to ValidandoDatos--><g id="link_RegistrandoEntregable_ValidandoDatos"><path d="M280.95,563.2594 C210.88,573.4794 18,601.6094 18,601.6094 C18,601.6094 18,653.6094 18,653.6094 C18,653.6094 204.9458,681.5235 275.0158,691.9835 " fill="none" id="RegistrandoEntregable-to-ValidandoDatos" style="stroke:#008000;stroke-width:1.0;"/><polygon fill="#008000" points="280.95,692.8694,272.6392,687.5844,276.0048,692.1312,271.4581,695.4967,280.95,692.8694" style="stroke:#008000;stroke-width:1.0;"/><path d="M23,614.6094 L23,640.6094 L279,640.6094 L279,624.6094 L269,614.6094 L23,614.6094 " fill="#FEFFDD" style="stroke:#181818;stroke-width:0.5;"/><path d="M269,614.6094 L269,624.6094 L279,624.6094 L269,614.6094 " fill="#FEFFDD" style="stroke:#181818;stroke-width:0.5;"/><text fill="#000000" font-family="sans-serif" font-size="13" font-weight="bold" lengthAdjust="spacing" textLength="79" x="29" y="633.1045">Coordinador</text><text fill="#000000" font-family="sans-serif" font-size="13" lengthAdjust="spacing" textLength="152" x="112" y="633.1045">solicita crear el entregable</text></g><!--link ValidandoDatos to *end*crearEntregable--><g id="link_ValidandoDatos_*end*crearEntregable"><path d="M331.26,716.9294 C369.33,744.5294 437,793.6094 437,793.6094 C437,793.6094 499.8389,810.2074 526.6489,817.2874 " fill="none" id="ValidandoDatos-to-*end*crearEntregable" style="stroke:#008000;stroke-width:1.0;"/><polygon fill="#008000" points="532.45,818.8194,524.7696,812.654,527.6157,817.5427,522.727,820.3888,532.45,818.8194" style="stroke:#008000;stroke-width:1.0;"/><path d="M442,746.6094 L442,788.6094 L762,788.6094 L762,756.6094 L752,746.6094 L442,746.6094 " fill="#FEFFDD" style="stroke:#181818;stroke-width:0.5;"/><path d="M752,746.6094 L752,756.6094 L762,756.6094 L752,746.6094 " fill="#FEFFDD" style="stroke:#181818;stroke-width:0.5;"/><text fill="#000000" font-family="sans-serif" font-size="13" font-weight="bold" lengthAdjust="spacing" textLength="51" x="448" y="765.1045">Sistema</text><text fill="#000000" font-family="sans-serif" font-size="13" lengthAdjust="spacing" textLength="244" x="503" y="765.1045">permite solicitar la creaci&#243;n del entregable</text><text fill="#000000" font-family="sans-serif" font-size="13" font-weight="bold" lengthAdjust="spacing" textLength="51" x="448" y="781.4561">Sistema</text><text fill="#000000" font-family="sans-serif" font-size="13" lengthAdjust="spacing" textLength="235" x="503" y="781.4561">presenta y visualiza el entregable creado</text></g><!--link ValidandoDatos to RegistrandoEntregable--><g id="link_ValidandoDatos_RegistrandoEntregable"><path d="M306,672.2094 C306,647.2394 306,614.6794 306,589.7894 " fill="none" id="ValidandoDatos-to-RegistrandoEntregable" style="stroke:#FF0000;stroke-width:1.0;"/><polygon fill="#FF0000" points="306,583.7894,302,592.7894,306,588.7894,310,592.7894,306,583.7894" style="stroke:#FF0000;stroke-width:1.0;"/><path d="M311,606.6094 L311,648.6094 L761,648.6094 L761,616.6094 L751,606.6094 L311,606.6094 " fill="#FEFFDD" style="stroke:#181818;stroke-width:0.5;"/><path d="M751,606.6094 L751,616.6094 L761,616.6094 L751,606.6094 " fill="#FEFFDD" style="stroke:#181818;stroke-width:0.5;"/><text fill="#000000" font-family="sans-serif" font-size="13" font-weight="bold" lengthAdjust="spacing" textLength="51" x="317" y="625.1045">Sistema</text><text fill="#000000" font-family="sans-serif" font-size="13" lengthAdjust="spacing" textLength="374" x="372" y="625.1045">muestra errores de introducci&#243;n (p.ej. t&#237;tulo vac&#237;o / fecha inv&#225;lida)</text><text fill="#000000" font-family="sans-serif" font-size="13" font-weight="bold" lengthAdjust="spacing" textLength="51" x="317" y="641.4561">Sistema</text><text fill="#000000" font-family="sans-serif" font-size="13" lengthAdjust="spacing" textLength="320" x="372" y="641.4561">permite introducir correcciones y mantiene el formulario</text></g><!--link RegistrandoEntregable to *end*crearEntregable--><g id="link_RegistrandoEntregable_*end*crearEntregable"><path d="M331.11,561.8994 C427.31,570.6594 767,601.6094 767,601.6094 C767,601.6094 767,793.6094 767,793.6094 C767,793.6094 604.5037,813.9257 559.7537,819.5157 " fill="none" id="RegistrandoEntregable-to-*end*crearEntregable" style="stroke:#FF0000;stroke-width:1.0;"/><polygon fill="#FF0000" points="553.8,820.2594,563.2264,823.113,558.7614,819.6396,562.2348,815.1746,553.8,820.2594" style="stroke:#FF0000;stroke-width:1.0;"/><path d="M772,676.6094 L772,718.6094 L1117,718.6094 L1117,686.6094 L1107,676.6094 L772,676.6094 " fill="#FEFFDD" style="stroke:#181818;stroke-width:0.5;"/><path d="M1107,676.6094 L1107,686.6094 L1117,686.6094 L1107,676.6094 " fill="#FEFFDD" style="stroke:#181818;stroke-width:0.5;"/><text fill="#000000" font-family="sans-serif" font-size="13" font-weight="bold" lengthAdjust="spacing" textLength="79" x="778" y="695.1045">Coordinador</text><text fill="#000000" font-family="sans-serif" font-size="13" lengthAdjust="spacing" textLength="161" x="861" y="695.1045">solicita cancelar la creaci&#243;n</text><text fill="#000000" font-family="sans-serif" font-size="13" font-weight="bold" lengthAdjust="spacing" textLength="51" x="778" y="711.4561">Sistema</text><text fill="#000000" font-family="sans-serif" font-size="13" lengthAdjust="spacing" textLength="269" x="833" y="711.4561">presenta el listado de entregables sin cambios</text></g><g id="ENTREGABLE_ABIERTO"><rect fill="#F1F1F1" height="50" rx="12.5" ry="12.5" style="stroke:#181818;stroke-width:0.5;" width="180" x="220.5" y="940"/><line style="stroke:#181818;stroke-width:0.5;" x1="220.5" x2="400.5" y1="967.6094" y2="967.6094"/><text fill="#000000" font-family="sans-serif" font-size="14" lengthAdjust="spacing" textLength="160" x="230.5" y="959.5332">ENTREGABLE_ABIERTO</text></g><g id="ENTREGABLES_ABIERTOS"><rect fill="#F1F1F1" height="50" rx="12.5" ry="12.5" style="stroke:#181818;stroke-width:0.5;" width="198" x="652.5" y="940"/><line style="stroke:#181818;stroke-width:0.5;" x1="652.5" x2="850.5" y1="967.6094" y2="967.6094"/><text fill="#000000" font-family="sans-serif" font-size="14" lengthAdjust="spacing" textLength="178" x="662.5" y="959.5332">ENTREGABLES_ABIERTOS</text></g><!--link in1 to crearEntregable--><g id="link_in1_crearEntregable"><path d="M566.5,57.03 C566.5,71.9 566.5,86.86 566.5,111.57 " fill="none" id="in1-to-crearEntregable" style="stroke:#008000;stroke-width:1.0;"/><polygon fill="#008000" points="566.5,117.57,570.5,108.57,566.5,112.57,562.5,108.57,566.5,117.57" style="stroke:#008000;stroke-width:1.0;"/></g><!--link crearEntregable to ENTREGABLE_ABIERTO--><g id="link_crearEntregable_ENTREGABLE_ABIERTO"><path d="M250.49,844.21 C234.26,862.81 224.5,874 224.5,874 C224.5,874 224.5,910 224.5,910 C224.5,910 244.0478,922.2808 266.9478,936.6508 " fill="none" id="crearEntregable-to-ENTREGABLE_ABIERTO" style="stroke:#008000;stroke-width:1.0;"/><polygon fill="#008000" points="272.03,939.84,266.5327,931.6681,267.7948,937.1824,262.2805,938.4444,272.03,939.84" style="stroke:#008000;stroke-width:1.0;"/><path d="M229.5,879 L229.5,905 L345.5,905 L345.5,889 L335.5,879 L229.5,879 " fill="#FEFFDD" style="stroke:#181818;stroke-width:0.5;"/><path d="M335.5,879 L335.5,889 L345.5,889 L335.5,879 " fill="#FEFFDD" style="stroke:#181818;stroke-width:0.5;"/><text fill="#000000" font-family="sans-serif" font-size="13" lengthAdjust="spacing" textLength="95" x="235.5" y="897.4951">abrirEntregable()</text></g><!--link crearEntregable to ENTREGABLE_ABIERTO--><g id="link_crearEntregable_ENTREGABLE_ABIERTO"><path d="M387.16,844.06 C367.54,883.67 354.5,910 354.5,910 C354.5,910 345.6922,920.8204 333.9722,935.1904 " fill="none" id="crearEntregable-to-ENTREGABLE_ABIERTO-1" style="stroke:#008000;stroke-width:1.0;"/><polygon fill="#008000" points="330.18,939.84,338.9681,935.3937,333.3402,935.9653,332.7685,930.3374,330.18,939.84" style="stroke:#008000;stroke-width:1.0;"/><path d="M374.5,879 L374.5,905 L497.5,905 L497.5,889 L487.5,879 L374.5,879 " fill="#FEFFDD" style="stroke:#181818;stroke-width:0.5;"/><path d="M487.5,879 L487.5,889 L497.5,889 L487.5,879 " fill="#FEFFDD" style="stroke:#181818;stroke-width:0.5;"/><text fill="#000000" font-family="sans-serif" font-size="13" lengthAdjust="spacing" textLength="102" x="380.5" y="897.4951">editarEntregable()</text></g><!--link crearEntregable to ENTREGABLES_ABIERTOS--><g id="link_crearEntregable_ENTREGABLES_ABIERTOS"><path d="M563.73,844.21 C563.59,862.81 563.5,874 563.5,874 C563.5,874 563.5,910 563.5,910 C563.5,910 611.7732,923.8635 661.9032,938.2635 " fill="none" id="crearEntregable-to-ENTREGABLES_ABIERTOS" style="stroke:#FF0000;stroke-width:1.0;"/><polygon fill="#FF0000" points="667.67,939.92,660.1242,933.5907,662.8643,938.5396,657.9155,941.2797,667.67,939.92" style="stroke:#FF0000;stroke-width:1.0;"/><path d="M568.5,879 L568.5,905 L703.5,905 L703.5,889 L693.5,879 L568.5,879 " fill="#FEFFDD" style="stroke:#181818;stroke-width:0.5;"/><path d="M693.5,879 L693.5,889 L703.5,889 L693.5,879 " fill="#FEFFDD" style="stroke:#181818;stroke-width:0.5;"/><text fill="#000000" font-family="sans-serif" font-size="13" lengthAdjust="spacing" textLength="114" x="574.5" y="897.4951">Creaci&#243;n cancelada</text></g><!--link crearEntregable to ENTREGABLES_ABIERTOS--><g id="link_crearEntregable_ENTREGABLES_ABIERTOS"><path d="M705.53,844.23 C720.9,884.27 731.7989,912.6788 740.0289,934.1088 " fill="none" id="crearEntregable-to-ENTREGABLES_ABIERTOS-1" style="stroke:#008000;stroke-width:1.0;"/><polygon fill="#008000" points="742.18,939.71,742.6875,929.8742,740.3874,935.0424,735.2193,932.7423,742.18,939.71" style="stroke:#008000;stroke-width:1.0;"/><path d="M733.5,879 L733.5,905 L869.5,905 L869.5,889 L859.5,879 L733.5,879 " fill="#FEFFDD" style="stroke:#181818;stroke-width:0.5;"/><path d="M859.5,879 L859.5,889 L869.5,889 L859.5,879 " fill="#FEFFDD" style="stroke:#181818;stroke-width:0.5;"/><text fill="#000000" font-family="sans-serif" font-size="13" lengthAdjust="spacing" textLength="115" x="739.5" y="897.4951">eliminarEntregable()</text></g><!--link crearEntregable to ENTREGABLES_ABIERTOS--><g id="link_crearEntregable_ENTREGABLES_ABIERTOS"><path d="M858.49,844.21 C873.48,862.81 882.5,874 882.5,874 C882.5,874 882.5,910 882.5,910 C882.5,910 850.5276,923.1845 815.6476,937.5545 " fill="none" id="crearEntregable-to-ENTREGABLES_ABIERTOS-2" style="stroke:#008000;stroke-width:1.0;"/><polygon fill="#008000" points="810.1,939.84,819.9452,940.1101,814.723,937.9354,816.8978,932.7133,810.1,939.84" style="stroke:#008000;stroke-width:1.0;"/><path d="M887.5,879 L887.5,905 L1010.5,905 L1010.5,889 L1000.5,879 L887.5,879 " fill="#FEFFDD" style="stroke:#181818;stroke-width:0.5;"/><path d="M1000.5,879 L1000.5,889 L1010.5,889 L1000.5,879 " fill="#FEFFDD" style="stroke:#181818;stroke-width:0.5;"/><text fill="#000000" font-family="sans-serif" font-size="13" lengthAdjust="spacing" textLength="102" x="893.5" y="897.4951">abrirEntregables()</text></g><!--SRC=[jLNDQXin4BxlKmpknIuaeTSI0edZba9fmJQvX536qYHHefKMIMjmIw6lqjvpwYFuJVea7UsklJ_U6BUqzaK_esy-VVFDoZygaw735BGo55OPGMRrAawIn0SC1Cgy0lGmc7oOJoTlpo_UJsQVpY_UJQRpZxD14dUFhb_SEI9pStG6mX6wYGcExd2Xjo2TvGAmipOS3U1BaW3_oZC3_dFSp6ebL40ZxIK6wtSZfdIdV70nef5v9-mAjP8rJ15m_VAcHRytcR4COasKwB5OE5sSZQrrKXcKrfsUBCx0LmVBcmArUP2H1KgPj9kanU3vo_JHc74ifLXGI7EA1s456RbK5QKBpifSA0UQqyWYcIGD9gUbRP1yNU3z-lO3vkkda6jRprLcOQZChNKfmKd4G4-1HvaZpmWerFgduRdbNAFjkJSaxX7q-YaIsQvEk22IyJ8MHF7XY4W6HEwyBOO58Td0kIGldChA94FB0sjGr_ldJjmhlWlAXzm4smpfqsYZpAPShhxvkAzmSUFAwYKvmCQUXw508qYZ6_KKkBU6hIftlFYtBjFxZTREqYB0nZ_8L3k2WIwpbnMHknIw09LDs9PBvNDcz1dRn0iuQG_YxqZ-coOXvompumjikwJoM7PC3ySGoZw09OhrK_JcRM5ePPRhxv7KQ9zOZRuJrZaIqPASR0Kfci36fwX0RAcS7QJidrYeKc1V_PvtJUNPLWtt5erfQbKsBIlLR02lk6ynNQZAlblwNvEa-xLl6gz-HZQlIDAw0owSQhqAIIrC3subHz_ZrCOTRprRgI1nF_B1Z4d6lZYSSW_mSwH9gvGB-N_0Eqhx9lHl]--></g></svg>