<?plantuml 1.2026.2?><svg xmlns="http://www.w3.org/2000/svg" xmlns:xlink="http://www.w3.org/1999/xlink" contentStyleType="text/css" data-diagram-type="DESCRIPTION" height="313px" preserveAspectRatio="none" style="width:1010px;height:313px;background:#FFFFFF;" version="1.1" viewBox="0 0 1010 313" width="1010px" zoomAndPan="magnify"><defs/><g><!--cluster agregarInvestigador--><g class="cluster" data-qualified-name="agregarInvestigador" data-source-line="9" id="ent0003"><path d="M8.5,6 L159.2188,6 A3.75,3.75 0 0 1 161.7188,8.5 L168.7188,25.9688 L694.5,25.9688 A2.5,2.5 0 0 1 697,28.4688 L697,303.5 A2.5,2.5 0 0 1 694.5,306 L8.5,306 A2.5,2.5 0 0 1 6,303.5 L6,8.5 A2.5,2.5 0 0 1 8.5,6" fill="none" style="stroke:#000000;stroke-width:1.5;"/><line style="stroke:#000000;stroke-width:1.5;" x1="6" x2="168.7188" y1="25.9688" y2="25.9688"/><text fill="#000000" font-family="sans-serif" font-size="12" font-weight="bold" lengthAdjust="spacing" textLength="149.7188" x="10" y="19.1387">agregarInvestigador()</text></g><!--entity AgregarInvestigadorView--><g class="entity" data-qualified-name="agregarInvestigador.AgregarInvestigadorView" data-source-line="10" id="ent0004"><rect fill="#629EF9" height="33.9688" rx="2.5" ry="2.5" style="stroke:#181818;stroke-width:0.5;" width="171.5703" x="509" y="38"/><text fill="#000000" font-family="sans-serif" font-size="12" lengthAdjust="spacing" textLength="151.5703" x="519" y="59.1387">AgregarInvestigadorView</text></g><!--entity ProyectoController--><g class="entity" data-qualified-name="agregarInvestigador.ProyectoController" data-source-line="11" id="ent0005"><rect fill="#B5BD68" height="33.9688" rx="2.5" ry="2.5" style="stroke:#181818;stroke-width:0.5;" width="131.9316" x="200" y="147"/><text fill="#000000" font-family="sans-serif" font-size="12" lengthAdjust="spacing" textLength="111.9316" x="210" y="168.1387">ProyectoController</text></g><!--entity ProyectoRepository--><g class="entity" data-qualified-name="agregarInvestigador.ProyectoRepository" data-source-line="12" id="ent0006"><rect fill="#F2AC4E" height="33.9688" rx="2.5" ry="2.5" style="stroke:#181818;stroke-width:0.5;" width="136.9883" x="46.5" y="256"/><text fill="#000000" font-family="sans-serif" font-size="12" lengthAdjust="spacing" textLength="116.9883" x="56.5" y="277.1387">ProyectoRepository</text></g><!--entity InvestigadorRepository--><g class="entity" data-qualified-name="agregarInvestigador.InvestigadorRepository" data-source-line="13" id="ent0007"><rect fill="#F2AC4E" height="33.9688" rx="2.5" ry="2.5" style="stroke:#181818;stroke-width:0.5;" width="159.1309" x="355.5" y="256"/><text fill="#000000" font-family="sans-serif" font-size="12" lengthAdjust="spacing" textLength="139.1309" x="365.5" y="277.1387">InvestigadorRepository</text></g><!--entity ProyectoAbierto--><g class="entity" data-qualified-name="ProyectoAbierto" data-source-line="7" id="ent0002"><rect fill="#CDEBA5" height="33.9688" rx="2.5" ry="2.5" style="stroke:#181818;stroke-width:0.5;" width="143.7617" x="822" y="147"/><text fill="#000000" font-family="sans-serif" font-size="12" lengthAdjust="spacing" textLength="123.7617" x="832" y="168.1387">PROYECTO_ABIERTO</text></g><!--link ProyectoAbierto to AgregarInvestigadorView--><g class="link" data-entity-1="ent0002" data-entity-2="ent0004" data-link-type="dependency" data-source-line="16" id="lnk8"><path d="M832.44,146.91 C781.69,133.65 718,117 718,117 C718,117 669.1354,92.7656 632.6954,74.6956" fill="none" id="ProyectoAbierto-to-AgregarInvestigadorView" style="stroke:#181818;stroke-width:1;"/><polygon fill="#181818" points="627.32,72.03,633.606,79.6119,631.7995,74.2513,637.1601,72.4448,627.32,72.03" style="stroke:#181818;stroke-width:1;"/><text fill="#000000" font-family="sans-serif" font-size="12" lengthAdjust="spacing" textLength="131.3379" x="719" y="114.1387">agregarInvestigador()</text></g><!--link AgregarInvestigadorView to ProyectoAbierto--><g class="link" data-entity-1="ent0004" data-entity-2="ent0002" data-link-type="dependency" data-source-line="24" id="lnk13"><path d="M681.22,71.25 C756.9,84.64 855,102 855,102 C855,102 868.9686,123.8445 880.5186,141.9145" fill="none" id="AgregarInvestigadorView-to-ProyectoAbierto" style="stroke:#181818;stroke-width:1;stroke-dasharray:7,7;"/><polygon fill="#181818" points="883.75,146.97,882.2733,137.2325,881.0572,142.7571,875.5326,141.541,883.75,146.97" style="stroke:#181818;stroke-width:1;"/><text fill="#000000" font-family="sans-serif" font-size="12" lengthAdjust="spacing" textLength="62.4551" x="865" y="114.1387">&#171;finalizar&#187;</text></g><!--link AgregarInvestigadorView to ProyectoAbierto--><g class="link" data-entity-1="ent0004" data-entity-2="ent0002" data-link-type="dependency" data-source-line="25" id="lnk14"><path d="M681.05,67.61 C782.07,81.23 936,102 936,102 C936,102 936,117 936,117 C936,117 924.8462,129.2196 912.7362,142.4796" fill="none" id="AgregarInvestigadorView-to-ProyectoAbierto-1" style="stroke:#181818;stroke-width:1;stroke-dasharray:7,7;"/><polygon fill="#181818" points="908.69,146.91,917.7129,142.9618,912.0618,143.218,911.8057,137.5669,908.69,146.91" style="stroke:#181818;stroke-width:1;"/><text fill="#000000" font-family="sans-serif" font-size="12" lengthAdjust="spacing" textLength="65.8418" x="937" y="114.1387">&#171;cancelar&#187;</text></g><!--link AgregarInvestigadorView to ProyectoController--><g class="link" data-entity-1="ent0004" data-entity-2="ent0005" data-link-type="dependency" data-source-line="18" id="lnk9"><path d="M508.98,63.31 C356.33,76.29 54,102 54,102 C54,102 54,117 54,117 C54,117 131.7263,133.8683 193.9263,147.3583" fill="none" id="AgregarInvestigadorView-to-ProyectoController" style="stroke:#181818;stroke-width:1;"/><polygon fill="#181818" points="199.79,148.63,191.8423,142.8133,194.9036,147.5702,190.1467,150.6315,199.79,148.63" style="stroke:#181818;stroke-width:1;"/><text fill="#000000" font-family="sans-serif" font-size="12" lengthAdjust="spacing" textLength="294.6094" x="55" y="114.1387">buscarInvestigador(criterio) : List&lt;Investigador&gt;</text></g><!--link AgregarInvestigadorView to ProyectoController--><g class="link" data-entity-1="ent0004" data-entity-2="ent0005" data-link-type="dependency" data-source-line="21" id="lnk11"><path d="M524.63,72.02 C466.34,85.3 393,102 393,102 C393,102 342.4087,126.3027 304.7787,144.3727" fill="none" id="AgregarInvestigadorView-to-ProyectoController-1" style="stroke:#181818;stroke-width:1;"/><polygon fill="#181818" points="299.37,146.97,309.2146,146.6799,303.8773,144.8056,305.7516,139.4683,299.37,146.97" style="stroke:#181818;stroke-width:1;"/><text fill="#000000" font-family="sans-serif" font-size="12" lengthAdjust="spacing" textLength="286.1367" x="394" y="114.1387">asignarInvestigador(proyectoId, investigadorId)</text></g><!--link ProyectoController to InvestigadorRepository--><g class="link" data-entity-1="ent0005" data-entity-2="ent0007" data-link-type="dependency" data-source-line="19" id="lnk10"><path d="M311.47,181.09 C348.96,194.35 396,211 396,211 C396,211 409.9686,232.8445 421.5186,250.9145" fill="none" id="ProyectoController-to-InvestigadorRepository" style="stroke:#181818;stroke-width:1;"/><polygon fill="#181818" points="424.75,255.97,423.2733,246.2325,422.0572,251.7571,416.5326,250.541,424.75,255.97" style="stroke:#181818;stroke-width:1;"/><text fill="#000000" font-family="sans-serif" font-size="12" lengthAdjust="spacing" textLength="219.8262" x="407" y="223.1387">buscar(criterio) : List&lt;Investigador&gt;</text></g><!--link ProyectoController to ProyectoRepository--><g class="link" data-entity-1="ent0005" data-entity-2="ent0006" data-link-type="dependency" data-source-line="22" id="lnk12"><path d="M212.14,181.09 C167.73,194.35 112,211 112,211 C112,211 112,226 112,226 C112,226 112.7017,236.6626 113.5617,249.9226" fill="none" id="ProyectoController-to-ProyectoRepository" style="stroke:#181818;stroke-width:1;"/><polygon fill="#181818" points="113.95,255.91,117.3591,246.67,113.6264,250.9205,109.3759,247.1878,113.95,255.91" style="stroke:#181818;stroke-width:1;"/><text fill="#000000" font-family="sans-serif" font-size="12" lengthAdjust="spacing" textLength="278.0625" x="113" y="223.1387">agregarAsociacion(proyectoId, investigadorId)</text></g><?plantuml-src bPDHQy8m58NVyoikxSk4AKocp2A5MYiK1egJmPv6siPwCKjA4YTrxB-lSrDhRJViMtBk_Ux9IQhNA3Agw1j4D5wdIcv4uaik5MnNQ1ZHHrslQ2AtA59OKgxBofWjwOQRYHJcfpNY1Qk-u0bt3Eww9P6ZO2RF66IIvzyBGXIB3HKfPs3xus3azS2QpQSlWR-OldgZC9WlfXPG3JCbyw9KUX4oPIGXMJ6NfWmicYgMKXMATwODfeLpTTFQzzGey46W-4vJBU-ow1dPTWzeqC3kTmV1P5157JpwnU6Lv9ofC-kdRR2ZNfJq7ve0SvP9ZKQg_0nmsWPxqlNy-w0AA3kjGEgb8-YJa4h4q5Pjjoa21sfZ9wGfidPIm2wJS23QwBY2YLNn71NA5ZZmYDeCowfBQlBSq-jFU9Zm7_LwvrHZAYhMiz-wCBa5B0bXqchqVNczntGzBMEaCKhn9xdHUwVZLlyS1uR39GhASKULwrxR6bCHC_xT-GK0?></g></svg>