<svg xmlns="http://www.w3.org/2000/svg" xmlns:xlink="http://www.w3.org/1999/xlink" contentStyleType="text/css" data-diagram-type="STATE" height="811px" preserveAspectRatio="none" style="width:571px;height:811px;background:#FFFFFF;" version="1.1" viewBox="0 0 571 811" width="571px" zoomAndPan="magnify"><defs/><g><g><rect fill="#F1F1F1" height="50" rx="12.5" ry="12.5" style="stroke:#181818;stroke-width:0.5;" width="221.6191" x="171.69" y="7"/><line style="stroke:#181818;stroke-width:0.5;" x1="171.69" x2="393.3091" y1="33.2969" y2="33.2969"/><text fill="#000000" font-family="sans-serif" font-size="14" lengthAdjust="spacing" textLength="201.6191" x="181.69" y="24.9951">INVESTIGADORES_ABIERTOS</text></g><path d="M19.5,152 L545.5,152 A12.5,12.5 0 0 1 558,164.5 L558,178.2969 L7,178.2969 L7,164.5 A12.5,12.5 0 0 1 19.5,152" fill="#F1F1F1"/><rect fill="none" height="508.2969" rx="12.5" ry="12.5" style="stroke:#181818;stroke-width:0.5;" width="551" x="7" y="152"/><line style="stroke:#181818;stroke-width:0.5;" x1="7" x2="558" y1="178.2969" y2="178.2969"/><text fill="#000000" font-family="sans-serif" font-size="14" lengthAdjust="spacing" textLength="131.0381" x="216.981" y="169.9951">abrirInvestigador()</text><g><rect fill="#F1F1F1" height="50" rx="12.5" ry="12.5" style="stroke:#181818;stroke-width:0.5;" width="50" x="19" y="280.2969"/><line style="stroke:#181818;stroke-width:0.5;" x1="19" x2="69" y1="306.5938" y2="306.5938"/><text fill="#000000" font-family="sans-serif" font-size="14" lengthAdjust="spacing" textLength="4.4502" x="41.7749" y="298.292">&#160;</text></g><g><rect fill="#F1F1F1" height="50" rx="12.5" ry="12.5" style="stroke:#181818;stroke-width:0.5;" width="50" x="19" y="507.2969"/><line style="stroke:#181818;stroke-width:0.5;" x1="19" x2="69" y1="533.5938" y2="533.5938"/><text fill="#000000" font-family="sans-serif" font-size="14" lengthAdjust="spacing" textLength="4.4502" x="41.7749" y="525.292">&#160;</text></g><ellipse cx="44" cy="199.2969" fill="#222222" rx="10" ry="10" style="stroke:#222222;stroke-width:1;"/><ellipse cx="44" cy="639.2969" fill="none" rx="11" ry="11" style="stroke:#222222;stroke-width:1;"/><ellipse cx="44" cy="639.2969" fill="#222222" rx="6" ry="6" style="stroke:#222222;stroke-width:1;"/><!--link *start*abrirInvestigador to MostrandoLista--><g class="link" data-entity-1="ent0003" data-entity-2="ent0004" data-link-type="dependency" data-source-line="17" id="lnk4"><path d="M44,209.5269 C44,225.2369 44,251.6569 44,274.1669" fill="none" id="*start*abrirInvestigador-to-MostrandoLista" style="stroke:#008000;stroke-width:1;"/><polygon fill="#008000" points="44,280.1669,48,271.1669,44,275.1669,40,271.1669,44,280.1669" style="stroke:#008000;stroke-width:1;"/><path d="M49,232.2969 L49,257.2969 L331,257.2969 L331,242.2969 L321,232.2969 L49,232.2969" fill="#FEFFDD" style="stroke:#181818;stroke-width:0.5;"/><path d="M321,232.2969 L321,242.2969 L331,242.2969 L321,232.2969" fill="#FEFFDD" style="stroke:#181818;stroke-width:0.5;"/><text fill="#000000" font-family="sans-serif" font-size="13" font-weight="bold" lengthAdjust="spacing" textLength="92.5171" x="55" y="249.3638">Investigador</text><text fill="#000000" font-family="sans-serif" font-size="13" lengthAdjust="spacing" textLength="165.3501" x="151.6494" y="249.3638">solicita abrir investigador</text></g><!--link MostrandoLista to FiltrandoLista--><g class="link" data-entity-1="ent0004" data-entity-2="ent0005" data-link-type="dependency" data-source-line="22" id="lnk5"><path d="M44,330.3769 C44,373.5669 44,457.7369 44,501.0469" fill="none" id="MostrandoLista-to-FiltrandoLista" style="stroke:#008000;stroke-width:1;"/><polygon fill="#008000" points="44,507.0469,48,498.0469,44,502.0469,40,498.0469,44,507.0469" style="stroke:#008000;stroke-width:1;"/><path d="M49,353.2969 L49,484.2969 L549,484.2969 L549,363.2969 L539,353.2969 L49,353.2969" fill="#FEFFDD" style="stroke:#181818;stroke-width:0.5;"/><path d="M539,353.2969 L539,363.2969 L549,363.2969 L539,353.2969" fill="#FEFFDD" style="stroke:#181818;stroke-width:0.5;"/><text fill="#000000" font-family="sans-serif" font-size="13" font-weight="bold" lengthAdjust="spacing" textLength="58.9063" x="55" y="370.3638">Sistema</text><text fill="#000000" font-family="sans-serif" font-size="13" lengthAdjust="spacing" textLength="200.5034" x="118.0386" y="370.3638">presenta perfil de investigador</text><text fill="#000000" font-family="sans-serif" font-size="13" lengthAdjust="spacing" textLength="479.2544" x="55" y="385.4966">&#8226; ID, nombre, apellido, campo, carrera, master y rol de cada investigador</text><text fill="#000000" font-family="sans-serif" font-size="13" lengthAdjust="spacing" textLength="4.1323" x="55" y="400.6294">&#160;</text><text fill="#000000" font-family="sans-serif" font-size="13" lengthAdjust="spacing" textLength="248.041" x="55" y="415.7622">&#8226; Permite solicitar abrirInvestigadores</text><text fill="#000000" font-family="sans-serif" font-size="13" lengthAdjust="spacing" textLength="4.1323" x="55" y="430.895">&#160;</text><text fill="#000000" font-family="sans-serif" font-size="13" lengthAdjust="spacing" textLength="4.1323" x="55" y="446.0278">&#160;</text><text fill="#000000" font-family="sans-serif" font-size="13" lengthAdjust="spacing" textLength="4.1323" x="55" y="461.1606">&#160;</text><text fill="#000000" font-family="sans-serif" font-size="13" lengthAdjust="spacing" textLength="4.1323" x="55" y="476.2935">&#160;</text></g><!--link FiltrandoLista to *end*abrirInvestigador--><g class="link" data-entity-1="ent0005" data-entity-2="ent0006" data-link-type="dependency" data-source-line="33" id="lnk7"><path d="M44,557.6469 C44,579.9469 44,605.8569 44,622.0369" fill="none" id="FiltrandoLista-to-*end*abrirInvestigador" style="stroke:#008000;stroke-width:1;"/><polygon fill="#008000" points="44,628.0369,48,619.0369,44,623.0369,40,619.0369,44,628.0369" style="stroke:#008000;stroke-width:1;"/><path d="M49,580.2969 L49,605.2969 L345,605.2969 L345,590.2969 L335,580.2969 L49,580.2969" fill="#FEFFDD" style="stroke:#181818;stroke-width:0.5;"/><path d="M335,580.2969 L335,590.2969 L345,590.2969 L335,580.2969" fill="#FEFFDD" style="stroke:#181818;stroke-width:0.5;"/><text fill="#000000" font-family="sans-serif" font-size="13" font-weight="bold" lengthAdjust="spacing" textLength="92.5171" x="55" y="597.3638">Investigador</text><text fill="#000000" font-family="sans-serif" font-size="13" lengthAdjust="spacing" textLength="179.2769" x="151.6494" y="597.3638">solicita una de las opciones</text></g><g><rect fill="#F1F1F1" height="50" rx="12.5" ry="12.5" style="stroke:#181818;stroke-width:0.5;" width="221.6191" x="171.69" y="755.3"/><line style="stroke:#181818;stroke-width:0.5;" x1="171.69" x2="393.3091" y1="781.5969" y2="781.5969"/><text fill="#000000" font-family="sans-serif" font-size="14" lengthAdjust="spacing" textLength="201.6191" x="181.69" y="773.2951">INVESTIGADORES_ABIERTOS</text></g><!--link in2 to abrirInvestigador--><g class="link" data-entity-1="ent0002" data-entity-2="ent0003" data-link-type="dependency" data-source-line="6" id="lnk2"><path d="M282.5,57.42 C282.5,79.09 282.5,107.23 282.5,145.84" fill="none" id="in2-to-abrirInvestigador" style="stroke:#008000;stroke-width:1;"/><polygon fill="#008000" points="282.5,151.84,286.5,142.84,282.5,146.84,278.5,142.84,282.5,151.84" style="stroke:#008000;stroke-width:1;"/><path d="M287.5,92 L287.5,117 L429.5,117 L429.5,102 L419.5,92 L287.5,92" fill="#FEFFDD" style="stroke:#181818;stroke-width:0.5;"/><path d="M419.5,92 L419.5,102 L429.5,102 L419.5,92" fill="#FEFFDD" style="stroke:#181818;stroke-width:0.5;"/><text fill="#000000" font-family="sans-serif" font-size="13" lengthAdjust="spacing" textLength="121.6782" x="293.5" y="109.0669">abrirInvestigador()</text></g><!--link abrirInvestigador to INVESTIGADORES_ABIERTOS--><g class="link" data-entity-1="ent0003" data-entity-2="ent0008" data-link-type="dependency" data-source-line="41" id="lnk9"><path d="M282.5,660.78 C282.5,699.32 282.5,727.39 282.5,748.99" fill="none" id="abrirInvestigador-to-INVESTIGADORES_ABIERTOS" style="stroke:#008000;stroke-width:1;"/><polygon fill="#008000" points="282.5,754.99,286.5,745.99,282.5,749.99,278.5,745.99,282.5,754.99" style="stroke:#008000;stroke-width:1;"/><path d="M287.5,695.3 L287.5,720.3 L444.5,720.3 L444.5,705.3 L434.5,695.3 L287.5,695.3" fill="#FEFFDD" style="stroke:#181818;stroke-width:0.5;"/><path d="M434.5,695.3 L434.5,705.3 L444.5,705.3 L434.5,695.3" fill="#FEFFDD" style="stroke:#181818;stroke-width:0.5;"/><text fill="#000000" font-family="sans-serif" font-size="13" lengthAdjust="spacing" textLength="136.4492" x="293.5" y="712.3669">abrirInvestigadores()</text></g><!--SRC=[dLBTIiCm5BxFKnpgZKg7uFKOJ3Qbe4xMuSqGITlZ24kJS5A58OBFugFv99vaRBIhGp21jCdvpdU-y-FNoZX9iWQj33ORX-2iteIBuEKRsI0eSmdIGvBTFqxpHNOpdipcq_nvV9LDvujPdeW062nFLeHedWOZa0KfoimR-aQjP6L96CiyreGeQz4pdvu9D1K4q3ve3nGb_EAQmBiGm6lhb_1cv9tr3KbJsLl5xttxjT9jUmGipvywQNGv868wYOI7OJ5gwnbU52FmLgjIiKkKo_LhLIBux98D_s9_78HhApbGUqn8pbQiPTJW23qQvd58Bqf3XNqTtvzVa4rIvgeBmXIaGwrLPLCePUtYXmX9fb1BPYRO0Db8LSfAzldsf0z8jM9zkq9GlvteGz6tRfsYn4ituKujk4l_wCIhaK6tvjPRLofhE7udwaUOz_xGjICVcVy_XXjzQxn_0000]--></g></svg>