<?plantuml 1.2026.2?><svg xmlns="http://www.w3.org/2000/svg" xmlns:xlink="http://www.w3.org/1999/xlink" contentStyleType="text/css" data-diagram-type="DESCRIPTION" height="408px" preserveAspectRatio="none" style="width:1370px;height:408px;background:#FFFFFF;" version="1.1" viewBox="0 0 1370 408" width="1370px" zoomAndPan="magnify"><defs/><g><!--cluster abrirConvocatoria--><g class="cluster" data-qualified-name="abrirConvocatoria" data-source-line="10" id="ent0004"><path d="M217,6 L350.5859,6 A3.75,3.75 0 0 1 353.0859,8.5 L360.0859,25.9688 L639,25.9688 A2.5,2.5 0 0 1 641.5,28.4688 L641.5,398.5 A2.5,2.5 0 0 1 639,401 L217,401 A2.5,2.5 0 0 1 214.5,398.5 L214.5,8.5 A2.5,2.5 0 0 1 217,6" fill="none" style="stroke:#000000;stroke-width:1.5;"/><line style="stroke:#000000;stroke-width:1.5;" x1="214.5" x2="360.0859" y1="25.9688" y2="25.9688"/><text fill="#000000" font-family="sans-serif" font-size="12" font-weight="bold" lengthAdjust="spacing" textLength="132.5859" x="218.5" y="19.1387">abrirConvocatoria()</text></g><!--entity DetalleConvocatoriaView--><g class="entity" data-qualified-name="abrirConvocatoria.DetalleConvocatoriaView" data-source-line="11" id="ent0005"><rect fill="#629EF9" height="33.9688" rx="2.5" ry="2.5" style="stroke:#181818;stroke-width:0.5;" width="170.8613" x="454" y="38"/><text fill="#000000" font-family="sans-serif" font-size="12" lengthAdjust="spacing" textLength="150.8613" x="464" y="59.1387">DetalleConvocatoriaView</text></g><!--entity ConvocatoriaController--><g class="entity" data-qualified-name="abrirConvocatoria.ConvocatoriaController" data-source-line="12" id="ent0006"><rect fill="#B5BD68" height="33.9688" rx="2.5" ry="2.5" style="stroke:#181818;stroke-width:0.5;" width="158.6797" x="231" y="147"/><text fill="#000000" font-family="sans-serif" font-size="12" lengthAdjust="spacing" textLength="138.6797" x="241" y="168.1387">ConvocatoriaController</text></g><!--entity ConvocatoriaRepository--><g class="entity" data-qualified-name="abrirConvocatoria.ConvocatoriaRepository" data-source-line="13" id="ent0007"><rect fill="#F2AC4E" height="33.9688" rx="2.5" ry="2.5" style="stroke:#181818;stroke-width:0.5;" width="163.7363" x="230.5" y="256"/><text fill="#000000" font-family="sans-serif" font-size="12" lengthAdjust="spacing" textLength="143.7363" x="240.5" y="277.1387">ConvocatoriaRepository</text></g><!--entity Convocatoria--><g class="entity" data-qualified-name="abrirConvocatoria.Convocatoria" data-source-line="14" id="ent0008"><rect fill="#F2AC4E" height="33.9688" rx="2.5" ry="2.5" style="stroke:#181818;stroke-width:0.5;" width="99.3887" x="263" y="351"/><text fill="#000000" font-family="sans-serif" font-size="12" lengthAdjust="spacing" textLength="79.3887" x="273" y="372.1387">Convocatoria</text></g><!--entity ConvocatoriasAbiertas--><g class="entity" data-qualified-name="ConvocatoriasAbiertas" data-source-line="7" id="ent0002"><rect fill="#CDEBA5" height="33.9688" rx="2.5" ry="2.5" style="stroke:#181818;stroke-width:0.5;" width="190.5781" x="7" y="38"/><text fill="#000000" font-family="sans-serif" font-size="12" lengthAdjust="spacing" textLength="170.5781" x="17" y="59.1387">CONVOCATORIAS_ABIERTAS</text></g><!--entity ConvocatoriaAbierta--><g class="entity" data-qualified-name="ConvocatoriaAbierta" data-source-line="8" id="ent0003"><rect fill="#CDEBA5" height="33.9688" rx="2.5" ry="2.5" style="stroke:#181818;stroke-width:0.5;" width="175.3438" x="658" y="147"/><text fill="#000000" font-family="sans-serif" font-size="12" lengthAdjust="spacing" textLength="155.3438" x="668" y="168.1387">CONVOCATORIA_ABIERTA</text></g><!--entity ImportarConvocatoria--><g class="entity" data-qualified-name="ImportarConvocatoria" data-source-line="17" id="ent0009"><rect fill="#CDEBA5" height="33.9688" rx="2.5" ry="2.5" style="stroke:#181818;stroke-width:0.5;" width="239.334" x="868" y="147"/><text fill="#000000" font-family="sans-serif" font-size="12" lengthAdjust="spacing" textLength="219.334" x="878" y="168.1387">:Collaboration ImportarConvocatoria</text></g><!--entity AbrirConvocatorias--><g class="entity" data-qualified-name="AbrirConvocatorias" data-source-line="18" id="ent0010"><rect fill="#CDEBA5" height="33.9688" rx="2.5" ry="2.5" style="stroke:#181818;stroke-width:0.5;" width="222.5" x="1142" y="147"/><text fill="#000000" font-family="sans-serif" font-size="12" lengthAdjust="spacing" textLength="202.5" x="1152" y="168.1387">:Collaboration AbrirConvocatorias</text></g><!--link ConvocatoriasAbiertas to DetalleConvocatoriaView--><g class="link" data-entity-1="ent0002" data-entity-2="ent0005" data-link-type="dependency" data-source-line="20" id="lnk11"><path d="M198.13,55 C274.37,55 374.17,55 447.7,55" fill="none" id="ConvocatoriasAbiertas-to-DetalleConvocatoriaView" style="stroke:#181818;stroke-width:1;"/><polygon fill="#181818" points="453.7,55,444.7,51,448.7,55,444.7,59,453.7,55" style="stroke:#181818;stroke-width:1;"/><text fill="#000000" font-family="sans-serif" font-size="12" lengthAdjust="spacing" textLength="205.6875" x="223.5" y="49.1387">abrirConvocatoria(convocatoriaId)</text></g><!--link DetalleConvocatoriaView to ConvocatoriaController--><g class="link" data-entity-1="ent0005" data-entity-2="ent0006" data-link-type="dependency" data-source-line="22" id="lnk12"><path d="M453.93,70.37 C373.54,83.86 265.5,102 265.5,102 C265.5,102 265.5,117 265.5,117 C265.5,117 277.5829,129.3623 290.5629,142.6223" fill="none" id="DetalleConvocatoriaView-to-ConvocatoriaController" style="stroke:#181818;stroke-width:1;"/><polygon fill="#181818" points="294.76,146.91,291.3228,137.6804,291.2624,143.3369,285.6059,143.2766,294.76,146.91" style="stroke:#181818;stroke-width:1;"/><text fill="#000000" font-family="sans-serif" font-size="12" lengthAdjust="spacing" textLength="358.2773" x="266.5" y="114.1387">obtenerDetalleConvocatoria(convocatoriaId) : Convocatoria</text></g><!--link ConvocatoriaController to ConvocatoriaRepository--><g class="link" data-entity-1="ent0006" data-entity-2="ent0007" data-link-type="dependency" data-source-line="23" id="lnk13"><path d="M310.8,181.25 C311.18,201.48 311.7068,229.8111 312.0868,249.9511" fill="none" id="ConvocatoriaController-to-ConvocatoriaRepository" style="stroke:#181818;stroke-width:1;"/><polygon fill="#181818" points="312.2,255.95,316.0295,246.8761,312.1057,250.9509,308.0309,247.0271,312.2,255.95" style="stroke:#181818;stroke-width:1;"/><text fill="#000000" font-family="sans-serif" font-size="12" lengthAdjust="spacing" textLength="266.8242" x="312.5" y="223.1387">obtenerPorId(convocatoriaId) : Convocatoria</text></g><!--link ConvocatoriaRepository to Convocatoria--><g class="link" data-entity-1="ent0007" data-entity-2="ent0008" data-link-type="association" data-source-line="24" id="lnk14"><path d="M312.5,290.2 C312.5,307.27 312.5,333.99 312.5,350.99" fill="none" id="ConvocatoriaRepository-Convocatoria" style="stroke:#181818;stroke-width:1;"/></g><!--link DetalleConvocatoriaView to ImportarConvocatoria--><g class="link" data-entity-1="ent0005" data-entity-2="ent0009" data-link-type="dependency" data-source-line="26" id="lnk15"><path d="M606.73,72.02 C662.43,85.3 732.5,102 732.5,102 C732.5,102 839.1146,127.5043 914.6646,145.5743" fill="none" id="DetalleConvocatoriaView-to-ImportarConvocatoria" style="stroke:#181818;stroke-width:1;stroke-dasharray:7,7;"/><polygon fill="#181818" points="920.5,146.97,912.6774,140.9862,915.6372,145.8069,910.8164,148.7667,920.5,146.97" style="stroke:#181818;stroke-width:1;"/><text fill="#000000" font-family="sans-serif" font-size="12" lengthAdjust="spacing" textLength="140.6602" x="794.5" y="114.1387">importarConvocatoria()</text></g><!--link DetalleConvocatoriaView to AbrirConvocatorias--><g class="link" data-entity-1="ent0005" data-entity-2="ent0010" data-link-type="dependency" data-source-line="27" id="lnk16"><path d="M625.18,65.76 C743.77,79.26 943.5,102 943.5,102 C943.5,102 1074.3128,127.7418 1166.1628,145.8118" fill="none" id="DetalleConvocatoriaView-to-AbrirConvocatorias" style="stroke:#181818;stroke-width:1;stroke-dasharray:7,7;"/><polygon fill="#181818" points="1172.05,146.97,1163.9914,141.3079,1167.144,146.0048,1162.4471,149.1575,1172.05,146.97" style="stroke:#181818;stroke-width:1;"/><text fill="#000000" font-family="sans-serif" font-size="12" lengthAdjust="spacing" textLength="123.1758" x="1018.5" y="114.1387">abrirConvocatorias()</text></g><!--link DetalleConvocatoriaView to ConvocatoriaAbierta--><g class="link" data-entity-1="ent0005" data-entity-2="ent0003" data-link-type="dependency" data-source-line="29" id="lnk17"><path d="M572.38,72.09 C599.48,85.35 633.5,102 633.5,102 C633.5,102 677.6207,126.0303 710.8007,144.1003" fill="none" id="DetalleConvocatoriaView-to-ConvocatoriaAbierta" style="stroke:#181818;stroke-width:1;stroke-dasharray:7,7;"/><polygon fill="#181818" points="716.07,146.97,710.0792,139.1527,711.679,144.5786,706.253,146.1783,716.07,146.97" style="stroke:#181818;stroke-width:1;"/><text fill="#000000" font-family="sans-serif" font-size="12" lengthAdjust="spacing" textLength="62.4551" x="661.5" y="114.1387">&#171;finalizar&#187;</text></g><?plantuml-src bPDHJy8m58NV-ojks0iyZ4GYH1T2CWOaUn43X5TpnyfeAEtI5WaO_xiJ5GRjKD_Qddk-s-xSwJKJEIhSG8ABTQRaLgIHv5B1RiKC9VgawnMcSiT41alakgmCw1Att8oaC5_MX1SiTy6K7IZSjKeYPuAQVKuXbtp_kI54qOL1aN4ANZGOziCsrABnqtmSXRFn90wdBs4_7avcuRG6g26IubKkq4Z5K8S9eygW_etnWx08tm12yk8Dc56eOQAOAfVK6qUNTGvl1E3SjpQW1ZcdvP8vexkZkK83hzDw78uUBq7bgc9jb2oiohhwMG8lQITfvw4QCw6vrAnOxYtCMG9lr0gZ-s4rnZAVBE_E68DYG3WcKg5XKa2yoMNniPM5T0b_u8NNaUWZpJucn3aru2k_LvLDO2TUNvGsSTeWf2fNFot0xh02a8cXWYg7zxe111SGKX6_rUsSwQdRirHn-Xz-QIvy_xAiyjdDPi-PPG3CSLflt0JPCJeYqVN6xUiuVlO0kjqb4yZP0LMlzm40?></g></svg>