<?plantuml 1.2026.2?><svg xmlns="http://www.w3.org/2000/svg" xmlns:xlink="http://www.w3.org/1999/xlink" contentStyleType="text/css" data-diagram-type="DESCRIPTION" height="313px" preserveAspectRatio="none" style="width:3123px;height:313px;background:#FFFFFF;" version="1.1" viewBox="0 0 3123 313" width="3123px" zoomAndPan="magnify"><defs/><g><!--cluster abrirPanelPrincipal--><g class="cluster" data-qualified-name="abrirPanelPrincipal" data-source-line="9" id="ent0003"><path d="M169,6 L310.6895,6 A3.75,3.75 0 0 1 313.1895,8.5 L320.1895,25.9688 L812,25.9688 A2.5,2.5 0 0 1 814.5,28.4688 L814.5,303.5 A2.5,2.5 0 0 1 812,306 L169,306 A2.5,2.5 0 0 1 166.5,303.5 L166.5,8.5 A2.5,2.5 0 0 1 169,6" fill="none" style="stroke:#000000;stroke-width:1.5;"/><line style="stroke:#000000;stroke-width:1.5;" x1="166.5" x2="320.1895" y1="25.9688" y2="25.9688"/><text fill="#000000" font-family="sans-serif" font-size="12" font-weight="bold" lengthAdjust="spacing" textLength="140.6895" x="170.5" y="19.1387">abrirPanelPrincipal()</text></g><!--entity PanelPrincipalView--><g class="entity" data-qualified-name="abrirPanelPrincipal.PanelPrincipalView" data-source-line="10" id="ent0004"><rect fill="#629EF9" height="33.9688" rx="2.5" ry="2.5" style="stroke:#181818;stroke-width:0.5;" width="132.998" x="665" y="38"/><text fill="#000000" font-family="sans-serif" font-size="12" lengthAdjust="spacing" textLength="112.998" x="675" y="59.1387">PanelPrincipalView</text></g><!--entity PanelPrincipalController--><g class="entity" data-qualified-name="abrirPanelPrincipal.PanelPrincipalController" data-source-line="11" id="ent0005"><rect fill="#B5BD68" height="33.9688" rx="2.5" ry="2.5" style="stroke:#181818;stroke-width:0.5;" width="163.5488" x="182.5" y="147"/><text fill="#000000" font-family="sans-serif" font-size="12" lengthAdjust="spacing" textLength="143.5488" x="192.5" y="168.1387">PanelPrincipalController</text></g><!--entity PermisosRepository--><g class="entity" data-qualified-name="abrirPanelPrincipal.PermisosRepository" data-source-line="12" id="ent0006"><rect fill="#F2AC4E" height="33.9688" rx="2.5" ry="2.5" style="stroke:#181818;stroke-width:0.5;" width="138.7695" x="189" y="256"/><text fill="#000000" font-family="sans-serif" font-size="12" lengthAdjust="spacing" textLength="118.7695" x="199" y="277.1387">PermisosRepository</text></g><!--entity OpcionesMenu--><g class="entity" data-qualified-name="abrirPanelPrincipal.OpcionesMenu" data-source-line="13" id="ent0007"><rect fill="#F2AC4E" height="33.9688" rx="2.5" ry="2.5" style="stroke:#181818;stroke-width:0.5;" width="108.5234" x="689" y="147"/><text fill="#000000" font-family="sans-serif" font-size="12" lengthAdjust="spacing" textLength="88.5234" x="699" y="168.1387">OpcionesMenu</text></g><!--entity Sesion--><g class="entity" data-qualified-name="abrirPanelPrincipal.Sesion" data-source-line="14" id="ent0008"><rect fill="#F2AC4E" height="33.9688" rx="2.5" ry="2.5" style="stroke:#181818;stroke-width:0.5;" width="59.5332" x="590.5" y="256"/><text fill="#000000" font-family="sans-serif" font-size="12" lengthAdjust="spacing" textLength="39.5332" x="600.5" y="277.1387">Sesion</text></g><!--entity NavegacionSistema--><g class="entity" data-qualified-name="NavegacionSistema" data-source-line="7" id="ent0002"><rect fill="#CDEBA5" height="33.9688" rx="2.5" ry="2.5" style="stroke:#181818;stroke-width:0.5;" width="142.8125" x="7" y="38"/><text fill="#000000" font-family="sans-serif" font-size="12" lengthAdjust="spacing" textLength="122.8125" x="17" y="59.1387">Navegaci&#243;n Sistema</text></g><!--entity AbrirProyectos--><g class="entity" data-qualified-name="AbrirProyectos" data-source-line="17" id="ent0009"><rect fill="#CDEBA5" height="33.9688" rx="2.5" ry="2.5" style="stroke:#181818;stroke-width:0.5;" width="195.752" x="833.5" y="147"/><text fill="#000000" font-family="sans-serif" font-size="12" lengthAdjust="spacing" textLength="175.752" x="843.5" y="168.1387">:Collaboration AbrirProyectos</text></g><!--entity AbrirInvestigadores--><g class="entity" data-qualified-name="AbrirInvestigadores" data-source-line="18" id="ent0010"><rect fill="#CDEBA5" height="33.9688" rx="2.5" ry="2.5" style="stroke:#181818;stroke-width:0.5;" width="225.2773" x="1065" y="147"/><text fill="#000000" font-family="sans-serif" font-size="12" lengthAdjust="spacing" textLength="205.2773" x="1075" y="168.1387">:Collaboration AbrirInvestigadores</text></g><!--entity AbrirConvocatorias--><g class="entity" data-qualified-name="AbrirConvocatorias" data-source-line="19" id="ent0011"><rect fill="#CDEBA5" height="33.9688" rx="2.5" ry="2.5" style="stroke:#181818;stroke-width:0.5;" width="222.5" x="1325" y="147"/><text fill="#000000" font-family="sans-serif" font-size="12" lengthAdjust="spacing" textLength="202.5" x="1335" y="168.1387">:Collaboration AbrirConvocatorias</text></g><!--entity AbrirRecompensas--><g class="entity" data-qualified-name="AbrirRecompensas" data-source-line="20" id="ent0012"><rect fill="#CDEBA5" height="33.9688" rx="2.5" ry="2.5" style="stroke:#181818;stroke-width:0.5;" width="220.6719" x="1583" y="147"/><text fill="#000000" font-family="sans-serif" font-size="12" lengthAdjust="spacing" textLength="200.6719" x="1593" y="168.1387">:Collaboration AbrirRecompensas</text></g><!--entity AbrirMisPublicaciones--><g class="entity" data-qualified-name="AbrirMisPublicaciones" data-source-line="21" id="ent0013"><rect fill="#CDEBA5" height="33.9688" rx="2.5" ry="2.5" style="stroke:#181818;stroke-width:0.5;" width="238.3906" x="1839.5" y="147"/><text fill="#000000" font-family="sans-serif" font-size="12" lengthAdjust="spacing" textLength="218.3906" x="1849.5" y="168.1387">:Collaboration AbrirMisPublicaciones</text></g><!--entity AbrirPublicaciones--><g class="entity" data-qualified-name="AbrirPublicaciones" data-source-line="22" id="ent0014"><rect fill="#CDEBA5" height="33.9688" rx="2.5" ry="2.5" style="stroke:#181818;stroke-width:0.5;" width="218.4512" x="2112.5" y="147"/><text fill="#000000" font-family="sans-serif" font-size="12" lengthAdjust="spacing" textLength="198.4512" x="2122.5" y="168.1387">:Collaboration AbrirPublicaciones</text></g><!--entity AbrirOpcionesPerfil--><g class="entity" data-qualified-name="AbrirOpcionesPerfil" data-source-line="23" id="ent0015"><rect fill="#CDEBA5" height="33.9688" rx="2.5" ry="2.5" style="stroke:#181818;stroke-width:0.5;" width="222.8809" x="2366" y="147"/><text fill="#000000" font-family="sans-serif" font-size="12" lengthAdjust="spacing" textLength="202.8809" x="2376" y="168.1387">:Collaboration AbrirOpcionesPerfil</text></g><!--entity AbrirOpcionesCargaTrabajo--><g class="entity" data-qualified-name="AbrirOpcionesCargaTrabajo" data-source-line="24" id="ent0016"><rect fill="#CDEBA5" height="33.9688" rx="2.5" ry="2.5" style="stroke:#181818;stroke-width:0.5;" width="273.3359" x="2624" y="147"/><text fill="#000000" font-family="sans-serif" font-size="12" lengthAdjust="spacing" textLength="253.3359" x="2634" y="168.1387">:Collaboration AbrirOpcionesCargaTrabajo</text></g><!--entity CerrarSesion--><g class="entity" data-qualified-name="CerrarSesion" data-source-line="25" id="ent0017"><rect fill="#CDEBA5" height="33.9688" rx="2.5" ry="2.5" style="stroke:#181818;stroke-width:0.5;" width="185.2813" x="2932" y="147"/><text fill="#000000" font-family="sans-serif" font-size="12" lengthAdjust="spacing" textLength="165.2813" x="2942" y="168.1387">:Collaboration CerrarSesion</text></g><!--link NavegacionSistema to PanelPrincipalView--><g class="link" data-entity-1="ent0002" data-entity-2="ent0004" data-link-type="dependency" data-source-line="27" id="lnk18"><path d="M150.25,55 C277.47,55 534.82,55 658.53,55" fill="none" id="NavegacionSistema-to-PanelPrincipalView" style="stroke:#181818;stroke-width:1;"/><polygon fill="#181818" points="664.53,55,655.53,51,659.53,55,655.53,59,664.53,55" style="stroke:#181818;stroke-width:1;"/><text fill="#000000" font-family="sans-serif" font-size="12" lengthAdjust="spacing" textLength="121.793" x="347" y="49.1387">abrirPanelPrincipal()</text></g><!--link PanelPrincipalView to PanelPrincipalController--><g class="link" data-entity-1="ent0004" data-entity-2="ent0005" data-link-type="dependency" data-source-line="29" id="lnk19"><path d="M664.9,70.87 C604.72,84.31 525.5,102 525.5,102 C525.5,102 416.2426,127.5347 338.9126,145.6047" fill="none" id="PanelPrincipalView-to-PanelPrincipalController" style="stroke:#181818;stroke-width:1;"/><polygon fill="#181818" points="333.07,146.97,342.7441,148.8172,337.9388,145.8323,340.9237,141.027,333.07,146.97" style="stroke:#181818;stroke-width:1;"/><text fill="#000000" font-family="sans-serif" font-size="12" lengthAdjust="spacing" textLength="99.0879" x="526.5" y="114.1387">inicializarPanel()</text></g><!--link PanelPrincipalController to Sesion--><g class="link" data-entity-1="ent0005" data-entity-2="ent0008" data-link-type="dependency" data-source-line="31" id="lnk20"><path d="M346.55,176.91 C440.47,190.54 581.5,211 581.5,211 C581.5,211 595.4686,232.8445 607.0186,250.9145" fill="none" id="PanelPrincipalController-to-Sesion" style="stroke:#181818;stroke-width:1;"/><polygon fill="#181818" points="610.25,255.97,608.7733,246.2325,607.5572,251.7571,602.0326,250.541,610.25,255.97" style="stroke:#181818;stroke-width:1;"/><text fill="#000000" font-family="sans-serif" font-size="12" lengthAdjust="spacing" textLength="169.752" x="591.5" y="223.1387">getUsuarioActual() : Usuario</text></g><!--link PanelPrincipalController to PermisosRepository--><g class="link" data-entity-1="ent0005" data-entity-2="ent0006" data-link-type="dependency" data-source-line="32" id="lnk21"><path d="M261.35,181.09 C258.76,194.35 255.5,211 255.5,211 C255.5,211 255.5,226 255.5,226 C255.5,226 256.2017,236.6626 257.0617,249.9226" fill="none" id="PanelPrincipalController-to-PermisosRepository" style="stroke:#181818;stroke-width:1;"/><polygon fill="#181818" points="257.45,255.91,260.8591,246.67,257.1264,250.9205,252.8759,247.1878,257.45,255.91" style="stroke:#181818;stroke-width:1;"/><text fill="#000000" font-family="sans-serif" font-size="12" lengthAdjust="spacing" textLength="320.3438" x="256.5" y="223.1387">obtenerOpcionesDisponibles(usuario) : List&lt;Opcion&gt;</text></g><!--link PanelPrincipalController to OpcionesMenu--><g class="link" data-entity-1="ent0005" data-entity-2="ent0007" data-link-type="dependency" data-source-line="33" id="lnk22"><path d="M346.57,164 C444.42,164 599.21,164 682.95,164" fill="none" id="PanelPrincipalController-to-OpcionesMenu" style="stroke:#181818;stroke-width:1;"/><polygon fill="#181818" points="688.95,164,679.95,160,683.95,164,679.95,168,688.95,164" style="stroke:#181818;stroke-width:1;"/><text fill="#000000" font-family="sans-serif" font-size="12" lengthAdjust="spacing" textLength="306.1406" x="364.75" y="158.1387">&#171;create&#187; construirMenu(opciones) : OpcionesMenu</text></g><!--link PanelPrincipalView to OpcionesMenu--><g class="link" data-entity-1="ent0004" data-entity-2="ent0007" data-link-type="dependency" data-source-line="35" id="lnk23"><path d="M697.57,72.09 C669.6,85.35 634.5,102 634.5,102 C634.5,102 634.5,117 634.5,117 C634.5,117 668.4116,131.3184 699.8516,144.5784" fill="none" id="PanelPrincipalView-to-OpcionesMenu" style="stroke:#181818;stroke-width:1;"/><polygon fill="#181818" points="705.38,146.91,698.6418,139.7269,700.773,144.967,695.5329,147.0981,705.38,146.91" style="stroke:#181818;stroke-width:1;"/><text fill="#000000" font-family="sans-serif" font-size="12" lengthAdjust="spacing" textLength="252.3223" x="635.5" y="114.1387">obtenerOpcionesVisibles() : List&lt;Opcion&gt;</text></g><!--link PanelPrincipalView to AbrirProyectos--><g class="link" data-entity-1="ent0004" data-entity-2="ent0009" data-link-type="dependency" data-source-line="37" id="lnk24"><path d="M787.81,72.09 C834.24,85.35 892.5,102 892.5,102 C892.5,102 906.4686,123.8445 918.0186,141.9145" fill="none" id="PanelPrincipalView-to-AbrirProyectos" style="stroke:#181818;stroke-width:1;stroke-dasharray:7,7;"/><polygon fill="#181818" points="921.25,146.97,919.7733,137.2325,918.5572,142.7571,913.0326,141.541,921.25,146.97" style="stroke:#181818;stroke-width:1;"/><text fill="#000000" font-family="sans-serif" font-size="12" lengthAdjust="spacing" textLength="96.4277" x="902.5" y="114.1387">abrirProyectos()</text></g><!--link PanelPrincipalView to AbrirInvestigadores--><g class="link" data-entity-1="ent0004" data-entity-2="ent0010" data-link-type="dependency" data-source-line="38" id="lnk25"><path d="M798.31,67.14 C879.99,80.75 1007.5,102 1007.5,102 C1007.5,102 1076.8225,126.8736 1127.1825,144.9436" fill="none" id="PanelPrincipalView-to-AbrirInvestigadores" style="stroke:#181818;stroke-width:1;stroke-dasharray:7,7;"/><polygon fill="#181818" points="1132.83,146.97,1125.7098,140.1654,1128.1238,145.2813,1123.0079,147.6954,1132.83,146.97" style="stroke:#181818;stroke-width:1;"/><text fill="#000000" font-family="sans-serif" font-size="12" lengthAdjust="spacing" textLength="125.9531" x="1049.5" y="114.1387">abrirInvestigadores()</text></g><!--link PanelPrincipalView to AbrirConvocatorias--><g class="link" data-entity-1="ent0004" data-entity-2="ent0011" data-link-type="dependency" data-source-line="39" id="lnk26"><path d="M798.19,62.79 C923.93,75.58 1183.5,102 1183.5,102 C1183.5,102 1289.2371,127.4939 1364.1971,145.5639" fill="none" id="PanelPrincipalView-to-AbrirConvocatorias" style="stroke:#181818;stroke-width:1;stroke-dasharray:7,7;"/><polygon fill="#181818" points="1370.03,146.97,1362.218,140.9722,1365.1692,145.7983,1360.3432,148.7495,1370.03,146.97" style="stroke:#181818;stroke-width:1;"/><text fill="#000000" font-family="sans-serif" font-size="12" lengthAdjust="spacing" textLength="123.1758" x="1245.5" y="114.1387">abrirConvocatorias()</text></g><!--link PanelPrincipalView to AbrirRecompensas--><g class="link" data-entity-1="ent0004" data-entity-2="ent0012" data-link-type="dependency" data-source-line="40" id="lnk27"><path d="M798.2,60.75 C963.25,72.5 1377.5,102 1377.5,102 C1377.5,102 1510.9587,127.7629 1604.5787,145.8329" fill="none" id="PanelPrincipalView-to-AbrirRecompensas" style="stroke:#181818;stroke-width:1;stroke-dasharray:7,7;"/><polygon fill="#181818" points="1610.47,146.97,1602.3912,141.3368,1605.5606,146.0224,1600.875,149.1919,1610.47,146.97" style="stroke:#181818;stroke-width:1;"/><text fill="#000000" font-family="sans-serif" font-size="12" lengthAdjust="spacing" textLength="121.3477" x="1454.5" y="114.1387">abrirRecompensas()</text></g><!--link PanelPrincipalView to AbrirMisPublicaciones--><g class="link" data-entity-1="ent0004" data-entity-2="ent0013" data-link-type="dependency" data-source-line="41" id="lnk28"><path d="M798.08,59.59 C998.83,70.42 1584.5,102 1584.5,102 C1584.5,102 1743.5082,127.9343 1854.3182,146.0043" fill="none" id="PanelPrincipalView-to-AbrirMisPublicaciones" style="stroke:#181818;stroke-width:1;stroke-dasharray:7,7;"/><polygon fill="#181818" points="1860.24,146.97,1852.0011,141.5736,1855.3052,146.1653,1850.7135,149.4693,1860.24,146.97" style="stroke:#181818;stroke-width:1;"/><text fill="#000000" font-family="sans-serif" font-size="12" lengthAdjust="spacing" textLength="139.0664" x="1675.5" y="114.1387">abrirMisPublicaciones()</text></g><!--link PanelPrincipalView to AbrirPublicaciones--><g class="link" data-entity-1="ent0004" data-entity-2="ent0014" data-link-type="dependency" data-source-line="42" id="lnk29"><path d="M798.17,58.81 C1035.25,68.8 1823.5,102 1823.5,102 C1823.5,102 1993.0792,127.9912 2110.9992,146.0612" fill="none" id="PanelPrincipalView-to-AbrirPublicaciones" style="stroke:#181818;stroke-width:1;stroke-dasharray:7,7;"/><polygon fill="#181818" points="2116.93,146.97,2108.6397,141.6529,2111.9877,146.2126,2107.428,149.5606,2116.93,146.97" style="stroke:#181818;stroke-width:1;"/><text fill="#000000" font-family="sans-serif" font-size="12" lengthAdjust="spacing" textLength="119.127" x="1920.5" y="114.1387">abrirPublicaciones()</text></g><!--link PanelPrincipalView to AbrirOpcionesPerfil--><g class="link" data-entity-1="ent0004" data-entity-2="ent0015" data-link-type="dependency" data-source-line="43" id="lnk30"><path d="M798.17,58.33 C1065.89,67.68 2048.5,102 2048.5,102 C2048.5,102 2232.8497,128.2156 2359.9697,146.2856" fill="none" id="PanelPrincipalView-to-AbrirOpcionesPerfil" style="stroke:#181818;stroke-width:1;stroke-dasharray:7,7;"/><polygon fill="#181818" points="2365.91,147.13,2357.5625,141.9032,2360.9598,146.4263,2356.4366,149.8236,2365.91,147.13" style="stroke:#181818;stroke-width:1;"/><text fill="#000000" font-family="sans-serif" font-size="12" lengthAdjust="spacing" textLength="123.5566" x="2152.5" y="114.1387">abrirOpcionesPerfil()</text></g><!--link PanelPrincipalView to AbrirOpcionesCargaTrabajo--><g class="link" data-entity-1="ent0004" data-entity-2="ent0016" data-link-type="dependency" data-source-line="44" id="lnk31"><path d="M798.23,57.98 C1095.48,66.78 2284.5,102 2284.5,102 C2284.5,102 2488.4587,128.1375 2629.4887,146.2075" fill="none" id="PanelPrincipalView-to-AbrirOpcionesCargaTrabajo" style="stroke:#181818;stroke-width:1;stroke-dasharray:7,7;"/><polygon fill="#181818" points="2635.44,146.97,2627.0213,141.8586,2630.4805,146.3346,2626.0046,149.7938,2635.44,146.97" style="stroke:#181818;stroke-width:1;"/><text fill="#000000" font-family="sans-serif" font-size="12" lengthAdjust="spacing" textLength="174.0117" x="2400.5" y="114.1387">abrirOpcionesCargaTrabajo()</text></g><!--link PanelPrincipalView to CerrarSesion--><g class="link" data-entity-1="ent0004" data-entity-2="ent0017" data-link-type="dependency" data-source-line="45" id="lnk32"><path d="M798.23,57.66 C1129.73,65.89 2583.5,102 2583.5,102 C2583.5,102 2914.5,147 2914.5,147 C2914.5,147 2915.4425,147.1362 2925.7525,148.6362" fill="none" id="PanelPrincipalView-to-CerrarSesion" style="stroke:#181818;stroke-width:1;stroke-dasharray:7,7;"/><polygon fill="#181818" points="2931.69,149.5,2923.3597,144.2459,2926.7421,148.7801,2922.2079,152.1626,2931.69,149.5" style="stroke:#181818;stroke-width:1;"/><text fill="#000000" font-family="sans-serif" font-size="12" lengthAdjust="spacing" textLength="85.0313" x="2691.5" y="114.1387">cerrarSesion()</text></g><?plantuml-src dPJRRXen48Rlzoaik24NYLJKHCqA8L4EKgMcHQ7D_UmoRAOnzihsWaZLf-eZzCNYFG3U0x0fL_YVcS_UyVZNBoHYKB1c0OGlaPA9M8ubbufjdycWfmzn_GnBkIKHiHLmxKOck8A4cvaK9YyDk6Kr9ope5Tc7lXFa9D3iOcInvBjquNaAGmCYuiYwuydqy-YMTRx11YC8wTzVmHQa3QwXmq2plIv5eNfUR3U725a70aLg3WBvN948AGRUkygg6YBijyVixxXrfnn_8jncjNMPTU_wzzFP_Nd0s7wzafoZQi0SWwmRt0RBkqyr6AerQQaVCPQQZ5Ix75EJMNVM7uq_Jgk0xt7Q9TGFA9Air1LE5IrGsvmiFVzxIFpJU4s-7G0EWLHWqkHHrcSbTpPJwWnJbjeoleWDQaEH7K653gYijwNPRcza2BPR10wi9BTbFM8erp4AxP8SiItdWVGy2JY5aD_A4LQDjEvxC-w_MFjPiUEs8dw4bVNtqiQW8lYX881Viivqeot8OrGAb3Emhk1vDQDWr-fwsFIQVTPe79xNa7kzh36EJzbd92WauFGAEQvESHv-nigFwxC8pK-TW28v2asIxc_FLIWN47LBy9aC30eyj7P2EfQ20ewwb-JGbF_LTcQGvmpFR9BspJKFdmq6eK8mE1ooK0fjL6B7raPwiaXBwMx9wMQMmPLpFv7E3rqxRHFlvcPOiPlzrUxNzZxErPNTfIWkYnS89Kif02NjGhrZ94MreroehVf60QZA5oXDYFVKbnsY09J5bWJN3oeSDtIQvXg2pq9drRjw0m00?></g></svg>