<svg xmlns="http://www.w3.org/2000/svg" xmlns:xlink="http://www.w3.org/1999/xlink" contentStyleType="text/css" data-diagram-type="CLASS" height="482px" preserveAspectRatio="none" style="width:553px;height:482px;background:#FFFFFF;" version="1.1" viewBox="0 0 553 482" width="553px" zoomAndPan="magnify"><title>Sistema de red de investigadores</title><defs/><g><g class="title" data-source-line="1"><text fill="#000000" font-family="sans-serif" font-size="14" font-weight="bold" lengthAdjust="spacing" textLength="265.4395" x="137.1954" y="22.9951">Sistema de red de investigadores</text></g><!--class InvestigadorDocente--><g class="entity" data-qualified-name="InvestigadorDocente" data-source-line="3" id="ent0002"><rect fill="#FFAAAA" height="56.2656" rx="2.5" ry="2.5" style="stroke:#181818;stroke-width:0.5;" width="177.8789" x="227.77" y="169.2969"/><ellipse cx="242.77" cy="189.4297" fill="#ADD1B2" rx="11" ry="11" style="stroke:#181818;stroke-width:1;"/><path d="M245.7388,195.0703 Q245.1606,195.3672 244.52,195.5078 Q243.8794,195.6641 243.1763,195.6641 Q240.6763,195.6641 239.3481,194.0234 Q238.0356,192.3672 238.0356,189.2422 Q238.0356,186.1172 239.3481,184.4609 Q240.6763,182.8047 243.1763,182.8047 Q243.8794,182.8047 244.52,182.9609 Q245.1763,183.1172 245.7388,183.4141 L245.7388,186.1328 Q245.1138,185.5547 244.52,185.2891 Q243.9263,185.0078 243.3013,185.0078 Q241.9575,185.0078 241.27,186.0859 Q240.5825,187.1484 240.5825,189.2422 Q240.5825,191.3359 241.27,192.4141 Q241.9575,193.4766 243.3013,193.4766 Q243.9263,193.4766 244.52,193.2109 Q245.1138,192.9297 245.7388,192.3516 L245.7388,195.0703 Z " fill="#000000"/><text fill="#000000" font-family="sans-serif" font-size="12" font-style="italic" lengthAdjust="spacing" textLength="66.0293" x="296.6948" y="185.4355">&#171;Principal&#187;</text><text fill="#000000" font-family="sans-serif" font-size="14" lengthAdjust="spacing" textLength="145.8789" x="256.77" y="201.2607">InvestigadorDocente</text><line style="stroke:#181818;stroke-width:0.5;" x1="228.77" x2="404.6489" y1="209.5625" y2="209.5625"/><line style="stroke:#181818;stroke-width:0.5;" x1="228.77" x2="404.6489" y1="217.5625" y2="217.5625"/></g><!--class Proyecto--><g class="entity" data-qualified-name="Proyecto" data-source-line="6" id="ent0003"><rect fill="#F1F1F1" height="48" rx="2.5" ry="2.5" style="stroke:#181818;stroke-width:0.5;" width="93.4141" x="7" y="302.5669"/><ellipse cx="22" cy="318.5669" fill="#ADD1B2" rx="11" ry="11" style="stroke:#181818;stroke-width:1;"/><path d="M24.9688,324.2075 Q24.3906,324.5044 23.75,324.645 Q23.1094,324.8013 22.4063,324.8013 Q19.9063,324.8013 18.5781,323.1606 Q17.2656,321.5044 17.2656,318.3794 Q17.2656,315.2544 18.5781,313.5981 Q19.9063,311.9419 22.4063,311.9419 Q23.1094,311.9419 23.75,312.0981 Q24.4063,312.2544 24.9688,312.5513 L24.9688,315.27 Q24.3438,314.6919 23.75,314.4263 Q23.1563,314.145 22.5313,314.145 Q21.1875,314.145 20.5,315.2231 Q19.8125,316.2856 19.8125,318.3794 Q19.8125,320.4731 20.5,321.5513 Q21.1875,322.6138 22.5313,322.6138 Q23.1563,322.6138 23.75,322.3481 Q24.3438,322.0669 24.9688,321.4888 L24.9688,324.2075 Z " fill="#000000"/><text fill="#000000" font-family="sans-serif" font-size="14" lengthAdjust="spacing" textLength="61.4141" x="36" y="323.4136">Proyecto</text><line style="stroke:#181818;stroke-width:0.5;" x1="8" x2="99.4141" y1="334.5669" y2="334.5669"/><line style="stroke:#181818;stroke-width:0.5;" x1="8" x2="99.4141" y1="342.5669" y2="342.5669"/></g><!--class Coordinador--><g class="entity" data-qualified-name="Coordinador" data-source-line="9" id="ent0004"><rect fill="#F1F1F1" height="48" rx="2.5" ry="2.5" style="stroke:#181818;stroke-width:0.5;" width="118.0986" x="257.66" y="44.2969"/><ellipse cx="272.66" cy="60.2969" fill="#ADD1B2" rx="11" ry="11" style="stroke:#181818;stroke-width:1;"/><path d="M275.6287,65.9375 Q275.0506,66.2344 274.41,66.375 Q273.7694,66.5313 273.0662,66.5313 Q270.5662,66.5313 269.2381,64.8906 Q267.9256,63.2344 267.9256,60.1094 Q267.9256,56.9844 269.2381,55.3281 Q270.5662,53.6719 273.0662,53.6719 Q273.7694,53.6719 274.41,53.8281 Q275.0662,53.9844 275.6287,54.2813 L275.6287,57 Q275.0037,56.4219 274.41,56.1563 Q273.8162,55.875 273.1912,55.875 Q271.8475,55.875 271.16,56.9531 Q270.4725,58.0156 270.4725,60.1094 Q270.4725,62.2031 271.16,63.2813 Q271.8475,64.3438 273.1912,64.3438 Q273.8162,64.3438 274.41,64.0781 Q275.0037,63.7969 275.6287,63.2188 L275.6287,65.9375 Z " fill="#000000"/><text fill="#000000" font-family="sans-serif" font-size="14" lengthAdjust="spacing" textLength="86.0986" x="286.66" y="65.1436">Coordinador</text><line style="stroke:#181818;stroke-width:0.5;" x1="258.66" x2="374.7586" y1="76.2969" y2="76.2969"/><line style="stroke:#181818;stroke-width:0.5;" x1="258.66" x2="374.7586" y1="84.2969" y2="84.2969"/></g><!--class CargaTrabajo--><g class="entity" data-qualified-name="CargaTrabajo" data-source-line="12" id="ent0005"><rect fill="#F1F1F1" height="48" rx="2.5" ry="2.5" style="stroke:#181818;stroke-width:0.5;" width="126.3838" x="49.52" y="427.5669"/><ellipse cx="64.52" cy="443.5669" fill="#ADD1B2" rx="11" ry="11" style="stroke:#181818;stroke-width:1;"/><path d="M67.4888,449.2075 Q66.9106,449.5044 66.27,449.645 Q65.6294,449.8013 64.9263,449.8013 Q62.4263,449.8013 61.0981,448.1606 Q59.7856,446.5044 59.7856,443.3794 Q59.7856,440.2544 61.0981,438.5981 Q62.4263,436.9419 64.9263,436.9419 Q65.6294,436.9419 66.27,437.0981 Q66.9263,437.2544 67.4888,437.5513 L67.4888,440.27 Q66.8638,439.6919 66.27,439.4263 Q65.6763,439.145 65.0513,439.145 Q63.7075,439.145 63.02,440.2231 Q62.3325,441.2856 62.3325,443.3794 Q62.3325,445.4731 63.02,446.5513 Q63.7075,447.6138 65.0513,447.6138 Q65.6763,447.6138 66.27,447.3481 Q66.8638,447.0669 67.4888,446.4888 L67.4888,449.2075 Z " fill="#000000"/><text fill="#000000" font-family="sans-serif" font-size="14" lengthAdjust="spacing" textLength="94.3838" x="78.52" y="448.4136">CargaTrabajo</text><line style="stroke:#181818;stroke-width:0.5;" x1="50.52" x2="174.9038" y1="459.5669" y2="459.5669"/><line style="stroke:#181818;stroke-width:0.5;" x1="50.52" x2="174.9038" y1="467.5669" y2="467.5669"/></g><!--class PerfilInvestigador--><g class="entity" data-qualified-name="PerfilInvestigador" data-source-line="15" id="ent0006"><rect fill="#F1F1F1" height="48" rx="2.5" ry="2.5" style="stroke:#181818;stroke-width:0.5;" width="154.7666" x="239.32" y="302.5669"/><ellipse cx="254.32" cy="318.5669" fill="#ADD1B2" rx="11" ry="11" style="stroke:#181818;stroke-width:1;"/><path d="M257.2888,324.2075 Q256.7106,324.5044 256.07,324.645 Q255.4294,324.8013 254.7263,324.8013 Q252.2263,324.8013 250.8981,323.1606 Q249.5856,321.5044 249.5856,318.3794 Q249.5856,315.2544 250.8981,313.5981 Q252.2263,311.9419 254.7263,311.9419 Q255.4294,311.9419 256.07,312.0981 Q256.7263,312.2544 257.2888,312.5513 L257.2888,315.27 Q256.6638,314.6919 256.07,314.4263 Q255.4763,314.145 254.8513,314.145 Q253.5075,314.145 252.82,315.2231 Q252.1325,316.2856 252.1325,318.3794 Q252.1325,320.4731 252.82,321.5513 Q253.5075,322.6138 254.8513,322.6138 Q255.4763,322.6138 256.07,322.3481 Q256.6638,322.0669 257.2888,321.4888 L257.2888,324.2075 Z " fill="#000000"/><text fill="#000000" font-family="sans-serif" font-size="14" lengthAdjust="spacing" textLength="122.7666" x="268.32" y="323.4136">PerfilInvestigador</text><line style="stroke:#181818;stroke-width:0.5;" x1="240.32" x2="393.0866" y1="334.5669" y2="334.5669"/><line style="stroke:#181818;stroke-width:0.5;" x1="240.32" x2="393.0866" y1="342.5669" y2="342.5669"/></g><!--class Publicacion--><g class="entity" data-qualified-name="Publicacion" data-source-line="18" id="ent0007"><rect fill="#F1F1F1" height="48" rx="2.5" ry="2.5" style="stroke:#181818;stroke-width:0.5;" width="111.2832" x="429.07" y="302.5669"/><ellipse cx="444.07" cy="318.5669" fill="#ADD1B2" rx="11" ry="11" style="stroke:#181818;stroke-width:1;"/><path d="M447.0388,324.2075 Q446.4606,324.5044 445.82,324.645 Q445.1794,324.8013 444.4763,324.8013 Q441.9763,324.8013 440.6481,323.1606 Q439.3356,321.5044 439.3356,318.3794 Q439.3356,315.2544 440.6481,313.5981 Q441.9763,311.9419 444.4763,311.9419 Q445.1794,311.9419 445.82,312.0981 Q446.4763,312.2544 447.0388,312.5513 L447.0388,315.27 Q446.4138,314.6919 445.82,314.4263 Q445.2263,314.145 444.6013,314.145 Q443.2575,314.145 442.57,315.2231 Q441.8825,316.2856 441.8825,318.3794 Q441.8825,320.4731 442.57,321.5513 Q443.2575,322.6138 444.6013,322.6138 Q445.2263,322.6138 445.82,322.3481 Q446.4138,322.0669 447.0388,321.4888 L447.0388,324.2075 Z " fill="#000000"/><text fill="#000000" font-family="sans-serif" font-size="14" lengthAdjust="spacing" textLength="79.2832" x="458.07" y="323.4136">Publicacion</text><line style="stroke:#181818;stroke-width:0.5;" x1="430.07" x2="539.3532" y1="334.5669" y2="334.5669"/><line style="stroke:#181818;stroke-width:0.5;" x1="430.07" x2="539.3532" y1="342.5669" y2="342.5669"/></g><!--link InvestigadorDocente to Proyecto--><g class="link" data-entity-1="ent0002" data-entity-2="ent0003" data-link-type="dependency" data-source-line="22" id="lnk8"><path codeLine="22" d="M227.32,208.2569 C164.49,217.0469 87.84,232.2069 65.71,255.5669 C54.09,267.8269 51.4423,281.0169 51.5123,296.1969" fill="none" id="InvestigadorDocente-to-Proyecto" style="stroke:#181818;stroke-width:1;"/><polygon fill="#181818" points="51.54,302.1969,55.4985,293.1785,51.5169,297.1969,47.4985,293.2154,51.54,302.1969" style="stroke:#181818;stroke-width:1;"/><text fill="#000000" font-family="sans-serif" font-size="13" lengthAdjust="spacing" textLength="77.6191" x="66.71" y="268.6338">participa en</text></g><!--link InvestigadorDocente to CargaTrabajo--><g class="link" data-entity-1="ent0002" data-entity-2="ent0005" data-link-type="dependency" data-source-line="23" id="lnk9"><path codeLine="23" d="M273.3,225.9869 C246.05,244.9569 211.66,272.1569 187.71,302.5669 C158.8,339.2769 164.23,356.0969 142.71,397.5669 C137.59,407.4169 134.6129,412.9009 129.3529,422.0809" fill="none" id="InvestigadorDocente-to-CargaTrabajo" style="stroke:#181818;stroke-width:1;"/><polygon fill="#181818" points="126.37,427.2869,134.3151,421.4666,128.8558,422.9486,127.3738,417.4893,126.37,427.2869" style="stroke:#181818;stroke-width:1;"/><text fill="#000000" font-family="sans-serif" font-size="13" lengthAdjust="spacing" textLength="32.9443" x="188.71" y="331.1338">tiene</text></g><!--reverse link InvestigadorDocente to PerfilInvestigador--><g class="link" data-entity-1="ent0002" data-entity-2="ent0006" data-link-type="composition" data-source-line="24" id="lnk10"><path codeLine="24" d="M315.8081,237.8946 C315.5381,251.8646 315.56,257.1169 315.71,272.5669 C315.8,282.2269 315.98,292.8869 316.17,302.0869" fill="none" id="InvestigadorDocente-backto-PerfilInvestigador" style="stroke:#181818;stroke-width:1;"/><polygon fill="#181818" points="316.04,225.8969,311.9248,231.8185,315.8081,237.8946,319.9233,231.973,316.04,225.8969" style="stroke:#181818;stroke-width:1;"/><text fill="#000000" font-family="sans-serif" font-size="13" lengthAdjust="spacing" textLength="32.9443" x="316.71" y="268.6338">tiene</text></g><!--link InvestigadorDocente to InvestigadorDocente--><g class="link" data-entity-1="ent0002" data-entity-2="ent0002" data-link-type="dependency" data-source-line="25" id="lnk11"><path codeLine="25" d="M406.11,185.2569 C426.08,186.3769 440.65,190.4369 440.65,197.4369 C440.65,204.4269 432.0706,208.1509 412.1006,209.2709" fill="none" id="InvestigadorDocente-to-InvestigadorDocente" style="stroke:#181818;stroke-width:1;"/><polygon fill="#181818" points="406.11,209.6069,415.3199,213.0966,411.1022,209.3269,414.8719,205.1092,406.11,209.6069" style="stroke:#181818;stroke-width:1;"/><text fill="#000000" font-family="sans-serif" font-size="13" lengthAdjust="spacing" textLength="94.1802" x="446.65" y="202.0038">interact&#250;a con</text></g><!--link InvestigadorDocente to Publicacion--><g class="link" data-entity-1="ent0002" data-entity-2="ent0007" data-link-type="dependency" data-source-line="26" id="lnk12"><path codeLine="26" d="M340.79,225.9969 C354.54,240.8169 372.61,258.8169 390.71,272.5669 C405.03,283.4469 416.5713,290.738 431.9713,299.198" fill="none" id="InvestigadorDocente-to-Publicacion" style="stroke:#181818;stroke-width:1;"/><polygon fill="#181818" points="437.23,302.0869,431.2678,294.2477,432.8477,299.6795,427.416,301.2594,437.23,302.0869" style="stroke:#181818;stroke-width:1;"/><text fill="#000000" font-family="sans-serif" font-size="13" lengthAdjust="spacing" textLength="47.0806" x="391.71" y="268.6338">publica</text></g><!--link InvestigadorDocente to Publicacion--><g class="link" data-entity-1="ent0002" data-entity-2="ent0007" data-link-type="dependency" data-source-line="27" id="lnk13"><path codeLine="27" d="M398.16,226.0369 C414.39,233.9269 430.49,243.6969 443.71,255.5669 C457.96,268.3669 466.1317,281.8763 473.0117,296.8263" fill="none" id="InvestigadorDocente-to-Publicacion-1" style="stroke:#181818;stroke-width:1;"/><polygon fill="#181818" points="475.52,302.2769,475.3912,292.4289,473.4297,297.7348,468.1238,295.7733,475.52,302.2769" style="stroke:#181818;stroke-width:1;"/><text fill="#000000" font-family="sans-serif" font-size="13" lengthAdjust="spacing" textLength="60.8105" x="459.71" y="268.6338">responde</text></g><!--link Proyecto to CargaTrabajo--><g class="link" data-entity-1="ent0003" data-entity-2="ent0005" data-link-type="dependency" data-source-line="30" id="lnk14"><path codeLine="30" d="M64.94,350.9869 C75.44,372.8769 88.4362,399.9565 98.9162,421.8165" fill="none" id="Proyecto-to-CargaTrabajo" style="stroke:#181818;stroke-width:1;"/><polygon fill="#181818" points="101.51,427.2269,101.2262,417.3821,99.3485,422.7182,94.0124,420.8405,101.51,427.2269" style="stroke:#181818;stroke-width:1;"/><text fill="#000000" font-family="sans-serif" font-size="13" lengthAdjust="spacing" textLength="45.7983" x="88.71" y="393.6338">genera</text></g><!--link Coordinador to InvestigadorDocente--><g class="link" data-entity-1="ent0004" data-entity-2="ent0002" data-link-type="dependency" data-source-line="33" id="lnk15"><path codeLine="33" d="M316.71,92.6169 C316.71,114.1269 316.71,140.0669 316.71,162.8369" fill="none" id="Coordinador-to-InvestigadorDocente" style="stroke:#181818;stroke-width:1;"/><polygon fill="#181818" points="316.71,168.8369,320.71,159.8369,316.71,163.8369,312.71,159.8369,316.71,168.8369" style="stroke:#181818;stroke-width:1;"/><text fill="#000000" font-family="sans-serif" font-size="13" lengthAdjust="spacing" textLength="45.4048" x="317.71" y="135.3638">recluta</text></g><!--SRC=[ZP51IWKn38RtFKN0dJ0N61u3eZnmDw0No6lZ4AdDaEO98bxChHUpHTGETCHkIl_-IRuanXO9xZWRFI440gLGBqxFb8qN3AAKdVCHSuRRHhqHJya83eTPENbUCKuJN1oFL-N0gtlx3ffLNiYRjDgrY0PEDSz6HbtmNl64ZnlxJFh0iQs- -JsV8dlqBAd8LUzn3iFqYpB2YcfSgO7Ihd_3Cu8n9UgQBuUX1_bNICtVqySoUoD5Rn_l25xswPg-IpzVZ_-PoqfNIO6SSpyZwVIx57R5OchNjS-jvEFPy1C0]--></g></svg>