<svg xmlns="http://www.w3.org/2000/svg" xmlns:xlink="http://www.w3.org/1999/xlink" contentStyleType="text/css" data-diagram-type="CLASS" height="857px" preserveAspectRatio="none" style="width:640px;height:857px;background:#FFFFFF;" version="1.1" viewBox="0 0 640 857" width="640px" zoomAndPan="magnify"><title>Diagrama de Clases Unificado: Gesti&#243;n de Proyectos + Red de Investigadores</title><defs/><g><g class="title" data-source-line="1"><text fill="#000000" font-family="sans-serif" font-size="14" font-weight="bold" lengthAdjust="spacing" textLength="612.4863" x="10" y="22.9951">Diagrama de Clases Unificado: Gesti&#243;n de Proyectos + Red de Investigadores</text></g><!--class Proyecto--><g class="entity" data-qualified-name="Proyecto" data-source-line="3" id="ent0002"><rect fill="#FFAAAA" height="56.2656" rx="2.5" ry="2.5" style="stroke:#181818;stroke-width:0.5;" width="94.0293" x="211.9699" y="419.2969"/><ellipse cx="226.9699" cy="439.4297" fill="#ADD1B2" rx="11" ry="11" style="stroke:#181818;stroke-width:1;"/><path d="M229.9386,445.0703 Q229.3605,445.3672 228.7199,445.5078 Q228.0792,445.6641 227.3761,445.6641 Q224.8761,445.6641 223.548,444.0234 Q222.2355,442.3672 222.2355,439.2422 Q222.2355,436.1172 223.548,434.4609 Q224.8761,432.8047 227.3761,432.8047 Q228.0792,432.8047 228.7199,432.9609 Q229.3761,433.1172 229.9386,433.4141 L229.9386,436.1328 Q229.3136,435.5547 228.7199,435.2891 Q228.1261,435.0078 227.5011,435.0078 Q226.1574,435.0078 225.4699,436.0859 Q224.7824,437.1484 224.7824,439.2422 Q224.7824,441.3359 225.4699,442.4141 Q226.1574,443.4766 227.5011,443.4766 Q228.1261,443.4766 228.7199,443.2109 Q229.3136,442.9297 229.9386,442.3516 L229.9386,445.0703 Z " fill="#000000"/><text fill="#000000" font-family="sans-serif" font-size="12" font-style="italic" lengthAdjust="spacing" textLength="66.0293" x="238.9699" y="435.4355">&#171;Principal&#187;</text><text fill="#000000" font-family="sans-serif" font-size="14" lengthAdjust="spacing" textLength="61.4141" x="241.2775" y="451.2607">Proyecto</text><line style="stroke:#181818;stroke-width:0.5;" x1="212.9699" x2="304.9992" y1="459.5625" y2="459.5625"/><line style="stroke:#181818;stroke-width:0.5;" x1="212.9699" x2="304.9992" y1="467.5625" y2="467.5625"/></g><!--class Convocatoria--><g class="entity" data-qualified-name="Convocatoria" data-source-line="6" id="ent0003"><rect fill="#F1F1F1" height="48" rx="2.5" ry="2.5" style="stroke:#181818;stroke-width:0.5;" width="124.6201" x="134.6699" y="169.2969"/><ellipse cx="149.6699" cy="185.2969" fill="#ADD1B2" rx="11" ry="11" style="stroke:#181818;stroke-width:1;"/><path d="M152.6386,190.9375 Q152.0605,191.2344 151.4199,191.375 Q150.7792,191.5313 150.0761,191.5313 Q147.5761,191.5313 146.248,189.8906 Q144.9355,188.2344 144.9355,185.1094 Q144.9355,181.9844 146.248,180.3281 Q147.5761,178.6719 150.0761,178.6719 Q150.7792,178.6719 151.4199,178.8281 Q152.0761,178.9844 152.6386,179.2813 L152.6386,182 Q152.0136,181.4219 151.4199,181.1563 Q150.8261,180.875 150.2011,180.875 Q148.8574,180.875 148.1699,181.9531 Q147.4824,183.0156 147.4824,185.1094 Q147.4824,187.2031 148.1699,188.2813 Q148.8574,189.3438 150.2011,189.3438 Q150.8261,189.3438 151.4199,189.0781 Q152.0136,188.7969 152.6386,188.2188 L152.6386,190.9375 Z " fill="#000000"/><text fill="#000000" font-family="sans-serif" font-size="14" lengthAdjust="spacing" textLength="92.6201" x="163.6699" y="190.1436">Convocatoria</text><line style="stroke:#181818;stroke-width:0.5;" x1="135.6699" x2="258.29" y1="201.2969" y2="201.2969"/><line style="stroke:#181818;stroke-width:0.5;" x1="135.6699" x2="258.29" y1="209.2969" y2="209.2969"/></g><!--class Propuesta--><g class="entity" data-qualified-name="Propuesta" data-source-line="9" id="ent0004"><rect fill="#F1F1F1" height="48" rx="2.5" ry="2.5" style="stroke:#181818;stroke-width:0.5;" width="102.499" x="153.7299" y="294.2969"/><ellipse cx="168.7299" cy="310.2969" fill="#ADD1B2" rx="11" ry="11" style="stroke:#181818;stroke-width:1;"/><path d="M171.6986,315.9375 Q171.1205,316.2344 170.4799,316.375 Q169.8392,316.5313 169.1361,316.5313 Q166.6361,316.5313 165.308,314.8906 Q163.9955,313.2344 163.9955,310.1094 Q163.9955,306.9844 165.308,305.3281 Q166.6361,303.6719 169.1361,303.6719 Q169.8392,303.6719 170.4799,303.8281 Q171.1361,303.9844 171.6986,304.2813 L171.6986,307 Q171.0736,306.4219 170.4799,306.1563 Q169.8861,305.875 169.2611,305.875 Q167.9174,305.875 167.2299,306.9531 Q166.5424,308.0156 166.5424,310.1094 Q166.5424,312.2031 167.2299,313.2813 Q167.9174,314.3438 169.2611,314.3438 Q169.8861,314.3438 170.4799,314.0781 Q171.0736,313.7969 171.6986,313.2188 L171.6986,315.9375 Z " fill="#000000"/><text fill="#000000" font-family="sans-serif" font-size="14" lengthAdjust="spacing" textLength="70.499" x="182.7299" y="315.1436">Propuesta</text><line style="stroke:#181818;stroke-width:0.5;" x1="154.7299" x2="255.2289" y1="326.2969" y2="326.2969"/><line style="stroke:#181818;stroke-width:0.5;" x1="154.7299" x2="255.2289" y1="334.2969" y2="334.2969"/></g><!--class InvestigadorDocente--><g class="entity" data-qualified-name="InvestigadorDocente" data-source-line="12" id="ent0005"><rect fill="#F1F1F1" height="48" rx="2.5" ry="2.5" style="stroke:#181818;stroke-width:0.5;" width="177.8789" x="288.0399" y="677.5669"/><ellipse cx="303.0399" cy="693.5669" fill="#ADD1B2" rx="11" ry="11" style="stroke:#181818;stroke-width:1;"/><path d="M306.0086,699.2075 Q305.4305,699.5044 304.7899,699.645 Q304.1492,699.8013 303.4461,699.8013 Q300.9461,699.8013 299.618,698.1606 Q298.3055,696.5044 298.3055,693.3794 Q298.3055,690.2544 299.618,688.5981 Q300.9461,686.9419 303.4461,686.9419 Q304.1492,686.9419 304.7899,687.0981 Q305.4461,687.2544 306.0086,687.5513 L306.0086,690.27 Q305.3836,689.6919 304.7899,689.4263 Q304.1961,689.145 303.5711,689.145 Q302.2274,689.145 301.5399,690.2231 Q300.8524,691.2856 300.8524,693.3794 Q300.8524,695.4731 301.5399,696.5513 Q302.2274,697.6138 303.5711,697.6138 Q304.1961,697.6138 304.7899,697.3481 Q305.3836,697.0669 306.0086,696.4888 L306.0086,699.2075 Z " fill="#000000"/><text fill="#000000" font-family="sans-serif" font-size="14" lengthAdjust="spacing" textLength="145.8789" x="317.0399" y="698.4136">InvestigadorDocente</text><line style="stroke:#181818;stroke-width:0.5;" x1="289.0399" x2="464.9188" y1="709.5669" y2="709.5669"/><line style="stroke:#181818;stroke-width:0.5;" x1="289.0399" x2="464.9188" y1="717.5669" y2="717.5669"/></g><!--class Coordinador--><g class="entity" data-qualified-name="Coordinador" data-source-line="15" id="ent0006"><rect fill="#F1F1F1" height="48" rx="2.5" ry="2.5" style="stroke:#181818;stroke-width:0.5;" width="118.0986" x="252.9299" y="44.2969"/><ellipse cx="267.9299" cy="60.2969" fill="#ADD1B2" rx="11" ry="11" style="stroke:#181818;stroke-width:1;"/><path d="M270.8986,65.9375 Q270.3205,66.2344 269.6799,66.375 Q269.0392,66.5313 268.3361,66.5313 Q265.8361,66.5313 264.508,64.8906 Q263.1955,63.2344 263.1955,60.1094 Q263.1955,56.9844 264.508,55.3281 Q265.8361,53.6719 268.3361,53.6719 Q269.0392,53.6719 269.6799,53.8281 Q270.3361,53.9844 270.8986,54.2813 L270.8986,57 Q270.2736,56.4219 269.6799,56.1563 Q269.0861,55.875 268.4611,55.875 Q267.1174,55.875 266.4299,56.9531 Q265.7424,58.0156 265.7424,60.1094 Q265.7424,62.2031 266.4299,63.2813 Q267.1174,64.3438 268.4611,64.3438 Q269.0861,64.3438 269.6799,64.0781 Q270.2736,63.7969 270.8986,63.2188 L270.8986,65.9375 Z " fill="#000000"/><text fill="#000000" font-family="sans-serif" font-size="14" lengthAdjust="spacing" textLength="86.0986" x="281.9299" y="65.1436">Coordinador</text><line style="stroke:#181818;stroke-width:0.5;" x1="253.9299" x2="370.0285" y1="76.2969" y2="76.2969"/><line style="stroke:#181818;stroke-width:0.5;" x1="253.9299" x2="370.0285" y1="84.2969" y2="84.2969"/></g><!--class Colaborador--><g class="entity" data-qualified-name="Colaborador" data-source-line="18" id="ent0007"><rect fill="#F1F1F1" height="48" rx="2.5" ry="2.5" style="stroke:#181818;stroke-width:0.5;" width="117.8047" x="365.0799" y="294.2969"/><ellipse cx="380.0799" cy="310.2969" fill="#ADD1B2" rx="11" ry="11" style="stroke:#181818;stroke-width:1;"/><path d="M383.0486,315.9375 Q382.4705,316.2344 381.8299,316.375 Q381.1892,316.5313 380.4861,316.5313 Q377.9861,316.5313 376.658,314.8906 Q375.3455,313.2344 375.3455,310.1094 Q375.3455,306.9844 376.658,305.3281 Q377.9861,303.6719 380.4861,303.6719 Q381.1892,303.6719 381.8299,303.8281 Q382.4861,303.9844 383.0486,304.2813 L383.0486,307 Q382.4236,306.4219 381.8299,306.1563 Q381.2361,305.875 380.6111,305.875 Q379.2674,305.875 378.5799,306.9531 Q377.8924,308.0156 377.8924,310.1094 Q377.8924,312.2031 378.5799,313.2813 Q379.2674,314.3438 380.6111,314.3438 Q381.2361,314.3438 381.8299,314.0781 Q382.4236,313.7969 383.0486,313.2188 L383.0486,315.9375 Z " fill="#000000"/><text fill="#000000" font-family="sans-serif" font-size="14" lengthAdjust="spacing" textLength="85.8047" x="394.0799" y="315.1436">Colaborador</text><line style="stroke:#181818;stroke-width:0.5;" x1="366.0799" x2="481.8846" y1="326.2969" y2="326.2969"/><line style="stroke:#181818;stroke-width:0.5;" x1="366.0799" x2="481.8846" y1="334.2969" y2="334.2969"/></g><!--class CargaTrabajo--><g class="entity" data-qualified-name="CargaTrabajo" data-source-line="21" id="ent0008"><rect fill="#F1F1F1" height="48" rx="2.5" ry="2.5" style="stroke:#181818;stroke-width:0.5;" width="126.3838" x="167.7899" y="802.5669"/><ellipse cx="182.7899" cy="818.5669" fill="#ADD1B2" rx="11" ry="11" style="stroke:#181818;stroke-width:1;"/><path d="M185.7586,824.2075 Q185.1805,824.5044 184.5399,824.645 Q183.8992,824.8013 183.1961,824.8013 Q180.6961,824.8013 179.368,823.1606 Q178.0555,821.5044 178.0555,818.3794 Q178.0555,815.2544 179.368,813.5981 Q180.6961,811.9419 183.1961,811.9419 Q183.8992,811.9419 184.5399,812.0981 Q185.1961,812.2544 185.7586,812.5513 L185.7586,815.27 Q185.1336,814.6919 184.5399,814.4263 Q183.9461,814.145 183.3211,814.145 Q181.9774,814.145 181.2899,815.2231 Q180.6024,816.2856 180.6024,818.3794 Q180.6024,820.4731 181.2899,821.5513 Q181.9774,822.6138 183.3211,822.6138 Q183.9461,822.6138 184.5399,822.3481 Q185.1336,822.0669 185.7586,821.4888 L185.7586,824.2075 Z " fill="#000000"/><text fill="#000000" font-family="sans-serif" font-size="14" lengthAdjust="spacing" textLength="94.3838" x="196.7899" y="823.4136">CargaTrabajo</text><line style="stroke:#181818;stroke-width:0.5;" x1="168.7899" x2="293.1737" y1="834.5669" y2="834.5669"/><line style="stroke:#181818;stroke-width:0.5;" x1="168.7899" x2="293.1737" y1="842.5669" y2="842.5669"/></g><!--class Entregables--><g class="entity" data-qualified-name="Entregables" data-source-line="24" id="ent0009"><rect fill="#F1F1F1" height="48" rx="2.5" ry="2.5" style="stroke:#181818;stroke-width:0.5;" width="115.7266" x="14.1199" y="802.5669"/><ellipse cx="29.1199" cy="818.5669" fill="#ADD1B2" rx="11" ry="11" style="stroke:#181818;stroke-width:1;"/><path d="M32.0886,824.2075 Q31.5105,824.5044 30.8699,824.645 Q30.2292,824.8013 29.5261,824.8013 Q27.0261,824.8013 25.698,823.1606 Q24.3855,821.5044 24.3855,818.3794 Q24.3855,815.2544 25.698,813.5981 Q27.0261,811.9419 29.5261,811.9419 Q30.2292,811.9419 30.8699,812.0981 Q31.5261,812.2544 32.0886,812.5513 L32.0886,815.27 Q31.4636,814.6919 30.8699,814.4263 Q30.2761,814.145 29.6511,814.145 Q28.3074,814.145 27.6199,815.2231 Q26.9324,816.2856 26.9324,818.3794 Q26.9324,820.4731 27.6199,821.5513 Q28.3074,822.6138 29.6511,822.6138 Q30.2761,822.6138 30.8699,822.3481 Q31.4636,822.0669 32.0886,821.4888 L32.0886,824.2075 Z " fill="#000000"/><text fill="#000000" font-family="sans-serif" font-size="14" lengthAdjust="spacing" textLength="83.7266" x="43.1199" y="823.4136">Entregables</text><line style="stroke:#181818;stroke-width:0.5;" x1="15.1199" x2="128.8464" y1="834.5669" y2="834.5669"/><line style="stroke:#181818;stroke-width:0.5;" x1="15.1199" x2="128.8464" y1="842.5669" y2="842.5669"/></g><!--class Recompensa--><g class="entity" data-qualified-name="Recompensa" data-source-line="27" id="ent0010"><rect fill="#F1F1F1" height="48" rx="2.5" ry="2.5" style="stroke:#181818;stroke-width:0.5;" width="122.4873" x="197.7399" y="552.5669"/><ellipse cx="212.7399" cy="568.5669" fill="#ADD1B2" rx="11" ry="11" style="stroke:#181818;stroke-width:1;"/><path d="M215.7086,574.2075 Q215.1305,574.5044 214.4899,574.645 Q213.8492,574.8013 213.1461,574.8013 Q210.6461,574.8013 209.318,573.1606 Q208.0055,571.5044 208.0055,568.3794 Q208.0055,565.2544 209.318,563.5981 Q210.6461,561.9419 213.1461,561.9419 Q213.8492,561.9419 214.4899,562.0981 Q215.1461,562.2544 215.7086,562.5513 L215.7086,565.27 Q215.0836,564.6919 214.4899,564.4263 Q213.8961,564.145 213.2711,564.145 Q211.9274,564.145 211.2399,565.2231 Q210.5524,566.2856 210.5524,568.3794 Q210.5524,570.4731 211.2399,571.5513 Q211.9274,572.6138 213.2711,572.6138 Q213.8961,572.6138 214.4899,572.3481 Q215.0836,572.0669 215.7086,571.4888 L215.7086,574.2075 Z " fill="#000000"/><text fill="#000000" font-family="sans-serif" font-size="14" lengthAdjust="spacing" textLength="90.4873" x="226.7399" y="573.4136">Recompensa</text><line style="stroke:#181818;stroke-width:0.5;" x1="198.7399" x2="319.2272" y1="584.5669" y2="584.5669"/><line style="stroke:#181818;stroke-width:0.5;" x1="198.7399" x2="319.2272" y1="592.5669" y2="592.5669"/></g><!--class PerfilInvestigador--><g class="entity" data-qualified-name="PerfilInvestigador" data-source-line="30" id="ent0011"><rect fill="#F1F1F1" height="48" rx="2.5" ry="2.5" style="stroke:#181818;stroke-width:0.5;" width="154.7666" x="477.5999" y="802.5669"/><ellipse cx="492.5999" cy="818.5669" fill="#ADD1B2" rx="11" ry="11" style="stroke:#181818;stroke-width:1;"/><path d="M495.5686,824.2075 Q494.9905,824.5044 494.3499,824.645 Q493.7092,824.8013 493.0061,824.8013 Q490.5061,824.8013 489.178,823.1606 Q487.8655,821.5044 487.8655,818.3794 Q487.8655,815.2544 489.178,813.5981 Q490.5061,811.9419 493.0061,811.9419 Q493.7092,811.9419 494.3499,812.0981 Q495.0061,812.2544 495.5686,812.5513 L495.5686,815.27 Q494.9436,814.6919 494.3499,814.4263 Q493.7561,814.145 493.1311,814.145 Q491.7874,814.145 491.0999,815.2231 Q490.4124,816.2856 490.4124,818.3794 Q490.4124,820.4731 491.0999,821.5513 Q491.7874,822.6138 493.1311,822.6138 Q493.7561,822.6138 494.3499,822.3481 Q494.9436,822.0669 495.5686,821.4888 L495.5686,824.2075 Z " fill="#000000"/><text fill="#000000" font-family="sans-serif" font-size="14" lengthAdjust="spacing" textLength="122.7666" x="506.5999" y="823.4136">PerfilInvestigador</text><line style="stroke:#181818;stroke-width:0.5;" x1="478.5999" x2="631.3665" y1="834.5669" y2="834.5669"/><line style="stroke:#181818;stroke-width:0.5;" x1="478.5999" x2="631.3665" y1="842.5669" y2="842.5669"/></g><!--class Publicacion--><g class="entity" data-qualified-name="Publicacion" data-source-line="33" id="ent0012"><rect fill="#F1F1F1" height="48" rx="2.5" ry="2.5" style="stroke:#181818;stroke-width:0.5;" width="111.2832" x="330.3399" y="802.5669"/><ellipse cx="345.3399" cy="818.5669" fill="#ADD1B2" rx="11" ry="11" style="stroke:#181818;stroke-width:1;"/><path d="M348.3086,824.2075 Q347.7305,824.5044 347.0899,824.645 Q346.4492,824.8013 345.7461,824.8013 Q343.2461,824.8013 341.918,823.1606 Q340.6055,821.5044 340.6055,818.3794 Q340.6055,815.2544 341.918,813.5981 Q343.2461,811.9419 345.7461,811.9419 Q346.4492,811.9419 347.0899,812.0981 Q347.7461,812.2544 348.3086,812.5513 L348.3086,815.27 Q347.6836,814.6919 347.0899,814.4263 Q346.4961,814.145 345.8711,814.145 Q344.5274,814.145 343.8399,815.2231 Q343.1524,816.2856 343.1524,818.3794 Q343.1524,820.4731 343.8399,821.5513 Q344.5274,822.6138 345.8711,822.6138 Q346.4961,822.6138 347.0899,822.3481 Q347.6836,822.0669 348.3086,821.4888 L348.3086,824.2075 Z " fill="#000000"/><text fill="#000000" font-family="sans-serif" font-size="14" lengthAdjust="spacing" textLength="79.2832" x="359.3399" y="823.4136">Publicacion</text><line style="stroke:#181818;stroke-width:0.5;" x1="331.3399" x2="440.6231" y1="834.5669" y2="834.5669"/><line style="stroke:#181818;stroke-width:0.5;" x1="331.3399" x2="440.6231" y1="842.5669" y2="842.5669"/></g><!--link Convocatoria to Propuesta--><g class="link" data-entity-1="ent0003" data-entity-2="ent0004" data-link-type="dependency" data-source-line="38" id="lnk13"><path codeLine="38" d="M198.5099,217.7269 C199.9299,239.6169 201.6482,266.1197 203.0782,287.9797" fill="none" id="Convocatoria-to-Propuesta" style="stroke:#181818;stroke-width:1;"/><polygon fill="#181818" points="203.4699,293.9669,206.8738,284.725,203.1435,288.9775,198.8909,285.2472,203.4699,293.9669" style="stroke:#181818;stroke-width:1;"/><text fill="#000000" font-family="sans-serif" font-size="13" lengthAdjust="spacing" textLength="45.7983" x="202.9799" y="260.3638">genera</text></g><!--link Propuesta to Proyecto--><g class="link" data-entity-1="ent0004" data-entity-2="ent0002" data-link-type="dependency" data-source-line="39" id="lnk14"><path codeLine="39" d="M214.8899,342.6169 C224.0199,364.1269 235.2445,390.5443 244.9145,413.3143" fill="none" id="Propuesta-to-Proyecto" style="stroke:#181818;stroke-width:1;"/><polygon fill="#181818" points="247.2599,418.8369,247.4236,408.9894,245.3054,414.2347,240.0601,412.1165,247.2599,418.8369" style="stroke:#181818;stroke-width:1;"/><text fill="#000000" font-family="sans-serif" font-size="13" lengthAdjust="spacing" textLength="45.7983" x="234.9799" y="385.3638">genera</text></g><!--reverse link Proyecto to InvestigadorDocente--><g class="link" data-entity-1="ent0002" data-entity-2="ent0005" data-link-type="aggregation" data-source-line="42" id="lnk15"><path codeLine="42" d="M297.1137,484.6224 C305.8437,493.5624 306.6299,495.2569 313.9799,505.5669 C349.1099,554.8469 353.1599,571.8969 367.9799,630.5669 C371.8599,645.8869 374.1099,663.5469 375.3999,677.2869" fill="none" id="Proyecto-backto-InvestigadorDocente" style="stroke:#181818;stroke-width:1;"/><polygon fill="none" points="288.7299,476.0369,290.0599,483.1242,297.1137,484.6224,295.7836,477.535,288.7299,476.0369" style="stroke:#181818;stroke-width:1;"/><text fill="#000000" font-family="sans-serif" font-size="13" lengthAdjust="spacing" textLength="112.3599" x="360.9799" y="581.1338">est&#225; formado por</text></g><!--reverse link Proyecto to Entregables--><g class="link" data-entity-1="ent0002" data-entity-2="ent0009" data-link-type="composition" data-source-line="43" id="lnk16"><path codeLine="43" d="M208.8394,483.4376 C197.8594,492.0776 195.9699,494.7769 186.9799,505.5669 C110.0999,597.8769 82.7799,745.6369 74.8099,802.3569" fill="none" id="Proyecto-backto-Entregables" style="stroke:#181818;stroke-width:1;"/><polygon fill="#181818" points="218.2699,476.0169,211.0811,476.5837,208.8394,483.4376,216.0282,482.8707,218.2699,476.0169" style="stroke:#181818;stroke-width:1;"/><text fill="#000000" font-family="sans-serif" font-size="13" lengthAdjust="spacing" textLength="32.9443" x="118.9799" y="643.6338">tiene</text></g><!--reverse link Proyecto to CargaTrabajo--><g class="link" data-entity-1="ent0002" data-entity-2="ent0008" data-link-type="composition" data-source-line="44" id="lnk17"><path codeLine="44" d="M221.8543,484.6636 C203.6043,504.0936 189.8999,523.0969 179.9799,552.5669 C165.3699,596.0069 154.5399,674.3169 190.9799,772.5669 C194.9499,783.2669 201.8299,793.6169 208.7799,802.2869" fill="none" id="Proyecto-backto-CargaTrabajo" style="stroke:#181818;stroke-width:1;"/><polygon fill="#181818" points="230.0699,475.9169,223.0465,477.5517,221.8543,484.6636,228.8777,483.0287,230.0699,475.9169" style="stroke:#181818;stroke-width:1;"/><text fill="#000000" font-family="sans-serif" font-size="13" lengthAdjust="spacing" textLength="45.7983" x="167.9799" y="643.6338">genera</text></g><!--reverse link Proyecto to Recompensa--><g class="link" data-entity-1="ent0002" data-entity-2="ent0010" data-link-type="composition" data-source-line="45" id="lnk18"><path codeLine="45" d="M258.9799,488.0169 C258.9799,510.8069 258.9799,530.7869 258.9799,552.2969" fill="none" id="Proyecto-backto-Recompensa" style="stroke:#181818;stroke-width:1;"/><polygon fill="#181818" points="258.9799,476.0169,254.9799,482.0169,258.9799,488.0169,262.9799,482.0169,258.9799,476.0169" style="stroke:#181818;stroke-width:1;"/><text fill="#000000" font-family="sans-serif" font-size="13" lengthAdjust="spacing" textLength="45.7983" x="259.9799" y="518.6338">genera</text></g><!--link Coordinador to Proyecto--><g class="link" data-entity-1="ent0006" data-entity-2="ent0002" data-link-type="dependency" data-source-line="48" id="lnk19"><path codeLine="48" d="M313.5199,92.7569 C316.3599,146.4469 319.5899,281.8969 288.9799,389.2969 C286.0999,399.4269 284.1548,404.5551 279.2148,413.6451" fill="none" id="Coordinador-to-Proyecto" style="stroke:#181818;stroke-width:1;"/><polygon fill="#181818" points="276.3499,418.9169,284.1619,412.9192,278.7373,414.5237,277.1328,409.0992,276.3499,418.9169" style="stroke:#181818;stroke-width:1;"/><text fill="#000000" font-family="sans-serif" font-size="13" lengthAdjust="spacing" textLength="56.4688" x="312.9799" y="260.3638">coordina</text></g><!--link Coordinador to Convocatoria--><g class="link" data-entity-1="ent0006" data-entity-2="ent0003" data-link-type="dependency" data-source-line="49" id="lnk20"><path codeLine="49" d="M279.1799,92.6669 C268.0499,101.3469 255.9299,111.6769 245.9799,122.2969 C232.5999,136.5969 223.2116,149.6952 214.1416,163.9452" fill="none" id="Coordinador-to-Convocatoria" style="stroke:#181818;stroke-width:1;"/><polygon fill="#181818" points="210.9199,169.0069,219.1269,163.5622,213.6046,164.7888,212.378,159.2666,210.9199,169.0069" style="stroke:#181818;stroke-width:1;"/><text fill="#000000" font-family="sans-serif" font-size="13" lengthAdjust="spacing" textLength="38.3779" x="246.9799" y="135.3638">busca</text></g><!--link Coordinador to InvestigadorDocente--><g class="link" data-entity-1="ent0006" data-entity-2="ent0005" data-link-type="dependency" data-source-line="50" id="lnk21"><path codeLine="50" d="M371.2899,73.5869 C443.7999,82.4269 556.9799,109.4869 556.9799,192.2969 C556.9799,192.2969 556.9799,192.2969 556.9799,577.5669 C556.9799,627.5269 514.7046,656.4483 468.3446,674.8983" fill="none" id="Coordinador-to-InvestigadorDocente" style="stroke:#181818;stroke-width:1;"/><polygon fill="#181818" points="462.7699,677.1169,472.6111,677.5055,467.4155,675.268,469.6529,670.0725,462.7699,677.1169" style="stroke:#181818;stroke-width:1;"/><text fill="#000000" font-family="sans-serif" font-size="13" lengthAdjust="spacing" textLength="45.4048" x="557.9799" y="385.3638">recluta</text></g><!--link Colaborador to Proyecto--><g class="link" data-entity-1="ent0007" data-entity-2="ent0002" data-link-type="dependency" data-source-line="53" id="lnk22"><path codeLine="53" d="M396.0299,342.7269 C379.3699,356.5269 357.6799,374.1769 337.9799,389.2969 C325.0899,399.1969 315.6297,406.2019 302.7497,415.4719" fill="none" id="Colaborador-to-Proyecto" style="stroke:#181818;stroke-width:1;"/><polygon fill="#181818" points="297.8799,418.9769,307.5213,416.966,301.9381,416.0561,302.848,410.4729,297.8799,418.9769" style="stroke:#181818;stroke-width:1;"/><text fill="#000000" font-family="sans-serif" font-size="13" lengthAdjust="spacing" textLength="57.2495" x="359.9799" y="385.3638">participa</text></g><!--link InvestigadorDocente to CargaTrabajo--><g class="link" data-entity-1="ent0005" data-entity-2="ent0008" data-link-type="dependency" data-source-line="56" id="lnk23"><path codeLine="56" d="M349.1799,725.9869 C323.1999,747.8769 289.2187,776.5013 263.2687,798.3613" fill="none" id="InvestigadorDocente-to-CargaTrabajo" style="stroke:#181818;stroke-width:1;"/><polygon fill="#181818" points="258.6799,802.2269,268.1402,799.4877,262.5039,799.0056,262.986,793.3693,258.6799,802.2269" style="stroke:#181818;stroke-width:1;"/><text fill="#000000" font-family="sans-serif" font-size="13" lengthAdjust="spacing" textLength="32.9443" x="312.9799" y="768.6338">tiene</text></g><!--reverse link InvestigadorDocente to PerfilInvestigador--><g class="link" data-entity-1="ent0005" data-entity-2="ent0011" data-link-type="composition" data-source-line="57" id="lnk24"><path codeLine="57" d="M444.4585,731.2488 C461.6285,739.4888 469.2699,744.3269 484.9799,755.5669 C503.7199,768.9669 522.0199,787.5169 535.2099,802.1569" fill="none" id="InvestigadorDocente-backto-PerfilInvestigador" style="stroke:#181818;stroke-width:1;"/><polygon fill="#181818" points="433.6399,726.0569,437.3185,732.2591,444.4585,731.2488,440.7798,725.0466,433.6399,726.0569" style="stroke:#181818;stroke-width:1;"/><text fill="#000000" font-family="sans-serif" font-size="13" lengthAdjust="spacing" textLength="32.9443" x="503.9799" y="768.6338">tiene</text></g><!--link InvestigadorDocente to InvestigadorDocente--><g class="link" data-entity-1="ent0005" data-entity-2="ent0005" data-link-type="dependency" data-source-line="58" id="lnk25"><path codeLine="58" d="M466.3899,690.1469 C486.3499,691.1969 500.9199,695.0069 500.9199,701.5669 C500.9199,708.1269 492.3416,711.6217 472.3816,712.6717" fill="none" id="InvestigadorDocente-to-InvestigadorDocente" style="stroke:#181818;stroke-width:1;"/><polygon fill="#181818" points="466.3899,712.9869,475.5876,716.5086,471.383,712.7242,475.1673,708.5196,466.3899,712.9869" style="stroke:#181818;stroke-width:1;"/><text fill="#000000" font-family="sans-serif" font-size="13" lengthAdjust="spacing" textLength="94.1802" x="506.9199" y="706.1338">interact&#250;a con</text></g><!--link InvestigadorDocente to Entregables--><g class="link" data-entity-1="ent0005" data-entity-2="ent0009" data-link-type="dependency" data-source-line="59" id="lnk26"><path codeLine="59" d="M315.4699,725.9769 C291.8199,735.0769 264.5899,745.6769 239.9799,755.5669 C202.1599,770.7569 165.3297,786.0887 132.5997,799.8687" fill="none" id="InvestigadorDocente-to-Entregables" style="stroke:#181818;stroke-width:1;"/><polygon fill="#181818" points="127.0699,802.1969,136.9168,802.3912,131.6781,800.2567,133.8125,795.018,127.0699,802.1969" style="stroke:#181818;stroke-width:1;"/><text fill="#000000" font-family="sans-serif" font-size="13" lengthAdjust="spacing" textLength="45.7983" x="240.9799" y="768.6338">genera</text></g><!--link InvestigadorDocente to Publicacion--><g class="link" data-entity-1="ent0005" data-entity-2="ent0012" data-link-type="dependency" data-source-line="60" id="lnk27"><path codeLine="60" d="M366.3699,725.8869 C361.4999,739.4969 357.4999,756.9969 360.9799,772.5669 C363.2499,782.6969 364.975,787.8112 369.485,796.7412" fill="none" id="InvestigadorDocente-to-Publicacion" style="stroke:#181818;stroke-width:1;"/><polygon fill="#181818" points="372.1899,802.0969,371.7031,792.2601,369.9358,797.6338,364.5621,795.8665,372.1899,802.0969" style="stroke:#181818;stroke-width:1;"/><text fill="#000000" font-family="sans-serif" font-size="13" lengthAdjust="spacing" textLength="47.0806" x="361.9799" y="768.6338">publica</text></g><!--link InvestigadorDocente to Publicacion--><g class="link" data-entity-1="ent0005" data-entity-2="ent0012" data-link-type="dependency" data-source-line="61" id="lnk28"><path codeLine="61" d="M397.8999,725.9569 C404.3599,734.6369 410.6499,744.9669 413.9799,755.5669 C418.9699,771.4269 415.2331,783.6478 407.0631,797.1078" fill="none" id="InvestigadorDocente-to-Publicacion-1" style="stroke:#181818;stroke-width:1;"/><polygon fill="#181818" points="403.9499,802.2369,412.0392,796.6188,406.5443,797.9626,405.2004,792.4677,403.9499,802.2369" style="stroke:#181818;stroke-width:1;"/><text fill="#000000" font-family="sans-serif" font-size="13" lengthAdjust="spacing" textLength="60.8105" x="415.9799" y="768.6338">responde</text></g><!--link Recompensa to InvestigadorDocente--><g class="link" data-entity-1="ent0010" data-entity-2="ent0005" data-link-type="dependency" data-source-line="64" id="lnk29"><path codeLine="64" d="M270.6299,600.8869 C278.5299,615.3169 289.8999,633.6669 302.9799,647.5669 C313.3799,658.6169 321.4587,665.4087 333.6487,673.8587" fill="none" id="Recompensa-to-InvestigadorDocente" style="stroke:#181818;stroke-width:1;"/><polygon fill="#181818" points="338.5799,677.2769,333.462,668.8622,334.4706,674.4284,328.9044,675.437,338.5799,677.2769" style="stroke:#181818;stroke-width:1;"/><text fill="#000000" font-family="sans-serif" font-size="13" lengthAdjust="spacing" textLength="59.4014" x="303.9799" y="643.6338">beneficia</text></g><!--SRC=[ZLH1JiCm4Bpd5Qjo0-K3KLK9jO2uLHKyOEDi8oFNZjPE9OHu36_WnhKVOqDAOxS9mfSei-FrpAoJe8CXcAqqremxX8fWQT2JXsUhjrfXvGfu81_quTDsrJMxLrB1URY13LKTz6Zt7Q4MBfEVPPcI3lx4XFbypTegtQ1PBE3g_lvM5hnbxx_CfRDxfp0urXZZqg5ffNK2ngUjd28RAEtbkDAsgwQmmTBn1OnSunDZYIyknkziOAgnD19416z8kLr3rgSoYRVQnBgIQbiQoL5fPmK6MLqjIppd-I8oMq1DbXYp0JeI-ZnFzImxOIxFHvCfO2ROuGEsZdTIWCRnRDXsBTjYhmK4BRrJGX9IB6wWHC54wk9Pd3bGnz859ycbWBBrwf8qxfH9cJRq1m_JFZkuGGwwkuj26slpeo4rt4SoHkwiZqp_hotJyhKy65KuVA74OoTtf_CwXZr5ZcwVUEzV_aUMJxbnjYB9APhkjFnIXCWFG-Ct]--></g></svg>