<svg xmlns="http://www.w3.org/2000/svg" xmlns:xlink="http://www.w3.org/1999/xlink" contentStyleType="text/css" data-diagram-type="CLASS" height="857px" preserveAspectRatio="none" style="width:438px;height:857px;background:#FFFFFF;" version="1.1" viewBox="0 0 438 857" width="438px" zoomAndPan="magnify"><title>Sistema de gesti&#243;n de proyectos</title><defs/><g><g class="title" data-source-line="1"><text fill="#000000" font-family="sans-serif" font-size="14" font-weight="bold" lengthAdjust="spacing" textLength="259" x="82.6623" y="22.9951">Sistema de gesti&#243;n de proyectos</text></g><!--class Proyecto--><g class="entity" data-qualified-name="Proyecto" data-source-line="3" id="ent0002"><rect fill="#FFAAAA" height="56.2656" rx="2.5" ry="2.5" style="stroke:#181818;stroke-width:0.5;" width="94.0293" x="180.4" y="419.2969"/><ellipse cx="195.4" cy="439.4297" fill="#ADD1B2" rx="11" ry="11" style="stroke:#181818;stroke-width:1;"/><path d="M198.3688,445.0703 Q197.7906,445.3672 197.15,445.5078 Q196.5094,445.6641 195.8063,445.6641 Q193.3063,445.6641 191.9781,444.0234 Q190.6656,442.3672 190.6656,439.2422 Q190.6656,436.1172 191.9781,434.4609 Q193.3063,432.8047 195.8063,432.8047 Q196.5094,432.8047 197.15,432.9609 Q197.8063,433.1172 198.3688,433.4141 L198.3688,436.1328 Q197.7438,435.5547 197.15,435.2891 Q196.5563,435.0078 195.9313,435.0078 Q194.5875,435.0078 193.9,436.0859 Q193.2125,437.1484 193.2125,439.2422 Q193.2125,441.3359 193.9,442.4141 Q194.5875,443.4766 195.9313,443.4766 Q196.5563,443.4766 197.15,443.2109 Q197.7438,442.9297 198.3688,442.3516 L198.3688,445.0703 Z " fill="#000000"/><text fill="#000000" font-family="sans-serif" font-size="12" font-style="italic" lengthAdjust="spacing" textLength="66.0293" x="207.4" y="435.4355">&#171;Principal&#187;</text><text fill="#000000" font-family="sans-serif" font-size="14" lengthAdjust="spacing" textLength="61.4141" x="209.7076" y="451.2607">Proyecto</text><line style="stroke:#181818;stroke-width:0.5;" x1="181.4" x2="273.4293" y1="459.5625" y2="459.5625"/><line style="stroke:#181818;stroke-width:0.5;" x1="181.4" x2="273.4293" y1="467.5625" y2="467.5625"/></g><!--class Convocatoria--><g class="entity" data-qualified-name="Convocatoria" data-source-line="6" id="ent0003"><rect fill="#F1F1F1" height="48" rx="2.5" ry="2.5" style="stroke:#181818;stroke-width:0.5;" width="124.6201" x="171.11" y="169.2969"/><ellipse cx="186.11" cy="185.2969" fill="#ADD1B2" rx="11" ry="11" style="stroke:#181818;stroke-width:1;"/><path d="M189.0787,190.9375 Q188.5006,191.2344 187.86,191.375 Q187.2194,191.5313 186.5162,191.5313 Q184.0162,191.5313 182.6881,189.8906 Q181.3756,188.2344 181.3756,185.1094 Q181.3756,181.9844 182.6881,180.3281 Q184.0162,178.6719 186.5162,178.6719 Q187.2194,178.6719 187.86,178.8281 Q188.5162,178.9844 189.0787,179.2813 L189.0787,182 Q188.4537,181.4219 187.86,181.1563 Q187.2662,180.875 186.6412,180.875 Q185.2975,180.875 184.61,181.9531 Q183.9225,183.0156 183.9225,185.1094 Q183.9225,187.2031 184.61,188.2813 Q185.2975,189.3438 186.6412,189.3438 Q187.2662,189.3438 187.86,189.0781 Q188.4537,188.7969 189.0787,188.2188 L189.0787,190.9375 Z " fill="#000000"/><text fill="#000000" font-family="sans-serif" font-size="14" lengthAdjust="spacing" textLength="92.6201" x="200.11" y="190.1436">Convocatoria</text><line style="stroke:#181818;stroke-width:0.5;" x1="172.11" x2="294.7301" y1="201.2969" y2="201.2969"/><line style="stroke:#181818;stroke-width:0.5;" x1="172.11" x2="294.7301" y1="209.2969" y2="209.2969"/></g><!--class Propuesta--><g class="entity" data-qualified-name="Propuesta" data-source-line="9" id="ent0004"><rect fill="#F1F1F1" height="48" rx="2.5" ry="2.5" style="stroke:#181818;stroke-width:0.5;" width="102.499" x="176.17" y="294.2969"/><ellipse cx="191.17" cy="310.2969" fill="#ADD1B2" rx="11" ry="11" style="stroke:#181818;stroke-width:1;"/><path d="M194.1388,315.9375 Q193.5606,316.2344 192.92,316.375 Q192.2794,316.5313 191.5763,316.5313 Q189.0763,316.5313 187.7481,314.8906 Q186.4356,313.2344 186.4356,310.1094 Q186.4356,306.9844 187.7481,305.3281 Q189.0763,303.6719 191.5763,303.6719 Q192.2794,303.6719 192.92,303.8281 Q193.5763,303.9844 194.1388,304.2813 L194.1388,307 Q193.5138,306.4219 192.92,306.1563 Q192.3263,305.875 191.7013,305.875 Q190.3575,305.875 189.67,306.9531 Q188.9825,308.0156 188.9825,310.1094 Q188.9825,312.2031 189.67,313.2813 Q190.3575,314.3438 191.7013,314.3438 Q192.3263,314.3438 192.92,314.0781 Q193.5138,313.7969 194.1388,313.2188 L194.1388,315.9375 Z " fill="#000000"/><text fill="#000000" font-family="sans-serif" font-size="14" lengthAdjust="spacing" textLength="70.499" x="205.17" y="315.1436">Propuesta</text><line style="stroke:#181818;stroke-width:0.5;" x1="177.17" x2="277.669" y1="326.2969" y2="326.2969"/><line style="stroke:#181818;stroke-width:0.5;" x1="177.17" x2="277.669" y1="334.2969" y2="334.2969"/></g><!--class InvestigadorDocente--><g class="entity" data-qualified-name="InvestigadorDocente" data-source-line="12" id="ent0005"><rect fill="#F1F1F1" height="48" rx="2.5" ry="2.5" style="stroke:#181818;stroke-width:0.5;" width="177.8789" x="141.48" y="677.5669"/><ellipse cx="156.48" cy="693.5669" fill="#ADD1B2" rx="11" ry="11" style="stroke:#181818;stroke-width:1;"/><path d="M159.4488,699.2075 Q158.8706,699.5044 158.23,699.645 Q157.5894,699.8013 156.8863,699.8013 Q154.3863,699.8013 153.0581,698.1606 Q151.7456,696.5044 151.7456,693.3794 Q151.7456,690.2544 153.0581,688.5981 Q154.3863,686.9419 156.8863,686.9419 Q157.5894,686.9419 158.23,687.0981 Q158.8863,687.2544 159.4488,687.5513 L159.4488,690.27 Q158.8238,689.6919 158.23,689.4263 Q157.6363,689.145 157.0113,689.145 Q155.6675,689.145 154.98,690.2231 Q154.2925,691.2856 154.2925,693.3794 Q154.2925,695.4731 154.98,696.5513 Q155.6675,697.6138 157.0113,697.6138 Q157.6363,697.6138 158.23,697.3481 Q158.8238,697.0669 159.4488,696.4888 L159.4488,699.2075 Z " fill="#000000"/><text fill="#000000" font-family="sans-serif" font-size="14" lengthAdjust="spacing" textLength="145.8789" x="170.48" y="698.4136">InvestigadorDocente</text><line style="stroke:#181818;stroke-width:0.5;" x1="142.48" x2="318.3589" y1="709.5669" y2="709.5669"/><line style="stroke:#181818;stroke-width:0.5;" x1="142.48" x2="318.3589" y1="717.5669" y2="717.5669"/></g><!--class Coordinador--><g class="entity" data-qualified-name="Coordinador" data-source-line="15" id="ent0006"><rect fill="#F1F1F1" height="48" rx="2.5" ry="2.5" style="stroke:#181818;stroke-width:0.5;" width="118.0986" x="88.37" y="44.2969"/><ellipse cx="103.37" cy="60.2969" fill="#ADD1B2" rx="11" ry="11" style="stroke:#181818;stroke-width:1;"/><path d="M106.3388,65.9375 Q105.7606,66.2344 105.12,66.375 Q104.4794,66.5313 103.7763,66.5313 Q101.2763,66.5313 99.9481,64.8906 Q98.6356,63.2344 98.6356,60.1094 Q98.6356,56.9844 99.9481,55.3281 Q101.2763,53.6719 103.7763,53.6719 Q104.4794,53.6719 105.12,53.8281 Q105.7763,53.9844 106.3388,54.2813 L106.3388,57 Q105.7138,56.4219 105.12,56.1563 Q104.5263,55.875 103.9013,55.875 Q102.5575,55.875 101.87,56.9531 Q101.1825,58.0156 101.1825,60.1094 Q101.1825,62.2031 101.87,63.2813 Q102.5575,64.3438 103.9013,64.3438 Q104.5263,64.3438 105.12,64.0781 Q105.7138,63.7969 106.3388,63.2188 L106.3388,65.9375 Z " fill="#000000"/><text fill="#000000" font-family="sans-serif" font-size="14" lengthAdjust="spacing" textLength="86.0986" x="117.37" y="65.1436">Coordinador</text><line style="stroke:#181818;stroke-width:0.5;" x1="89.37" x2="205.4686" y1="76.2969" y2="76.2969"/><line style="stroke:#181818;stroke-width:0.5;" x1="89.37" x2="205.4686" y1="84.2969" y2="84.2969"/></g><!--class Colaborador--><g class="entity" data-qualified-name="Colaborador" data-source-line="18" id="ent0007"><rect fill="#F1F1F1" height="48" rx="2.5" ry="2.5" style="stroke:#181818;stroke-width:0.5;" width="117.8047" x="313.52" y="294.2969"/><ellipse cx="328.52" cy="310.2969" fill="#ADD1B2" rx="11" ry="11" style="stroke:#181818;stroke-width:1;"/><path d="M331.4888,315.9375 Q330.9106,316.2344 330.27,316.375 Q329.6294,316.5313 328.9263,316.5313 Q326.4263,316.5313 325.0981,314.8906 Q323.7856,313.2344 323.7856,310.1094 Q323.7856,306.9844 325.0981,305.3281 Q326.4263,303.6719 328.9263,303.6719 Q329.6294,303.6719 330.27,303.8281 Q330.9263,303.9844 331.4888,304.2813 L331.4888,307 Q330.8638,306.4219 330.27,306.1563 Q329.6763,305.875 329.0513,305.875 Q327.7075,305.875 327.02,306.9531 Q326.3325,308.0156 326.3325,310.1094 Q326.3325,312.2031 327.02,313.2813 Q327.7075,314.3438 329.0513,314.3438 Q329.6763,314.3438 330.27,314.0781 Q330.8638,313.7969 331.4888,313.2188 L331.4888,315.9375 Z " fill="#000000"/><text fill="#000000" font-family="sans-serif" font-size="14" lengthAdjust="spacing" textLength="85.8047" x="342.52" y="315.1436">Colaborador</text><line style="stroke:#181818;stroke-width:0.5;" x1="314.52" x2="430.3247" y1="326.2969" y2="326.2969"/><line style="stroke:#181818;stroke-width:0.5;" x1="314.52" x2="430.3247" y1="334.2969" y2="334.2969"/></g><!--class CargaTrabajo--><g class="entity" data-qualified-name="CargaTrabajo" data-source-line="21" id="ent0008"><rect fill="#F1F1F1" height="48" rx="2.5" ry="2.5" style="stroke:#181818;stroke-width:0.5;" width="126.3838" x="54.23" y="802.5669"/><ellipse cx="69.23" cy="818.5669" fill="#ADD1B2" rx="11" ry="11" style="stroke:#181818;stroke-width:1;"/><path d="M72.1987,824.2075 Q71.6206,824.5044 70.98,824.645 Q70.3394,824.8013 69.6362,824.8013 Q67.1362,824.8013 65.8081,823.1606 Q64.4956,821.5044 64.4956,818.3794 Q64.4956,815.2544 65.8081,813.5981 Q67.1362,811.9419 69.6362,811.9419 Q70.3394,811.9419 70.98,812.0981 Q71.6362,812.2544 72.1987,812.5513 L72.1987,815.27 Q71.5737,814.6919 70.98,814.4263 Q70.3862,814.145 69.7612,814.145 Q68.4175,814.145 67.73,815.2231 Q67.0425,816.2856 67.0425,818.3794 Q67.0425,820.4731 67.73,821.5513 Q68.4175,822.6138 69.7612,822.6138 Q70.3862,822.6138 70.98,822.3481 Q71.5737,822.0669 72.1987,821.4888 L72.1987,824.2075 Z " fill="#000000"/><text fill="#000000" font-family="sans-serif" font-size="14" lengthAdjust="spacing" textLength="94.3838" x="83.23" y="823.4136">CargaTrabajo</text><line style="stroke:#181818;stroke-width:0.5;" x1="55.23" x2="179.6138" y1="834.5669" y2="834.5669"/><line style="stroke:#181818;stroke-width:0.5;" x1="55.23" x2="179.6138" y1="842.5669" y2="842.5669"/></g><!--class Entregables--><g class="entity" data-qualified-name="Entregables" data-source-line="24" id="ent0009"><rect fill="#F1F1F1" height="48" rx="2.5" ry="2.5" style="stroke:#181818;stroke-width:0.5;" width="115.7266" x="256.56" y="802.5669"/><ellipse cx="271.56" cy="818.5669" fill="#ADD1B2" rx="11" ry="11" style="stroke:#181818;stroke-width:1;"/><path d="M274.5288,824.2075 Q273.9506,824.5044 273.31,824.645 Q272.6694,824.8013 271.9663,824.8013 Q269.4663,824.8013 268.1381,823.1606 Q266.8256,821.5044 266.8256,818.3794 Q266.8256,815.2544 268.1381,813.5981 Q269.4663,811.9419 271.9663,811.9419 Q272.6694,811.9419 273.31,812.0981 Q273.9663,812.2544 274.5288,812.5513 L274.5288,815.27 Q273.9038,814.6919 273.31,814.4263 Q272.7163,814.145 272.0913,814.145 Q270.7475,814.145 270.06,815.2231 Q269.3725,816.2856 269.3725,818.3794 Q269.3725,820.4731 270.06,821.5513 Q270.7475,822.6138 272.0913,822.6138 Q272.7163,822.6138 273.31,822.3481 Q273.9038,822.0669 274.5288,821.4888 L274.5288,824.2075 Z " fill="#000000"/><text fill="#000000" font-family="sans-serif" font-size="14" lengthAdjust="spacing" textLength="83.7266" x="285.56" y="823.4136">Entregables</text><line style="stroke:#181818;stroke-width:0.5;" x1="257.56" x2="371.2866" y1="834.5669" y2="834.5669"/><line style="stroke:#181818;stroke-width:0.5;" x1="257.56" x2="371.2866" y1="842.5669" y2="842.5669"/></g><!--class Recompensa--><g class="entity" data-qualified-name="Recompensa" data-source-line="27" id="ent0010"><rect fill="#F1F1F1" height="48" rx="2.5" ry="2.5" style="stroke:#181818;stroke-width:0.5;" width="122.4873" x="71.17" y="552.5669"/><ellipse cx="86.17" cy="568.5669" fill="#ADD1B2" rx="11" ry="11" style="stroke:#181818;stroke-width:1;"/><path d="M89.1387,574.2075 Q88.5606,574.5044 87.92,574.645 Q87.2794,574.8013 86.5762,574.8013 Q84.0762,574.8013 82.7481,573.1606 Q81.4356,571.5044 81.4356,568.3794 Q81.4356,565.2544 82.7481,563.5981 Q84.0762,561.9419 86.5762,561.9419 Q87.2794,561.9419 87.92,562.0981 Q88.5762,562.2544 89.1387,562.5513 L89.1387,565.27 Q88.5137,564.6919 87.92,564.4263 Q87.3262,564.145 86.7012,564.145 Q85.3575,564.145 84.67,565.2231 Q83.9825,566.2856 83.9825,568.3794 Q83.9825,570.4731 84.67,571.5513 Q85.3575,572.6138 86.7012,572.6138 Q87.3262,572.6138 87.92,572.3481 Q88.5137,572.0669 89.1387,571.4888 L89.1387,574.2075 Z " fill="#000000"/><text fill="#000000" font-family="sans-serif" font-size="14" lengthAdjust="spacing" textLength="90.4873" x="100.17" y="573.4136">Recompensa</text><line style="stroke:#181818;stroke-width:0.5;" x1="72.17" x2="192.6573" y1="584.5669" y2="584.5669"/><line style="stroke:#181818;stroke-width:0.5;" x1="72.17" x2="192.6573" y1="592.5669" y2="592.5669"/></g><!--link Convocatoria to Propuesta--><g class="link" data-entity-1="ent0003" data-entity-2="ent0004" data-link-type="dependency" data-source-line="31" id="lnk11"><path codeLine="31" d="M232.28,217.7269 C231.21,239.6169 229.9106,266.1139 228.8506,287.9739" fill="none" id="Convocatoria-to-Propuesta" style="stroke:#181818;stroke-width:1;"/><polygon fill="#181818" points="228.56,293.9669,232.9912,285.1712,228.8022,288.9727,225.0006,284.7837,228.56,293.9669" style="stroke:#181818;stroke-width:1;"/><text fill="#000000" font-family="sans-serif" font-size="13" lengthAdjust="spacing" textLength="45.7983" x="231.42" y="260.3638">genera</text></g><!--link Propuesta to Proyecto--><g class="link" data-entity-1="ent0004" data-entity-2="ent0002" data-link-type="dependency" data-source-line="32" id="lnk12"><path codeLine="32" d="M227.42,342.6169 C227.42,364.1269 227.42,390.0669 227.42,412.8369" fill="none" id="Propuesta-to-Proyecto" style="stroke:#181818;stroke-width:1;"/><polygon fill="#181818" points="227.42,418.8369,231.42,409.8369,227.42,413.8369,223.42,409.8369,227.42,418.8369" style="stroke:#181818;stroke-width:1;"/><text fill="#000000" font-family="sans-serif" font-size="13" lengthAdjust="spacing" textLength="45.7983" x="228.42" y="385.3638">genera</text></g><!--reverse link Proyecto to InvestigadorDocente--><g class="link" data-entity-1="ent0002" data-entity-2="ent0005" data-link-type="aggregation" data-source-line="35" id="lnk13"><path codeLine="35" d="M236.0186,487.6648 C237.8886,497.0348 237.37,495.8269 238.42,505.5669 C245.17,568.3269 247.87,584.7669 241.42,647.5669 C240.41,657.3869 238.38,668.0669 236.33,677.2469" fill="none" id="Proyecto-backto-InvestigadorDocente" style="stroke:#181818;stroke-width:1;"/><polygon fill="none" points="233.67,475.8969,230.9216,482.5637,236.0186,487.6648,238.7669,480.998,233.67,475.8969" style="stroke:#181818;stroke-width:1;"/><text fill="#000000" font-family="sans-serif" font-size="13" lengthAdjust="spacing" textLength="80.3931" x="245.42" y="581.1338">formado por</text></g><!--reverse link Proyecto to Entregables--><g class="link" data-entity-1="ent0002" data-entity-2="ent0009" data-link-type="composition" data-source-line="36" id="lnk14"><path codeLine="36" d="M278.3682,483.2806 C302.3282,501.7806 320.86,521.1569 334.42,552.5669 C373.17,642.3469 352.43,676.8569 332.42,772.5669 C330.35,782.4569 326.99,793.0569 323.73,802.1669" fill="none" id="Proyecto-backto-Entregables" style="stroke:#181818;stroke-width:1;"/><polygon fill="#181818" points="268.87,475.9469,271.1745,482.7798,278.3682,483.2806,276.0637,476.4477,268.87,475.9469" style="stroke:#181818;stroke-width:1;"/><text fill="#000000" font-family="sans-serif" font-size="13" lengthAdjust="spacing" textLength="32.9443" x="356.42" y="643.6338">tiene</text></g><!--reverse link Proyecto to CargaTrabajo--><g class="link" data-entity-1="ent0002" data-entity-2="ent0008" data-link-type="composition" data-source-line="37" id="lnk15"><path codeLine="37" d="M168.7949,466.1312 C127.1349,480.9612 80.33,505.0969 53.42,552.5669 C6,636.2069 69.84,753.2769 101.49,802.4169" fill="none" id="Proyecto-backto-CargaTrabajo" style="stroke:#181818;stroke-width:1;"/><polygon fill="#181818" points="180.1,462.1069,173.106,460.3507,168.7949,466.1312,175.7889,467.8874,180.1,462.1069" style="stroke:#181818;stroke-width:1;"/><text fill="#000000" font-family="sans-serif" font-size="13" lengthAdjust="spacing" textLength="45.7983" x="39.42" y="643.6338">genera</text></g><!--reverse link Proyecto to Recompensa--><g class="link" data-entity-1="ent0002" data-entity-2="ent0010" data-link-type="composition" data-source-line="38" id="lnk16"><path codeLine="38" d="M199.6196,485.6315 C182.5996,508.4215 165.88,530.7869 149.81,552.2969" fill="none" id="Proyecto-backto-Recompensa" style="stroke:#181818;stroke-width:1;"/><polygon fill="#181818" points="206.8,476.0169,200.0049,478.4307,199.6196,485.6315,206.4147,483.2177,206.8,476.0169" style="stroke:#181818;stroke-width:1;"/><text fill="#000000" font-family="sans-serif" font-size="13" lengthAdjust="spacing" textLength="45.7983" x="184.42" y="518.6338">genera</text></g><!--link Coordinador to Proyecto--><g class="link" data-entity-1="ent0006" data-entity-2="ent0002" data-link-type="dependency" data-source-line="41" id="lnk17"><path codeLine="41" d="M144.23,92.6869 C138.56,140.8069 129.81,253.8369 158.42,342.2969 C167.69,370.9869 183.4812,394.5402 199.4112,414.3602" fill="none" id="Coordinador-to-Proyecto" style="stroke:#181818;stroke-width:1;"/><polygon fill="#181818" points="203.17,419.0369,200.6496,409.516,200.0377,415.1396,194.414,414.5277,203.17,419.0369" style="stroke:#181818;stroke-width:1;"/><text fill="#000000" font-family="sans-serif" font-size="13" lengthAdjust="spacing" textLength="56.4688" x="143.42" y="260.3638">coordina</text></g><!--link Coordinador to Convocatoria--><g class="link" data-entity-1="ent0006" data-entity-2="ent0003" data-link-type="dependency" data-source-line="42" id="lnk18"><path codeLine="42" d="M163.8,92.7269 C179.1,114.6169 198.3825,142.1892 213.6625,164.0492" fill="none" id="Coordinador-to-Convocatoria" style="stroke:#181818;stroke-width:1;"/><polygon fill="#181818" points="217.1,168.9669,215.2223,159.2987,214.2355,164.8688,208.6653,163.8819,217.1,168.9669" style="stroke:#181818;stroke-width:1;"/><text fill="#000000" font-family="sans-serif" font-size="13" lengthAdjust="spacing" textLength="38.3779" x="197.42" y="135.3638">busca</text></g><!--link Colaborador to Proyecto--><g class="link" data-entity-1="ent0007" data-entity-2="ent0002" data-link-type="dependency" data-source-line="45" id="lnk19"><path codeLine="45" d="M345.82,342.6169 C321.3,364.1269 289.3715,392.1113 263.4015,414.8813" fill="none" id="Colaborador-to-Proyecto" style="stroke:#181818;stroke-width:1;"/><polygon fill="#181818" points="258.89,418.8369,268.2943,415.9112,262.6496,415.5406,263.0202,409.8959,258.89,418.8369" style="stroke:#181818;stroke-width:1;"/><text fill="#000000" font-family="sans-serif" font-size="13" lengthAdjust="spacing" textLength="57.2495" x="309.42" y="385.3638">participa</text></g><!--link InvestigadorDocente to CargaTrabajo--><g class="link" data-entity-1="ent0005" data-entity-2="ent0008" data-link-type="dependency" data-source-line="48" id="lnk20"><path codeLine="48" d="M208.9,725.9869 C188.79,747.8769 162.9989,775.9481 142.9189,797.8081" fill="none" id="InvestigadorDocente-to-CargaTrabajo" style="stroke:#181818;stroke-width:1;"/><polygon fill="#181818" points="138.86,802.2269,147.8942,798.3047,142.2424,798.5446,142.0026,792.8928,138.86,802.2269" style="stroke:#181818;stroke-width:1;"/><text fill="#000000" font-family="sans-serif" font-size="13" lengthAdjust="spacing" textLength="32.9443" x="182.42" y="768.6338">tiene</text></g><!--link InvestigadorDocente to Entregables--><g class="link" data-entity-1="ent0005" data-entity-2="ent0009" data-link-type="dependency" data-source-line="49" id="lnk21"><path codeLine="49" d="M246.42,725.9869 C261.36,747.8769 280.166,775.4122 295.096,797.2722" fill="none" id="InvestigadorDocente-to-Entregables" style="stroke:#181818;stroke-width:1;"/><polygon fill="#181818" points="298.48,802.2269,296.7072,792.5389,295.66,798.098,290.1009,797.0508,298.48,802.2269" style="stroke:#181818;stroke-width:1;"/><text fill="#000000" font-family="sans-serif" font-size="13" lengthAdjust="spacing" textLength="45.7983" x="278.42" y="768.6338">genera</text></g><!--link Recompensa to InvestigadorDocente--><g class="link" data-entity-1="ent0010" data-entity-2="ent0005" data-link-type="dependency" data-source-line="52" id="lnk22"><path codeLine="52" d="M145.21,600.8569 C153.38,614.9369 164.62,632.9169 176.42,647.5669 C184.74,657.8969 190.5623,664.1815 199.8123,673.0215" fill="none" id="Recompensa-to-InvestigadorDocente" style="stroke:#181818;stroke-width:1;"/><polygon fill="#181818" points="204.15,677.1669,200.4071,668.057,200.5353,673.7124,194.8799,673.8405,204.15,677.1669" style="stroke:#181818;stroke-width:1;"/><text fill="#000000" font-family="sans-serif" font-size="13" lengthAdjust="spacing" textLength="59.4014" x="177.42" y="643.6338">beneficia</text></g><!--SRC=[TP9HIiGm54N_iue7_WdTG1aAeWxuDwWRU4dVb4YR5ruo0oAkoYMuCLDRssIczglS76xklIJQs1Eys11fG6W9EWhHVd-vyTyBlvE979GoFOO0Xrc0tUuWrXdhiMyQkDdlxz877-hpZxndTsQ3aSLYhYS7VqfN5EAJEu-tTjYoFB0X5wdqOccj6qzBkKVDSYMZTFWggF6DS_tHHQ4ETKyXbv_9yE39XJcHAf9NLPD5hjCwZWJLAit0jCfohjIYSLLjzglXo38a1JpBYjycF4zQGxJ9imIAYdce5SbgPQdo9I-Ic_deYYdsg46VWfcirlKlh3nAjEFRIDXMzL_Nii9KyZ-u76HfatKSgUsLTQAFAGt-0000]--></g></svg>