<svg xmlns="http://www.w3.org/2000/svg" xmlns:xlink="http://www.w3.org/1999/xlink" contentStyleType="text/css" data-diagram-type="STATE" height="735px" preserveAspectRatio="none" style="width:736px;height:735px;background:#FFFFFF;" version="1.1" viewBox="0 0 736 735" width="736px" zoomAndPan="magnify"><defs/><g><g><rect fill="#F1F1F1" height="50" rx="12.5" ry="12.5" style="stroke:#181818;stroke-width:0.5;" width="184.6846" x="272.66" y="7"/><line style="stroke:#181818;stroke-width:0.5;" x1="272.66" x2="457.3446" y1="33.2969" y2="33.2969"/><text fill="#000000" font-family="sans-serif" font-size="14" lengthAdjust="spacing" textLength="164.6846" x="282.66" y="24.9951">RECOMPENSA_ABIERTA</text></g><path d="M19.5,152 L710.5,152 A12.5,12.5 0 0 1 723,164.5 L723,178.2969 L7,178.2969 L7,164.5 A12.5,12.5 0 0 1 19.5,152" fill="#F1F1F1"/><rect fill="none" height="432.2969" rx="12.5" ry="12.5" style="stroke:#181818;stroke-width:0.5;" width="716" x="7" y="152"/><line style="stroke:#181818;stroke-width:0.5;" x1="7" x2="723" y1="178.2969" y2="178.2969"/><text fill="#000000" font-family="sans-serif" font-size="14" lengthAdjust="spacing" textLength="158.5391" x="285.7305" y="169.9951">eliminarRecompensa()</text><g><rect fill="#F1F1F1" height="50" rx="12.5" ry="12.5" style="stroke:#181818;stroke-width:0.5;" width="50" x="202" y="280.2969"/><line style="stroke:#181818;stroke-width:0.5;" x1="202" x2="252" y1="306.5938" y2="306.5938"/><text fill="#000000" font-family="sans-serif" font-size="14" lengthAdjust="spacing" textLength="4.4502" x="224.7749" y="298.292">&#160;</text></g><g><rect fill="#F1F1F1" height="50" rx="12.5" ry="12.5" style="stroke:#181818;stroke-width:0.5;" width="50" x="19" y="431.2969"/><line style="stroke:#181818;stroke-width:0.5;" x1="19" x2="69" y1="457.5938" y2="457.5938"/><text fill="#000000" font-family="sans-serif" font-size="14" lengthAdjust="spacing" textLength="4.4502" x="41.7749" y="449.292">&#160;</text></g><ellipse cx="227" cy="199.2969" fill="#222222" rx="10" ry="10" style="stroke:#222222;stroke-width:1;"/><ellipse cx="234" cy="563.2969" fill="none" rx="11" ry="11" style="stroke:#222222;stroke-width:1;"/><ellipse cx="234" cy="563.2969" fill="#222222" rx="6" ry="6" style="stroke:#222222;stroke-width:1;"/><!--link *start*eliminarRecompensa to ConfirmandoEliminacion--><g class="link" data-entity-1="ent0003" data-entity-2="ent0004" data-link-type="dependency" data-source-line="14" id="lnk4"><path d="M227,209.5269 C227,225.2369 227,251.6569 227,274.1669" fill="none" id="*start*eliminarRecompensa-to-ConfirmandoEliminacion" style="stroke:#008000;stroke-width:1;"/><polygon fill="#008000" points="227,280.1669,231,271.1669,227,275.1669,223,271.1669,227,280.1669" style="stroke:#008000;stroke-width:1;"/><path d="M232,232.2969 L232,257.2969 L534,257.2969 L534,242.2969 L524,232.2969 L232,232.2969" fill="#FEFFDD" style="stroke:#181818;stroke-width:0.5;"/><path d="M524,232.2969 L524,242.2969 L534,242.2969 L524,232.2969" fill="#FEFFDD" style="stroke:#181818;stroke-width:0.5;"/><text fill="#000000" font-family="sans-serif" font-size="13" font-weight="bold" lengthAdjust="spacing" textLength="90.251" x="238" y="249.3638">Coordinador</text><text fill="#000000" font-family="sans-serif" font-size="13" lengthAdjust="spacing" textLength="187.4209" x="332.3833" y="249.3638">solicita eliminar recompensa</text></g><!--link ConfirmandoEliminacion to RecompensaEliminada--><g class="link" data-entity-1="ent0004" data-entity-2="ent0005" data-link-type="dependency" data-source-line="19" id="lnk5"><path d="M201.51,311.9569 C149.92,323.4269 38,348.2969 38,348.2969 C38,348.2969 38,413.2969 38,413.2969 C38,413.2969 38.3415,415.6872 39.6615,424.9272" fill="none" id="ConfirmandoEliminacion-to-RecompensaEliminada" style="stroke:#008000;stroke-width:1;"/><polygon fill="#008000" points="40.51,430.8669,43.197,421.3916,39.8029,425.9171,35.2774,422.523,40.51,430.8669" style="stroke:#008000;stroke-width:1;"/><path d="M43,353.2969 L43,408.2969 L399,408.2969 L399,363.2969 L389,353.2969 L43,353.2969" fill="#FEFFDD" style="stroke:#181818;stroke-width:0.5;"/><path d="M389,353.2969 L389,363.2969 L399,363.2969 L389,353.2969" fill="#FEFFDD" style="stroke:#181818;stroke-width:0.5;"/><text fill="#000000" font-family="sans-serif" font-size="13" font-weight="bold" lengthAdjust="spacing" textLength="58.9063" x="49" y="370.3638">Sistema</text><text fill="#000000" font-family="sans-serif" font-size="13" lengthAdjust="spacing" textLength="245.4258" x="112.0386" y="370.3638">presenta confirmaci&#243;n de eliminaci&#243;n</text><text fill="#000000" font-family="sans-serif" font-size="13" font-weight="bold" lengthAdjust="spacing" textLength="90.251" x="49" y="385.4966">Coordinador</text><text fill="#000000" font-family="sans-serif" font-size="13" lengthAdjust="spacing" textLength="191.5405" x="143.3833" y="385.4966">solicita confirmar eliminaci&#243;n</text><text fill="#000000" font-family="sans-serif" font-size="13" font-weight="bold" lengthAdjust="spacing" textLength="58.9063" x="49" y="400.6294">Sistema</text><text fill="#000000" font-family="sans-serif" font-size="13" lengthAdjust="spacing" textLength="272.7271" x="112.0386" y="400.6294">presenta la eliminacion de la recompensa</text></g><!--link ConfirmandoEliminacion to *end*eliminarRecompensa--><g class="link" data-entity-1="ent0004" data-entity-2="ent0006" data-link-type="dependency" data-source-line="26" id="lnk7"><path d="M252.36,312.3169 C301.3,323.9269 404,348.2969 404,348.2969 C404,348.2969 404,534.2969 404,534.2969 C404,534.2969 288.3302,553.3517 250.8102,559.5317" fill="none" id="ConfirmandoEliminacion-to-*end*eliminarRecompensa" style="stroke:#FF0000;stroke-width:1;"/><polygon fill="#FF0000" points="244.89,560.5069,254.4204,562.991,249.8235,559.6943,253.1203,555.0974,244.89,560.5069" style="stroke:#FF0000;stroke-width:1;"/><path d="M409,443.7969 L409,468.7969 L714,468.7969 L714,453.7969 L704,443.7969 L409,443.7969" fill="#FEFFDD" style="stroke:#181818;stroke-width:0.5;"/><path d="M704,443.7969 L704,453.7969 L714,453.7969 L704,443.7969" fill="#FEFFDD" style="stroke:#181818;stroke-width:0.5;"/><text fill="#000000" font-family="sans-serif" font-size="13" font-weight="bold" lengthAdjust="spacing" textLength="90.251" x="415" y="460.8638">Coordinador</text><text fill="#000000" font-family="sans-serif" font-size="13" lengthAdjust="spacing" textLength="189.6362" x="509.3833" y="460.8638">solicita cancelar la operaci&#243;n</text></g><!--link RecompensaEliminada to *end*eliminarRecompensa--><g class="link" data-entity-1="ent0005" data-entity-2="ent0006" data-link-type="dependency" data-source-line="31" id="lnk8"><path d="M50.64,481.6569 C56.8,504.2169 65,534.2969 65,534.2969 C65,534.2969 179.3907,553.2461 216.9907,559.4761" fill="none" id="RecompensaEliminada-to-*end*eliminarRecompensa" style="stroke:#008000;stroke-width:1;"/><polygon fill="#008000" points="222.91,560.4569,214.6849,555.0395,217.9773,559.6396,213.3772,562.9319,222.91,560.4569" style="stroke:#008000;stroke-width:1;"/><path d="M70,504.2969 L70,529.2969 L399,529.2969 L399,514.2969 L389,504.2969 L70,504.2969" fill="#FEFFDD" style="stroke:#181818;stroke-width:0.5;"/><path d="M389,504.2969 L389,514.2969 L399,514.2969 L389,504.2969" fill="#FEFFDD" style="stroke:#181818;stroke-width:0.5;"/><text fill="#000000" font-family="sans-serif" font-size="13" font-weight="bold" lengthAdjust="spacing" textLength="58.9063" x="76" y="521.3638">Sistema</text><text fill="#000000" font-family="sans-serif" font-size="13" lengthAdjust="spacing" textLength="245.4258" x="139.0386" y="521.3638">presenta confirmaci&#243;n de eliminaci&#243;n</text></g><g><rect fill="#F1F1F1" height="50" rx="12.5" ry="12.5" style="stroke:#181818;stroke-width:0.5;" width="202.458" x="263.77" y="679.3"/><line style="stroke:#181818;stroke-width:0.5;" x1="263.77" x2="466.228" y1="705.5969" y2="705.5969"/><text fill="#000000" font-family="sans-serif" font-size="14" lengthAdjust="spacing" textLength="182.458" x="273.77" y="697.2951">RECOMPENSAS_ABIERTAS</text></g><!--link in1 to eliminarRecompensa--><g class="link" data-entity-1="ent0002" data-entity-2="ent0003" data-link-type="dependency" data-source-line="4" id="lnk2"><path d="M365,57.3 C365,79.15 365,107.61 365,145.74" fill="none" id="in1-to-eliminarRecompensa" style="stroke:#008000;stroke-width:1;"/><polygon fill="#008000" points="365,151.74,369,142.74,365,146.74,361,142.74,365,151.74" style="stroke:#008000;stroke-width:1;"/><path d="M370,92 L370,117 L538,117 L538,102 L528,92 L370,92" fill="#FEFFDD" style="stroke:#181818;stroke-width:0.5;"/><path d="M528,92 L528,102 L538,102 L528,92" fill="#FEFFDD" style="stroke:#181818;stroke-width:0.5;"/><text fill="#000000" font-family="sans-serif" font-size="13" lengthAdjust="spacing" textLength="147.2148" x="376" y="109.0669">eliminarRecompensa()</text></g><!--link eliminarRecompensa to RECOMPENSAS_ABIERTAS--><g class="link" data-entity-1="ent0003" data-entity-2="ent0009" data-link-type="dependency" data-source-line="38" id="lnk10"><path d="M365,584.55 C365,622.69 365,651.15 365,673" fill="none" id="eliminarRecompensa-to-RECOMPENSAS_ABIERTAS" style="stroke:#008000;stroke-width:1;"/><polygon fill="#008000" points="365,679,369,670,365,674,361,670,365,679" style="stroke:#008000;stroke-width:1;"/><path d="M370,619.3 L370,644.3 L522,644.3 L522,629.3 L512,619.3 L370,619.3" fill="#FEFFDD" style="stroke:#181818;stroke-width:0.5;"/><path d="M512,619.3 L512,629.3 L522,629.3 L512,619.3" fill="#FEFFDD" style="stroke:#181818;stroke-width:0.5;"/><text fill="#000000" font-family="sans-serif" font-size="13" lengthAdjust="spacing" textLength="131.46" x="376" y="636.3669">abrirRecompensas()</text></g><!--SRC=[dLFBJiCm4BpxAwnm0QGASQyYbIe73ZoKSAigj7KMP3NPZUnSAiHNyGdy67RQFAoQ8XgVrjxPcPtDsgsc1WpKijA4xQv1sN2ryu4GjeKMfQPR2LOcURPyUdZE7el5w-BkFijV5edmRxFLnRj1fFKibLZfMXEO71NN3P85GUngCFdwMt7yVdaba4hfith2uwIEFuPDv8SGqdrxPEAEIrqolMbJ0vMSxK5ACntdZPKEQINigwskrq5R9me6xVcB-IPTCflIbsCplzcaqdAbbMvXw4oQqH-F6HtmKPmj41HJ_fkQGjiMQ-YKD0OjabEY3XnAVt-HB0VJk_ZFFdgqYSAYX1MCkTmnkfipRJ1OUXFSbFu_0WMai7BA7JqtQ2RIG_g8nS48Jh6VQVaWu5E8oAg4Vy2mZKM_ZaMuQx0nUeAsaqtx0G00]--></g></svg>