<svg xmlns="http://www.w3.org/2000/svg" xmlns:xlink="http://www.w3.org/1999/xlink" contentStyleType="text/css" data-diagram-type="STATE" height="780px" preserveAspectRatio="none" style="width:715px;height:780px;background:#FFFFFF;" version="1.1" viewBox="0 0 715 780" width="715px" zoomAndPan="magnify"><defs/><g><g><rect fill="#F1F1F1" height="50" rx="12.5" ry="12.5" style="stroke:#181818;stroke-width:0.5;" width="202.458" x="253.27" y="7"/><line style="stroke:#181818;stroke-width:0.5;" x1="253.27" x2="455.728" y1="33.2969" y2="33.2969"/><text fill="#000000" font-family="sans-serif" font-size="14" lengthAdjust="spacing" textLength="182.458" x="263.27" y="24.9951">RECOMPENSAS_ABIERTAS</text></g><path d="M19.5,152 L689.5,152 A12.5,12.5 0 0 1 702,164.5 L702,178.2969 L7,178.2969 L7,164.5 A12.5,12.5 0 0 1 19.5,152" fill="#F1F1F1"/><rect fill="none" height="477.2969" rx="12.5" ry="12.5" style="stroke:#181818;stroke-width:0.5;" width="695" x="7" y="152"/><line style="stroke:#181818;stroke-width:0.5;" x1="7" x2="702" y1="178.2969" y2="178.2969"/><text fill="#000000" font-family="sans-serif" font-size="14" lengthAdjust="spacing" textLength="137.8125" x="285.5938" y="169.9951">crearRecompensa()</text><g><rect fill="#F1F1F1" height="50" rx="12.5" ry="12.5" style="stroke:#181818;stroke-width:0.5;" width="50" x="192" y="280.2969"/><line style="stroke:#181818;stroke-width:0.5;" x1="192" x2="242" y1="306.5938" y2="306.5938"/><text fill="#000000" font-family="sans-serif" font-size="14" lengthAdjust="spacing" textLength="4.4502" x="214.7749" y="298.292">&#160;</text></g><g><rect fill="#F1F1F1" height="50" rx="12.5" ry="12.5" style="stroke:#181818;stroke-width:0.5;" width="50" x="19" y="476.2969"/><line style="stroke:#181818;stroke-width:0.5;" x1="19" x2="69" y1="502.5938" y2="502.5938"/><text fill="#000000" font-family="sans-serif" font-size="14" lengthAdjust="spacing" textLength="4.4502" x="41.7749" y="494.292">&#160;</text></g><ellipse cx="217" cy="199.2969" fill="#222222" rx="10" ry="10" style="stroke:#222222;stroke-width:1;"/><ellipse cx="223" cy="608.2969" fill="none" rx="11" ry="11" style="stroke:#222222;stroke-width:1;"/><ellipse cx="223" cy="608.2969" fill="#222222" rx="6" ry="6" style="stroke:#222222;stroke-width:1;"/><!--link *start*crearRecompensa to IntroduciendoDatos--><g class="link" data-entity-1="ent0003" data-entity-2="ent0004" data-link-type="dependency" data-source-line="14" id="lnk4"><path d="M217,209.5269 C217,225.2369 217,251.6569 217,274.1669" fill="none" id="*start*crearRecompensa-to-IntroduciendoDatos" style="stroke:#008000;stroke-width:1;"/><polygon fill="#008000" points="217,280.1669,221,271.1669,217,275.1669,213,271.1669,217,280.1669" style="stroke:#008000;stroke-width:1;"/><path d="M222,232.2969 L222,257.2969 L505,257.2969 L505,242.2969 L495,232.2969 L222,232.2969" fill="#FEFFDD" style="stroke:#181818;stroke-width:0.5;"/><path d="M495,232.2969 L495,242.2969 L505,242.2969 L495,232.2969" fill="#FEFFDD" style="stroke:#181818;stroke-width:0.5;"/><text fill="#000000" font-family="sans-serif" font-size="13" font-weight="bold" lengthAdjust="spacing" textLength="90.251" x="228" y="249.3638">Coordinador</text><text fill="#000000" font-family="sans-serif" font-size="13" lengthAdjust="spacing" textLength="168.1748" x="322.3833" y="249.3638">solicita crear recompensa</text></g><!--link IntroduciendoDatos to RecompensaCreada--><g class="link" data-entity-1="ent0004" data-entity-2="ent0005" data-link-type="dependency" data-source-line="19" id="lnk5"><path d="M191.87,312.2269 C142.81,323.8069 39,348.2969 39,348.2969 C39,348.2969 39,458.2969 39,458.2969 C39,458.2969 39.2807,460.6689 40.3807,469.9089" fill="none" id="IntroduciendoDatos-to-RecompensaCreada" style="stroke:#008000;stroke-width:1;"/><polygon fill="#008000" points="41.09,475.8669,43.998,466.4571,40.4989,470.9019,36.0541,467.4028,41.09,475.8669" style="stroke:#008000;stroke-width:1;"/><path d="M44,353.2969 L44,453.2969 L378,453.2969 L378,363.2969 L368,353.2969 L44,353.2969" fill="#FEFFDD" style="stroke:#181818;stroke-width:0.5;"/><path d="M368,353.2969 L368,363.2969 L378,363.2969 L368,353.2969" fill="#FEFFDD" style="stroke:#181818;stroke-width:0.5;"/><text fill="#000000" font-family="sans-serif" font-size="13" font-weight="bold" lengthAdjust="spacing" textLength="58.9063" x="50" y="370.3638">Sistema</text><text fill="#000000" font-family="sans-serif" font-size="13" lengthAdjust="spacing" textLength="233.9175" x="113.0386" y="370.3638">presenta formulario de recompensa</text><text fill="#000000" font-family="sans-serif" font-size="13" font-weight="bold" lengthAdjust="spacing" textLength="58.9063" x="50" y="385.4966">Sistema</text><text fill="#000000" font-family="sans-serif" font-size="13" lengthAdjust="spacing" textLength="158.1138" x="113.0386" y="385.4966">permite introducir datos</text><text fill="#000000" font-family="sans-serif" font-size="13" lengthAdjust="spacing" textLength="39.5586" x="50" y="400.6294">&#8226; Tipo</text><text fill="#000000" font-family="sans-serif" font-size="13" lengthAdjust="spacing" textLength="70.2622" x="50" y="415.7622">&#8226; Cantidad</text><text fill="#000000" font-family="sans-serif" font-size="13" font-weight="bold" lengthAdjust="spacing" textLength="90.251" x="50" y="430.895">Coordinador</text><text fill="#000000" font-family="sans-serif" font-size="13" lengthAdjust="spacing" textLength="219.2861" x="144.3833" y="430.895">introduce datos y solicita guardar</text><text fill="#000000" font-family="sans-serif" font-size="13" font-weight="bold" lengthAdjust="spacing" textLength="58.9063" x="50" y="446.0278">Sistema</text><text fill="#000000" font-family="sans-serif" font-size="13" lengthAdjust="spacing" textLength="248.479" x="113.0386" y="446.0278">presenta el registro de la recompensa</text></g><!--link IntroduciendoDatos to *end*crearRecompensa--><g class="link" data-entity-1="ent0004" data-entity-2="ent0006" data-link-type="dependency" data-source-line="29" id="lnk7"><path d="M242.21,312.6769 C288.65,324.4269 383,348.2969 383,348.2969 C383,348.2969 383,579.2969 383,579.2969 C383,579.2969 276.0601,598.012 239.9101,604.342" fill="none" id="IntroduciendoDatos-to-*end*crearRecompensa" style="stroke:#FF0000;stroke-width:1;"/><polygon fill="#FF0000" points="234,605.3769,243.555,607.7646,238.9251,604.5145,242.1752,599.8845,234,605.3769" style="stroke:#FF0000;stroke-width:1;"/><path d="M388,488.7969 L388,513.7969 L693,513.7969 L693,498.7969 L683,488.7969 L388,488.7969" fill="#FEFFDD" style="stroke:#181818;stroke-width:0.5;"/><path d="M683,488.7969 L683,498.7969 L693,498.7969 L683,488.7969" fill="#FEFFDD" style="stroke:#181818;stroke-width:0.5;"/><text fill="#000000" font-family="sans-serif" font-size="13" font-weight="bold" lengthAdjust="spacing" textLength="90.251" x="394" y="505.8638">Coordinador</text><text fill="#000000" font-family="sans-serif" font-size="13" lengthAdjust="spacing" textLength="189.6362" x="488.3833" y="505.8638">solicita cancelar la operaci&#243;n</text></g><!--link RecompensaCreada to *end*crearRecompensa--><g class="link" data-entity-1="ent0005" data-entity-2="ent0006" data-link-type="dependency" data-source-line="34" id="lnk8"><path d="M50.01,526.6569 C55.58,549.2169 63,579.2969 63,579.2969 C63,579.2969 169.9399,598.012 206.0899,604.342" fill="none" id="RecompensaCreada-to-*end*crearRecompensa" style="stroke:#008000;stroke-width:1;"/><polygon fill="#008000" points="212,605.3769,203.8248,599.8845,207.0749,604.5145,202.445,607.7646,212,605.3769" style="stroke:#008000;stroke-width:1;"/><path d="M68,549.2969 L68,574.2969 L378,574.2969 L378,559.2969 L368,549.2969 L68,549.2969" fill="#FEFFDD" style="stroke:#181818;stroke-width:0.5;"/><path d="M368,549.2969 L368,559.2969 L378,559.2969 L368,549.2969" fill="#FEFFDD" style="stroke:#181818;stroke-width:0.5;"/><text fill="#000000" font-family="sans-serif" font-size="13" font-weight="bold" lengthAdjust="spacing" textLength="58.9063" x="74" y="566.3638">Sistema</text><text fill="#000000" font-family="sans-serif" font-size="13" lengthAdjust="spacing" textLength="226.1797" x="137.0386" y="566.3638">presenta confirmaci&#243;n de creaci&#243;n</text></g><g><rect fill="#F1F1F1" height="50" rx="12.5" ry="12.5" style="stroke:#181818;stroke-width:0.5;" width="184.6846" x="262.16" y="724.3"/><line style="stroke:#181818;stroke-width:0.5;" x1="262.16" x2="446.8446" y1="750.5969" y2="750.5969"/><text fill="#000000" font-family="sans-serif" font-size="14" lengthAdjust="spacing" textLength="164.6846" x="272.16" y="742.2951">RECOMPENSA_ABIERTA</text></g><!--link in1 to crearRecompensa--><g class="link" data-entity-1="ent0002" data-entity-2="ent0003" data-link-type="dependency" data-source-line="4" id="lnk2"><path d="M354.5,57.24 C354.5,78.95 354.5,107.24 354.5,145.72" fill="none" id="in1-to-crearRecompensa" style="stroke:#008000;stroke-width:1;"/><polygon fill="#008000" points="354.5,151.72,358.5,142.72,354.5,146.72,350.5,142.72,354.5,151.72" style="stroke:#008000;stroke-width:1;"/><path d="M359.5,92 L359.5,117 L507.5,117 L507.5,102 L497.5,92 L359.5,92" fill="#FEFFDD" style="stroke:#181818;stroke-width:0.5;"/><path d="M497.5,92 L497.5,102 L507.5,102 L497.5,92" fill="#FEFFDD" style="stroke:#181818;stroke-width:0.5;"/><text fill="#000000" font-family="sans-serif" font-size="13" lengthAdjust="spacing" textLength="127.9688" x="365.5" y="109.0669">crearRecompensa()</text></g><!--link crearRecompensa to RECOMPENSA_ABIERTA--><g class="link" data-entity-1="ent0003" data-entity-2="ent0009" data-link-type="dependency" data-source-line="40" id="lnk10"><path d="M354.5,629.54 C354.5,668.13 354.5,696.51 354.5,718.23" fill="none" id="crearRecompensa-to-RECOMPENSA_ABIERTA" style="stroke:#008000;stroke-width:1;"/><polygon fill="#008000" points="354.5,724.23,358.5,715.23,354.5,719.23,350.5,715.23,354.5,724.23" style="stroke:#008000;stroke-width:1;"/><path d="M359.5,664.3 L359.5,689.3 L504.5,689.3 L504.5,674.3 L494.5,664.3 L359.5,664.3" fill="#FEFFDD" style="stroke:#181818;stroke-width:0.5;"/><path d="M494.5,664.3 L494.5,674.3 L504.5,674.3 L494.5,664.3" fill="#FEFFDD" style="stroke:#181818;stroke-width:0.5;"/><text fill="#000000" font-family="sans-serif" font-size="13" lengthAdjust="spacing" textLength="124.687" x="365.5" y="681.3669">abrirRecompensa()</text></g><!--SRC=[dLDBRi8m4Dtx55QwQIkXgdk4H5CMBFeHOOTGDSG3iaWyqTWiK5MfP-aLUeJUf2UfdHIYV611id8yytwJiLjj2c38PQODkds1ig1i7mv2M0SEfJRt4goCPfFuvUbryfoCaxVnmtGocu-JI8JRmU9gmuXcEHZ9b15uXYdb1HeBmf2781FWjw9rUNqZq2WPIWvahOgIkDCLoNSXf7-gdiY_lcvg79FQfTfZqYCuijsQ6YNse0egcCNjik7X15B3IlWmN8rY8bRQW28Utgr6qbAcK-sWCYAv3Y8qr6x3gKlJKD7HUaf3egt374h-Wj6YyVnhudoN0MkI2jiwsat8kIud_I-8fJgw_ltyadDTqF4GWt5QWJeLmG45An2vhqFPx80Ly5dXc7cr6t_3fV8CBWcHKOK8_M0lc1oO57roWPfyD93gds_JGzqUK6DwvwXxVQTarfhpYYqu3tzG3_M7QAzHywyvRkbXIPih22lM_Ilu1m00]--></g></svg>