<svg xmlns="http://www.w3.org/2000/svg" xmlns:xlink="http://www.w3.org/1999/xlink" contentStyleType="text/css" data-diagram-type="STATE" height="1064px" preserveAspectRatio="none" style="width:2382px;height:1064px;background:#FFFFFF;" version="1.1" viewBox="0 0 2382 1064" width="2382px" zoomAndPan="magnify"><title>Diagrama de contexto de un investigador</title><defs/><g><g class="title" data-source-line="1"><text fill="#000000" font-family="sans-serif" font-size="14" font-weight="bold" lengthAdjust="spacing" textLength="328.248" x="1020.041" y="22.9951">Diagrama de contexto de un investigador</text></g><ellipse cx="16" cy="415.2969" fill="#222222" rx="10" ry="10" style="stroke:#222222;stroke-width:1;"/><g><rect fill="#F1F1F1" height="50" rx="12.5" ry="12.5" style="stroke:#181818;stroke-width:0.5;" width="147.251" x="87" y="390.2969"/><line style="stroke:#181818;stroke-width:0.5;" x1="87" x2="234.251" y1="416.5938" y2="416.5938"/><text fill="#000000" font-family="sans-serif" font-size="14" lengthAdjust="spacing" textLength="127.251" x="97" y="408.292">SESION_CERRADA</text></g><g><rect fill="#F1F1F1" height="50" rx="12.5" ry="12.5" style="stroke:#181818;stroke-width:0.5;" width="213.0879" x="388.25" y="447.2969"/><line style="stroke:#181818;stroke-width:0.5;" x1="388.25" x2="601.3379" y1="473.5938" y2="473.5938"/><text fill="#000000" font-family="sans-serif" font-size="14" lengthAdjust="spacing" textLength="193.0879" x="398.25" y="465.292">PANEL_PRINCIPAL_ABIERTO</text></g><g><rect fill="#F1F1F1" height="50" rx="12.5" ry="12.5" style="stroke:#181818;stroke-width:0.5;" width="215.043" x="890.91" y="105.2969"/><line style="stroke:#181818;stroke-width:0.5;" x1="890.91" x2="1105.953" y1="131.5938" y2="131.5938"/><text fill="#000000" font-family="sans-serif" font-size="14" lengthAdjust="spacing" textLength="195.043" x="900.91" y="123.292">OPCIONES_PERFIL_ABIERTO</text></g><g><rect fill="#F1F1F1" height="50" rx="12.5" ry="12.5" style="stroke:#181818;stroke-width:0.5;" width="294.1826" x="851.34" y="241.2969"/><line style="stroke:#181818;stroke-width:0.5;" x1="851.34" x2="1145.5226" y1="267.5938" y2="267.5938"/><text fill="#000000" font-family="sans-serif" font-size="14" lengthAdjust="spacing" textLength="274.1826" x="861.34" y="259.292">OPCIONES_CARGA_TRABAJO_ABIERTAS</text></g><g><rect fill="#F1F1F1" height="50" rx="12.5" ry="12.5" style="stroke:#181818;stroke-width:0.5;" width="182.1621" x="907.35" y="844.2969"/><line style="stroke:#181818;stroke-width:0.5;" x1="907.35" x2="1089.5121" y1="870.5938" y2="870.5938"/><text fill="#000000" font-family="sans-serif" font-size="14" lengthAdjust="spacing" textLength="162.1621" x="917.35" y="862.292">PROYECTOS_ABIERTOS</text></g><g><rect fill="#F1F1F1" height="50" rx="12.5" ry="12.5" style="stroke:#181818;stroke-width:0.5;" width="221.6191" x="1760.71" y="740.2969"/><line style="stroke:#181818;stroke-width:0.5;" x1="1760.71" x2="1982.3291" y1="766.5938" y2="766.5938"/><text fill="#000000" font-family="sans-serif" font-size="14" lengthAdjust="spacing" textLength="201.6191" x="1770.71" y="758.292">INVESTIGADORES_ABIERTOS</text></g><g><rect fill="#F1F1F1" height="50" rx="12.5" ry="12.5" style="stroke:#181818;stroke-width:0.5;" width="240.6982" x="878.08" y="448.2969"/><line style="stroke:#181818;stroke-width:0.5;" x1="878.08" x2="1118.7782" y1="474.5938" y2="474.5938"/><text fill="#000000" font-family="sans-serif" font-size="14" lengthAdjust="spacing" textLength="220.6982" x="888.08" y="466.292">MIS_PUBLICACIONES_ABIERTAS</text></g><g><rect fill="#F1F1F1" height="50" rx="12.5" ry="12.5" style="stroke:#181818;stroke-width:0.5;" width="208.6035" x="894.13" y="580.2969"/><line style="stroke:#181818;stroke-width:0.5;" x1="894.13" x2="1102.7335" y1="606.5938" y2="606.5938"/><text fill="#000000" font-family="sans-serif" font-size="14" lengthAdjust="spacing" textLength="188.6035" x="904.13" y="598.292">PUBLICACIONES_ABIERTAS</text></g><g><rect fill="#F1F1F1" height="50" rx="12.5" ry="12.5" style="stroke:#181818;stroke-width:0.5;" width="202.458" x="897.2" y="330.2969"/><line style="stroke:#181818;stroke-width:0.5;" x1="897.2" x2="1099.658" y1="356.5938" y2="356.5938"/><text fill="#000000" font-family="sans-serif" font-size="14" lengthAdjust="spacing" textLength="182.458" x="907.2" y="348.292">RECOMPENSAS_ABIERTAS</text></g><g><rect fill="#F1F1F1" height="50" rx="12.5" ry="12.5" style="stroke:#181818;stroke-width:0.5;" width="181.9844" x="1369.13" y="575.2969"/><line style="stroke:#181818;stroke-width:0.5;" x1="1369.13" x2="1551.1144" y1="601.5938" y2="601.5938"/><text fill="#000000" font-family="sans-serif" font-size="14" lengthAdjust="spacing" textLength="161.9844" x="1379.13" y="593.292">PUBLICACION_ABIERTA</text></g><g><rect fill="#F1F1F1" height="50" rx="12.5" ry="12.5" style="stroke:#181818;stroke-width:0.5;" width="205.1924" x="1357.52" y="435.2969"/><line style="stroke:#181818;stroke-width:0.5;" x1="1357.52" x2="1562.7124" y1="461.5938" y2="461.5938"/><text fill="#000000" font-family="sans-serif" font-size="14" lengthAdjust="spacing" textLength="185.1924" x="1367.52" y="453.292">MI_PUBLICACION_ABIERTA</text></g><g><rect fill="#F1F1F1" height="50" rx="12.5" ry="12.5" style="stroke:#181818;stroke-width:0.5;" width="164.3887" x="1377.92" y="915.2969"/><line style="stroke:#181818;stroke-width:0.5;" x1="1377.92" x2="1542.3087" y1="941.5938" y2="941.5938"/><text fill="#000000" font-family="sans-serif" font-size="14" lengthAdjust="spacing" textLength="144.3887" x="1387.92" y="933.292">PROYECTO_ABIERTO</text></g><g><rect fill="#F1F1F1" height="50" rx="12.5" ry="12.5" style="stroke:#181818;stroke-width:0.5;" width="184.6846" x="1367.78" y="249.2969"/><line style="stroke:#181818;stroke-width:0.5;" x1="1367.78" x2="1552.4646" y1="275.5938" y2="275.5938"/><text fill="#000000" font-family="sans-serif" font-size="14" lengthAdjust="spacing" textLength="164.6846" x="1377.78" y="267.292">RECOMPENSA_ABIERTA</text></g><g><rect fill="#F1F1F1" height="50" rx="12.5" ry="12.5" style="stroke:#181818;stroke-width:0.5;" width="199.3477" x="1771.85" y="970.2969"/><line style="stroke:#181818;stroke-width:0.5;" x1="1771.85" x2="1971.1977" y1="996.5938" y2="996.5938"/><text fill="#000000" font-family="sans-serif" font-size="14" lengthAdjust="spacing" textLength="179.3477" x="1781.85" y="988.292">ENTREGABLES_ABIERTOS</text></g><g><rect fill="#F1F1F1" height="50" rx="12.5" ry="12.5" style="stroke:#181818;stroke-width:0.5;" width="181.5742" x="2187.05" y="961.2969"/><line style="stroke:#181818;stroke-width:0.5;" x1="2187.05" x2="2368.6242" y1="987.5938" y2="987.5938"/><text fill="#000000" font-family="sans-serif" font-size="14" lengthAdjust="spacing" textLength="161.5742" x="2197.05" y="979.292">ENTREGABLE_ABIERTO</text></g><g><rect fill="#F1F1F1" height="50" rx="12.5" ry="12.5" style="stroke:#181818;stroke-width:0.5;" width="195" x="2180.33" y="760.2969"/><line style="stroke:#181818;stroke-width:0.5;" x1="2180.33" x2="2375.33" y1="786.5938" y2="786.5938"/><text fill="#000000" font-family="sans-serif" font-size="14" lengthAdjust="spacing" textLength="175" x="2190.33" y="778.292">INVESTIGADOR_ABIERTO</text></g><!--link *start* to SESION_CERRADA--><g class="link" data-entity-1="ent0002" data-entity-2="ent0003" data-link-type="dependency" data-source-line="5" id="lnk4"><path d="M26.36,415.2969 C39,415.2969 56.73,415.2969 80.69,415.2969" fill="none" id="*start*-to-SESION_CERRADA" style="stroke:#181818;stroke-width:1;"/><polygon fill="#181818" points="86.69,415.2969,77.69,411.2969,81.69,415.2969,77.69,419.2969,86.69,415.2969" style="stroke:#181818;stroke-width:1;"/></g><!--link SESION_CERRADA to PANEL_PRINCIPAL_ABIERTO--><g class="link" data-entity-1="ent0003" data-entity-2="ent0005" data-link-type="dependency" data-source-line="6" id="lnk6"><path d="M194.72,440.7369 C213.9,453.8569 239.15,468.4969 264.25,475.2969 C303.78,486.0069 342.5569,487.924 382.0069,486.034" fill="none" id="SESION_CERRADA-to-PANEL_PRINCIPAL_ABIERTO" style="stroke:#181818;stroke-width:1;"/><polygon fill="#181818" points="388,485.7469,378.8189,482.1821,383.0057,485.9861,379.2017,490.173,388,485.7469" style="stroke:#181818;stroke-width:1;"/><text fill="#000000" font-family="sans-serif" font-size="13" lengthAdjust="spacing" textLength="92.5044" x="265.25" y="471.3638">iniciarSesion()</text></g><!--link PANEL_PRINCIPAL_ABIERTO to SESION_CERRADA--><g class="link" data-entity-1="ent0005" data-entity-2="ent0003" data-link-type="dependency" data-source-line="7" id="lnk7"><path d="M387.97,454.1369 C337.95,445.5569 285.4135,436.5418 240.4335,428.8218" fill="none" id="PANEL_PRINCIPAL_ABIERTO-to-SESION_CERRADA" style="stroke:#181818;stroke-width:1;"/><polygon fill="#181818" points="234.52,427.8069,242.7137,433.2717,239.4479,428.6527,244.0669,425.3869,234.52,427.8069" style="stroke:#181818;stroke-width:1;"/><text fill="#000000" font-family="sans-serif" font-size="13" lengthAdjust="spacing" textLength="92.1172" x="265.25" y="429.3638">cerrarSesion()</text></g><!--link PANEL_PRINCIPAL_ABIERTO to OPCIONES_PERFIL_ABIERTO--><g class="link" data-entity-1="ent0005" data-entity-2="ent0008" data-link-type="dependency" data-source-line="9" id="lnk9"><path d="M498.71,447.1169 C507.06,387.5469 536.92,237.8769 631.34,169.2969 C652.06,154.2469 784.3025,143.1435 884.8025,136.6535" fill="none" id="PANEL_PRINCIPAL_ABIERTO-to-OPCIONES_PERFIL_ABIERTO" style="stroke:#181818;stroke-width:1;"/><polygon fill="#181818" points="890.79,136.2669,881.5509,132.8552,885.8004,136.5891,882.0665,140.8385,890.79,136.2669" style="stroke:#181818;stroke-width:1;"/><text fill="#000000" font-family="sans-serif" font-size="13" lengthAdjust="spacing" textLength="133.853" x="659.84" y="137.3638">abrirOpcionesPerfil()</text></g><!--link OPCIONES_PERFIL_ABIERTO to PANEL_PRINCIPAL_ABIERTO--><g class="link" data-entity-1="ent0008" data-entity-2="ent0005" data-link-type="dependency" data-source-line="21" id="lnk24"><path d="M914.78,155.7769 C893.87,162.8369 871.6,170.8869 851.34,179.2969 C837.57,185.0169 835.41,189.3869 821.34,194.2969 C739.86,222.7169 701.05,183.4369 631.34,234.2969 C556.62,288.8069 518.9085,392.1253 504.2785,441.3753" fill="none" id="OPCIONES_PERFIL_ABIERTO-to-PANEL_PRINCIPAL_ABIERTO" style="stroke:#181818;stroke-width:1;"/><polygon fill="#181818" points="502.57,447.1269,508.9672,439.6385,503.9938,442.3339,501.2984,437.3604,502.57,447.1269" style="stroke:#181818;stroke-width:1;"/><text fill="#000000" font-family="sans-serif" font-size="13" lengthAdjust="spacing" textLength="131.9424" x="660.84" y="190.3638">abrirPanelPrincipal()</text></g><!--link PANEL_PRINCIPAL_ABIERTO to OPCIONES_CARGA_TRABAJO_ABIERTAS--><g class="link" data-entity-1="ent0005" data-entity-2="ent0010" data-link-type="dependency" data-source-line="10" id="lnk11"><path d="M514.22,446.8769 C537.77,416.4069 581.51,366.2169 631.34,340.2969 C707.59,300.6369 737.1,321.3669 821.34,304.2969 C840.8,300.3569 855.5819,297.2778 875.6119,293.0078" fill="none" id="PANEL_PRINCIPAL_ABIERTO-to-OPCIONES_CARGA_TRABAJO_ABIERTAS" style="stroke:#181818;stroke-width:1;"/><polygon fill="#181818" points="881.48,291.7569,871.8438,289.7212,876.5899,292.7994,873.5118,297.5454,881.48,291.7569" style="stroke:#181818;stroke-width:1;"/><text fill="#000000" font-family="sans-serif" font-size="13" lengthAdjust="spacing" textLength="188.5127" x="632.34" y="300.3638">abrirOpcionesCargaTrabajo()</text></g><!--link OPCIONES_CARGA_TRABAJO_ABIERTAS to PANEL_PRINCIPAL_ABIERTO--><g class="link" data-entity-1="ent0010" data-entity-2="ent0005" data-link-type="dependency" data-source-line="24" id="lnk26"><path d="M850.85,260.3169 C765.88,259.3069 668.52,263.1069 631.34,283.2969 C564.63,319.5269 525.0835,398.9284 507.5635,441.4984" fill="none" id="OPCIONES_CARGA_TRABAJO_ABIERTAS-to-PANEL_PRINCIPAL_ABIERTO" style="stroke:#181818;stroke-width:1;"/><polygon fill="#181818" points="505.28,447.0469,512.4043,440.2465,507.1829,442.4231,505.0063,437.2018,505.28,447.0469" style="stroke:#181818;stroke-width:1;"/><text fill="#000000" font-family="sans-serif" font-size="13" lengthAdjust="spacing" textLength="131.9424" x="660.84" y="255.3638">abrirPanelPrincipal()</text></g><!--link PANEL_PRINCIPAL_ABIERTO to PROYECTOS_ABIERTOS--><g class="link" data-entity-1="ent0005" data-entity-2="ent0012" data-link-type="dependency" data-source-line="11" id="lnk13"><path d="M495.23,497.7069 C495.16,570.8869 506.2,782.5769 631.34,872.2969 C714.63,932.0169 832.4283,916.8081 912.5183,896.2581" fill="none" id="PANEL_PRINCIPAL_ABIERTO-to-PROYECTOS_ABIERTOS" style="stroke:#181818;stroke-width:1;"/><polygon fill="#181818" points="918.33,894.7669,908.6183,893.1292,913.4869,896.0096,910.6065,900.8782,918.33,894.7669" style="stroke:#181818;stroke-width:1;"/><text fill="#000000" font-family="sans-serif" font-size="13" lengthAdjust="spacing" textLength="104.4634" x="674.34" y="868.3638">abrirProyectos()</text></g><!--link PROYECTOS_ABIERTOS to PANEL_PRINCIPAL_ABIERTO--><g class="link" data-entity-1="ent0012" data-entity-2="ent0005" data-link-type="dependency" data-source-line="39" id="lnk41"><path d="M907.14,860.7169 C805.79,850.3469 652.64,832.1869 631.34,815.2969 C528.24,733.5369 503.8593,567.9926 498.0393,503.5026" fill="none" id="PROYECTOS_ABIERTOS-to-PANEL_PRINCIPAL_ABIERTO" style="stroke:#181818;stroke-width:1;"/><polygon fill="#181818" points="497.5,497.5269,494.3251,506.85,497.9494,502.5066,502.2927,506.1309,497.5,497.5269" style="stroke:#181818;stroke-width:1;"/><text fill="#000000" font-family="sans-serif" font-size="13" lengthAdjust="spacing" textLength="131.9424" x="660.84" y="811.3638">abrirPanelPrincipal()</text></g><!--link PANEL_PRINCIPAL_ABIERTO to INVESTIGADORES_ABIERTOS--><g class="link" data-entity-1="ent0005" data-entity-2="ent0014" data-link-type="dependency" data-source-line="12" id="lnk15"><path d="M500.75,497.7569 C512.62,551.0169 548.1,673.6669 631.34,727.2969 C815.78,846.1269 1486.4035,800.3176 1754.2835,776.5276" fill="none" id="PANEL_PRINCIPAL_ABIERTO-to-INVESTIGADORES_ABIERTOS" style="stroke:#181818;stroke-width:1;"/><polygon fill="#181818" points="1760.26,775.9969,1750.9414,772.8087,1755.2796,776.4392,1751.6491,780.7773,1760.26,775.9969" style="stroke:#181818;stroke-width:1;"/><text fill="#000000" font-family="sans-serif" font-size="13" lengthAdjust="spacing" textLength="136.4492" x="1183.52" y="798.3638">abrirInvestigadores()</text></g><!--link INVESTIGADORES_ABIERTOS to PANEL_PRINCIPAL_ABIERTO--><g class="link" data-entity-1="ent0014" data-entity-2="ent0005" data-link-type="dependency" data-source-line="58" id="lnk59"><path d="M1760.23,758.5969 C1475.25,740.5969 729.73,689.0269 631.34,636.2969 C572.08,604.5469 531.4143,540.3299 511.2143,502.8099" fill="none" id="INVESTIGADORES_ABIERTOS-to-PANEL_PRINCIPAL_ABIERTO" style="stroke:#181818;stroke-width:1;"/><polygon fill="#181818" points="508.37,497.5269,509.1144,507.3476,510.7402,501.9294,516.1584,503.5552,508.37,497.5269" style="stroke:#181818;stroke-width:1;"/><text fill="#000000" font-family="sans-serif" font-size="13" lengthAdjust="spacing" textLength="131.9424" x="1186.02" y="711.3638">abrirPanelPrincipal()</text></g><!--link PANEL_PRINCIPAL_ABIERTO to MIS_PUBLICACIONES_ABIERTAS--><g class="link" data-entity-1="ent0005" data-entity-2="ent0016" data-link-type="dependency" data-source-line="13" id="lnk17"><path d="M601.6,474.8669 C611.65,475.0369 621.69,475.1869 631.34,475.2969 C713.64,476.2069 800.3603,475.7489 871.8903,475.0089" fill="none" id="PANEL_PRINCIPAL_ABIERTO-to-MIS_PUBLICACIONES_ABIERTAS" style="stroke:#181818;stroke-width:1;"/><polygon fill="#181818" points="877.89,474.9469,868.8491,471.0402,872.8903,474.9986,868.9319,479.0398,877.89,474.9469" style="stroke:#181818;stroke-width:1;"/><text fill="#000000" font-family="sans-serif" font-size="13" lengthAdjust="spacing" textLength="150.6553" x="651.34" y="471.3638">abrirMisPublicaciones()</text></g><!--link MIS_PUBLICACIONES_ABIERTAS to PANEL_PRINCIPAL_ABIERTO--><g class="link" data-entity-1="ent0016" data-entity-2="ent0005" data-link-type="dependency" data-source-line="35" id="lnk37"><path d="M877.89,494.1269 C859.02,496.6969 839.69,498.8969 821.34,500.2969 C737.14,506.7169 715.35,508.8869 631.34,500.2969 C621.66,499.3069 617.5737,498.8806 607.5737,497.2706" fill="none" id="MIS_PUBLICACIONES_ABIERTAS-to-PANEL_PRINCIPAL_ABIERTO" style="stroke:#181818;stroke-width:1;"/><polygon fill="#181818" points="601.65,496.3169,609.8998,501.6966,606.5864,497.1116,611.1714,493.7983,601.65,496.3169" style="stroke:#181818;stroke-width:1;"/><text fill="#000000" font-family="sans-serif" font-size="13" lengthAdjust="spacing" textLength="131.9424" x="660.84" y="496.3638">abrirPanelPrincipal()</text></g><!--link PANEL_PRINCIPAL_ABIERTO to PUBLICACIONES_ABIERTAS--><g class="link" data-entity-1="ent0005" data-entity-2="ent0018" data-link-type="dependency" data-source-line="14" id="lnk19"><path d="M548.29,497.7069 C573.04,508.9169 603.25,521.5069 631.34,530.2969 C718.18,557.4669 813.833,576.3826 887.923,588.8326" fill="none" id="PANEL_PRINCIPAL_ABIERTO-to-PUBLICACIONES_ABIERTAS" style="stroke:#181818;stroke-width:1;"/><polygon fill="#181818" points="893.84,589.8269,885.6273,584.3907,888.9091,588.9983,884.3016,592.2801,893.84,589.8269" style="stroke:#181818;stroke-width:1;"/><text fill="#000000" font-family="sans-serif" font-size="13" lengthAdjust="spacing" textLength="129.0542" x="661.84" y="526.3638">abrirPublicaciones()</text></g><!--link PUBLICACIONES_ABIERTAS to PANEL_PRINCIPAL_ABIERTO--><g class="link" data-entity-1="ent0018" data-entity-2="ent0005" data-link-type="dependency" data-source-line="29" id="lnk31"><path d="M893.66,623.4269 C818.11,632.0469 714.84,634.1569 631.34,600.2969 C579.6,579.3169 539.6102,533.319 516.7102,502.389" fill="none" id="PUBLICACIONES_ABIERTAS-to-PANEL_PRINCIPAL_ABIERTO" style="stroke:#181818;stroke-width:1;"/><polygon fill="#181818" points="513.14,497.5669,515.2806,507.1803,516.1152,501.5854,521.7102,502.42,513.14,497.5669" style="stroke:#181818;stroke-width:1;"/><text fill="#000000" font-family="sans-serif" font-size="13" lengthAdjust="spacing" textLength="131.9424" x="660.84" y="596.3638">abrirPanelPrincipal()</text></g><!--link PANEL_PRINCIPAL_ABIERTO to RECOMPENSAS_ABIERTAS--><g class="link" data-entity-1="ent0005" data-entity-2="ent0020" data-link-type="dependency" data-source-line="15" id="lnk21"><path d="M532.26,446.9469 C558.57,429.9769 595.61,408.7369 631.34,397.2969 C718.31,369.4569 816.1257,359.8688 890.9557,356.5988" fill="none" id="PANEL_PRINCIPAL_ABIERTO-to-RECOMPENSAS_ABIERTAS" style="stroke:#181818;stroke-width:1;"/><polygon fill="#181818" points="896.95,356.3369,887.784,352.7336,891.9548,356.5552,888.1332,360.726,896.95,356.3369" style="stroke:#181818;stroke-width:1;"/><text fill="#000000" font-family="sans-serif" font-size="13" lengthAdjust="spacing" textLength="131.46" x="660.84" y="357.3638">abrirRecompensas()</text></g><!--link RECOMPENSAS_ABIERTAS to PANEL_PRINCIPAL_ABIERTO--><g class="link" data-entity-1="ent0020" data-entity-2="ent0005" data-link-type="dependency" data-source-line="43" id="lnk45"><path d="M939.75,380.7869 C905.84,394.8669 861.82,411.6169 821.34,422.2969 C800.23,427.8669 694.3479,443.736 607.5779,456.316" fill="none" id="RECOMPENSAS_ABIERTAS-to-PANEL_PRINCIPAL_ABIERTO" style="stroke:#181818;stroke-width:1;"/><polygon fill="#181818" points="601.64,457.1769,611.1208,459.8442,606.5883,456.4595,609.973,451.9269,601.64,457.1769" style="stroke:#181818;stroke-width:1;"/><text fill="#000000" font-family="sans-serif" font-size="13" lengthAdjust="spacing" textLength="131.9424" x="660.84" y="418.3638">abrirPanelPrincipal()</text></g><!--link OPCIONES_PERFIL_ABIERTO to OPCIONES_PERFIL_ABIERTO--><g class="link" data-entity-1="ent0008" data-entity-2="ent0008" data-link-type="dependency" data-source-line="19" id="lnk22"><path d="M955.61,105.0169 C942.63,87.5269 956.91,70.2969 998.43,70.2969 C1039.95,70.2969 1057.8057,82.7088 1044.8257,100.1988" fill="none" id="OPCIONES_PERFIL_ABIERTO-to-OPCIONES_PERFIL_ABIERTO" style="stroke:#181818;stroke-width:1;"/><polygon fill="#181818" points="1041.25,105.0169,1049.8256,100.1735,1044.2298,101.0018,1043.4015,95.4059,1041.25,105.0169" style="stroke:#181818;stroke-width:1;"/><text fill="#000000" font-family="sans-serif" font-size="13" lengthAdjust="spacing" textLength="81.396" x="957.93" y="61.3638">editarPerfil()</text></g><!--link OPCIONES_PERFIL_ABIERTO to SESION_CERRADA--><g class="link" data-entity-1="ent0008" data-entity-2="ent0003" data-link-type="dependency" data-source-line="20" id="lnk23"><path d="M890.71,108.6469 C816.49,97.8069 716.07,91.6169 631.34,116.2969 C442.24,171.3769 261.0502,324.1515 193.1502,385.8615" fill="none" id="OPCIONES_PERFIL_ABIERTO-to-SESION_CERRADA" style="stroke:#181818;stroke-width:1;"/><polygon fill="#181818" points="188.71,389.8969,198.0606,386.8039,192.4102,386.534,192.68,380.8836,188.71,389.8969" style="stroke:#181818;stroke-width:1;"/><text fill="#000000" font-family="sans-serif" font-size="13" lengthAdjust="spacing" textLength="169.1143" x="410.29" y="122.3638">solicitarEliminacionPerfil()</text></g><!--link OPCIONES_CARGA_TRABAJO_ABIERTAS to OPCIONES_CARGA_TRABAJO_ABIERTAS--><g class="link" data-entity-1="ent0010" data-entity-2="ent0010" data-link-type="dependency" data-source-line="23" id="lnk25"><path d="M955.61,241.0169 C942.63,223.5269 956.91,206.2969 998.43,206.2969 C1039.95,206.2969 1057.8057,218.7088 1044.8257,236.1988" fill="none" id="OPCIONES_CARGA_TRABAJO_ABIERTAS-to-OPCIONES_CARGA_TRABAJO_ABIERTAS" style="stroke:#181818;stroke-width:1;"/><polygon fill="#181818" points="1041.25,241.0169,1049.8256,236.1735,1044.2298,237.0018,1043.4015,231.4059,1041.25,241.0169" style="stroke:#181818;stroke-width:1;"/><text fill="#000000" font-family="sans-serif" font-size="13" lengthAdjust="spacing" textLength="136.0557" x="930.43" y="197.3638">editarCargaTrabajo()</text></g><!--link PUBLICACIONES_ABIERTAS to PUBLICACION_ABIERTA--><g class="link" data-entity-1="ent0018" data-entity-2="ent0027" data-link-type="dependency" data-source-line="26" id="lnk28"><path d="M1088.28,630.7669 C1115.99,637.5469 1146.8,643.9169 1175.52,647.2969 C1242.61,655.1869 1260.96,658.8269 1327.52,647.2969 C1352.38,642.9969 1373.1577,636.5749 1395.7177,627.9249" fill="none" id="PUBLICACIONES_ABIERTAS-to-PUBLICACION_ABIERTA" style="stroke:#181818;stroke-width:1;"/><polygon fill="#181818" points="1401.32,625.7769,1391.4845,625.2641,1396.6514,627.5669,1394.3486,632.7338,1401.32,625.7769" style="stroke:#181818;stroke-width:1;"/><text fill="#000000" font-family="sans-serif" font-size="13" lengthAdjust="spacing" textLength="114.2832" x="1194.52" y="643.3638">abrirPublicacion()</text></g><!--link PUBLICACION_ABIERTA to PUBLICACIONES_ABIERTAS--><g class="link" data-entity-1="ent0027" data-entity-2="ent0018" data-link-type="dependency" data-source-line="28" id="lnk30"><path d="M1368.96,601.2769 C1292.61,602.1069 1189.1396,603.2316 1109.1696,604.1016" fill="none" id="PUBLICACION_ABIERTA-to-PUBLICACIONES_ABIERTAS" style="stroke:#181818;stroke-width:1;"/><polygon fill="#181818" points="1103.17,604.1669,1112.213,608.0687,1108.1697,604.1125,1112.126,600.0692,1103.17,604.1669" style="stroke:#181818;stroke-width:1;"/><text fill="#000000" font-family="sans-serif" font-size="13" lengthAdjust="spacing" textLength="129.0542" x="1187.02" y="597.3638">abrirPublicaciones()</text></g><!--link PUBLICACION_ABIERTA to PUBLICACION_ABIERTA--><g class="link" data-entity-1="ent0027" data-entity-2="ent0027" data-link-type="dependency" data-source-line="27" id="lnk29"><path d="M1426.01,575.0169 C1415.67,557.5269 1427.04,540.2969 1460.12,540.2969 C1493.19,540.2969 1507.6113,552.3607 1497.2813,569.8507" fill="none" id="PUBLICACION_ABIERTA-to-PUBLICACION_ABIERTA" style="stroke:#181818;stroke-width:1;"/><polygon fill="#181818" points="1494.23,575.0169,1502.2511,569.3018,1496.7727,570.7117,1495.3628,565.2334,1494.23,575.0169" style="stroke:#181818;stroke-width:1;"/><text fill="#000000" font-family="sans-serif" font-size="13" lengthAdjust="spacing" textLength="149.9189" x="1385.62" y="531.3638">responderPublicacion()</text></g><!--link MIS_PUBLICACIONES_ABIERTAS to MI_PUBLICACION_ABIERTA--><g class="link" data-entity-1="ent0016" data-entity-2="ent0032" data-link-type="dependency" data-source-line="31" id="lnk33"><path d="M1119.14,478.3869 C1181.34,480.0169 1258.58,480.4769 1327.52,476.2969 C1337.17,475.7169 1341.2173,475.4591 1351.2373,474.4991" fill="none" id="MIS_PUBLICACIONES_ABIERTAS-to-MI_PUBLICACION_ABIERTA" style="stroke:#181818;stroke-width:1;"/><polygon fill="#181818" points="1357.21,473.9269,1347.8695,470.8035,1352.2328,474.4037,1348.6325,478.767,1357.21,473.9269" style="stroke:#181818;stroke-width:1;"/><text fill="#000000" font-family="sans-serif" font-size="13" lengthAdjust="spacing" textLength="129.1113" x="1187.02" y="472.3638">abrirMiPublicacion()</text></g><!--link MIS_PUBLICACIONES_ABIERTAS to MI_PUBLICACION_ABIERTA--><g class="link" data-entity-1="ent0016" data-entity-2="ent0032" data-link-type="dependency" data-source-line="32" id="lnk34"><path d="M1116.07,498.7369 C1178.97,508.8369 1257.78,515.6469 1327.52,504.2969 C1350.59,500.5469 1369.397,495.2993 1390.907,487.7693" fill="none" id="MIS_PUBLICACIONES_ABIERTAS-to-MI_PUBLICACION_ABIERTA-1" style="stroke:#181818;stroke-width:1;"/><polygon fill="#181818" points="1396.57,485.7869,1386.7538,484.9852,1391.8508,487.4389,1389.3971,492.5359,1396.57,485.7869" style="stroke:#181818;stroke-width:1;"/><text fill="#000000" font-family="sans-serif" font-size="13" lengthAdjust="spacing" textLength="117.5649" x="1193.02" y="500.3638">crearPublicacion()</text></g><!--link MI_PUBLICACION_ABIERTA to MIS_PUBLICACIONES_ABIERTAS--><g class="link" data-entity-1="ent0032" data-entity-2="ent0016" data-link-type="dependency" data-source-line="34" id="lnk36"><path d="M1417.56,434.9169 C1392.48,421.0969 1359.31,405.4169 1327.52,398.2969 C1261.6,383.5469 1241.71,384.7869 1175.52,398.2969 C1128.96,407.7969 1084.8038,427.3391 1050.1938,445.1691" fill="none" id="MI_PUBLICACION_ABIERTA-to-MIS_PUBLICACIONES_ABIERTAS" style="stroke:#181818;stroke-width:1;"/><polygon fill="#181818" points="1044.86,447.9169,1054.6926,447.351,1049.3048,445.627,1051.0288,440.2393,1044.86,447.9169" style="stroke:#181818;stroke-width:1;"/><text fill="#000000" font-family="sans-serif" font-size="13" lengthAdjust="spacing" textLength="136.811" x="1183.52" y="383.3638">eliminarPublicacion()</text></g><!--link MI_PUBLICACION_ABIERTA to MIS_PUBLICACIONES_ABIERTAS--><g class="link" data-entity-1="ent0032" data-entity-2="ent0016" data-link-type="dependency" data-source-line="36" id="lnk38"><path d="M1357.11,456.0369 C1347.11,455.7369 1337.12,455.4769 1327.52,455.2969 C1259.98,454.0169 1242.99,451.8569 1175.52,455.2969 C1157.26,456.2269 1143.9555,457.1548 1125.1055,458.8648" fill="none" id="MI_PUBLICACION_ABIERTA-to-MIS_PUBLICACIONES_ABIERTAS-1" style="stroke:#181818;stroke-width:1;"/><polygon fill="#181818" points="1119.13,459.4069,1128.4546,462.5774,1124.1096,458.9551,1127.7318,454.6101,1119.13,459.4069" style="stroke:#181818;stroke-width:1;"/><text fill="#000000" font-family="sans-serif" font-size="13" lengthAdjust="spacing" textLength="150.6553" x="1176.52" y="449.3638">abrirMisPublicaciones()</text></g><!--link MI_PUBLICACION_ABIERTA to MI_PUBLICACION_ABIERTA--><g class="link" data-entity-1="ent0032" data-entity-2="ent0032" data-link-type="dependency" data-source-line="33" id="lnk35"><path d="M1426.01,435.0169 C1415.67,417.5269 1427.04,400.2969 1460.12,400.2969 C1493.19,400.2969 1507.6113,412.3607 1497.2813,429.8507" fill="none" id="MI_PUBLICACION_ABIERTA-to-MI_PUBLICACION_ABIERTA" style="stroke:#181818;stroke-width:1;"/><polygon fill="#181818" points="1494.23,435.0169,1502.2511,429.3018,1496.7727,430.7117,1495.3628,425.2334,1494.23,435.0169" style="stroke:#181818;stroke-width:1;"/><text fill="#000000" font-family="sans-serif" font-size="13" lengthAdjust="spacing" textLength="122.0337" x="1399.12" y="391.3638">editarPublicacion()</text></g><!--link PROYECTOS_ABIERTOS to PROYECTO_ABIERTO--><g class="link" data-entity-1="ent0012" data-entity-2="ent0039" data-link-type="dependency" data-source-line="38" id="lnk40"><path d="M1089.98,883.2869 C1173.68,896.2069 1291.0204,914.3304 1371.7004,926.8004" fill="none" id="PROYECTOS_ABIERTOS-to-PROYECTO_ABIERTO" style="stroke:#181818;stroke-width:1;"/><polygon fill="#181818" points="1377.63,927.7169,1369.3466,922.3891,1372.6887,926.9531,1368.1246,930.2952,1377.63,927.7169" style="stroke:#181818;stroke-width:1;"/><text fill="#000000" font-family="sans-serif" font-size="13" lengthAdjust="spacing" textLength="97.6904" x="1203.02" y="894.3638">abrirProyecto()</text></g><!--link PROYECTO_ABIERTO to PROYECTOS_ABIERTOS--><g class="link" data-entity-1="ent0039" data-entity-2="ent0012" data-link-type="dependency" data-source-line="49" id="lnk51"><path d="M1377.58,950.6169 C1320.43,955.6269 1242.58,957.9869 1175.52,944.2969 C1128.96,934.7969 1084.8044,915.2535 1050.1944,897.4335" fill="none" id="PROYECTO_ABIERTO-to-PROYECTOS_ABIERTOS" style="stroke:#181818;stroke-width:1;"/><polygon fill="#181818" points="1044.86,894.6869,1051.0306,902.3631,1049.3054,896.9757,1054.6927,895.2505,1044.86,894.6869" style="stroke:#181818;stroke-width:1;"/><text fill="#000000" font-family="sans-serif" font-size="13" lengthAdjust="spacing" textLength="104.4634" x="1199.52" y="940.3638">abrirProyectos()</text></g><!--link RECOMPENSAS_ABIERTAS to RECOMPENSA_ABIERTA--><g class="link" data-entity-1="ent0020" data-entity-2="ent0042" data-link-type="dependency" data-source-line="41" id="lnk43"><path d="M1095.8,329.8169 C1112.82,323.7769 1130.03,316.6169 1145.52,308.2969 C1160.56,300.2169 1159.51,290.2369 1175.52,284.2969 C1236.73,261.6069 1304.5611,259.3622 1361.5411,262.8322" fill="none" id="RECOMPENSAS_ABIERTAS-to-RECOMPENSA_ABIERTA" style="stroke:#181818;stroke-width:1;"/><polygon fill="#181818" points="1367.53,263.1969,1358.7898,258.6572,1362.5392,262.8929,1358.3035,266.6424,1367.53,263.1969" style="stroke:#181818;stroke-width:1;"/><text fill="#000000" font-family="sans-serif" font-size="13" lengthAdjust="spacing" textLength="124.687" x="1189.52" y="257.3638">abrirRecompensa()</text></g><!--link RECOMPENSA_ABIERTA to RECOMPENSAS_ABIERTAS--><g class="link" data-entity-1="ent0042" data-entity-2="ent0020" data-link-type="dependency" data-source-line="42" id="lnk44"><path d="M1369.2,299.7569 C1355.31,303.2369 1341.08,306.5569 1327.52,309.2969 C1251.84,324.6069 1171.257,335.7994 1106.077,343.6494" fill="none" id="RECOMPENSA_ABIERTA-to-RECOMPENSAS_ABIERTAS" style="stroke:#181818;stroke-width:1;"/><polygon fill="#181818" points="1100.12,344.3669,1109.5337,347.262,1105.0841,343.769,1108.5771,339.3194,1100.12,344.3669" style="stroke:#181818;stroke-width:1;"/><text fill="#000000" font-family="sans-serif" font-size="13" lengthAdjust="spacing" textLength="131.46" x="1186.02" y="305.3638">abrirRecompensas()</text></g><!--link PROYECTO_ABIERTO to ENTREGABLES_ABIERTOS--><g class="link" data-entity-1="ent0039" data-entity-2="ent0046" data-link-type="dependency" data-source-line="46" id="lnk47"><path d="M1542.5,952.9969 C1559.1,955.4969 1576.46,958.0369 1592.71,960.2969 C1651.94,968.5269 1712.4247,976.1962 1765.4847,982.7062" fill="none" id="PROYECTO_ABIERTO-to-ENTREGABLES_ABIERTOS" style="stroke:#181818;stroke-width:1;"/><polygon fill="#181818" points="1771.44,983.4369,1762.9941,978.3706,1766.4772,982.828,1762.0199,986.3111,1771.44,983.4369" style="stroke:#181818;stroke-width:1;"/><text fill="#000000" font-family="sans-serif" font-size="13" lengthAdjust="spacing" textLength="118.4092" x="1602.71" y="956.3638">abrirEntregables()</text></g><!--link ENTREGABLES_ABIERTOS to PROYECTO_ABIERTO--><g class="link" data-entity-1="ent0046" data-entity-2="ent0039" data-link-type="dependency" data-source-line="54" id="lnk55"><path d="M1771.35,1009.4069 C1717.83,1014.1369 1650.98,1015.3369 1592.71,1002.2969 C1560.92,995.1869 1533.0059,982.391 1507.9259,968.581" fill="none" id="ENTREGABLES_ABIERTOS-to-PROYECTO_ABIERTO" style="stroke:#181818;stroke-width:1;"/><polygon fill="#181818" points="1502.67,965.6869,1508.6244,973.5319,1507.0499,968.0986,1512.4832,966.5241,1502.67,965.6869" style="stroke:#181818;stroke-width:1;"/><text fill="#000000" font-family="sans-serif" font-size="13" lengthAdjust="spacing" textLength="97.6904" x="1613.21" y="998.3638">abrirProyecto()</text></g><!--link ENTREGABLES_ABIERTOS to ENTREGABLE_ABIERTO--><g class="link" data-entity-1="ent0046" data-entity-2="ent0048" data-link-type="dependency" data-source-line="47" id="lnk49"><path d="M1923.59,969.8669 C1949.48,958.3669 1981.84,946.0769 2012.33,940.2969 C2072.59,928.8669 2089.93,929.6569 2150.33,940.2969 C2173.81,944.4369 2193.066,950.4072 2214.466,958.7072" fill="none" id="ENTREGABLES_ABIERTOS-to-ENTREGABLE_ABIERTO" style="stroke:#181818;stroke-width:1;"/><polygon fill="#181818" points="2220.06,960.8769,2213.1154,953.8931,2215.3983,959.0688,2210.2226,961.3518,2220.06,960.8769" style="stroke:#181818;stroke-width:1;"/><text fill="#000000" font-family="sans-serif" font-size="13" lengthAdjust="spacing" textLength="114.918" x="2024.33" y="927.3638">crearEntregable()</text></g><!--link ENTREGABLES_ABIERTOS to ENTREGABLE_ABIERTO--><g class="link" data-entity-1="ent0046" data-entity-2="ent0048" data-link-type="dependency" data-source-line="52" id="lnk53"><path d="M1971.69,993.0869 C2037.38,991.6269 2116.8815,989.8604 2180.6615,988.4404" fill="none" id="ENTREGABLES_ABIERTOS-to-ENTREGABLE_ABIERTO-1" style="stroke:#181818;stroke-width:1;"/><polygon fill="#181818" points="2186.66,988.3069,2177.5732,984.5082,2181.6612,988.4182,2177.7513,992.5062,2186.66,988.3069" style="stroke:#181818;stroke-width:1;"/><text fill="#000000" font-family="sans-serif" font-size="13" lengthAdjust="spacing" textLength="111.6362" x="2025.83" y="984.3638">abrirEntregable()</text></g><!--link ENTREGABLE_ABIERTO to ENTREGABLES_ABIERTOS--><g class="link" data-entity-1="ent0048" data-entity-2="ent0046" data-link-type="dependency" data-source-line="53" id="lnk54"><path d="M2186.77,1010.3469 C2174.6,1012.8069 2162.21,1014.9069 2150.33,1016.2969 C2091.12,1023.2269 2030.4836,1019.3619 1977.3436,1012.7119" fill="none" id="ENTREGABLE_ABIERTO-to-ENTREGABLES_ABIERTOS" style="stroke:#181818;stroke-width:1;"/><polygon fill="#181818" points="1971.39,1011.9669,1979.8237,1017.0535,1976.3513,1012.5877,1980.817,1009.1154,1971.39,1011.9669" style="stroke:#181818;stroke-width:1;"/><text fill="#000000" font-family="sans-serif" font-size="13" lengthAdjust="spacing" textLength="134.1641" x="2014.33" y="1012.3638">eliminarEntregable()</text></g><!--link ENTREGABLE_ABIERTO to ENTREGABLES_ABIERTOS--><g class="link" data-entity-1="ent0048" data-entity-2="ent0046" data-link-type="dependency" data-source-line="55" id="lnk56"><path d="M2233.68,1011.7169 C2209.95,1024.2069 2179.48,1037.9369 2150.33,1044.2969 C2090.41,1057.3769 2072.8,1054.5869 2012.33,1044.2969 C1984.82,1039.6169 1961.1252,1032.2375 1936.4852,1022.8275" fill="none" id="ENTREGABLE_ABIERTO-to-ENTREGABLES_ABIERTOS-1" style="stroke:#181818;stroke-width:1;"/><polygon fill="#181818" points="1930.88,1020.6869,1937.8607,1027.6346,1935.551,1022.4707,1940.7148,1020.161,1930.88,1020.6869" style="stroke:#181818;stroke-width:1;"/><text fill="#000000" font-family="sans-serif" font-size="13" lengthAdjust="spacing" textLength="118.4092" x="2022.33" y="1040.3638">abrirEntregables()</text></g><!--link PROYECTO_ABIERTO to INVESTIGADORES_ABIERTOS--><g class="link" data-entity-1="ent0039" data-entity-2="ent0014" data-link-type="dependency" data-source-line="48" id="lnk50"><path d="M1542.57,942.3269 C1598.19,940.6369 1672.12,932.1569 1730.71,903.2969 C1783.95,877.0769 1825.8508,827.5772 1849.5108,795.4672" fill="none" id="PROYECTO_ABIERTO-to-INVESTIGADORES_ABIERTOS" style="stroke:#181818;stroke-width:1;"/><polygon fill="#181818" points="1853.07,790.6369,1844.511,795.5096,1850.104,794.6622,1850.9514,800.2552,1853.07,790.6369" style="stroke:#181818;stroke-width:1;"/><text fill="#000000" font-family="sans-serif" font-size="13" lengthAdjust="spacing" textLength="136.4492" x="1593.71" y="899.3638">abrirInvestigadores()</text></g><!--link ENTREGABLE_ABIERTO to ENTREGABLE_ABIERTO--><g class="link" data-entity-1="ent0048" data-entity-2="ent0048" data-link-type="dependency" data-source-line="51" id="lnk52"><path d="M2244.59,961.0169 C2234.51,943.5269 2245.59,926.2969 2277.83,926.2969 C2310.07,926.2969 2324.1438,938.3271 2314.0738,955.8171" fill="none" id="ENTREGABLE_ABIERTO-to-ENTREGABLE_ABIERTO" style="stroke:#181818;stroke-width:1;"/><polygon fill="#181818" points="2311.08,961.0169,2319.0372,955.2131,2313.5748,956.6838,2312.1042,951.2214,2311.08,961.0169" style="stroke:#181818;stroke-width:1;"/><text fill="#000000" font-family="sans-serif" font-size="13" lengthAdjust="spacing" textLength="119.3867" x="2218.33" y="917.3638">editarEntregable()</text></g><!--link INVESTIGADORES_ABIERTOS to INVESTIGADOR_ABIERTO--><g class="link" data-entity-1="ent0014" data-entity-2="ent0057" data-link-type="dependency" data-source-line="57" id="lnk58"><path d="M1982.6,785.1269 C1992.62,786.4169 2002.65,787.5069 2012.33,788.2969 C2073.46,793.2969 2089,789.0269 2150.33,788.2969 C2160,788.1869 2164.0811,788.1302 2174.1411,787.9402" fill="none" id="INVESTIGADORES_ABIERTOS-to-INVESTIGADOR_ABIERTO" style="stroke:#181818;stroke-width:1;"/><polygon fill="#181818" points="2180.14,787.8269,2171.0661,783.9975,2175.1409,787.9213,2171.2171,791.9961,2180.14,787.8269" style="stroke:#181818;stroke-width:1;"/><text fill="#000000" font-family="sans-serif" font-size="13" lengthAdjust="spacing" textLength="121.6782" x="2020.83" y="784.3638">abrirInvestigador()</text></g><!--link INVESTIGADOR_ABIERTO to INVESTIGADORES_ABIERTOS--><g class="link" data-entity-1="ent0057" data-entity-2="ent0014" data-link-type="dependency" data-source-line="59" id="lnk60"><path d="M2179.94,770.1569 C2169.96,769.0069 2159.96,768.0169 2150.33,767.2969 C2095.14,763.1869 2039.6099,762.327 1988.5099,762.667" fill="none" id="INVESTIGADOR_ABIERTO-to-INVESTIGADORES_ABIERTOS" style="stroke:#181818;stroke-width:1;"/><polygon fill="#181818" points="1982.51,762.7069,1991.5364,766.6469,1987.5099,762.6736,1991.4832,758.6471,1982.51,762.7069" style="stroke:#181818;stroke-width:1;"/><text fill="#000000" font-family="sans-serif" font-size="13" lengthAdjust="spacing" textLength="136.4492" x="2013.33" y="758.3638">abrirInvestigadores()</text></g><!--link INVESTIGADOR_ABIERTO to PROYECTOS_ABIERTOS--><g class="link" data-entity-1="ent0057" data-entity-2="ent0012" data-link-type="dependency" data-source-line="60" id="lnk61"><path d="M2179.83,795.6769 C2169.88,796.6169 2159.9,797.5069 2150.33,798.2969 C1755.79,830.7269 1290.0427,855.122 1095.7827,864.682" fill="none" id="INVESTIGADOR_ABIERTO-to-PROYECTOS_ABIERTOS" style="stroke:#181818;stroke-width:1;"/><polygon fill="#181818" points="1089.79,864.9769,1098.9757,868.5297,1094.784,864.7311,1098.5825,860.5393,1089.79,864.9769" style="stroke:#181818;stroke-width:1;"/><text fill="#000000" font-family="sans-serif" font-size="13" lengthAdjust="spacing" textLength="104.4634" x="1609.71" y="824.3638">abrirProyectos()</text></g><!--SRC=[fPNRZfim48Rl_HHSjfNs1VQYaaFSY2e1oz1ALLKX1xpK5J6HyLRjszSSiW630QUvIiBCDwT_1iLLoRmzfuMa5-hbpCigeTWVLJNVNuN7nMzMArxGl980bEn5UVgPvCLFvULSiapnIW3m_SCFx-dfenUZE8Z2r4U4m3q4uv-j1OOXEgQO1A4VO7XCuIv098cUTIIUSIfZLclYk_V0OZWJvjdBc9G3rqNV2FlQ5yKfHkHJC4Y0dYMNqJNJ35PZ9bzukPB66yg7v03JXC0T_1pr9Z0sa3wL1KqaFTDVrGeOa-WRyfCellrxOs5P_TKzh-eLG11-HN4I7E0-8cX22GP3PMkeKw1RzMLt37pOLslKT-8rVZsNFADTdMkrBR5SG0JvqGcZC8OJ365PTRaoKTC6eZ-MeIyBWkLSKVccX2M6ASYwqcKqtgZa5oxQWZQ1hElHjOSALcB9HSQlj4615GbkasbNgA7FBMJNRETdRyhYzc2gYKOHKpkxlrRtjH8vSsTiaEP2BOvjiQzOlu6flJidFgxjGLOc6PKcARKroaRfDsOxndvQMBSuqgawnyO_c9hjwe7fsHvTSpET_fOtMh8uEkfexY8Qfz9Gp_rGQl-fbTkTjOPthGEO7MifA4m8Ei3TSVf2Gq99Lj1psSvXpj0Wt5DeXN_t7mpZlrweSunDRtKmJTAQUxTke-JdQhUv6wqRUM_e_6r3L-DlN0Adu3DZ1vOPJUPdf30SdiOiKHo5F1Vq4JLPELiKzGy0]--></g></svg>