<svg xmlns="http://www.w3.org/2000/svg" xmlns:xlink="http://www.w3.org/1999/xlink" contentStyleType="text/css" data-diagram-type="STATE" height="822px" preserveAspectRatio="none" style="width:723px;height:822px;background:#FFFFFF;" version="1.1" viewBox="0 0 723 822" width="723px" zoomAndPan="magnify"><defs/><g><g><rect fill="#F1F1F1" height="50" rx="12.5" ry="12.5" style="stroke:#181818;stroke-width:0.5;" width="315.7568" x="200.62" y="7"/><line style="stroke:#181818;stroke-width:0.5;" x1="200.62" x2="516.3768" y1="33.2969" y2="33.2969"/><text fill="#000000" font-family="sans-serif" font-size="14" lengthAdjust="spacing" textLength="295.7568" x="210.62" y="24.9951">SOLICITUD_ELIMINACION_PERFIL_ABIERTA</text></g><path d="M19.5,152 L697.5,152 A12.5,12.5 0 0 1 710,164.5 L710,178.2969 L7,178.2969 L7,164.5 A12.5,12.5 0 0 1 19.5,152" fill="#F1F1F1"/><rect fill="none" height="519.2969" rx="12.5" ry="12.5" style="stroke:#181818;stroke-width:0.5;" width="703" x="7" y="152"/><line style="stroke:#181818;stroke-width:0.5;" x1="7" x2="710" y1="178.2969" y2="178.2969"/><text fill="#000000" font-family="sans-serif" font-size="14" lengthAdjust="spacing" textLength="243.9131" x="236.5435" y="169.9951">resolverSolicitudEliminacionPerfil()</text><g><rect fill="#F1F1F1" height="50" rx="12.5" ry="12.5" style="stroke:#181818;stroke-width:0.5;" width="50" x="218" y="280.2969"/><line style="stroke:#181818;stroke-width:0.5;" x1="218" x2="268" y1="306.5938" y2="306.5938"/><text fill="#000000" font-family="sans-serif" font-size="14" lengthAdjust="spacing" textLength="4.4502" x="240.7749" y="298.292">&#160;</text></g><g><rect fill="#F1F1F1" height="50" rx="12.5" ry="12.5" style="stroke:#181818;stroke-width:0.5;" width="50" x="218" y="416.2969"/><line style="stroke:#181818;stroke-width:0.5;" x1="218" x2="268" y1="442.5938" y2="442.5938"/><text fill="#000000" font-family="sans-serif" font-size="14" lengthAdjust="spacing" textLength="4.4502" x="240.7749" y="434.292">&#160;</text></g><g><rect fill="#F1F1F1" height="50" rx="12.5" ry="12.5" style="stroke:#181818;stroke-width:0.5;" width="50" x="218" y="552.2969"/><line style="stroke:#181818;stroke-width:0.5;" x1="218" x2="268" y1="578.5938" y2="578.5938"/><text fill="#000000" font-family="sans-serif" font-size="14" lengthAdjust="spacing" textLength="4.4502" x="240.7749" y="570.292">&#160;</text></g><ellipse cx="243" cy="199.2969" fill="#222222" rx="10" ry="10" style="stroke:#222222;stroke-width:1;"/><ellipse cx="243" cy="650.2969" fill="none" rx="11" ry="11" style="stroke:#222222;stroke-width:1;"/><ellipse cx="243" cy="650.2969" fill="#222222" rx="6" ry="6" style="stroke:#222222;stroke-width:1;"/><!--link *start*resolverSolicitudEliminacionPerfil to ListandoSolicitudes--><g class="link" data-entity-1="ent0003" data-entity-2="ent0004" data-link-type="dependency" data-source-line="15" id="lnk4"><path d="M243,209.5269 C243,225.2369 243,251.6569 243,274.1669" fill="none" id="*start*resolverSolicitudEliminacionPerfil-to-ListandoSolicitudes" style="stroke:#008000;stroke-width:1;"/><polygon fill="#008000" points="243,280.1669,247,271.1669,243,275.1669,239,271.1669,243,280.1669" style="stroke:#008000;stroke-width:1;"/><path d="M248,232.2969 L248,257.2969 L593,257.2969 L593,242.2969 L583,232.2969 L248,232.2969" fill="#FEFFDD" style="stroke:#181818;stroke-width:0.5;"/><path d="M583,232.2969 L583,242.2969 L593,242.2969 L583,232.2969" fill="#FEFFDD" style="stroke:#181818;stroke-width:0.5;"/><text fill="#000000" font-family="sans-serif" font-size="13" font-weight="bold" lengthAdjust="spacing" textLength="90.251" x="254" y="249.3638">Coordinador</text><text fill="#000000" font-family="sans-serif" font-size="13" lengthAdjust="spacing" textLength="230.2168" x="348.3833" y="249.3638">solicita abrir solicitudes pendientes</text></g><!--link ListandoSolicitudes to EvaluandoSolicitud--><g class="link" data-entity-1="ent0004" data-entity-2="ent0005" data-link-type="dependency" data-source-line="20" id="lnk5"><path d="M217.63,311.0369 C158.78,322.0169 18,348.2969 18,348.2969 C18,348.2969 18,398.2969 18,398.2969 C18,398.2969 152.8818,423.4764 211.7318,434.4564" fill="none" id="ListandoSolicitudes-to-EvaluandoSolicitud" style="stroke:#008000;stroke-width:1;"/><polygon fill="#008000" points="217.63,435.5569,209.5163,429.974,212.7148,434.6398,208.049,437.8383,217.63,435.5569" style="stroke:#008000;stroke-width:1;"/><path d="M23,353.2969 L23,393.2969 L442,393.2969 L442,363.2969 L432,353.2969 L23,353.2969" fill="#FEFFDD" style="stroke:#181818;stroke-width:0.5;"/><path d="M432,353.2969 L432,363.2969 L442,363.2969 L432,353.2969" fill="#FEFFDD" style="stroke:#181818;stroke-width:0.5;"/><text fill="#000000" font-family="sans-serif" font-size="13" font-weight="bold" lengthAdjust="spacing" textLength="58.9063" x="29" y="370.3638">Sistema</text><text fill="#000000" font-family="sans-serif" font-size="13" lengthAdjust="spacing" textLength="335.937" x="92.0386" y="370.3638">muestra lista de solicitudes de eliminaci&#243;n de perfil</text><text fill="#000000" font-family="sans-serif" font-size="13" lengthAdjust="spacing" textLength="136.6079" x="29" y="385.4966">&#8226; ID, nombre, campo</text></g><!--link EvaluandoSolicitud to Resultado--><g class="link" data-entity-1="ent0005" data-entity-2="ent0006" data-link-type="dependency" data-source-line="26" id="lnk6"><path d="M243,466.5669 C243,490.8469 243,521.9869 243,546.2069" fill="none" id="EvaluandoSolicitud-to-Resultado" style="stroke:#008000;stroke-width:1;"/><polygon fill="#008000" points="243,552.2069,247,543.2069,243,547.2069,239,543.2069,243,552.2069" style="stroke:#008000;stroke-width:1;"/><path d="M248,489.2969 L248,529.2969 L595,529.2969 L595,499.2969 L585,489.2969 L248,489.2969" fill="#FEFFDD" style="stroke:#181818;stroke-width:0.5;"/><path d="M585,489.2969 L585,499.2969 L595,499.2969 L585,489.2969" fill="#FEFFDD" style="stroke:#181818;stroke-width:0.5;"/><text fill="#000000" font-family="sans-serif" font-size="13" font-weight="bold" lengthAdjust="spacing" textLength="90.251" x="254" y="506.3638">Coordinador</text><text fill="#000000" font-family="sans-serif" font-size="13" lengthAdjust="spacing" textLength="232.4639" x="348.3833" y="506.3638">solicita aprobar o rechazar solicitud</text><text fill="#000000" font-family="sans-serif" font-size="13" font-weight="bold" lengthAdjust="spacing" textLength="58.9063" x="254" y="521.4966">Sistema</text><text fill="#000000" font-family="sans-serif" font-size="13" lengthAdjust="spacing" textLength="167.3623" x="317.0386" y="521.4966">presenta estado del perfil</text></g><!--link EvaluandoSolicitud to ListandoSolicitudes--><g class="link" data-entity-1="ent0005" data-entity-2="ent0004" data-link-type="dependency" data-source-line="32" id="lnk7"><path d="M268.42,435.0669 C323.11,423.8069 447,398.2969 447,398.2969 C447,398.2969 447,348.2969 447,348.2969 C447,348.2969 328.9867,323.9968 274.2967,312.7368" fill="none" id="EvaluandoSolicitud-to-ListandoSolicitudes" style="stroke:#FF0000;stroke-width:1;"/><polygon fill="#FF0000" points="268.42,311.5269,276.4285,317.2596,273.3173,312.5352,278.0417,309.424,268.42,311.5269" style="stroke:#FF0000;stroke-width:1;"/><path d="M452,360.7969 L452,385.7969 L701,385.7969 L701,370.7969 L691,360.7969 L452,360.7969" fill="#FEFFDD" style="stroke:#181818;stroke-width:0.5;"/><path d="M691,360.7969 L691,370.7969 L701,370.7969 L691,360.7969" fill="#FEFFDD" style="stroke:#181818;stroke-width:0.5;"/><text fill="#000000" font-family="sans-serif" font-size="13" font-weight="bold" lengthAdjust="spacing" textLength="90.251" x="458" y="377.8638">Coordinador</text><text fill="#000000" font-family="sans-serif" font-size="13" lengthAdjust="spacing" textLength="134.3862" x="552.3833" y="377.8638">cancela la operaci&#243;n</text></g><!--link Resultado to *end*resolverSolicitudEliminacionPerfil--><g class="link" data-entity-1="ent0006" data-entity-2="ent0008" data-link-type="dependency" data-source-line="37" id="lnk9"><path d="M243,602.7269 C243,615.0869 243,623.4269 243,632.8969" fill="none" id="Resultado-to-*end*resolverSolicitudEliminacionPerfil" style="stroke:#008000;stroke-width:1;"/><polygon fill="#008000" points="243,638.8969,247,629.8969,243,633.8969,239,629.8969,243,638.8969" style="stroke:#008000;stroke-width:1;"/></g><g><rect fill="#F1F1F1" height="50" rx="12.5" ry="12.5" style="stroke:#181818;stroke-width:0.5;" width="215.043" x="250.98" y="766.3"/><line style="stroke:#181818;stroke-width:0.5;" x1="250.98" x2="466.023" y1="792.5969" y2="792.5969"/><text fill="#000000" font-family="sans-serif" font-size="14" lengthAdjust="spacing" textLength="195.043" x="260.98" y="784.2951">OPCIONES_PERFIL_ABIERTO</text></g><!--link in1 to resolverSolicitudEliminacionPerfil--><g class="link" data-entity-1="ent0002" data-entity-2="ent0003" data-link-type="dependency" data-source-line="4" id="lnk2"><path d="M358.5,57.49 C358.5,79.15 358.5,107.25 358.5,145.9" fill="none" id="in1-to-resolverSolicitudEliminacionPerfil" style="stroke:#008000;stroke-width:1;"/><polygon fill="#008000" points="358.5,151.9,362.5,142.9,358.5,146.9,354.5,142.9,358.5,151.9" style="stroke:#008000;stroke-width:1;"/><path d="M363.5,92 L363.5,117 L610.5,117 L610.5,102 L600.5,92 L363.5,92" fill="#FEFFDD" style="stroke:#181818;stroke-width:0.5;"/><path d="M600.5,92 L600.5,102 L610.5,102 L600.5,92" fill="#FEFFDD" style="stroke:#181818;stroke-width:0.5;"/><text fill="#000000" font-family="sans-serif" font-size="13" lengthAdjust="spacing" textLength="226.4907" x="369.5" y="109.0669">resolverSolicitudEliminacionPerfil()</text></g><!--link resolverSolicitudEliminacionPerfil to OPCIONES_PERFIL_ABIERTO--><g class="link" data-entity-1="ent0003" data-entity-2="ent0010" data-link-type="dependency" data-source-line="42" id="lnk11"><path d="M358.5,671.59 C358.5,710.27 358.5,738.38 358.5,759.99" fill="none" id="resolverSolicitudEliminacionPerfil-to-OPCIONES_PERFIL_ABIERTO" style="stroke:#008000;stroke-width:1;"/><polygon fill="#008000" points="358.5,765.99,362.5,756.99,358.5,760.99,354.5,756.99,358.5,765.99" style="stroke:#008000;stroke-width:1;"/><path d="M363.5,706.3 L363.5,731.3 L517.5,731.3 L517.5,716.3 L507.5,706.3 L363.5,706.3" fill="#FEFFDD" style="stroke:#181818;stroke-width:0.5;"/><path d="M507.5,706.3 L507.5,716.3 L517.5,716.3 L507.5,706.3" fill="#FEFFDD" style="stroke:#181818;stroke-width:0.5;"/><text fill="#000000" font-family="sans-serif" font-size="13" lengthAdjust="spacing" textLength="133.853" x="369.5" y="723.3669">abrirOpcionesPerfil()</text></g><!--SRC=[fPHHIiD048RVznH3VL6fYEzIg3L2e9hIwfD8cIIZBjtiBhkfe29u5g_W4Ro99t6siTQb4IicJvET-UUVZzducTGM7LQWfARwtX9Oe-v388IliIQG-W3GGsUI3TD1UdvnF4s6wMbwrX-asTbqb8nFqk6qVvGcu_D-HuJilSkj6qUah_PwuCWRTKTkOfGiP3ql4oKhgR6GHe_8NKibjE4kHWS7C_5x_lQE85r2g5fQ_BreCS4csXru50BuQPGx_7BfK7AeI_DLINuzARb3DO-ordF6vEUgnj8qJIvtho9QF_M948KFXtblO8mhsNrftE5-tWFVr21WxgHRXa42B0EJfEjFjHM-4BNqZ3pzC5QRfGbBKOKBEzMSVEsGpraUIeeCSKXBzc-lEiIsMOQWzFxy0kbnbrjKkQCk55XPq-9ytLbaVCNwxmYjCpawCBnQnIq-u3UURSDQNYtcYy0pinhFexuFj8bjH-L_Dw10NP1Yv0Y6kpTiMmnyWObmyIukJiMJ41jSmwWs6uMVGJA9VmTPVBKNUvdP845-xIv_0000]--></g></svg>