<?xml version="1.0" encoding="us-ascii" standalone="no"?><svg xmlns="http://www.w3.org/2000/svg" xmlns:xlink="http://www.w3.org/1999/xlink" contentStyleType="text/css" height="1013px" preserveAspectRatio="none" style="width:1143px;height:1013px;background:#FFFFFF;" version="1.1" viewBox="0 0 1143 1013" width="1143px" zoomAndPan="magnify"><defs/><g><g id="in1"><rect fill="#F1F1F1" height="50" rx="12.5" ry="12.5" style="stroke:#181818;stroke-width:0.5;" width="180" x="478.5" y="7"/><line style="stroke:#181818;stroke-width:0.5;" x1="478.5" x2="658.5" y1="34.6094" y2="34.6094"/><text fill="#000000" font-family="sans-serif" font-size="14" lengthAdjust="spacing" textLength="160" x="488.5" y="26.5332">ENTREGABLE_ABIERTO</text></g><path d="M19.5,118 L1117.5,118 A12.5,12.5 0 0 1 1130,130.5 L1130,145.6094 L7,145.6094 L7,130.5 A12.5,12.5 0 0 1 19.5,118 " fill="#F1F1F1" style="stroke:#F1F1F1;stroke-width:1.0;"/><rect fill="none" height="742.6094" rx="12.5" ry="12.5" style="stroke:#181818;stroke-width:0.5;" width="1123" x="7" y="118"/><line style="stroke:#181818;stroke-width:0.5;" x1="7" x2="1130" y1="145.6094" y2="145.6094"/><text fill="#000000" font-family="sans-serif" font-size="14" lengthAdjust="spacing" textLength="115" x="511" y="137.5332">editarEntregable()</text><g id="editarEntregable.SolicitandoEdicion"><rect fill="#F1F1F1" height="50" rx="12.5" ry="12.5" style="stroke:#181818;stroke-width:0.5;" width="50" x="290" y="248.6094"/><line style="stroke:#181818;stroke-width:0.5;" x1="290" x2="340" y1="276.2188" y2="276.2188"/><text fill="#000000" font-family="sans-serif" font-size="14" lengthAdjust="spacing" textLength="4" x="313" y="268.1426">&#160;</text></g><g id="editarEntregable.IntroduciendoCambios"><rect fill="#F1F1F1" height="50" rx="12.5" ry="12.5" style="stroke:#181818;stroke-width:0.5;" width="50" x="290" y="550.6094"/><line style="stroke:#181818;stroke-width:0.5;" x1="290" x2="340" y1="578.2188" y2="578.2188"/><text fill="#000000" font-family="sans-serif" font-size="14" lengthAdjust="spacing" textLength="4" x="313" y="570.1426">&#160;</text></g><g id="editarEntregable.ValidandoDatos"><rect fill="#F1F1F1" height="50" rx="12.5" ry="12.5" style="stroke:#181818;stroke-width:0.5;" width="50" x="290" y="689.6094"/><line style="stroke:#181818;stroke-width:0.5;" x1="290" x2="340" y1="717.2188" y2="717.2188"/><text fill="#000000" font-family="sans-serif" font-size="14" lengthAdjust="spacing" textLength="4" x="313" y="709.1426">&#160;</text></g><ellipse cx="315" cy="166.6094" fill="#222222" rx="10" ry="10" style="stroke:#222222;stroke-width:1.0;"/><ellipse cx="552" cy="839.6094" fill="none" rx="11" ry="11" style="stroke:#222222;stroke-width:1.0;"/><ellipse cx="552" cy="839.6094" fill="#222222" rx="6" ry="6" style="stroke:#222222;stroke-width:1.0;"/><!--link *start*editarEntregable to SolicitandoEdicion--><g id="link_*start*editarEntregable_SolicitandoEdicion"><path d="M315,176.9294 C315,192.7894 315,219.5194 315,242.2494 " fill="none" id="*start*editarEntregable-to-SolicitandoEdicion" style="stroke:#008000;stroke-width:1.0;"/><polygon fill="#008000" points="315,248.2494,319,239.2494,315,243.2494,311,239.2494,315,248.2494" style="stroke:#008000;stroke-width:1.0;"/><path d="M320,199.6094 L320,225.6094 L578,225.6094 L578,209.6094 L568,199.6094 L320,199.6094 " fill="#FEFFDD" style="stroke:#181818;stroke-width:0.5;"/><path d="M568,199.6094 L568,209.6094 L578,209.6094 L568,199.6094 " fill="#FEFFDD" style="stroke:#181818;stroke-width:0.5;"/><text fill="#000000" font-family="sans-serif" font-size="13" font-weight="bold" lengthAdjust="spacing" textLength="78" x="326" y="218.1045">Investigador</text><text fill="#000000" font-family="sans-serif" font-size="13" lengthAdjust="spacing" textLength="155" x="408" y="218.1045">solicita editar el entregable</text></g><!--link SolicitandoEdicion to IntroduciendoCambios--><g id="link_SolicitandoEdicion_IntroduciendoCambios"><path d="M315,298.6494 C315,354.8294 315,488.1694 315,544.4494 " fill="none" id="SolicitandoEdicion-to-IntroduciendoCambios" style="stroke:#008000;stroke-width:1.0;"/><polygon fill="#008000" points="315,550.4494,319,541.4494,315,545.4494,311,541.4494,315,550.4494" style="stroke:#008000;stroke-width:1.0;"/><path d="M320,321.6094 L320,527.6094 L725,527.6094 L725,331.6094 L715,321.6094 L320,321.6094 " fill="#FEFFDD" style="stroke:#181818;stroke-width:0.5;"/><path d="M715,321.6094 L715,331.6094 L725,331.6094 L715,321.6094 " fill="#FEFFDD" style="stroke:#181818;stroke-width:0.5;"/><text fill="#000000" font-family="sans-serif" font-size="13" font-weight="bold" lengthAdjust="spacing" textLength="51" x="326" y="340.1045">Sistema</text><text fill="#000000" font-family="sans-serif" font-size="13" lengthAdjust="spacing" textLength="176" x="381" y="340.1045">presenta la pantalla de edici&#243;n</text><text fill="#000000" font-family="sans-serif" font-size="13" font-weight="bold" lengthAdjust="spacing" textLength="51" x="326" y="356.4561">Sistema</text><text fill="#000000" font-family="sans-serif" font-size="13" lengthAdjust="spacing" textLength="329" x="381" y="356.4561">muestra los datos actuales y permite introducir cambios:</text><text fill="#000000" font-family="sans-serif" font-size="13" lengthAdjust="spacing" textLength="40" x="326" y="372.8076">&#8226; T&#237;tulo</text><text fill="#000000" font-family="sans-serif" font-size="13" lengthAdjust="spacing" textLength="33" x="326" y="389.1592">&#8226; Tipo</text><text fill="#000000" font-family="sans-serif" font-size="13" lengthAdjust="spacing" textLength="80" x="326" y="405.5107">&#8226; Fecha l&#237;mite</text><text fill="#000000" font-family="sans-serif" font-size="13" lengthAdjust="spacing" textLength="50" x="326" y="421.8623">&#8226; Estado</text><text fill="#000000" font-family="sans-serif" font-size="13" lengthAdjust="spacing" textLength="137" x="326" y="438.2139">&#8226; Descripci&#243;n (si aplica)</text><text fill="#000000" font-family="sans-serif" font-size="13" lengthAdjust="spacing" textLength="157" x="326" y="454.5654">&#8226; Archivo adjunto (si aplica)</text><text fill="#000000" font-family="sans-serif" font-size="13" lengthAdjust="spacing" textLength="4" x="326" y="470.917">&#160;</text><text fill="#000000" font-family="sans-serif" font-size="13" font-weight="bold" lengthAdjust="spacing" textLength="51" x="326" y="487.2686">Sistema</text><text fill="#000000" font-family="sans-serif" font-size="13" lengthAdjust="spacing" textLength="96" x="381" y="487.2686">permite solicitar:</text><text fill="#000000" font-family="sans-serif" font-size="13" lengthAdjust="spacing" textLength="108" x="326" y="503.6201">&#8226; Guardar cambios</text><text fill="#000000" font-family="sans-serif" font-size="13" lengthAdjust="spacing" textLength="105" x="326" y="519.9717">&#8226; Cancelar edici&#243;n</text></g><!--link IntroduciendoCambios to ValidandoDatos--><g id="link_IntroduciendoCambios_ValidandoDatos"><path d="M289.93,580.1494 C218.33,590.2794 18,618.6094 18,618.6094 C18,618.6094 18,670.6094 18,670.6094 C18,670.6094 212.392,698.7494 283.992,709.1194 " fill="none" id="IntroduciendoCambios-to-ValidandoDatos" style="stroke:#008000;stroke-width:1.0;"/><polygon fill="#008000" points="289.93,709.9794,281.5963,704.7306,284.9816,709.2627,280.4496,712.648,289.93,709.9794" style="stroke:#008000;stroke-width:1.0;"/><path d="M23,631.6094 L23,657.6094 L288,657.6094 L288,641.6094 L278,631.6094 L23,631.6094 " fill="#FEFFDD" style="stroke:#181818;stroke-width:0.5;"/><path d="M278,631.6094 L278,641.6094 L288,641.6094 L278,631.6094 " fill="#FEFFDD" style="stroke:#181818;stroke-width:0.5;"/><text fill="#000000" font-family="sans-serif" font-size="13" font-weight="bold" lengthAdjust="spacing" textLength="78" x="29" y="650.1045">Investigador</text><text fill="#000000" font-family="sans-serif" font-size="13" lengthAdjust="spacing" textLength="162" x="111" y="650.1045">solicita guardar los cambios</text></g><!--link ValidandoDatos to *end*editarEntregable--><g id="link_ValidandoDatos_*end*editarEntregable"><path d="M336.12,740.0694 C360.41,768.2194 397,810.6094 397,810.6094 C397,810.6094 500.4257,829.2921 535.4457,835.6221 " fill="none" id="ValidandoDatos-to-*end*editarEntregable" style="stroke:#008000;stroke-width:1.0;"/><polygon fill="#008000" points="541.35,836.6894,533.205,831.1523,536.4297,835.8,531.782,839.0247,541.35,836.6894" style="stroke:#008000;stroke-width:1.0;"/><path d="M402,763.6094 L402,805.6094 L769,805.6094 L769,773.6094 L759,763.6094 L402,763.6094 " fill="#FEFFDD" style="stroke:#181818;stroke-width:0.5;"/><path d="M759,763.6094 L759,773.6094 L769,773.6094 L759,763.6094 " fill="#FEFFDD" style="stroke:#181818;stroke-width:0.5;"/><text fill="#000000" font-family="sans-serif" font-size="13" font-weight="bold" lengthAdjust="spacing" textLength="51" x="408" y="782.1045">Sistema</text><text fill="#000000" font-family="sans-serif" font-size="13" lengthAdjust="spacing" textLength="271" x="463" y="782.1045">permite solicitar la actualizaci&#243;n del entregable</text><text fill="#000000" font-family="sans-serif" font-size="13" font-weight="bold" lengthAdjust="spacing" textLength="51" x="408" y="798.4561">Sistema</text><text fill="#000000" font-family="sans-serif" font-size="13" lengthAdjust="spacing" textLength="291" x="463" y="798.4561">presenta y visualiza el entregable con los cambios</text></g><!--link ValidandoDatos to IntroduciendoCambios--><g id="link_ValidandoDatos_IntroduciendoCambios"><path d="M315,689.2094 C315,664.2394 315,631.6794 315,606.7894 " fill="none" id="ValidandoDatos-to-IntroduciendoCambios" style="stroke:#FF0000;stroke-width:1.0;"/><polygon fill="#FF0000" points="315,600.7894,311,609.7894,315,605.7894,319,609.7894,315,600.7894" style="stroke:#FF0000;stroke-width:1.0;"/><path d="M320,623.6094 L320,665.6094 L768,665.6094 L768,633.6094 L758,623.6094 L320,623.6094 " fill="#FEFFDD" style="stroke:#181818;stroke-width:0.5;"/><path d="M758,623.6094 L758,633.6094 L768,633.6094 L758,623.6094 " fill="#FEFFDD" style="stroke:#181818;stroke-width:0.5;"/><text fill="#000000" font-family="sans-serif" font-size="13" font-weight="bold" lengthAdjust="spacing" textLength="51" x="326" y="642.1045">Sistema</text><text fill="#000000" font-family="sans-serif" font-size="13" lengthAdjust="spacing" textLength="183" x="381" y="642.1045">muestra errores de introducci&#243;n</text><text fill="#000000" font-family="sans-serif" font-size="13" font-weight="bold" lengthAdjust="spacing" textLength="51" x="326" y="658.4561">Sistema</text><text fill="#000000" font-family="sans-serif" font-size="13" lengthAdjust="spacing" textLength="372" x="381" y="658.4561">permite introducir correcciones y mantiene la pantalla de edici&#243;n</text></g><!--link IntroduciendoCambios to *end*editarEntregable--><g id="link_IntroduciendoCambios_*end*editarEntregable"><path d="M340,578.8994 C435.79,587.6594 774,618.6094 774,618.6094 C774,618.6094 774,810.6094 774,810.6094 C774,810.6094 613.7528,830.8185 568.9628,836.4685 " fill="none" id="IntroduciendoCambios-to-*end*editarEntregable" style="stroke:#FF0000;stroke-width:1.0;"/><polygon fill="#FF0000" points="563.01,837.2194,572.4398,840.0616,567.9707,836.5936,571.4386,832.1245,563.01,837.2194" style="stroke:#FF0000;stroke-width:1.0;"/><path d="M779,693.6094 L779,735.6094 L1121,735.6094 L1121,703.6094 L1111,693.6094 L779,693.6094 " fill="#FEFFDD" style="stroke:#181818;stroke-width:0.5;"/><path d="M1111,693.6094 L1111,703.6094 L1121,703.6094 L1111,693.6094 " fill="#FEFFDD" style="stroke:#181818;stroke-width:0.5;"/><text fill="#000000" font-family="sans-serif" font-size="13" font-weight="bold" lengthAdjust="spacing" textLength="78" x="785" y="712.1045">Investigador</text><text fill="#000000" font-family="sans-serif" font-size="13" lengthAdjust="spacing" textLength="153" x="867" y="712.1045">solicita cancelar la edici&#243;n</text><text fill="#000000" font-family="sans-serif" font-size="13" font-weight="bold" lengthAdjust="spacing" textLength="51" x="785" y="728.4561">Sistema</text><text fill="#000000" font-family="sans-serif" font-size="13" lengthAdjust="spacing" textLength="266" x="840" y="728.4561">presenta y visualiza el entregable sin cambios</text></g><g id="ENTREGABLE_ABIERTO"><rect fill="#F1F1F1" height="50" rx="12.5" ry="12.5" style="stroke:#181818;stroke-width:0.5;" width="180" x="299.5" y="957"/><line style="stroke:#181818;stroke-width:0.5;" x1="299.5" x2="479.5" y1="984.6094" y2="984.6094"/><text fill="#000000" font-family="sans-serif" font-size="14" lengthAdjust="spacing" textLength="160" x="309.5" y="976.5332">ENTREGABLE_ABIERTO</text></g><g id="ENTREGABLES_ABIERTOS"><rect fill="#F1F1F1" height="50" rx="12.5" ry="12.5" style="stroke:#181818;stroke-width:0.5;" width="198" x="578.5" y="957"/><line style="stroke:#181818;stroke-width:0.5;" x1="578.5" x2="776.5" y1="984.6094" y2="984.6094"/><text fill="#000000" font-family="sans-serif" font-size="14" lengthAdjust="spacing" textLength="178" x="588.5" y="976.5332">ENTREGABLES_ABIERTOS</text></g><!--link in1 to editarEntregable--><g id="link_in1_editarEntregable"><path d="M568.5,57.17 C568.5,72.07 568.5,87.05 568.5,111.81 " fill="none" id="in1-to-editarEntregable" style="stroke:#008000;stroke-width:1.0;"/><polygon fill="#008000" points="568.5,117.81,572.5,108.81,568.5,112.81,564.5,108.81,568.5,117.81" style="stroke:#008000;stroke-width:1.0;"/></g><!--link editarEntregable to ENTREGABLE_ABIERTO--><g id="link_editarEntregable_ENTREGABLE_ABIERTO"><path d="M429.65,861.22 C422.68,879.83 418.5,891 418.5,891 C418.5,891 407.7001,924.5091 399.1101,951.1691 " fill="none" id="editarEntregable-to-ENTREGABLE_ABIERTO" style="stroke:#008000;stroke-width:1.0;"/><polygon fill="#008000" points="397.27,956.88,403.8374,949.5404,398.8034,952.1209,396.2229,947.087,397.27,956.88" style="stroke:#008000;stroke-width:1.0;"/><path d="M423.5,896 L423.5,922 L552.5,922 L552.5,906 L542.5,896 L423.5,896 " fill="#FEFFDD" style="stroke:#181818;stroke-width:0.5;"/><path d="M542.5,896 L542.5,906 L552.5,906 L542.5,896 " fill="#FEFFDD" style="stroke:#181818;stroke-width:0.5;"/><text fill="#000000" font-family="sans-serif" font-size="13" lengthAdjust="spacing" textLength="108" x="429.5" y="914.4951">Entregable editado</text></g><!--link editarEntregable to ENTREGABLES_ABIERTOS--><g id="link_editarEntregable_ENTREGABLES_ABIERTOS"><path d="M565.72,861.22 C565.58,879.83 565.5,891 565.5,891 C565.5,891 565.5,927 565.5,927 C565.5,927 592.1749,939.8653 621.9949,954.2353 " fill="none" id="editarEntregable-to-ENTREGABLES_ABIERTOS" style="stroke:#FF0000;stroke-width:1.0;"/><polygon fill="#FF0000" points="627.4,956.84,621.0287,949.3295,622.8957,954.6694,617.5558,956.5364,627.4,956.84" style="stroke:#FF0000;stroke-width:1.0;"/><path d="M570.5,896 L570.5,922 L693.5,922 L693.5,906 L683.5,896 L570.5,896 " fill="#FEFFDD" style="stroke:#181818;stroke-width:0.5;"/><path d="M683.5,896 L683.5,906 L693.5,906 L683.5,896 " fill="#FEFFDD" style="stroke:#181818;stroke-width:0.5;"/><text fill="#000000" font-family="sans-serif" font-size="13" lengthAdjust="spacing" textLength="102" x="576.5" y="914.4951">abrirEntregables()</text></g><!--link editarEntregable to ENTREGABLES_ABIERTOS--><g id="link_editarEntregable_ENTREGABLES_ABIERTOS"><path d="M692.54,861.22 C698.76,879.83 702.5,891 702.5,891 C702.5,891 702.5,927 702.5,927 C702.5,927 697.863,937.0262 691.203,951.3962 " fill="none" id="editarEntregable-to-ENTREGABLES_ABIERTOS-1" style="stroke:#008000;stroke-width:1.0;"/><polygon fill="#008000" points="688.68,956.84,696.0937,950.3564,690.7825,952.3035,688.8353,946.9924,688.68,956.84" style="stroke:#008000;stroke-width:1.0;"/><path d="M707.5,896 L707.5,922 L843.5,922 L843.5,906 L833.5,896 L707.5,896 " fill="#FEFFDD" style="stroke:#181818;stroke-width:0.5;"/><path d="M833.5,896 L833.5,906 L843.5,906 L833.5,896 " fill="#FEFFDD" style="stroke:#181818;stroke-width:0.5;"/><text fill="#000000" font-family="sans-serif" font-size="13" lengthAdjust="spacing" textLength="115" x="713.5" y="914.4951">eliminarEntregable()</text></g><!--SRC=[fLN1Yjim4BtxAuRqaXIMqcjP0jbTTmcK5ZQXbsKf4sd8gYjBHh83QIdqMthVKpyXVz8lwSXsuYXsqYnDBf8yy_HctXlRFocJeyCCj39Kh7E2tEfrs2I9Bx0WKEOje8T1-d5-bzvEhZwaNoPNq_Hk_ccGX6SNzw-MZiWyN8o1f2hGfQPmjCI5tc4SdbU0XuV3qG2-9mdmhyuQy9y3PrOhmQ56sbJooffkp9HHh2o58ewwncoXhEz6VKQjPC2vmOAVLm7thn-Y4exSPYp3M1FQz5GTN2x6KxCYNwWbIkiktop6u9lSfbuW3TJs8cGnlGgglhjxLqJbQ55zP6RA5vHXnIDtvFbY18sG8oyqBsGbWr2RtwOl9okv5iSfreCCxG4KHOcQFAmX9vUfoWiD8mUYvlEkmlhpynVCDyz5gMsxLtcxUK_YaR4tpm5cTvgoEh8DkY4ldCehYZ3q2Z3d_k1e5p1nub6jBA3yMfh2HZ6zVMXeRtLnBTlR4ft4NHcxysiqWdJGRhzNiMnzkaJ27VZivVvPDko26FiCOnxnDH43TlLvJZdiKB1CBRpwXhKIiclZOtvRmqhvEZSsFuX0ueNLE9B_DGPRIvDpbXc62TWQ-EWOz3dTEaSYJ6Sr2naF55EXayDrdc6Q0a-9TTmZOkjKZIS7-mnnl3Bzmln8aiwhUzzctMz24XMnbrRXyB2tdUb3RZhIuiwsmBCO6HTExUNwuUWVo3sSZs6JLfaoyQUfHVyB]--></g></svg>