<svg xmlns="http://www.w3.org/2000/svg" xmlns:xlink="http://www.w3.org/1999/xlink" contentStyleType="text/css" data-diagram-type="STATE" height="720px" preserveAspectRatio="none" style="width:757px;height:720px;background:#FFFFFF;" version="1.1" viewBox="0 0 757 720" width="757px" zoomAndPan="magnify"><defs/><g><g><rect fill="#F1F1F1" height="50" rx="12.5" ry="12.5" style="stroke:#181818;stroke-width:0.5;" width="181.9844" x="284.51" y="7"/><line style="stroke:#181818;stroke-width:0.5;" x1="284.51" x2="466.4944" y1="33.2969" y2="33.2969"/><text fill="#000000" font-family="sans-serif" font-size="14" lengthAdjust="spacing" textLength="161.9844" x="294.51" y="24.9951">PUBLICACION_ABIERTA</text></g><path d="M19.5,152 L731.5,152 A12.5,12.5 0 0 1 744,164.5 L744,178.2969 L7,178.2969 L7,164.5 A12.5,12.5 0 0 1 19.5,152" fill="#F1F1F1"/><rect fill="none" height="417.2969" rx="12.5" ry="12.5" style="stroke:#181818;stroke-width:0.5;" width="737" x="7" y="152"/><line style="stroke:#181818;stroke-width:0.5;" x1="7" x2="744" y1="178.2969" y2="178.2969"/><text fill="#000000" font-family="sans-serif" font-size="14" lengthAdjust="spacing" textLength="161.4512" x="294.7744" y="169.9951">responderPublicacion()</text><g><rect fill="#F1F1F1" height="50" rx="12.5" ry="12.5" style="stroke:#181818;stroke-width:0.5;" width="50" x="216" y="280.2969"/><line style="stroke:#181818;stroke-width:0.5;" x1="216" x2="266" y1="306.5938" y2="306.5938"/><text fill="#000000" font-family="sans-serif" font-size="14" lengthAdjust="spacing" textLength="4.4502" x="238.7749" y="298.292">&#160;</text></g><g><rect fill="#F1F1F1" height="50" rx="12.5" ry="12.5" style="stroke:#181818;stroke-width:0.5;" width="50" x="19" y="416.2969"/><line style="stroke:#181818;stroke-width:0.5;" x1="19" x2="69" y1="442.5938" y2="442.5938"/><text fill="#000000" font-family="sans-serif" font-size="14" lengthAdjust="spacing" textLength="4.4502" x="41.7749" y="434.292">&#160;</text></g><ellipse cx="241" cy="199.2969" fill="#222222" rx="10" ry="10" style="stroke:#222222;stroke-width:1;"/><ellipse cx="233" cy="548.2969" fill="none" rx="11" ry="11" style="stroke:#222222;stroke-width:1;"/><ellipse cx="233" cy="548.2969" fill="#222222" rx="6" ry="6" style="stroke:#222222;stroke-width:1;"/><!--link *start*responderPublicacion to IntroduciendoRespuesta--><g class="link" data-entity-1="ent0003" data-entity-2="ent0004" data-link-type="dependency" data-source-line="14" id="lnk4"><path d="M241,209.5269 C241,225.2369 241,251.6569 241,274.1669" fill="none" id="*start*responderPublicacion-to-IntroduciendoRespuesta" style="stroke:#008000;stroke-width:1;"/><polygon fill="#008000" points="241,280.1669,245,271.1669,241,275.1669,237,271.1669,241,280.1669" style="stroke:#008000;stroke-width:1;"/><path d="M246,232.2969 L246,257.2969 L557,257.2969 L557,242.2969 L547,232.2969 L246,232.2969" fill="#FEFFDD" style="stroke:#181818;stroke-width:0.5;"/><path d="M547,232.2969 L547,242.2969 L557,242.2969 L547,232.2969" fill="#FEFFDD" style="stroke:#181818;stroke-width:0.5;"/><text fill="#000000" font-family="sans-serif" font-size="13" font-weight="bold" lengthAdjust="spacing" textLength="92.5171" x="252" y="249.3638">Investigador</text><text fill="#000000" font-family="sans-serif" font-size="13" lengthAdjust="spacing" textLength="194.2256" x="348.6494" y="249.3638">solicita responder publicaci&#243;n</text></g><!--link IntroduciendoRespuesta to RespuestaRegistrada--><g class="link" data-entity-1="ent0004" data-entity-2="ent0005" data-link-type="dependency" data-source-line="19" id="lnk5"><path d="M215.59,312.2269 C165.98,323.8069 61,348.2969 61,348.2969 C61,348.2969 54.5887,382.9665 49.5587,410.2265" fill="none" id="IntroduciendoRespuesta-to-RespuestaRegistrada" style="stroke:#008000;stroke-width:1;"/><polygon fill="#008000" points="48.47,416.1269,54.0367,408.0021,49.3773,411.2099,46.1695,406.5505,48.47,416.1269" style="stroke:#008000;stroke-width:1;"/><path d="M66,353.2969 L66,393.2969 L420,393.2969 L420,363.2969 L410,353.2969 L66,353.2969" fill="#FEFFDD" style="stroke:#181818;stroke-width:0.5;"/><path d="M410,353.2969 L410,363.2969 L420,363.2969 L410,353.2969" fill="#FEFFDD" style="stroke:#181818;stroke-width:0.5;"/><text fill="#000000" font-family="sans-serif" font-size="13" font-weight="bold" lengthAdjust="spacing" textLength="58.9063" x="72" y="370.3638">Sistema</text><text fill="#000000" font-family="sans-serif" font-size="13" lengthAdjust="spacing" textLength="186.5132" x="135.0386" y="370.3638">permite introducir respuesta</text><text fill="#000000" font-family="sans-serif" font-size="13" font-weight="bold" lengthAdjust="spacing" textLength="92.5171" x="72" y="385.4966">Investigador</text><text fill="#000000" font-family="sans-serif" font-size="13" lengthAdjust="spacing" textLength="237.2246" x="168.6494" y="385.4966">introduce contenido y solicita enviar</text></g><!--link IntroduciendoRespuesta to *end*responderPublicacion--><g class="link" data-entity-1="ent0004" data-entity-2="ent0006" data-link-type="dependency" data-source-line="25" id="lnk7"><path d="M266.2,312.0469 C316.59,323.5469 425,348.2969 425,348.2969 C425,348.2969 425,519.2969 425,519.2969 C425,519.2969 291.0673,538.8319 250.0873,544.8019" fill="none" id="IntroduciendoRespuesta-to-*end*responderPublicacion" style="stroke:#FF0000;stroke-width:1;"/><polygon fill="#FF0000" points="244.15,545.6669,253.6326,548.3277,249.0978,544.9461,252.4794,540.4112,244.15,545.6669" style="stroke:#FF0000;stroke-width:1;"/><path d="M430,428.7969 L430,453.7969 L735,453.7969 L735,438.7969 L725,428.7969 L430,428.7969" fill="#FEFFDD" style="stroke:#181818;stroke-width:0.5;"/><path d="M725,428.7969 L725,438.7969 L735,438.7969 L725,428.7969" fill="#FEFFDD" style="stroke:#181818;stroke-width:0.5;"/><text fill="#000000" font-family="sans-serif" font-size="13" font-weight="bold" lengthAdjust="spacing" textLength="90.251" x="436" y="445.8638">Coordinador</text><text fill="#000000" font-family="sans-serif" font-size="13" lengthAdjust="spacing" textLength="189.6362" x="530.3833" y="445.8638">solicita cancelar la operaci&#243;n</text></g><!--link RespuestaRegistrada to *end*responderPublicacion--><g class="link" data-entity-1="ent0005" data-entity-2="ent0006" data-link-type="dependency" data-source-line="30" id="lnk8"><path d="M35.27,466.7269 C31.97,475.9669 29,484.2969 29,484.2969 C29,484.2969 29,519.2969 29,519.2969 C29,519.2969 173.7156,539.1618 216.0856,544.9718" fill="none" id="RespuestaRegistrada-to-*end*responderPublicacion" style="stroke:#008000;stroke-width:1;"/><polygon fill="#008000" points="222.03,545.7869,213.6569,540.6013,217.0764,545.1076,212.57,548.5271,222.03,545.7869" style="stroke:#008000;stroke-width:1;"/><path d="M34,489.2969 L34,514.2969 L420,514.2969 L420,499.2969 L410,489.2969 L34,489.2969" fill="#FEFFDD" style="stroke:#181818;stroke-width:0.5;"/><path d="M410,489.2969 L410,499.2969 L420,499.2969 L410,489.2969" fill="#FEFFDD" style="stroke:#181818;stroke-width:0.5;"/><text fill="#000000" font-family="sans-serif" font-size="13" font-weight="bold" lengthAdjust="spacing" textLength="58.9063" x="40" y="506.3638">Sistema</text><text fill="#000000" font-family="sans-serif" font-size="13" lengthAdjust="spacing" textLength="302.6436" x="103.0386" y="506.3638">presenta confirmaci&#243;n de respuesta publicada</text></g><g><rect fill="#F1F1F1" height="50" rx="12.5" ry="12.5" style="stroke:#181818;stroke-width:0.5;" width="208.6035" x="271.2" y="664.3"/><line style="stroke:#181818;stroke-width:0.5;" x1="271.2" x2="479.8035" y1="690.5969" y2="690.5969"/><text fill="#000000" font-family="sans-serif" font-size="14" lengthAdjust="spacing" textLength="188.6035" x="281.2" y="682.2951">PUBLICACIONES_ABIERTAS</text></g><!--link in2 to responderPublicacion--><g class="link" data-entity-1="ent0002" data-entity-2="ent0003" data-link-type="dependency" data-source-line="4" id="lnk2"><path d="M375.5,57.29 C375.5,79.17 375.5,107.67 375.5,145.66" fill="none" id="in2-to-responderPublicacion" style="stroke:#008000;stroke-width:1;"/><polygon fill="#008000" points="375.5,151.66,379.5,142.66,375.5,146.66,371.5,142.66,375.5,151.66" style="stroke:#008000;stroke-width:1;"/><path d="M380.5,92 L380.5,117 L550.5,117 L550.5,102 L540.5,92 L380.5,92" fill="#FEFFDD" style="stroke:#181818;stroke-width:0.5;"/><path d="M540.5,92 L540.5,102 L550.5,102 L540.5,92" fill="#FEFFDD" style="stroke:#181818;stroke-width:0.5;"/><text fill="#000000" font-family="sans-serif" font-size="13" lengthAdjust="spacing" textLength="149.9189" x="386.5" y="109.0669">responderPublicacion()</text></g><!--link responderPublicacion to PUBLICACIONES_ABIERTAS--><g class="link" data-entity-1="ent0003" data-entity-2="ent0009" data-link-type="dependency" data-source-line="37" id="lnk10"><path d="M375.5,569.45 C375.5,607.45 375.5,635.97 375.5,657.9" fill="none" id="responderPublicacion-to-PUBLICACIONES_ABIERTAS" style="stroke:#008000;stroke-width:1;"/><polygon fill="#008000" points="375.5,663.9,379.5,654.9,375.5,658.9,371.5,654.9,375.5,663.9" style="stroke:#008000;stroke-width:1;"/><path d="M380.5,604.3 L380.5,629.3 L530.5,629.3 L530.5,614.3 L520.5,604.3 L380.5,604.3" fill="#FEFFDD" style="stroke:#181818;stroke-width:0.5;"/><path d="M520.5,604.3 L520.5,614.3 L530.5,614.3 L520.5,604.3" fill="#FEFFDD" style="stroke:#181818;stroke-width:0.5;"/><text fill="#000000" font-family="sans-serif" font-size="13" lengthAdjust="spacing" textLength="129.0542" x="386.5" y="621.3669">abrirPublicaciones()</text></g><!--SRC=[bLFDQi904BxlKmpffIr8eMSHL3m4IYlQdaJA9ZkLmMGsJA8WfK_LH-YBTJSQOt0LJ4wR-MQ-dysKQ-92YyuX8yPgLo0KDjlvWr9bfIi4ucVG9KJJZz5BF1wEuxVNp-4edipUXv7onTxYRYM8lEmDGB0iB1kKwIR9ADKfMLPitHZBdcAjGeZx1uLimECQrX2ibX7kZ-1RAN3FlZjohmF7N8arcvJST3jpZHjqzNFSiJJ35PMLQAFtqnQFouwzAmCx9ls7VZA8UUlgjDB6Ilyf6K1fdMIgT6iFYiR6to_NVMqI_XHcx8WAgR-aQEu0cEjQJ86IKtt11mgfPRMMGWuQC49gkK8cOs7N-aBUafQRV0WQxy95VL7rs5ennESnfffJpBH0fi4wFnTZ36JKoV0QUoSpbn2oPxRyHPBl2S5W6rrpeuTREEhuKIhuytTqd2pPPDwisRoxGJeHEXs0vSd-_0C0]--></g></svg>