<svg xmlns="http://www.w3.org/2000/svg" xmlns:xlink="http://www.w3.org/1999/xlink" contentStyleType="text/css" data-diagram-type="STATE" height="690px" preserveAspectRatio="none" style="width:395px;height:690px;background:#FFFFFF;" version="1.1" viewBox="0 0 395 690" width="395px" zoomAndPan="magnify"><defs/><g><g><rect fill="#F1F1F1" height="50" rx="12.5" ry="12.5" style="stroke:#181818;stroke-width:0.5;" width="208.6035" x="90.2" y="7"/><line style="stroke:#181818;stroke-width:0.5;" x1="90.2" x2="298.8035" y1="33.2969" y2="33.2969"/><text fill="#000000" font-family="sans-serif" font-size="14" lengthAdjust="spacing" textLength="188.6035" x="100.2" y="24.9951">PUBLICACIONES_ABIERTAS</text></g><path d="M19.5,152 L369.5,152 A12.5,12.5 0 0 1 382,164.5 L382,178.2969 L7,178.2969 L7,164.5 A12.5,12.5 0 0 1 19.5,152" fill="#F1F1F1"/><rect fill="none" height="387.2969" rx="12.5" ry="12.5" style="stroke:#181818;stroke-width:0.5;" width="375" x="7" y="152"/><line style="stroke:#181818;stroke-width:0.5;" x1="7" x2="382" y1="178.2969" y2="178.2969"/><text fill="#000000" font-family="sans-serif" font-size="14" lengthAdjust="spacing" textLength="123.0742" x="132.9629" y="169.9951">abrirPublicacion()</text><g><rect fill="#F1F1F1" height="50" rx="12.5" ry="12.5" style="stroke:#181818;stroke-width:0.5;" width="50" x="19" y="280.2969"/><line style="stroke:#181818;stroke-width:0.5;" x1="19" x2="69" y1="306.5938" y2="306.5938"/><text fill="#000000" font-family="sans-serif" font-size="14" lengthAdjust="spacing" textLength="4.4502" x="41.7749" y="298.292">&#160;</text></g><ellipse cx="44" cy="199.2969" fill="#222222" rx="10" ry="10" style="stroke:#222222;stroke-width:1;"/><ellipse cx="44" cy="518.2969" fill="none" rx="11" ry="11" style="stroke:#222222;stroke-width:1;"/><ellipse cx="44" cy="518.2969" fill="#222222" rx="6" ry="6" style="stroke:#222222;stroke-width:1;"/><!--link *start*abrirPublicacion to MostrandoPublicacion--><g class="link" data-entity-1="ent0003" data-entity-2="ent0004" data-link-type="dependency" data-source-line="13" id="lnk4"><path d="M44,209.5269 C44,225.2369 44,251.6569 44,274.1669" fill="none" id="*start*abrirPublicacion-to-MostrandoPublicacion" style="stroke:#008000;stroke-width:1;"/><polygon fill="#008000" points="44,280.1669,48,271.1669,44,275.1669,40,271.1669,44,280.1669" style="stroke:#008000;stroke-width:1;"/><path d="M49,232.2969 L49,257.2969 L353,257.2969 L353,242.2969 L343,232.2969 L49,232.2969" fill="#FEFFDD" style="stroke:#181818;stroke-width:0.5;"/><path d="M343,232.2969 L343,242.2969 L353,242.2969 L343,232.2969" fill="#FEFFDD" style="stroke:#181818;stroke-width:0.5;"/><text fill="#000000" font-family="sans-serif" font-size="13" font-weight="bold" lengthAdjust="spacing" textLength="92.5171" x="55" y="249.3638">Investigador</text><text fill="#000000" font-family="sans-serif" font-size="13" lengthAdjust="spacing" textLength="187.167" x="151.6494" y="249.3638">solicita abrir una publicaci&#243;n</text></g><!--link MostrandoPublicacion to *end*abrirPublicacion--><g class="link" data-entity-1="ent0004" data-entity-2="ent0005" data-link-type="dependency" data-source-line="18" id="lnk6"><path d="M44,330.4969 C44,376.6169 44,469.3069 44,501.1569" fill="none" id="MostrandoPublicacion-to-*end*abrirPublicacion" style="stroke:#008000;stroke-width:1;"/><polygon fill="#008000" points="44,507.1569,48,498.1569,44,502.1569,40,498.1569,44,507.1569" style="stroke:#008000;stroke-width:1;"/><path d="M49,353.2969 L49,484.2969 L373,484.2969 L373,363.2969 L363,353.2969 L49,353.2969" fill="#FEFFDD" style="stroke:#181818;stroke-width:0.5;"/><path d="M363,353.2969 L363,363.2969 L373,363.2969 L363,353.2969" fill="#FEFFDD" style="stroke:#181818;stroke-width:0.5;"/><text fill="#000000" font-family="sans-serif" font-size="13" font-weight="bold" lengthAdjust="spacing" textLength="58.9063" x="55" y="370.3638">Sistema</text><text fill="#000000" font-family="sans-serif" font-size="13" lengthAdjust="spacing" textLength="240.5508" x="118.0386" y="370.3638">presenta contenido de la publicaci&#243;n</text><text fill="#000000" font-family="sans-serif" font-size="13" lengthAdjust="spacing" textLength="48.2549" x="55" y="385.4966">&#8226; T&#237;tulo</text><text fill="#000000" font-family="sans-serif" font-size="13" lengthAdjust="spacing" textLength="48.4834" x="55" y="400.6294">&#8226; Texto</text><text fill="#000000" font-family="sans-serif" font-size="13" lengthAdjust="spacing" textLength="47.3281" x="55" y="415.7622">&#8226; Autor</text><text fill="#000000" font-family="sans-serif" font-size="13" lengthAdjust="spacing" textLength="155.2446" x="55" y="430.895">&#8226; Respuestas asociadas</text><text fill="#000000" font-family="sans-serif" font-size="13" font-weight="bold" lengthAdjust="spacing" textLength="58.9063" x="55" y="446.0278">Sistema</text><text fill="#000000" font-family="sans-serif" font-size="13" lengthAdjust="spacing" textLength="110.5952" x="118.0386" y="446.0278">permite solicitar:</text><text fill="#000000" font-family="sans-serif" font-size="13" lengthAdjust="spacing" textLength="77.9556" x="55" y="461.1606">&#8226; responder</text><text fill="#000000" font-family="sans-serif" font-size="13" lengthAdjust="spacing" textLength="4.1323" x="55" y="476.2935">&#160;</text></g><g><rect fill="#F1F1F1" height="50" rx="12.5" ry="12.5" style="stroke:#181818;stroke-width:0.5;" width="181.9844" x="103.51" y="634.3"/><line style="stroke:#181818;stroke-width:0.5;" x1="103.51" x2="285.4944" y1="660.5969" y2="660.5969"/><text fill="#000000" font-family="sans-serif" font-size="14" lengthAdjust="spacing" textLength="161.9844" x="113.51" y="652.2951">PUBLICACION_ABIERTA</text></g><!--link in2 to abrirPublicacion--><g class="link" data-entity-1="ent0002" data-entity-2="ent0003" data-link-type="dependency" data-source-line="4" id="lnk2"><path d="M194.5,57.46 C194.5,79.48 194.5,108.12 194.5,145.82" fill="none" id="in2-to-abrirPublicacion" style="stroke:#008000;stroke-width:1;"/><polygon fill="#008000" points="194.5,151.82,198.5,142.82,194.5,146.82,190.5,142.82,194.5,151.82" style="stroke:#008000;stroke-width:1;"/><path d="M199.5,92 L199.5,117 L334.5,117 L334.5,102 L324.5,92 L199.5,92" fill="#FEFFDD" style="stroke:#181818;stroke-width:0.5;"/><path d="M324.5,92 L324.5,102 L334.5,102 L324.5,92" fill="#FEFFDD" style="stroke:#181818;stroke-width:0.5;"/><text fill="#000000" font-family="sans-serif" font-size="13" lengthAdjust="spacing" textLength="114.2832" x="205.5" y="109.0669">abrirPublicacion()</text></g><!--link abrirPublicacion to PUBLICACION_ABIERTA--><g class="link" data-entity-1="ent0003" data-entity-2="ent0007" data-link-type="dependency" data-source-line="33" id="lnk8"><path d="M194.5,539.59 C194.5,577.44 194.5,606.2 194.5,628.19" fill="none" id="abrirPublicacion-to-PUBLICACION_ABIERTA" style="stroke:#008000;stroke-width:1;"/><polygon fill="#008000" points="194.5,634.19,198.5,625.19,194.5,629.19,190.5,625.19,194.5,634.19" style="stroke:#008000;stroke-width:1;"/><path d="M199.5,574.3 L199.5,599.3 L369.5,599.3 L369.5,584.3 L359.5,574.3 L199.5,574.3" fill="#FEFFDD" style="stroke:#181818;stroke-width:0.5;"/><path d="M359.5,574.3 L359.5,584.3 L369.5,584.3 L359.5,574.3" fill="#FEFFDD" style="stroke:#181818;stroke-width:0.5;"/><text fill="#000000" font-family="sans-serif" font-size="13" lengthAdjust="spacing" textLength="149.9189" x="205.5" y="591.3669">responderPublicacion()</text></g><!--SRC=[TLBBQiCm4BphAnRtqXP2eSSI0ax8mT17ID9J24MsbY3Yx1f9BWsbq6_flQT-GlwaNr8fnawSkD9ffDcPqMhjMbCXZTn0hWdTja0eEDy688HrqY5ekWLf8Pey3- -JKJnAdXx7ivTuc8odytWMYN3VMroi328jUmEGgT5cKgQvpcIccGInLs4A3cjnUdjv9P0K14vjU4hPkv_NHV0k1FXLLKL-U-83MsSaAJvEiASjhfUjd9tCG6pb3GVzT93GArgdLrAnwT-a0x3iQxIJLLeeIK9Hw-n-Ag73mmBgyci5yW7_zPzfwt0ZzzQ5GOlahJCcXwGLWqB8EmByVdx1VFVjofmF6D_S0SMbOzEWATgYzE_qVPIMCosLj9q9q6oq3ratmTmr4ZvRmQIm4cstuKFuTVQxnoquch5wmjhZqyXtZz0V]--></g></svg>