<?plantuml 1.2026.2?><svg xmlns="http://www.w3.org/2000/svg" xmlns:xlink="http://www.w3.org/1999/xlink" contentStyleType="text/css" data-diagram-type="DESCRIPTION" height="313px" preserveAspectRatio="none" style="width:1050px;height:313px;background:#FFFFFF;" version="1.1" viewBox="0 0 1050 313" width="1050px" zoomAndPan="magnify"><defs/><g><!--cluster eliminarProyecto--><g class="cluster" data-qualified-name="eliminarProyecto" data-source-line="10" id="ent0004"><path d="M8.5,6 L136.0215,6 A3.75,3.75 0 0 1 138.5215,8.5 L145.5215,25.9688 L687.5,25.9688 A2.5,2.5 0 0 1 690,28.4688 L690,303.5 A2.5,2.5 0 0 1 687.5,306 L8.5,306 A2.5,2.5 0 0 1 6,303.5 L6,8.5 A2.5,2.5 0 0 1 8.5,6" fill="none" style="stroke:#000000;stroke-width:1.5;"/><line style="stroke:#000000;stroke-width:1.5;" x1="6" x2="145.5215" y1="25.9688" y2="25.9688"/><text fill="#000000" font-family="sans-serif" font-size="12" font-weight="bold" lengthAdjust="spacing" textLength="126.5215" x="10" y="19.1387">eliminarProyecto()</text></g><!--entity EliminarProyectoView--><g class="entity" data-qualified-name="eliminarProyecto.EliminarProyectoView" data-source-line="11" id="ent0005"><rect fill="#629EF9" height="33.9688" rx="2.5" ry="2.5" style="stroke:#181818;stroke-width:0.5;" width="150.5469" x="522.5" y="38"/><text fill="#000000" font-family="sans-serif" font-size="12" lengthAdjust="spacing" textLength="130.5469" x="532.5" y="59.1387">EliminarProyectoView</text></g><!--entity ProyectoController--><g class="entity" data-qualified-name="eliminarProyecto.ProyectoController" data-source-line="12" id="ent0006"><rect fill="#B5BD68" height="33.9688" rx="2.5" ry="2.5" style="stroke:#181818;stroke-width:0.5;" width="131.9316" x="248" y="147"/><text fill="#000000" font-family="sans-serif" font-size="12" lengthAdjust="spacing" textLength="111.9316" x="258" y="168.1387">ProyectoController</text></g><!--entity ProyectoRepository--><g class="entity" data-qualified-name="eliminarProyecto.ProyectoRepository" data-source-line="13" id="ent0007"><rect fill="#F2AC4E" height="33.9688" rx="2.5" ry="2.5" style="stroke:#181818;stroke-width:0.5;" width="136.9883" x="126.5" y="256"/><text fill="#000000" font-family="sans-serif" font-size="12" lengthAdjust="spacing" textLength="116.9883" x="136.5" y="277.1387">ProyectoRepository</text></g><!--entity EntregableRepository--><g class="entity" data-qualified-name="eliminarProyecto.EntregableRepository" data-source-line="14" id="ent0008"><rect fill="#F2AC4E" height="33.9688" rx="2.5" ry="2.5" style="stroke:#181818;stroke-width:0.5;" width="149.8613" x="403" y="256"/><text fill="#000000" font-family="sans-serif" font-size="12" lengthAdjust="spacing" textLength="129.8613" x="413" y="277.1387">EntregableRepository</text></g><!--entity ProyectoAbierto--><g class="entity" data-qualified-name="ProyectoAbierto" data-source-line="7" id="ent0002"><rect fill="#CDEBA5" height="33.9688" rx="2.5" ry="2.5" style="stroke:#181818;stroke-width:0.5;" width="143.7617" x="706" y="147"/><text fill="#000000" font-family="sans-serif" font-size="12" lengthAdjust="spacing" textLength="123.7617" x="716" y="168.1387">PROYECTO_ABIERTO</text></g><!--entity ProyectosAbiertos--><g class="entity" data-qualified-name="ProyectosAbiertos" data-source-line="8" id="ent0003"><rect fill="#CDEBA5" height="33.9688" rx="2.5" ry="2.5" style="stroke:#181818;stroke-width:0.5;" width="158.9961" x="885.5" y="147"/><text fill="#000000" font-family="sans-serif" font-size="12" lengthAdjust="spacing" textLength="138.9961" x="895.5" y="168.1387">PROYECTOS_ABIERTOS</text></g><!--link ProyectoAbierto to EliminarProyectoView--><g class="link" data-entity-1="ent0002" data-entity-2="ent0005" data-link-type="dependency" data-source-line="17" id="lnk9"><path d="M737.78,146.91 C704.62,133.65 663,117 663,117 C663,117 638.7157,94.2053 619.4557,76.1353" fill="none" id="ProyectoAbierto-to-EliminarProyectoView" style="stroke:#181818;stroke-width:1;"/><polygon fill="#181818" points="615.08,72.03,618.9066,81.1051,618.7264,75.4511,624.3804,75.2709,615.08,72.03" style="stroke:#181818;stroke-width:1;"/><text fill="#000000" font-family="sans-serif" font-size="12" lengthAdjust="spacing" textLength="110.9707" x="664" y="114.1387">eliminarProyecto()</text></g><!--link EliminarProyectoView to ProyectoAbierto--><g class="link" data-entity-1="ent0005" data-entity-2="ent0002" data-link-type="dependency" data-source-line="27" id="lnk16"><path d="M661.05,72.02 C713.29,85.3 779,102 779,102 C779,102 779,117 779,117 C779,117 778.7712,127.6514 778.4812,140.9114" fill="none" id="EliminarProyectoView-to-ProyectoAbierto" style="stroke:#181818;stroke-width:1;stroke-dasharray:7,7;"/><polygon fill="#181818" points="778.35,146.91,782.5458,137.9996,778.4593,141.9112,774.5477,137.8247,778.35,146.91" style="stroke:#181818;stroke-width:1;"/><text fill="#000000" font-family="sans-serif" font-size="12" lengthAdjust="spacing" textLength="65.8418" x="780" y="114.1387">&#171;cancelar&#187;</text></g><!--link EliminarProyectoView to ProyectoController--><g class="link" data-entity-1="ent0005" data-entity-2="ent0006" data-link-type="dependency" data-source-line="19" id="lnk10"><path d="M522.28,65.81 C418.02,79.32 243,102 243,102 C243,102 243,117 243,117 C243,117 263.6535,130.3891 284.1335,143.6491" fill="none" id="EliminarProyectoView-to-ProyectoController" style="stroke:#181818;stroke-width:1;"/><polygon fill="#181818" points="289.17,146.91,283.7892,138.6609,284.9729,144.1926,279.4413,145.3763,289.17,146.91" style="stroke:#181818;stroke-width:1;"/><text fill="#000000" font-family="sans-serif" font-size="12" lengthAdjust="spacing" textLength="136.2891" x="244" y="114.1387">solicitarConfirmacion()</text></g><!--link EliminarProyectoView to ProyectoController--><g class="link" data-entity-1="ent0005" data-entity-2="ent0006" data-link-type="dependency" data-source-line="22" id="lnk12"><path d="M542.04,72.09 C495.9,85.35 438,102 438,102 C438,102 388.704,126.2519 351.964,144.3219" fill="none" id="EliminarProyectoView-to-ProyectoController-1" style="stroke:#181818;stroke-width:1;"/><polygon fill="#181818" points="346.58,146.97,356.4214,146.5873,351.0667,144.7633,352.8907,139.4086,346.58,146.97" style="stroke:#181818;stroke-width:1;"/><text fill="#000000" font-family="sans-serif" font-size="12" lengthAdjust="spacing" textLength="200.666" x="439" y="114.1387">confirmarEliminacion(proyectoId)</text></g><!--link ProyectoController to ProyectoRepository--><g class="link" data-entity-1="ent0006" data-entity-2="ent0007" data-link-type="dependency" data-source-line="20" id="lnk11"><path d="M247.72,176.73 C170.69,190.36 54,211 54,211 C54,211 54,226 54,226 C54,226 99.3155,240.7901 139.9855,254.0501" fill="none" id="ProyectoController-to-ProyectoRepository" style="stroke:#181818;stroke-width:1;"/><polygon fill="#181818" points="145.69,255.91,138.3732,249.3172,140.9363,254.3601,135.8934,256.9232,145.69,255.91" style="stroke:#181818;stroke-width:1;"/><text fill="#000000" font-family="sans-serif" font-size="12" lengthAdjust="spacing" textLength="215.4902" x="55" y="223.1387">obtenerPorId(proyectoId) : Proyecto</text></g><!--link ProyectoController to ProyectoRepository--><g class="link" data-entity-1="ent0006" data-entity-2="ent0007" data-link-type="dependency" data-source-line="24" id="lnk14"><path d="M303.75,181.03 C292.2,199.1 275,226 275,226 C275,226 251.2519,239.6601 228.1819,252.9201" fill="none" id="ProyectoController-to-ProyectoRepository-1" style="stroke:#181818;stroke-width:1;"/><polygon fill="#181818" points="222.98,255.91,232.7762,254.8931,227.315,253.4184,228.7896,247.9571,222.98,255.91" style="stroke:#181818;stroke-width:1;"/><text fill="#000000" font-family="sans-serif" font-size="12" lengthAdjust="spacing" textLength="122.5078" x="286" y="223.1387">eliminar(proyectoId)</text></g><!--link ProyectoController to EntregableRepository--><g class="link" data-entity-1="ent0006" data-entity-2="ent0008" data-link-type="dependency" data-source-line="23" id="lnk13"><path d="M350.02,181.09 C379.73,194.35 417,211 417,211 C417,211 439.6574,233.6574 457.7274,251.7274" fill="none" id="ProyectoController-to-EntregableRepository" style="stroke:#181818;stroke-width:1;"/><polygon fill="#181818" points="461.97,255.97,458.4345,246.7776,458.4345,252.4345,452.7776,252.4345,461.97,255.97" style="stroke:#181818;stroke-width:1;"/><text fill="#000000" font-family="sans-serif" font-size="12" lengthAdjust="spacing" textLength="194.6602" x="433" y="223.1387">eliminarPorProyecto(proyectoId)</text></g><!--link EliminarProyectoView to ProyectosAbiertos--><g class="link" data-entity-1="ent0005" data-entity-2="ent0003" data-link-type="dependency" data-source-line="26" id="lnk15"><path d="M673.77,69.61 C749.26,83.18 854,102 854,102 C854,102 897.6914,126.0109 930.5814,144.0809" fill="none" id="EliminarProyectoView-to-ProyectosAbiertos" style="stroke:#181818;stroke-width:1;stroke-dasharray:7,7;"/><polygon fill="#181818" points="935.84,146.97,929.8782,139.1306,931.4578,144.5624,926.026,146.1421,935.84,146.97" style="stroke:#181818;stroke-width:1;"/><text fill="#000000" font-family="sans-serif" font-size="12" lengthAdjust="spacing" textLength="62.4551" x="881" y="114.1387">&#171;finalizar&#187;</text></g><?plantuml-src bPD1R-8m48Nl_XKZkBG7a8hQQXjLI906YHC8gfLwgfna25QD9ngxGdIr_tqD6mW9xcwRMpplVNxpejWtPKh9SWEfpDuAfdUJnwI9ORjM3eKzpUrQvhHLfe2LrFPyyeGh-QxTX8pxQqsrPuK5I_M1S3Cu6sfbqErAX9BqRlyY16Fcf2aqGZT-IiQZE-ZC5xEN97wUlOx6qsJnFEk0j31dsdafZLA5xEXVlkNHk6muRMMrGfG-iomGEgZLHXd9HytLzS7IFePV0lnJtzb9MegV2hS7QsW0tVl1Gp9vQ4EEcjYNnQGrSYDmVGpTz2xDxtzy1bXWILOvubq3K1z3Tp8OnRV9nHh-1Ynagh6520rEaDz2j3u7zBWt3EuUmMN7GWHRwkMUSRby19QqofIJx0zNYZSoKsGy9b1KWr57Zu1IXmPvJZpDhyfACCsl8Jh9lnihgz9mPJkaEaD_cYzKxbbFL5Vr5LfesoEh0GYlr-yFBt-H21uVLrwgrOVauV3_piguzsNIPAZtjZy0?></g></svg>