<?xml version="1.0" encoding="us-ascii" standalone="no"?><svg xmlns="http://www.w3.org/2000/svg" xmlns:xlink="http://www.w3.org/1999/xlink" contentStyleType="text/css" height="265px" preserveAspectRatio="none" style="width:521px;height:265px;background:#FFFFFF;" version="1.1" viewBox="0 0 521 265" width="521px" zoomAndPan="magnify"><defs/><g><line style="stroke:#AAAAAA;stroke-width:1.0;" x1="6" x2="514" y1="8.5" y2="8.5"/><line style="stroke:#AAAAAA;stroke-width:1.0;" x1="6" x2="514" y1="10.5" y2="10.5"/><text fill="#000000" font-family="sans-serif" font-size="12" font-weight="bold" lengthAdjust="spacing" textLength="137" x="6" y="26.457">GIPF - PANEL PRINCIPAL</text><line style="stroke:#AAAAAA;stroke-width:1.0;" x1="6" x2="514" y1="33.5938" y2="33.5938"/><line style="stroke:#AAAAAA;stroke-width:1.0;" x1="6" x2="514" y1="35.5938" y2="35.5938"/><text fill="#000000" font-family="sans-serif" font-size="12" lengthAdjust="spacing" textLength="64" x="7" y="67.6445">Bienvenido,</text><text fill="#000000" font-family="sans-serif" font-size="12" font-weight="bold" lengthAdjust="spacing" textLength="70" x="74" y="67.6445">Investigador</text><text fill="#000000" font-family="sans-serif" font-size="12" lengthAdjust="spacing" textLength="114" x="7" y="101.832">Accesos principales:</text><rect fill="#EEEEEE" height="19.0938" rx="5" ry="5" style="stroke:#000000;stroke-width:2.5;" width="76" x="10.5" y="109.9688"/><text fill="#000000" font-family="sans-serif" font-size="12" lengthAdjust="spacing" textLength="54" x="21.5" y="124.4258">Proyectos</text><rect fill="#EEEEEE" height="19.0938" rx="5" ry="5" style="stroke:#000000;stroke-width:2.5;" width="116" x="93.5" y="109.9688"/><text fill="#000000" font-family="sans-serif" font-size="12" lengthAdjust="spacing" textLength="81" x="111" y="124.4258">Investigadores</text><rect fill="#EEEEEE" height="19.0938" rx="5" ry="5" style="stroke:#000000;stroke-width:2.5;" width="92" x="216.5" y="109.9688"/><text fill="#000000" font-family="sans-serif" font-size="12" lengthAdjust="spacing" textLength="82" x="221.5" y="124.4258">Recompensas</text><text fill="#000000" font-family="sans-serif" font-size="12" lengthAdjust="spacing" textLength="81" x="7" y="164.1133">Publicaciones:</text><rect fill="#EEEEEE" height="19.0938" rx="5" ry="5" style="stroke:#000000;stroke-width:2.5;" width="140" x="10.5" y="172.25"/><text fill="#000000" font-family="sans-serif" font-size="12" lengthAdjust="spacing" textLength="99" x="31" y="186.707">Mis publicaciones</text><rect fill="#EEEEEE" height="19.0938" rx="5" ry="5" style="stroke:#000000;stroke-width:2.5;" width="108" x="157.5" y="172.25"/><text fill="#000000" font-family="sans-serif" font-size="12" lengthAdjust="spacing" textLength="78" x="172.5" y="186.707">Publicaciones</text><text fill="#000000" font-family="sans-serif" font-size="12" lengthAdjust="spacing" textLength="44" x="7" y="226.3945">Ajustes:</text><rect fill="#EEEEEE" height="19.0938" rx="5" ry="5" style="stroke:#000000;stroke-width:2.5;" width="148" x="10.5" y="234.5313"/><text fill="#000000" font-family="sans-serif" font-size="12" lengthAdjust="spacing" textLength="100" x="34.5" y="248.9883">Opciones de perfil</text><rect fill="#EEEEEE" height="19.0938" rx="5" ry="5" style="stroke:#000000;stroke-width:2.5;" width="228" x="165.5" y="234.5313"/><text fill="#000000" font-family="sans-serif" font-size="12" lengthAdjust="spacing" textLength="162" x="198.5" y="248.9883">Opciones de carga de trabajo</text><rect fill="#EEEEEE" height="19.0938" rx="5" ry="5" style="stroke:#000000;stroke-width:2.5;" width="108" x="400.5" y="234.5313"/><text fill="#000000" font-family="sans-serif" font-size="12" lengthAdjust="spacing" textLength="76" x="416.5" y="248.9883">Cerrar sesi&#243;n</text><line style="stroke:#000000;stroke-width:1.0;" x1="6" x2="513" y1="46.6406" y2="46.6406"/><line style="stroke:#000000;stroke-width:1.0;" x1="6" x2="513" y1="258.125" y2="258.125"/><line style="stroke:#000000;stroke-width:1.0;" x1="6" x2="6" y1="46.6406" y2="71.2813"/><line style="stroke:#000000;stroke-width:1.0;" x1="513" x2="513" y1="46.6406" y2="71.2813"/><line style="stroke:#000000;stroke-width:1.0;" x1="6" x2="6" y1="230.0313" y2="258.125"/><line style="stroke:#000000;stroke-width:1.0;" x1="513" x2="513" y1="230.0313" y2="258.125"/><line style="stroke:#000000;stroke-width:1.0;" x1="6" x2="6" y1="195.8438" y2="212.9375"/><line style="stroke:#000000;stroke-width:1.0;" x1="513" x2="513" y1="195.8438" y2="212.9375"/><line style="stroke:#000000;stroke-width:1.0;" x1="6" x2="6" y1="150.6563" y2="167.75"/><line style="stroke:#000000;stroke-width:1.0;" x1="513" x2="513" y1="150.6563" y2="167.75"/><line style="stroke:#000000;stroke-width:1.0;" x1="6" x2="6" y1="105.4688" y2="133.5625"/><line style="stroke:#000000;stroke-width:1.0;" x1="513" x2="513" y1="105.4688" y2="133.5625"/><line style="stroke:#000000;stroke-width:1.0;" x1="6" x2="6" y1="71.2813" y2="88.375"/><line style="stroke:#000000;stroke-width:1.0;" x1="513" x2="513" y1="71.2813" y2="88.375"/><line style="stroke:#000000;stroke-width:1.0;" x1="6" x2="6" y1="212.9375" y2="230.0313"/><line style="stroke:#000000;stroke-width:1.0;" x1="513" x2="513" y1="212.9375" y2="230.0313"/><line style="stroke:#000000;stroke-width:1.0;" x1="6" x2="6" y1="167.75" y2="195.8438"/><line style="stroke:#000000;stroke-width:1.0;" x1="513" x2="513" y1="167.75" y2="195.8438"/><line style="stroke:#000000;stroke-width:1.0;" x1="6" x2="6" y1="133.5625" y2="150.6563"/><line style="stroke:#000000;stroke-width:1.0;" x1="513" x2="513" y1="133.5625" y2="150.6563"/><line style="stroke:#000000;stroke-width:1.0;" x1="6" x2="6" y1="88.375" y2="105.4688"/><line style="stroke:#000000;stroke-width:1.0;" x1="513" x2="513" y1="88.375" y2="105.4688"/><rect fill="#FFFFFF" height="15.0938" style="stroke:#FFFFFF;stroke-width:1.0;" width="88" x="12" y="39.0938"/><text fill="#000000" font-family="sans-serif" font-size="12" lengthAdjust="spacing" textLength="82" x="15" y="51.5508">Panel principal</text><!--SRC=[VPB1Jjj048Rl-nGZJY0rQKX3LLaK4OA3aZgm2e4Bej9uFN4NERlHxDeLIlDKVOI-MDT6c51LcTFip3_VFrhDkVF8tc7X0LFMBD5G8LaRfTTOT7vgfYNZYiH6G8Yl8PhaD3sxciWnT40Eh-C4v7noFPh8ONBwCJrxBzryFu062-jNBXmqdJekD9cAZCxiXnew2G_dTOwPvGRL2hjjDbIAd7LlE79HszoqMHqFakqpAM_T8_o2XrqwlPJcfEngJSQXUsn7j_znbMLQQ8LAMxF7RwR3NhlAnkJTx7wRuLFf_1w3c_KB1JA2DV5I5ut3RbaXvrWddZ759zi8HiIC38wS_lFR_Bl3Lcp5EPciFWGXP876tyqIg8XTmC9njz_h3xgV3XS_IXXJ2iSdqEz5WrxKEu5Hl82wVIGEhsHIzS7PaXL1ffrddPO-48x452k4UMcyNb44D-77fvVVNWiGcqgpDIioNaplPs-2puFEXVPmInnsWVkPkAGbbk5QOwDifaqUmTrYtFaY4ZHvYNbWanCZ6xZy745y-nS0]--></g></svg>