<svg xmlns="http://www.w3.org/2000/svg" xmlns:xlink="http://www.w3.org/1999/xlink" contentStyleType="text/css" data-diagram-type="STATE" height="780px" preserveAspectRatio="none" style="width:690px;height:780px;background:#FFFFFF;" version="1.1" viewBox="0 0 690 780" width="690px" zoomAndPan="magnify"><defs/><g><g><rect fill="#F1F1F1" height="50" rx="12.5" ry="12.5" style="stroke:#181818;stroke-width:0.5;" width="215.043" x="57.36" y="7"/><line style="stroke:#181818;stroke-width:0.5;" x1="57.36" x2="272.403" y1="33.2969" y2="33.2969"/><text fill="#000000" font-family="sans-serif" font-size="14" lengthAdjust="spacing" textLength="195.043" x="67.36" y="24.9951">OPCIONES_PERFIL_ABIERTO</text></g><g><rect fill="#F1F1F1" height="50" rx="12.5" ry="12.5" style="stroke:#181818;stroke-width:0.5;" width="315.7568" x="307" y="7"/><line style="stroke:#181818;stroke-width:0.5;" x1="307" x2="622.7568" y1="33.2969" y2="33.2969"/><text fill="#000000" font-family="sans-serif" font-size="14" lengthAdjust="spacing" textLength="295.7568" x="317" y="24.9951">SOLICITUD_ELIMINACION_PERFIL_ABIERTA</text></g><path d="M78.38,152 L551.38,152 A12.5,12.5 0 0 1 563.88,164.5 L563.88,178.2969 L65.88,178.2969 L65.88,164.5 A12.5,12.5 0 0 1 78.38,152" fill="#F1F1F1"/><rect fill="none" height="477.2969" rx="12.5" ry="12.5" style="stroke:#181818;stroke-width:0.5;" width="498" x="65.88" y="152"/><line style="stroke:#181818;stroke-width:0.5;" x1="65.88" x2="563.88" y1="178.2969" y2="178.2969"/><text fill="#000000" font-family="sans-serif" font-size="14" lengthAdjust="spacing" textLength="235.915" x="196.9225" y="169.9951">abrirSolicitudesEliminacionPerfil()</text><g><rect fill="#F1F1F1" height="50" rx="12.5" ry="12.5" style="stroke:#181818;stroke-width:0.5;" width="50" x="77.88" y="280.2969"/><line style="stroke:#181818;stroke-width:0.5;" x1="77.88" x2="127.88" y1="306.5938" y2="306.5938"/><text fill="#000000" font-family="sans-serif" font-size="14" lengthAdjust="spacing" textLength="4.4502" x="100.6549" y="298.292">&#160;</text></g><g><rect fill="#F1F1F1" height="50" rx="12.5" ry="12.5" style="stroke:#181818;stroke-width:0.5;" width="50" x="77.88" y="476.2969"/><line style="stroke:#181818;stroke-width:0.5;" x1="77.88" x2="127.88" y1="502.5938" y2="502.5938"/><text fill="#000000" font-family="sans-serif" font-size="14" lengthAdjust="spacing" textLength="4.4502" x="100.6549" y="494.292">&#160;</text></g><ellipse cx="102.88" cy="199.2969" fill="#222222" rx="10" ry="10" style="stroke:#222222;stroke-width:1;"/><ellipse cx="102.88" cy="608.2969" fill="none" rx="11" ry="11" style="stroke:#222222;stroke-width:1;"/><ellipse cx="102.88" cy="608.2969" fill="#222222" rx="6" ry="6" style="stroke:#222222;stroke-width:1;"/><!--link *start*abrirSolicitudesEliminacionPerfil to MostrandoLista--><g class="link" data-entity-1="ent0004" data-entity-2="ent0005" data-link-type="dependency" data-source-line="22" id="lnk5"><path d="M102.88,209.5269 C102.88,225.2369 102.88,251.6569 102.88,274.1669" fill="none" id="*start*abrirSolicitudesEliminacionPerfil-to-MostrandoLista" style="stroke:#008000;stroke-width:1;"/><polygon fill="#008000" points="102.88,280.1669,106.88,271.1669,102.88,275.1669,98.88,271.1669,102.88,280.1669" style="stroke:#008000;stroke-width:1;"/><path d="M107.88,232.2969 L107.88,257.2969 L492.88,257.2969 L492.88,242.2969 L482.88,232.2969 L107.88,232.2969" fill="#FEFFDD" style="stroke:#181818;stroke-width:0.5;"/><path d="M482.88,232.2969 L482.88,242.2969 L492.88,242.2969 L482.88,232.2969" fill="#FEFFDD" style="stroke:#181818;stroke-width:0.5;"/><text fill="#000000" font-family="sans-serif" font-size="13" font-weight="bold" lengthAdjust="spacing" textLength="90.251" x="113.88" y="249.3638">Coordinador</text><text fill="#000000" font-family="sans-serif" font-size="13" lengthAdjust="spacing" textLength="269.9404" x="208.2633" y="249.3638">solicita abrir solicitudes eliminacion perfil</text></g><!--link MostrandoLista to FiltrandoLista--><g class="link" data-entity-1="ent0005" data-entity-2="ent0006" data-link-type="dependency" data-source-line="27" id="lnk6"><path d="M102.88,330.4769 C102.88,367.6469 102.88,432.4569 102.88,469.8169" fill="none" id="MostrandoLista-to-FiltrandoLista" style="stroke:#008000;stroke-width:1;"/><polygon fill="#008000" points="102.88,475.8169,106.88,466.8169,102.88,470.8169,98.88,466.8169,102.88,475.8169" style="stroke:#008000;stroke-width:1;"/><path d="M107.88,353.2969 L107.88,453.2969 L554.88,453.2969 L554.88,363.2969 L544.88,353.2969 L107.88,353.2969" fill="#FEFFDD" style="stroke:#181818;stroke-width:0.5;"/><path d="M544.88,353.2969 L544.88,363.2969 L554.88,363.2969 L544.88,353.2969" fill="#FEFFDD" style="stroke:#181818;stroke-width:0.5;"/><text fill="#000000" font-family="sans-serif" font-size="13" font-weight="bold" lengthAdjust="spacing" textLength="58.9063" x="113.88" y="370.3638">Sistema</text><text fill="#000000" font-family="sans-serif" font-size="13" lengthAdjust="spacing" textLength="310.4321" x="176.9186" y="370.3638">presenta las solicitudes de eliminacion de perfil</text><text fill="#000000" font-family="sans-serif" font-size="13" lengthAdjust="spacing" textLength="277.3799" x="113.88" y="385.4966">&#8226; ID, nombre, campo de cada investigador</text><text fill="#000000" font-family="sans-serif" font-size="13" lengthAdjust="spacing" textLength="239.2622" x="113.88" y="400.6294">&#8226; Permite solicitar abrir una solicitud</text><text fill="#000000" font-family="sans-serif" font-size="13" lengthAdjust="spacing" textLength="316.583" x="113.88" y="415.7622">&#8226; Permite solicitar volver a las opciones de perfil</text><text fill="#000000" font-family="sans-serif" font-size="13" lengthAdjust="spacing" textLength="426.8926" x="113.88" y="430.895">&#8226; Permite solicitar volver a las solicitudes de eliminacion de perfil</text><text fill="#000000" font-family="sans-serif" font-size="13" lengthAdjust="spacing" textLength="4.1323" x="113.88" y="446.0278">&#160;</text></g><!--link FiltrandoLista to *end*abrirSolicitudesEliminacionPerfil--><g class="link" data-entity-1="ent0006" data-entity-2="ent0007" data-link-type="dependency" data-source-line="37" id="lnk8"><path d="M102.88,526.6469 C102.88,548.9469 102.88,574.8569 102.88,591.0369" fill="none" id="FiltrandoLista-to-*end*abrirSolicitudesEliminacionPerfil" style="stroke:#008000;stroke-width:1;"/><polygon fill="#008000" points="102.88,597.0369,106.88,588.0369,102.88,592.0369,98.88,588.0369,102.88,597.0369" style="stroke:#008000;stroke-width:1;"/><path d="M107.88,549.2969 L107.88,574.2969 L401.88,574.2969 L401.88,559.2969 L391.88,549.2969 L107.88,549.2969" fill="#FEFFDD" style="stroke:#181818;stroke-width:0.5;"/><path d="M391.88,549.2969 L391.88,559.2969 L401.88,559.2969 L391.88,549.2969" fill="#FEFFDD" style="stroke:#181818;stroke-width:0.5;"/><text fill="#000000" font-family="sans-serif" font-size="13" font-weight="bold" lengthAdjust="spacing" textLength="90.251" x="113.88" y="566.3638">Coordinador</text><text fill="#000000" font-family="sans-serif" font-size="13" lengthAdjust="spacing" textLength="179.2769" x="208.2633" y="566.3638">solicita una de las opciones</text></g><g><rect fill="#F1F1F1" height="50" rx="12.5" ry="12.5" style="stroke:#181818;stroke-width:0.5;" width="315.7568" x="7" y="724.3"/><line style="stroke:#181818;stroke-width:0.5;" x1="7" x2="322.7568" y1="750.5969" y2="750.5969"/><text fill="#000000" font-family="sans-serif" font-size="14" lengthAdjust="spacing" textLength="295.7568" x="17" y="742.2951">SOLICITUD_ELIMINACION_PERFIL_ABIERTA</text></g><g><rect fill="#F1F1F1" height="50" rx="12.5" ry="12.5" style="stroke:#181818;stroke-width:0.5;" width="215.043" x="357.36" y="724.3"/><line style="stroke:#181818;stroke-width:0.5;" x1="357.36" x2="572.403" y1="750.5969" y2="750.5969"/><text fill="#000000" font-family="sans-serif" font-size="14" lengthAdjust="spacing" textLength="195.043" x="367.36" y="742.2951">OPCIONES_PERFIL_ABIERTO</text></g><!--link in1 to abrirSolicitudesEliminacionPerfil--><g class="link" data-entity-1="ent0002" data-entity-2="ent0004" data-link-type="dependency" data-source-line="4" id="lnk2"><path d="M166.79,57.32 C168.86,83.67 171.88,122 171.88,122 C171.88,122 175.1822,128.1881 184.9022,146.3781" fill="none" id="in1-to-abrirSolicitudesEliminacionPerfil" style="stroke:#0000FF;stroke-width:1;"/><polygon fill="#0000FF" points="187.73,151.67,187.0163,141.847,185.3735,147.2601,179.9605,145.6174,187.73,151.67" style="stroke:#0000FF;stroke-width:1;"/><path d="M176.88,92 L176.88,117 L416.88,117 L416.88,102 L406.88,92 L176.88,92" fill="#FEFFDD" style="stroke:#181818;stroke-width:0.5;"/><path d="M406.88,92 L406.88,102 L416.88,102 L406.88,92" fill="#FEFFDD" style="stroke:#181818;stroke-width:0.5;"/><text fill="#000000" font-family="sans-serif" font-size="13" lengthAdjust="spacing" textLength="219.064" x="182.88" y="109.0669">abrirSolicitudesEliminacionPerfil()</text></g><!--link in2 to abrirSolicitudesEliminacionPerfil--><g class="link" data-entity-1="ent0003" data-entity-2="ent0004" data-link-type="dependency" data-source-line="11" id="lnk3"><path d="M454.69,57.24 C445.55,78.95 433.4556,107.7091 417.2756,146.1891" fill="none" id="in2-to-abrirSolicitudesEliminacionPerfil" style="stroke:#008000;stroke-width:1;"/><polygon fill="#008000" points="414.95,151.72,422.1258,144.974,416.888,147.1109,414.7512,141.8731,414.95,151.72" style="stroke:#008000;stroke-width:1;"/><path d="M443.88,92 L443.88,117 L683.88,117 L683.88,102 L673.88,92 L443.88,92" fill="#FEFFDD" style="stroke:#181818;stroke-width:0.5;"/><path d="M673.88,92 L673.88,102 L683.88,102 L673.88,92" fill="#FEFFDD" style="stroke:#181818;stroke-width:0.5;"/><text fill="#000000" font-family="sans-serif" font-size="13" lengthAdjust="spacing" textLength="219.064" x="449.88" y="109.0669">abrirSolicitudesEliminacionPerfil()</text></g><!--link abrirSolicitudesEliminacionPerfil to SOLICITUD_ELIMINACION_PERFIL_ABIERTA--><g class="link" data-entity-1="ent0004" data-entity-2="ent0009" data-link-type="dependency" data-source-line="43" id="lnk10"><path d="M201.07,629.63 C192.36,647.83 186.88,659.3 186.88,659.3 C186.88,659.3 178.8391,691.8051 172.3291,718.1551" fill="none" id="abrirSolicitudesEliminacionPerfil-to-SOLICITUD_ELIMINACION_PERFIL_ABIERTA" style="stroke:#008000;stroke-width:1;"/><polygon fill="#008000" points="170.89,723.98,176.9319,716.2021,172.0892,719.1259,169.1654,714.2833,170.89,723.98" style="stroke:#008000;stroke-width:1;"/><path d="M191.88,664.3 L191.88,689.3 L416.88,689.3 L416.88,674.3 L406.88,664.3 L191.88,664.3" fill="#FEFFDD" style="stroke:#181818;stroke-width:0.5;"/><path d="M406.88,664.3 L406.88,674.3 L416.88,674.3 L406.88,664.3" fill="#FEFFDD" style="stroke:#181818;stroke-width:0.5;"/><text fill="#000000" font-family="sans-serif" font-size="13" lengthAdjust="spacing" textLength="204.293" x="197.88" y="681.3669">abrirSolicitudEliminacionPerfil()</text></g><!--link abrirSolicitudesEliminacionPerfil to OPCIONES_PERFIL_ABIERTO--><g class="link" data-entity-1="ent0004" data-entity-2="ent0011" data-link-type="dependency" data-source-line="49" id="lnk12"><path d="M414.93,629.54 C431.16,668.13 443.295,696.9788 452.425,718.6988" fill="none" id="abrirSolicitudesEliminacionPerfil-to-OPCIONES_PERFIL_ABIERTO" style="stroke:#0000FF;stroke-width:1;"/><polygon fill="#0000FF" points="454.75,724.23,454.9499,714.3832,452.8125,719.6207,447.575,717.4832,454.75,724.23" style="stroke:#0000FF;stroke-width:1;"/><path d="M443.88,664.3 L443.88,689.3 L597.88,689.3 L597.88,674.3 L587.88,664.3 L443.88,664.3" fill="#FEFFDD" style="stroke:#181818;stroke-width:0.5;"/><path d="M587.88,664.3 L587.88,674.3 L597.88,674.3 L587.88,664.3" fill="#FEFFDD" style="stroke:#181818;stroke-width:0.5;"/><text fill="#000000" font-family="sans-serif" font-size="13" lengthAdjust="spacing" textLength="133.853" x="449.88" y="681.3669">abrirOpcionesPerfil()</text></g><!--SRC=[lPJVQi8m5CRlynJ1tMn36VDQ1ASL2cf5tPM8fFPCWcbIqYh86EnPzcXxafsqrZOwhRjP2wLfpf_VzpL9lE4oOfg5L709oJu26YcnDmD2ueGbGBbyfYocDM_STRsHCrsEdKdV7ImxBwupcNarOW8QypjVR67HQ5FcQwwdIl0LJxO1n8xW8PTinPKSWtxZWaY5PPKqBJUaClp-WO0Cg4aY1LCpPPfw0xVhpbvxIsVW3jrHno3QW1q3s3I0QmqW_ukmCYdblw5qZRuJGl7AwjRmnioXYXFDPA067B-Vp_UvAC-d0VF7XMM3NOEcCPPmyw7bjxjAwG2f0gLRJtwRnXalopJcGuDFeU2dKMQbAPAxOzx9yN7IlunsWd-9R8gp4BAKAj8GWyGw0kMNcGAmi71O8ll-_A9khuxLGrz3dQvO62aJis81msMsWpZXQoFz68u_9kJ8ajkW3pvi9IlwNedUAR43J4f1LMIWCieJh8hCsoHQzXVMs_vQrkCg-VjACDgnQrcHtVc3L6yZ2-EMdNrjcrPiqfjWyXFjmidtItll8FwivGy0]--></g></svg>