<?plantuml 1.2026.2?><svg xmlns="http://www.w3.org/2000/svg" xmlns:xlink="http://www.w3.org/1999/xlink" contentStyleType="text/css" data-diagram-type="DESCRIPTION" height="313px" preserveAspectRatio="none" style="width:1653px;height:313px;background:#FFFFFF;" version="1.1" viewBox="0 0 1653 313" width="1653px" zoomAndPan="magnify"><defs/><g><!--cluster abrirOpcionesPerfil--><g class="cluster" data-qualified-name="abrirOpcionesPerfil" data-source-line="10" id="ent0004"><path d="M211.5,6 L354.4902,6 A3.75,3.75 0 0 1 356.9902,8.5 L363.9902,25.9688 L685.5,25.9688 A2.5,2.5 0 0 1 688,28.4688 L688,303.5 A2.5,2.5 0 0 1 685.5,306 L211.5,306 A2.5,2.5 0 0 1 209,303.5 L209,8.5 A2.5,2.5 0 0 1 211.5,6" fill="none" style="stroke:#000000;stroke-width:1.5;"/><line style="stroke:#000000;stroke-width:1.5;" x1="209" x2="363.9902" y1="25.9688" y2="25.9688"/><text fill="#000000" font-family="sans-serif" font-size="12" font-weight="bold" lengthAdjust="spacing" textLength="141.9902" x="213" y="19.1387">abrirOpcionesPerfil()</text></g><!--entity OpcionesPerfilView--><g class="entity" data-qualified-name="abrirOpcionesPerfil.OpcionesPerfilView" data-source-line="11" id="ent0005"><rect fill="#629EF9" height="33.9688" rx="2.5" ry="2.5" style="stroke:#181818;stroke-width:0.5;" width="134.7617" x="536.5" y="38"/><text fill="#000000" font-family="sans-serif" font-size="12" lengthAdjust="spacing" textLength="114.7617" x="546.5" y="59.1387">OpcionesPerfilView</text></g><!--entity OpcionesPerfilController--><g class="entity" data-qualified-name="abrirOpcionesPerfil.OpcionesPerfilController" data-source-line="12" id="ent0006"><rect fill="#B5BD68" height="33.9688" rx="2.5" ry="2.5" style="stroke:#181818;stroke-width:0.5;" width="165.3125" x="418.5" y="147"/><text fill="#000000" font-family="sans-serif" font-size="12" lengthAdjust="spacing" textLength="145.3125" x="428.5" y="168.1387">OpcionesPerfilController</text></g><!--entity UsuarioRepository--><g class="entity" data-qualified-name="abrirOpcionesPerfil.UsuarioRepository" data-source-line="13" id="ent0007"><rect fill="#F2AC4E" height="33.9688" rx="2.5" ry="2.5" style="stroke:#181818;stroke-width:0.5;" width="129.9512" x="225" y="256"/><text fill="#000000" font-family="sans-serif" font-size="12" lengthAdjust="spacing" textLength="109.9512" x="235" y="277.1387">UsuarioRepository</text></g><!--entity Sesion--><g class="entity" data-qualified-name="abrirOpcionesPerfil.Sesion" data-source-line="14" id="ent0008"><rect fill="#F2AC4E" height="33.9688" rx="2.5" ry="2.5" style="stroke:#181818;stroke-width:0.5;" width="59.5332" x="471" y="256"/><text fill="#000000" font-family="sans-serif" font-size="12" lengthAdjust="spacing" textLength="39.5332" x="481" y="277.1387">Sesion</text></g><!--entity PanelPrincipalAbierto--><g class="entity" data-qualified-name="PanelPrincipalAbierto" data-source-line="7" id="ent0002"><rect fill="#CDEBA5" height="33.9688" rx="2.5" ry="2.5" style="stroke:#181818;stroke-width:0.5;" width="185.5039" x="7" y="38"/><text fill="#000000" font-family="sans-serif" font-size="12" lengthAdjust="spacing" textLength="165.5039" x="17" y="59.1387">PANEL_PRINCIPAL_ABIERTO</text></g><!--entity OpcionesPerfilAbierto--><g class="entity" data-qualified-name="OpcionesPerfilAbierto" data-source-line="8" id="ent0003"><rect fill="#CDEBA5" height="33.9688" rx="2.5" ry="2.5" style="stroke:#181818;stroke-width:0.5;" width="187.1797" x="703.5" y="147"/><text fill="#000000" font-family="sans-serif" font-size="12" lengthAdjust="spacing" textLength="167.1797" x="713.5" y="168.1387">OPCIONES_PERFIL_ABIERTO</text></g><!--entity EditarPerfil--><g class="entity" data-qualified-name="EditarPerfil" data-source-line="17" id="ent0009"><rect fill="#CDEBA5" height="33.9688" rx="2.5" ry="2.5" style="stroke:#181818;stroke-width:0.5;" width="173.8027" x="926" y="147"/><text fill="#000000" font-family="sans-serif" font-size="12" lengthAdjust="spacing" textLength="153.8027" x="936" y="168.1387">:Collaboration EditarPerfil</text></g><!--entity SolicitarEliminacionPerfil--><g class="entity" data-qualified-name="SolicitarEliminacionPerfil" data-source-line="18" id="ent0010"><rect fill="#CDEBA5" height="33.9688" rx="2.5" ry="2.5" style="stroke:#181818;stroke-width:0.5;" width="255.9395" x="1135" y="147"/><text fill="#000000" font-family="sans-serif" font-size="12" lengthAdjust="spacing" textLength="235.9395" x="1145" y="168.1387">:Collaboration SolicitarEliminacionPerfil</text></g><!--entity AbrirPanelPrincipal--><g class="entity" data-qualified-name="AbrirPanelPrincipal" data-source-line="19" id="ent0011"><rect fill="#CDEBA5" height="33.9688" rx="2.5" ry="2.5" style="stroke:#181818;stroke-width:0.5;" width="221.1172" x="1426.5" y="147"/><text fill="#000000" font-family="sans-serif" font-size="12" lengthAdjust="spacing" textLength="201.1172" x="1436.5" y="168.1387">:Collaboration AbrirPanelPrincipal</text></g><!--link PanelPrincipalAbierto to OpcionesPerfilView--><g class="link" data-entity-1="ent0002" data-entity-2="ent0005" data-link-type="dependency" data-source-line="21" id="lnk12"><path d="M193.03,55 C292.44,55 441.63,55 530.12,55" fill="none" id="PanelPrincipalAbierto-to-OpcionesPerfilView" style="stroke:#181818;stroke-width:1;"/><polygon fill="#181818" points="536.12,55,527.12,51,531.12,55,527.12,59,536.12,55" style="stroke:#181818;stroke-width:1;"/><text fill="#000000" font-family="sans-serif" font-size="12" lengthAdjust="spacing" textLength="123.5566" x="303.25" y="49.1387">abrirOpcionesPerfil()</text></g><!--link OpcionesPerfilView to OpcionesPerfilController--><g class="link" data-entity-1="ent0005" data-entity-2="ent0006" data-link-type="dependency" data-source-line="23" id="lnk13"><path d="M588.36,72.25 C568.88,92.48 540.0014,122.4876 520.6114,142.6276" fill="none" id="OpcionesPerfilView-to-OpcionesPerfilController" style="stroke:#181818;stroke-width:1;"/><polygon fill="#181818" points="516.45,146.95,525.5737,143.2407,519.9178,143.348,519.8105,137.6922,516.45,146.95" style="stroke:#181818;stroke-width:1;"/><text fill="#000000" font-family="sans-serif" font-size="12" lengthAdjust="spacing" textLength="113.4902" x="559" y="114.1387">cargarDatosPerfil()</text></g><!--link OpcionesPerfilController to Sesion--><g class="link" data-entity-1="ent0006" data-entity-2="ent0008" data-link-type="dependency" data-source-line="25" id="lnk14"><path d="M501,181.25 C501,201.48 501,229.81 501,249.95" fill="none" id="OpcionesPerfilController-to-Sesion" style="stroke:#181818;stroke-width:1;"/><polygon fill="#181818" points="501,255.95,505,246.95,501,250.95,497,246.95,501,255.95" style="stroke:#181818;stroke-width:1;"/><text fill="#000000" font-family="sans-serif" font-size="12" lengthAdjust="spacing" textLength="169.752" x="502" y="223.1387">getUsuarioActual() : Usuario</text></g><!--link OpcionesPerfilController to UsuarioRepository--><g class="link" data-entity-1="ent0006" data-entity-2="ent0007" data-link-type="dependency" data-source-line="26" id="lnk15"><path d="M428.2,181.02 C367.88,194.3 292,211 292,211 C292,211 291.3158,231.9032 290.7258,249.9732" fill="none" id="OpcionesPerfilController-to-UsuarioRepository" style="stroke:#181818;stroke-width:1;"/><polygon fill="#181818" points="290.53,255.97,294.8216,247.1053,290.6932,250.9727,286.8258,246.8443,290.53,255.97" style="stroke:#181818;stroke-width:1;"/><text fill="#000000" font-family="sans-serif" font-size="12" lengthAdjust="spacing" textLength="199.8574" x="293" y="223.1387">obtenerPorId(usuarioId) : Usuario</text></g><!--link OpcionesPerfilView to EditarPerfil--><g class="link" data-entity-1="ent0005" data-entity-2="ent0009" data-link-type="dependency" data-source-line="28" id="lnk16"><path d="M666.7,72.02 C718.65,85.3 784,102 784,102 C784,102 879.1821,127.3559 947.0321,145.4259" fill="none" id="OpcionesPerfilView-to-EditarPerfil" style="stroke:#181818;stroke-width:1;stroke-dasharray:7,7;"/><polygon fill="#181818" points="952.83,146.97,945.1626,140.7886,947.9984,145.6832,943.1037,148.5191,952.83,146.97" style="stroke:#181818;stroke-width:1;"/><text fill="#000000" font-family="sans-serif" font-size="12" lengthAdjust="spacing" textLength="75.1348" x="840" y="114.1387">editarPerfil()</text></g><!--link OpcionesPerfilView to SolicitarEliminacionPerfil--><g class="link" data-entity-1="ent0005" data-entity-2="ent0010" data-link-type="dependency" data-source-line="29" id="lnk17"><path d="M671.86,65.76 C765.8,79.26 924,102 924,102 C924,102 1067.5848,127.8376 1168.0248,145.9076" fill="none" id="OpcionesPerfilView-to-SolicitarEliminacionPerfil" style="stroke:#181818;stroke-width:1;stroke-dasharray:7,7;"/><polygon fill="#181818" points="1173.93,146.97,1165.7805,141.4396,1169.009,146.0847,1164.3639,149.3132,1173.93,146.97" style="stroke:#181818;stroke-width:1;"/><text fill="#000000" font-family="sans-serif" font-size="12" lengthAdjust="spacing" textLength="156.1055" x="1006" y="114.1387">solicitarEliminacionPerfil()</text></g><!--link OpcionesPerfilView to AbrirPanelPrincipal--><g class="link" data-entity-1="ent0005" data-entity-2="ent0011" data-link-type="dependency" data-source-line="30" id="lnk18"><path d="M671.55,61.48 C821.9,73.68 1171,102 1171,102 C1171,102 1326.4816,127.9138 1434.9216,145.9838" fill="none" id="OpcionesPerfilView-to-AbrirPanelPrincipal" style="stroke:#181818;stroke-width:1;stroke-dasharray:7,7;"/><polygon fill="#181818" points="1440.84,146.97,1432.6199,141.5451,1435.908,146.1482,1431.3049,149.4363,1440.84,146.97" style="stroke:#181818;stroke-width:1;"/><text fill="#000000" font-family="sans-serif" font-size="12" lengthAdjust="spacing" textLength="121.793" x="1260" y="114.1387">abrirPanelPrincipal()</text></g><!--link OpcionesPerfilView to OpcionesPerfilAbierto--><g class="link" data-entity-1="ent0005" data-entity-2="ent0003" data-link-type="dependency" data-source-line="32" id="lnk19"><path d="M632.89,72.02 C669.28,92.19 726.1822,123.7413 762.6622,143.9613" fill="none" id="OpcionesPerfilView-to-OpcionesPerfilAbierto" style="stroke:#181818;stroke-width:1;stroke-dasharray:7,7;"/><polygon fill="#181818" points="767.91,146.87,761.9775,139.0084,763.5368,144.4461,758.0992,146.0054,767.91,146.87" style="stroke:#181818;stroke-width:1;"/><text fill="#000000" font-family="sans-serif" font-size="12" lengthAdjust="spacing" textLength="62.4551" x="713" y="114.1387">&#171;finalizar&#187;</text></g><?plantuml-src ZPHFQzj04CNl-XI3VKaF3jGqeH71eCWo288jxBHNCvB6ofBDhfXTOvpIxrxzIMqfNhNHIJjltsztz0QP5w5AP7o55BENWlLUvQ6Mck7mB2nvvgIRPyprGQW2TYXDLvdJ3lVIBhIohJML5SkzOIFU2BvEEw8KYkon92YrFDOBpsFABAf24ep3UVGGtC0e2PRHupPPnyimJeB7RV0GH-kdrGZGG8AAPC92PQ946QI2s6eNP9M4yMePRRP9j5x4VSYgp8HMP1BYdJX1lBBg10k24QOikB_fwalZT2ZmouFgELzXrDT_2ZeuJgtBCBwTtaMBkty3mkfJifQIs84vYp1ERzByzlj7s0-pHnPwJQKsmce-DfIBAemNqo3y5dsqRyXKnpMUzlMqyRSpFByQ2ucfPhJrvYWN5hczQmFf5ZxXtsWfijeHIV4g5DQzTsZ3yYVOGHrcVw0QgAFkUSx1WmbFPevWVN2EaESvPc2INo3EeVgG8HV8SxHw4DEPWGRMvkH3GVOzvY2pUwoSuFyD_Z-8Y_7mGQUM576YESwlzgqUvrsagxlhwralSX-eiwfw6V0C1-k36TI6UOvCtqFg5mT2gX7EluOFz_UxwWvIl27FPdy0?></g></svg>