<?xml version="1.0" encoding="us-ascii" standalone="no"?><svg xmlns="http://www.w3.org/2000/svg" xmlns:xlink="http://www.w3.org/1999/xlink" contentStyleType="text/css" height="686px" preserveAspectRatio="none" style="width:2199px;height:686px;background:#FFFFFF;" version="1.1" viewBox="0 0 2199 686" width="2199px" zoomAndPan="magnify"><defs/><g><g id="in1"><rect fill="#F1F1F1" height="50" rx="12.5" ry="12.5" style="stroke:#181818;stroke-width:0.5;" width="217" x="210.5" y="7"/><line style="stroke:#181818;stroke-width:0.5;" x1="210.5" x2="427.5" y1="34.6094" y2="34.6094"/><text fill="#000000" font-family="sans-serif" font-size="14" lengthAdjust="spacing" textLength="197" x="220.5" y="26.5332">INVESTIGADORES_ABIERTOS</text></g><path d="M908,118 L1412,118 A12.5,12.5 0 0 1 1424.5,130.5 L1424.5,145.6094 L895.5,145.6094 L895.5,130.5 A12.5,12.5 0 0 1 908,118 " fill="#F1F1F1" style="stroke:#F1F1F1;stroke-width:1.0;"/><rect fill="none" height="415.6094" rx="12.5" ry="12.5" style="stroke:#181818;stroke-width:0.5;" width="529" x="895.5" y="118"/><line style="stroke:#181818;stroke-width:0.5;" x1="895.5" x2="1424.5" y1="145.6094" y2="145.6094"/><text fill="#000000" font-family="sans-serif" font-size="14" lengthAdjust="spacing" textLength="129" x="1095.5" y="137.5332">abrirPanelPrincipal()</text><g id="abrirPanelPrincipal.MostrandoPanel"><rect fill="#F1F1F1" height="50" rx="12.5" ry="12.5" style="stroke:#181818;stroke-width:0.5;" width="50" x="907.5" y="248.6094"/><line style="stroke:#181818;stroke-width:0.5;" x1="907.5" x2="957.5" y1="276.2188" y2="276.2188"/><text fill="#000000" font-family="sans-serif" font-size="14" lengthAdjust="spacing" textLength="4" x="930.5" y="268.1426">&#160;</text></g><ellipse cx="932.5" cy="166.6094" fill="#222222" rx="10" ry="10" style="stroke:#222222;stroke-width:1.0;"/><ellipse cx="932.5" cy="512.6094" fill="none" rx="11" ry="11" style="stroke:#222222;stroke-width:1.0;"/><ellipse cx="932.5" cy="512.6094" fill="#222222" rx="6" ry="6" style="stroke:#222222;stroke-width:1.0;"/><!--link *start*abrirPanelPrincipal to MostrandoPanel--><g id="link_*start*abrirPanelPrincipal_MostrandoPanel"><path d="M932.5,176.9294 C932.5,192.7894 932.5,219.5194 932.5,242.2494 " fill="none" id="*start*abrirPanelPrincipal-to-MostrandoPanel" style="stroke:#008000;stroke-width:1.0;"/><polygon fill="#008000" points="932.5,248.2494,936.5,239.2494,932.5,243.2494,928.5,239.2494,932.5,248.2494" style="stroke:#008000;stroke-width:1.0;"/><path d="M937.5,199.6094 L937.5,225.6094 L1211.5,225.6094 L1211.5,209.6094 L1201.5,199.6094 L937.5,199.6094 " fill="#FEFFDD" style="stroke:#181818;stroke-width:0.5;"/><path d="M1201.5,199.6094 L1201.5,209.6094 L1211.5,209.6094 L1201.5,199.6094 " fill="#FEFFDD" style="stroke:#181818;stroke-width:0.5;"/><text fill="#000000" font-family="sans-serif" font-size="13" font-weight="bold" lengthAdjust="spacing" textLength="78" x="943.5" y="218.1045">Investigador</text><text fill="#000000" font-family="sans-serif" font-size="13" lengthAdjust="spacing" textLength="171" x="1025.5" y="218.1045">solicita abrir el panel principal</text></g><!--link MostrandoPanel to *end*abrirPanelPrincipal--><g id="link_MostrandoPanel_*end*abrirPanelPrincipal"><path d="M932.5,298.6394 C932.5,349.4794 932.5,460.1394 932.5,495.3594 " fill="none" id="MostrandoPanel-to-*end*abrirPanelPrincipal" style="stroke:#008000;stroke-width:1.0;"/><polygon fill="#008000" points="932.5,501.3594,936.5,492.3594,932.5,496.3594,928.5,492.3594,932.5,501.3594" style="stroke:#008000;stroke-width:1.0;"/><path d="M937.5,321.6094 L937.5,478.6094 L1415.5,478.6094 L1415.5,331.6094 L1405.5,321.6094 L937.5,321.6094 " fill="#FEFFDD" style="stroke:#181818;stroke-width:0.5;"/><path d="M1405.5,321.6094 L1405.5,331.6094 L1415.5,331.6094 L1405.5,321.6094 " fill="#FEFFDD" style="stroke:#181818;stroke-width:0.5;"/><text fill="#000000" font-family="sans-serif" font-size="13" font-weight="bold" lengthAdjust="spacing" textLength="51" x="943.5" y="340.1045">Sistema</text><text fill="#000000" font-family="sans-serif" font-size="13" lengthAdjust="spacing" textLength="402" x="998.5" y="340.1045">presenta el panel principal y permite solicitar las siguientes acciones:</text><text fill="#000000" font-family="sans-serif" font-size="13" lengthAdjust="spacing" textLength="97" x="943.5" y="356.4561">&#8226; Abrir proyectos</text><text fill="#000000" font-family="sans-serif" font-size="13" lengthAdjust="spacing" textLength="122" x="943.5" y="372.8076">&#8226; Abrir investigadores</text><text fill="#000000" font-family="sans-serif" font-size="13" lengthAdjust="spacing" textLength="118" x="943.5" y="389.1592">&#8226; Abrir recompensas</text><text fill="#000000" font-family="sans-serif" font-size="13" lengthAdjust="spacing" textLength="144" x="943.5" y="405.5107">&#8226; Abrir mis publicaciones</text><text fill="#000000" font-family="sans-serif" font-size="13" lengthAdjust="spacing" textLength="119" x="943.5" y="421.8623">&#8226; Abrir publicaciones</text><text fill="#000000" font-family="sans-serif" font-size="13" lengthAdjust="spacing" textLength="141" x="943.5" y="438.2139">&#8226; Abrir opciones de perfil</text><text fill="#000000" font-family="sans-serif" font-size="13" lengthAdjust="spacing" textLength="207" x="943.5" y="454.5654">&#8226; Abrir opciones de carga de trabajo</text><text fill="#000000" font-family="sans-serif" font-size="13" lengthAdjust="spacing" textLength="86" x="943.5" y="470.917">&#8226; Cerrar sesi&#243;n</text></g><g id="in2"><rect fill="#F1F1F1" height="50" rx="12.5" ry="12.5" style="stroke:#181818;stroke-width:0.5;" width="294" x="463" y="7"/><line style="stroke:#181818;stroke-width:0.5;" x1="463" x2="757" y1="34.6094" y2="34.6094"/><text fill="#000000" font-family="sans-serif" font-size="14" lengthAdjust="spacing" textLength="274" x="473" y="26.5332">OPCIONES_CARGA_TRABAJO_ABIERTAS</text></g><g id="in3"><rect fill="#F1F1F1" height="50" rx="12.5" ry="12.5" style="stroke:#181818;stroke-width:0.5;" width="215" x="792.5" y="7"/><line style="stroke:#181818;stroke-width:0.5;" x1="792.5" x2="1007.5" y1="34.6094" y2="34.6094"/><text fill="#000000" font-family="sans-serif" font-size="14" lengthAdjust="spacing" textLength="195" x="802.5" y="26.5332">OPCIONES_PERFIL_ABIERTO</text></g><g id="in4"><rect fill="#F1F1F1" height="50" rx="12.5" ry="12.5" style="stroke:#181818;stroke-width:0.5;" width="234" x="1043" y="7"/><line style="stroke:#181818;stroke-width:0.5;" x1="1043" x2="1277" y1="34.6094" y2="34.6094"/><text fill="#000000" font-family="sans-serif" font-size="14" lengthAdjust="spacing" textLength="214" x="1053" y="26.5332">MIS_PUBLICACIONES_ABIERTAS</text></g><g id="in5"><rect fill="#F1F1F1" height="50" rx="12.5" ry="12.5" style="stroke:#181818;stroke-width:0.5;" width="203" x="1312.5" y="7"/><line style="stroke:#181818;stroke-width:0.5;" x1="1312.5" x2="1515.5" y1="34.6094" y2="34.6094"/><text fill="#000000" font-family="sans-serif" font-size="14" lengthAdjust="spacing" textLength="183" x="1322.5" y="26.5332">PUBLICACIONES_ABIERTAS</text></g><g id="in6"><rect fill="#F1F1F1" height="50" rx="12.5" ry="12.5" style="stroke:#181818;stroke-width:0.5;" width="200" x="1551" y="7"/><line style="stroke:#181818;stroke-width:0.5;" x1="1551" x2="1751" y1="34.6094" y2="34.6094"/><text fill="#000000" font-family="sans-serif" font-size="14" lengthAdjust="spacing" textLength="180" x="1561" y="26.5332">RECOMPENSAS_ABIERTAS</text></g><g id="in7"><rect fill="#F1F1F1" height="50" rx="12.5" ry="12.5" style="stroke:#181818;stroke-width:0.5;" width="184" x="1786" y="7"/><line style="stroke:#181818;stroke-width:0.5;" x1="1786" x2="1970" y1="34.6094" y2="34.6094"/><text fill="#000000" font-family="sans-serif" font-size="14" lengthAdjust="spacing" textLength="164" x="1796" y="26.5332">PROYECTOS_ABIERTOS</text></g><g id="PANEL_PRINCIPAL_ABIERTO"><rect fill="#F1F1F1" height="50" rx="12.5" ry="12.5" style="stroke:#181818;stroke-width:0.5;" width="210" x="7" y="630"/><line style="stroke:#181818;stroke-width:0.5;" x1="7" x2="217" y1="657.6094" y2="657.6094"/><text fill="#000000" font-family="sans-serif" font-size="14" lengthAdjust="spacing" textLength="190" x="17" y="649.5332">PANEL_PRINCIPAL_ABIERTO</text></g><g id="OPCIONES_PERFIL_ABIERTO"><rect fill="#F1F1F1" height="50" rx="12.5" ry="12.5" style="stroke:#181818;stroke-width:0.5;" width="215" x="252.5" y="630"/><line style="stroke:#181818;stroke-width:0.5;" x1="252.5" x2="467.5" y1="657.6094" y2="657.6094"/><text fill="#000000" font-family="sans-serif" font-size="14" lengthAdjust="spacing" textLength="195" x="262.5" y="649.5332">OPCIONES_PERFIL_ABIERTO</text></g><g id="OPCIONES_CARGA_TRABAJO_ABIERTAS"><rect fill="#F1F1F1" height="50" rx="12.5" ry="12.5" style="stroke:#181818;stroke-width:0.5;" width="294" x="503" y="630"/><line style="stroke:#181818;stroke-width:0.5;" x1="503" x2="797" y1="657.6094" y2="657.6094"/><text fill="#000000" font-family="sans-serif" font-size="14" lengthAdjust="spacing" textLength="274" x="513" y="649.5332">OPCIONES_CARGA_TRABAJO_ABIERTAS</text></g><g id="PROYECTOS_ABIERTOS"><rect fill="#F1F1F1" height="50" rx="12.5" ry="12.5" style="stroke:#181818;stroke-width:0.5;" width="184" x="832" y="630"/><line style="stroke:#181818;stroke-width:0.5;" x1="832" x2="1016" y1="657.6094" y2="657.6094"/><text fill="#000000" font-family="sans-serif" font-size="14" lengthAdjust="spacing" textLength="164" x="842" y="649.5332">PROYECTOS_ABIERTOS</text></g><g id="INVESTIGADORES_ABIERTOS"><rect fill="#F1F1F1" height="50" rx="12.5" ry="12.5" style="stroke:#181818;stroke-width:0.5;" width="217" x="1051.5" y="630"/><line style="stroke:#181818;stroke-width:0.5;" x1="1051.5" x2="1268.5" y1="657.6094" y2="657.6094"/><text fill="#000000" font-family="sans-serif" font-size="14" lengthAdjust="spacing" textLength="197" x="1061.5" y="649.5332">INVESTIGADORES_ABIERTOS</text></g><g id="MIS_PUBLICACIONES_ABIERTAS"><rect fill="#F1F1F1" height="50" rx="12.5" ry="12.5" style="stroke:#181818;stroke-width:0.5;" width="234" x="1304" y="630"/><line style="stroke:#181818;stroke-width:0.5;" x1="1304" x2="1538" y1="657.6094" y2="657.6094"/><text fill="#000000" font-family="sans-serif" font-size="14" lengthAdjust="spacing" textLength="214" x="1314" y="649.5332">MIS_PUBLICACIONES_ABIERTAS</text></g><g id="PUBLICACIONES_ABIERTAS"><rect fill="#F1F1F1" height="50" rx="12.5" ry="12.5" style="stroke:#181818;stroke-width:0.5;" width="203" x="1573.5" y="630"/><line style="stroke:#181818;stroke-width:0.5;" x1="1573.5" x2="1776.5" y1="657.6094" y2="657.6094"/><text fill="#000000" font-family="sans-serif" font-size="14" lengthAdjust="spacing" textLength="183" x="1583.5" y="649.5332">PUBLICACIONES_ABIERTAS</text></g><g id="RECOMPENSAS_ABIERTAS"><rect fill="#F1F1F1" height="50" rx="12.5" ry="12.5" style="stroke:#181818;stroke-width:0.5;" width="200" x="1812" y="630"/><line style="stroke:#181818;stroke-width:0.5;" x1="1812" x2="2012" y1="657.6094" y2="657.6094"/><text fill="#000000" font-family="sans-serif" font-size="14" lengthAdjust="spacing" textLength="180" x="1822" y="649.5332">RECOMPENSAS_ABIERTAS</text></g><g id="SESION_CERRADA"><rect fill="#F1F1F1" height="50" rx="12.5" ry="12.5" style="stroke:#181818;stroke-width:0.5;" width="145" x="2047.5" y="630"/><line style="stroke:#181818;stroke-width:0.5;" x1="2047.5" x2="2192.5" y1="657.6094" y2="657.6094"/><text fill="#000000" font-family="sans-serif" font-size="14" lengthAdjust="spacing" textLength="125" x="2057.5" y="649.5332">SESION_CERRADA</text></g><!--link in1 to abrirPanelPrincipal--><g id="link_in1_abrirPanelPrincipal"><path d="M388.18,57.02 C498.1,95.18 712.6519,169.6821 889.8219,231.1921 " fill="none" id="in1-to-abrirPanelPrincipal" style="stroke:#008000;stroke-width:1.0;"/><polygon fill="#008000" points="895.49,233.16,888.2997,226.4295,890.7666,231.5201,885.6759,233.987,895.49,233.16" style="stroke:#008000;stroke-width:1.0;"/></g><!--link in2 to abrirPanelPrincipal--><g id="link_in2_abrirPanelPrincipal"><path d="M655.48,57.14 C709.2,85.67 797.6905,132.6465 889.9305,181.6165 " fill="none" id="in2-to-abrirPanelPrincipal" style="stroke:#008000;stroke-width:1.0;"/><polygon fill="#008000" points="895.23,184.43,889.1564,176.6768,890.8138,182.0854,885.4051,183.7428,895.23,184.43" style="stroke:#008000;stroke-width:1.0;"/></g><!--link in3 to abrirPanelPrincipal--><g id="link_in3_abrirPanelPrincipal"><path d="M921.72,57.39 C935.33,72.68 950.32,89.5089 971.69,113.5089 " fill="none" id="in3-to-abrirPanelPrincipal" style="stroke:#008000;stroke-width:1.0;"/><polygon fill="#008000" points="975.68,117.99,972.6824,108.6084,972.355,114.2558,966.7076,113.9284,975.68,117.99" style="stroke:#008000;stroke-width:1.0;"/></g><!--link in4 to abrirPanelPrincipal--><g id="link_in4_abrirPanelPrincipal"><path d="M1160,57.39 C1160,72.68 1160,87.99 1160,111.99 " fill="none" id="in4-to-abrirPanelPrincipal" style="stroke:#008000;stroke-width:1.0;"/><polygon fill="#008000" points="1160,117.99,1164,108.99,1160,112.99,1156,108.99,1160,117.99" style="stroke:#008000;stroke-width:1.0;"/></g><!--link in5 to abrirPanelPrincipal--><g id="link_in5_abrirPanelPrincipal"><path d="M1392.78,57.39 C1379.49,72.68 1364.8771,89.4624 1344.0071,113.4624 " fill="none" id="in5-to-abrirPanelPrincipal" style="stroke:#008000;stroke-width:1.0;"/><polygon fill="#008000" points="1340.07,117.99,1348.9941,113.8234,1343.3509,114.217,1342.9573,108.5739,1340.07,117.99" style="stroke:#008000;stroke-width:1.0;"/></g><!--link in6 to abrirPanelPrincipal--><g id="link_in6_abrirPanelPrincipal"><path d="M1610.4,57.14 C1567.95,82.39 1502.6469,121.223 1429.9269,164.473 " fill="none" id="in6-to-abrirPanelPrincipal" style="stroke:#008000;stroke-width:1.0;"/><polygon fill="#008000" points="1424.77,167.54,1434.55,166.3774,1429.0674,164.9841,1430.4606,159.5015,1424.77,167.54" style="stroke:#008000;stroke-width:1.0;"/></g><!--link in7 to abrirPanelPrincipal--><g id="link_in7_abrirPanelPrincipal"><path d="M1818.94,57.02 C1732.98,91.98 1573.568,156.8099 1430.198,215.1099 " fill="none" id="in7-to-abrirPanelPrincipal" style="stroke:#008000;stroke-width:1.0;"/><polygon fill="#008000" points="1424.64,217.37,1434.4838,217.6852,1429.2717,215.4866,1431.4703,210.2745,1424.64,217.37" style="stroke:#008000;stroke-width:1.0;"/></g><!--link abrirPanelPrincipal to PANEL_PRINCIPAL_ABIERTO--><g id="link_abrirPanelPrincipal_PANEL_PRINCIPAL_ABIERTO"><path d="M895.46,401.91 C650.21,471.35 323,564 323,564 C323,564 236.2889,600.9859 173.7889,627.6459 " fill="none" id="abrirPanelPrincipal-to-PANEL_PRINCIPAL_ABIERTO" style="stroke:#008000;stroke-width:1.0;"/><polygon fill="#008000" points="168.27,630,178.1177,630.1481,172.8691,628.0382,174.9789,622.7895,168.27,630" style="stroke:#008000;stroke-width:1.0;"/><path d="M328,569 L328,595 L473,595 L473,579 L463,569 L328,569 " fill="#FEFFDD" style="stroke:#181818;stroke-width:0.5;"/><path d="M463,569 L463,579 L473,579 L463,569 " fill="#FEFFDD" style="stroke:#181818;stroke-width:0.5;"/><text fill="#000000" font-family="sans-serif" font-size="13" lengthAdjust="spacing" textLength="124" x="334" y="587.4951">Panel principal visible</text></g><!--link abrirPanelPrincipal to OPCIONES_PERFIL_ABIERTO--><g id="link_abrirPanelPrincipal_OPCIONES_PERFIL_ABIERTO"><path d="M895.11,432.16 C735.54,495.5 563,564 563,564 C563,564 479.7552,600.9084 419.6152,627.5684 " fill="none" id="abrirPanelPrincipal-to-OPCIONES_PERFIL_ABIERTO" style="stroke:#008000;stroke-width:1.0;"/><polygon fill="#008000" points="414.13,630,423.9789,630.0094,418.701,627.9737,420.7367,622.6958,414.13,630" style="stroke:#008000;stroke-width:1.0;"/><path d="M568,569 L568,595 L706,595 L706,579 L696,569 L568,569 " fill="#FEFFDD" style="stroke:#181818;stroke-width:0.5;"/><path d="M696,569 L696,579 L706,579 L696,569 " fill="#FEFFDD" style="stroke:#181818;stroke-width:0.5;"/><text fill="#000000" font-family="sans-serif" font-size="13" lengthAdjust="spacing" textLength="117" x="574" y="587.4951">abrirOpcionesPerfil()</text></g><!--link abrirPanelPrincipal to OPCIONES_CARGA_TRABAJO_ABIERTAS--><g id="link_abrirPanelPrincipal_OPCIONES_CARGA_TRABAJO_ABIERTAS"><path d="M895.25,484.26 C821.43,528.11 761,564 761,564 C761,564 717.2905,599.4411 684.4105,626.1011 " fill="none" id="abrirPanelPrincipal-to-OPCIONES_CARGA_TRABAJO_ABIERTAS" style="stroke:#008000;stroke-width:1.0;"/><polygon fill="#008000" points="679.75,629.88,689.26,627.3187,683.6337,626.731,684.2215,621.1047,679.75,629.88" style="stroke:#008000;stroke-width:1.0;"/><path d="M766,569 L766,595 L951,595 L951,579 L941,569 L766,569 " fill="#FEFFDD" style="stroke:#181818;stroke-width:0.5;"/><path d="M941,569 L941,579 L951,579 L941,569 " fill="#FEFFDD" style="stroke:#181818;stroke-width:0.5;"/><text fill="#000000" font-family="sans-serif" font-size="13" lengthAdjust="spacing" textLength="164" x="772" y="587.4951">abrirOpcionesCargaTrabajo()</text></g><!--link abrirPanelPrincipal to PROYECTOS_ABIERTOS--><g id="link_abrirPanelPrincipal_PROYECTOS_ABIERTOS"><path d="M1010.54,534.09 C982.73,572.63 960.9521,602.8053 944.9821,624.9253 " fill="none" id="abrirPanelPrincipal-to-PROYECTOS_ABIERTOS" style="stroke:#008000;stroke-width:1.0;"/><polygon fill="#008000" points="941.47,629.79,949.9813,624.8344,944.3968,625.7361,943.4951,620.1516,941.47,629.79" style="stroke:#008000;stroke-width:1.0;"/><path d="M993,569 L993,595 L1106,595 L1106,579 L1096,569 L993,569 " fill="#FEFFDD" style="stroke:#181818;stroke-width:0.5;"/><path d="M1096,569 L1096,579 L1106,579 L1096,569 " fill="#FEFFDD" style="stroke:#181818;stroke-width:0.5;"/><text fill="#000000" font-family="sans-serif" font-size="13" lengthAdjust="spacing" textLength="92" x="999" y="587.4951">abrirProyectos()</text></g><!--link abrirPanelPrincipal to INVESTIGADORES_ABIERTOS--><g id="link_abrirPanelPrincipal_INVESTIGADORES_ABIERTOS"><path d="M1160,534.09 C1160,572.63 1160,601.67 1160,623.79 " fill="none" id="abrirPanelPrincipal-to-INVESTIGADORES_ABIERTOS" style="stroke:#008000;stroke-width:1.0;"/><polygon fill="#008000" points="1160,629.79,1164,620.79,1160,624.79,1156,620.79,1160,629.79" style="stroke:#008000;stroke-width:1.0;"/><path d="M1165,569 L1165,595 L1301,595 L1301,579 L1291,569 L1165,569 " fill="#FEFFDD" style="stroke:#181818;stroke-width:0.5;"/><path d="M1291,569 L1291,579 L1301,579 L1291,569 " fill="#FEFFDD" style="stroke:#181818;stroke-width:0.5;"/><text fill="#000000" font-family="sans-serif" font-size="13" lengthAdjust="spacing" textLength="115" x="1171" y="587.4951">abrirInvestigadores()</text></g><!--link abrirPanelPrincipal to MIS_PUBLICACIONES_ABIERTAS--><g id="link_abrirPanelPrincipal_MIS_PUBLICACIONES_ABIERTAS"><path d="M1325.3,534.09 C1356.05,572.63 1380.2765,602.9811 1397.9365,625.1011 " fill="none" id="abrirPanelPrincipal-to-MIS_PUBLICACIONES_ABIERTAS" style="stroke:#008000;stroke-width:1.0;"/><polygon fill="#008000" points="1401.68,629.79,1399.1907,620.2609,1398.5604,625.8826,1392.9388,625.2523,1401.68,629.79" style="stroke:#008000;stroke-width:1.0;"/><path d="M1383,569 L1383,595 L1539,595 L1539,579 L1529,569 L1383,569 " fill="#FEFFDD" style="stroke:#181818;stroke-width:0.5;"/><path d="M1529,569 L1529,579 L1539,579 L1529,569 " fill="#FEFFDD" style="stroke:#181818;stroke-width:0.5;"/><text fill="#000000" font-family="sans-serif" font-size="13" lengthAdjust="spacing" textLength="135" x="1389" y="587.4951">abrirMisPublicaciones()</text></g><!--link abrirPanelPrincipal to PUBLICACIONES_ABIERTAS--><g id="link_abrirPanelPrincipal_PUBLICACIONES_ABIERTAS"><path d="M1424.73,487.05 C1495.14,529.62 1552,564 1552,564 C1552,564 1600.7576,599.6772 1637.1976,626.3372 " fill="none" id="abrirPanelPrincipal-to-PUBLICACIONES_ABIERTAS" style="stroke:#008000;stroke-width:1.0;"/><polygon fill="#008000" points="1642.04,629.88,1637.1382,621.3376,1638.0047,626.9277,1632.4146,627.7941,1642.04,629.88" style="stroke:#008000;stroke-width:1.0;"/><path d="M1604,569 L1604,595 L1739,595 L1739,579 L1729,569 L1604,569 " fill="#FEFFDD" style="stroke:#181818;stroke-width:0.5;"/><path d="M1729,569 L1729,579 L1739,579 L1729,569 " fill="#FEFFDD" style="stroke:#181818;stroke-width:0.5;"/><text fill="#000000" font-family="sans-serif" font-size="13" lengthAdjust="spacing" textLength="114" x="1610" y="587.4951">abrirPublicaciones()</text></g><!--link abrirPanelPrincipal to RECOMPENSAS_ABIERTAS--><g id="link_abrirPanelPrincipal_RECOMPENSAS_ABIERTAS"><path d="M1424.83,433.02 C1582.46,496.13 1752,564 1752,564 C1752,564 1816.5007,600.2782 1863.8907,626.9382 " fill="none" id="abrirPanelPrincipal-to-RECOMPENSAS_ABIERTAS" style="stroke:#008000;stroke-width:1.0;"/><polygon fill="#008000" points="1869.12,629.88,1863.2373,621.9811,1864.7622,627.4285,1859.3148,628.9535,1869.12,629.88" style="stroke:#008000;stroke-width:1.0;"/><path d="M1817,569 L1817,595 L1954,595 L1954,579 L1944,569 L1817,569 " fill="#FEFFDD" style="stroke:#181818;stroke-width:0.5;"/><path d="M1944,569 L1944,579 L1954,579 L1944,569 " fill="#FEFFDD" style="stroke:#181818;stroke-width:0.5;"/><text fill="#000000" font-family="sans-serif" font-size="13" lengthAdjust="spacing" textLength="116" x="1823" y="587.4951">abrirRecompensas()</text></g><!--link abrirPanelPrincipal to SESION_CERRADA--><g id="link_abrirPanelPrincipal_SESION_CERRADA"><path d="M1424.52,404.68 C1659.84,473.79 1967,564 1967,564 C1967,564 2028.5085,600.1778 2073.8285,626.8378 " fill="none" id="abrirPanelPrincipal-to-SESION_CERRADA" style="stroke:#008000;stroke-width:1.0;"/><polygon fill="#008000" points="2079,629.88,2073.2708,621.869,2074.6904,627.3448,2069.2145,628.7644,2079,629.88" style="stroke:#008000;stroke-width:1.0;"/><path d="M2030,569 L2030,595 L2132,595 L2132,579 L2122,569 L2030,569 " fill="#FEFFDD" style="stroke:#181818;stroke-width:0.5;"/><path d="M2122,569 L2122,579 L2132,579 L2122,569 " fill="#FEFFDD" style="stroke:#181818;stroke-width:0.5;"/><text fill="#000000" font-family="sans-serif" font-size="13" lengthAdjust="spacing" textLength="81" x="2036" y="587.4951">cerrarSesion()</text></g><!--SRC=[dPNjQjim58R_-of4zgSTbB5-mYW1nVMAHX8BEnkCKeBid0MjZYGajn36ODUoMzWbx4vs9PFbVDcrKwVE7qSwUjvNv-Z8ve4BnJHRe8mBo9SAa9BPilZZUIPdEI0ktYDcK8-ClmJnXDpYcp0AuYaUa22QX77FAm9ExjxCDO2uF-aZbcYkAHEGKSr5oXNBjgnJnmgfJyAnfVWukiNJIOG7-5EuOcB7FEtEFAioQH1z9CErmO9rrfrrxbWZOZ6V1qFYunLqrzfvTzo5mxMZBhgZBXqg2lnmH8DnZAkWo-wWgz9J57uDV5l0IYMlNiQiE0rpZjimVdJSGpyy3zcdNDkpFnixaYRNJCoa2oy3xjxULopKOeeG8Ir2YkB4FhY1wwHFn1EOdC_PJEhhTqaV6PdnbEUiz8aWGwe08BNPIB4InCpXIksgLiM6jTMg7NEJmu8vMQN1WB2opmNH4YdG2su1QtCQPJODXiyVkLq41h4qvLA0-U3O_txzHjZPLrek8SsbgOtpdMr3VL93AXSAX67rcGKtI3qcrWGhzUfoU-QaAeVH38hzVEFPde2KwJahNcnU4_PTRa9zqDfktu3XV_-8QYr-UbxJuTej1yNZO3Yb4HdxXE9DhtkLyj1Q_f-uuKa6thReBycqN2bL6GS9LvkcBYD7nwyHQRuBzuZvHNOdPMOFadpU-mqgT7tc3aAtV2KQ-AHoTWyIQR-U6tH6tD3TytnOfhggl5wYwKPl48YstNmGFWvYQtxg1r64Rt0LdBekZ6qJIh4B_Gy0]--></g></svg>