<?xml version="1.0" encoding="us-ascii" standalone="no"?><svg xmlns="http://www.w3.org/2000/svg" xmlns:xlink="http://www.w3.org/1999/xlink" contentStyleType="text/css" height="800px" preserveAspectRatio="none" style="width:707px;height:800px;background:#FFFFFF;" version="1.1" viewBox="0 0 707 800" width="707px" zoomAndPan="magnify"><defs/><g><g id="in1"><rect fill="#F1F1F1" height="50" rx="12.5" ry="12.5" style="stroke:#181818;stroke-width:0.5;" width="215" x="239" y="7"/><line style="stroke:#181818;stroke-width:0.5;" x1="239" x2="454" y1="34.6094" y2="34.6094"/><text fill="#000000" font-family="sans-serif" font-size="14" lengthAdjust="spacing" textLength="195" x="249" y="26.5332">CONVOCATORIAS_ABIERTAS</text></g><path d="M164,118 L529,118 A12.5,12.5 0 0 1 541.5,130.5 L541.5,145.6094 L151.5,145.6094 L151.5,130.5 A12.5,12.5 0 0 1 164,118 " fill="#F1F1F1" style="stroke:#F1F1F1;stroke-width:1.0;"/><rect fill="none" height="529.6094" rx="12.5" ry="12.5" style="stroke:#181818;stroke-width:0.5;" width="390" x="151.5" y="118"/><line style="stroke:#181818;stroke-width:0.5;" x1="151.5" x2="541.5" y1="145.6094" y2="145.6094"/><text fill="#000000" font-family="sans-serif" font-size="14" lengthAdjust="spacing" textLength="123" x="285" y="137.5332">abrirConvocatoria()</text><g id="abrirConvocatoria.CargandoDetalle"><rect fill="#F1F1F1" height="50" rx="12.5" ry="12.5" style="stroke:#181818;stroke-width:0.5;" width="50" x="163.5" y="248.6094"/><line style="stroke:#181818;stroke-width:0.5;" x1="163.5" x2="213.5" y1="276.2188" y2="276.2188"/><text fill="#000000" font-family="sans-serif" font-size="14" lengthAdjust="spacing" textLength="4" x="186.5" y="268.1426">&#160;</text></g><ellipse cx="188.5" cy="166.6094" fill="#222222" rx="10" ry="10" style="stroke:#222222;stroke-width:1.0;"/><ellipse cx="188.5" cy="626.6094" fill="none" rx="11" ry="11" style="stroke:#222222;stroke-width:1.0;"/><ellipse cx="188.5" cy="626.6094" fill="#222222" rx="6" ry="6" style="stroke:#222222;stroke-width:1.0;"/><!--link *start*abrirConvocatoria to CargandoDetalle--><g id="link_*start*abrirConvocatoria_CargandoDetalle"><path d="M188.5,176.9294 C188.5,192.7894 188.5,219.5194 188.5,242.2494 " fill="none" id="*start*abrirConvocatoria-to-CargandoDetalle" style="stroke:#008000;stroke-width:1.0;"/><polygon fill="#008000" points="188.5,248.2494,192.5,239.2494,188.5,243.2494,184.5,239.2494,188.5,248.2494" style="stroke:#008000;stroke-width:1.0;"/><path d="M193.5,199.6094 L193.5,225.6094 L468.5,225.6094 L468.5,209.6094 L458.5,199.6094 L193.5,199.6094 " fill="#FEFFDD" style="stroke:#181818;stroke-width:0.5;"/><path d="M458.5,199.6094 L458.5,209.6094 L468.5,209.6094 L458.5,199.6094 " fill="#FEFFDD" style="stroke:#181818;stroke-width:0.5;"/><text fill="#000000" font-family="sans-serif" font-size="13" font-weight="bold" lengthAdjust="spacing" textLength="79" x="199.5" y="218.1045">Coordinador</text><text fill="#000000" font-family="sans-serif" font-size="13" lengthAdjust="spacing" textLength="171" x="282.5" y="218.1045">solicita abrir una convocatoria</text></g><!--link CargandoDetalle to *end*abrirConvocatoria--><g id="link_CargandoDetalle_*end*abrirConvocatoria"><path d="M188.5,298.7394 C188.5,368.4294 188.5,562.1194 188.5,609.4594 " fill="none" id="CargandoDetalle-to-*end*abrirConvocatoria" style="stroke:#008000;stroke-width:1.0;"/><polygon fill="#008000" points="188.5,615.4594,192.5,606.4594,188.5,610.4594,184.5,606.4594,188.5,615.4594" style="stroke:#008000;stroke-width:1.0;"/><path d="M193.5,321.6094 L193.5,592.6094 L532.5,592.6094 L532.5,331.6094 L522.5,321.6094 L193.5,321.6094 " fill="#FEFFDD" style="stroke:#181818;stroke-width:0.5;"/><path d="M522.5,321.6094 L522.5,331.6094 L532.5,331.6094 L522.5,321.6094 " fill="#FEFFDD" style="stroke:#181818;stroke-width:0.5;"/><text fill="#000000" font-family="sans-serif" font-size="13" font-weight="bold" lengthAdjust="spacing" textLength="51" x="199.5" y="340.1045">Sistema</text><text fill="#000000" font-family="sans-serif" font-size="13" lengthAdjust="spacing" textLength="263" x="254.5" y="340.1045">presenta y visualiza la convocatoria solicitada</text><text fill="#000000" font-family="sans-serif" font-size="13" font-weight="bold" lengthAdjust="spacing" textLength="51" x="199.5" y="356.4561">Sistema</text><text fill="#000000" font-family="sans-serif" font-size="13" lengthAdjust="spacing" textLength="51" x="254.5" y="356.4561">muestra:</text><text fill="#000000" font-family="sans-serif" font-size="13" lengthAdjust="spacing" textLength="40" x="199.5" y="372.8076">&#8226; T&#237;tulo</text><text fill="#000000" font-family="sans-serif" font-size="13" lengthAdjust="spacing" textLength="36" x="199.5" y="389.1592">&#8226; &#193;rea</text><text fill="#000000" font-family="sans-serif" font-size="13" lengthAdjust="spacing" textLength="50" x="199.5" y="405.5107">&#8226; Estado</text><text fill="#000000" font-family="sans-serif" font-size="13" lengthAdjust="spacing" textLength="114" x="199.5" y="421.8623">&#8226; Fechas relevantes</text><text fill="#000000" font-family="sans-serif" font-size="13" lengthAdjust="spacing" textLength="77" x="199.5" y="438.2139">&#8226; Descripci&#243;n</text><text fill="#000000" font-family="sans-serif" font-size="13" lengthAdjust="spacing" textLength="154" x="199.5" y="454.5654">&#8226; Requisitos y condiciones</text><text fill="#000000" font-family="sans-serif" font-size="13" lengthAdjust="spacing" textLength="203" x="199.5" y="470.917">&#8226; Criterios de evaluaci&#243;n y dotaci&#243;n</text><text fill="#000000" font-family="sans-serif" font-size="13" lengthAdjust="spacing" textLength="155" x="199.5" y="487.2686">&#8226; Documentaci&#243;n asociada</text><text fill="#000000" font-family="sans-serif" font-size="13" lengthAdjust="spacing" textLength="147" x="199.5" y="503.6201">&#8226; Informaci&#243;n de contacto</text><text fill="#000000" font-family="sans-serif" font-size="13" lengthAdjust="spacing" textLength="4" x="199.5" y="519.9717">&#160;</text><text fill="#000000" font-family="sans-serif" font-size="13" font-weight="bold" lengthAdjust="spacing" textLength="51" x="199.5" y="536.3232">Sistema</text><text fill="#000000" font-family="sans-serif" font-size="13" lengthAdjust="spacing" textLength="96" x="254.5" y="536.3232">permite solicitar:</text><text fill="#000000" font-family="sans-serif" font-size="13" lengthAdjust="spacing" textLength="132" x="199.5" y="552.6748">&#8226; Importar convocatoria</text><text fill="#000000" font-family="sans-serif" font-size="13" lengthAdjust="spacing" textLength="138" x="199.5" y="569.0264">&#8226; Volver a convocatorias</text><text fill="#000000" font-family="sans-serif" font-size="13" lengthAdjust="spacing" textLength="145" x="199.5" y="585.3779">&#8226; Volver al panel principal</text></g><g id="CONVOCATORIA_ABIERTA"><rect fill="#F1F1F1" height="50" rx="12.5" ry="12.5" style="stroke:#181818;stroke-width:0.5;" width="197" x="7" y="744"/><line style="stroke:#181818;stroke-width:0.5;" x1="7" x2="204" y1="771.6094" y2="771.6094"/><text fill="#000000" font-family="sans-serif" font-size="14" lengthAdjust="spacing" textLength="177" x="17" y="763.5332">CONVOCATORIA_ABIERTA</text></g><g id="CONVOCATORIAS_ABIERTAS"><rect fill="#F1F1F1" height="50" rx="12.5" ry="12.5" style="stroke:#181818;stroke-width:0.5;" width="215" x="239" y="744"/><line style="stroke:#181818;stroke-width:0.5;" x1="239" x2="454" y1="771.6094" y2="771.6094"/><text fill="#000000" font-family="sans-serif" font-size="14" lengthAdjust="spacing" textLength="195" x="249" y="763.5332">CONVOCATORIAS_ABIERTAS</text></g><g id="PANEL_PRINCIPAL_ABIERTO"><rect fill="#F1F1F1" height="50" rx="12.5" ry="12.5" style="stroke:#181818;stroke-width:0.5;" width="210" x="489.5" y="744"/><line style="stroke:#181818;stroke-width:0.5;" x1="489.5" x2="699.5" y1="771.6094" y2="771.6094"/><text fill="#000000" font-family="sans-serif" font-size="14" lengthAdjust="spacing" textLength="190" x="499.5" y="763.5332">PANEL_PRINCIPAL_ABIERTO</text></g><!--link in1 to abrirConvocatoria--><g id="link_in1_abrirConvocatoria"><path d="M346.5,57.26 C346.5,72.34 346.5,87.44 346.5,111.74 " fill="none" id="in1-to-abrirConvocatoria" style="stroke:#008000;stroke-width:1.0;"/><polygon fill="#008000" points="346.5,117.74,350.5,108.74,346.5,112.74,342.5,108.74,346.5,117.74" style="stroke:#008000;stroke-width:1.0;"/></g><!--link abrirConvocatoria to CONVOCATORIA_ABIERTA--><g id="link_abrirConvocatoria_CONVOCATORIA_ABIERTA"><path d="M180.76,648.08 C156.05,687.46 137.4892,717.0178 123.8092,738.8178 " fill="none" id="abrirConvocatoria-to-CONVOCATORIA_ABIERTA" style="stroke:#008000;stroke-width:1.0;"/><polygon fill="#008000" points="120.62,743.9,128.792,738.4028,123.2777,739.6648,122.0157,734.1505,120.62,743.9" style="stroke:#008000;stroke-width:1.0;"/><path d="M163.5,683 L163.5,709 L316.5,709 L316.5,693 L306.5,683 L163.5,683 " fill="#FEFFDD" style="stroke:#181818;stroke-width:0.5;"/><path d="M306.5,683 L306.5,693 L316.5,693 L306.5,683 " fill="#FEFFDD" style="stroke:#181818;stroke-width:0.5;"/><text fill="#000000" font-family="sans-serif" font-size="13" lengthAdjust="spacing" textLength="132" x="169.5" y="701.4951">Convocatoria mostrada</text></g><!--link abrirConvocatoria to CONVOCATORIAS_ABIERTAS--><g id="link_abrirConvocatoria_CONVOCATORIAS_ABIERTAS"><path d="M346.5,648.08 C346.5,687.46 346.5,716.1 346.5,737.9 " fill="none" id="abrirConvocatoria-to-CONVOCATORIAS_ABIERTAS" style="stroke:#008000;stroke-width:1.0;"/><polygon fill="#008000" points="346.5,743.9,350.5,734.9,346.5,738.9,342.5,734.9,346.5,743.9" style="stroke:#008000;stroke-width:1.0;"/><path d="M351.5,683 L351.5,709 L486.5,709 L486.5,693 L476.5,683 L351.5,683 " fill="#FEFFDD" style="stroke:#181818;stroke-width:0.5;"/><path d="M476.5,683 L476.5,693 L486.5,693 L476.5,683 " fill="#FEFFDD" style="stroke:#181818;stroke-width:0.5;"/><text fill="#000000" font-family="sans-serif" font-size="13" lengthAdjust="spacing" textLength="114" x="357.5" y="701.4951">abrirConvocatorias()</text></g><!--link abrirConvocatoria to PANEL_PRINCIPAL_ABIERTO--><g id="link_abrirConvocatoria_PANEL_PRINCIPAL_ABIERTO"><path d="M517.05,648.08 C542.48,687.46 561.6047,717.0599 575.6847,738.8599 " fill="none" id="abrirConvocatoria-to-PANEL_PRINCIPAL_ABIERTO" style="stroke:#008000;stroke-width:1.0;"/><polygon fill="#008000" points="578.94,743.9,577.4172,734.1696,576.2273,739.6999,570.697,738.51,578.94,743.9" style="stroke:#008000;stroke-width:1.0;"/><path d="M563.5,683 L563.5,709 L700.5,709 L700.5,693 L690.5,683 L563.5,683 " fill="#FEFFDD" style="stroke:#181818;stroke-width:0.5;"/><path d="M690.5,683 L690.5,693 L700.5,693 L690.5,683 " fill="#FEFFDD" style="stroke:#181818;stroke-width:0.5;"/><text fill="#000000" font-family="sans-serif" font-size="13" lengthAdjust="spacing" textLength="116" x="569.5" y="701.4951">abrirPanelPrincipal()</text></g><!--SRC=[ZLF1Qjj04BthAnRtaXH2wBK4Woex80Ysi4qk8OInD4sNh7RKsPN1BONsLthlgP_WF-cNP5QAPIjo8H88TjxCUpDFi-v9smeOIcMqHR-jK5Lajk4GHSw3HwNj1mLEZPBvx7QUnAlv8esN3_6dTBfOnSjH5F2BktUFZ6ZlByOArgmv8RkX73onXZtH06Xe1z6pyv7w7aLAdhPk9Aza9i2FO0kQe0TZiCsuUt_V4t-T578i2GdPCE5J4xXQZnCYBhI5WlZgSZrMZepEjOUsILLRKFdn2A4CRT5mjSglb7fTI5V_LLvgvx64HhLYT6X5TQissjLWz3TGfY_TjLR0AOgoHkSPFZROlv-_rMhtnzU6klFk5oDqfwbOMXp0Qyo_YBMC1ZTWFReEcQ3BMLUvtlsrNN21Nsljj2Sd7KkJXJH6zgWgOUsHjU05Ag4qDJGCabwGXpxRXFAw3EEtAU0er_if0vxQpyJb2ofy8YYvdgAJLYANejsvnGT7qh8YbiZmZmRqbim6MVLDTmFOg0eiofUrpNK5fhyIFw9ekDwznJowFVlB4_NserTQKlYhOiPXwTxEVxYTVOK1WpixVxD05i-cDm_P8fqbQHRVl4ZCJoXamQXixzEnn3C0]--></g></svg>