<svg xmlns="http://www.w3.org/2000/svg" xmlns:xlink="http://www.w3.org/1999/xlink" contentStyleType="text/css" data-diagram-type="STATE" height="795px" preserveAspectRatio="none" style="width:488px;height:795px;background:#FFFFFF;" version="1.1" viewBox="0 0 488 795" width="488px" zoomAndPan="magnify"><defs/><g><g><rect fill="#F1F1F1" height="50" rx="12.5" ry="12.5" style="stroke:#181818;stroke-width:0.5;" width="213.0879" x="7" y="7"/><line style="stroke:#181818;stroke-width:0.5;" x1="7" x2="220.0879" y1="33.2969" y2="33.2969"/><text fill="#000000" font-family="sans-serif" font-size="14" lengthAdjust="spacing" textLength="193.0879" x="17" y="24.9951">PANEL_PRINCIPAL_ABIERTO</text></g><g><rect fill="#F1F1F1" height="50" rx="12.5" ry="12.5" style="stroke:#181818;stroke-width:0.5;" width="181.9844" x="255.55" y="7"/><line style="stroke:#181818;stroke-width:0.5;" x1="255.55" x2="437.5344" y1="33.2969" y2="33.2969"/><text fill="#000000" font-family="sans-serif" font-size="14" lengthAdjust="spacing" textLength="161.9844" x="265.55" y="24.9951">PUBLICACION_ABIERTA</text></g><path d="M62.54,152 L396.54,152 A12.5,12.5 0 0 1 409.04,164.5 L409.04,178.2969 L50.04,178.2969 L50.04,164.5 A12.5,12.5 0 0 1 62.54,152" fill="#F1F1F1"/><rect fill="none" height="492.2969" rx="12.5" ry="12.5" style="stroke:#181818;stroke-width:0.5;" width="359" x="50.04" y="152"/><line style="stroke:#181818;stroke-width:0.5;" x1="50.04" x2="409.04" y1="178.2969" y2="178.2969"/><text fill="#000000" font-family="sans-serif" font-size="14" lengthAdjust="spacing" textLength="138.9814" x="160.0493" y="169.9951">abrirPublicaciones()</text><g><rect fill="#F1F1F1" height="50" rx="12.5" ry="12.5" style="stroke:#181818;stroke-width:0.5;" width="50" x="62.04" y="280.2969"/><line style="stroke:#181818;stroke-width:0.5;" x1="62.04" x2="112.04" y1="306.5938" y2="306.5938"/><text fill="#000000" font-family="sans-serif" font-size="14" lengthAdjust="spacing" textLength="4.4502" x="84.8149" y="298.292">&#160;</text></g><g><rect fill="#F1F1F1" height="50" rx="12.5" ry="12.5" style="stroke:#181818;stroke-width:0.5;" width="50" x="62.04" y="491.2969"/><line style="stroke:#181818;stroke-width:0.5;" x1="62.04" x2="112.04" y1="517.5938" y2="517.5938"/><text fill="#000000" font-family="sans-serif" font-size="14" lengthAdjust="spacing" textLength="4.4502" x="84.8149" y="509.292">&#160;</text></g><ellipse cx="87.04" cy="199.2969" fill="#222222" rx="10" ry="10" style="stroke:#222222;stroke-width:1;"/><ellipse cx="87.04" cy="623.2969" fill="none" rx="11" ry="11" style="stroke:#222222;stroke-width:1;"/><ellipse cx="87.04" cy="623.2969" fill="#222222" rx="6" ry="6" style="stroke:#222222;stroke-width:1;"/><!--link *start*abrirPublicaciones to MostrandoListado--><g class="link" data-entity-1="ent0004" data-entity-2="ent0005" data-link-type="dependency" data-source-line="20" id="lnk5"><path d="M87.04,209.5269 C87.04,225.2369 87.04,251.6569 87.04,274.1669" fill="none" id="*start*abrirPublicaciones-to-MostrandoListado" style="stroke:#008000;stroke-width:1;"/><polygon fill="#008000" points="87.04,280.1669,91.04,271.1669,87.04,275.1669,83.04,271.1669,87.04,280.1669" style="stroke:#008000;stroke-width:1;"/><path d="M92.04,232.2969 L92.04,257.2969 L380.04,257.2969 L380.04,242.2969 L370.04,232.2969 L92.04,232.2969" fill="#FEFFDD" style="stroke:#181818;stroke-width:0.5;"/><path d="M370.04,232.2969 L370.04,242.2969 L380.04,242.2969 L370.04,232.2969" fill="#FEFFDD" style="stroke:#181818;stroke-width:0.5;"/><text fill="#000000" font-family="sans-serif" font-size="13" font-weight="bold" lengthAdjust="spacing" textLength="90.251" x="98.04" y="249.3638">Coordinador</text><text fill="#000000" font-family="sans-serif" font-size="13" lengthAdjust="spacing" textLength="173.3608" x="192.4233" y="249.3638">solicita abrir publicaciones</text></g><!--link MostrandoListado to FiltrandoListado--><g class="link" data-entity-1="ent0005" data-entity-2="ent0006" data-link-type="dependency" data-source-line="25" id="lnk6"><path d="M87.04,330.6769 C87.04,370.9569 87.04,444.8969 87.04,485.0669" fill="none" id="MostrandoListado-to-FiltrandoListado" style="stroke:#008000;stroke-width:1;"/><polygon fill="#008000" points="87.04,491.0669,91.04,482.0669,87.04,486.0669,83.04,482.0669,87.04,491.0669" style="stroke:#008000;stroke-width:1;"/><path d="M92.04,353.2969 L92.04,468.2969 L394.04,468.2969 L394.04,363.2969 L384.04,353.2969 L92.04,353.2969" fill="#FEFFDD" style="stroke:#181818;stroke-width:0.5;"/><path d="M384.04,353.2969 L384.04,363.2969 L394.04,363.2969 L384.04,353.2969" fill="#FEFFDD" style="stroke:#181818;stroke-width:0.5;"/><text fill="#000000" font-family="sans-serif" font-size="13" font-weight="bold" lengthAdjust="spacing" textLength="58.9063" x="98.04" y="370.3638">Sistema</text><text fill="#000000" font-family="sans-serif" font-size="13" lengthAdjust="spacing" textLength="218.3848" x="161.0786" y="370.3638">presenta listado de publicaciones</text><text fill="#000000" font-family="sans-serif" font-size="13" lengthAdjust="spacing" textLength="48.2549" x="98.04" y="385.4966">&#8226; T&#237;tulo</text><text fill="#000000" font-family="sans-serif" font-size="13" lengthAdjust="spacing" textLength="47.3281" x="98.04" y="400.6294">&#8226; Autor</text><text fill="#000000" font-family="sans-serif" font-size="13" lengthAdjust="spacing" textLength="50.6289" x="98.04" y="415.7622">&#8226; Fecha</text><text fill="#000000" font-family="sans-serif" font-size="13" font-weight="bold" lengthAdjust="spacing" textLength="58.9063" x="98.04" y="430.895">Sistema</text><text fill="#000000" font-family="sans-serif" font-size="13" lengthAdjust="spacing" textLength="110.5952" x="161.0786" y="430.895">permite solicitar:</text><text fill="#000000" font-family="sans-serif" font-size="13" lengthAdjust="spacing" textLength="120.4849" x="98.04" y="446.0278">&#8226; abrir publicaci&#243;n</text><text fill="#000000" font-family="sans-serif" font-size="13" lengthAdjust="spacing" textLength="94.7515" x="98.04" y="461.1606">&#8226; filtrar listado</text></g><!--link FiltrandoListado to *end*abrirPublicaciones--><g class="link" data-entity-1="ent0006" data-entity-2="ent0007" data-link-type="dependency" data-source-line="36" id="lnk8"><path d="M87.04,541.6469 C87.04,563.9469 87.04,589.8569 87.04,606.0369" fill="none" id="FiltrandoListado-to-*end*abrirPublicaciones" style="stroke:#008000;stroke-width:1;"/><polygon fill="#008000" points="87.04,612.0369,91.04,603.0369,87.04,607.0369,83.04,603.0369,87.04,612.0369" style="stroke:#008000;stroke-width:1;"/><path d="M92.04,564.2969 L92.04,589.2969 L400.04,589.2969 L400.04,574.2969 L390.04,564.2969 L92.04,564.2969" fill="#FEFFDD" style="stroke:#181818;stroke-width:0.5;"/><path d="M390.04,564.2969 L390.04,574.2969 L400.04,574.2969 L390.04,564.2969" fill="#FEFFDD" style="stroke:#181818;stroke-width:0.5;"/><text fill="#000000" font-family="sans-serif" font-size="13" font-weight="bold" lengthAdjust="spacing" textLength="90.251" x="98.04" y="581.3638">Coordinador</text><text fill="#000000" font-family="sans-serif" font-size="13" lengthAdjust="spacing" textLength="193.0322" x="192.4233" y="581.3638">solicita una opci&#243;n del listado</text></g><g><rect fill="#F1F1F1" height="50" rx="12.5" ry="12.5" style="stroke:#181818;stroke-width:0.5;" width="208.6035" x="125.24" y="739.3"/><line style="stroke:#181818;stroke-width:0.5;" x1="125.24" x2="333.8435" y1="765.5969" y2="765.5969"/><text fill="#000000" font-family="sans-serif" font-size="14" lengthAdjust="spacing" textLength="188.6035" x="135.24" y="757.2951">PUBLICACIONES_ABIERTAS</text></g><!--link in2 to abrirPublicaciones--><g class="link" data-entity-1="ent0002" data-entity-2="ent0004" data-link-type="dependency" data-source-line="4" id="lnk2"><path d="M121.34,57.46 C128.24,79.15 137.2996,107.5628 149.5396,146.0028" fill="none" id="in2-to-abrirPublicaciones" style="stroke:#008000;stroke-width:1;"/><polygon fill="#008000" points="151.36,151.72,152.4408,141.9306,149.843,146.9557,144.8179,144.3579,151.36,151.72" style="stroke:#008000;stroke-width:1;"/><path d="M147.54,92 L147.54,117 L297.54,117 L297.54,102 L287.54,92 L147.54,92" fill="#FEFFDD" style="stroke:#181818;stroke-width:0.5;"/><path d="M287.54,92 L287.54,102 L297.54,102 L287.54,92" fill="#FEFFDD" style="stroke:#181818;stroke-width:0.5;"/><text fill="#000000" font-family="sans-serif" font-size="13" lengthAdjust="spacing" textLength="129.0542" x="153.54" y="109.0669">abrirPublicaciones()</text></g><!--link in1 to abrirPublicaciones--><g class="link" data-entity-1="ent0003" data-entity-2="ent0004" data-link-type="dependency" data-source-line="10" id="lnk3"><path d="M338.69,57.46 C331.72,79.15 322.5853,107.5676 310.2353,146.0076" fill="none" id="in1-to-abrirPublicaciones" style="stroke:#008000;stroke-width:1;"/><polygon fill="#008000" points="308.4,151.72,314.9612,144.3749,309.9294,146.9597,307.3446,141.9278,308.4,151.72" style="stroke:#008000;stroke-width:1;"/><path d="M331.54,92 L331.54,117 L481.54,117 L481.54,102 L471.54,92 L331.54,92" fill="#FEFFDD" style="stroke:#181818;stroke-width:0.5;"/><path d="M471.54,92 L471.54,102 L481.54,102 L471.54,92" fill="#FEFFDD" style="stroke:#181818;stroke-width:0.5;"/><text fill="#000000" font-family="sans-serif" font-size="13" lengthAdjust="spacing" textLength="129.0542" x="337.54" y="109.0669">abrirPublicaciones()</text></g><!--link abrirPublicaciones to PUBLICACIONES_ABIERTAS--><g class="link" data-entity-1="ent0004" data-entity-2="ent0009" data-link-type="dependency" data-source-line="43" id="lnk10"><path d="M229.54,644.57 C229.54,683.03 229.54,711.18 229.54,732.87" fill="none" id="abrirPublicaciones-to-PUBLICACIONES_ABIERTAS" style="stroke:#008000;stroke-width:1;"/><polygon fill="#008000" points="229.54,738.87,233.54,729.87,229.54,733.87,225.54,729.87,229.54,738.87" style="stroke:#008000;stroke-width:1;"/><path d="M234.54,679.3 L234.54,704.3 L369.54,704.3 L369.54,689.3 L359.54,679.3 L234.54,679.3" fill="#FEFFDD" style="stroke:#181818;stroke-width:0.5;"/><path d="M359.54,679.3 L359.54,689.3 L369.54,689.3 L359.54,679.3" fill="#FEFFDD" style="stroke:#181818;stroke-width:0.5;"/><text fill="#000000" font-family="sans-serif" font-size="13" lengthAdjust="spacing" textLength="114.2832" x="240.54" y="696.3669">abrirPublicacion()</text></g><!--SRC=[hLF1QW8n4BtdAyBsqXQas6CHOLqK5hQwg3s9IDPDss3CB4ds8ANGR-czftw2Vz8lQRBgQjoqKEZcD9atyzwRpAeL4mMHP8qv4rHl2eeBu1iR8AGqqHGpSOk9ma4Q3ll98Xt7moXEmsGHzkB-U3eAa0MqPXTFab8nRtKnoIIJQPbnjYHB1e8g9C0q0c59LgYPlxn2LEJOeewixHthGo-9ep2AHyCzOsWPs__Fs0HL0dor0Nv129jlLncOOw3teBGa8eU4cViSceW1uowYWiokvuuRRn_7ZxtePDq8GEPC68Zit6HThC28P9hihE326OYjELgsqJcF8w8XzISH4vEdQr89A2HLL1W1VDynfnuLNs_lUBhzq2M7EWvB3RAE1dJvJBm4LAwPqN1mAk_gcZFFsqzHfnuhB_AWoZEASxVEACpx_Fq9Ia4m59KECmNkvtv5oBER3ld9_lSdXpzWyljwdoptDm00]--></g></svg>