<?plantuml 1.2026.2?><svg xmlns="http://www.w3.org/2000/svg" xmlns:xlink="http://www.w3.org/1999/xlink" contentStyleType="text/css" data-diagram-type="DESCRIPTION" height="313px" preserveAspectRatio="none" style="width:777px;height:313px;background:#FFFFFF;" version="1.1" viewBox="0 0 777 313" width="777px" zoomAndPan="magnify"><defs/><g><!--cluster responderPublicacion--><g class="cluster" data-qualified-name="responderPublicacion" data-source-line="9" id="ent0003"><path d="M8.5,6 L167.0703,6 A3.75,3.75 0 0 1 169.5703,8.5 L176.5703,25.9688 L526.5,25.9688 A2.5,2.5 0 0 1 529,28.4688 L529,303.5 A2.5,2.5 0 0 1 526.5,306 L8.5,306 A2.5,2.5 0 0 1 6,303.5 L6,8.5 A2.5,2.5 0 0 1 8.5,6" fill="none" style="stroke:#000000;stroke-width:1.5;"/><line style="stroke:#000000;stroke-width:1.5;" x1="6" x2="176.5703" y1="25.9688" y2="25.9688"/><text fill="#000000" font-family="sans-serif" font-size="12" font-weight="bold" lengthAdjust="spacing" textLength="157.5703" x="10" y="19.1387">responderPublicacion()</text></g><!--entity ResponderPublicacionView--><g class="entity" data-qualified-name="responderPublicacion.ResponderPublicacionView" data-source-line="10" id="ent0004"><rect fill="#629EF9" height="33.9688" rx="2.5" ry="2.5" style="stroke:#181818;stroke-width:0.5;" width="181.168" x="303.5" y="38"/><text fill="#000000" font-family="sans-serif" font-size="12" lengthAdjust="spacing" textLength="161.168" x="313.5" y="59.1387">ResponderPublicacionView</text></g><!--entity PublicacionController--><g class="entity" data-qualified-name="responderPublicacion.PublicacionController" data-source-line="11" id="ent0005"><rect fill="#B5BD68" height="33.9688" rx="2.5" ry="2.5" style="stroke:#181818;stroke-width:0.5;" width="147.248" x="22.5" y="147"/><text fill="#000000" font-family="sans-serif" font-size="12" lengthAdjust="spacing" textLength="127.248" x="32.5" y="168.1387">PublicacionController</text></g><!--entity PublicacionRepository--><g class="entity" data-qualified-name="responderPublicacion.PublicacionRepository" data-source-line="12" id="ent0006"><rect fill="#F2AC4E" height="33.9688" rx="2.5" ry="2.5" style="stroke:#181818;stroke-width:0.5;" width="152.3047" x="22" y="256"/><text fill="#000000" font-family="sans-serif" font-size="12" lengthAdjust="spacing" textLength="132.3047" x="32" y="277.1387">PublicacionRepository</text></g><!--entity Publicacion--><g class="entity" data-qualified-name="responderPublicacion.Publicacion" data-source-line="13" id="ent0007"><rect fill="#F2AC4E" height="33.9688" rx="2.5" ry="2.5" style="stroke:#181818;stroke-width:0.5;" width="87.957" x="425" y="147"/><text fill="#000000" font-family="sans-serif" font-size="12" lengthAdjust="spacing" textLength="67.957" x="435" y="168.1387">Publicacion</text></g><!--entity Sesion--><g class="entity" data-qualified-name="responderPublicacion.Sesion" data-source-line="14" id="ent0008"><rect fill="#F2AC4E" height="33.9688" rx="2.5" ry="2.5" style="stroke:#181818;stroke-width:0.5;" width="59.5332" x="283" y="256"/><text fill="#000000" font-family="sans-serif" font-size="12" lengthAdjust="spacing" textLength="39.5332" x="293" y="277.1387">Sesion</text></g><!--entity PublicacionAbierta--><g class="entity" data-qualified-name="PublicacionAbierta" data-source-line="7" id="ent0002"><rect fill="#CDEBA5" height="33.9688" rx="2.5" ry="2.5" style="stroke:#181818;stroke-width:0.5;" width="158.8438" x="581.5" y="147"/><text fill="#000000" font-family="sans-serif" font-size="12" lengthAdjust="spacing" textLength="138.8438" x="591.5" y="168.1387">PUBLICACION_ABIERTA</text></g><!--link PublicacionAbierta to ResponderPublicacionView--><g class="link" data-entity-1="ent0002" data-entity-2="ent0004" data-link-type="dependency" data-source-line="17" id="lnk9"><path d="M581.41,150.67 C493.43,137.05 364,117 364,117 C364,117 364,102 364,102 C364,102 371.5818,90.3753 380.2318,77.1153" fill="none" id="PublicacionAbierta-to-ResponderPublicacionView" style="stroke:#181818;stroke-width:1;"/><polygon fill="#181818" points="383.51,72.09,375.2425,77.4425,380.7782,76.2777,381.9429,81.8134,383.51,72.09" style="stroke:#181818;stroke-width:1;"/><text fill="#000000" font-family="sans-serif" font-size="12" lengthAdjust="spacing" textLength="252.4043" x="365" y="114.1387">responderPublicacion(publicacionPadreId)</text></g><!--link ResponderPublicacionView to PublicacionAbierta--><g class="link" data-entity-1="ent0004" data-entity-2="ent0002" data-link-type="dependency" data-source-line="24" id="lnk14"><path d="M473.42,72.02 C539.22,85.3 622,102 622,102 C622,102 635.9686,123.8445 647.5186,141.9145" fill="none" id="ResponderPublicacionView-to-PublicacionAbierta" style="stroke:#181818;stroke-width:1;stroke-dasharray:7,7;"/><polygon fill="#181818" points="650.75,146.97,649.2733,137.2325,648.0572,142.7571,642.5326,141.541,650.75,146.97" style="stroke:#181818;stroke-width:1;"/><text fill="#000000" font-family="sans-serif" font-size="12" lengthAdjust="spacing" textLength="62.4551" x="632" y="114.1387">&#171;finalizar&#187;</text></g><!--link ResponderPublicacionView to PublicacionAbierta--><g class="link" data-entity-1="ent0004" data-entity-2="ent0002" data-link-type="dependency" data-source-line="25" id="lnk15"><path d="M484.62,69.49 C575.8,83.06 703,102 703,102 C703,102 703,117 703,117 C703,117 691.8462,129.2196 679.7362,142.4796" fill="none" id="ResponderPublicacionView-to-PublicacionAbierta-1" style="stroke:#181818;stroke-width:1;stroke-dasharray:7,7;"/><polygon fill="#181818" points="675.69,146.91,684.7129,142.9618,679.0618,143.218,678.8057,137.5669,675.69,146.91" style="stroke:#181818;stroke-width:1;"/><text fill="#000000" font-family="sans-serif" font-size="12" lengthAdjust="spacing" textLength="65.8418" x="704" y="114.1387">&#171;cancelar&#187;</text></g><!--link ResponderPublicacionView to PublicacionController--><g class="link" data-entity-1="ent0004" data-entity-2="ent0005" data-link-type="dependency" data-source-line="19" id="lnk10"><path d="M303.3,71.51 C225.21,84.86 125,102 125,102 C125,102 114.786,123.4811 106.196,141.5511" fill="none" id="ResponderPublicacionView-to-PublicacionController" style="stroke:#181818;stroke-width:1;"/><polygon fill="#181818" points="103.62,146.97,111.0966,140.559,105.7667,142.4543,103.8714,137.1244,103.62,146.97" style="stroke:#181818;stroke-width:1;"/><text fill="#000000" font-family="sans-serif" font-size="12" lengthAdjust="spacing" textLength="229.1426" x="126" y="114.1387">enviarRespuesta(contenido) : boolean</text></g><!--link PublicacionController to Sesion--><g class="link" data-entity-1="ent0005" data-entity-2="ent0008" data-link-type="dependency" data-source-line="20" id="lnk11"><path d="M158.26,181.09 C209.59,194.35 274,211 274,211 C274,211 287.9686,232.8445 299.5186,250.9145" fill="none" id="PublicacionController-to-Sesion" style="stroke:#181818;stroke-width:1;"/><polygon fill="#181818" points="302.75,255.97,301.2733,246.2325,300.0572,251.7571,294.5326,250.541,302.75,255.97" style="stroke:#181818;stroke-width:1;"/><text fill="#000000" font-family="sans-serif" font-size="12" lengthAdjust="spacing" textLength="169.752" x="285" y="223.1387">getUsuarioActual() : Usuario</text></g><!--link PublicacionController to Publicacion--><g class="link" data-entity-1="ent0005" data-entity-2="ent0007" data-link-type="dependency" data-source-line="21" id="lnk12"><path d="M169.69,164 C245.81,164 356.07,164 418.95,164" fill="none" id="PublicacionController-to-Publicacion" style="stroke:#181818;stroke-width:1;"/><polygon fill="#181818" points="424.95,164,415.95,160,419.95,164,415.95,168,424.95,164" style="stroke:#181818;stroke-width:1;"/><text fill="#000000" font-family="sans-serif" font-size="12" lengthAdjust="spacing" textLength="219.0059" x="187.75" y="158.1387">&#171;create&#187; (contenido, autor, padreId)</text></g><!--link PublicacionController to PublicacionRepository--><g class="link" data-entity-1="ent0005" data-entity-2="ent0006" data-link-type="dependency" data-source-line="22" id="lnk13"><path d="M94.95,181.09 C94.09,194.35 93,211 93,211 C93,211 93,226 93,226 C93,226 94.1622,236.6851 95.6022,249.9451" fill="none" id="PublicacionController-to-PublicacionRepository" style="stroke:#181818;stroke-width:1;"/><polygon fill="#181818" points="96.25,255.91,99.255,246.5308,95.7102,250.9392,91.3017,247.3945,96.25,255.91" style="stroke:#181818;stroke-width:1;"/><text fill="#000000" font-family="sans-serif" font-size="12" lengthAdjust="spacing" textLength="175.9102" x="94" y="223.1387">guardar(respuesta) : boolean</text></g><?plantuml-src dLDDQzj04BtlhnZiYmnneAO9ZGW2MR71K5hZDBsMqUvOMRBT5REh6gVqlrUowqXr9H-gqqhlOz-yGVv5sn8PlqEEygLWLrcLEUCOTiywaF1lk7z6vNRQ5h15uxl80ssnCc7fR3XASrDxzHCUzIl1kra7DDfIs9S4fJFxvaK89XdG5ePWd3qivkaDZDPFyu-hBCrMdpzzI-UhnUPBEWBqiAvoeoLAxMoQQ-A0GfJrxLWGZ9XywQmYxh2YoK7N1y5F0VNJtZxQzB2-QjeTB8P06D_ExXRBktEp3Yshcs1d3F7v42q2u_mcLxSVBjXig7HU1yVxSviMWV5obcRl5nTipiL3aaVo9_Rn-4Ry9SI_Yu0fJvF1bkBU5KHbUrwZObgfYH23JKzLVKDlUp6G_Q6H6sb5Fc0aQuoiLcu2CUJE6K8h-fi_s1v7ZA6WyEGhPErI6IeqKQF_ysL8pt_7Yk7-NZ9Xe2I1DiWLO5Mlw0hAqwGNulGkjqvNvr384P_cx4utNDprTTBpwpGvjzgYqQ_8IV8_SebMacdKlm40?></g></svg>