<?xml version="1.0" encoding="us-ascii" standalone="no"?><svg xmlns="http://www.w3.org/2000/svg" xmlns:xlink="http://www.w3.org/1999/xlink" contentStyleType="text/css" height="686px" preserveAspectRatio="none" style="width:739px;height:686px;background:#FFFFFF;" version="1.1" viewBox="0 0 739 686" width="739px" zoomAndPan="magnify"><defs/><g><g id="in1"><rect fill="#F1F1F1" height="50" rx="12.5" ry="12.5" style="stroke:#181818;stroke-width:0.5;" width="234" x="213" y="7"/><line style="stroke:#181818;stroke-width:0.5;" x1="213" x2="447" y1="34.6094" y2="34.6094"/><text fill="#000000" font-family="sans-serif" font-size="14" lengthAdjust="spacing" textLength="214" x="223" y="26.5332">MIS_PUBLICACIONES_ABIERTAS</text></g><path d="M132.5,118 L527.5,118 A12.5,12.5 0 0 1 540,130.5 L540,145.6094 L120,145.6094 L120,130.5 A12.5,12.5 0 0 1 132.5,118 " fill="#F1F1F1" style="stroke:#F1F1F1;stroke-width:1.0;"/><rect fill="none" height="415.6094" rx="12.5" ry="12.5" style="stroke:#181818;stroke-width:0.5;" width="420" x="120" y="118"/><line style="stroke:#181818;stroke-width:0.5;" x1="120" x2="540" y1="145.6094" y2="145.6094"/><text fill="#000000" font-family="sans-serif" font-size="14" lengthAdjust="spacing" textLength="125" x="267.5" y="137.5332">abrirMiPublicacion()</text><g id="abrirMiPublicacion.SolicitandoPublicacion"><rect fill="#F1F1F1" height="50" rx="12.5" ry="12.5" style="stroke:#181818;stroke-width:0.5;" width="50" x="132" y="248.6094"/><line style="stroke:#181818;stroke-width:0.5;" x1="132" x2="182" y1="276.2188" y2="276.2188"/><text fill="#000000" font-family="sans-serif" font-size="14" lengthAdjust="spacing" textLength="4" x="155" y="268.1426">&#160;</text></g><ellipse cx="157" cy="166.6094" fill="#222222" rx="10" ry="10" style="stroke:#222222;stroke-width:1.0;"/><ellipse cx="157" cy="512.6094" fill="none" rx="11" ry="11" style="stroke:#222222;stroke-width:1.0;"/><ellipse cx="157" cy="512.6094" fill="#222222" rx="6" ry="6" style="stroke:#222222;stroke-width:1.0;"/><!--link *start*abrirMiPublicacion to SolicitandoPublicacion--><g id="link_*start*abrirMiPublicacion_SolicitandoPublicacion"><path d="M157,176.9294 C157,192.7894 157,219.5194 157,242.2494 " fill="none" id="*start*abrirMiPublicacion-to-SolicitandoPublicacion" style="stroke:#008000;stroke-width:1.0;"/><polygon fill="#008000" points="157,248.2494,161,239.2494,157,243.2494,153,239.2494,157,248.2494" style="stroke:#008000;stroke-width:1.0;"/><path d="M162,199.6094 L162,225.6094 L531,225.6094 L531,209.6094 L521,199.6094 L162,199.6094 " fill="#FEFFDD" style="stroke:#181818;stroke-width:0.5;"/><path d="M521,199.6094 L521,209.6094 L531,209.6094 L521,199.6094 " fill="#FEFFDD" style="stroke:#181818;stroke-width:0.5;"/><text fill="#000000" font-family="sans-serif" font-size="13" font-weight="bold" lengthAdjust="spacing" textLength="78" x="168" y="218.1045">Investigador</text><text fill="#000000" font-family="sans-serif" font-size="13" lengthAdjust="spacing" textLength="266" x="250" y="218.1045">solicita abrir una publicaci&#243;n propia del listado</text></g><!--link SolicitandoPublicacion to *end*abrirMiPublicacion--><g id="link_SolicitandoPublicacion_*end*abrirMiPublicacion"><path d="M157,298.6394 C157,349.4794 157,460.1394 157,495.3594 " fill="none" id="SolicitandoPublicacion-to-*end*abrirMiPublicacion" style="stroke:#008000;stroke-width:1.0;"/><polygon fill="#008000" points="157,501.3594,161,492.3594,157,496.3594,153,492.3594,157,501.3594" style="stroke:#008000;stroke-width:1.0;"/><path d="M162,321.6094 L162,478.6094 L477,478.6094 L477,331.6094 L467,321.6094 L162,321.6094 " fill="#FEFFDD" style="stroke:#181818;stroke-width:0.5;"/><path d="M467,321.6094 L467,331.6094 L477,331.6094 L467,321.6094 " fill="#FEFFDD" style="stroke:#181818;stroke-width:0.5;"/><text fill="#000000" font-family="sans-serif" font-size="13" font-weight="bold" lengthAdjust="spacing" textLength="51" x="168" y="340.1045">Sistema</text><text fill="#000000" font-family="sans-serif" font-size="13" lengthAdjust="spacing" textLength="239" x="223" y="340.1045">muestra la publicaci&#243;n seleccionada con:</text><text fill="#000000" font-family="sans-serif" font-size="13" lengthAdjust="spacing" textLength="144" x="168" y="356.4561">&#8226; Datos de la publicaci&#243;n</text><text fill="#000000" font-family="sans-serif" font-size="13" lengthAdjust="spacing" textLength="67" x="168" y="372.8076">&#8226; Contenido</text><text fill="#000000" font-family="sans-serif" font-size="13" lengthAdjust="spacing" textLength="68" x="168" y="389.1592">&#8226; Visibilidad</text><text fill="#000000" font-family="sans-serif" font-size="13" lengthAdjust="spacing" textLength="4" x="168" y="405.5107">&#160;</text><text fill="#000000" font-family="sans-serif" font-size="13" lengthAdjust="spacing" textLength="247" x="168" y="421.8623">y permite solicitar las siguientes acciones:</text><text fill="#000000" font-family="sans-serif" font-size="13" lengthAdjust="spacing" textLength="112" x="168" y="438.2139">&#8226; Editar publicaci&#243;n</text><text fill="#000000" font-family="sans-serif" font-size="13" lengthAdjust="spacing" textLength="125" x="168" y="454.5654">&#8226; Eliminar publicaci&#243;n</text><text fill="#000000" font-family="sans-serif" font-size="13" lengthAdjust="spacing" textLength="163" x="168" y="470.917">&#8226; Volver a mis publicaciones</text></g><g id="MI_PUBLICACION_ABIERTA"><rect fill="#F1F1F1" height="50" rx="12.5" ry="12.5" style="stroke:#181818;stroke-width:0.5;" width="198" x="7" y="630"/><line style="stroke:#181818;stroke-width:0.5;" x1="7" x2="205" y1="657.6094" y2="657.6094"/><text fill="#000000" font-family="sans-serif" font-size="14" lengthAdjust="spacing" textLength="178" x="17" y="649.5332">MI_PUBLICACION_ABIERTA</text></g><g id="MIS_PUBLICACIONES_ABIERTAS"><rect fill="#F1F1F1" height="50" rx="12.5" ry="12.5" style="stroke:#181818;stroke-width:0.5;" width="234" x="397" y="630"/><line style="stroke:#181818;stroke-width:0.5;" x1="397" x2="631" y1="657.6094" y2="657.6094"/><text fill="#000000" font-family="sans-serif" font-size="14" lengthAdjust="spacing" textLength="214" x="407" y="649.5332">MIS_PUBLICACIONES_ABIERTAS</text></g><!--link in1 to abrirMiPublicacion--><g id="link_in1_abrirMiPublicacion"><path d="M330,57.39 C330,72.68 330,87.99 330,111.99 " fill="none" id="in1-to-abrirMiPublicacion" style="stroke:#008000;stroke-width:1.0;"/><polygon fill="#008000" points="330,117.99,334,108.99,330,112.99,326,108.99,330,117.99" style="stroke:#008000;stroke-width:1.0;"/></g><!--link abrirMiPublicacion to MI_PUBLICACION_ABIERTA--><g id="link_abrirMiPublicacion_MI_PUBLICACION_ABIERTA"><path d="M119.97,499.24 C75.15,536 41,564 41,564 C41,564 41,600 41,600 C41,600 55.0046,611.6362 72.3046,626.0062 " fill="none" id="abrirMiPublicacion-to-MI_PUBLICACION_ABIERTA" style="stroke:#008000;stroke-width:1.0;"/><polygon fill="#008000" points="76.92,629.84,72.5527,621.0124,73.0738,626.6452,67.441,627.1663,76.92,629.84" style="stroke:#008000;stroke-width:1.0;"/><path d="M46,569 L46,595 L193,595 L193,579 L183,569 L46,569 " fill="#FEFFDD" style="stroke:#181818;stroke-width:0.5;"/><path d="M183,569 L183,579 L193,579 L183,569 " fill="#FEFFDD" style="stroke:#181818;stroke-width:0.5;"/><text fill="#000000" font-family="sans-serif" font-size="13" lengthAdjust="spacing" textLength="126" x="52" y="587.4951">Mi publicaci&#243;n abierta</text></g><!--link abrirMiPublicacion to MI_PUBLICACION_ABIERTA--><g id="link_abrirMiPublicacion_MI_PUBLICACION_ABIERTA"><path d="M232.82,534.26 C215.05,572.16 202,600 202,600 C202,600 179.7401,612.5296 154.1801,626.8996 " fill="none" id="abrirMiPublicacion-to-MI_PUBLICACION_ABIERTA-1" style="stroke:#008000;stroke-width:1.0;"/><polygon fill="#008000" points="148.95,629.84,158.7554,628.9161,153.3084,627.3897,154.8349,621.9427,148.95,629.84" style="stroke:#008000;stroke-width:1.0;"/><path d="M223,569 L223,595 L351,595 L351,579 L341,569 L223,569 " fill="#FEFFDD" style="stroke:#181818;stroke-width:0.5;"/><path d="M341,569 L341,579 L351,579 L341,569 " fill="#FEFFDD" style="stroke:#181818;stroke-width:0.5;"/><text fill="#000000" font-family="sans-serif" font-size="13" lengthAdjust="spacing" textLength="107" x="229" y="587.4951">editarPublicacion()</text></g><!--link abrirMiPublicacion to MIS_PUBLICACIONES_ABIERTAS--><g id="link_abrirMiPublicacion_MIS_PUBLICACIONES_ABIERTAS"><path d="M395.29,534.26 C407.23,572.16 416,600 416,600 C416,600 438.8144,612.5753 464.9044,626.9453 " fill="none" id="abrirMiPublicacion-to-MIS_PUBLICACIONES_ABIERTAS" style="stroke:#008000;stroke-width:1.0;"/><polygon fill="#008000" points="470.16,629.84,464.2065,621.9943,465.7804,627.4278,460.3469,629.0017,470.16,629.84" style="stroke:#008000;stroke-width:1.0;"/><path d="M421,569 L421,595 L562,595 L562,579 L552,569 L421,569 " fill="#FEFFDD" style="stroke:#181818;stroke-width:0.5;"/><path d="M552,569 L552,579 L562,579 L552,569 " fill="#FEFFDD" style="stroke:#181818;stroke-width:0.5;"/><text fill="#000000" font-family="sans-serif" font-size="13" lengthAdjust="spacing" textLength="120" x="427" y="587.4951">eliminarPublicacion()</text></g><!--link abrirMiPublicacion to MIS_PUBLICACIONES_ABIERTAS--><g id="link_abrirMiPublicacion_MIS_PUBLICACIONES_ABIERTAS"><path d="M540.48,533.98 C559.05,552.25 571,564 571,564 C571,564 571,600 571,600 C571,600 559.0373,611.3452 543.8573,625.7152 " fill="none" id="abrirMiPublicacion-to-MIS_PUBLICACIONES_ABIERTAS-1" style="stroke:#008000;stroke-width:1.0;"/><polygon fill="#008000" points="539.5,629.84,548.7858,626.5577,543.1311,626.4027,543.2861,620.7479,539.5,629.84" style="stroke:#008000;stroke-width:1.0;"/><path d="M576,569 L576,595 L732,595 L732,579 L722,569 L576,569 " fill="#FEFFDD" style="stroke:#181818;stroke-width:0.5;"/><path d="M722,569 L722,579 L732,579 L722,569 " fill="#FEFFDD" style="stroke:#181818;stroke-width:0.5;"/><text fill="#000000" font-family="sans-serif" font-size="13" lengthAdjust="spacing" textLength="135" x="582" y="587.4951">abrirMisPublicaciones()</text></g><!--SRC=[jPFFIiD04CRl-nH3lAXGnAkKGbjx21WjHdiffKowGncwsGsxQQ68uBFu2Zw2R-AJkDcsjkcVWw39ARlVVDzlPoTknhf0YpaerbGk2uB2g6Nr8OGhiIHWVGte84hYTDn_xjp5tNOtVhZlfUDs9-uzFhNJI5IQnl1iQedqgD42p2pRXFlpJF449spqnkrm9vWVBfzVHF0Y1FXdLHdvrqjJunLSefQcPby9XvUZ6iO9RINLnblwS7_IMLXePgrOByYLF4LfRFCgQu5Rrw-eOQuHYetFvuU6mfg24IGfx-CffGbMf6NmNq4TXwXnUkwJKAatfXm3JpxtV1P1xN4uKZIfN54YJ8o-2SLVR-zmYwLn7d2_v4VGDReapMloQcN0ZZDMB56k3h24WcpE7ctJ3-lj73YUpfbykGCCwUIsmJqPT4SpUufprgTs1qOjo092pcwhgDphpNqLuiWmxROrYNS7TZEkejRbXEkjn8p9bYYsT_W78HIQKHlktmIS-k_sGjPT_UUOjOthxzxCRj0t]--></g></svg>