<?xml version="1.0" encoding="us-ascii" standalone="no"?><svg xmlns="http://www.w3.org/2000/svg" xmlns:xlink="http://www.w3.org/1999/xlink" contentStyleType="text/css" height="928px" preserveAspectRatio="none" style="width:574px;height:928px;background:#FFFFFF;" version="1.1" viewBox="0 0 574 928" width="574px" zoomAndPan="magnify"><defs/><g><line style="stroke:#AAAAAA;stroke-width:1.0;" x1="6" x2="567" y1="8.5" y2="8.5"/><line style="stroke:#AAAAAA;stroke-width:1.0;" x1="6" x2="567" y1="10.5" y2="10.5"/><text fill="#000000" font-family="sans-serif" font-size="12" font-weight="bold" lengthAdjust="spacing" textLength="128" x="6" y="26.457">GIPF - CONVOCATORIA</text><line style="stroke:#AAAAAA;stroke-width:1.0;" x1="6" x2="567" y1="33.5938" y2="33.5938"/><line style="stroke:#AAAAAA;stroke-width:1.0;" x1="6" x2="567" y1="35.5938" y2="35.5938"/><text fill="#000000" font-family="sans-serif" font-size="12" font-weight="bold" lengthAdjust="spacing" textLength="14" x="8" y="53.5508">ID:</text><text fill="#000000" font-family="sans-serif" font-size="12" lengthAdjust="spacing" textLength="114" x="27" y="53.5508">CONV-INV-2025-003</text><line style="stroke:#000000;stroke-width:1.0;" x1="25" x2="164" y1="56.1875" y2="56.1875"/><line style="stroke:#000000;stroke-width:1.0;" x1="25" x2="25" y1="53.1875" y2="55.1875"/><line style="stroke:#000000;stroke-width:1.0;" x1="164" x2="164" y1="53.1875" y2="55.1875"/><text fill="#000000" font-family="sans-serif" font-size="12" font-weight="bold" lengthAdjust="spacing" textLength="34" x="8" y="74.6445">T&#237;tulo:</text><text fill="#000000" font-family="sans-serif" font-size="12" lengthAdjust="spacing" textLength="177" x="47" y="74.6445">Proyectos de investigaci&#243;n 2025</text><line style="stroke:#000000;stroke-width:1.0;" x1="45" x2="296" y1="77.2813" y2="77.2813"/><line style="stroke:#000000;stroke-width:1.0;" x1="45" x2="45" y1="74.2813" y2="76.2813"/><line style="stroke:#000000;stroke-width:1.0;" x1="296" x2="296" y1="74.2813" y2="76.2813"/><text fill="#000000" font-family="sans-serif" font-size="12" font-weight="bold" lengthAdjust="spacing" textLength="30" x="8" y="95.7383">&#193;rea:</text><text fill="#000000" font-family="sans-serif" font-size="12" lengthAdjust="spacing" textLength="72" x="43" y="95.7383">Investigaci&#243;n</text><line style="stroke:#000000;stroke-width:1.0;" x1="41" x2="148" y1="98.375" y2="98.375"/><line style="stroke:#000000;stroke-width:1.0;" x1="41" x2="41" y1="95.375" y2="97.375"/><line style="stroke:#000000;stroke-width:1.0;" x1="148" x2="148" y1="95.375" y2="97.375"/><text fill="#000000" font-family="sans-serif" font-size="12" font-weight="bold" lengthAdjust="spacing" textLength="42" x="8" y="116.832">Estado:</text><text fill="#000000" font-family="sans-serif" font-size="12" lengthAdjust="spacing" textLength="38" x="55" y="116.832">Abierta</text><line style="stroke:#000000;stroke-width:1.0;" x1="53" x2="112" y1="119.4688" y2="119.4688"/><line style="stroke:#000000;stroke-width:1.0;" x1="53" x2="53" y1="116.4688" y2="118.4688"/><line style="stroke:#000000;stroke-width:1.0;" x1="112" x2="112" y1="116.4688" y2="118.4688"/><text fill="#000000" font-family="sans-serif" font-size="12" font-weight="bold" lengthAdjust="spacing" textLength="53" x="8" y="137.9258">Apertura:</text><text fill="#000000" font-family="sans-serif" font-size="12" lengthAdjust="spacing" textLength="62" x="66" y="137.9258">10/02/2025</text><line style="stroke:#000000;stroke-width:1.0;" x1="64" x2="147" y1="140.5625" y2="140.5625"/><line style="stroke:#000000;stroke-width:1.0;" x1="64" x2="64" y1="137.5625" y2="139.5625"/><line style="stroke:#000000;stroke-width:1.0;" x1="147" x2="147" y1="137.5625" y2="139.5625"/><text fill="#000000" font-family="sans-serif" font-size="12" font-weight="bold" lengthAdjust="spacing" textLength="38" x="8" y="159.0195">Cierre:</text><text fill="#000000" font-family="sans-serif" font-size="12" lengthAdjust="spacing" textLength="96" x="51" y="159.0195">20/03/2025 23:59</text><line style="stroke:#000000;stroke-width:1.0;" x1="49" x2="180" y1="161.6563" y2="161.6563"/><line style="stroke:#000000;stroke-width:1.0;" x1="49" x2="49" y1="158.6563" y2="160.6563"/><line style="stroke:#000000;stroke-width:1.0;" x1="180" x2="180" y1="158.6563" y2="160.6563"/><text fill="#000000" font-family="sans-serif" font-size="12" font-weight="bold" lengthAdjust="spacing" textLength="45" x="8" y="180.1133">Publica:</text><text fill="#000000" font-family="sans-serif" font-size="12" lengthAdjust="spacing" textLength="222" x="58" y="180.1133">Coordinaci&#243;n de Investigaci&#243;n FUNIBER</text><line style="stroke:#000000;stroke-width:1.0;" x1="56" x2="355" y1="182.75" y2="182.75"/><line style="stroke:#000000;stroke-width:1.0;" x1="56" x2="56" y1="179.75" y2="181.75"/><line style="stroke:#000000;stroke-width:1.0;" x1="355" x2="355" y1="179.75" y2="181.75"/><line style="stroke:#AAAAAA;stroke-width:1.0;" x1="6" x2="567" y1="192.25" y2="192.25"/><text fill="#000000" font-family="sans-serif" font-size="12" font-weight="bold" lengthAdjust="spacing" textLength="68" x="6" y="209.207">Descripci&#243;n</text><text fill="#000000" font-family="sans-serif" font-size="12" lengthAdjust="spacing" textLength="397" x="7" y="227.3008">[ Convocatoria interna para la financiaci&#243;n de proyectos de investigaci&#243;n.</text><text fill="#000000" font-family="sans-serif" font-size="12" lengthAdjust="spacing" textLength="423" x="7" y="244.3945">Las propuestas deber&#225;n alinearse con las l&#237;neas estrat&#233;gicas de FUNIBER y</text><text fill="#000000" font-family="sans-serif" font-size="12" lengthAdjust="spacing" textLength="398" x="7" y="261.4883">presentar objetivos, metodolog&#237;a, cronograma y presupuesto estimado. ]</text><line style="stroke:#AAAAAA;stroke-width:1.0;" x1="6" x2="567" y1="270.625" y2="270.625"/><text fill="#000000" font-family="sans-serif" font-size="12" font-weight="bold" lengthAdjust="spacing" textLength="60" x="6" y="287.582">Requisitos</text><text fill="#000000" font-family="sans-serif" font-size="12" lengthAdjust="spacing" textLength="238" x="10" y="305.6758">&#8226; Investigador principal adscrito a FUNIBER</text><line style="stroke:#000000;stroke-width:1.0;" x1="8" x2="355" y1="308.3125" y2="308.3125"/><line style="stroke:#000000;stroke-width:1.0;" x1="8" x2="8" y1="305.3125" y2="307.3125"/><line style="stroke:#000000;stroke-width:1.0;" x1="355" x2="355" y1="305.3125" y2="307.3125"/><text fill="#000000" font-family="sans-serif" font-size="12" lengthAdjust="spacing" textLength="189" x="10" y="324.7695">&#8226; Equipo m&#237;nimo: 2 investigadores</text><line style="stroke:#000000;stroke-width:1.0;" x1="8" x2="275" y1="327.4063" y2="327.4063"/><line style="stroke:#000000;stroke-width:1.0;" x1="8" x2="8" y1="324.4063" y2="326.4063"/><line style="stroke:#000000;stroke-width:1.0;" x1="275" x2="275" y1="324.4063" y2="326.4063"/><text fill="#000000" font-family="sans-serif" font-size="12" lengthAdjust="spacing" textLength="200" x="10" y="343.8633">&#8226; Duraci&#243;n del proyecto: 6-12 meses</text><line style="stroke:#000000;stroke-width:1.0;" x1="8" x2="291" y1="346.5" y2="346.5"/><line style="stroke:#000000;stroke-width:1.0;" x1="8" x2="8" y1="343.5" y2="345.5"/><line style="stroke:#000000;stroke-width:1.0;" x1="291" x2="291" y1="343.5" y2="345.5"/><text fill="#000000" font-family="sans-serif" font-size="12" lengthAdjust="spacing" textLength="342" x="10" y="362.957">&#8226; Entregables obligatorios: informe intermedio + memoria final</text><line style="stroke:#000000;stroke-width:1.0;" x1="8" x2="507" y1="365.5938" y2="365.5938"/><line style="stroke:#000000;stroke-width:1.0;" x1="8" x2="8" y1="362.5938" y2="364.5938"/><line style="stroke:#000000;stroke-width:1.0;" x1="507" x2="507" y1="362.5938" y2="364.5938"/><line style="stroke:#AAAAAA;stroke-width:1.0;" x1="6" x2="567" y1="374.0938" y2="374.0938"/><text fill="#000000" font-family="sans-serif" font-size="12" font-weight="bold" lengthAdjust="spacing" textLength="131" x="6" y="391.0508">Dotaci&#243;n y condiciones</text><text fill="#000000" font-family="sans-serif" font-size="12" lengthAdjust="spacing" textLength="242" x="10" y="409.1445">&#8226; Financiaci&#243;n m&#225;xima por proyecto: 8.000 &#8364;</text><line style="stroke:#000000;stroke-width:1.0;" x1="8" x2="355" y1="411.7813" y2="411.7813"/><line style="stroke:#000000;stroke-width:1.0;" x1="8" x2="8" y1="408.7813" y2="410.7813"/><line style="stroke:#000000;stroke-width:1.0;" x1="355" x2="355" y1="408.7813" y2="410.7813"/><text fill="#000000" font-family="sans-serif" font-size="12" lengthAdjust="spacing" textLength="243" x="10" y="428.2383">&#8226; N&#186; estimado de proyectos financiables: 3-5</text><line style="stroke:#000000;stroke-width:1.0;" x1="8" x2="363" y1="430.875" y2="430.875"/><line style="stroke:#000000;stroke-width:1.0;" x1="8" x2="8" y1="427.875" y2="429.875"/><line style="stroke:#000000;stroke-width:1.0;" x1="363" x2="363" y1="427.875" y2="429.875"/><text fill="#000000" font-family="sans-serif" font-size="12" lengthAdjust="spacing" textLength="330" x="10" y="447.332">&#8226; Gastos elegibles: material, software, difusi&#243;n y publicaci&#243;n</text><line style="stroke:#000000;stroke-width:1.0;" x1="8" x2="507" y1="449.9688" y2="449.9688"/><line style="stroke:#000000;stroke-width:1.0;" x1="8" x2="8" y1="446.9688" y2="448.9688"/><line style="stroke:#000000;stroke-width:1.0;" x1="507" x2="507" y1="446.9688" y2="448.9688"/><text fill="#000000" font-family="sans-serif" font-size="12" lengthAdjust="spacing" textLength="255" x="10" y="466.4258">&#8226; Gastos no elegibles: retribuciones salariales</text><line style="stroke:#000000;stroke-width:1.0;" x1="8" x2="387" y1="469.0625" y2="469.0625"/><line style="stroke:#000000;stroke-width:1.0;" x1="8" x2="8" y1="466.0625" y2="468.0625"/><line style="stroke:#000000;stroke-width:1.0;" x1="387" x2="387" y1="466.0625" y2="468.0625"/><line style="stroke:#AAAAAA;stroke-width:1.0;" x1="6" x2="567" y1="477.5625" y2="477.5625"/><text fill="#000000" font-family="sans-serif" font-size="12" font-weight="bold" lengthAdjust="spacing" textLength="130" x="6" y="494.5195">Criterios de evaluaci&#243;n</text><text fill="#000000" font-family="sans-serif" font-size="12" lengthAdjust="spacing" textLength="226" x="10" y="512.6133">&#8226; Adecuaci&#243;n a l&#237;neas estrat&#233;gicas (30%)</text><line style="stroke:#000000;stroke-width:1.0;" x1="8" x2="331" y1="515.25" y2="515.25"/><line style="stroke:#000000;stroke-width:1.0;" x1="8" x2="8" y1="512.25" y2="514.25"/><line style="stroke:#000000;stroke-width:1.0;" x1="331" x2="331" y1="512.25" y2="514.25"/><text fill="#000000" font-family="sans-serif" font-size="12" lengthAdjust="spacing" textLength="228" x="10" y="531.707">&#8226; Calidad metodol&#243;gica y viabilidad (30%)</text><line style="stroke:#000000;stroke-width:1.0;" x1="8" x2="339" y1="534.3438" y2="534.3438"/><line style="stroke:#000000;stroke-width:1.0;" x1="8" x2="8" y1="531.3438" y2="533.3438"/><line style="stroke:#000000;stroke-width:1.0;" x1="339" x2="339" y1="531.3438" y2="533.3438"/><text fill="#000000" font-family="sans-serif" font-size="12" lengthAdjust="spacing" textLength="188" x="10" y="550.8008">&#8226; Impacto acad&#233;mico/social (20%)</text><line style="stroke:#000000;stroke-width:1.0;" x1="8" x2="267" y1="553.4375" y2="553.4375"/><line style="stroke:#000000;stroke-width:1.0;" x1="8" x2="8" y1="550.4375" y2="552.4375"/><line style="stroke:#000000;stroke-width:1.0;" x1="267" x2="267" y1="550.4375" y2="552.4375"/><text fill="#000000" font-family="sans-serif" font-size="12" lengthAdjust="spacing" textLength="216" x="10" y="569.8945">&#8226; Plan de difusi&#243;n y transferencia (20%)</text><line style="stroke:#000000;stroke-width:1.0;" x1="8" x2="331" y1="572.5313" y2="572.5313"/><line style="stroke:#000000;stroke-width:1.0;" x1="8" x2="8" y1="569.5313" y2="571.5313"/><line style="stroke:#000000;stroke-width:1.0;" x1="331" x2="331" y1="569.5313" y2="571.5313"/><line style="stroke:#AAAAAA;stroke-width:1.0;" x1="6" x2="567" y1="581.0313" y2="581.0313"/><text fill="#000000" font-family="sans-serif" font-size="12" font-weight="bold" lengthAdjust="spacing" textLength="161" x="6" y="597.9883">Presentaci&#243;n de propuestas</text><text fill="#000000" font-family="sans-serif" font-size="12" lengthAdjust="spacing" textLength="306" x="10" y="616.082">&#8226; Enviar la propuesta completa a trav&#233;s de la plataforma</text><line style="stroke:#000000;stroke-width:1.0;" x1="8" x2="459" y1="618.7188" y2="618.7188"/><line style="stroke:#000000;stroke-width:1.0;" x1="8" x2="8" y1="615.7188" y2="617.7188"/><line style="stroke:#000000;stroke-width:1.0;" x1="459" x2="459" y1="615.7188" y2="617.7188"/><text fill="#000000" font-family="sans-serif" font-size="12" lengthAdjust="spacing" textLength="384" x="10" y="635.1758">&#8226; Formato: plantilla + anexos (presupuesto) + CV abreviado del equipo</text><line style="stroke:#000000;stroke-width:1.0;" x1="8" x2="563" y1="637.8125" y2="637.8125"/><line style="stroke:#000000;stroke-width:1.0;" x1="8" x2="8" y1="634.8125" y2="636.8125"/><line style="stroke:#000000;stroke-width:1.0;" x1="563" x2="563" y1="634.8125" y2="636.8125"/><text fill="#000000" font-family="sans-serif" font-size="12" lengthAdjust="spacing" textLength="220" x="10" y="654.2695">&#8226; Confirmaci&#243;n autom&#225;tica de recepci&#243;n</text><line style="stroke:#000000;stroke-width:1.0;" x1="8" x2="315" y1="656.9063" y2="656.9063"/><line style="stroke:#000000;stroke-width:1.0;" x1="8" x2="8" y1="653.9063" y2="655.9063"/><line style="stroke:#000000;stroke-width:1.0;" x1="315" x2="315" y1="653.9063" y2="655.9063"/><line style="stroke:#AAAAAA;stroke-width:1.0;" x1="6" x2="567" y1="665.4063" y2="665.4063"/><text fill="#000000" font-family="sans-serif" font-size="12" font-weight="bold" lengthAdjust="spacing" textLength="89" x="6" y="682.3633">Documentaci&#243;n</text><text fill="#000000" font-family="sans-serif" font-size="12" lengthAdjust="spacing" textLength="192" x="11" y="701.457">&#128206; Bases_CONV-INV-2025-003.pdf</text><line style="stroke:#000000;stroke-width:1.0;" x1="9" x2="252" y1="704.0938" y2="704.0938"/><line style="stroke:#000000;stroke-width:1.0;" x1="9" x2="9" y1="701.0938" y2="703.0938"/><line style="stroke:#000000;stroke-width:1.0;" x1="252" x2="252" y1="701.0938" y2="703.0938"/><rect fill="#EEEEEE" height="19.0938" rx="5" ry="5" style="stroke:#000000;stroke-width:2.5;" width="28" x="258.5" y="691.5"/><text fill="#000000" font-family="sans-serif" font-size="12" lengthAdjust="spacing" textLength="18" x="263.5" y="705.957">Ver</text><text fill="#000000" font-family="sans-serif" font-size="12" lengthAdjust="spacing" textLength="230" x="11" y="729.5508">&#128206; Plantilla_Propuesta_Investigacion.docx</text><line style="stroke:#000000;stroke-width:1.0;" x1="9" x2="340" y1="732.1875" y2="732.1875"/><line style="stroke:#000000;stroke-width:1.0;" x1="9" x2="9" y1="729.1875" y2="731.1875"/><line style="stroke:#000000;stroke-width:1.0;" x1="340" x2="340" y1="729.1875" y2="731.1875"/><rect fill="#EEEEEE" height="19.0938" rx="5" ry="5" style="stroke:#000000;stroke-width:2.5;" width="28" x="346.5" y="719.5938"/><text fill="#000000" font-family="sans-serif" font-size="12" lengthAdjust="spacing" textLength="18" x="351.5" y="734.0508">Ver</text><text fill="#000000" font-family="sans-serif" font-size="12" lengthAdjust="spacing" textLength="149" x="11" y="757.6445">&#128206; Anexo_Presupuesto.xlsx</text><line style="stroke:#000000;stroke-width:1.0;" x1="9" x2="212" y1="760.2813" y2="760.2813"/><line style="stroke:#000000;stroke-width:1.0;" x1="9" x2="9" y1="757.2813" y2="759.2813"/><line style="stroke:#000000;stroke-width:1.0;" x1="212" x2="212" y1="757.2813" y2="759.2813"/><rect fill="#EEEEEE" height="19.0938" rx="5" ry="5" style="stroke:#000000;stroke-width:2.5;" width="28" x="218.5" y="747.6875"/><text fill="#000000" font-family="sans-serif" font-size="12" lengthAdjust="spacing" textLength="18" x="223.5" y="762.1445">Ver</text><line style="stroke:#AAAAAA;stroke-width:1.0;" x1="6" x2="567" y1="776.7813" y2="776.7813"/><text fill="#000000" font-family="sans-serif" font-size="12" font-weight="bold" lengthAdjust="spacing" textLength="51" x="6" y="793.7383">Contacto</text><text fill="#000000" font-family="sans-serif" font-size="12" lengthAdjust="spacing" textLength="143" x="10" y="811.832">investigacion@funiber.org</text><line style="stroke:#000000;stroke-width:1.0;" x1="8" x2="211" y1="814.4688" y2="814.4688"/><line style="stroke:#000000;stroke-width:1.0;" x1="8" x2="8" y1="811.4688" y2="813.4688"/><line style="stroke:#000000;stroke-width:1.0;" x1="211" x2="211" y1="811.4688" y2="813.4688"/><text fill="#000000" font-family="sans-serif" font-size="12" lengthAdjust="spacing" textLength="169" x="10" y="830.9258">Horario: L-V 09:00-14:00 (CET)</text><line style="stroke:#000000;stroke-width:1.0;" x1="8" x2="251" y1="833.5625" y2="833.5625"/><line style="stroke:#000000;stroke-width:1.0;" x1="8" x2="8" y1="830.5625" y2="832.5625"/><line style="stroke:#000000;stroke-width:1.0;" x1="251" x2="251" y1="830.5625" y2="832.5625"/><line style="stroke:#AAAAAA;stroke-width:1.0;" x1="6" x2="567" y1="842.0625" y2="842.0625"/><text fill="#000000" font-family="sans-serif" font-size="12" font-weight="bold" lengthAdjust="spacing" textLength="53" x="6" y="859.0195">Acciones</text><rect fill="#EEEEEE" height="19.0938" rx="5" ry="5" style="stroke:#000000;stroke-width:2.5;" width="172" x="9.5" y="867.1563"/><text fill="#000000" font-family="sans-serif" font-size="12" lengthAdjust="spacing" textLength="118" x="36.5" y="881.6133">Importar convocatoria</text><line style="stroke:#AAAAAA;stroke-width:1.5;" x1="6" x2="567" y1="895.25" y2="895.25"/><rect fill="#EEEEEE" height="19.0938" rx="5" ry="5" style="stroke:#000000;stroke-width:2.5;" width="180" x="9.5" y="903.25"/><text fill="#000000" font-family="sans-serif" font-size="12" lengthAdjust="spacing" textLength="125" x="37" y="917.707">Volver a Convocatorias</text><rect fill="#EEEEEE" height="19.0938" rx="5" ry="5" style="stroke:#000000;stroke-width:2.5;" width="172" x="196.5" y="903.25"/><text fill="#000000" font-family="sans-serif" font-size="12" lengthAdjust="spacing" textLength="110" x="227.5" y="917.707">Abrir Panel principal</text><!--SRC=[VLPBRXj74DtFAGe40b2mXXgHac4F74CKHIfKz25aYHj149epHQQ3dkvnTmyjmP6Hv03Pv021inCGhRpBCho9Jv0Zf7hu6_v2WCHW-EfrrwjNrNrWBDFMC64XKdAe8cQLvgpUuwWjypzmZNtD4lG-Ua2VR-cJFxpflJrkTrhWG-FYl7lHg5zTNBRhRtPwR-Uu_6aSbp-veFPHw43m4vHSeD-cRpMexlj1K2l1uoBuQlHiCw5c4Hsj7Z2ooa2CmEKGZUK35l7H5mcEP8LWz8j6DWjlBqIiW9iaHJnVR2B12goUqkjCpsbtWvsWkhDs_GPHQ9mXguIivKYeriBzroluJjOJF9fJDvJICPUJ52dfnHIWTNtUFcnUJdaUnvBxlZUjqH6QIFCqHy-ACo_93JGAHIT9BMh986MQWM3GfwLbnEVBfviBK9cHdZBZW6b6_pA7xA4UVPR019V8j47dDA8t84RFzCO00JMpewS1vPvJJ_A2Xnbfgj6W9A-2wls8bW-LsOO4hOgLK8FHCzk6I2kf1cHM1WyvFikte1mzJwYq5RZT8DCbli-uuPJO6f5ANt_-Sovyh3IHSv8bPG9OxFIbDTYi5ejnJI9E5IIKAKzK2DMvRCI4PWb-HCQQgYrcSeVmqj-jKhfc9Q0fhSO1wmaqf8mWMbTAPK9QfwzqWkEY9XXp1I-88iahxIehIfjCe-na4m-kL36Fk9AuKPhMWakIqUTxKXlINAVf_bzLWY20hx_-jRJzyt_-dfLdqM1JxxdCGgZv-qkHnymu60eSy34cOPGePs8RZEhR3qpZDiIydvb9AkcukSRDlvPCgYAVHgjvBnid3pGYcMEVLc1LjWOP0PtsBX4SCf6nJNsNBrgFCPf0o3xhUw5S2xxPMjfiWnefPl7K_QCl3ahv3KaiFlvhNLWxILdad1gnUFIKy4Zj64K22oXNLz4TmVAEBmf86vEcZnfTNOfHgrfq9krQd1oJWR19ZgQa1BGREpCikIz91T83SuiFHq-vjWuYc6NEtsnftottpZcE4D9oGTWNm2JUKrdAXQ6mHQyRNM0zZRHiRZu1c3VhijnAzZcHJWgLMKKMjqvoseh62DE2ezOrKvGbCodM9FyHIl_-yVjlSCYek-zM3iLA6lTBT1RST57VBfmNux3EDC-xpbIsky8feMGbLj7z_p7KdJftdRasbNjXLYBM-5svhAnQLr1UtC51FvES3e6AqeE2kDyfJHr5fJhrkn2y3eF0tzsZNoWtcbSRdLMFDawZ6xAuqkwCA5vb5cR-fq-JMmdbfiGGDJchU0IQMvTslQUvXWxPHindlHFYqJj06RlRakVbmb-VdGAn6DeIx5QePdkLMldgXmnQs8DTEkQ3S2y8WtsWbDmLPM_BAnztJeTLcb6PZbn_cNpAM6BOyaxOaC5bHWLDC8IB5EN9qVVJ5tc7q1ddtEITTC_cW9Tx_Y6ty0wrowXxvXrXdsLqfMlAID7zOH32zLNBV-MTCZd8s82uqNWDHRpw8OJck_y0]--></g></svg>