<svg xmlns="http://www.w3.org/2000/svg" xmlns:xlink="http://www.w3.org/1999/xlink" contentStyleType="text/css" data-diagram-type="STATE" height="795px" preserveAspectRatio="none" style="width:500px;height:795px;background:#FFFFFF;" version="1.1" viewBox="0 0 500 795" width="500px" zoomAndPan="magnify"><defs/><g><g><rect fill="#F1F1F1" height="50" rx="12.5" ry="12.5" style="stroke:#181818;stroke-width:0.5;" width="182.1621" x="155.92" y="7"/><line style="stroke:#181818;stroke-width:0.5;" x1="155.92" x2="338.0821" y1="33.2969" y2="33.2969"/><text fill="#000000" font-family="sans-serif" font-size="14" lengthAdjust="spacing" textLength="162.1621" x="165.92" y="24.9951">PROYECTOS_ABIERTOS</text></g><path d="M19.5,152 L474.5,152 A12.5,12.5 0 0 1 487,164.5 L487,178.2969 L7,178.2969 L7,164.5 A12.5,12.5 0 0 1 19.5,152" fill="#F1F1F1"/><rect fill="none" height="492.2969" rx="12.5" ry="12.5" style="stroke:#181818;stroke-width:0.5;" width="480" x="7" y="152"/><line style="stroke:#181818;stroke-width:0.5;" x1="7" x2="487" y1="178.2969" y2="178.2969"/><text fill="#000000" font-family="sans-serif" font-size="14" lengthAdjust="spacing" textLength="153.2275" x="170.3862" y="169.9951">agregarInvestigador()</text><g><rect fill="#F1F1F1" height="50" rx="12.5" ry="12.5" style="stroke:#181818;stroke-width:0.5;" width="50" x="19" y="280.2969"/><line style="stroke:#181818;stroke-width:0.5;" x1="19" x2="69" y1="306.5938" y2="306.5938"/><text fill="#000000" font-family="sans-serif" font-size="14" lengthAdjust="spacing" textLength="4.4502" x="41.7749" y="298.292">&#160;</text></g><g><rect fill="#F1F1F1" height="50" rx="12.5" ry="12.5" style="stroke:#181818;stroke-width:0.5;" width="50" x="19" y="476.2969"/><line style="stroke:#181818;stroke-width:0.5;" x1="19" x2="69" y1="502.5938" y2="502.5938"/><text fill="#000000" font-family="sans-serif" font-size="14" lengthAdjust="spacing" textLength="4.4502" x="41.7749" y="494.292">&#160;</text></g><ellipse cx="44" cy="199.2969" fill="#222222" rx="10" ry="10" style="stroke:#222222;stroke-width:1;"/><ellipse cx="44" cy="623.2969" fill="none" rx="11" ry="11" style="stroke:#222222;stroke-width:1;"/><ellipse cx="44" cy="623.2969" fill="#222222" rx="6" ry="6" style="stroke:#222222;stroke-width:1;"/><!--link *start*agregarInvestigador to SolicitandoDatos--><g class="link" data-entity-1="ent0003" data-entity-2="ent0004" data-link-type="dependency" data-source-line="14" id="lnk4"><path d="M44,209.5269 C44,225.2369 44,251.6569 44,274.1669" fill="none" id="*start*agregarInvestigador-to-SolicitandoDatos" style="stroke:#008000;stroke-width:1;"/><polygon fill="#008000" points="44,280.1669,48,271.1669,44,275.1669,40,271.1669,44,280.1669" style="stroke:#008000;stroke-width:1;"/><path d="M49,232.2969 L49,257.2969 L465,257.2969 L465,242.2969 L455,232.2969 L49,232.2969" fill="#FEFFDD" style="stroke:#181818;stroke-width:0.5;"/><path d="M455,232.2969 L455,242.2969 L465,242.2969 L455,232.2969" fill="#FEFFDD" style="stroke:#181818;stroke-width:0.5;"/><text fill="#000000" font-family="sans-serif" font-size="13" font-weight="bold" lengthAdjust="spacing" textLength="90.251" x="55" y="249.3638">Coordinador</text><text fill="#000000" font-family="sans-serif" font-size="13" lengthAdjust="spacing" textLength="300.8472" x="149.3833" y="249.3638">solicita agregar un investigador a un proyecto</text></g><!--link SolicitandoDatos to CreandoInvestigador--><g class="link" data-entity-1="ent0004" data-entity-2="ent0005" data-link-type="dependency" data-source-line="19" id="lnk5"><path d="M44,330.4769 C44,367.6469 44,432.4569 44,469.8169" fill="none" id="SolicitandoDatos-to-CreandoInvestigador" style="stroke:#008000;stroke-width:1;"/><polygon fill="#008000" points="44,475.8169,48,466.8169,44,470.8169,40,466.8169,44,475.8169" style="stroke:#008000;stroke-width:1;"/><path d="M49,353.2969 L49,453.2969 L478,453.2969 L478,363.2969 L468,353.2969 L49,353.2969" fill="#FEFFDD" style="stroke:#181818;stroke-width:0.5;"/><path d="M468,353.2969 L468,363.2969 L478,363.2969 L468,353.2969" fill="#FEFFDD" style="stroke:#181818;stroke-width:0.5;"/><text fill="#000000" font-family="sans-serif" font-size="13" font-weight="bold" lengthAdjust="spacing" textLength="58.9063" x="55" y="370.3638">Sistema</text><text fill="#000000" font-family="sans-serif" font-size="13" lengthAdjust="spacing" textLength="345.2236" x="118.0386" y="370.3638">presenta solicitud de datos m&#237;nimos del investigador</text><text fill="#000000" font-family="sans-serif" font-size="13" lengthAdjust="spacing" textLength="218.4482" x="55" y="385.4966">&#8226; ID del investigador (obligatorio)</text><text fill="#000000" font-family="sans-serif" font-size="13" lengthAdjust="spacing" textLength="256.5405" x="55" y="400.6294">&#8226; Nombre del investigador (obligatorio)</text><text fill="#000000" font-family="sans-serif" font-size="13" lengthAdjust="spacing" textLength="250.5166" x="55" y="415.7622">&#8226; Campo del investigador (obligatorio)</text><text fill="#000000" font-family="sans-serif" font-size="13" lengthAdjust="spacing" textLength="257.7847" x="55" y="430.895">&#8226; Permite solicitar agregar investigador</text><text fill="#000000" font-family="sans-serif" font-size="13" lengthAdjust="spacing" textLength="269.731" x="55" y="446.0278">&#8226; Permite solicitar cancelar la agregacion</text></g><!--link CreandoInvestigador to *end*agregarInvestigador--><g class="link" data-entity-1="ent0005" data-entity-2="ent0006" data-link-type="dependency" data-source-line="29" id="lnk7"><path d="M44,526.5769 C44,552.7469 44,587.1469 44,605.9769" fill="none" id="CreandoInvestigador-to-*end*agregarInvestigador" style="stroke:#008000;stroke-width:1;"/><polygon fill="#008000" points="44,611.9769,48,602.9769,44,606.9769,40,602.9769,44,611.9769" style="stroke:#008000;stroke-width:1;"/><path d="M49,549.2969 L49,589.2969 L342,589.2969 L342,559.2969 L332,549.2969 L49,549.2969" fill="#FEFFDD" style="stroke:#181818;stroke-width:0.5;"/><path d="M332,549.2969 L332,559.2969 L342,559.2969 L332,549.2969" fill="#FEFFDD" style="stroke:#181818;stroke-width:0.5;"/><text fill="#000000" font-family="sans-serif" font-size="13" font-weight="bold" lengthAdjust="spacing" textLength="90.251" x="55" y="566.3638">Coordinador</text><text fill="#000000" font-family="sans-serif" font-size="13" lengthAdjust="spacing" textLength="177.8423" x="149.3833" y="566.3638">proporciona datos m&#237;nimos</text><text fill="#000000" font-family="sans-serif" font-size="13" font-weight="bold" lengthAdjust="spacing" textLength="58.9063" x="55" y="581.4966">Sistema</text><text fill="#000000" font-family="sans-serif" font-size="13" lengthAdjust="spacing" textLength="130.7046" x="118.0386" y="581.4966">agrega investigador</text></g><g><rect fill="#F1F1F1" height="50" rx="12.5" ry="12.5" style="stroke:#181818;stroke-width:0.5;" width="199.3477" x="34.33" y="739.3"/><line style="stroke:#181818;stroke-width:0.5;" x1="34.33" x2="233.6777" y1="765.5969" y2="765.5969"/><text fill="#000000" font-family="sans-serif" font-size="14" lengthAdjust="spacing" textLength="179.3477" x="44.33" y="757.2951">ENTREGABLES_ABIERTOS</text></g><g><rect fill="#F1F1F1" height="50" rx="12.5" ry="12.5" style="stroke:#181818;stroke-width:0.5;" width="182.1621" x="268.92" y="739.3"/><line style="stroke:#181818;stroke-width:0.5;" x1="268.92" x2="451.0821" y1="765.5969" y2="765.5969"/><text fill="#000000" font-family="sans-serif" font-size="14" lengthAdjust="spacing" textLength="162.1621" x="278.92" y="757.2951">PROYECTOS_ABIERTOS</text></g><!--link in1 to agregarInvestigador--><g class="link" data-entity-1="ent0002" data-entity-2="ent0003" data-link-type="dependency" data-source-line="4" id="lnk2"><path d="M247,57.46 C247,79.15 247,107.28 247,145.72" fill="none" id="in1-to-agregarInvestigador" style="stroke:#008000;stroke-width:1;"/><polygon fill="#008000" points="247,151.72,251,142.72,247,146.72,243,142.72,247,151.72" style="stroke:#008000;stroke-width:1;"/><path d="M252,92 L252,117 L370,117 L370,102 L360,92 L252,92" fill="#FEFFDD" style="stroke:#181818;stroke-width:0.5;"/><path d="M360,92 L360,102 L370,102 L360,92" fill="#FEFFDD" style="stroke:#181818;stroke-width:0.5;"/><text fill="#000000" font-family="sans-serif" font-size="13" lengthAdjust="spacing" textLength="97.6904" x="258" y="109.0669">abrirProyecto()</text></g><!--link agregarInvestigador to ENTREGABLES_ABIERTOS--><g class="link" data-entity-1="ent0003" data-entity-2="ent0008" data-link-type="dependency" data-source-line="37" id="lnk9"><path d="M170.84,644.57 C158.91,683.03 150.0881,711.4495 143.3581,733.1395" fill="none" id="agregarInvestigador-to-ENTREGABLES_ABIERTOS" style="stroke:#0000FF;stroke-width:1;"/><polygon fill="#0000FF" points="141.58,738.87,148.0674,731.4596,143.0617,734.0946,140.4268,729.0889,141.58,738.87" style="stroke:#0000FF;stroke-width:1;"/><path d="M167,679.3 L167,704.3 L306,704.3 L306,689.3 L296,679.3 L167,679.3" fill="#FEFFDD" style="stroke:#181818;stroke-width:0.5;"/><path d="M296,679.3 L296,689.3 L306,689.3 L296,679.3" fill="#FEFFDD" style="stroke:#181818;stroke-width:0.5;"/><text fill="#000000" font-family="sans-serif" font-size="13" lengthAdjust="spacing" textLength="118.4092" x="173" y="696.3669">abrirEntregables()</text></g><!--link agregarInvestigador to PROYECTOS_ABIERTOS--><g class="link" data-entity-1="ent0003" data-entity-2="ent0010" data-link-type="dependency" data-source-line="42" id="lnk11"><path d="M323.16,644.57 C335.09,683.03 343.9119,711.4495 350.6419,733.1395" fill="none" id="agregarInvestigador-to-PROYECTOS_ABIERTOS" style="stroke:#0000FF;stroke-width:1;"/><polygon fill="#0000FF" points="352.42,738.87,353.5732,729.0889,350.9383,734.0946,345.9326,731.4596,352.42,738.87" style="stroke:#0000FF;stroke-width:1;"/><path d="M346,679.3 L346,704.3 L471,704.3 L471,689.3 L461,679.3 L346,679.3" fill="#FEFFDD" style="stroke:#181818;stroke-width:0.5;"/><path d="M461,679.3 L461,689.3 L471,689.3 L461,679.3" fill="#FEFFDD" style="stroke:#181818;stroke-width:0.5;"/><text fill="#000000" font-family="sans-serif" font-size="13" lengthAdjust="spacing" textLength="104.4634" x="352" y="696.3669">abrirProyectos()</text></g><!--SRC=[ZLJHQi8m57tFLmJteWCPUnT1Qnd2K55VXiX8cui4qzoIn86CmRvbx_kA_Sc-P4crrTfiiuLocvoUU-wvkJLReNAcMKQbK63tET0SvTw_468iiq25kgVCqDPiFdsAe-LqyJmOZkEv2rh4xtLNDniDeDRTFcKksZ0zLYzWhDWmZfeeT2IeV88jOOaMUgPn3wd5TeU0ujG3ocG1WY9vOBtTQT5NGgYx3j-stEsm2vGY5POfZYDcqJGHaGQ_MrDPe5QtwrevbrIqGDKAyWkzf1yXQYwKf-hT9NrgZb-M1T6TSaQU5-LNygCH1KjfXOz9zMX8EDSNAkGtXGjXB6IiK9ThCA2SkgFC7QSSA2_uiwzF9J8NS90roGNHz_i77OyQUxIDYNIXHIsmKo4dc2KQhaL7BClnMl0CT2PSbQNHkd8wgBa9JvbAGRf0barA1QfQ9qvT21XTQuGxE5SV3TVq7BLFnYui3xNg8ArPLANnZH0IcXedBv4xyEhYoN8UFmo6Z_5fTWDZ6IlhQH89fZQP_x0t_mj_ZFmvymy0]--></g></svg>