<svg xmlns="http://www.w3.org/2000/svg" xmlns:xlink="http://www.w3.org/1999/xlink" contentStyleType="text/css" data-diagram-type="STATE" height="780px" preserveAspectRatio="none" style="width:470px;height:780px;background:#FFFFFF;" version="1.1" viewBox="0 0 470 780" width="470px" zoomAndPan="magnify"><defs/><g><g><rect fill="#F1F1F1" height="50" rx="12.5" ry="12.5" style="stroke:#181818;stroke-width:0.5;" width="184.6846" x="7" y="7"/><line style="stroke:#181818;stroke-width:0.5;" x1="7" x2="191.6846" y1="33.2969" y2="33.2969"/><text fill="#000000" font-family="sans-serif" font-size="14" lengthAdjust="spacing" textLength="164.6846" x="17" y="24.9951">RECOMPENSA_ABIERTA</text></g><g><rect fill="#F1F1F1" height="50" rx="12.5" ry="12.5" style="stroke:#181818;stroke-width:0.5;" width="213.0879" x="226.8" y="7"/><line style="stroke:#181818;stroke-width:0.5;" x1="226.8" x2="439.8879" y1="33.2969" y2="33.2969"/><text fill="#000000" font-family="sans-serif" font-size="14" lengthAdjust="spacing" textLength="193.0879" x="236.8" y="24.9951">PANEL_PRINCIPAL_ABIERTO</text></g><path d="M48.34,152 L384.34,152 A12.5,12.5 0 0 1 396.84,164.5 L396.84,178.2969 L35.84,178.2969 L35.84,164.5 A12.5,12.5 0 0 1 48.34,152" fill="#F1F1F1"/><rect fill="none" height="477.2969" rx="12.5" ry="12.5" style="stroke:#181818;stroke-width:0.5;" width="361" x="35.84" y="152"/><line style="stroke:#181818;stroke-width:0.5;" x1="35.84" x2="396.84" y1="178.2969" y2="178.2969"/><text fill="#000000" font-family="sans-serif" font-size="14" lengthAdjust="spacing" textLength="141.5723" x="145.5539" y="169.9951">abrirRecompensas()</text><g><rect fill="#F1F1F1" height="50" rx="12.5" ry="12.5" style="stroke:#181818;stroke-width:0.5;" width="50" x="47.84" y="280.2969"/><line style="stroke:#181818;stroke-width:0.5;" x1="47.84" x2="97.84" y1="306.5938" y2="306.5938"/><text fill="#000000" font-family="sans-serif" font-size="14" lengthAdjust="spacing" textLength="4.4502" x="70.6149" y="298.292">&#160;</text></g><g><rect fill="#F1F1F1" height="50" rx="12.5" ry="12.5" style="stroke:#181818;stroke-width:0.5;" width="50" x="47.84" y="476.2969"/><line style="stroke:#181818;stroke-width:0.5;" x1="47.84" x2="97.84" y1="502.5938" y2="502.5938"/><text fill="#000000" font-family="sans-serif" font-size="14" lengthAdjust="spacing" textLength="4.4502" x="70.6149" y="494.292">&#160;</text></g><ellipse cx="72.84" cy="199.2969" fill="#222222" rx="10" ry="10" style="stroke:#222222;stroke-width:1;"/><ellipse cx="72.84" cy="608.2969" fill="none" rx="11" ry="11" style="stroke:#222222;stroke-width:1;"/><ellipse cx="72.84" cy="608.2969" fill="#222222" rx="6" ry="6" style="stroke:#222222;stroke-width:1;"/><!--link *start*abrirRecompensas to MostrandoListado--><g class="link" data-entity-1="ent0004" data-entity-2="ent0005" data-link-type="dependency" data-source-line="20" id="lnk5"><path d="M72.84,209.5269 C72.84,225.2369 72.84,251.6569 72.84,274.1669" fill="none" id="*start*abrirRecompensas-to-MostrandoListado" style="stroke:#008000;stroke-width:1;"/><polygon fill="#008000" points="72.84,280.1669,76.84,271.1669,72.84,275.1669,68.84,271.1669,72.84,280.1669" style="stroke:#008000;stroke-width:1;"/><path d="M77.84,232.2969 L77.84,257.2969 L366.84,257.2969 L366.84,242.2969 L356.84,232.2969 L77.84,232.2969" fill="#FEFFDD" style="stroke:#181818;stroke-width:0.5;"/><path d="M356.84,232.2969 L356.84,242.2969 L366.84,242.2969 L356.84,232.2969" fill="#FEFFDD" style="stroke:#181818;stroke-width:0.5;"/><text fill="#000000" font-family="sans-serif" font-size="13" font-weight="bold" lengthAdjust="spacing" textLength="92.5171" x="83.84" y="249.3638">Investigador</text><text fill="#000000" font-family="sans-serif" font-size="13" lengthAdjust="spacing" textLength="171.666" x="180.4894" y="249.3638">solicita abrir recompensas</text></g><!--link MostrandoListado to FiltrandoListado--><g class="link" data-entity-1="ent0005" data-entity-2="ent0006" data-link-type="dependency" data-source-line="25" id="lnk6"><path d="M72.84,330.4769 C72.84,367.6469 72.84,432.4569 72.84,469.8169" fill="none" id="MostrandoListado-to-FiltrandoListado" style="stroke:#008000;stroke-width:1;"/><polygon fill="#008000" points="72.84,475.8169,76.84,466.8169,72.84,470.8169,68.84,466.8169,72.84,475.8169" style="stroke:#008000;stroke-width:1;"/><path d="M77.84,353.2969 L77.84,453.2969 L377.84,453.2969 L377.84,363.2969 L367.84,353.2969 L77.84,353.2969" fill="#FEFFDD" style="stroke:#181818;stroke-width:0.5;"/><path d="M367.84,353.2969 L367.84,363.2969 L377.84,363.2969 L367.84,353.2969" fill="#FEFFDD" style="stroke:#181818;stroke-width:0.5;"/><text fill="#000000" font-family="sans-serif" font-size="13" font-weight="bold" lengthAdjust="spacing" textLength="58.9063" x="83.84" y="370.3638">Sistema</text><text fill="#000000" font-family="sans-serif" font-size="13" lengthAdjust="spacing" textLength="216.6899" x="146.8786" y="370.3638">presenta listado de recompensas</text><text fill="#000000" font-family="sans-serif" font-size="13" lengthAdjust="spacing" textLength="39.5586" x="83.84" y="385.4966">&#8226; Tipo</text><text fill="#000000" font-family="sans-serif" font-size="13" lengthAdjust="spacing" textLength="70.2622" x="83.84" y="400.6294">&#8226; Cantidad</text><text fill="#000000" font-family="sans-serif" font-size="13" font-weight="bold" lengthAdjust="spacing" textLength="58.9063" x="83.84" y="415.7622">Sistema</text><text fill="#000000" font-family="sans-serif" font-size="13" lengthAdjust="spacing" textLength="110.5952" x="146.8786" y="415.7622">permite solicitar:</text><text fill="#000000" font-family="sans-serif" font-size="13" lengthAdjust="spacing" textLength="126.7881" x="83.84" y="430.895">&#8226; abrir recompensa</text><text fill="#000000" font-family="sans-serif" font-size="13" lengthAdjust="spacing" textLength="4.1323" x="83.84" y="446.0278">&#160;</text></g><!--link FiltrandoListado to *end*abrirRecompensas--><g class="link" data-entity-1="ent0006" data-entity-2="ent0007" data-link-type="dependency" data-source-line="35" id="lnk8"><path d="M72.84,526.6469 C72.84,548.9469 72.84,574.8569 72.84,591.0369" fill="none" id="FiltrandoListado-to-*end*abrirRecompensas" style="stroke:#008000;stroke-width:1;"/><polygon fill="#008000" points="72.84,597.0369,76.84,588.0369,72.84,592.0369,68.84,588.0369,72.84,597.0369" style="stroke:#008000;stroke-width:1;"/><path d="M77.84,549.2969 L77.84,574.2969 L387.84,574.2969 L387.84,559.2969 L377.84,549.2969 L77.84,549.2969" fill="#FEFFDD" style="stroke:#181818;stroke-width:0.5;"/><path d="M377.84,549.2969 L377.84,559.2969 L387.84,559.2969 L377.84,549.2969" fill="#FEFFDD" style="stroke:#181818;stroke-width:0.5;"/><text fill="#000000" font-family="sans-serif" font-size="13" font-weight="bold" lengthAdjust="spacing" textLength="92.5171" x="83.84" y="566.3638">Investigador</text><text fill="#000000" font-family="sans-serif" font-size="13" lengthAdjust="spacing" textLength="193.0322" x="180.4894" y="566.3638">solicita una opci&#243;n del listado</text></g><g><rect fill="#F1F1F1" height="50" rx="12.5" ry="12.5" style="stroke:#181818;stroke-width:0.5;" width="184.6846" x="124" y="724.3"/><line style="stroke:#181818;stroke-width:0.5;" x1="124" x2="308.6846" y1="750.5969" y2="750.5969"/><text fill="#000000" font-family="sans-serif" font-size="14" lengthAdjust="spacing" textLength="164.6846" x="134" y="742.2951">RECOMPENSA_ABIERTA</text></g><!--link in1 to abrirRecompensas--><g class="link" data-entity-1="ent0002" data-entity-2="ent0004" data-link-type="dependency" data-source-line="4" id="lnk2"><path d="M107.29,57.24 C114.42,78.95 123.7889,107.5392 136.4189,146.0192" fill="none" id="in1-to-abrirRecompensas" style="stroke:#008000;stroke-width:1;"/><polygon fill="#008000" points="138.29,151.72,139.2838,141.9214,136.7307,146.9693,131.6828,144.4162,138.29,151.72" style="stroke:#008000;stroke-width:1;"/><path d="M133.34,92 L133.34,117 L278.34,117 L278.34,102 L268.34,92 L133.34,92" fill="#FEFFDD" style="stroke:#181818;stroke-width:0.5;"/><path d="M268.34,92 L268.34,102 L278.34,102 L268.34,92" fill="#FEFFDD" style="stroke:#181818;stroke-width:0.5;"/><text fill="#000000" font-family="sans-serif" font-size="13" lengthAdjust="spacing" textLength="124.687" x="139.34" y="109.0669">abrirRecompensa()</text></g><!--link in2 to abrirRecompensas--><g class="link" data-entity-1="ent0003" data-entity-2="ent0004" data-link-type="dependency" data-source-line="10" id="lnk3"><path d="M325.39,57.24 C318.27,78.95 308.8898,107.5388 296.2698,146.0188" fill="none" id="in2-to-abrirRecompensas" style="stroke:#008000;stroke-width:1;"/><polygon fill="#008000" points="294.4,151.72,301.0055,144.4147,295.9582,146.969,293.4039,141.9216,294.4,151.72" style="stroke:#008000;stroke-width:1;"/><path d="M318.34,92 L318.34,117 L463.34,117 L463.34,102 L453.34,92 L318.34,92" fill="#FEFFDD" style="stroke:#181818;stroke-width:0.5;"/><path d="M453.34,92 L453.34,102 L463.34,102 L453.34,92" fill="#FEFFDD" style="stroke:#181818;stroke-width:0.5;"/><text fill="#000000" font-family="sans-serif" font-size="13" lengthAdjust="spacing" textLength="124.687" x="324.34" y="109.0669">abrirRecompensa()</text></g><!--link abrirRecompensas to RECOMPENSA_ABIERTA--><g class="link" data-entity-1="ent0004" data-entity-2="ent0009" data-link-type="dependency" data-source-line="42" id="lnk10"><path d="M216.34,629.54 C216.34,668.13 216.34,696.51 216.34,718.23" fill="none" id="abrirRecompensas-to-RECOMPENSA_ABIERTA" style="stroke:#008000;stroke-width:1;"/><polygon fill="#008000" points="216.34,724.23,220.34,715.23,216.34,719.23,212.34,715.23,216.34,724.23" style="stroke:#008000;stroke-width:1;"/><path d="M221.34,664.3 L221.34,689.3 L366.34,689.3 L366.34,674.3 L356.34,664.3 L221.34,664.3" fill="#FEFFDD" style="stroke:#181818;stroke-width:0.5;"/><path d="M356.34,664.3 L356.34,674.3 L366.34,674.3 L356.34,664.3" fill="#FEFFDD" style="stroke:#181818;stroke-width:0.5;"/><text fill="#000000" font-family="sans-serif" font-size="13" lengthAdjust="spacing" textLength="124.687" x="227.34" y="681.3669">abrirRecompensa()</text></g><!--SRC=[hPDBQiCm48RtEeLmDqaXb6PPGi0DBXZoC4vs8HGb7i8GUoGajH1AeMVf5Ng4tgGdgUGyRQTGIgsLPlwPR_v1DXia9RGeU8u4Tgk0Avbl_OKnOuK5ZdJBXU516WqceoGQJyF7y3wEqbaOC9_hpA_M6e0MdJuNIuqwXPKi590HXf5q7IJvxXjMoxRQ32ZZNd9YTKjM4ewZuMEInkD1d8J3FN3YWTr_1TRhItezs6e7_8KnxhvTLU2E4uwaiLfG9eVeufbiAXumhofAoVnwKJ5niK_5Y0_qblsOdi5ON3kDxjqi-zp875TenSu7rsUBy2Kdj_vMnrHcQ4pwqmnJbuT2b7YbmG0vVBxlc45ZXg-tTpv39O-NWI2BcSWkDWHTe6CUVEcxOrdTOPcuuB9kfEBIRVuFotqYmQLQuUS7EOVvmMqL_ieOQxocStRp__djO_q6]--></g></svg>