<svg xmlns="http://www.w3.org/2000/svg" xmlns:xlink="http://www.w3.org/1999/xlink" contentStyleType="text/css" data-diagram-type="STATE" height="659px" preserveAspectRatio="none" style="width:555px;height:659px;background:#FFFFFF;" version="1.1" viewBox="0 0 555 659" width="555px" zoomAndPan="magnify"><defs/><g><g><rect fill="#F1F1F1" height="50" rx="12.5" ry="12.5" style="stroke:#181818;stroke-width:0.5;" width="202.458" x="113" y="7"/><line style="stroke:#181818;stroke-width:0.5;" x1="113" x2="315.458" y1="33.2969" y2="33.2969"/><text fill="#000000" font-family="sans-serif" font-size="14" lengthAdjust="spacing" textLength="182.458" x="123" y="24.9951">RECOMPENSAS_ABIERTAS</text></g><path d="M29.73,152 L398.73,152 A12.5,12.5 0 0 1 411.23,164.5 L411.23,178.2969 L17.23,178.2969 L17.23,164.5 A12.5,12.5 0 0 1 29.73,152" fill="#F1F1F1"/><rect fill="none" height="356.2969" rx="12.5" ry="12.5" style="stroke:#181818;stroke-width:0.5;" width="394" x="17.23" y="152"/><line style="stroke:#181818;stroke-width:0.5;" x1="17.23" x2="411.23" y1="178.2969" y2="178.2969"/><text fill="#000000" font-family="sans-serif" font-size="14" lengthAdjust="spacing" textLength="134.2783" x="147.0908" y="169.9951">abrirRecompensa()</text><g><rect fill="#F1F1F1" height="50" rx="12.5" ry="12.5" style="stroke:#181818;stroke-width:0.5;" width="50" x="29.23" y="280.2969"/><line style="stroke:#181818;stroke-width:0.5;" x1="29.23" x2="79.23" y1="306.5937" y2="306.5937"/><text fill="#000000" font-family="sans-serif" font-size="14" lengthAdjust="spacing" textLength="4.4502" x="52.0049" y="298.292">&#160;</text></g><ellipse cx="54.23" cy="199.2969" fill="#222222" rx="10" ry="10" style="stroke:#222222;stroke-width:1;"/><ellipse cx="54.23" cy="487.2969" fill="none" rx="11" ry="11" style="stroke:#222222;stroke-width:1;"/><ellipse cx="54.23" cy="487.2969" fill="#222222" rx="6" ry="6" style="stroke:#222222;stroke-width:1;"/><!--link *start*abrirRecompensa to MostrandoRecompensa--><g class="link" data-entity-1="ent0003" data-entity-2="ent0004" data-link-type="dependency" data-source-line="13" id="lnk4"><path d="M54.23,209.5269 C54.23,225.2369 54.23,251.6569 54.23,274.1669" fill="none" id="*start*abrirRecompensa-to-MostrandoRecompensa" style="stroke:#008000;stroke-width:1;"/><polygon fill="#008000" points="54.23,280.1669,58.23,271.1669,54.23,275.1669,50.23,271.1669,54.23,280.1669" style="stroke:#008000;stroke-width:1;"/><path d="M59.23,232.2969 L59.23,257.2969 L367.23,257.2969 L367.23,242.2969 L357.23,232.2969 L59.23,232.2969" fill="#FEFFDD" style="stroke:#181818;stroke-width:0.5;"/><path d="M357.23,232.2969 L357.23,242.2969 L367.23,242.2969 L357.23,232.2969" fill="#FEFFDD" style="stroke:#181818;stroke-width:0.5;"/><text fill="#000000" font-family="sans-serif" font-size="13" font-weight="bold" lengthAdjust="spacing" textLength="90.251" x="65.23" y="249.3638">Coordinador</text><text fill="#000000" font-family="sans-serif" font-size="13" lengthAdjust="spacing" textLength="193.4702" x="159.6133" y="249.3638">solicita abrir una recompensa</text></g><!--link MostrandoRecompensa to *end*abrirRecompensa--><g class="link" data-entity-1="ent0004" data-entity-2="ent0005" data-link-type="dependency" data-source-line="18" id="lnk6"><path d="M54.23,330.5769 C54.23,370.4969 54.23,442.3469 54.23,470.1369" fill="none" id="MostrandoRecompensa-to-*end*abrirRecompensa" style="stroke:#008000;stroke-width:1;"/><polygon fill="#008000" points="54.23,476.1369,58.23,467.1369,54.23,471.1369,50.23,467.1369,54.23,476.1369" style="stroke:#008000;stroke-width:1;"/><path d="M59.23,353.2969 L59.23,453.2969 L402.23,453.2969 L402.23,363.2969 L392.23,353.2969 L59.23,353.2969" fill="#FEFFDD" style="stroke:#181818;stroke-width:0.5;"/><path d="M392.23,353.2969 L392.23,363.2969 L402.23,363.2969 L392.23,353.2969" fill="#FEFFDD" style="stroke:#181818;stroke-width:0.5;"/><text fill="#000000" font-family="sans-serif" font-size="13" font-weight="bold" lengthAdjust="spacing" textLength="58.9063" x="65.23" y="370.3638">Sistema</text><text fill="#000000" font-family="sans-serif" font-size="13" lengthAdjust="spacing" textLength="259.6699" x="128.2686" y="370.3638">presenta informaci&#243;n de la recompensa</text><text fill="#000000" font-family="sans-serif" font-size="13" lengthAdjust="spacing" textLength="39.5586" x="65.23" y="385.4966">&#8226; Tipo</text><text fill="#000000" font-family="sans-serif" font-size="13" lengthAdjust="spacing" textLength="70.2622" x="65.23" y="400.6294">&#8226; Cantidad</text><text fill="#000000" font-family="sans-serif" font-size="13" font-weight="bold" lengthAdjust="spacing" textLength="58.9063" x="65.23" y="415.7622">Sistema</text><text fill="#000000" font-family="sans-serif" font-size="13" lengthAdjust="spacing" textLength="110.5952" x="128.2686" y="415.7622">permite solicitar:</text><text fill="#000000" font-family="sans-serif" font-size="13" lengthAdjust="spacing" textLength="134.5386" x="65.23" y="430.895">&#8226; editar recompensa</text><text fill="#000000" font-family="sans-serif" font-size="13" lengthAdjust="spacing" textLength="149.3159" x="65.23" y="446.0278">&#8226; eliminar recompensa</text></g><g><rect fill="#F1F1F1" height="50" rx="12.5" ry="12.5" style="stroke:#181818;stroke-width:0.5;" width="202.458" x="7" y="603.3"/><line style="stroke:#181818;stroke-width:0.5;" x1="7" x2="209.458" y1="629.5969" y2="629.5969"/><text fill="#000000" font-family="sans-serif" font-size="14" lengthAdjust="spacing" textLength="182.458" x="17" y="621.2951">RECOMPENSAS_ABIERTAS</text></g><g><rect fill="#F1F1F1" height="50" rx="12.5" ry="12.5" style="stroke:#181818;stroke-width:0.5;" width="184.6846" x="339.89" y="603.3"/><line style="stroke:#181818;stroke-width:0.5;" x1="339.89" x2="524.5746" y1="629.5969" y2="629.5969"/><text fill="#000000" font-family="sans-serif" font-size="14" lengthAdjust="spacing" textLength="164.6846" x="349.89" y="621.2951">RECOMPENSA_ABIERTA</text></g><!--link in2 to abrirRecompensa--><g class="link" data-entity-1="ent0002" data-entity-2="ent0003" data-link-type="dependency" data-source-line="4" id="lnk2"><path d="M214.23,57.49 C214.23,79.59 214.23,108.29 214.23,145.59" fill="none" id="in2-to-abrirRecompensa" style="stroke:#008000;stroke-width:1;"/><polygon fill="#008000" points="214.23,151.59,218.23,142.59,214.23,146.59,210.23,142.59,214.23,151.59" style="stroke:#008000;stroke-width:1;"/><path d="M219.23,92 L219.23,117 L364.23,117 L364.23,102 L354.23,92 L219.23,92" fill="#FEFFDD" style="stroke:#181818;stroke-width:0.5;"/><path d="M354.23,92 L354.23,102 L364.23,102 L354.23,92" fill="#FEFFDD" style="stroke:#181818;stroke-width:0.5;"/><text fill="#000000" font-family="sans-serif" font-size="13" lengthAdjust="spacing" textLength="124.687" x="225.23" y="109.0669">abrirRecompensa()</text></g><!--link abrirRecompensa to RECOMPENSAS_ABIERTAS--><g class="link" data-entity-1="ent0003" data-entity-2="ent0007" data-link-type="dependency" data-source-line="30" id="lnk8"><path d="M38.6,508.62 C20.87,526.54 9.23,538.3 9.23,538.3 C9.23,538.3 9.23,573.3 9.23,573.3 C9.23,573.3 31.903,585.6662 58.093,599.9562" fill="none" id="abrirRecompensa-to-RECOMPENSAS_ABIERTAS" style="stroke:#008000;stroke-width:1;"/><polygon fill="#008000" points="63.36,602.83,57.3754,595.0079,58.9708,600.4352,53.5436,602.0306,63.36,602.83" style="stroke:#008000;stroke-width:1;"/><path d="M14.23,543.3 L14.23,568.3 L166.23,568.3 L166.23,553.3 L156.23,543.3 L14.23,543.3" fill="#FEFFDD" style="stroke:#181818;stroke-width:0.5;"/><path d="M156.23,543.3 L156.23,553.3 L166.23,553.3 L156.23,543.3" fill="#FEFFDD" style="stroke:#181818;stroke-width:0.5;"/><text fill="#000000" font-family="sans-serif" font-size="13" lengthAdjust="spacing" textLength="131.46" x="20.23" y="560.3669">abrirRecompensas()</text></g><!--link abrirRecompensa to RECOMPENSAS_ABIERTAS--><g class="link" data-entity-1="ent0003" data-entity-2="ent0007" data-link-type="dependency" data-source-line="35" id="lnk9"><path d="M185.63,508.73 C179.71,545.49 175.23,573.3 175.23,573.3 C175.23,573.3 160.9916,584.7748 143.2616,599.0648" fill="none" id="abrirRecompensa-to-RECOMPENSAS_ABIERTAS-1" style="stroke:#008000;stroke-width:1;"/><polygon fill="#008000" points="138.59,602.83,148.1075,600.2966,142.483,599.6924,143.0872,594.0679,138.59,602.83" style="stroke:#008000;stroke-width:1;"/><path d="M185.23,543.3 L185.23,568.3 L353.23,568.3 L353.23,553.3 L343.23,543.3 L185.23,543.3" fill="#FEFFDD" style="stroke:#181818;stroke-width:0.5;"/><path d="M343.23,543.3 L343.23,553.3 L353.23,553.3 L343.23,543.3" fill="#FEFFDD" style="stroke:#181818;stroke-width:0.5;"/><text fill="#000000" font-family="sans-serif" font-size="13" lengthAdjust="spacing" textLength="147.2148" x="191.23" y="560.3669">eliminarRecompensa()</text></g><!--link abrirRecompensa to RECOMPENSA_ABIERTA--><g class="link" data-entity-1="ent0003" data-entity-2="ent0010" data-link-type="dependency" data-source-line="40" id="lnk11"><path d="M344.82,508.55 C372.38,546 394.4731,576.008 410.7631,598.138" fill="none" id="abrirRecompensa-to-RECOMPENSA_ABIERTA" style="stroke:#008000;stroke-width:1;"/><polygon fill="#008000" points="414.32,602.97,412.206,593.3507,411.3559,598.9433,405.7633,598.0932,414.32,602.97" style="stroke:#008000;stroke-width:1;"/><path d="M395.23,543.3 L395.23,568.3 L548.23,568.3 L548.23,553.3 L538.23,543.3 L395.23,543.3" fill="#FEFFDD" style="stroke:#181818;stroke-width:0.5;"/><path d="M538.23,543.3 L538.23,553.3 L548.23,553.3 L538.23,543.3" fill="#FEFFDD" style="stroke:#181818;stroke-width:0.5;"/><text fill="#000000" font-family="sans-serif" font-size="13" lengthAdjust="spacing" textLength="132.4375" x="401.23" y="560.3669">editarRecompensa()</text></g><!--SRC=[fPB1IiD048Rl-nH3lAXG18zI0h7quA4gJM-boBGxbQ79RDXT3qK4dyLNy15y4v_4tPHKawOYc9mc-y_t_xCPjs6fq6891GlvRKLGcM8R2wMSHq_0SWde89cEHtUJ-_5jdkKFsVNDU3hByaJ5qy7yvD4IoMAG0YujsocjJ5cHE5HY0i98n6zKv_3qJ95eY9B6hAEeZG-w4dXM2iApwqd26tGJuxn5qUQ7UwsQdozQ4Vk4KTUA6ZyCb-d86AjPK1ixl5Ycu4p1A_Qu2mfFWc3RbE-9OjNZrSeIiXtrpjbvAh7shImvak3BiZQsn1L_l0jeWk8WmEVh6youCljYXE9Pe-xbaYqvM3TpsQjz6-bOzz6fu3BSYJqw-ejItN_TchflbNxT5DTQbV-Xc_H7zl1ly8RTGTTNrWl-0W00]--></g></svg>