<?plantuml 1.2026.2?><svg xmlns="http://www.w3.org/2000/svg" xmlns:xlink="http://www.w3.org/1999/xlink" contentStyleType="text/css" data-diagram-type="DESCRIPTION" height="517px" preserveAspectRatio="none" style="width:657px;height:517px;background:#FFFFFF;" version="1.1" viewBox="0 0 657 517" width="657px" zoomAndPan="magnify"><defs/><g><!--cluster cerrarSesion--><g class="cluster" data-qualified-name="cerrarSesion" data-source-line="10" id="ent0004"><path d="M248.5,6 L346.3965,6 A3.75,3.75 0 0 1 348.8965,8.5 L355.8965,25.9688 L495.5,25.9688 A2.5,2.5 0 0 1 498,28.4688 L498,507.5 A2.5,2.5 0 0 1 495.5,510 L248.5,510 A2.5,2.5 0 0 1 246,507.5 L246,8.5 A2.5,2.5 0 0 1 248.5,6" fill="none" style="stroke:#000000;stroke-width:1.5;"/><line style="stroke:#000000;stroke-width:1.5;" x1="246" x2="355.8965" y1="25.9688" y2="25.9688"/><text fill="#000000" font-family="sans-serif" font-size="12" font-weight="bold" lengthAdjust="spacing" textLength="96.8965" x="250" y="19.1387">cerrarSesion()</text></g><!--entity CerrarSesionView--><g class="entity" data-qualified-name="cerrarSesion.CerrarSesionView" data-source-line="11" id="ent0005"><rect fill="#629EF9" height="33.9688" rx="2.5" ry="2.5" style="stroke:#181818;stroke-width:0.5;" width="126.1895" x="315" y="38"/><text fill="#000000" font-family="sans-serif" font-size="12" lengthAdjust="spacing" textLength="106.1895" x="325" y="59.1387">CerrarSesionView</text></g><!--entity CerrarSesionController--><g class="entity" data-qualified-name="cerrarSesion.CerrarSesionController" data-source-line="12" id="ent0006"><rect fill="#B5BD68" height="33.9688" rx="2.5" ry="2.5" style="stroke:#181818;stroke-width:0.5;" width="156.7402" x="280.5" y="147"/><text fill="#000000" font-family="sans-serif" font-size="12" lengthAdjust="spacing" textLength="136.7402" x="290.5" y="168.1387">CerrarSesionController</text></g><!--entity SesionRepository--><g class="entity" data-qualified-name="cerrarSesion.SesionRepository" data-source-line="13" id="ent0007"><rect fill="#F2AC4E" height="33.9688" rx="2.5" ry="2.5" style="stroke:#181818;stroke-width:0.5;" width="123.8809" x="262" y="256"/><text fill="#000000" font-family="sans-serif" font-size="12" lengthAdjust="spacing" textLength="103.8809" x="272" y="277.1387">SesionRepository</text></g><!--entity Sesion--><g class="entity" data-qualified-name="cerrarSesion.Sesion" data-source-line="14" id="ent0008"><rect fill="#F2AC4E" height="33.9688" rx="2.5" ry="2.5" style="stroke:#181818;stroke-width:0.5;" width="59.5332" x="294" y="365"/><text fill="#000000" font-family="sans-serif" font-size="12" lengthAdjust="spacing" textLength="39.5332" x="304" y="386.1387">Sesion</text></g><!--entity Usuario--><g class="entity" data-qualified-name="cerrarSesion.Usuario" data-source-line="15" id="ent0009"><rect fill="#F2AC4E" height="33.9688" rx="2.5" ry="2.5" style="stroke:#181818;stroke-width:0.5;" width="65.6035" x="291" y="460"/><text fill="#000000" font-family="sans-serif" font-size="12" lengthAdjust="spacing" textLength="45.6035" x="301" y="481.1387">Usuario</text></g><!--entity PanelPrincipalAbierto--><g class="entity" data-qualified-name="PanelPrincipalAbierto" data-source-line="7" id="ent0002"><rect fill="#CDEBA5" height="33.9688" rx="2.5" ry="2.5" style="stroke:#181818;stroke-width:0.5;" width="185.5039" x="7" y="38"/><text fill="#000000" font-family="sans-serif" font-size="12" lengthAdjust="spacing" textLength="165.5039" x="17" y="59.1387">PANEL_PRINCIPAL_ABIERTO</text></g><!--entity SesionCerrada--><g class="entity" data-qualified-name="SesionCerrada" data-source-line="8" id="ent0003"><rect fill="#CDEBA5" height="33.9688" rx="2.5" ry="2.5" style="stroke:#181818;stroke-width:0.5;" width="129.0723" x="514.5" y="147"/><text fill="#000000" font-family="sans-serif" font-size="12" lengthAdjust="spacing" textLength="109.0723" x="524.5" y="168.1387">SESION_CERRADA</text></g><!--link PanelPrincipalAbierto to CerrarSesionView--><g class="link" data-entity-1="ent0002" data-entity-2="ent0005" data-link-type="dependency" data-source-line="18" id="lnk10"><path d="M193.34,55 C233.25,55 272.81,55 308.69,55" fill="none" id="PanelPrincipalAbierto-to-CerrarSesionView" style="stroke:#181818;stroke-width:1;"/><polygon fill="#181818" points="314.69,55,305.69,51,309.69,55,305.69,59,314.69,55" style="stroke:#181818;stroke-width:1;"/><text fill="#000000" font-family="sans-serif" font-size="12" lengthAdjust="spacing" textLength="85.0313" x="211.5" y="49.1387">cerrarSesion()</text></g><!--link CerrarSesionView to CerrarSesionController--><g class="link" data-entity-1="ent0005" data-entity-2="ent0006" data-link-type="dependency" data-source-line="20" id="lnk11"><path d="M375.11,72.25 C371.52,92.48 366.4801,120.9026 362.9001,141.0426" fill="none" id="CerrarSesionView-to-CerrarSesionController" style="stroke:#181818;stroke-width:1;"/><polygon fill="#181818" points="361.85,146.95,367.3634,138.789,362.7251,142.0272,359.4868,137.3889,361.85,146.95" style="stroke:#181818;stroke-width:1;"/><text fill="#000000" font-family="sans-serif" font-size="12" lengthAdjust="spacing" textLength="92.8945" x="370" y="114.1387">solicitarCierre()</text></g><!--link CerrarSesionController to SesionRepository--><g class="link" data-entity-1="ent0006" data-entity-2="ent0007" data-link-type="dependency" data-source-line="22" id="lnk12"><path d="M353.68,181.25 C347.07,201.48 337.7059,230.1075 331.1159,250.2475" fill="none" id="CerrarSesionController-to-SesionRepository" style="stroke:#181818;stroke-width:1;"/><polygon fill="#181818" points="329.25,255.95,335.8505,248.6402,330.8049,251.1979,328.2472,246.1523,329.25,255.95" style="stroke:#181818;stroke-width:1;"/><text fill="#000000" font-family="sans-serif" font-size="12" lengthAdjust="spacing" textLength="183.0645" x="344" y="223.1387">terminarSesion(usuarioActual)</text></g><!--link SesionRepository to Sesion--><g class="link" data-entity-1="ent0007" data-entity-2="ent0008" data-link-type="dependency" data-source-line="23" id="lnk13"><path d="M324,290.25 C324,310.48 324,338.81 324,358.95" fill="none" id="SesionRepository-to-Sesion" style="stroke:#181818;stroke-width:1;"/><polygon fill="#181818" points="324,364.95,328,355.95,324,359.95,320,355.95,324,364.95" style="stroke:#181818;stroke-width:1;"/><text fill="#000000" font-family="sans-serif" font-size="12" lengthAdjust="spacing" textLength="95.6602" x="325" y="332.1387">destruirSesion()</text></g><!--link Sesion to Usuario--><g class="link" data-entity-1="ent0008" data-entity-2="ent0009" data-link-type="association" data-source-line="25" id="lnk14"><path d="M324,399.2 C324,416.27 324,442.99 324,459.99" fill="none" id="Sesion-Usuario" style="stroke:#181818;stroke-width:1;"/></g><!--link CerrarSesionView to SesionCerrada--><g class="link" data-entity-1="ent0005" data-entity-2="ent0003" data-link-type="dependency" data-source-line="27" id="lnk15"><path d="M410.53,72.09 C437.35,85.35 471,102 471,102 C471,102 513.4058,125.9491 545.3958,144.0191" fill="none" id="CerrarSesionView-to-SesionCerrada" style="stroke:#181818;stroke-width:1;stroke-dasharray:7,7;"/><polygon fill="#181818" points="550.62,146.97,544.751,139.0608,546.2665,144.5109,540.8165,146.0264,550.62,146.97" style="stroke:#181818;stroke-width:1;"/><text fill="#000000" font-family="sans-serif" font-size="12" lengthAdjust="spacing" textLength="151.3008" x="498" y="114.1387">&#171;finalizar&#187; cerrarSesion()</text></g><?plantuml-src VP91R-8m48Nl_XKZk6mFGIhQLcrK8HaJ9AIAHg6xL-Ga0xNgsj7O4QAh_UzD0mjko3OdP-QzvvalSQ_AL9Ba6-IoUDsIhKqfhBO4knVbaRbJtxt8qkwKsS96QXTsPhYHjVPpQ_p1ckicgr-mKky8r-EWgPL1lwyGAgltdo-C4HPUcgr668fPCkKtC4ZvCdbSfzbYAHOfVrppwIB9dfy681saqg1EIPb2LLBpN25vsnUoIbQBf-LQ95d6Pxprhj0fQmGIoL8oLZM3oot2eFYiqA7xuwgLXYNumw1vpdSCHD3zhN3NMhf56DwExvFv_NTcqL0YgpNIHSIv1SFy9Yzlxxf11rs6bNNAMze7EvwBC9oFkVYPz9i3o_-4lrmjITbMUJoVf7yPw_qU454qkG0ImrVGZ5qWYygExqmX1cUrAfIN99fB2Bi10R0sfaiY1e_qfinfWFgm3IzyBVKLko0NfCHGelDKgs3u8xOe-eUbPv_HQFBrhulXuM7JpA3LkwJ9f4Fa0m00?></g></svg>