<?plantuml 1.2026.2?><svg xmlns="http://www.w3.org/2000/svg" xmlns:xlink="http://www.w3.org/1999/xlink" contentStyleType="text/css" data-diagram-type="SEQUENCE" height="343px" preserveAspectRatio="none" style="width:909px;height:343px;background:#FFFFFF;" version="1.1" viewBox="0 0 909 343" width="909px" zoomAndPan="magnify"><defs/><g><g><title>..boundary..</title><rect fill="#FFFFFF" height="203.9297" style="stroke:#181818;stroke-width:1;" width="10" x="287.4385" y="114.7266"/></g><g><title>..control..</title><rect fill="#FFFFFF" height="145.6641" style="stroke:#181818;stroke-width:1;" width="10" x="470.4609" y="143.8594"/></g><g><title>..entity..</title><rect fill="#FFFFFF" height="87.3984" style="stroke:#181818;stroke-width:1;" width="10" x="651.2036" y="172.9922"/></g><g><title>..database..</title><rect fill="#FFFFFF" height="29.1328" style="stroke:#181818;stroke-width:1;" width="10" x="859.1123" y="202.125"/></g><g class="participant-lifeline" data-entity-uid="part1" data-qualified-name="Investigador" id="part1-lifeline"><g><title>Investigador</title><rect fill="#000000" fill-opacity="0.00000" height="253.0625" width="8" x="47.6235" y="83.5938"/><line style="stroke:#181818;stroke-width:0.5;stroke-dasharray:5,5;" x1="51" x2="51" y1="83.5938" y2="336.6563"/></g></g><g class="participant-lifeline" data-entity-uid="part2" data-qualified-name="ListarConvocatoriasView" id="part2-lifeline"><g><title>..boundary..</title><rect fill="#000000" fill-opacity="0.00000" height="253.0625" width="8" x="288.4385" y="83.5938"/><line style="stroke:#181818;stroke-width:0.5;stroke-dasharray:5,5;" x1="292.3125" x2="292.3125" y1="83.5938" y2="336.6563"/></g></g><g class="participant-lifeline" data-entity-uid="part3" data-qualified-name="ConvocatoriaController" id="part3-lifeline"><g><title>..control..</title><rect fill="#000000" fill-opacity="0.00000" height="253.0625" width="8" x="471.4609" y="83.5938"/><line style="stroke:#181818;stroke-width:0.5;stroke-dasharray:5,5;" x1="474.5645" x2="474.5645" y1="83.5938" y2="336.6563"/></g></g><g class="participant-lifeline" data-entity-uid="part4" data-qualified-name="ConvocatoriaRepository" id="part4-lifeline"><g><title>..entity..</title><rect fill="#000000" fill-opacity="0.00000" height="253.0625" width="8" x="652.2036" y="83.5938"/><line style="stroke:#181818;stroke-width:0.5;stroke-dasharray:5,5;" x1="655.3574" x2="655.3574" y1="83.5938" y2="336.6563"/></g></g><g class="participant-lifeline" data-entity-uid="part5" data-qualified-name="Database" id="part5-lifeline"><g><title>..database..</title><rect fill="#000000" fill-opacity="0.00000" height="253.0625" width="8" x="860.1123" y="83.5938"/><line style="stroke:#181818;stroke-width:0.5;stroke-dasharray:5,5;" x1="864.0181" x2="864.0181" y1="83.5938" y2="336.6563"/></g></g><g class="participant participant-head" data-entity-uid="part1" data-qualified-name="Investigador" id="part1-head"><text fill="#000000" font-family="sans-serif" font-size="14" lengthAdjust="spacing" textLength="87.2471" x="5" y="80.292">Investigador</text><ellipse cx="51.6235" cy="15.7969" fill="#E2E2F0" rx="8" ry="8" style="stroke:#181818;stroke-width:0.5;"/><path d="M51.6235,23.7969 L51.6235,50.7969 M38.6235,31.7969 L64.6235,31.7969 M51.6235,50.7969 L38.6235,65.7969 M51.6235,50.7969 L64.6235,65.7969" fill="none" style="stroke:#181818;stroke-width:0.5;"/></g><g class="participant participant-head" data-entity-uid="part2" data-qualified-name="ListarConvocatoriasView" id="part2-head"><text fill="#000000" font-family="sans-serif" font-size="14" font-style="italic" lengthAdjust="spacing" textLength="83.9863" x="247.4453" y="63.9951">&#171;boundary&#187;</text><text fill="#000000" font-family="sans-serif" font-size="14" lengthAdjust="spacing" textLength="172.252" x="203.3125" y="80.292">ListarConvocatoriasView</text><path d="M271.9385,23 L271.9385,47 M271.9385,35 L288.9385,35" fill="none" style="stroke:#181818;stroke-width:0.5;"/><ellipse cx="300.9385" cy="35" fill="#E2E2F0" rx="12" ry="12" style="stroke:#181818;stroke-width:0.5;"/></g><g class="participant participant-head" data-entity-uid="part3" data-qualified-name="ConvocatoriaController" id="part3-head"><text fill="#000000" font-family="sans-serif" font-size="14" font-style="italic" lengthAdjust="spacing" textLength="66.1172" x="439.4023" y="63.9951">&#171;control&#187;</text><text fill="#000000" font-family="sans-serif" font-size="14" lengthAdjust="spacing" textLength="161.793" x="391.5645" y="80.292">ConvocatoriaController</text><ellipse cx="475.4609" cy="35" fill="#E2E2F0" rx="12" ry="12" style="stroke:#181818;stroke-width:0.5;"/><polygon fill="#181818" points="471.4609,23,477.4609,18,475.4609,23,477.4609,28,471.4609,23" style="stroke:#181818;stroke-width:1;"/></g><g class="participant participant-head" data-entity-uid="part4" data-qualified-name="ConvocatoriaRepository" id="part4-head"><text fill="#000000" font-family="sans-serif" font-size="14" font-style="italic" lengthAdjust="spacing" textLength="57.9209" x="624.2432" y="63.9951">&#171;entity&#187;</text><text fill="#000000" font-family="sans-serif" font-size="14" lengthAdjust="spacing" textLength="167.6924" x="569.3574" y="80.292">ConvocatoriaRepository</text><ellipse cx="656.2036" cy="35" fill="#E2E2F0" rx="12" ry="12" style="stroke:#181818;stroke-width:0.5;"/><line style="stroke:#181818;stroke-width:0.5;" x1="644.2036" x2="668.2036" y1="49" y2="49"/></g><g class="participant participant-head" data-entity-uid="part5" data-qualified-name="Database" id="part5-head"><text fill="#000000" font-family="sans-serif" font-size="14" font-style="italic" lengthAdjust="spacing" textLength="82.1885" x="820.0181" y="63.9951">&#171;database&#187;</text><text fill="#000000" font-family="sans-serif" font-size="14" lengthAdjust="spacing" textLength="66.8008" x="827.7119" y="80.292">Database</text><path d="M846.1123,15 C846.1123,5 864.1123,5 864.1123,5 C864.1123,5 882.1123,5 882.1123,15 L882.1123,41 C882.1123,51 864.1123,51 864.1123,51 C864.1123,51 846.1123,51 846.1123,41 L846.1123,15" fill="#E2E2F0" style="stroke:#181818;stroke-width:0.5;"/><path d="M846.1123,15 C846.1123,25 864.1123,25 864.1123,25 C864.1123,25 882.1123,25 882.1123,15" fill="none" style="stroke:#181818;stroke-width:0.5;"/></g><g><title>..boundary..</title><rect fill="#FFFFFF" height="203.9297" style="stroke:#181818;stroke-width:1;" width="10" x="287.4385" y="114.7266"/></g><g><title>..control..</title><rect fill="#FFFFFF" height="145.6641" style="stroke:#181818;stroke-width:1;" width="10" x="470.4609" y="143.8594"/></g><g><title>..entity..</title><rect fill="#FFFFFF" height="87.3984" style="stroke:#181818;stroke-width:1;" width="10" x="651.2036" y="172.9922"/></g><g><title>..database..</title><rect fill="#FFFFFF" height="29.1328" style="stroke:#181818;stroke-width:1;" width="10" x="859.1123" y="202.125"/></g><g class="message" data-entity-1="part1" data-entity-2="part2" id="msg1"><polygon fill="#181818" points="275.4385,110.7266,285.4385,114.7266,275.4385,118.7266" style="stroke:#181818;stroke-width:1;"/><line style="stroke:#181818;stroke-width:1;" x1="51.6235" x2="281.4385" y1="114.7266" y2="114.7266"/><text fill="#000000" font-family="sans-serif" font-size="13" lengthAdjust="spacing" textLength="133.4404" x="58.6235" y="109.6606">abrirConvocatorias()</text></g><g class="message" data-entity-1="part2" data-entity-2="part3" id="msg2"><polygon fill="#181818" points="458.4609,139.8594,468.4609,143.8594,458.4609,147.8594" style="stroke:#181818;stroke-width:1;"/><line style="stroke:#181818;stroke-width:1;" x1="297.4385" x2="464.4609" y1="143.8594" y2="143.8594"/><text fill="#000000" font-family="sans-serif" font-size="13" lengthAdjust="spacing" textLength="135.3257" x="304.4385" y="138.7935">listarConvocatorias()</text></g><g class="message" data-entity-1="part3" data-entity-2="part4" id="msg3"><polygon fill="#181818" points="639.2036,168.9922,649.2036,172.9922,639.2036,176.9922" style="stroke:#181818;stroke-width:1;"/><line style="stroke:#181818;stroke-width:1;" x1="480.4609" x2="645.2036" y1="172.9922" y2="172.9922"/><text fill="#000000" font-family="sans-serif" font-size="13" lengthAdjust="spacing" textLength="99.9121" x="487.4609" y="167.9263">obtenerTodas()</text></g><g class="message" data-entity-1="part4" data-entity-2="part5" id="msg4"><polygon fill="#181818" points="847.1123,198.125,857.1123,202.125,847.1123,206.125" style="stroke:#181818;stroke-width:1;"/><line style="stroke:#181818;stroke-width:1;" x1="661.2036" x2="853.1123" y1="202.125" y2="202.125"/><text fill="#000000" font-family="sans-serif" font-size="13" lengthAdjust="spacing" textLength="178.9087" x="668.2036" y="197.0591">select * from convocatorias</text></g><g class="message" data-entity-1="part5" data-entity-2="part4" id="msg5"><polygon fill="#181818" points="672.2036,227.2578,662.2036,231.2578,672.2036,235.2578" style="stroke:#181818;stroke-width:1;"/><line style="stroke:#181818;stroke-width:1;stroke-dasharray:2,2;" x1="666.2036" x2="863.1123" y1="231.2578" y2="231.2578"/><text fill="#000000" font-family="sans-serif" font-size="13" lengthAdjust="spacing" textLength="119.8374" x="678.2036" y="226.1919">listaConvocatorias</text></g><g class="message" data-entity-1="part4" data-entity-2="part3" id="msg6"><polygon fill="#181818" points="491.4609,256.3906,481.4609,260.3906,491.4609,264.3906" style="stroke:#181818;stroke-width:1;"/><line style="stroke:#181818;stroke-width:1;stroke-dasharray:2,2;" x1="485.4609" x2="655.2036" y1="260.3906" y2="260.3906"/><text fill="#000000" font-family="sans-serif" font-size="13" lengthAdjust="spacing" textLength="119.8374" x="497.4609" y="255.3247">listaConvocatorias</text></g><g class="message" data-entity-1="part3" data-entity-2="part2" id="msg7"><polygon fill="#181818" points="308.4385,285.5234,298.4385,289.5234,308.4385,293.5234" style="stroke:#181818;stroke-width:1;"/><line style="stroke:#181818;stroke-width:1;stroke-dasharray:2,2;" x1="302.4385" x2="474.4609" y1="289.5234" y2="289.5234"/><text fill="#000000" font-family="sans-serif" font-size="13" lengthAdjust="spacing" textLength="119.8374" x="314.4385" y="284.4575">listaConvocatorias</text></g><g class="message" data-entity-1="part2" data-entity-2="part1" id="msg8"><polygon fill="#181818" points="62.6235,314.6563,52.6235,318.6563,62.6235,322.6563" style="stroke:#181818;stroke-width:1;"/><line style="stroke:#181818;stroke-width:1;stroke-dasharray:2,2;" x1="56.6235" x2="291.4385" y1="318.6563" y2="318.6563"/><text fill="#000000" font-family="sans-serif" font-size="13" lengthAdjust="spacing" textLength="211.8149" x="68.6235" y="313.5903">mostrarLista(listaConvocatorias)</text></g><?plantuml-src ZLFDJiCm3BxdANpSaFO2LTNBk21nGcXtDpKeeeqdnolgssCskgMCZ5sgAFv-x2zk-WXnZu8399rwigy4huUXT-YL1PxYI4d3EtOihkL3x50cU0v9KROSH_Pei81f5-WJwdg6D8tp75MuXnosFTtr98Rz0HYKeWQT5iWNsdCATfmCUQeRi4F55XF1utoew_dEoYvl5pPDiT4Ai9MmBApMtpE74PLAF5VICwl2c1NqrvpSwc-UAyZzCifIge1RfKZoobtPuK9m1HrpE8TRGQAUlC83l0aFuFCXBWOptfs9crjz7WDPvE4wkXOhzVTlraNfEuB8exwvF_SxPOzQN1-pMgnk1GFRhuXoPAokpTQvMq7s2m00?></g></svg>