<?plantuml 1.2026.2?><svg xmlns="http://www.w3.org/2000/svg" xmlns:xlink="http://www.w3.org/1999/xlink" contentStyleType="text/css" data-diagram-type="DESCRIPTION" height="313px" preserveAspectRatio="none" style="width:928px;height:313px;background:#FFFFFF;" version="1.1" viewBox="0 0 928 313" width="928px" zoomAndPan="magnify"><defs/><g><!--cluster editarPublicacion--><g class="cluster" data-qualified-name="editarPublicacion" data-source-line="9" id="ent0003"><path d="M8.5,6 L138.4414,6 A3.75,3.75 0 0 1 140.9414,8.5 L147.9414,25.9688 L556.5,25.9688 A2.5,2.5 0 0 1 559,28.4688 L559,303.5 A2.5,2.5 0 0 1 556.5,306 L8.5,306 A2.5,2.5 0 0 1 6,303.5 L6,8.5 A2.5,2.5 0 0 1 8.5,6" fill="none" style="stroke:#000000;stroke-width:1.5;"/><line style="stroke:#000000;stroke-width:1.5;" x1="6" x2="147.9414" y1="25.9688" y2="25.9688"/><text fill="#000000" font-family="sans-serif" font-size="12" font-weight="bold" lengthAdjust="spacing" textLength="128.9414" x="10" y="19.1387">editarPublicacion()</text></g><!--entity EditarPublicacionView--><g class="entity" data-qualified-name="editarPublicacion.EditarPublicacionView" data-source-line="10" id="ent0004"><rect fill="#629EF9" height="33.9688" rx="2.5" ry="2.5" style="stroke:#181818;stroke-width:0.5;" width="152.2227" x="391" y="38"/><text fill="#000000" font-family="sans-serif" font-size="12" lengthAdjust="spacing" textLength="132.2227" x="401" y="59.1387">EditarPublicacionView</text></g><!--entity PublicacionController--><g class="entity" data-qualified-name="editarPublicacion.PublicacionController" data-source-line="11" id="ent0005"><rect fill="#B5BD68" height="33.9688" rx="2.5" ry="2.5" style="stroke:#181818;stroke-width:0.5;" width="147.248" x="90.5" y="147"/><text fill="#000000" font-family="sans-serif" font-size="12" lengthAdjust="spacing" textLength="127.248" x="100.5" y="168.1387">PublicacionController</text></g><!--entity PublicacionRepository--><g class="entity" data-qualified-name="editarPublicacion.PublicacionRepository" data-source-line="12" id="ent0006"><rect fill="#F2AC4E" height="33.9688" rx="2.5" ry="2.5" style="stroke:#181818;stroke-width:0.5;" width="152.3047" x="145" y="256"/><text fill="#000000" font-family="sans-serif" font-size="12" lengthAdjust="spacing" textLength="132.3047" x="155" y="277.1387">PublicacionRepository</text></g><!--entity MiPublicacionAbierta--><g class="entity" data-qualified-name="MiPublicacionAbierta" data-source-line="7" id="ent0002"><rect fill="#CDEBA5" height="33.9688" rx="2.5" ry="2.5" style="stroke:#181818;stroke-width:0.5;" width="178.7363" x="585.5" y="147"/><text fill="#000000" font-family="sans-serif" font-size="12" lengthAdjust="spacing" textLength="158.7363" x="595.5" y="168.1387">MI_PUBLICACION_ABIERTA</text></g><!--link MiPublicacionAbierta to EditarPublicacionView--><g class="link" data-entity-1="ent0002" data-entity-2="ent0004" data-link-type="dependency" data-source-line="15" id="lnk7"><path d="M620.09,146.91 C574.81,133.65 518,117 518,117 C518,117 499.3589,94.7028 484.2489,76.6328" fill="none" id="MiPublicacionAbierta-to-EditarPublicacionView" style="stroke:#181818;stroke-width:1;"/><polygon fill="#181818" points="480.4,72.03,483.1047,81.5002,483.6074,75.8657,489.2419,76.3684,480.4,72.03" style="stroke:#181818;stroke-width:1;"/><text fill="#000000" font-family="sans-serif" font-size="12" lengthAdjust="spacing" textLength="112.6465" x="519" y="114.1387">editarPublicacion()</text></g><!--link EditarPublicacionView to MiPublicacionAbierta--><g class="link" data-entity-1="ent0004" data-entity-2="ent0002" data-link-type="dependency" data-source-line="23" id="lnk12"><path d="M526.11,72.09 C574.84,85.35 636,102 636,102 C636,102 649.9686,123.8445 661.5186,141.9145" fill="none" id="EditarPublicacionView-to-MiPublicacionAbierta" style="stroke:#181818;stroke-width:1;stroke-dasharray:7,7;"/><polygon fill="#181818" points="664.75,146.97,663.2733,137.2325,662.0572,142.7571,656.5326,141.541,664.75,146.97" style="stroke:#181818;stroke-width:1;"/><text fill="#000000" font-family="sans-serif" font-size="12" lengthAdjust="spacing" textLength="133.6465" x="647" y="114.1387">&#171;finalizar&#187; confirmar()</text></g><!--link EditarPublicacionView to MiPublicacionAbierta--><g class="link" data-entity-1="ent0004" data-entity-2="ent0002" data-link-type="dependency" data-source-line="24" id="lnk13"><path d="M543.31,66.9 C638.53,80.5 789,102 789,102 C789,102 789,117 789,117 C789,117 753.3145,131.4059 720.4345,144.6659" fill="none" id="EditarPublicacionView-to-MiPublicacionAbierta-1" style="stroke:#181818;stroke-width:1;stroke-dasharray:7,7;"/><polygon fill="#181818" points="714.87,146.91,724.7129,147.2536,719.5071,145.0399,721.7207,139.8342,714.87,146.91" style="stroke:#181818;stroke-width:1;"/><text fill="#000000" font-family="sans-serif" font-size="12" lengthAdjust="spacing" textLength="130.1777" x="790" y="114.1387">&#171;cancelar&#187; cancelar()</text></g><!--link EditarPublicacionView to PublicacionController--><g class="link" data-entity-1="ent0004" data-entity-2="ent0005" data-link-type="dependency" data-source-line="17" id="lnk8"><path d="M390.77,64.49 C271.43,77.78 54,102 54,102 C54,102 54,117 54,117 C54,117 88.2742,131.3359 119.9942,144.5959" fill="none" id="EditarPublicacionView-to-PublicacionController" style="stroke:#181818;stroke-width:1;"/><polygon fill="#181818" points="125.53,146.91,118.7691,139.7483,120.9169,144.9816,115.6836,147.1293,125.53,146.91" style="stroke:#181818;stroke-width:1;"/><text fill="#000000" font-family="sans-serif" font-size="12" lengthAdjust="spacing" textLength="134.4844" x="55" y="114.1387">cargarDatosActuales()</text></g><!--link EditarPublicacionView to PublicacionController--><g class="link" data-entity-1="ent0004" data-entity-2="ent0005" data-link-type="dependency" data-source-line="20" id="lnk10"><path d="M391.41,72.02 C328.78,85.3 250,102 250,102 C250,102 216.9742,125.4291 191.4942,143.4991" fill="none" id="EditarPublicacionView-to-PublicacionController-1" style="stroke:#181818;stroke-width:1;"/><polygon fill="#181818" points="186.6,146.97,196.2552,145.0265,190.6785,144.0776,191.6274,138.5009,186.6,146.97" style="stroke:#181818;stroke-width:1;"/><text fill="#000000" font-family="sans-serif" font-size="12" lengthAdjust="spacing" textLength="246.3223" x="251" y="114.1387">guardarCambios(datosNuevos) : boolean</text></g><!--link PublicacionController to PublicacionRepository--><g class="link" data-entity-1="ent0005" data-entity-2="ent0006" data-link-type="dependency" data-source-line="18" id="lnk9"><path d="M125.53,181.09 C93.81,194.35 54,211 54,211 C54,211 54,226 54,226 C54,226 108.6453,241.0573 156.8053,254.3173" fill="none" id="PublicacionController-to-PublicacionRepository" style="stroke:#181818;stroke-width:1;"/><polygon fill="#181818" points="162.59,255.91,154.9747,249.6644,157.7694,254.5827,152.8511,257.3774,162.59,255.91" style="stroke:#181818;stroke-width:1;"/><text fill="#000000" font-family="sans-serif" font-size="12" lengthAdjust="spacing" textLength="246.123" x="55" y="223.1387">obtenerPorId(publicacionId) : Publicacion</text></g><!--link PublicacionController to PublicacionRepository--><g class="link" data-entity-1="ent0005" data-entity-2="ent0006" data-link-type="dependency" data-source-line="21" id="lnk11"><path d="M213.66,181.09 C254.61,194.35 306,211 306,211 C306,211 306,226 306,226 C306,226 280.5172,239.795 256.0072,253.055" fill="none" id="PublicacionController-to-PublicacionRepository-1" style="stroke:#181818;stroke-width:1;"/><polygon fill="#181818" points="250.73,255.91,260.5492,255.1457,255.1277,253.5308,256.7425,248.1094,250.73,255.91" style="stroke:#181818;stroke-width:1;"/><text fill="#000000" font-family="sans-serif" font-size="12" lengthAdjust="spacing" textLength="196.2188" x="307" y="223.1387">actualizar(publicacion) : boolean</text></g><?plantuml-src dP9VQzim5CNVzIakoKloaCB2MbPJ0exZW67jGlVdjLn9Dwwe8fahUI4T--vpah6OLDr3_2JxdFlpEHU55-CQPDo0HFLIis-TBhpr3Djd4qc4VtfuHkstnjMmHXlwoeBMsDguz2uUHwNjM6d3L_DAy67Q4wrn57SDGUFjRlyY19EAw6fBC2mMvJo_Xi5zzRJwFlzS5NbHVNbuokTL-VWj7m06k3UhLbgZK1dlScc88mhHT16m9XYGDX6vPncD3sDlliCl0Trp-lcWFBVyCBGz32SL6DvCRylbxJccPokw5R2tblY0IIembDTIttpw3-QH6XzCzBmxnvmK62wdUV6n5B-5IAq89ZoPfOjaa5YQ4EdI4zrXaaKoKCWryWAZ3xcABLeA7IZT-fnpQfA1bv4SySfpfKVDoLFfCMJzeKj2rYsoHYvm8uqF8xrF-z3IJn_sSEcz9NGNXCP3O_EAt8_SPxuJzkfgbhpK6TpThOqxCcSpKDwj3Myw_lW2aaAdo1v1Vu-ZyHy0?></g></svg>