<?plantuml 1.2026.2?><svg xmlns="http://www.w3.org/2000/svg" xmlns:xlink="http://www.w3.org/1999/xlink" contentStyleType="text/css" data-diagram-type="DESCRIPTION" height="313px" preserveAspectRatio="none" style="width:1037px;height:313px;background:#FFFFFF;" version="1.1" viewBox="0 0 1037 313" width="1037px" zoomAndPan="magnify"><defs/><g><!--cluster eliminarInvestigador--><g class="cluster" data-qualified-name="eliminarInvestigador" data-source-line="9" id="ent0003"><path d="M8.5,6 L161.4102,6 A3.75,3.75 0 0 1 163.9102,8.5 L170.9102,25.9688 L634.5,25.9688 A2.5,2.5 0 0 1 637,28.4688 L637,303.5 A2.5,2.5 0 0 1 634.5,306 L8.5,306 A2.5,2.5 0 0 1 6,303.5 L6,8.5 A2.5,2.5 0 0 1 8.5,6" fill="none" style="stroke:#000000;stroke-width:1.5;"/><line style="stroke:#000000;stroke-width:1.5;" x1="6" x2="170.9102" y1="25.9688" y2="25.9688"/><text fill="#000000" font-family="sans-serif" font-size="12" font-weight="bold" lengthAdjust="spacing" textLength="151.9102" x="10" y="19.1387">eliminarInvestigador()</text></g><!--entity EliminarInvestigadorView--><g class="entity" data-qualified-name="eliminarInvestigador.EliminarInvestigadorView" data-source-line="10" id="ent0004"><rect fill="#629EF9" height="33.9688" rx="2.5" ry="2.5" style="stroke:#181818;stroke-width:0.5;" width="172.6895" x="447.5" y="38"/><text fill="#000000" font-family="sans-serif" font-size="12" lengthAdjust="spacing" textLength="152.6895" x="457.5" y="59.1387">EliminarInvestigadorView</text></g><!--entity ProyectoController--><g class="entity" data-qualified-name="eliminarInvestigador.ProyectoController" data-source-line="11" id="ent0005"><rect fill="#B5BD68" height="33.9688" rx="2.5" ry="2.5" style="stroke:#181818;stroke-width:0.5;" width="131.9316" x="131" y="147"/><text fill="#000000" font-family="sans-serif" font-size="12" lengthAdjust="spacing" textLength="111.9316" x="141" y="168.1387">ProyectoController</text></g><!--entity ProyectoRepository--><g class="entity" data-qualified-name="eliminarInvestigador.ProyectoRepository" data-source-line="12" id="ent0006"><rect fill="#F2AC4E" height="33.9688" rx="2.5" ry="2.5" style="stroke:#181818;stroke-width:0.5;" width="136.9883" x="128.5" y="256"/><text fill="#000000" font-family="sans-serif" font-size="12" lengthAdjust="spacing" textLength="116.9883" x="138.5" y="277.1387">ProyectoRepository</text></g><!--entity ProyectoAbierto--><g class="entity" data-qualified-name="ProyectoAbierto" data-source-line="7" id="ent0002"><rect fill="#CDEBA5" height="33.9688" rx="2.5" ry="2.5" style="stroke:#181818;stroke-width:0.5;" width="143.7617" x="849" y="147"/><text fill="#000000" font-family="sans-serif" font-size="12" lengthAdjust="spacing" textLength="123.7617" x="859" y="168.1387">PROYECTO_ABIERTO</text></g><!--link ProyectoAbierto to EliminarInvestigadorView--><g class="link" data-entity-1="ent0002" data-entity-2="ent0004" data-link-type="dependency" data-source-line="15" id="lnk7"><path d="M848.79,150.37 C770.93,136.75 658,117 658,117 C658,117 608.704,92.7481 571.964,74.6781" fill="none" id="ProyectoAbierto-to-EliminarInvestigadorView" style="stroke:#181818;stroke-width:1;"/><polygon fill="#181818" points="566.58,72.03,572.8907,79.5914,571.0667,74.2367,576.4214,72.4127,566.58,72.03" style="stroke:#181818;stroke-width:1;"/><text fill="#000000" font-family="sans-serif" font-size="12" lengthAdjust="spacing" textLength="218.8477" x="659" y="114.1387">eliminarInvestigador(investigadorId)</text></g><!--link EliminarInvestigadorView to ProyectoAbierto--><g class="link" data-entity-1="ent0004" data-entity-2="ent0002" data-link-type="dependency" data-source-line="22" id="lnk11"><path d="M620.92,67.49 C723.99,81.11 882,102 882,102 C882,102 895.9686,123.8445 907.5186,141.9145" fill="none" id="EliminarInvestigadorView-to-ProyectoAbierto" style="stroke:#181818;stroke-width:1;stroke-dasharray:7,7;"/><polygon fill="#181818" points="910.75,146.97,909.2733,137.2325,908.0572,142.7571,902.5326,141.541,910.75,146.97" style="stroke:#181818;stroke-width:1;"/><text fill="#000000" font-family="sans-serif" font-size="12" lengthAdjust="spacing" textLength="62.4551" x="892" y="114.1387">&#171;finalizar&#187;</text></g><!--link EliminarInvestigadorView to ProyectoAbierto--><g class="link" data-entity-1="ent0004" data-entity-2="ent0002" data-link-type="dependency" data-source-line="23" id="lnk12"><path d="M620.56,65.28 C745.87,78.72 963,102 963,102 C963,102 963,117 963,117 C963,117 951.8462,129.2196 939.7362,142.4796" fill="none" id="EliminarInvestigadorView-to-ProyectoAbierto-1" style="stroke:#181818;stroke-width:1;stroke-dasharray:7,7;"/><polygon fill="#181818" points="935.69,146.91,944.7129,142.9618,939.0618,143.218,938.8057,137.5669,935.69,146.91" style="stroke:#181818;stroke-width:1;"/><text fill="#000000" font-family="sans-serif" font-size="12" lengthAdjust="spacing" textLength="65.8418" x="964" y="114.1387">&#171;cancelar&#187;</text></g><!--link EliminarInvestigadorView to ProyectoController--><g class="link" data-entity-1="ent0004" data-entity-2="ent0005" data-link-type="dependency" data-source-line="17" id="lnk8"><path d="M447.35,64.3 C309.09,77.55 54,102 54,102 C54,102 54,117 54,117 C54,117 100.038,131.8134 141.278,145.0734" fill="none" id="EliminarInvestigadorView-to-ProyectoController" style="stroke:#181818;stroke-width:1;"/><polygon fill="#181818" points="146.99,146.91,139.6464,140.3471,142.23,145.3795,137.1976,147.9631,146.99,146.91" style="stroke:#181818;stroke-width:1;"/><text fill="#000000" font-family="sans-serif" font-size="12" lengthAdjust="spacing" textLength="205.4004" x="55" y="114.1387">solicitarConfirmacionEliminacion()</text></g><!--link EliminarInvestigadorView to ProyectoController--><g class="link" data-entity-1="ent0004" data-entity-2="ent0005" data-link-type="dependency" data-source-line="19" id="lnk9"><path d="M452.83,72.02 C385.59,85.3 301,102 301,102 C301,102 260.316,125.8653 229.496,143.9353" fill="none" id="EliminarInvestigadorView-to-ProyectoController-1" style="stroke:#181818;stroke-width:1;"/><polygon fill="#181818" points="224.32,146.97,234.1071,145.8686,228.6333,144.4411,230.0608,138.9673,224.32,146.97" style="stroke:#181818;stroke-width:1;"/><text fill="#000000" font-family="sans-serif" font-size="12" lengthAdjust="spacing" textLength="315.6035" x="302" y="114.1387">confirmarDesvinculacion(proyectoId, investigadorId)</text></g><!--link ProyectoController to ProyectoRepository--><g class="link" data-entity-1="ent0005" data-entity-2="ent0006" data-link-type="dependency" data-source-line="20" id="lnk10"><path d="M197,181.25 C197,201.48 197,229.81 197,249.95" fill="none" id="ProyectoController-to-ProyectoRepository" style="stroke:#181818;stroke-width:1;"/><polygon fill="#181818" points="197,255.95,201,246.95,197,250.95,193,246.95,197,255.95" style="stroke:#181818;stroke-width:1;"/><text fill="#000000" font-family="sans-serif" font-size="12" lengthAdjust="spacing" textLength="279.8379" x="198" y="223.1387">eliminarAsociacion(proyectoId, investigadorId)</text></g><?plantuml-src dP9VQy8m5CNVyoakzaLX2fCfKqIejKAV53S6UnffcjQBCIb9L7Jiko_-sQgkPMnzIkwvzvTp3pLBb3dLT0KnPSjCgxLC0YMKXkq2BIVcMpSBcgWjoWnIAiobCkOfNGixKTAUHcFXMEKDJxZdSD--40LARdSvXro9tU52YERCKfa93bum3aT-1sgp-VGr39wdR_ue2kVFqnfG0pEjTgvL-J5oRHKXkNkNPXngNE0A9TMHt71ZCNFMTRrn72gJu9s0-uftQs59rmloxH5H9OBNRVV2IUyMzkKpS05e9GJNL_QBCdXn9qwwZrM0ES-LGQlqxWfGbC6RjFtW8IGVXDoa0qtT75PQxvVcKiUBIvGq2AbSlPau-i-D-c2KG8QMQbTCKQyeGoNFcCEn_YygEyFqc9iDIhOM9rX-xesIExWrNvBt5R-8iKZ3DuhXx-Zg3LgjuUr_seV187ND0lTK3uT_dcLKCYuEevy0?></g></svg>