<?plantuml 1.2026.2?><svg xmlns="http://www.w3.org/2000/svg" xmlns:xlink="http://www.w3.org/1999/xlink" contentStyleType="text/css" data-diagram-type="DESCRIPTION" height="503px" preserveAspectRatio="none" style="width:2174px;height:503px;background:#FFFFFF;" version="1.1" viewBox="0 0 2174 503" width="2174px" zoomAndPan="magnify"><defs/><g><!--cluster abrirProyecto--><g class="cluster" data-qualified-name="abrirProyecto" data-source-line="10" id="ent0004"><path d="M184,6 L288.6172,6 A3.75,3.75 0 0 1 291.1172,8.5 L298.1172,25.9688 L528,25.9688 A2.5,2.5 0 0 1 530.5,28.4688 L530.5,493.5 A2.5,2.5 0 0 1 528,496 L184,496 A2.5,2.5 0 0 1 181.5,493.5 L181.5,8.5 A2.5,2.5 0 0 1 184,6" fill="none" style="stroke:#000000;stroke-width:1.5;"/><line style="stroke:#000000;stroke-width:1.5;" x1="181.5" x2="298.1172" y1="25.9688" y2="25.9688"/><text fill="#000000" font-family="sans-serif" font-size="12" font-weight="bold" lengthAdjust="spacing" textLength="103.6172" x="185.5" y="19.1387">abrirProyecto()</text></g><!--entity DetalleProyectoView--><g class="entity" data-qualified-name="abrirProyecto.DetalleProyectoView" data-source-line="11" id="ent0005"><rect fill="#629EF9" height="33.9688" rx="2.5" ry="2.5" style="stroke:#181818;stroke-width:0.5;" width="144.1133" x="370.5" y="38"/><text fill="#000000" font-family="sans-serif" font-size="12" lengthAdjust="spacing" textLength="124.1133" x="380.5" y="59.1387">DetalleProyectoView</text></g><!--entity ProyectoController--><g class="entity" data-qualified-name="abrirProyecto.ProyectoController" data-source-line="12" id="ent0006"><rect fill="#B5BD68" height="33.9688" rx="2.5" ry="2.5" style="stroke:#181818;stroke-width:0.5;" width="131.9316" x="198.5" y="147"/><text fill="#000000" font-family="sans-serif" font-size="12" lengthAdjust="spacing" textLength="111.9316" x="208.5" y="168.1387">ProyectoController</text></g><!--entity ProyectoRepository--><g class="entity" data-qualified-name="abrirProyecto.ProyectoRepository" data-source-line="13" id="ent0007"><rect fill="#F2AC4E" height="33.9688" rx="2.5" ry="2.5" style="stroke:#181818;stroke-width:0.5;" width="136.9883" x="198" y="256"/><text fill="#000000" font-family="sans-serif" font-size="12" lengthAdjust="spacing" textLength="116.9883" x="208" y="277.1387">ProyectoRepository</text></g><!--entity Proyecto--><g class="entity" data-qualified-name="abrirProyecto.Proyecto" data-source-line="14" id="ent0008"><rect fill="#F2AC4E" height="33.9688" rx="2.5" ry="2.5" style="stroke:#181818;stroke-width:0.5;" width="72.6406" x="230" y="351"/><text fill="#000000" font-family="sans-serif" font-size="12" lengthAdjust="spacing" textLength="52.6406" x="240" y="372.1387">Proyecto</text></g><!--entity Investigador--><g class="entity" data-qualified-name="abrirProyecto.Investigador" data-source-line="15" id="ent0009"><rect fill="#F2AC4E" height="33.9688" rx="2.5" ry="2.5" style="stroke:#181818;stroke-width:0.5;" width="94.7832" x="219" y="446"/><text fill="#000000" font-family="sans-serif" font-size="12" lengthAdjust="spacing" textLength="74.7832" x="229" y="467.1387">Investigador</text></g><!--entity ProyectosAbiertos--><g class="entity" data-qualified-name="ProyectosAbiertos" data-source-line="7" id="ent0002"><rect fill="#CDEBA5" height="33.9688" rx="2.5" ry="2.5" style="stroke:#181818;stroke-width:0.5;" width="158.9961" x="7" y="38"/><text fill="#000000" font-family="sans-serif" font-size="12" lengthAdjust="spacing" textLength="138.9961" x="17" y="59.1387">PROYECTOS_ABIERTOS</text></g><!--entity ProyectoAbierto--><g class="entity" data-qualified-name="ProyectoAbierto" data-source-line="8" id="ent0003"><rect fill="#CDEBA5" height="33.9688" rx="2.5" ry="2.5" style="stroke:#181818;stroke-width:0.5;" width="143.7617" x="546.5" y="147"/><text fill="#000000" font-family="sans-serif" font-size="12" lengthAdjust="spacing" textLength="123.7617" x="556.5" y="168.1387">PROYECTO_ABIERTO</text></g><!--entity EditarProyecto--><g class="entity" data-qualified-name="EditarProyecto" data-source-line="18" id="ent0010"><rect fill="#CDEBA5" height="33.9688" rx="2.5" ry="2.5" style="stroke:#181818;stroke-width:0.5;" width="195.998" x="725.5" y="147"/><text fill="#000000" font-family="sans-serif" font-size="12" lengthAdjust="spacing" textLength="175.998" x="735.5" y="168.1387">:Collaboration EditarProyecto</text></g><!--entity EliminarProyecto--><g class="entity" data-qualified-name="EliminarProyecto" data-source-line="19" id="ent0011"><rect fill="#CDEBA5" height="33.9688" rx="2.5" ry="2.5" style="stroke:#181818;stroke-width:0.5;" width="209.6387" x="956.5" y="147"/><text fill="#000000" font-family="sans-serif" font-size="12" lengthAdjust="spacing" textLength="189.6387" x="966.5" y="168.1387">:Collaboration EliminarProyecto</text></g><!--entity AbrirEntregables--><g class="entity" data-qualified-name="AbrirEntregables" data-source-line="20" id="ent0012"><rect fill="#CDEBA5" height="33.9688" rx="2.5" ry="2.5" style="stroke:#181818;stroke-width:0.5;" width="208.625" x="1202" y="147"/><text fill="#000000" font-family="sans-serif" font-size="12" lengthAdjust="spacing" textLength="188.625" x="1212" y="168.1387">:Collaboration AbrirEntregables</text></g><!--entity AgregarInvestigador--><g class="entity" data-qualified-name="AgregarInvestigador" data-source-line="21" id="ent0013"><rect fill="#CDEBA5" height="33.9688" rx="2.5" ry="2.5" style="stroke:#181818;stroke-width:0.5;" width="230.6621" x="1446" y="147"/><text fill="#000000" font-family="sans-serif" font-size="12" lengthAdjust="spacing" textLength="210.6621" x="1456" y="168.1387">:Collaboration AgregarInvestigador</text></g><!--entity AbrirInvestigadores--><g class="entity" data-qualified-name="AbrirInvestigadores" data-source-line="22" id="ent0014"><rect fill="#CDEBA5" height="33.9688" rx="2.5" ry="2.5" style="stroke:#181818;stroke-width:0.5;" width="225.2773" x="1712" y="147"/><text fill="#000000" font-family="sans-serif" font-size="12" lengthAdjust="spacing" textLength="205.2773" x="1722" y="168.1387">:Collaboration AbrirInvestigadores</text></g><!--entity AbrirProyectos--><g class="entity" data-qualified-name="AbrirProyectos" data-source-line="23" id="ent0015"><rect fill="#CDEBA5" height="33.9688" rx="2.5" ry="2.5" style="stroke:#181818;stroke-width:0.5;" width="195.752" x="1972.5" y="147"/><text fill="#000000" font-family="sans-serif" font-size="12" lengthAdjust="spacing" textLength="175.752" x="1982.5" y="168.1387">:Collaboration AbrirProyectos</text></g><!--link ProyectosAbiertos to DetalleProyectoView--><g class="link" data-entity-1="ent0002" data-entity-2="ent0005" data-link-type="dependency" data-source-line="25" id="lnk16"><path d="M166.39,55 C227.59,55 305.28,55 364.43,55" fill="none" id="ProyectosAbiertos-to-DetalleProyectoView" style="stroke:#181818;stroke-width:1;"/><polygon fill="#181818" points="370.43,55,361.43,51,365.43,55,361.43,59,370.43,55" style="stroke:#181818;stroke-width:1;"/><text fill="#000000" font-family="sans-serif" font-size="12" lengthAdjust="spacing" textLength="154.3535" x="191.25" y="49.1387">abrirProyecto(proyectoId)</text></g><!--link DetalleProyectoView to ProyectoController--><g class="link" data-entity-1="ent0005" data-entity-2="ent0006" data-link-type="dependency" data-source-line="27" id="lnk17"><path d="M370.23,71.83 C309.48,85.14 232.5,102 232.5,102 C232.5,102 232.5,117 232.5,117 C232.5,117 240.6522,128.7256 249.8822,141.9856" fill="none" id="DetalleProyectoView-to-ProyectoController" style="stroke:#181818;stroke-width:1;"/><polygon fill="#181818" points="253.31,146.91,251.4513,137.2381,250.4535,142.8063,244.8853,141.8085,253.31,146.91" style="stroke:#181818;stroke-width:1;"/><text fill="#000000" font-family="sans-serif" font-size="12" lengthAdjust="spacing" textLength="280.1953" x="233.5" y="114.1387">obtenerDetalleProyecto(proyectoId) : Proyecto</text></g><!--link ProyectoController to ProyectoRepository--><g class="link" data-entity-1="ent0006" data-entity-2="ent0007" data-link-type="dependency" data-source-line="28" id="lnk18"><path d="M264.8,181.25 C265.18,201.48 265.7068,229.8111 266.0868,249.9511" fill="none" id="ProyectoController-to-ProyectoRepository" style="stroke:#181818;stroke-width:1;"/><polygon fill="#181818" points="266.2,255.95,270.0295,246.8761,266.1057,250.9509,262.0309,247.0271,266.2,255.95" style="stroke:#181818;stroke-width:1;"/><text fill="#000000" font-family="sans-serif" font-size="12" lengthAdjust="spacing" textLength="215.4902" x="266.5" y="223.1387">obtenerPorId(proyectoId) : Proyecto</text></g><!--link ProyectoRepository to Proyecto--><g class="link" data-entity-1="ent0007" data-entity-2="ent0008" data-link-type="association" data-source-line="29" id="lnk19"><path d="M266.5,290.2 C266.5,307.27 266.5,333.99 266.5,350.99" fill="none" id="ProyectoRepository-Proyecto" style="stroke:#181818;stroke-width:1;"/></g><!--link Proyecto to Investigador--><g class="link" data-entity-1="ent0008" data-entity-2="ent0009" data-link-type="association" data-source-line="30" id="lnk20"><path d="M266.5,385.2 C266.5,402.27 266.5,428.99 266.5,445.99" fill="none" id="Proyecto-Investigador" style="stroke:#181818;stroke-width:1;"/></g><!--link DetalleProyectoView to EditarProyecto--><g class="link" data-entity-1="ent0005" data-entity-2="ent0010" data-link-type="dependency" data-source-line="32" id="lnk21"><path d="M503.71,72.09 C554.17,85.35 617.5,102 617.5,102 C617.5,102 702.5868,127.1968 763.6268,145.2668" fill="none" id="DetalleProyectoView-to-EditarProyecto" style="stroke:#181818;stroke-width:1;stroke-dasharray:7,7;"/><polygon fill="#181818" points="769.38,146.97,761.8856,140.5798,764.5857,145.5507,759.6148,148.2507,769.38,146.97" style="stroke:#181818;stroke-width:1;"/><text fill="#000000" font-family="sans-serif" font-size="12" lengthAdjust="spacing" textLength="97.3301" x="667.5" y="114.1387">editarProyecto()</text></g><!--link DetalleProyectoView to EliminarProyecto--><g class="link" data-entity-1="ent0005" data-entity-2="ent0011" data-link-type="dependency" data-source-line="33" id="lnk22"><path d="M514.73,66.04 C612.12,79.57 773.5,102 773.5,102 C773.5,102 894.6302,127.657 979.9602,145.727" fill="none" id="DetalleProyectoView-to-EliminarProyecto" style="stroke:#181818;stroke-width:1;stroke-dasharray:7,7;"/><polygon fill="#181818" points="985.83,146.97,977.8539,141.1922,980.9385,145.9341,976.1966,149.0187,985.83,146.97" style="stroke:#181818;stroke-width:1;"/><text fill="#000000" font-family="sans-serif" font-size="12" lengthAdjust="spacing" textLength="110.9707" x="843.5" y="114.1387">eliminarProyecto()</text></g><!--link DetalleProyectoView to AbrirEntregables--><g class="link" data-entity-1="ent0005" data-entity-2="ent0012" data-link-type="dependency" data-source-line="34" id="lnk23"><path d="M514.53,62.37 C657.3,75 962.5,102 962.5,102 C962.5,102 1108.2921,127.8526 1210.2121,145.9226" fill="none" id="DetalleProyectoView-to-AbrirEntregables" style="stroke:#181818;stroke-width:1;stroke-dasharray:7,7;"/><polygon fill="#181818" points="1216.12,146.97,1207.9565,141.4603,1211.1968,146.0971,1206.5599,149.3374,1216.12,146.97" style="stroke:#181818;stroke-width:1;"/><text fill="#000000" font-family="sans-serif" font-size="12" lengthAdjust="spacing" textLength="109.3008" x="1046.5" y="114.1387">abrirEntregables()</text></g><!--link DetalleProyectoView to AgregarInvestigador--><g class="link" data-entity-1="ent0005" data-entity-2="ent0013" data-link-type="dependency" data-source-line="35" id="lnk24"><path d="M514.7,60.6 C697.56,72.25 1164.5,102 1164.5,102 C1164.5,102 1333.6396,127.9889 1451.2596,146.0589" fill="none" id="DetalleProyectoView-to-AgregarInvestigador" style="stroke:#181818;stroke-width:1;stroke-dasharray:7,7;"/><polygon fill="#181818" points="1457.19,146.97,1448.9018,141.6497,1452.248,146.2108,1447.687,149.557,1457.19,146.97" style="stroke:#181818;stroke-width:1;"/><text fill="#000000" font-family="sans-serif" font-size="12" lengthAdjust="spacing" textLength="131.3379" x="1260.5" y="114.1387">agregarInvestigador()</text></g><!--link DetalleProyectoView to AbrirInvestigadores--><g class="link" data-entity-1="ent0005" data-entity-2="ent0014" data-link-type="dependency" data-source-line="36" id="lnk25"><path d="M514.51,59.46 C737.3,70.16 1400.5,102 1400.5,102 C1400.5,102 1581.5411,128.0457 1707.1611,146.1157" fill="none" id="DetalleProyectoView-to-AbrirInvestigadores" style="stroke:#181818;stroke-width:1;stroke-dasharray:7,7;"/><polygon fill="#181818" points="1713.1,146.97,1704.7612,141.7293,1708.1509,146.2581,1703.6222,149.6478,1713.1,146.97" style="stroke:#181818;stroke-width:1;"/><text fill="#000000" font-family="sans-serif" font-size="12" lengthAdjust="spacing" textLength="125.9531" x="1503.5" y="114.1387">abrirInvestigadores()</text></g><!--link DetalleProyectoView to AbrirProyectos--><g class="link" data-entity-1="ent0005" data-entity-2="ent0015" data-link-type="dependency" data-source-line="37" id="lnk26"><path d="M514.56,58.77 C772.92,68.72 1637.5,102 1637.5,102 C1637.5,102 1838.5487,130.3229 1966.3087,148.3229" fill="none" id="DetalleProyectoView-to-AbrirProyectos" style="stroke:#181818;stroke-width:1;stroke-dasharray:7,7;"/><polygon fill="#181818" points="1972.25,149.16,1963.8961,143.9435,1967.2989,148.4624,1962.78,151.8653,1972.25,149.16" style="stroke:#181818;stroke-width:1;"/><text fill="#000000" font-family="sans-serif" font-size="12" lengthAdjust="spacing" textLength="96.4277" x="1742.5" y="114.1387">abrirProyectos()</text></g><!--link DetalleProyectoView to ProyectoAbierto--><g class="link" data-entity-1="ent0005" data-entity-2="ent0003" data-link-type="dependency" data-source-line="39" id="lnk27"><path d="M470.48,72.09 C493.55,85.35 522.5,102 522.5,102 C522.5,102 559.7652,125.6831 588.2152,143.7531" fill="none" id="DetalleProyectoView-to-ProyectoAbierto" style="stroke:#181818;stroke-width:1;stroke-dasharray:7,7;"/><polygon fill="#181818" points="593.28,146.97,587.8275,138.7682,589.0594,144.2893,583.5383,145.5212,593.28,146.97" style="stroke:#181818;stroke-width:1;"/><text fill="#000000" font-family="sans-serif" font-size="12" lengthAdjust="spacing" textLength="62.4551" x="546.5" y="114.1387">&#171;finalizar&#187;</text></g><?plantuml-src ZPH1R-8m48Nl_XKZkC0XbHQrrJQgaD8G94v5TBLIJokx6LAhhXqvRX5TxNzVXq8IEmc42ydpVC-3_ORYZSkSQleEZBwyPLfzo3HMGcdOlNA3fAZMYrUQgXsN6MofA9eh2zpI3s6MIfflb0dhrLtmnByGVimQYu9BDFiS8LTYNxuGel75K9a9X76yI1wY6nYjDu_FIVphyUbFzB1ADlPX1BI0jLPxMwoAY77KzliSUq8TyWWIajkUQOOmeanpVLgUJ0_LZWP_2TXFlTDeWOOAWQU2tnnt1wn3X_7jx2vPtlaMfvhO7f9M5j9EcxKCOtR3qjkVVGORp5N1ZT9xnw2MORoSHV5rqcVWO7t5A_c9XU6PpSHteqsXWlvrtcLeKo8eKveQhYGaAJTKExkxqX0FmT-vz5qySO1FLDvpOeyQCye45WSVNnpYavN5kdLA7VhGhffCip5N7-fM3KvjL4c4jCOA0XtCk-8SkgCnoOyFgtHAI5VyWzGQjLCTWc869MgFQHf2M86aOouSvphkbVDQwLLwoQyn9a7GNYv5v_8wV-FLrToBS0Zel4-c_Q2NMejwoXdOZ-hnUXhAERWTJiktnKlxkuayjk2Aboog07hvAi5UqljB3-7-VclFJV0lgkVp_m00?></g></svg>