<?plantuml 1.2026.2?><svg xmlns="http://www.w3.org/2000/svg" xmlns:xlink="http://www.w3.org/1999/xlink" contentStyleType="text/css" data-diagram-type="DESCRIPTION" height="313px" preserveAspectRatio="none" style="width:771px;height:313px;background:#FFFFFF;" version="1.1" viewBox="0 0 771 313" width="771px" zoomAndPan="magnify"><defs/><g><!--cluster solicitarEliminacionPerfil--><g class="cluster" data-qualified-name="solicitarEliminacionPerfil" data-source-line="10" id="ent0004"><path d="M8.5,6 L189.0547,6 A3.75,3.75 0 0 1 191.5547,8.5 L198.5547,25.9688 L389.5,25.9688 A2.5,2.5 0 0 1 392,28.4688 L392,303.5 A2.5,2.5 0 0 1 389.5,306 L8.5,306 A2.5,2.5 0 0 1 6,303.5 L6,8.5 A2.5,2.5 0 0 1 8.5,6" fill="none" style="stroke:#000000;stroke-width:1.5;"/><line style="stroke:#000000;stroke-width:1.5;" x1="6" x2="198.5547" y1="25.9688" y2="25.9688"/><text fill="#000000" font-family="sans-serif" font-size="12" font-weight="bold" lengthAdjust="spacing" textLength="179.5547" x="10" y="19.1387">solicitarEliminacionPerfil()</text></g><!--entity SolicitarEliminacionView--><g class="entity" data-qualified-name="solicitarEliminacionPerfil.SolicitarEliminacionView" data-source-line="11" id="ent0005"><rect fill="#629EF9" height="33.9688" rx="2.5" ry="2.5" style="stroke:#181818;stroke-width:0.5;" width="166.4023" x="210" y="38"/><text fill="#000000" font-family="sans-serif" font-size="12" lengthAdjust="spacing" textLength="146.4023" x="220" y="59.1387">SolicitarEliminacionView</text></g><!--entity PerfilController--><g class="entity" data-qualified-name="solicitarEliminacionPerfil.PerfilController" data-source-line="12" id="ent0006"><rect fill="#B5BD68" height="33.9688" rx="2.5" ry="2.5" style="stroke:#181818;stroke-width:0.5;" width="109.7363" x="32" y="147"/><text fill="#000000" font-family="sans-serif" font-size="12" lengthAdjust="spacing" textLength="89.7363" x="42" y="168.1387">PerfilController</text></g><!--entity SolicitudEliminacionRepository--><g class="entity" data-qualified-name="solicitarEliminacionPerfil.SolicitudEliminacionRepository" data-source-line="13" id="ent0007"><rect fill="#F2AC4E" height="33.9688" rx="2.5" ry="2.5" style="stroke:#181818;stroke-width:0.5;" width="204.9453" x="21.5" y="256"/><text fill="#000000" font-family="sans-serif" font-size="12" lengthAdjust="spacing" textLength="184.9453" x="31.5" y="277.1387">SolicitudEliminacionRepository</text></g><!--entity SolicitudEliminacion--><g class="entity" data-qualified-name="solicitarEliminacionPerfil.SolicitudEliminacion" data-source-line="14" id="ent0008"><rect fill="#F2AC4E" height="33.9688" rx="2.5" ry="2.5" style="stroke:#181818;stroke-width:0.5;" width="140.5977" x="231.5" y="147"/><text fill="#000000" font-family="sans-serif" font-size="12" lengthAdjust="spacing" textLength="120.5977" x="241.5" y="168.1387">SolicitudEliminacion</text></g><!--entity Sesion--><g class="entity" data-qualified-name="solicitarEliminacionPerfil.Sesion" data-source-line="15" id="ent0009"><rect fill="#F2AC4E" height="33.9688" rx="2.5" ry="2.5" style="stroke:#181818;stroke-width:0.5;" width="59.5332" x="262" y="256"/><text fill="#000000" font-family="sans-serif" font-size="12" lengthAdjust="spacing" textLength="39.5332" x="272" y="277.1387">Sesion</text></g><!--entity OpcionesPerfilAbierto--><g class="entity" data-qualified-name="OpcionesPerfilAbierto" data-source-line="7" id="ent0002"><rect fill="#CDEBA5" height="33.9688" rx="2.5" ry="2.5" style="stroke:#181818;stroke-width:0.5;" width="187.1797" x="407.5" y="147"/><text fill="#000000" font-family="sans-serif" font-size="12" lengthAdjust="spacing" textLength="167.1797" x="417.5" y="168.1387">OPCIONES_PERFIL_ABIERTO</text></g><!--entity SesionCerrada--><g class="entity" data-qualified-name="SesionCerrada" data-source-line="8" id="ent0003"><rect fill="#CDEBA5" height="33.9688" rx="2.5" ry="2.5" style="stroke:#181818;stroke-width:0.5;" width="129.0723" x="629.5" y="147"/><text fill="#000000" font-family="sans-serif" font-size="12" lengthAdjust="spacing" textLength="109.0723" x="639.5" y="168.1387">SESION_CERRADA</text></g><!--link OpcionesPerfilAbierto to SolicitarEliminacionView--><g class="link" data-entity-1="ent0002" data-entity-2="ent0005" data-link-type="dependency" data-source-line="18" id="lnk10"><path d="M429.24,146.98 C369.79,133.7 295,117 295,117 C295,117 294.3158,96.0968 293.7258,78.0268" fill="none" id="OpcionesPerfilAbierto-to-SolicitarEliminacionView" style="stroke:#181818;stroke-width:1;"/><polygon fill="#181818" points="293.53,72.03,289.8258,81.1557,293.6932,77.0273,297.8216,80.8947,293.53,72.03" style="stroke:#181818;stroke-width:1;"/><text fill="#000000" font-family="sans-serif" font-size="12" lengthAdjust="spacing" textLength="156.1055" x="296" y="114.1387">solicitarEliminacionPerfil()</text></g><!--link SolicitarEliminacionView to OpcionesPerfilAbierto--><g class="link" data-entity-1="ent0005" data-entity-2="ent0002" data-link-type="dependency" data-source-line="26" id="lnk16"><path d="M350.36,72.09 C397.65,85.35 457,102 457,102 C457,102 472.8889,124.0346 485.9289,142.1046" fill="none" id="SolicitarEliminacionView-to-OpcionesPerfilAbierto" style="stroke:#181818;stroke-width:1;stroke-dasharray:7,7;"/><polygon fill="#181818" points="489.44,146.97,487.417,137.3311,486.5141,142.9155,480.9298,142.0126,489.44,146.97" style="stroke:#181818;stroke-width:1;"/><text fill="#000000" font-family="sans-serif" font-size="12" lengthAdjust="spacing" textLength="130.1777" x="469" y="114.1387">&#171;cancelar&#187; cancelar()</text></g><!--link SolicitarEliminacionView to PerfilController--><g class="link" data-entity-1="ent0005" data-entity-2="ent0006" data-link-type="dependency" data-source-line="20" id="lnk11"><path d="M222.29,72.02 C163.7,85.3 90,102 90,102 C90,102 88.9752,122.9073 88.0852,140.9773" fill="none" id="SolicitarEliminacionView-to-PerfilController" style="stroke:#181818;stroke-width:1;"/><polygon fill="#181818" points="87.79,146.97,92.2279,138.1777,88.036,141.9761,84.2376,137.7841,87.79,146.97" style="stroke:#181818;stroke-width:1;"/><text fill="#000000" font-family="sans-serif" font-size="12" lengthAdjust="spacing" textLength="161.1621" x="91" y="114.1387">crearSolicitudEliminacion()</text></g><!--link PerfilController to Sesion--><g class="link" data-entity-1="ent0006" data-entity-2="ent0009" data-link-type="dependency" data-source-line="21" id="lnk12"><path d="M117.69,181.02 C156.56,201.31 217.8008,233.2741 256.4508,253.4441" fill="none" id="PerfilController-to-Sesion" style="stroke:#181818;stroke-width:1;"/><polygon fill="#181818" points="261.77,256.22,255.6418,248.51,257.3373,253.9067,251.9405,255.6023,261.77,256.22" style="stroke:#181818;stroke-width:1;"/><text fill="#000000" font-family="sans-serif" font-size="12" lengthAdjust="spacing" textLength="169.752" x="203" y="223.1387">getUsuarioActual() : Usuario</text></g><!--link PerfilController to SolicitudEliminacion--><g class="link" data-entity-1="ent0006" data-entity-2="ent0008" data-link-type="dependency" data-source-line="22" id="lnk13"><path d="M142.09,164 C169.21,164 196.23,164 225.2,164" fill="none" id="PerfilController-to-SolicitudEliminacion" style="stroke:#181818;stroke-width:1;"/><polygon fill="#181818" points="231.2,164,222.2,160,226.2,164,222.2,168,231.2,164" style="stroke:#181818;stroke-width:1;"/><text fill="#000000" font-family="sans-serif" font-size="12" lengthAdjust="spacing" textLength="53.0391" x="160.25" y="158.1387">&#171;create&#187;</text></g><!--link PerfilController to SolicitudEliminacionRepository--><g class="link" data-entity-1="ent0006" data-entity-2="ent0007" data-link-type="dependency" data-source-line="23" id="lnk14"><path d="M75.46,181.09 C65.94,194.35 54,211 54,211 C54,211 54,226 54,226 C54,226 74.3149,239.3563 94.5049,252.6163" fill="none" id="PerfilController-to-SolicitudEliminacionRepository" style="stroke:#181818;stroke-width:1;"/><polygon fill="#181818" points="99.52,255.91,94.1932,247.626,95.3407,253.1652,89.8015,254.3128,99.52,255.91" style="stroke:#181818;stroke-width:1;"/><text fill="#000000" font-family="sans-serif" font-size="12" lengthAdjust="spacing" textLength="106.8984" x="55" y="223.1387">guardar(solicitud)</text></g><!--link SolicitarEliminacionView to SesionCerrada--><g class="link" data-entity-1="ent0005" data-entity-2="ent0003" data-link-type="dependency" data-source-line="25" id="lnk15"><path d="M376.17,68.15 C469.5,81.77 608,102 608,102 C608,102 641.0258,125.4291 666.5058,143.4991" fill="none" id="SolicitarEliminacionView-to-SesionCerrada" style="stroke:#181818;stroke-width:1;stroke-dasharray:7,7;"/><polygon fill="#181818" points="671.4,146.97,666.3726,138.5009,667.3215,144.0776,661.7448,145.0265,671.4,146.97" style="stroke:#181818;stroke-width:1;"/><text fill="#000000" font-family="sans-serif" font-size="12" lengthAdjust="spacing" textLength="133.6465" x="630" y="114.1387">&#171;finalizar&#187; confirmar()</text></g><?plantuml-src ZPFHQzim4CRVzLSSoKloaCB2MbPJ3AwZG60imUxs6ixssHLL92F9X7JiVvzYTvsRsM5-igMxt_VTVTY-25MZmGDacBzKHZUgYBNK1exFmX6px_Vs6Gjz5Ag24gNjtwoen4QwjLQkQysaPmqNfEALuDEoToc58dUg2MejJ-SFnWpb3bKb2QRnYZz6jp3PxkBDzXjFzpkUh3TVzz7ZXYTFsmcWXMsT2wt8xiYKGaQP8EFq42JbgOViOvuaqIfgUrEolZScOx10ncfl72k2YTLIvCAXuL8SXCApGiUVpTl6yGBuoS0_V_KdwK3j3q77pi789KplblTyVNy9wqHYlqkZfIJJGYuFOPhTPiNTbn4dJT4JIwZMLZXjJdq_8oKmNI-Z-3F_7_0eRXJIXj7BvRtm5sE3ASF2BCBH5GPmBKR6HbU_A3prSgS1v8RG30taOVyaq3AwCGAeo7st3HgXezmrwDKXWBUJWTRUK1zq0dXuE9jm58PZYbVZyqwyPe5cPl_KNTl3pKtuyGyv6oXzXHIlQC8GSgrAOGwUDxzE6Kol7GTLJhA3lRtEvhy1?></g></svg>