<?xml version="1.0" encoding="us-ascii" standalone="no"?><svg xmlns="http://www.w3.org/2000/svg" xmlns:xlink="http://www.w3.org/1999/xlink" contentStyleType="text/css" height="444px" preserveAspectRatio="none" style="width:1013px;height:444px;background:#FFFFFF;" version="1.1" viewBox="0 0 1013 444" width="1013px" zoomAndPan="magnify"><defs/><g><line style="stroke:#AAAAAA;stroke-width:1.0;" x1="6" x2="1006" y1="8.5" y2="8.5"/><line style="stroke:#AAAAAA;stroke-width:1.0;" x1="6" x2="1006" y1="10.5" y2="10.5"/><text fill="#000000" font-family="sans-serif" font-size="12" font-weight="bold" lengthAdjust="spacing" textLength="106" x="6" y="26.457">GIPF - PROYECTOS</text><line style="stroke:#AAAAAA;stroke-width:1.0;" x1="6" x2="1006" y1="33.5938" y2="33.5938"/><line style="stroke:#AAAAAA;stroke-width:1.0;" x1="6" x2="1006" y1="35.5938" y2="35.5938"/><text fill="#000000" font-family="sans-serif" font-size="12" font-weight="bold" lengthAdjust="spacing" textLength="214" x="7" y="52.5508">Listado de proyectos de investigaci&#243;n</text><line style="stroke:#AAAAAA;stroke-width:1.0;" x1="7" x2="1005" y1="60.6875" y2="60.6875"/><text fill="#000000" font-family="sans-serif" font-size="12" font-weight="bold" lengthAdjust="spacing" textLength="11" x="9" y="79.6445">ID</text><text fill="#000000" font-family="sans-serif" font-size="12" font-weight="bold" lengthAdjust="spacing" textLength="31" x="22" y="79.6445">T&#237;tulo</text><text fill="#000000" font-family="sans-serif" font-size="12" font-weight="bold" lengthAdjust="spacing" textLength="39" x="55" y="79.6445">Estado</text><text fill="#000000" font-family="sans-serif" font-size="12" font-weight="bold" lengthAdjust="spacing" textLength="70" x="96" y="79.6445">Coordinador</text><text fill="#000000" font-family="sans-serif" font-size="12" font-weight="bold" lengthAdjust="spacing" textLength="30" x="168" y="79.6445">Inicio</text><text fill="#000000" font-family="sans-serif" font-size="12" font-weight="bold" lengthAdjust="spacing" textLength="16" x="200" y="79.6445">Fin</text><text fill="#000000" font-family="sans-serif" font-size="12" font-weight="bold" lengthAdjust="spacing" textLength="39" x="218" y="79.6445">Acci&#243;n</text><text fill="#000000" font-family="sans-serif" font-size="12" lengthAdjust="spacing" textLength="58" x="12" y="98.7383">PROY-012</text><line style="stroke:#000000;stroke-width:1.0;" x1="10" x2="77" y1="101.375" y2="101.375"/><line style="stroke:#000000;stroke-width:1.0;" x1="10" x2="10" y1="98.375" y2="100.375"/><line style="stroke:#000000;stroke-width:1.0;" x1="77" x2="77" y1="98.375" y2="100.375"/><text fill="#000000" font-family="sans-serif" font-size="12" lengthAdjust="spacing" textLength="248" x="84" y="98.7383">Sistema de apoyo a la gesti&#243;n de proyectos...</text><line style="stroke:#000000;stroke-width:1.0;" x1="82" x2="445" y1="101.375" y2="101.375"/><line style="stroke:#000000;stroke-width:1.0;" x1="82" x2="82" y1="98.375" y2="100.375"/><line style="stroke:#000000;stroke-width:1.0;" x1="445" x2="445" y1="98.375" y2="100.375"/><text fill="#000000" font-family="sans-serif" font-size="12" lengthAdjust="spacing" textLength="49" x="452" y="98.7383">En curso</text><line style="stroke:#000000;stroke-width:1.0;" x1="450" x2="517" y1="101.375" y2="101.375"/><line style="stroke:#000000;stroke-width:1.0;" x1="450" x2="450" y1="98.375" y2="100.375"/><line style="stroke:#000000;stroke-width:1.0;" x1="517" x2="517" y1="98.375" y2="100.375"/><text fill="#000000" font-family="sans-serif" font-size="12" lengthAdjust="spacing" textLength="134" x="524" y="98.7383">Carlos Fern&#225;ndez L&#243;pez</text><line style="stroke:#000000;stroke-width:1.0;" x1="522" x2="701" y1="101.375" y2="101.375"/><line style="stroke:#000000;stroke-width:1.0;" x1="522" x2="522" y1="98.375" y2="100.375"/><line style="stroke:#000000;stroke-width:1.0;" x1="701" x2="701" y1="98.375" y2="100.375"/><text fill="#000000" font-family="sans-serif" font-size="12" lengthAdjust="spacing" textLength="64" x="708" y="98.7383">10-01-2025</text><line style="stroke:#000000;stroke-width:1.0;" x1="706" x2="789" y1="101.375" y2="101.375"/><line style="stroke:#000000;stroke-width:1.0;" x1="706" x2="706" y1="98.375" y2="100.375"/><line style="stroke:#000000;stroke-width:1.0;" x1="789" x2="789" y1="98.375" y2="100.375"/><text fill="#000000" font-family="sans-serif" font-size="12" lengthAdjust="spacing" textLength="64" x="796" y="98.7383">20-12-2025</text><line style="stroke:#000000;stroke-width:1.0;" x1="794" x2="877" y1="101.375" y2="101.375"/><line style="stroke:#000000;stroke-width:1.0;" x1="794" x2="794" y1="98.375" y2="100.375"/><line style="stroke:#000000;stroke-width:1.0;" x1="877" x2="877" y1="98.375" y2="100.375"/><rect fill="#EEEEEE" height="19.0938" rx="5" ry="5" style="stroke:#000000;stroke-width:2.5;" width="116" x="883.5" y="88.7813"/><text fill="#000000" font-family="sans-serif" font-size="12" lengthAdjust="spacing" textLength="74" x="904.5" y="103.2383">Abrir proyecto</text><text fill="#000000" font-family="sans-serif" font-size="12" lengthAdjust="spacing" textLength="58" x="12" y="126.832">PROY-013</text><line style="stroke:#000000;stroke-width:1.0;" x1="10" x2="77" y1="129.4688" y2="129.4688"/><line style="stroke:#000000;stroke-width:1.0;" x1="10" x2="10" y1="126.4688" y2="128.4688"/><line style="stroke:#000000;stroke-width:1.0;" x1="77" x2="77" y1="126.4688" y2="128.4688"/><text fill="#000000" font-family="sans-serif" font-size="12" lengthAdjust="spacing" textLength="146" x="84" y="126.832">An&#225;lisis de productividad...</text><line style="stroke:#000000;stroke-width:1.0;" x1="82" x2="309" y1="129.4688" y2="129.4688"/><line style="stroke:#000000;stroke-width:1.0;" x1="82" x2="82" y1="126.4688" y2="128.4688"/><line style="stroke:#000000;stroke-width:1.0;" x1="309" x2="309" y1="126.4688" y2="128.4688"/><text fill="#000000" font-family="sans-serif" font-size="12" lengthAdjust="spacing" textLength="48" x="316" y="126.832">Borrador</text><line style="stroke:#000000;stroke-width:1.0;" x1="314" x2="381" y1="129.4688" y2="129.4688"/><line style="stroke:#000000;stroke-width:1.0;" x1="314" x2="314" y1="126.4688" y2="128.4688"/><line style="stroke:#000000;stroke-width:1.0;" x1="381" x2="381" y1="126.4688" y2="128.4688"/><text fill="#000000" font-family="sans-serif" font-size="12" lengthAdjust="spacing" textLength="107" x="388" y="126.832">Marta S&#225;nchez Ruiz</text><line style="stroke:#000000;stroke-width:1.0;" x1="386" x2="533" y1="129.4688" y2="129.4688"/><line style="stroke:#000000;stroke-width:1.0;" x1="386" x2="386" y1="126.4688" y2="128.4688"/><line style="stroke:#000000;stroke-width:1.0;" x1="533" x2="533" y1="126.4688" y2="128.4688"/><text fill="#000000" font-family="sans-serif" font-size="12" lengthAdjust="spacing" textLength="64" x="540" y="126.832">05-03-2025</text><line style="stroke:#000000;stroke-width:1.0;" x1="538" x2="621" y1="129.4688" y2="129.4688"/><line style="stroke:#000000;stroke-width:1.0;" x1="538" x2="538" y1="126.4688" y2="128.4688"/><line style="stroke:#000000;stroke-width:1.0;" x1="621" x2="621" y1="126.4688" y2="128.4688"/><text fill="#000000" font-family="sans-serif" font-size="12" lengthAdjust="spacing" textLength="12" x="628" y="126.832">&#8212;</text><line style="stroke:#000000;stroke-width:1.0;" x1="626" x2="641" y1="129.4688" y2="129.4688"/><line style="stroke:#000000;stroke-width:1.0;" x1="626" x2="626" y1="126.4688" y2="128.4688"/><line style="stroke:#000000;stroke-width:1.0;" x1="641" x2="641" y1="126.4688" y2="128.4688"/><rect fill="#EEEEEE" height="19.0938" rx="5" ry="5" style="stroke:#000000;stroke-width:2.5;" width="116" x="647.5" y="116.875"/><text fill="#000000" font-family="sans-serif" font-size="12" lengthAdjust="spacing" textLength="74" x="668.5" y="131.332">Abrir proyecto</text><text fill="#000000" font-family="sans-serif" font-size="12" lengthAdjust="spacing" textLength="58" x="12" y="154.9258">PROY-014</text><line style="stroke:#000000;stroke-width:1.0;" x1="10" x2="77" y1="157.5625" y2="157.5625"/><line style="stroke:#000000;stroke-width:1.0;" x1="10" x2="10" y1="154.5625" y2="156.5625"/><line style="stroke:#000000;stroke-width:1.0;" x1="77" x2="77" y1="154.5625" y2="156.5625"/><text fill="#000000" font-family="sans-serif" font-size="12" lengthAdjust="spacing" textLength="158" x="84" y="154.9258">Plataforma de seguimiento...</text><line style="stroke:#000000;stroke-width:1.0;" x1="82" x2="309" y1="157.5625" y2="157.5625"/><line style="stroke:#000000;stroke-width:1.0;" x1="82" x2="82" y1="154.5625" y2="156.5625"/><line style="stroke:#000000;stroke-width:1.0;" x1="309" x2="309" y1="154.5625" y2="156.5625"/><text fill="#000000" font-family="sans-serif" font-size="12" lengthAdjust="spacing" textLength="56" x="316" y="154.9258">Finalizado</text><line style="stroke:#000000;stroke-width:1.0;" x1="314" x2="397" y1="157.5625" y2="157.5625"/><line style="stroke:#000000;stroke-width:1.0;" x1="314" x2="314" y1="154.5625" y2="156.5625"/><line style="stroke:#000000;stroke-width:1.0;" x1="397" x2="397" y1="154.5625" y2="156.5625"/><text fill="#000000" font-family="sans-serif" font-size="12" lengthAdjust="spacing" textLength="100" x="404" y="154.9258">Luis G&#243;mez P&#233;rez</text><line style="stroke:#000000;stroke-width:1.0;" x1="402" x2="533" y1="157.5625" y2="157.5625"/><line style="stroke:#000000;stroke-width:1.0;" x1="402" x2="402" y1="154.5625" y2="156.5625"/><line style="stroke:#000000;stroke-width:1.0;" x1="533" x2="533" y1="154.5625" y2="156.5625"/><text fill="#000000" font-family="sans-serif" font-size="12" lengthAdjust="spacing" textLength="64" x="540" y="154.9258">12-02-2024</text><line style="stroke:#000000;stroke-width:1.0;" x1="538" x2="621" y1="157.5625" y2="157.5625"/><line style="stroke:#000000;stroke-width:1.0;" x1="538" x2="538" y1="154.5625" y2="156.5625"/><line style="stroke:#000000;stroke-width:1.0;" x1="621" x2="621" y1="154.5625" y2="156.5625"/><text fill="#000000" font-family="sans-serif" font-size="12" lengthAdjust="spacing" textLength="64" x="628" y="154.9258">30-11-2024</text><line style="stroke:#000000;stroke-width:1.0;" x1="626" x2="709" y1="157.5625" y2="157.5625"/><line style="stroke:#000000;stroke-width:1.0;" x1="626" x2="626" y1="154.5625" y2="156.5625"/><line style="stroke:#000000;stroke-width:1.0;" x1="709" x2="709" y1="154.5625" y2="156.5625"/><rect fill="#EEEEEE" height="19.0938" rx="5" ry="5" style="stroke:#000000;stroke-width:2.5;" width="116" x="715.5" y="144.9688"/><text fill="#000000" font-family="sans-serif" font-size="12" lengthAdjust="spacing" textLength="74" x="736.5" y="159.4258">Abrir proyecto</text><line style="stroke:#AAAAAA;stroke-width:1.5;" x1="7" x2="1005" y1="174.0625" y2="174.0625"/><text fill="#000000" font-family="sans-serif" font-size="12" font-weight="bold" lengthAdjust="spacing" textLength="142" x="7" y="191.0195">Filtrar / buscar proyectos</text><line style="stroke:#AAAAAA;stroke-width:1.0;" x1="7" x2="1005" y1="199.1563" y2="199.1563"/><text fill="#000000" font-family="sans-serif" font-size="12" font-style="italic" lengthAdjust="spacing" textLength="107" x="8" y="217.1133">Si se accede desde</text><text fill="#000000" font-family="sans-serif" font-size="12" font-style="italic" font-weight="bold" lengthAdjust="spacing" textLength="152" x="118" y="217.1133">INVESTIGADOR_ABIERTO</text><text fill="#000000" font-family="sans-serif" font-size="12" font-style="italic" lengthAdjust="spacing" textLength="3" x="270" y="217.1133">,</text><text fill="#000000" font-family="sans-serif" font-size="12" font-style="italic" lengthAdjust="spacing" textLength="255" x="8" y="234.207">el listado se muestra filtrado autom&#225;ticamente.</text><line style="stroke:#AAAAAA;stroke-width:1.0;" x1="8" x2="368" y1="242.3438" y2="242.3438"/><text fill="#000000" font-family="sans-serif" font-size="12" font-weight="bold" lengthAdjust="spacing" textLength="14" x="10" y="261.3008">ID:</text><rect fill="#EEEEEE" height="19.0938" rx="5" ry="5" style="stroke:#000000;stroke-width:2.5;" width="100" x="48.5" y="251.3438"/><text fill="#000000" font-family="sans-serif" font-size="12" lengthAdjust="spacing" textLength="3" x="97" y="265.8008">&#160;</text><text fill="#000000" font-family="sans-serif" font-size="12" font-weight="bold" lengthAdjust="spacing" textLength="34" x="10" y="287.3945">T&#237;tulo:</text><rect fill="#EEEEEE" height="19.0938" rx="5" ry="5" style="stroke:#000000;stroke-width:2.5;" width="244" x="48.5" y="277.4375"/><text fill="#000000" font-family="sans-serif" font-size="12" lengthAdjust="spacing" textLength="3" x="169" y="291.8945">&#160;</text><text fill="#000000" font-family="sans-serif" font-size="12" font-weight="bold" lengthAdjust="spacing" textLength="42" x="10" y="315.4883">Estado:</text><text fill="#000000" font-family="sans-serif" font-size="12" lengthAdjust="spacing" textLength="35" x="89" y="316.4883">Todos</text><line style="stroke:#000000;stroke-width:1.0;" x1="87" x2="130" y1="319.125" y2="319.125"/><line style="stroke:#000000;stroke-width:1.0;" x1="87" x2="87" y1="316.125" y2="318.125"/><line style="stroke:#000000;stroke-width:1.0;" x1="130" x2="130" y1="316.125" y2="318.125"/><text fill="#000000" font-family="sans-serif" font-size="12" lengthAdjust="spacing" textLength="48" x="137" y="316.4883">Borrador</text><line style="stroke:#000000;stroke-width:1.0;" x1="135" x2="202" y1="319.125" y2="319.125"/><line style="stroke:#000000;stroke-width:1.0;" x1="135" x2="135" y1="316.125" y2="318.125"/><line style="stroke:#000000;stroke-width:1.0;" x1="202" x2="202" y1="316.125" y2="318.125"/><text fill="#000000" font-family="sans-serif" font-size="12" lengthAdjust="spacing" textLength="49" x="209" y="316.4883">En curso</text><line style="stroke:#000000;stroke-width:1.0;" x1="207" x2="274" y1="319.125" y2="319.125"/><line style="stroke:#000000;stroke-width:1.0;" x1="207" x2="207" y1="316.125" y2="318.125"/><line style="stroke:#000000;stroke-width:1.0;" x1="274" x2="274" y1="316.125" y2="318.125"/><text fill="#000000" font-family="sans-serif" font-size="12" lengthAdjust="spacing" textLength="56" x="281" y="316.4883">Finalizado</text><line style="stroke:#000000;stroke-width:1.0;" x1="279" x2="362" y1="319.125" y2="319.125"/><line style="stroke:#000000;stroke-width:1.0;" x1="279" x2="279" y1="316.125" y2="318.125"/><line style="stroke:#000000;stroke-width:1.0;" x1="362" x2="362" y1="316.125" y2="318.125"/><text fill="#000000" font-family="sans-serif" font-size="12" font-weight="bold" lengthAdjust="spacing" textLength="73" x="10" y="336.582">Coordinador:</text><rect fill="#EEEEEE" height="19.0938" rx="5" ry="5" style="stroke:#000000;stroke-width:2.5;" width="164" x="87.5" y="326.625"/><text fill="#000000" font-family="sans-serif" font-size="12" lengthAdjust="spacing" textLength="3" x="168" y="341.082">&#160;</text><text fill="#000000" font-family="sans-serif" font-size="12" font-weight="bold" lengthAdjust="spacing" textLength="70" x="10" y="364.6758">Fecha inicio:</text><rect fill="#EEEEEE" height="19.0938" rx="5" ry="5" style="stroke:#000000;stroke-width:2.5;" width="100" x="84.5" y="354.7188"/><text fill="#000000" font-family="sans-serif" font-size="12" lengthAdjust="spacing" textLength="3" x="133" y="369.1758">&#160;</text><text fill="#000000" font-family="sans-serif" font-size="12" font-weight="bold" lengthAdjust="spacing" textLength="54" x="10" y="390.7695">Fecha fin:</text><rect fill="#EEEEEE" height="19.0938" rx="5" ry="5" style="stroke:#000000;stroke-width:2.5;" width="100" x="84.5" y="380.8125"/><text fill="#000000" font-family="sans-serif" font-size="12" lengthAdjust="spacing" textLength="3" x="133" y="395.2695">&#160;</text><line style="stroke:#AAAAAA;stroke-width:1.5;" x1="7" x2="1005" y1="410.9063" y2="410.9063"/><rect fill="#EEEEEE" height="19.0938" rx="5" ry="5" style="stroke:#000000;stroke-width:2.5;" width="116" x="10.5" y="418.9063"/><text fill="#000000" font-family="sans-serif" font-size="12" lengthAdjust="spacing" textLength="80" x="28.5" y="433.3633">Crear proyecto</text><rect fill="#EEEEEE" height="19.0938" rx="5" ry="5" style="stroke:#000000;stroke-width:2.5;" width="124" x="133.5" y="418.9063"/><text fill="#000000" font-family="sans-serif" font-size="12" lengthAdjust="spacing" textLength="70" x="160.5" y="433.3633">Aplicar filtros</text><rect fill="#EEEEEE" height="19.0938" rx="5" ry="5" style="stroke:#000000;stroke-width:2.5;" width="124" x="264.5" y="418.9063"/><text fill="#000000" font-family="sans-serif" font-size="12" lengthAdjust="spacing" textLength="75" x="289" y="433.3633">Limpiar filtros</text><rect fill="#EEEEEE" height="19.0938" rx="5" ry="5" style="stroke:#000000;stroke-width:2.5;" width="172" x="395.5" y="418.9063"/><text fill="#000000" font-family="sans-serif" font-size="12" lengthAdjust="spacing" textLength="110" x="426.5" y="433.3633">Abrir Panel principal</text><!--SRC=[ZLNDRXen4BxlKrYS4gbB5WXLXT8e11P42WK1YLH5g3AxXeoqQw-yNggG4lKX-W8vzj1J7e4twPDqR7wM3QID3sXdFFFvc_4tvY9MLAgO1ehGiGJPa-AUUKh4zZUGR29foAm7Y-3wYCjyd8tFcwrUWzYar-z-SMl3xk3iP7oU3LhbhCFRWAVuWlYCH1jyRG2ViLZ1b7gmVEPR4BriU_kPGXaByLfr7Kk-Q-pXyhTA0f4wN7DMQjU4a3vmzCdKsUBWmKvG0tXgLBqjdqNsx9oks7OAnHn6vWPO5WkfheH6ubuGIW9AfheaJCzKcy_dJOhBYPV8M1YZHcM0ZMWmoPTFt6Tpqbu-HsnkDWiEdcCNdMBPc4N7BXItvcrLtzKMVlGApP99hI9w0374QqP-uYcOWKzzmsf_OSwba59tp01qK26K392ZTuSa-mdCSvj0fsmxfPJcdny_Sxj0RoHwQf9x0LLq8kIgfJ6R9X02uqgypXFlZGOmHwe6ePrWbStbSuWqUyjVagL4iNkEQU3gh1Bsix0rNwUviBQVZu_MhgWR42X99JaXuoJsQ9eTlqt8Pt0-0AoIKCzZMA_FOlpLslnyumw6hMQrtkr_hLwstFwmgo7VlKnd0GdMauKmOOB2avHC32_qqKI9SFcamCCXvehbhGm04ijUne4ngwo7udPtQvJbiHt1Wy7xQxImzavQpUm6u87aXi8NSMvFYPdnsRtxnKjEErF_Jrw7s3IOTqVnST9FnDiwiCgO03ySdcNtNt4ztDOasn7Ko2Wq2a2hp5olY8sl3M44Btmh9VSeHtL44hW74GtM31RMmhfWtDVFlMNXk75rtMcJ6PCn24uAUJqF-TBHy2x1LsbC2cLIT2gdJiKfavex97hxs3fgzjgp8eb58ZsKBIfGmZXHY71iNT4PnGU2AmXPXNGZng_gdpOEul8PIC6r6gshcquQyFxKlWH51amY5tBJiUfiGXFyJtAv9_0QfnLoFMpO7wmsvTE4JX6RnLPD8Awyhn1ty1S0]--></g></svg>