<?xml version="1.0" encoding="us-ascii" standalone="no"?><svg xmlns="http://www.w3.org/2000/svg" xmlns:xlink="http://www.w3.org/1999/xlink" contentStyleType="text/css" height="1036px" preserveAspectRatio="none" style="width:643px;height:1036px;background:#FFFFFF;" version="1.1" viewBox="0 0 643 1036" width="643px" zoomAndPan="magnify"><defs/><g><g id="in1"><rect fill="#F1F1F1" height="50" rx="12.5" ry="12.5" style="stroke:#181818;stroke-width:0.5;" width="166" x="235.5" y="7"/><line style="stroke:#181818;stroke-width:0.5;" x1="235.5" x2="401.5" y1="34.6094" y2="34.6094"/><text fill="#000000" font-family="sans-serif" font-size="14" lengthAdjust="spacing" textLength="146" x="245.5" y="26.5332">PROYECTO_ABIERTO</text></g><path d="M19.5,118 L617.5,118 A12.5,12.5 0 0 1 630,130.5 L630,145.6094 L7,145.6094 L7,130.5 A12.5,12.5 0 0 1 19.5,118 " fill="#F1F1F1" style="stroke:#F1F1F1;stroke-width:1.0;"/><rect fill="none" height="765.6094" rx="12.5" ry="12.5" style="stroke:#181818;stroke-width:0.5;" width="623" x="7" y="118"/><line style="stroke:#181818;stroke-width:0.5;" x1="7" x2="630" y1="145.6094" y2="145.6094"/><text fill="#000000" font-family="sans-serif" font-size="14" lengthAdjust="spacing" textLength="115" x="261" y="137.5332">eliminarProyecto()</text><g id="eliminarProyecto.MostrandoProyecto"><rect fill="#F1F1F1" height="50" rx="12.5" ry="12.5" style="stroke:#181818;stroke-width:0.5;" width="50" x="169" y="264.6094"/><line style="stroke:#181818;stroke-width:0.5;" x1="169" x2="219" y1="292.2188" y2="292.2188"/><text fill="#000000" font-family="sans-serif" font-size="14" lengthAdjust="spacing" textLength="4" x="192" y="284.1426">&#160;</text></g><g id="eliminarProyecto.ConfirmandoEliminacion"><rect fill="#F1F1F1" height="50" rx="12.5" ry="12.5" style="stroke:#181818;stroke-width:0.5;" width="50" x="169" y="713.6094"/><line style="stroke:#181818;stroke-width:0.5;" x1="169" x2="219" y1="741.2188" y2="741.2188"/><text fill="#000000" font-family="sans-serif" font-size="14" lengthAdjust="spacing" textLength="4" x="192" y="733.1426">&#160;</text></g><ellipse cx="194" cy="166.6094" fill="#222222" rx="10" ry="10" style="stroke:#222222;stroke-width:1.0;"/><ellipse cx="194" cy="862.6094" fill="none" rx="11" ry="11" style="stroke:#222222;stroke-width:1.0;"/><ellipse cx="194" cy="862.6094" fill="#222222" rx="6" ry="6" style="stroke:#222222;stroke-width:1.0;"/><!--link *start*eliminarProyecto to MostrandoProyecto--><g id="link_*start*eliminarProyecto_MostrandoProyecto"><path d="M194,176.6994 C194,195.1694 194,231.5894 194,258.5794 " fill="none" id="*start*eliminarProyecto-to-MostrandoProyecto" style="stroke:#008000;stroke-width:1.0;"/><polygon fill="#008000" points="194,264.5794,198,255.5794,194,259.5794,190,255.5794,194,264.5794" style="stroke:#008000;stroke-width:1.0;"/><path d="M199,199.6094 L199,241.6094 L447,241.6094 L447,209.6094 L437,199.6094 L199,199.6094 " fill="#FEFFDD" style="stroke:#181818;stroke-width:0.5;"/><path d="M437,199.6094 L437,209.6094 L447,209.6094 L437,199.6094 " fill="#FEFFDD" style="stroke:#181818;stroke-width:0.5;"/><text fill="#000000" font-family="sans-serif" font-size="13" font-weight="bold" lengthAdjust="spacing" textLength="79" x="205" y="218.1045">Coordinador</text><text fill="#000000" font-family="sans-serif" font-size="13" lengthAdjust="spacing" textLength="143" x="288" y="218.1045">tiene un proyecto abierto</text><text fill="#000000" font-family="sans-serif" font-size="13" font-weight="bold" lengthAdjust="spacing" textLength="79" x="205" y="234.4561">Coordinador</text><text fill="#000000" font-family="sans-serif" font-size="13" lengthAdjust="spacing" textLength="144" x="288" y="234.4561">solicita eliminar proyecto</text></g><!--link MostrandoProyecto to ConfirmandoEliminacion--><g id="link_MostrandoProyecto_ConfirmandoEliminacion"><path d="M168.78,296.6294 C120.12,308.2394 18,332.6094 18,332.6094 C18,332.6094 18,695.6094 18,695.6094 C18,695.6094 114.2838,718.5869 162.9438,730.1969 " fill="none" id="MostrandoProyecto-to-ConfirmandoEliminacion" style="stroke:#008000;stroke-width:1.0;"/><polygon fill="#008000" points="168.78,731.5894,160.954,725.6099,163.9165,730.429,159.0974,733.3914,168.78,731.5894" style="stroke:#008000;stroke-width:1.0;"/><path d="M23,337.6094 L23,690.6094 L344,690.6094 L344,347.6094 L334,337.6094 L23,337.6094 " fill="#FEFFDD" style="stroke:#181818;stroke-width:0.5;"/><path d="M334,337.6094 L334,347.6094 L344,347.6094 L334,337.6094 " fill="#FEFFDD" style="stroke:#181818;stroke-width:0.5;"/><text fill="#000000" font-family="sans-serif" font-size="13" font-weight="bold" lengthAdjust="spacing" textLength="51" x="29" y="356.1045">Sistema</text><text fill="#000000" font-family="sans-serif" font-size="13" lengthAdjust="spacing" textLength="186" x="84" y="356.1045">presenta los datos del proyecto:</text><text fill="#000000" font-family="sans-serif" font-size="13" lengthAdjust="spacing" textLength="21" x="29" y="372.4561">&#8226; ID</text><text fill="#000000" font-family="sans-serif" font-size="13" lengthAdjust="spacing" textLength="40" x="29" y="388.8076">&#8226; T&#237;tulo</text><text fill="#000000" font-family="sans-serif" font-size="13" lengthAdjust="spacing" textLength="50" x="29" y="405.1592">&#8226; Estado</text><text fill="#000000" font-family="sans-serif" font-size="13" lengthAdjust="spacing" textLength="78" x="29" y="421.5107">&#8226; Coordinador</text><text fill="#000000" font-family="sans-serif" font-size="13" lengthAdjust="spacing" textLength="97" x="29" y="437.8623">&#8226; Fecha de inicio</text><text fill="#000000" font-family="sans-serif" font-size="13" lengthAdjust="spacing" textLength="80" x="29" y="454.2139">&#8226; Fecha de fin</text><text fill="#000000" font-family="sans-serif" font-size="13" lengthAdjust="spacing" textLength="77" x="29" y="470.5654">&#8226; Descripci&#243;n</text><text fill="#000000" font-family="sans-serif" font-size="13" lengthAdjust="spacing" textLength="4" x="29" y="486.917">&#160;</text><text fill="#000000" font-family="sans-serif" font-size="13" lengthAdjust="spacing" textLength="243" x="29" y="503.2686">y presenta la confirmaci&#243;n de eliminaci&#243;n:</text><text fill="#000000" font-family="sans-serif" font-size="13" lengthAdjust="spacing" textLength="229" x="29" y="519.6201">&#8226; &#191;Est&#225; seguro de eliminar el proyecto?</text><text fill="#000000" font-family="sans-serif" font-size="13" lengthAdjust="spacing" textLength="287" x="29" y="535.9717">&#8226; Advertencia: esta acci&#243;n no se puede deshacer.</text><text fill="#000000" font-family="sans-serif" font-size="13" lengthAdjust="spacing" textLength="4" x="29" y="552.3232">&#160;</text><text fill="#000000" font-family="sans-serif" font-size="13" font-weight="bold" lengthAdjust="spacing" textLength="82" x="29" y="568.6748">Al confirmar:</text><text fill="#000000" font-family="sans-serif" font-size="13" lengthAdjust="spacing" textLength="243" x="29" y="585.0264">&#8226; Se eliminar&#225;n los entregables asociados</text><text fill="#000000" font-family="sans-serif" font-size="13" lengthAdjust="spacing" textLength="300" x="29" y="601.3779">&#8226; Se eliminar&#225;n las asociaciones con investigadores</text><text fill="#000000" font-family="sans-serif" font-size="13" lengthAdjust="spacing" textLength="272" x="29" y="617.7295">&#8226; Se volver&#225; al listado de proyectos actualizado</text><text fill="#000000" font-family="sans-serif" font-size="13" lengthAdjust="spacing" textLength="4" x="29" y="634.0811">&#160;</text><text fill="#000000" font-family="sans-serif" font-size="13" lengthAdjust="spacing" textLength="247" x="29" y="650.4326">y permite solicitar las siguientes acciones:</text><text fill="#000000" font-family="sans-serif" font-size="13" lengthAdjust="spacing" textLength="133" x="29" y="666.7842">&#8226; Confirmar eliminaci&#243;n</text><text fill="#000000" font-family="sans-serif" font-size="13" lengthAdjust="spacing" textLength="60" x="29" y="683.1357">&#8226; Cancelar</text></g><!--link ConfirmandoEliminacion to *end*eliminarProyecto--><g id="link_ConfirmandoEliminacion_*end*eliminarProyecto"><path d="M194,763.7094 C194,790.3794 194,826.1094 194,845.3094 " fill="none" id="ConfirmandoEliminacion-to-*end*eliminarProyecto" style="stroke:#008000;stroke-width:1.0;"/><polygon fill="#008000" points="194,851.3094,198,842.3094,194,846.3094,190,842.3094,194,851.3094" style="stroke:#008000;stroke-width:1.0;"/><path d="M199,786.6094 L199,828.6094 L529,828.6094 L529,796.6094 L519,786.6094 L199,786.6094 " fill="#FEFFDD" style="stroke:#181818;stroke-width:0.5;"/><path d="M519,786.6094 L519,796.6094 L529,796.6094 L519,786.6094 " fill="#FEFFDD" style="stroke:#181818;stroke-width:0.5;"/><text fill="#000000" font-family="sans-serif" font-size="13" font-weight="bold" lengthAdjust="spacing" textLength="79" x="205" y="805.1045">Coordinador</text><text fill="#000000" font-family="sans-serif" font-size="13" lengthAdjust="spacing" textLength="167" x="288" y="805.1045">solicita confirmar eliminaci&#243;n</text><text fill="#000000" font-family="sans-serif" font-size="13" font-weight="bold" lengthAdjust="spacing" textLength="51" x="205" y="821.4561">Sistema</text><text fill="#000000" font-family="sans-serif" font-size="13" lengthAdjust="spacing" textLength="254" x="260" y="821.4561">visualiza el listado de proyectos actualizado</text></g><!--link ConfirmandoEliminacion to MostrandoProyecto--><g id="link_ConfirmandoEliminacion_MostrandoProyecto"><path d="M219.25,730.7694 C263.17,718.8694 349,695.6094 349,695.6094 C349,695.6094 349,332.6094 349,332.6094 C349,332.6094 268.9612,310.9185 225.0412,299.0185 " fill="none" id="ConfirmandoEliminacion-to-MostrandoProyecto" style="stroke:#FF0000;stroke-width:1.0;"/><polygon fill="#FF0000" points="219.25,297.4494,226.8907,303.6638,224.076,298.757,228.9829,295.9422,219.25,297.4494" style="stroke:#FF0000;stroke-width:1.0;"/><path d="M354,493.1094 L354,535.1094 L621,535.1094 L621,503.1094 L611,493.1094 L354,493.1094 " fill="#FEFFDD" style="stroke:#181818;stroke-width:0.5;"/><path d="M611,493.1094 L611,503.1094 L621,503.1094 L611,493.1094 " fill="#FEFFDD" style="stroke:#181818;stroke-width:0.5;"/><text fill="#000000" font-family="sans-serif" font-size="13" font-weight="bold" lengthAdjust="spacing" textLength="79" x="360" y="511.6045">Coordinador</text><text fill="#000000" font-family="sans-serif" font-size="13" lengthAdjust="spacing" textLength="114" x="443" y="511.6045">cancela eliminaci&#243;n</text><text fill="#000000" font-family="sans-serif" font-size="13" font-weight="bold" lengthAdjust="spacing" textLength="51" x="360" y="527.9561">Sistema</text><text fill="#000000" font-family="sans-serif" font-size="13" lengthAdjust="spacing" textLength="191" x="415" y="527.9561">visualiza el proyecto sin cambios</text></g><g id="PROYECTOS_ABIERTOS"><rect fill="#F1F1F1" height="50" rx="12.5" ry="12.5" style="stroke:#181818;stroke-width:0.5;" width="184" x="121.5" y="980"/><line style="stroke:#181818;stroke-width:0.5;" x1="121.5" x2="305.5" y1="1007.6094" y2="1007.6094"/><text fill="#000000" font-family="sans-serif" font-size="14" lengthAdjust="spacing" textLength="164" x="131.5" y="999.5332">PROYECTOS_ABIERTOS</text></g><g id="PROYECTO_ABIERTO"><rect fill="#F1F1F1" height="50" rx="12.5" ry="12.5" style="stroke:#181818;stroke-width:0.5;" width="166" x="340.5" y="980"/><line style="stroke:#181818;stroke-width:0.5;" x1="340.5" x2="506.5" y1="1007.6094" y2="1007.6094"/><text fill="#000000" font-family="sans-serif" font-size="14" lengthAdjust="spacing" textLength="146" x="350.5" y="999.5332">PROYECTO_ABIERTO</text></g><!--link in1 to eliminarProyecto--><g id="link_in1_eliminarProyecto"><path d="M318.5,57.12 C318.5,71.97 318.5,86.89 318.5,111.63 " fill="none" id="in1-to-eliminarProyecto" style="stroke:#008000;stroke-width:1.0;"/><polygon fill="#008000" points="318.5,117.63,322.5,108.63,318.5,112.63,314.5,108.63,318.5,117.63" style="stroke:#008000;stroke-width:1.0;"/></g><!--link eliminarProyecto to PROYECTOS_ABIERTOS--><g id="link_eliminarProyecto_PROYECTOS_ABIERTOS"><path d="M238.58,884.08 C230.16,924.35 224.2668,952.4968 219.7968,973.8968 " fill="none" id="eliminarProyecto-to-PROYECTOS_ABIERTOS" style="stroke:#008000;stroke-width:1.0;"/><polygon fill="#008000" points="218.57,979.77,224.3257,971.778,219.5923,974.8756,216.4947,970.1423,218.57,979.77" style="stroke:#008000;stroke-width:1.0;"/><path d="M236.5,919 L236.5,945 L349.5,945 L349.5,929 L339.5,919 L236.5,919 " fill="#FEFFDD" style="stroke:#181818;stroke-width:0.5;"/><path d="M339.5,919 L339.5,929 L349.5,929 L339.5,919 " fill="#FEFFDD" style="stroke:#181818;stroke-width:0.5;"/><text fill="#000000" font-family="sans-serif" font-size="13" lengthAdjust="spacing" textLength="92" x="242.5" y="937.4951">abrirProyectos()</text></g><!--link eliminarProyecto to PROYECTO_ABIERTO--><g id="link_eliminarProyecto_PROYECTO_ABIERTO"><path d="M398.42,884.08 C406.84,924.35 412.7332,952.4968 417.2032,973.8968 " fill="none" id="eliminarProyecto-to-PROYECTO_ABIERTO" style="stroke:#FF0000;stroke-width:1.0;"/><polygon fill="#FF0000" points="418.43,979.77,420.5053,970.1423,417.4077,974.8756,412.6743,971.778,418.43,979.77" style="stroke:#FF0000;stroke-width:1.0;"/><path d="M414.5,919 L414.5,945 L565.5,945 L565.5,929 L555.5,919 L414.5,919 " fill="#FEFFDD" style="stroke:#181818;stroke-width:0.5;"/><path d="M555.5,919 L555.5,929 L565.5,929 L555.5,919 " fill="#FEFFDD" style="stroke:#181818;stroke-width:0.5;"/><text fill="#000000" font-family="sans-serif" font-size="13" lengthAdjust="spacing" textLength="130" x="420.5" y="937.4951">Eliminaci&#243;n cancelada</text></g><!--SRC=[fLNDQXin4BxlKmZtaXJIqgi9BgxZGWx58VQbX52qqcGpH2ijajRWba9V9Rttr0Ser6-I9-beVxIx_g4DjS5Osfbllk-RaTOze2wuvJbJgC5l2c25KPkmI1BdkGU6-WtZZeskhXSVvxFLujFqtUNyUhKO9U79sSsBp0BesxC90uKvQcwlhDc0y2Pf8NOVL7YxcoUd8_ObIHXzwgmHVIdmWt7USYrDXDqBcHbzXpOFGVCQLQ3HDTRDozi1oSDmsX2QqS65XshZF9tCZB6IiAInvw_J2VC86bYfMH5bf0YsGJYGu8n2WPv7_J6poW0jgxerpprU0zP751wZlaJd8USLYyA20qqib75CSXz-GKKguohdwTjtTdaH_wwsFtofJ5pFoMxPBNj2uzvx4FUSa6bUIBJPtxz37JSlm0cBXS3jpwPDcnvFpaGZjme8oT2AfdN7-FSl8hPzP0woqffUd6KzXMzZ_5IkgL-W1V8n0zB4kAXBQ4CWh2Y1C2IuUox0lafQEwSgChBZO6f4N7Obju-wifWqMCXugi3HR1gg9Oqxci3ReD1Fog0wvE2Qo64M_8L1wjeeKa2AkQ9-Lqq9gbkbX2LyoHL-3jrgVGMR8ur8EussAkemAscUVI0fwjhZNdyRiGFVkyTS2r3S7fZYmtCw66KwaFzyvE894iSPxOpx6btjG1Y1lthq70KMvFzT8ABsxNaIucNZK1D2dc8pJP7sroJPks3xXhSNzxAzkPV9W2rFBSPCTtAQT8OSmcris7qT337dFOcjRiaxv3y0]--></g></svg>