<?plantuml 1.2026.2?><svg xmlns="http://www.w3.org/2000/svg" xmlns:xlink="http://www.w3.org/1999/xlink" contentStyleType="text/css" data-diagram-type="DESCRIPTION" height="408px" preserveAspectRatio="none" style="width:1446px;height:408px;background:#FFFFFF;" version="1.1" viewBox="0 0 1446 408" width="1446px" zoomAndPan="magnify"><defs/><g><!--cluster abrirRecompensas--><g class="cluster" data-qualified-name="abrirRecompensas" data-source-line="10" id="ent0004"><path d="M170,6 L307.5,6 A3.75,3.75 0 0 1 310,8.5 L317,25.9688 L487,25.9688 A2.5,2.5 0 0 1 489.5,28.4688 L489.5,398.5 A2.5,2.5 0 0 1 487,401 L170,401 A2.5,2.5 0 0 1 167.5,398.5 L167.5,8.5 A2.5,2.5 0 0 1 170,6" fill="none" style="stroke:#000000;stroke-width:1.5;"/><line style="stroke:#000000;stroke-width:1.5;" x1="167.5" x2="317" y1="25.9688" y2="25.9688"/><text fill="#000000" font-family="sans-serif" font-size="12" font-weight="bold" lengthAdjust="spacing" textLength="136.5" x="171.5" y="19.1387">abrirRecompensas()</text></g><!--entity ListarRecompensasView--><g class="entity" data-qualified-name="abrirRecompensas.ListarRecompensasView" data-source-line="11" id="ent0005"><rect fill="#629EF9" height="33.9688" rx="2.5" ry="2.5" style="stroke:#181818;stroke-width:0.5;" width="165.8164" x="307.5" y="38"/><text fill="#000000" font-family="sans-serif" font-size="12" lengthAdjust="spacing" textLength="145.8164" x="317.5" y="59.1387">ListarRecompensasView</text></g><!--entity RecompensaController--><g class="entity" data-qualified-name="abrirRecompensas.RecompensaController" data-source-line="12" id="ent0006"><rect fill="#B5BD68" height="33.9688" rx="2.5" ry="2.5" style="stroke:#181818;stroke-width:0.5;" width="156.8516" x="184" y="147"/><text fill="#000000" font-family="sans-serif" font-size="12" lengthAdjust="spacing" textLength="136.8516" x="194" y="168.1387">RecompensaController</text></g><!--entity RecompensaRepository--><g class="entity" data-qualified-name="abrirRecompensas.RecompensaRepository" data-source-line="13" id="ent0007"><rect fill="#F2AC4E" height="33.9688" rx="2.5" ry="2.5" style="stroke:#181818;stroke-width:0.5;" width="161.9082" x="183.5" y="256"/><text fill="#000000" font-family="sans-serif" font-size="12" lengthAdjust="spacing" textLength="141.9082" x="193.5" y="277.1387">RecompensaRepository</text></g><!--entity Recompensa--><g class="entity" data-qualified-name="abrirRecompensas.Recompensa" data-source-line="14" id="ent0008"><rect fill="#F2AC4E" height="33.9688" rx="2.5" ry="2.5" style="stroke:#181818;stroke-width:0.5;" width="97.5605" x="215.5" y="351"/><text fill="#000000" font-family="sans-serif" font-size="12" lengthAdjust="spacing" textLength="77.5605" x="225.5" y="372.1387">Recompensa</text></g><!--entity NavegacionSistema--><g class="entity" data-qualified-name="NavegacionSistema" data-source-line="7" id="ent0002"><rect fill="#CDEBA5" height="33.9688" rx="2.5" ry="2.5" style="stroke:#181818;stroke-width:0.5;" width="142.8125" x="7" y="38"/><text fill="#000000" font-family="sans-serif" font-size="12" lengthAdjust="spacing" textLength="122.8125" x="17" y="59.1387">Navegaci&#243;n Sistema</text></g><!--entity RecompensasAbiertas--><g class="entity" data-qualified-name="RecompensasAbiertas" data-source-line="8" id="ent0003"><rect fill="#CDEBA5" height="33.9688" rx="2.5" ry="2.5" style="stroke:#181818;stroke-width:0.5;" width="176.3926" x="505.5" y="147"/><text fill="#000000" font-family="sans-serif" font-size="12" lengthAdjust="spacing" textLength="156.3926" x="515.5" y="168.1387">RECOMPENSAS_ABIERTAS</text></g><!--entity AbrirRecompensa--><g class="entity" data-qualified-name="AbrirRecompensa" data-source-line="17" id="ent0009"><rect fill="#CDEBA5" height="33.9688" rx="2.5" ry="2.5" style="stroke:#181818;stroke-width:0.5;" width="214.4199" x="716.5" y="147"/><text fill="#000000" font-family="sans-serif" font-size="12" lengthAdjust="spacing" textLength="194.4199" x="726.5" y="168.1387">:Collaboration AbrirRecompensa</text></g><!--entity CrearRecompensa--><g class="entity" data-qualified-name="CrearRecompensa" data-source-line="18" id="ent0010"><rect fill="#CDEBA5" height="33.9688" rx="2.5" ry="2.5" style="stroke:#181818;stroke-width:0.5;" width="218.375" x="965.5" y="147"/><text fill="#000000" font-family="sans-serif" font-size="12" lengthAdjust="spacing" textLength="198.375" x="975.5" y="168.1387">:Collaboration CrearRecompensa</text></g><!--entity AbrirPanelPrincipal--><g class="entity" data-qualified-name="AbrirPanelPrincipal" data-source-line="19" id="ent0011"><rect fill="#CDEBA5" height="33.9688" rx="2.5" ry="2.5" style="stroke:#181818;stroke-width:0.5;" width="221.1172" x="1219" y="147"/><text fill="#000000" font-family="sans-serif" font-size="12" lengthAdjust="spacing" textLength="201.1172" x="1229" y="168.1387">:Collaboration AbrirPanelPrincipal</text></g><!--link NavegacionSistema to ListarRecompensasView--><g class="link" data-entity-1="ent0002" data-entity-2="ent0005" data-link-type="dependency" data-source-line="21" id="lnk12"><path d="M150.08,55 C196.95,55 252.36,55 301.38,55" fill="none" id="NavegacionSistema-to-ListarRecompensasView" style="stroke:#181818;stroke-width:1;"/><polygon fill="#181818" points="307.38,55,298.38,51,302.38,55,298.38,59,307.38,55" style="stroke:#181818;stroke-width:1;"/><text fill="#000000" font-family="sans-serif" font-size="12" lengthAdjust="spacing" textLength="121.3477" x="168.25" y="49.1387">abrirRecompensas()</text></g><!--link ListarRecompensasView to RecompensaController--><g class="link" data-entity-1="ent0005" data-entity-2="ent0006" data-link-type="dependency" data-source-line="23" id="lnk13"><path d="M357.27,72.09 C329.88,85.35 295.5,102 295.5,102 C295.5,102 283.8059,123.6233 274.0259,141.6933" fill="none" id="ListarRecompensasView-to-RecompensaController" style="stroke:#181818;stroke-width:1;"/><polygon fill="#181818" points="271.17,146.97,278.9717,140.9589,273.5499,142.5727,271.9361,137.151,271.17,146.97" style="stroke:#181818;stroke-width:1;"/><text fill="#000000" font-family="sans-serif" font-size="12" lengthAdjust="spacing" textLength="253.4063" x="296.5" y="114.1387">listarRecompensas() : List&lt;Recompensa&gt;</text></g><!--link RecompensaController to RecompensaRepository--><g class="link" data-entity-1="ent0006" data-entity-2="ent0007" data-link-type="dependency" data-source-line="24" id="lnk14"><path d="M262.8,181.25 C263.18,201.48 263.7068,229.8111 264.0868,249.9511" fill="none" id="RecompensaController-to-RecompensaRepository" style="stroke:#181818;stroke-width:1;"/><polygon fill="#181818" points="264.2,255.95,268.0295,246.8761,264.1057,250.9509,260.0309,247.0271,264.2,255.95" style="stroke:#181818;stroke-width:1;"/><text fill="#000000" font-family="sans-serif" font-size="12" lengthAdjust="spacing" textLength="222.5449" x="264.5" y="223.1387">obtenerTodas() : List&lt;Recompensa&gt;</text></g><!--link RecompensaRepository to Recompensa--><g class="link" data-entity-1="ent0007" data-entity-2="ent0008" data-link-type="association" data-source-line="25" id="lnk15"><path d="M264.5,290.2 C264.5,307.27 264.5,333.99 264.5,350.99" fill="none" id="RecompensaRepository-Recompensa" style="stroke:#181818;stroke-width:1;"/></g><!--link ListarRecompensasView to AbrirRecompensa--><g class="link" data-entity-1="ent0005" data-entity-2="ent0009" data-link-type="dependency" data-source-line="27" id="lnk16"><path d="M473.79,71.64 C544.81,84.97 635.5,102 635.5,102 C635.5,102 712.6927,127.0488 768.4027,145.1188" fill="none" id="ListarRecompensasView-to-AbrirRecompensa" style="stroke:#181818;stroke-width:1;stroke-dasharray:7,7;"/><polygon fill="#181818" points="774.11,146.97,766.7832,140.3883,769.3539,145.4273,764.3149,147.998,774.11,146.97" style="stroke:#181818;stroke-width:1;"/><text fill="#000000" font-family="sans-serif" font-size="12" lengthAdjust="spacing" textLength="200.4082" x="681.5" y="114.1387">abrirRecompensa(recompensaId)</text></g><!--link ListarRecompensasView to CrearRecompensa--><g class="link" data-entity-1="ent0005" data-entity-2="ent0010" data-link-type="dependency" data-source-line="28" id="lnk17"><path d="M473.63,63.65 C615.8,76.73 890.5,102 890.5,102 C890.5,102 965.9447,127.0124 1020.4647,145.0824" fill="none" id="ListarRecompensasView-to-CrearRecompensa" style="stroke:#181818;stroke-width:1;stroke-dasharray:7,7;"/><polygon fill="#181818" points="1026.16,146.97,1018.8754,140.3416,1021.4139,145.397,1016.3586,147.9354,1026.16,146.97" style="stroke:#181818;stroke-width:1;"/><text fill="#000000" font-family="sans-serif" font-size="12" lengthAdjust="spacing" textLength="118.125" x="935.5" y="114.1387">crearRecompensa()</text></g><!--link ListarRecompensasView to AbrirPanelPrincipal--><g class="link" data-entity-1="ent0005" data-entity-2="ent0011" data-link-type="dependency" data-source-line="29" id="lnk18"><path d="M473.57,61.69 C653.37,73.99 1062.5,102 1062.5,102 C1062.5,102 1174.3907,127.5639 1253.5007,145.6339" fill="none" id="ListarRecompensasView-to-AbrirPanelPrincipal" style="stroke:#181818;stroke-width:1;stroke-dasharray:7,7;"/><polygon fill="#181818" points="1259.35,146.97,1251.4667,141.0663,1254.4755,145.8566,1249.6853,148.8654,1259.35,146.97" style="stroke:#181818;stroke-width:1;"/><text fill="#000000" font-family="sans-serif" font-size="12" lengthAdjust="spacing" textLength="121.793" x="1127.5" y="114.1387">abrirPanelPrincipal()</text></g><!--link ListarRecompensasView to RecompensasAbiertas--><g class="link" data-entity-1="ent0005" data-entity-2="ent0003" data-link-type="dependency" data-source-line="31" id="lnk19"><path d="M447.86,72.09 C495.15,85.35 554.5,102 554.5,102 C554.5,102 568.4686,123.8445 580.0186,141.9145" fill="none" id="ListarRecompensasView-to-RecompensasAbiertas" style="stroke:#181818;stroke-width:1;stroke-dasharray:7,7;"/><polygon fill="#181818" points="583.25,146.97,581.7733,137.2325,580.5572,142.7571,575.0326,141.541,583.25,146.97" style="stroke:#181818;stroke-width:1;"/><text fill="#000000" font-family="sans-serif" font-size="12" lengthAdjust="spacing" textLength="62.4551" x="564.5" y="114.1387">&#171;finalizar&#187;</text></g><?plantuml-src ZLJ1Rfj04BtlLupiYtqWKgmaQf25H0YM8hMfPQ9Sgm76P9NrBjhTr7AgVbK_eJzMGX83wtKJJl1ctjl7l07po6MD6ZUGO_5OQVKaoqG9fM7xm2qniw-R1opLbiiArYXClt9DQtmITg6aVQNcej7oDsJycU1qrYiABidkQe9QYTtB0sEQ2eko4WJZv3gzYizXT8i_gSA2__qZ8UF6qWP7W0RUSINVK1zvbIRVlotJsopEViHND-dgBivQzeeAjQb96ZHnpabRD8pLZNci24QOQwvxBPDfIt9X-CMWkRfpHryRAzXlkUUqRRdU2emlPfVfujALwTgIPd9Q2K7QiTqLO9oVv-N5b-CYAwgLuLRfdIFI5M2ycCN9MNfSnA7k2R-zgONDFWZCbKRR90JnS7AjbeDzGYNHXAwAWttMon8bYQNcik0rYixF46ViOCiWq47aJpE4mxrXp1zyK3OglZJ3vhDm29CfXEs9ymwCc7SL7Daktn1KRacIlbFbnugzlGY2djwnjpavYTmu3uOnqVlRctBw7o4dqH2A8J2PVkHY6EARao5uF9aN5S_V8OJvVCqb2lwCEeh-0G00?></g></svg>