<?plantuml 1.2026.2?><svg xmlns="http://www.w3.org/2000/svg" xmlns:xlink="http://www.w3.org/1999/xlink" contentStyleType="text/css" data-diagram-type="DESCRIPTION" height="408px" preserveAspectRatio="none" style="width:1315px;height:408px;background:#FFFFFF;" version="1.1" viewBox="0 0 1315 408" width="1315px" zoomAndPan="magnify"><defs/><g><!--cluster abrirInvestigador--><g class="cluster" data-qualified-name="abrirInvestigador" data-source-line="10" id="ent0004"><path d="M279,6 L409.0059,6 A3.75,3.75 0 0 1 411.5059,8.5 L418.5059,25.9688 L602,25.9688 A2.5,2.5 0 0 1 604.5,28.4688 L604.5,398.5 A2.5,2.5 0 0 1 602,401 L279,401 A2.5,2.5 0 0 1 276.5,398.5 L276.5,8.5 A2.5,2.5 0 0 1 279,6" fill="none" style="stroke:#000000;stroke-width:1.5;"/><line style="stroke:#000000;stroke-width:1.5;" x1="276.5" x2="418.5059" y1="25.9688" y2="25.9688"/><text fill="#000000" font-family="sans-serif" font-size="12" font-weight="bold" lengthAdjust="spacing" textLength="129.0059" x="280.5" y="19.1387">abrirInvestigador()</text></g><!--entity PerfilInvestigadorView--><g class="entity" data-qualified-name="abrirInvestigador.PerfilInvestigadorView" data-source-line="11" id="ent0005"><rect fill="#629EF9" height="33.9688" rx="2.5" ry="2.5" style="stroke:#181818;stroke-width:0.5;" width="153.9688" x="434.5" y="38"/><text fill="#000000" font-family="sans-serif" font-size="12" lengthAdjust="spacing" textLength="133.9688" x="444.5" y="59.1387">PerfilInvestigadorView</text></g><!--entity InvestigadorController--><g class="entity" data-qualified-name="abrirInvestigador.InvestigadorController" data-source-line="12" id="ent0006"><rect fill="#B5BD68" height="33.9688" rx="2.5" ry="2.5" style="stroke:#181818;stroke-width:0.5;" width="154.0742" x="292.5" y="147"/><text fill="#000000" font-family="sans-serif" font-size="12" lengthAdjust="spacing" textLength="134.0742" x="302.5" y="168.1387">InvestigadorController</text></g><!--entity InvestigadorRepository--><g class="entity" data-qualified-name="abrirInvestigador.InvestigadorRepository" data-source-line="13" id="ent0007"><rect fill="#F2AC4E" height="33.9688" rx="2.5" ry="2.5" style="stroke:#181818;stroke-width:0.5;" width="159.1309" x="292" y="256"/><text fill="#000000" font-family="sans-serif" font-size="12" lengthAdjust="spacing" textLength="139.1309" x="302" y="277.1387">InvestigadorRepository</text></g><!--entity Investigador--><g class="entity" data-qualified-name="abrirInvestigador.Investigador" data-source-line="14" id="ent0008"><rect fill="#F2AC4E" height="33.9688" rx="2.5" ry="2.5" style="stroke:#181818;stroke-width:0.5;" width="94.7832" x="324" y="351"/><text fill="#000000" font-family="sans-serif" font-size="12" lengthAdjust="spacing" textLength="74.7832" x="334" y="372.1387">Investigador</text></g><!--entity InvestigadoresAbiertas--><g class="entity" data-qualified-name="InvestigadoresAbiertas" data-source-line="7" id="ent0002"><rect fill="#CDEBA5" height="33.9688" rx="2.5" ry="2.5" style="stroke:#181818;stroke-width:0.5;" width="192.8164" x="7" y="38"/><text fill="#000000" font-family="sans-serif" font-size="12" lengthAdjust="spacing" textLength="172.8164" x="17" y="59.1387">INVESTIGADORES_ABIERTOS</text></g><!--entity InvestigadorAbierto--><g class="entity" data-qualified-name="InvestigadorAbierto" data-source-line="8" id="ent0003"><rect fill="#CDEBA5" height="33.9688" rx="2.5" ry="2.5" style="stroke:#181818;stroke-width:0.5;" width="170" x="620.5" y="147"/><text fill="#000000" font-family="sans-serif" font-size="12" lengthAdjust="spacing" textLength="150" x="630.5" y="168.1387">INVESTIGADOR_ABIERTO</text></g><!--entity AbrirOpcionesPerfil--><g class="entity" data-qualified-name="AbrirOpcionesPerfil" data-source-line="17" id="ent0009"><rect fill="#CDEBA5" height="33.9688" rx="2.5" ry="2.5" style="stroke:#181818;stroke-width:0.5;" width="222.8809" x="826" y="147"/><text fill="#000000" font-family="sans-serif" font-size="12" lengthAdjust="spacing" textLength="202.8809" x="836" y="168.1387">:Collaboration AbrirOpcionesPerfil</text></g><!--entity AbrirInvestigadores--><g class="entity" data-qualified-name="AbrirInvestigadores" data-source-line="18" id="ent0010"><rect fill="#CDEBA5" height="33.9688" rx="2.5" ry="2.5" style="stroke:#181818;stroke-width:0.5;" width="225.2773" x="1084" y="147"/><text fill="#000000" font-family="sans-serif" font-size="12" lengthAdjust="spacing" textLength="205.2773" x="1094" y="168.1387">:Collaboration AbrirInvestigadores</text></g><!--link InvestigadoresAbiertas to PerfilInvestigadorView--><g class="link" data-entity-1="ent0002" data-entity-2="ent0005" data-link-type="dependency" data-source-line="20" id="lnk11"><path d="M200.19,55 C271.71,55 361.83,55 428.25,55" fill="none" id="InvestigadoresAbiertas-to-PerfilInvestigadorView" style="stroke:#181818;stroke-width:1;"/><polygon fill="#181818" points="434.25,55,425.25,51,429.25,55,425.25,59,434.25,55" style="stroke:#181818;stroke-width:1;"/><text fill="#000000" font-family="sans-serif" font-size="12" lengthAdjust="spacing" textLength="198.0527" x="218.25" y="49.1387">abrirInvestigador(investigadorId)</text></g><!--link PerfilInvestigadorView to InvestigadorController--><g class="link" data-entity-1="ent0005" data-entity-2="ent0006" data-link-type="dependency" data-source-line="22" id="lnk12"><path d="M473.38,72.09 C441.94,85.35 402.5,102 402.5,102 C402.5,102 390.8059,123.6233 381.0259,141.6933" fill="none" id="PerfilInvestigadorView-to-InvestigadorController" style="stroke:#181818;stroke-width:1;"/><polygon fill="#181818" points="378.17,146.97,385.9717,140.9589,380.5499,142.5727,378.9361,137.151,378.17,146.97" style="stroke:#181818;stroke-width:1;"/><text fill="#000000" font-family="sans-serif" font-size="12" lengthAdjust="spacing" textLength="258.9668" x="403.5" y="114.1387">obtenerPerfil(investigadorId) : Investigador</text></g><!--link InvestigadorController to InvestigadorRepository--><g class="link" data-entity-1="ent0006" data-entity-2="ent0007" data-link-type="dependency" data-source-line="23" id="lnk13"><path d="M369.8,181.25 C370.18,201.48 370.7068,229.8111 371.0868,249.9511" fill="none" id="InvestigadorController-to-InvestigadorRepository" style="stroke:#181818;stroke-width:1;"/><polygon fill="#181818" points="371.2,255.95,375.0295,246.8761,371.1057,250.9509,367.0309,247.0271,371.2,255.95" style="stroke:#181818;stroke-width:1;"/><text fill="#000000" font-family="sans-serif" font-size="12" lengthAdjust="spacing" textLength="259.1895" x="371.5" y="223.1387">obtenerPorId(investigadorId) : Investigador</text></g><!--link InvestigadorRepository to Investigador--><g class="link" data-entity-1="ent0007" data-entity-2="ent0008" data-link-type="association" data-source-line="24" id="lnk14"><path d="M371.5,290.2 C371.5,307.27 371.5,333.99 371.5,350.99" fill="none" id="InvestigadorRepository-Investigador" style="stroke:#181818;stroke-width:1;"/></g><!--link PerfilInvestigadorView to AbrirOpcionesPerfil--><g class="link" data-entity-1="ent0005" data-entity-2="ent0009" data-link-type="dependency" data-source-line="26" id="lnk15"><path d="M588.78,71.06 C657.6,84.48 747.5,102 747.5,102 C747.5,102 825.5771,127.0661 881.8671,145.1361" fill="none" id="PerfilInvestigadorView-to-AbrirOpcionesPerfil" style="stroke:#181818;stroke-width:1;stroke-dasharray:7,7;"/><polygon fill="#181818" points="887.58,146.97,880.2333,140.4105,882.8193,145.4417,877.7881,148.0277,887.58,146.97" style="stroke:#181818;stroke-width:1;"/><text fill="#000000" font-family="sans-serif" font-size="12" lengthAdjust="spacing" textLength="209.291" x="793.5" y="114.1387">abrirOpcionesPerfil(investigadorId)</text></g><!--link PerfilInvestigadorView to AbrirInvestigadores--><g class="link" data-entity-1="ent0005" data-entity-2="ent0010" data-link-type="dependency" data-source-line="27" id="lnk16"><path d="M588.53,63.09 C728.78,75.99 1011.5,102 1011.5,102 C1011.5,102 1087.3817,127.0214 1142.1917,145.0914" fill="none" id="PerfilInvestigadorView-to-AbrirInvestigadores" style="stroke:#181818;stroke-width:1;stroke-dasharray:7,7;"/><polygon fill="#181818" points="1147.89,146.97,1140.595,140.3532,1143.1414,145.4045,1138.0901,147.9509,1147.89,146.97" style="stroke:#181818;stroke-width:1;"/><text fill="#000000" font-family="sans-serif" font-size="12" lengthAdjust="spacing" textLength="125.9531" x="1056.5" y="114.1387">abrirInvestigadores()</text></g><!--link PerfilInvestigadorView to InvestigadorAbierto--><g class="link" data-entity-1="ent0005" data-entity-2="ent0003" data-link-type="dependency" data-source-line="29" id="lnk17"><path d="M565.71,72.09 C610.41,85.35 666.5,102 666.5,102 C666.5,102 680.4686,123.8445 692.0186,141.9145" fill="none" id="PerfilInvestigadorView-to-InvestigadorAbierto" style="stroke:#181818;stroke-width:1;stroke-dasharray:7,7;"/><polygon fill="#181818" points="695.25,146.97,693.7733,137.2325,692.5572,142.7571,687.0326,141.541,695.25,146.97" style="stroke:#181818;stroke-width:1;"/><text fill="#000000" font-family="sans-serif" font-size="12" lengthAdjust="spacing" textLength="62.4551" x="676.5" y="114.1387">&#171;finalizar&#187;</text></g><?plantuml-src bPF1Ri8m38RlUGeBBd0eqj10eq981ShKovW0SPrIQaf4bbH9689fxxu26srfWAsdnFR_9V7lwZKJ2LNq7KAwMCTARaGqa5mgsAwOGQBFURsYaTmo4SEISftF3759DzoCf30dQSXJbhrWolO83yrSaZE1PfSW99Bl3Xj252uC5J57g0w6VjzhGILucVlJMV3i3SSJV_hczGD_CXjFAq0r1E83jM5nUZ-5sWiPAaFrFSeleuGu0IGXIVeA6YDKQAYOofVKwaTLAGwV1D8lExdoYch9UBvcpd1xLDjJK6qtE_weSmdArmtIHYh9EQhIvRCKLCDM6BMVRe4cc4ZDZ5Ix4YXBGNNKz0QF_YrGINuMVLdjTDD1uJIKYXec1NY7HewJHRf6VUhBaMY9_vLM78gCLemJOXyUS9JJk-AGM_QzndAR8AeJSiLS9qgnThzSaA51WUealKI2Mz2HAwQN3iXyp0uu0F_3pys2unJBhZsqqUZPtFlfNJ5OwjuzPj4pYn-eQ_MRLxFyxovqkqicA6TxgdgzRm00?></g></svg>