<svg xmlns="http://www.w3.org/2000/svg" xmlns:xlink="http://www.w3.org/1999/xlink" contentStyleType="text/css" data-diagram-type="DESCRIPTION" height="1296px" preserveAspectRatio="none" style="width:664px;height:1296px;background:#FFFFFF;" version="1.1" viewBox="0 0 664 1296" width="664px" zoomAndPan="magnify"><title>Casos de uso de Investigador</title><defs/><g><g class="title" data-source-line="1"><text fill="#000000" font-family="sans-serif" font-size="14" font-weight="bold" lengthAdjust="spacing" textLength="232.0869" x="209.2365" y="22.9951">Casos de uso de Investigador</text></g><!--cluster Gesti?n de sesi?n--><g class="cluster" data-qualified-name="Gesti.n de sesi.n" data-source-line="6" id="ent0003"><path d="M448.33,121.2969 L589.5351,121.2969 A3.75,3.75 0 0 1 592.0351,123.7969 L599.0351,143.5938 L610.03,143.5938 A2.5,2.5 0 0 1 612.53,146.0938 L612.53,268.7969 A2.5,2.5 0 0 1 610.03,271.2969 L448.33,271.2969 A2.5,2.5 0 0 1 445.83,268.7969 L445.83,123.7969 A2.5,2.5 0 0 1 448.33,121.2969" fill="none" style="stroke:#000000;stroke-width:1.5;"/><line style="stroke:#000000;stroke-width:1.5;" x1="445.83" x2="599.0351" y1="143.5938" y2="143.5938"/><text fill="#000000" font-family="sans-serif" font-size="14" font-weight="bold" lengthAdjust="spacing" textLength="140.2051" x="449.83" y="136.292">Gesti&#243;n de sesi&#243;n</text></g><!--cluster Gesti?n de perfil--><g class="cluster" data-qualified-name="Gesti.n de perfil" data-source-line="11" id="ent0006"><path d="M412.92,295.2969 L545.6895,295.2969 A3.75,3.75 0 0 1 548.1895,297.7969 L555.1895,317.5938 L645.44,317.5938 A2.5,2.5 0 0 1 647.94,320.0938 L647.94,529.7969 A2.5,2.5 0 0 1 645.44,532.2969 L412.92,532.2969 A2.5,2.5 0 0 1 410.42,529.7969 L410.42,297.7969 A2.5,2.5 0 0 1 412.92,295.2969" fill="none" style="stroke:#000000;stroke-width:1.5;"/><line style="stroke:#000000;stroke-width:1.5;" x1="410.42" x2="555.1895" y1="317.5938" y2="317.5938"/><text fill="#000000" font-family="sans-serif" font-size="14" font-weight="bold" lengthAdjust="spacing" textLength="131.7695" x="414.42" y="310.292">Gesti&#243;n de perfil</text></g><!--cluster Gesti?n de carga de trabajo--><g class="cluster" data-qualified-name="Gesti.n de carga de trabajo" data-source-line="17" id="ent0010"><path d="M403.3,556.2969 L624.2736,556.2969 A3.75,3.75 0 0 1 626.7736,558.7969 L633.7736,578.5938 L655.06,578.5938 A2.5,2.5 0 0 1 657.56,581.0938 L657.56,729.7969 A2.5,2.5 0 0 1 655.06,732.2969 L403.3,732.2969 A2.5,2.5 0 0 1 400.8,729.7969 L400.8,558.7969 A2.5,2.5 0 0 1 403.3,556.2969" fill="none" style="stroke:#000000;stroke-width:1.5;"/><line style="stroke:#000000;stroke-width:1.5;" x1="400.8" x2="633.7736" y1="578.5938" y2="578.5938"/><text fill="#000000" font-family="sans-serif" font-size="14" font-weight="bold" lengthAdjust="spacing" textLength="219.9736" x="404.8" y="571.292">Gesti&#243;n de carga de trabajo</text></g><!--cluster Publicaciones--><g class="cluster" data-qualified-name="Publicaciones" data-source-line="22" id="ent0013"><path d="M8.85,43.2969 L117.9535,43.2969 A3.75,3.75 0 0 1 120.4535,45.7969 L127.4535,65.5938 L222.7,65.5938 A2.5,2.5 0 0 1 225.2,68.0938 L225.2,277.7969 A2.5,2.5 0 0 1 222.7,280.2969 L8.85,280.2969 A2.5,2.5 0 0 1 6.35,277.7969 L6.35,45.7969 A2.5,2.5 0 0 1 8.85,43.2969" fill="none" style="stroke:#000000;stroke-width:1.5;"/><line style="stroke:#000000;stroke-width:1.5;" x1="6.35" x2="127.4535" y1="65.5938" y2="65.5938"/><text fill="#000000" font-family="sans-serif" font-size="14" font-weight="bold" lengthAdjust="spacing" textLength="108.1035" x="10.35" y="58.292">Publicaciones</text></g><!--cluster Mis publicaciones--><g class="cluster" data-qualified-name="Mis publicaciones" data-source-line="28" id="ent0017"><path d="M8.5,304.2969 L149.3018,304.2969 A3.75,3.75 0 0 1 151.8018,306.7969 L158.8018,326.5938 L223.06,326.5938 A2.5,2.5 0 0 1 225.56,329.0938 L225.56,685.7969 A2.5,2.5 0 0 1 223.06,688.2969 L8.5,688.2969 A2.5,2.5 0 0 1 6,685.7969 L6,306.7969 A2.5,2.5 0 0 1 8.5,304.2969" fill="none" style="stroke:#000000;stroke-width:1.5;"/><line style="stroke:#000000;stroke-width:1.5;" x1="6" x2="158.8018" y1="326.5938" y2="326.5938"/><text fill="#000000" font-family="sans-serif" font-size="14" font-weight="bold" lengthAdjust="spacing" textLength="139.8018" x="10" y="319.292">Mis publicaciones</text></g><!--cluster Proyectos--><g class="cluster" data-qualified-name="Proyectos" data-source-line="36" id="ent0023"><path d="M16.34,712.2969 L95.6867,712.2969 A3.75,3.75 0 0 1 98.1867,714.7969 L105.1867,734.5938 L215.22,734.5938 A2.5,2.5 0 0 1 217.72,737.0938 L217.72,1286.7969 A2.5,2.5 0 0 1 215.22,1289.2969 L16.34,1289.2969 A2.5,2.5 0 0 1 13.84,1286.7969 L13.84,714.7969 A2.5,2.5 0 0 1 16.34,712.2969" fill="none" style="stroke:#000000;stroke-width:1.5;"/><line style="stroke:#000000;stroke-width:1.5;" x1="13.84" x2="105.1867" y1="734.5938" y2="734.5938"/><text fill="#000000" font-family="sans-serif" font-size="14" font-weight="bold" lengthAdjust="spacing" textLength="78.3467" x="17.84" y="727.292">Proyectos</text></g><!--cluster Recompensas--><g class="cluster" data-qualified-name="Recompensas" data-source-line="47" id="ent0032"><path d="M431.01,756.2969 L540.387,756.2969 A3.75,3.75 0 0 1 542.887,758.7969 L549.887,778.5938 L627.36,778.5938 A2.5,2.5 0 0 1 629.86,781.0938 L629.86,915.7969 A2.5,2.5 0 0 1 627.36,918.2969 L431.01,918.2969 A2.5,2.5 0 0 1 428.51,915.7969 L428.51,758.7969 A2.5,2.5 0 0 1 431.01,756.2969" fill="none" style="stroke:#000000;stroke-width:1.5;"/><line style="stroke:#000000;stroke-width:1.5;" x1="428.51" x2="549.887" y1="778.5938" y2="778.5938"/><text fill="#000000" font-family="sans-serif" font-size="14" font-weight="bold" lengthAdjust="spacing" textLength="108.377" x="432.51" y="771.292">Recompensas</text></g><!--cluster Investigadores--><g class="cluster" data-qualified-name="Investigadores" data-source-line="54" id="ent0035"><path d="M428.67,942.2969 L547.1319,942.2969 A3.75,3.75 0 0 1 549.6319,944.7969 L556.6319,964.5938 L629.69,964.5938 A2.5,2.5 0 0 1 632.19,967.0938 L632.19,1101.7969 A2.5,2.5 0 0 1 629.69,1104.2969 L428.67,1104.2969 A2.5,2.5 0 0 1 426.17,1101.7969 L426.17,944.7969 A2.5,2.5 0 0 1 428.67,942.2969" fill="none" style="stroke:#000000;stroke-width:1.5;"/><line style="stroke:#000000;stroke-width:1.5;" x1="426.17" x2="556.6319" y1="964.5938" y2="964.5938"/><text fill="#000000" font-family="sans-serif" font-size="14" font-weight="bold" lengthAdjust="spacing" textLength="117.4619" x="430.17" y="957.292">Investigadores</text></g><!--cluster Navegaci?n general--><g class="cluster" data-qualified-name="Navegaci.n general" data-source-line="59" id="ent0038"><path d="M430.78,1128.2969 L588.7195,1128.2969 A3.75,3.75 0 0 1 591.2195,1130.7969 L598.2195,1150.5938 L627.58,1150.5938 A2.5,2.5 0 0 1 630.08,1153.0938 L630.08,1214.7969 A2.5,2.5 0 0 1 627.58,1217.2969 L430.78,1217.2969 A2.5,2.5 0 0 1 428.28,1214.7969 L428.28,1130.7969 A2.5,2.5 0 0 1 430.78,1128.2969" fill="none" style="stroke:#000000;stroke-width:1.5;"/><line style="stroke:#000000;stroke-width:1.5;" x1="428.28" x2="598.2195" y1="1150.5938" y2="1150.5938"/><text fill="#000000" font-family="sans-serif" font-size="14" font-weight="bold" lengthAdjust="spacing" textLength="156.9395" x="432.28" y="1143.292">Navegaci&#243;n general</text></g><!--entity UC_IniciarSesion--><g class="entity" data-qualified-name="Gesti.n de sesi.n.UC_IniciarSesion" data-source-line="7" id="ent0004"><ellipse cx="529.1804" cy="239.2969" fill="#F1F1F1" rx="67.3504" ry="15.8701" style="stroke:#181818;stroke-width:0.5;"/><text fill="#000000" font-family="sans-serif" font-size="14" lengthAdjust="spacing" textLength="99.6201" x="479.3703" y="243.9454">iniciarSesion()</text></g><!--entity UC_CerrarSesion--><g class="entity" data-qualified-name="Gesti.n de sesi.n.UC_CerrarSesion" data-source-line="8" id="ent0005"><ellipse cx="529.1791" cy="172.2947" fill="#F1F1F1" rx="67.1891" ry="15.8378" style="stroke:#181818;stroke-width:0.5;"/><text fill="#000000" font-family="sans-serif" font-size="14" lengthAdjust="spacing" textLength="99.2031" x="479.5775" y="176.9431">cerrarSesion()</text></g><!--entity UC_AbrirOpcionesPerfil--><g class="entity" data-qualified-name="Gesti.n de perfil.UC_AbrirOpcionesPerfil" data-source-line="12" id="ent0007"><ellipse cx="529.1831" cy="496.2955" fill="#F1F1F1" rx="85.7931" ry="19.5586" style="stroke:#181818;stroke-width:0.5;"/><text fill="#000000" font-family="sans-serif" font-size="14" lengthAdjust="spacing" textLength="144.1494" x="457.1083" y="500.9439">abrirOpcionesPerfil()</text></g><!--entity UC_EditarPerfil--><g class="entity" data-qualified-name="Gesti.n de perfil.UC_EditarPerfil" data-source-line="13" id="ent0008"><ellipse cx="529.1804" cy="426.295" fill="#F1F1F1" rx="62.8404" ry="14.9681" style="stroke:#181818;stroke-width:0.5;"/><text fill="#000000" font-family="sans-serif" font-size="14" lengthAdjust="spacing" textLength="87.6572" x="485.3518" y="430.9434">editarPerfil()</text></g><!--entity UC_SolicitarEliminacionPerfil--><g class="entity" data-qualified-name="Gesti.n de perfil.UC_SolicitarEliminacionPerfil" data-source-line="14" id="ent0009"><ellipse cx="529.1803" cy="353.2989" fill="#F1F1F1" rx="102.7603" ry="22.9521" style="stroke:#181818;stroke-width:0.5;"/><text fill="#000000" font-family="sans-serif" font-size="14" lengthAdjust="spacing" textLength="182.123" x="438.1188" y="357.9474">solicitarEliminacionPerfil()</text></g><!--entity UC_AbrirOpcionesCargaTrabajo--><g class="entity" data-qualified-name="Gesti.n de carga de trabajo.UC_AbrirOpcionesCargaTrabajo" data-source-line="18" id="ent0011"><ellipse cx="529.1781" cy="691.2925" fill="#F1F1F1" rx="112.3781" ry="24.8756" style="stroke:#181818;stroke-width:0.5;"/><text fill="#000000" font-family="sans-serif" font-size="14" lengthAdjust="spacing" textLength="203.0137" x="427.6712" y="695.9409">abrirOpcionesCargaTrabajo()</text></g><!--entity UC_EditarCargaTrabajo--><g class="entity" data-qualified-name="Gesti.n de carga de trabajo.UC_EditarCargaTrabajo" data-source-line="19" id="ent0012"><ellipse cx="529.1776" cy="611.2924" fill="#F1F1F1" rx="86.8276" ry="19.7655" style="stroke:#181818;stroke-width:0.5;"/><text fill="#000000" font-family="sans-serif" font-size="14" lengthAdjust="spacing" textLength="146.5215" x="455.9168" y="615.9408">editarCargaTrabajo()</text></g><!--entity UC_AbrirPublicaciones--><g class="entity" data-qualified-name="Publicaciones.UC_AbrirPublicaciones" data-source-line="23" id="ent0014"><ellipse cx="115.7836" cy="245.2976" fill="#F1F1F1" rx="83.5536" ry="19.1107" style="stroke:#181818;stroke-width:0.5;"/><text fill="#000000" font-family="sans-serif" font-size="14" lengthAdjust="spacing" textLength="138.9814" x="46.2929" y="249.946">abrirPublicaciones()</text></g><!--entity UC_AbrirPublicacion--><g class="entity" data-qualified-name="Publicaciones.UC_AbrirPublicacion" data-source-line="24" id="ent0015"><ellipse cx="115.782" cy="173.2973" fill="#F1F1F1" rx="76.802" ry="17.7604" style="stroke:#181818;stroke-width:0.5;"/><text fill="#000000" font-family="sans-serif" font-size="14" lengthAdjust="spacing" textLength="123.0742" x="54.2449" y="177.9457">abrirPublicacion()</text></g><!--entity UC_ResponderPublicacion--><g class="entity" data-qualified-name="Publicaciones.UC_ResponderPublicacion" data-source-line="25" id="ent0016"><ellipse cx="115.7843" cy="99.3017" fill="#F1F1F1" rx="93.4243" ry="21.0849" style="stroke:#181818;stroke-width:0.5;"/><text fill="#000000" font-family="sans-serif" font-size="14" lengthAdjust="spacing" textLength="161.4512" x="35.0587" y="103.9502">responderPublicacion()</text></g><!--entity UC_AbrirMisPublicaciones--><g class="entity" data-qualified-name="Mis publicaciones.UC_AbrirMisPublicaciones" data-source-line="29" id="ent0018"><ellipse cx="115.7784" cy="651.2926" fill="#F1F1F1" rx="93.7784" ry="21.1557" style="stroke:#181818;stroke-width:0.5;"/><text fill="#000000" font-family="sans-serif" font-size="14" lengthAdjust="spacing" textLength="162.2441" x="34.6563" y="655.941">abrirMisPublicaciones()</text></g><!--entity UC_AbrirMiPublicacion--><g class="entity" data-qualified-name="Mis publicaciones.UC_AbrirMiPublicacion" data-source-line="30" id="ent0019"><ellipse cx="115.7802" cy="576.2929" fill="#F1F1F1" rx="83.5802" ry="19.116" style="stroke:#181818;stroke-width:0.5;"/><text fill="#000000" font-family="sans-serif" font-size="14" lengthAdjust="spacing" textLength="139.043" x="46.2587" y="580.9413">abrirMiPublicacion()</text></g><!--entity UC_CrearPublicacion--><g class="entity" data-qualified-name="Mis publicaciones.UC_CrearPublicacion" data-source-line="31" id="ent0020"><ellipse cx="115.7818" cy="504.2932" fill="#F1F1F1" rx="78.2818" ry="18.0564" style="stroke:#181818;stroke-width:0.5;"/><text fill="#000000" font-family="sans-serif" font-size="14" lengthAdjust="spacing" textLength="126.6084" x="52.4776" y="508.9417">crearPublicacion()</text></g><!--entity UC_EditarPublicacion--><g class="entity" data-qualified-name="Mis publicaciones.UC_EditarPublicacion" data-source-line="32" id="ent0021"><ellipse cx="115.7762" cy="432.3001" fill="#F1F1F1" rx="80.3162" ry="18.4632" style="stroke:#181818;stroke-width:0.5;"/><text fill="#000000" font-family="sans-serif" font-size="14" lengthAdjust="spacing" textLength="131.4209" x="50.0657" y="436.9485">editarPublicacion()</text></g><!--entity UC_EliminarPublicacion--><g class="entity" data-qualified-name="Mis publicaciones.UC_EliminarPublicacion" data-source-line="33" id="ent0022"><ellipse cx="115.7833" cy="359.2935" fill="#F1F1F1" rx="87.1833" ry="19.8367" style="stroke:#181818;stroke-width:0.5;"/><text fill="#000000" font-family="sans-serif" font-size="14" lengthAdjust="spacing" textLength="147.335" x="42.1158" y="363.942">eliminarPublicacion()</text></g><!--entity UC_AbrirProyectos--><g class="entity" data-qualified-name="Proyectos.UC_AbrirProyectos" data-source-line="37" id="ent0024"><ellipse cx="115.7845" cy="1256.2978" fill="#F1F1F1" rx="72.4545" ry="16.8909" style="stroke:#181818;stroke-width:0.5;"/><text fill="#000000" font-family="sans-serif" font-size="14" lengthAdjust="spacing" textLength="112.499" x="59.535" y="1260.9462">abrirProyectos()</text></g><!--entity UC_AbrirProyecto--><g class="entity" data-qualified-name="Proyectos.UC_AbrirProyecto" data-source-line="38" id="ent0025"><ellipse cx="115.7754" cy="1188.2939" fill="#F1F1F1" rx="69.5354" ry="16.3071" style="stroke:#181818;stroke-width:0.5;"/><text fill="#000000" font-family="sans-serif" font-size="14" lengthAdjust="spacing" textLength="105.2051" x="63.1728" y="1192.9424">abrirProyecto()</text></g><!--entity UC_AbrirEntregables--><g class="entity" data-qualified-name="Proyectos.UC_AbrirEntregables" data-source-line="39" id="ent0026"><ellipse cx="115.7845" cy="1119.2998" fill="#F1F1F1" rx="78.6645" ry="18.1329" style="stroke:#181818;stroke-width:0.5;"/><text fill="#000000" font-family="sans-serif" font-size="14" lengthAdjust="spacing" textLength="127.5176" x="52.0257" y="1123.9482">abrirEntregables()</text></g><!--entity UC_AbrirEntregable--><g class="entity" data-qualified-name="Proyectos.UC_AbrirEntregable" data-source-line="40" id="ent0027"><ellipse cx="115.7779" cy="1048.3005" fill="#F1F1F1" rx="75.6179" ry="17.5236" style="stroke:#181818;stroke-width:0.5;"/><text fill="#000000" font-family="sans-serif" font-size="14" lengthAdjust="spacing" textLength="120.2236" x="55.6661" y="1052.9489">abrirEntregable()</text></g><!--entity UC_CrearEntregable--><g class="entity" data-qualified-name="Proyectos.UC_CrearEntregable" data-source-line="41" id="ent0028"><ellipse cx="115.7773" cy="978.2943" fill="#F1F1F1" rx="77.0873" ry="17.8175" style="stroke:#181818;stroke-width:0.5;"/><text fill="#000000" font-family="sans-serif" font-size="14" lengthAdjust="spacing" textLength="123.7578" x="53.8984" y="982.9428">crearEntregable()</text></g><!--entity UC_EditarEntregable--><g class="entity" data-qualified-name="Proyectos.UC_EditarEntregable" data-source-line="42" id="ent0029"><ellipse cx="115.7785" cy="907.2986" fill="#F1F1F1" rx="79.1085" ry="18.2217" style="stroke:#181818;stroke-width:0.5;"/><text fill="#000000" font-family="sans-serif" font-size="14" lengthAdjust="spacing" textLength="128.5703" x="51.4934" y="911.947">editarEntregable()</text></g><!--entity UC_EliminarEntregable--><g class="entity" data-qualified-name="Proyectos.UC_EliminarEntregable" data-source-line="43" id="ent0030"><ellipse cx="115.7789" cy="834.2947" fill="#F1F1F1" rx="85.9389" ry="19.5878" style="stroke:#181818;stroke-width:0.5;"/><text fill="#000000" font-family="sans-serif" font-size="14" lengthAdjust="spacing" textLength="144.4844" x="43.5367" y="838.9431">eliminarEntregable()</text></g><!--entity UC_AbrirProyectoDesdeEntregables--><g class="entity" data-qualified-name="Proyectos.UC_AbrirProyectoDesdeEntregables" data-source-line="44" id="ent0031"><ellipse cx="115.7754" cy="763.2939" fill="#F1F1F1" rx="69.5354" ry="16.3071" style="stroke:#181818;stroke-width:0.5;"/><text fill="#000000" font-family="sans-serif" font-size="14" lengthAdjust="spacing" textLength="105.2051" x="63.1728" y="767.9424">abrirProyecto()</text></g><!--entity UC_AbrirRecompensas--><g class="entity" data-qualified-name="Recompensas.UC_AbrirRecompensas" data-source-line="48" id="ent0033"><ellipse cx="529.1838" cy="883.3016" fill="#F1F1F1" rx="84.6738" ry="19.3348" style="stroke:#181818;stroke-width:0.5;"/><text fill="#000000" font-family="sans-serif" font-size="14" lengthAdjust="spacing" textLength="141.5723" x="458.3976" y="887.9501">abrirRecompensas()</text></g><!--entity UC_AbrirRecompensa--><g class="entity" data-qualified-name="Recompensas.UC_AbrirRecompensa" data-source-line="49" id="ent0034"><ellipse cx="529.184" cy="810.2937" fill="#F1F1F1" rx="81.534" ry="18.7068" style="stroke:#181818;stroke-width:0.5;"/><text fill="#000000" font-family="sans-serif" font-size="14" lengthAdjust="spacing" textLength="134.2783" x="462.0449" y="814.9421">abrirRecompensa()</text></g><!--entity UC_AbrirInvestigadores--><g class="entity" data-qualified-name="Investigadores.UC_AbrirInvestigadores" data-source-line="55" id="ent0036"><ellipse cx="529.1828" cy="1068.2994" fill="#F1F1F1" rx="87.0128" ry="19.8026" style="stroke:#181818;stroke-width:0.5;"/><text fill="#000000" font-family="sans-serif" font-size="14" lengthAdjust="spacing" textLength="146.9453" x="455.7102" y="1072.9479">abrirInvestigadores()</text></g><!--entity UC_AbrirInvestigador--><g class="entity" data-qualified-name="Investigadores.UC_AbrirInvestigador" data-source-line="56" id="ent0037"><ellipse cx="529.1836" cy="995.2976" fill="#F1F1F1" rx="80.1536" ry="18.4307" style="stroke:#181818;stroke-width:0.5;"/><text fill="#000000" font-family="sans-serif" font-size="14" lengthAdjust="spacing" textLength="131.0381" x="463.6645" y="999.946">abrirInvestigador()</text></g><!--entity UC_AbrirPanelPrincipal--><g class="entity" data-qualified-name="Navegaci.n general.UC_AbrirPanelPrincipal" data-source-line="60" id="ent0039"><ellipse cx="529.179" cy="1182.2967" fill="#F1F1F1" rx="84.899" ry="19.3798" style="stroke:#181818;stroke-width:0.5;"/><text fill="#000000" font-family="sans-serif" font-size="14" lengthAdjust="spacing" textLength="142.0918" x="458.1331" y="1186.9451">abrirPanelPrincipal()</text></g><!--entity investigador--><g class="entity" data-qualified-name="investigador" data-source-line="4" id="ent0002"><ellipse cx="313.1835" cy="621.6469" fill="#F1F1F1" rx="8" ry="8" style="stroke:#181818;stroke-width:0.5;"/><path d="M313.1835,629.6469 L313.1835,656.6469 M300.1835,637.6469 L326.1835,637.6469 M313.1835,656.6469 L300.1835,671.6469 M313.1835,656.6469 L326.1835,671.6469" fill="none" style="stroke:#181818;stroke-width:0.5;"/><text fill="#000000" font-family="sans-serif" font-size="14" lengthAdjust="spacing" textLength="87.2471" x="269.56" y="686.142">Investigador</text></g><!--link investigador to UC_IniciarSesion--><g class="link" data-entity-1="ent0002" data-entity-2="ent0004" data-link-type="dependency" data-source-line="65" id="lnk40"><path d="M313.45,612.7469 C314.12,545.4069 324.35,404.8969 392.8,314.2969 C416.21,283.3169 450.7032,265.5266 481.2132,254.0666" fill="none" id="investigador-to-UC_IniciarSesion" style="stroke:#181818;stroke-width:1;"/><polygon fill="#181818" points="486.83,251.9569,476.9982,251.377,482.1493,253.715,479.8113,258.8661,486.83,251.9569" style="stroke:#181818;stroke-width:1;"/></g><!--link investigador to UC_CerrarSesion--><g class="link" data-entity-1="ent0002" data-entity-2="ent0005" data-link-type="dependency" data-source-line="66" id="lnk41"><path d="M315.76,612.7169 C320.51,515.7069 337.93,265.2169 392.8,206.2969 C410.47,187.3169 431.1,179.2433 456.02,175.1333" fill="none" id="investigador-to-UC_CerrarSesion" style="stroke:#181818;stroke-width:1;"/><polygon fill="#181818" points="461.94,174.1569,452.409,171.6748,457.0066,174.9705,453.7109,179.5681,461.94,174.1569" style="stroke:#181818;stroke-width:1;"/></g><!--link investigador to UC_AbrirOpcionesPerfil--><g class="link" data-entity-1="ent0002" data-entity-2="ent0007" data-link-type="dependency" data-source-line="68" id="lnk42"><path d="M350.11,613.0169 C362.98,600.3069 377.97,586.5269 392.8,575.2969 C424.36,551.3869 458.4654,531.9216 486.6154,517.1716" fill="none" id="investigador-to-UC_AbrirOpcionesPerfil" style="stroke:#181818;stroke-width:1;"/><polygon fill="#181818" points="491.93,514.3869,482.1016,515.0209,487.5012,516.7075,485.8146,522.1071,491.93,514.3869" style="stroke:#181818;stroke-width:1;"/></g><!--link investigador to UC_EditarPerfil--><g class="link" data-entity-1="ent0002" data-entity-2="ent0008" data-link-type="dependency" data-source-line="69" id="lnk43"><path d="M319.41,612.8269 C327.41,569.1269 346.94,498.7669 392.8,459.2969 C413.25,441.7069 435.6435,434.113 461.0935,430.093" fill="none" id="investigador-to-UC_EditarPerfil" style="stroke:#181818;stroke-width:1;"/><polygon fill="#181818" points="467.02,429.1569,457.5061,426.6101,462.0812,429.937,458.7543,434.5121,467.02,429.1569" style="stroke:#181818;stroke-width:1;"/></g><!--link investigador to UC_SolicitarEliminacionPerfil--><g class="link" data-entity-1="ent0002" data-entity-2="ent0009" data-link-type="dependency" data-source-line="70" id="lnk44"><path d="M315.1,612.9369 C318.54,557.1369 333.17,453.7669 392.8,394.2969 C406.28,380.8569 418.312,373.7064 436.482,367.6064" fill="none" id="investigador-to-UC_SolicitarEliminacionPerfil" style="stroke:#181818;stroke-width:1;"/><polygon fill="#181818" points="442.17,365.6969,432.3649,364.7692,437.43,367.2882,434.911,372.3532,442.17,365.6969" style="stroke:#181818;stroke-width:1;"/></g><!--link investigador to UC_AbrirOpcionesCargaTrabajo--><g class="link" data-entity-1="ent0002" data-entity-2="ent0011" data-link-type="dependency" data-source-line="72" id="lnk45"><path d="M357.23,659.3469 C381.64,663.9069 407.1724,668.6732 436.4024,674.1432" fill="none" id="investigador-to-UC_AbrirOpcionesCargaTrabajo" style="stroke:#181818;stroke-width:1;"/><polygon fill="#181818" points="442.3,675.2469,434.1893,669.6596,437.3853,674.3272,432.7178,677.5231,442.3,675.2469" style="stroke:#181818;stroke-width:1;"/></g><!--link investigador to UC_EditarCargaTrabajo--><g class="link" data-entity-1="ent0002" data-entity-2="ent0012" data-link-type="dependency" data-source-line="73" id="lnk46"><path d="M357.23,643.2469 C387.01,637.6869 421.3323,631.27 455.2823,624.92" fill="none" id="investigador-to-UC_EditarCargaTrabajo" style="stroke:#181818;stroke-width:1;"/><polygon fill="#181818" points="461.18,623.8169,451.598,621.5397,456.2652,624.7361,453.0688,629.4034,461.18,623.8169" style="stroke:#181818;stroke-width:1;"/></g><!--reverse link UC_AbrirPublicaciones to investigador--><g class="link" data-entity-1="ent0014" data-entity-2="ent0002" data-link-type="dependency" data-source-line="75" id="lnk47"><path d="M161.9907,265.1417 C187.7107,278.1917 214.46,295.8969 233.56,323.2969 C296.33,413.3769 309.33,547.4569 311.79,612.7569" fill="none" id="UC_AbrirPublicaciones-backto-investigador" style="stroke:#181818;stroke-width:1;"/><polygon fill="#181818" points="156.64,262.4269,162.8561,270.0663,161.0989,264.6893,166.4759,262.9321,156.64,262.4269" style="stroke:#181818;stroke-width:1;"/></g><!--reverse link UC_AbrirPublicacion to investigador--><g class="link" data-entity-1="ent0015" data-entity-2="ent0002" data-link-type="dependency" data-source-line="76" id="lnk48"><path d="M191.7115,182.5218 C209.4615,187.6818 221.24,194.4669 233.56,208.2969 C286.81,268.0869 305.19,516.1969 310.4,612.6769" fill="none" id="UC_AbrirPublicacion-backto-investigador" style="stroke:#181818;stroke-width:1;"/><polygon fill="#181818" points="185.95,180.8469,193.4756,187.2002,190.7512,182.2426,195.7088,179.5182,185.95,180.8469" style="stroke:#181818;stroke-width:1;"/></g><!--reverse link UC_ResponderPublicacion to investigador--><g class="link" data-entity-1="ent0016" data-entity-2="ent0002" data-link-type="dependency" data-source-line="77" id="lnk49"><path d="M198.5757,113.5996 C213.9657,119.3896 223.02,125.7969 233.56,138.2969 C294.16,210.2069 308.21,505.9469 311.33,612.6669" fill="none" id="UC_ResponderPublicacion-backto-investigador" style="stroke:#181818;stroke-width:1;"/><polygon fill="#181818" points="192.96,111.4869,199.9751,118.3998,197.6398,113.2475,202.7921,110.9122,192.96,111.4869" style="stroke:#181818;stroke-width:1;"/></g><!--reverse link UC_AbrirMisPublicaciones to investigador--><g class="link" data-entity-1="ent0018" data-entity-2="ent0002" data-link-type="dependency" data-source-line="79" id="lnk50"><path d="M215.9,651.2969 C236.74,651.2969 251.86,651.2969 269.45,651.2969" fill="none" id="UC_AbrirMisPublicaciones-backto-investigador" style="stroke:#181818;stroke-width:1;"/><polygon fill="#181818" points="209.9,651.2969,218.9,655.2969,214.9,651.2969,218.9,647.2969,209.9,651.2969" style="stroke:#181818;stroke-width:1;"/></g><!--reverse link UC_AbrirMiPublicacion to investigador--><g class="link" data-entity-1="ent0019" data-entity-2="ent0002" data-link-type="dependency" data-source-line="80" id="lnk51"><path d="M176.6413,592.7064 C196.5913,598.6364 213.46,604.2769 233.56,612.2969 C245.3,616.9869 257.7,622.7369 269.08,628.3569" fill="none" id="UC_AbrirMiPublicacion-backto-investigador" style="stroke:#181818;stroke-width:1;"/><polygon fill="#181818" points="170.89,590.9969,178.3773,597.3954,175.6828,592.4215,180.6566,589.727,170.89,590.9969" style="stroke:#181818;stroke-width:1;"/></g><!--reverse link UC_CrearPublicacion to investigador--><g class="link" data-entity-1="ent0020" data-entity-2="ent0002" data-link-type="dependency" data-source-line="81" id="lnk52"><path d="M185.4852,516.5838 C204.0152,521.8038 217.77,527.9069 233.56,539.2969 C259.66,558.1269 280.16,588.4069 293.67,612.7269" fill="none" id="UC_CrearPublicacion-backto-investigador" style="stroke:#181818;stroke-width:1;"/><polygon fill="#181818" points="179.71,514.9569,187.2882,521.2474,184.5227,516.3126,189.4574,513.5471,179.71,514.9569" style="stroke:#181818;stroke-width:1;"/></g><!--reverse link UC_EditarPublicacion to investigador--><g class="link" data-entity-1="ent0021" data-entity-2="ent0002" data-link-type="dependency" data-source-line="82" id="lnk53"><path d="M189.756,444.1542 C207.486,449.4842 219.75,455.8869 233.56,468.2969 C276,506.4269 296.39,571.4269 305.53,612.8169" fill="none" id="UC_EditarPublicacion-backto-investigador" style="stroke:#181818;stroke-width:1;"/><polygon fill="#181818" points="184.01,442.4269,191.4774,448.8486,188.7983,443.8663,193.7805,441.1873,184.01,442.4269" style="stroke:#181818;stroke-width:1;"/></g><!--reverse link UC_EliminarPublicacion to investigador--><g class="link" data-entity-1="ent0022" data-entity-2="ent0002" data-link-type="dependency" data-source-line="83" id="lnk54"><path d="M194.56,372.2905 C210.97,377.7805 221.42,384.0669 233.56,396.2969 C292.29,455.4869 307.3,557.5069 311.04,612.8669" fill="none" id="UC_EliminarPublicacion-backto-investigador" style="stroke:#181818;stroke-width:1;"/><polygon fill="#181818" points="188.87,370.3869,196.136,377.0356,193.6117,371.9732,198.6741,369.4489,188.87,370.3869" style="stroke:#181818;stroke-width:1;"/></g><!--reverse link UC_AbrirProyectos to investigador--><g class="link" data-entity-1="ent0024" data-entity-2="ent0002" data-link-type="dependency" data-source-line="85" id="lnk55"><path d="M189.9288,1248.7162 C208.4088,1243.8062 221,1236.8469 233.56,1222.2969 C302.71,1142.1969 311.26,804.7069 312.15,689.7969" fill="none" id="UC_AbrirProyectos-backto-investigador" style="stroke:#181818;stroke-width:1;"/><polygon fill="#181818" points="184.13,1250.2569,193.8554,1251.8117,188.9623,1248.973,191.8011,1244.0799,184.13,1250.2569" style="stroke:#181818;stroke-width:1;"/></g><!--reverse link UC_AbrirProyecto to investigador--><g class="link" data-entity-1="ent0025" data-entity-2="ent0002" data-link-type="dependency" data-source-line="86" id="lnk56"><path d="M187.9373,1181.7575 C207.0173,1177.0775 220.42,1170.1169 233.56,1155.2969 C294.78,1086.1969 308.43,795.3369 311.39,689.7769" fill="none" id="UC_AbrirProyecto-backto-investigador" style="stroke:#181818;stroke-width:1;"/><polygon fill="#181818" points="182.11,1183.1869,191.8038,1184.9277,186.9661,1181.9958,189.898,1177.158,182.11,1183.1869" style="stroke:#181818;stroke-width:1;"/></g><!--link investigador to UC_AbrirRecompensas--><g class="link" data-entity-1="ent0002" data-entity-2="ent0033" data-link-type="dependency" data-source-line="88" id="lnk57"><path d="M319.35,689.7369 C327.33,733.8669 346.85,805.4069 392.8,846.2969 C409.19,860.8769 424.9677,868.288 446.0877,873.698" fill="none" id="investigador-to-UC_AbrirRecompensas" style="stroke:#181818;stroke-width:1;"/><polygon fill="#181818" points="451.9,875.1869,444.1741,869.0787,447.0564,873.9462,442.1889,876.8285,451.9,875.1869" style="stroke:#181818;stroke-width:1;"/></g><!--link investigador to UC_AbrirRecompensa--><g class="link" data-entity-1="ent0002" data-entity-2="ent0034" data-link-type="dependency" data-source-line="89" id="lnk58"><path d="M347.41,689.8169 C360.73,704.0569 376.72,719.7769 392.8,732.2969 C424.27,756.7869 458.8779,776.1649 487.2179,790.5249" fill="none" id="investigador-to-UC_AbrirRecompensa" style="stroke:#181818;stroke-width:1;"/><polygon fill="#181818" points="492.57,793.2369,486.3498,785.6009,488.1099,790.9769,482.7338,792.737,492.57,793.2369" style="stroke:#181818;stroke-width:1;"/></g><!--reverse link UC_AbrirEntregables to investigador--><g class="link" data-entity-1="ent0026" data-entity-2="ent0002" data-link-type="dependency" data-source-line="91" id="lnk59"><path d="M191.9847,1109.2653 C209.6347,1103.9453 221.3,1097.0969 233.56,1083.2969 C285.3,1024.9969 304.55,784.1669 310.2,689.6369" fill="none" id="UC_AbrirEntregables-backto-investigador" style="stroke:#181818;stroke-width:1;"/><polygon fill="#181818" points="186.24,1110.9969,196.0114,1112.2294,191.0273,1109.5539,193.7027,1104.5697,186.24,1110.9969" style="stroke:#181818;stroke-width:1;"/></g><!--reverse link UC_CrearEntregable to investigador--><g class="link" data-entity-1="ent0028" data-entity-2="ent0002" data-link-type="dependency" data-source-line="92" id="lnk60"><path d="M190.634,968.4506 C208.484,963.2906 220.57,956.6469 233.56,943.2969 C301.35,873.5669 312.2,751.8469 313.02,689.8969" fill="none" id="UC_CrearEntregable-backto-investigador" style="stroke:#181818;stroke-width:1;"/><polygon fill="#181818" points="184.87,970.1169,194.6268,971.4602,189.6733,968.7283,192.4052,963.7749,184.87,970.1169" style="stroke:#181818;stroke-width:1;"/></g><!--reverse link UC_EditarEntregable to investigador--><g class="link" data-entity-1="ent0029" data-entity-2="ent0002" data-link-type="dependency" data-source-line="93" id="lnk61"><path d="M189.9695,896.0914 C207.7995,890.7714 220.07,884.2069 233.56,871.2969 C284.55,822.5069 302.55,738.4069 308.84,689.5369" fill="none" id="UC_EditarEntregable-backto-investigador" style="stroke:#181818;stroke-width:1;"/><polygon fill="#181818" points="184.22,897.8069,193.988,899.0666,189.0113,896.3773,191.7006,891.4006,184.22,897.8069" style="stroke:#181818;stroke-width:1;"/></g><!--reverse link UC_EliminarEntregable to investigador--><g class="link" data-entity-1="ent0030" data-entity-2="ent0002" data-link-type="dependency" data-source-line="94" id="lnk62"><path d="M190.5687,820.4414 C207.7987,814.9714 219.64,808.8269 233.56,797.2969 C267.37,769.2869 288.8,722.8369 300.6,689.8569" fill="none" id="UC_EliminarEntregable-backto-investigador" style="stroke:#181818;stroke-width:1;"/><polygon fill="#181818" points="184.85,822.2569,194.6384,823.3461,189.6156,820.7439,192.2177,815.7211,184.85,822.2569" style="stroke:#181818;stroke-width:1;"/></g><!--reverse link UC_AbrirProyectoDesdeEntregables to investigador--><g class="link" data-entity-1="ent0031" data-entity-2="ent0002" data-link-type="dependency" data-source-line="95" id="lnk63"><path d="M148.7456,744.9733 C181.1456,726.4033 230.93,697.8669 269.27,675.8869" fill="none" id="UC_AbrirProyectoDesdeEntregables-backto-investigador" style="stroke:#181818;stroke-width:1;"/><polygon fill="#181818" points="143.54,747.9569,153.3375,746.9519,147.878,745.4706,149.3593,740.0111,143.54,747.9569" style="stroke:#181818;stroke-width:1;"/></g><!--link investigador to UC_AbrirInvestigadores--><g class="link" data-entity-1="ent0002" data-entity-2="ent0036" data-link-type="dependency" data-source-line="97" id="lnk64"><path d="M317.12,689.8669 C324.47,776.3469 346.51,982.0069 392.8,1031.2969 C407.15,1046.5669 421.3382,1054.1901 441.5582,1059.6601" fill="none" id="investigador-to-UC_AbrirInvestigadores" style="stroke:#181818;stroke-width:1;"/><polygon fill="#181818" points="447.35,1061.2269,439.7068,1055.0154,442.5235,1059.9212,437.6177,1062.7378,447.35,1061.2269" style="stroke:#181818;stroke-width:1;"/></g><!--link investigador to UC_AbrirInvestigador--><g class="link" data-entity-1="ent0002" data-entity-2="ent0037" data-link-type="dependency" data-source-line="98" id="lnk65"><path d="M316.57,689.8969 C321.86,745.8169 338.79,850.1169 392.8,918.2969 C415.89,947.4369 447.6898,965.1833 477.3198,977.5033" fill="none" id="investigador-to-UC_AbrirInvestigador" style="stroke:#181818;stroke-width:1;"/><polygon fill="#181818" points="482.86,979.8069,476.0855,972.6581,478.2432,977.8872,473.014,980.045,482.86,979.8069" style="stroke:#181818;stroke-width:1;"/></g><!--link investigador to UC_AbrirPanelPrincipal--><g class="link" data-entity-1="ent0002" data-entity-2="ent0039" data-link-type="dependency" data-source-line="100" id="lnk66"><path d="M316.69,689.7269 C323.66,786.4769 345.88,1037.1569 392.8,1104.2969 C413.55,1133.9769 443.9272,1151.6197 473.5572,1163.8997" fill="none" id="investigador-to-UC_AbrirPanelPrincipal" style="stroke:#181818;stroke-width:1;"/><polygon fill="#181818" points="479.1,1166.1969,472.3172,1159.0559,474.481,1164.2825,469.2543,1166.4463,479.1,1166.1969" style="stroke:#181818;stroke-width:1;"/></g><!--SRC=[bLR1ZjCm4BtdAwnSW4F_092gKA4UTbjjuOocpcpMaBKZsrq98RwAJ-37IDgkChPdsf9Be-VtnZDZPrwZYJsg1e8BgaLr26xwMTiN3D5qq3fVzVWOLNJAc-ufgjPurD4uMrMWe_EgfkHQGL26ggi1z0_eKDMV9_3l7pjj431ChxNwLQdnEGJK451zRRwjhT46_6uaE3j5gmr5thwhSqM3tYS2JO29_rj8Oa3_Q7ecX-NU6xyPzAZ7i3soZe6Xn9byLgs9u8aC2S3mTwuV2nmPgzuy6mjJUA8EulAbsZJu3gQNw64FtzsrAfk9_-N4BMkbgsB5HGWiu3pZxM4_5WUdJQGK4zASMm8pIULQLide7Z0CphPOQ3spa1TqPu8QRYbg90frvIjIQNU6BIw1kQ_58nIbwGoKRtKcn1pbbATxMsfBlBWVtlqSfusJxyOhWPpkAoJUYJEXb4YAbOqUEzZtz9m8U5t7oQJ3oLGwnSIZoMIOWHSE9bSMyBLEViBG8jiasbbwi0-etVE0De1uj8GonoEWbDHCuMJdH4WgrBxaxpLbpP5JNCg9idXjtg1xU1cRgO_Zl4EB7aIZseB5VkkDrMO0ObGfVjxWZVgGFsgvspJhPRFUtAzsvN9LKJzNYyN7mgPP1hLbFWPZiooF6YfBa1tqXesfFrtOFg5Ll3UzNopIFp-S3N4ardCAOYMQXxXnQX8ShV03ZbGEVvR537gvY7bqosrxdTHb5F5OoOIuXJJdG-UNs2WoAkK-NIELO_Tg1ue9-nyTIKVKRRmBuTAnyWy0]--></g></svg>