<?xml version="1.0" encoding="us-ascii" standalone="no"?><svg xmlns="http://www.w3.org/2000/svg" xmlns:xlink="http://www.w3.org/1999/xlink" contentStyleType="text/css" height="774px" preserveAspectRatio="none" style="width:564px;height:774px;background:#FFFFFF;" version="1.1" viewBox="0 0 564 774" width="564px" zoomAndPan="magnify"><defs/><g><!--cluster cerrarSesion--><g id="cluster_cerrarSesion"><path d="M199.5,112 L538.5,112 A12.5,12.5 0 0 1 551,124.5 L551,134.6094 L187,134.6094 L187,124.5 A12.5,12.5 0 0 1 199.5,112 " fill="#F1F1F1" style="stroke:#F1F1F1;stroke-width:1.0;"/><rect fill="none" height="516" rx="12.5" ry="12.5" style="stroke:#181818;stroke-width:0.5;" width="364" x="187" y="112"/><line style="stroke:#181818;stroke-width:0.5;" x1="187" x2="551" y1="134.6094" y2="134.6094"/><text fill="#000000" font-family="sans-serif" font-size="14" lengthAdjust="spacing" textLength="91" x="323.5" y="130.5332">cerrarSesion()</text></g><g id="cerrarSesion.SolicitandoCierre"><rect fill="#F1F1F1" height="50" rx="12.5" ry="12.5" style="stroke:#181818;stroke-width:0.5;" width="50" x="229" y="272"/><line style="stroke:#181818;stroke-width:0.5;" x1="229" x2="279" y1="299.6094" y2="299.6094"/><text fill="#000000" font-family="sans-serif" font-size="14" lengthAdjust="spacing" textLength="4" x="252" y="291.5332">&#160;</text></g><g id="cerrarSesion.ConfirmandoCierre"><rect fill="#F1F1F1" height="50" rx="12.5" ry="12.5" style="stroke:#181818;stroke-width:0.5;" width="50" x="229" y="434"/><line style="stroke:#181818;stroke-width:0.5;" x1="229" x2="279" y1="461.6094" y2="461.6094"/><text fill="#000000" font-family="sans-serif" font-size="14" lengthAdjust="spacing" textLength="4" x="252" y="453.5332">&#160;</text></g><g id="elem_c"><polygon fill="#F1F1F1" points="254,580,266,592,254,604,242,592,254,580" style="stroke:#181818;stroke-width:0.5;"/></g><ellipse cx="254" cy="166" fill="#222222" rx="10" ry="10" style="stroke:#222222;stroke-width:1.0;"/><g id="in1"><rect fill="#F1F1F1" height="50" rx="12.5" ry="12.5" style="stroke:#181818;stroke-width:0.5;" width="210" x="90" y="7"/><line style="stroke:#181818;stroke-width:0.5;" x1="90" x2="300" y1="34.6094" y2="34.6094"/><text fill="#000000" font-family="sans-serif" font-size="14" lengthAdjust="spacing" textLength="190" x="100" y="26.5332">PANEL_PRINCIPAL_ABIERTO</text></g><g id="PANEL_PRINCIPAL_ABIERTO"><rect fill="#F1F1F1" height="50" rx="12.5" ry="12.5" style="stroke:#181818;stroke-width:0.5;" width="210" x="7" y="718"/><line style="stroke:#181818;stroke-width:0.5;" x1="7" x2="217" y1="745.6094" y2="745.6094"/><text fill="#000000" font-family="sans-serif" font-size="14" lengthAdjust="spacing" textLength="190" x="17" y="737.5332">PANEL_PRINCIPAL_ABIERTO</text></g><g id="SESION_CERRADA"><rect fill="#F1F1F1" height="50" rx="12.5" ry="12.5" style="stroke:#181818;stroke-width:0.5;" width="145" x="323.5" y="718"/><line style="stroke:#181818;stroke-width:0.5;" x1="323.5" x2="468.5" y1="745.6094" y2="745.6094"/><text fill="#000000" font-family="sans-serif" font-size="14" lengthAdjust="spacing" textLength="125" x="333.5" y="737.5332">SESION_CERRADA</text></g><!--link in1 to cerrarSesion--><g id="link_in1_cerrarSesion"><path d="M195,57.21 C195,66.5875 195,77.8775 195,89.5708 C195,95.4174 195,101.3649 195,107.2245 C195,108.6894 195,104.1488 195,105.5998 " fill="none" id="in1-to-cerrarSesion" style="stroke:#008000;stroke-width:1.0;"/><polygon fill="#008000" points="195,111.5998,199,102.5998,195,106.5998,191,102.5998,195,111.5998" style="stroke:#008000;stroke-width:1.0;"/></g><!--link *start*cerrarSesion to SolicitandoCierre--><g id="link_*start*cerrarSesion_SolicitandoCierre"><path d="M254,176.28 C254,196.09 254,237.09 254,265.96 " fill="none" id="*start*cerrarSesion-to-SolicitandoCierre" style="stroke:#008000;stroke-width:1.0;"/><polygon fill="#008000" points="254,271.96,258,262.96,254,266.96,250,262.96,254,271.96" style="stroke:#008000;stroke-width:1.0;"/><path d="M259,211 L259,237 L483,237 L483,221 L473,211 L259,211 " fill="#FEFFDD" style="stroke:#181818;stroke-width:0.5;"/><path d="M473,211 L473,221 L483,221 L473,211 " fill="#FEFFDD" style="stroke:#181818;stroke-width:0.5;"/><text fill="#000000" font-family="sans-serif" font-size="13" font-weight="bold" lengthAdjust="spacing" textLength="79" x="265" y="229.4951">Coordinador</text><text fill="#000000" font-family="sans-serif" font-size="13" lengthAdjust="spacing" textLength="120" x="348" y="229.4951">solicita cerrar sesi&#243;n</text></g><!--link SolicitandoCierre to ConfirmandoCierre--><g id="link_SolicitandoCierre_ConfirmandoCierre"><path d="M254,322.3 C254,352.55 254,397.89 254,428 " fill="none" id="SolicitandoCierre-to-ConfirmandoCierre" style="stroke:#008000;stroke-width:1.0;"/><polygon fill="#008000" points="254,434,258,425,254,429,250,425,254,434" style="stroke:#008000;stroke-width:1.0;"/><path d="M259,357 L259,399 L453,399 L453,367 L443,357 L259,357 " fill="#FEFFDD" style="stroke:#181818;stroke-width:0.5;"/><path d="M443,357 L443,367 L453,367 L443,357 " fill="#FEFFDD" style="stroke:#181818;stroke-width:0.5;"/><text fill="#000000" font-family="sans-serif" font-size="13" font-weight="bold" lengthAdjust="spacing" textLength="51" x="265" y="375.4951">Sistema</text><text fill="#000000" font-family="sans-serif" font-size="13" lengthAdjust="spacing" textLength="118" x="320" y="375.4951">solicita confirmaci&#243;n</text><text fill="#000000" font-family="sans-serif" font-size="13" lengthAdjust="spacing" textLength="145" x="265" y="391.8467">&#191;Desea cerrar la sesi&#243;n?</text></g><!--link ConfirmandoCierre to c--><g id="link_ConfirmandoCierre_c"><path d="M254,484.03 C254,512.54 254,552.86 254,573.93 " fill="none" id="ConfirmandoCierre-to-c" style="stroke:#008000;stroke-width:1.0;"/><polygon fill="#008000" points="254,579.93,258,570.93,254,574.93,250,570.93,254,579.93" style="stroke:#008000;stroke-width:1.0;"/><path d="M259,519 L259,545 L522,545 L522,529 L512,519 L259,519 " fill="#FEFFDD" style="stroke:#181818;stroke-width:0.5;"/><path d="M512,519 L512,529 L522,529 L512,519 " fill="#FEFFDD" style="stroke:#181818;stroke-width:0.5;"/><text fill="#000000" font-family="sans-serif" font-size="13" font-weight="bold" lengthAdjust="spacing" textLength="79" x="265" y="537.4951">Coordinador</text><text fill="#000000" font-family="sans-serif" font-size="13" lengthAdjust="spacing" textLength="159" x="348" y="537.4951">confirma o cancela el cierre</text></g><!--link c to PANEL_PRINCIPAL_ABIERTO--><g id="link_c_PANEL_PRINCIPAL_ABIERTO"><path d="M245.79,596.34 C215.11,608.82 109,652 109,652 C109,652 109,688 109,688 C109,688 109.5265,697.4793 110.3265,711.8493 " fill="none" id="c-to-PANEL_PRINCIPAL_ABIERTO" style="stroke:#0000FF;stroke-width:1.0;"/><polygon fill="#0000FF" points="110.66,717.84,114.1535,708.6316,110.3821,712.8477,106.1659,709.0763,110.66,717.84" style="stroke:#0000FF;stroke-width:1.0;"/><path d="M114,657 L114,683 L348,683 L348,667 L338,657 L114,657 " fill="#FEFFDD" style="stroke:#181818;stroke-width:0.5;"/><path d="M338,657 L338,667 L348,667 L338,657 " fill="#FEFFDD" style="stroke:#181818;stroke-width:0.5;"/><text fill="#000000" font-family="sans-serif" font-size="13" font-weight="bold" lengthAdjust="spacing" textLength="79" x="120" y="675.4951">Coordinador</text><text fill="#000000" font-family="sans-serif" font-size="13" lengthAdjust="spacing" textLength="130" x="203" y="675.4951">solicita cancelar cierre</text></g><!--link c to SESION_CERRADA--><g id="link_c_SESION_CERRADA"><path d="M261.08,597.06 C284.35,610.39 357,652 357,652 C357,652 371.6148,685.7145 383.1648,712.3745 " fill="none" id="c-to-SESION_CERRADA" style="stroke:#008000;stroke-width:1.0;"/><polygon fill="#008000" points="385.55,717.88,385.6426,708.0316,383.5623,713.2921,378.3019,711.2118,385.55,717.88" style="stroke:#008000;stroke-width:1.0;"/><path d="M377,657 L377,683 L527,683 L527,667 L517,657 L377,657 " fill="#FEFFDD" style="stroke:#181818;stroke-width:0.5;"/><path d="M517,657 L517,667 L527,667 L517,657 " fill="#FEFFDD" style="stroke:#181818;stroke-width:0.5;"/><text fill="#000000" font-family="sans-serif" font-size="13" font-weight="bold" lengthAdjust="spacing" textLength="51" x="383" y="675.4951">Sistema</text><text fill="#000000" font-family="sans-serif" font-size="13" lengthAdjust="spacing" textLength="74" x="438" y="675.4951">cierra sesi&#243;n</text></g><!--SRC=[ZPBFJeGm4CRlVOe9NjHaOxmJ3B8SI3Oi0M-R3UcMKPk5bhHus1YVoWSmqHUp_5qGD9PJ9zzyls-cw2CN9LMqW9mBh4ubGYdpKtqXH5UqGk3Y5gW6At93VvD6SH1wGUHkKlS-yEE7hKLgmMftyQGGnNxb04Ebg4fGSobwat6jSHiNBgyiU2K4p6dLblcCA94vPxoY8fCUDtgSIpmf7hag5YKCR9izIyxGSLhttVL-adGP8AHfDZ7D4evDmJuudfGguu9cKjat1mTqrzaD1jeCylKk6ZcAhF5ecJF69C5o_gK42TSL5lG7lMjd0_ppOuqQXrmvxQFTBMIRqQVl-Ezjz3500gE2eQ5Y3kmyq81z8uJLa4F-WZNZbv-AJAX_xh_bgPvs7f1DdzfFWcsOUduSksjtvZ_URkCqx6taIBu1]--></g></svg>