<svg xmlns="http://www.w3.org/2000/svg" xmlns:xlink="http://www.w3.org/1999/xlink" contentStyleType="text/css" data-diagram-type="CLASS" height="847px" preserveAspectRatio="none" style="width:2818px;height:847px;background:#FFFFFF;" version="1.1" viewBox="0 0 2818 847" width="2818px" zoomAndPan="magnify"><title>Instancia unificada del sistema de investigadores y gesti&#243;n de proyectos</title><defs/><g><g class="title" data-source-line="1"><text fill="#000000" font-family="sans-serif" font-size="14" font-weight="bold" lengthAdjust="spacing" textLength="577.1104" x="1113.6645" y="22.9951">Instancia unificada del sistema de investigadores y gesti&#243;n de proyectos</text></g><g class="entity" data-qualified-name="Mar" data-source-line="6" id="ent0002"><rect fill="#F1F1F1" height="91.1563" rx="2.5" ry="2.5" style="stroke:#181818;stroke-width:0.5;" width="184.9971" x="1119.28" y="44.627"/><text fill="#000000" font-family="sans-serif" font-size="12" font-style="italic" lengthAdjust="spacing" textLength="88.4824" x="1167.5373" y="55.7656">&#171;Coordinador&#187;</text><text fill="#000000" font-family="sans-serif" font-size="14" lengthAdjust="spacing" textLength="26.4141" x="1198.5715" y="73.5908">Mar</text><line style="stroke:#181818;stroke-width:0.5;" x1="1120.28" x2="1303.2771" y1="78.8926" y2="78.8926"/><text fill="#000000" font-family="sans-serif" font-size="14" lengthAdjust="spacing" textLength="114.2559" x="1125.28" y="95.8877">nombre = "Mar"</text><text fill="#000000" font-family="sans-serif" font-size="14" lengthAdjust="spacing" textLength="172.9971" x="1125.28" y="112.1846">ubicacion = "Santander"</text><text fill="#000000" font-family="sans-serif" font-size="14" lengthAdjust="spacing" textLength="77.9434" x="1125.28" y="128.4814">id = 12345</text></g><g class="entity" data-qualified-name="Manuel" data-source-line="12" id="ent0003"><rect fill="#FFAAAA" height="91.1563" rx="2.5" ry="2.5" style="stroke:#181818;stroke-width:0.5;" width="173" x="1352.28" y="212.777"/><text fill="#000000" font-family="sans-serif" font-size="12" font-style="italic" lengthAdjust="spacing" textLength="139.7227" x="1368.9187" y="223.9156">&#171;InvestigadorDocente&#187;</text><text fill="#000000" font-family="sans-serif" font-size="14" lengthAdjust="spacing" textLength="50.9072" x="1413.3264" y="241.7408">Manuel</text><line style="stroke:#181818;stroke-width:0.5;" x1="1353.28" x2="1524.28" y1="247.0426" y2="247.0426"/><text fill="#000000" font-family="sans-serif" font-size="14" lengthAdjust="spacing" textLength="138.749" x="1358.28" y="264.0377">nombre = "Manuel"</text><text fill="#000000" font-family="sans-serif" font-size="14" lengthAdjust="spacing" textLength="95.7578" x="1358.28" y="280.3346">id = 1234567</text><text fill="#000000" font-family="sans-serif" font-size="14" lengthAdjust="spacing" textLength="161" x="1358.28" y="296.6314">campo = "Inform&#225;tica"</text></g><g class="entity" data-qualified-name="Lazaro" data-source-line="18" id="ent0004"><rect fill="#FFAAAA" height="91.1563" rx="2.5" ry="2.5" style="stroke:#181818;stroke-width:0.5;" width="156.5596" x="1502.5" y="397.227"/><text fill="#000000" font-family="sans-serif" font-size="12" font-style="italic" lengthAdjust="spacing" textLength="139.7227" x="1510.9185" y="408.3656">&#171;InvestigadorDocente&#187;</text><text fill="#000000" font-family="sans-serif" font-size="14" lengthAdjust="spacing" textLength="46.6279" x="1557.4658" y="426.1908">Lazaro</text><line style="stroke:#181818;stroke-width:0.5;" x1="1503.5" x2="1658.0596" y1="431.4926" y2="431.4926"/><text fill="#000000" font-family="sans-serif" font-size="14" lengthAdjust="spacing" textLength="134.4697" x="1508.5" y="448.4877">nombre = "L&#225;zaro"</text><text fill="#000000" font-family="sans-serif" font-size="14" lengthAdjust="spacing" textLength="104.665" x="1508.5" y="464.7846">id = 12345678</text><text fill="#000000" font-family="sans-serif" font-size="14" lengthAdjust="spacing" textLength="144.5596" x="1508.5" y="481.0814">campo = "Sistemas"</text></g><g class="entity" data-qualified-name="Mariano" data-source-line="24" id="ent0005"><rect fill="#F1F1F1" height="91.1563" rx="2.5" ry="2.5" style="stroke:#181818;stroke-width:0.5;" width="297.1475" x="601.2" y="397.227"/><text fill="#000000" font-family="sans-serif" font-size="12" font-style="italic" lengthAdjust="spacing" textLength="88.2305" x="705.6585" y="408.3656">&#171;Colaborador&#187;</text><text fill="#000000" font-family="sans-serif" font-size="14" lengthAdjust="spacing" textLength="56.3213" x="721.6131" y="426.1908">Mariano</text><line style="stroke:#181818;stroke-width:0.5;" x1="602.2" x2="897.3475" y1="431.4926" y2="431.4926"/><text fill="#000000" font-family="sans-serif" font-size="14" lengthAdjust="spacing" textLength="144.1631" x="607.2" y="448.4877">nombre = "Mariano"</text><text fill="#000000" font-family="sans-serif" font-size="14" lengthAdjust="spacing" textLength="86.8506" x="607.2" y="464.7846">id = 123456</text><text fill="#000000" font-family="sans-serif" font-size="14" lengthAdjust="spacing" textLength="285.1475" x="607.2" y="481.0814">asociacion = "Universidad de Cantabria"</text></g><g class="entity" data-qualified-name="PerfilManuel" data-source-line="33" id="ent0006"><rect fill="#F1F1F1" height="123.75" rx="2.5" ry="2.5" style="stroke:#181818;stroke-width:0.5;" width="321.3193" x="2490.12" y="380.937"/><text fill="#000000" font-family="sans-serif" font-size="12" font-style="italic" lengthAdjust="spacing" textLength="119.9121" x="2590.8236" y="392.0756">&#171;PerfilInvestigador&#187;</text><text fill="#000000" font-family="sans-serif" font-size="14" lengthAdjust="spacing" textLength="86.4268" x="2607.5663" y="409.9008">PerfilManuel</text><line style="stroke:#181818;stroke-width:0.5;" x1="2491.12" x2="2810.4393" y1="415.2026" y2="415.2026"/><text fill="#000000" font-family="sans-serif" font-size="14" lengthAdjust="spacing" textLength="138.749" x="2496.12" y="432.1977">nombre = "Manuel"</text><text fill="#000000" font-family="sans-serif" font-size="14" lengthAdjust="spacing" textLength="136.4248" x="2496.12" y="448.4946">apellido = "Masias"</text><text fill="#000000" font-family="sans-serif" font-size="14" lengthAdjust="spacing" textLength="48.7197" x="2496.12" y="464.7914">dni = "</text><text fill="#000000" font-family="sans-serif" font-size="14" font-weight="bold" lengthAdjust="spacing" textLength="7.3213" x="2544.8397" y="464.7914">*</text><text fill="#000000" font-family="sans-serif" font-size="14" lengthAdjust="spacing" textLength="27.4395" x="2552.161" y="464.7914">***"</text><text fill="#000000" font-family="sans-serif" font-size="14" lengthAdjust="spacing" textLength="195.1592" x="2496.12" y="481.0883">carrera = "Ing. Inform&#225;tica"</text><text fill="#000000" font-family="sans-serif" font-size="14" lengthAdjust="spacing" textLength="309.3193" x="2496.12" y="497.3852">master = "Direcci&#243;n de proyectos software"</text></g><g class="entity" data-qualified-name="PerfilLazaro" data-source-line="41" id="ent0007"><rect fill="#F1F1F1" height="123.75" rx="2.5" ry="2.5" style="stroke:#181818;stroke-width:0.5;" width="250.1777" x="1530.69" y="581.687"/><text fill="#000000" font-family="sans-serif" font-size="12" font-style="italic" lengthAdjust="spacing" textLength="119.9121" x="1595.8228" y="592.8256">&#171;PerfilInvestigador&#187;</text><text fill="#000000" font-family="sans-serif" font-size="14" lengthAdjust="spacing" textLength="82.1475" x="1614.7051" y="610.6508">PerfilLazaro</text><line style="stroke:#181818;stroke-width:0.5;" x1="1531.69" x2="1779.8677" y1="615.9526" y2="615.9526"/><text fill="#000000" font-family="sans-serif" font-size="14" lengthAdjust="spacing" textLength="134.4697" x="1536.69" y="632.9477">nombre = "L&#225;zaro"</text><text fill="#000000" font-family="sans-serif" font-size="14" lengthAdjust="spacing" textLength="164.7803" x="1536.69" y="649.2446">apellido = "Hernandez"</text><text fill="#000000" font-family="sans-serif" font-size="14" lengthAdjust="spacing" textLength="48.7197" x="1536.69" y="665.5414">dni = "</text><text fill="#000000" font-family="sans-serif" font-size="14" font-weight="bold" lengthAdjust="spacing" textLength="7.3213" x="1585.4097" y="665.5414">*</text><text fill="#000000" font-family="sans-serif" font-size="14" lengthAdjust="spacing" textLength="27.4395" x="1592.731" y="665.5414">***"</text><text fill="#000000" font-family="sans-serif" font-size="14" lengthAdjust="spacing" textLength="195.1592" x="1536.69" y="681.8383">carrera = "Ing. Inform&#225;tica"</text><text fill="#000000" font-family="sans-serif" font-size="14" lengthAdjust="spacing" textLength="238.1777" x="1536.69" y="698.1352">master = "Sistemas inform&#225;ticos"</text></g><g class="entity" data-qualified-name="CargaTrabajoManuel" data-source-line="49" id="ent0008"><rect fill="#F1F1F1" height="74.8594" rx="2.5" ry="2.5" style="stroke:#181818;stroke-width:0.5;" width="182.5771" x="1004.49" y="405.377"/><text fill="#000000" font-family="sans-serif" font-size="12" font-style="italic" lengthAdjust="spacing" textLength="95.584" x="1047.9866" y="416.5156">&#171;CargaTrabajo&#187;</text><text fill="#000000" font-family="sans-serif" font-size="14" lengthAdjust="spacing" textLength="145.291" x="1023.1331" y="434.3408">CargaTrabajoManuel</text><line style="stroke:#181818;stroke-width:0.5;" x1="1005.49" x2="1186.0671" y1="439.6426" y2="439.6426"/><text fill="#000000" font-family="sans-serif" font-size="14" lengthAdjust="spacing" textLength="115.6641" x="1010.49" y="456.6377">horasClase = 40</text><text fill="#000000" font-family="sans-serif" font-size="14" lengthAdjust="spacing" textLength="170.5771" x="1010.49" y="472.9346">horasInvestigacion = 10</text></g><g class="entity" data-qualified-name="CargaTrabajoLazaro" data-source-line="54" id="ent0009"><rect fill="#F1F1F1" height="74.8594" rx="2.5" ry="2.5" style="stroke:#181818;stroke-width:0.5;" width="182.5771" x="1313.49" y="606.127"/><text fill="#000000" font-family="sans-serif" font-size="12" font-style="italic" lengthAdjust="spacing" textLength="95.584" x="1356.9866" y="617.2656">&#171;CargaTrabajo&#187;</text><text fill="#000000" font-family="sans-serif" font-size="14" lengthAdjust="spacing" textLength="141.0117" x="1334.2727" y="635.0908">CargaTrabajoLazaro</text><line style="stroke:#181818;stroke-width:0.5;" x1="1314.49" x2="1495.0671" y1="640.3926" y2="640.3926"/><text fill="#000000" font-family="sans-serif" font-size="14" lengthAdjust="spacing" textLength="115.6641" x="1319.49" y="657.3877">horasClase = 30</text><text fill="#000000" font-family="sans-serif" font-size="14" lengthAdjust="spacing" textLength="170.5771" x="1319.49" y="673.6846">horasInvestigacion = 20</text></g><g class="entity" data-qualified-name="ID2025" data-source-line="62" id="ent0010"><rect fill="#F1F1F1" height="58.5625" rx="2.5" ry="2.5" style="stroke:#181818;stroke-width:0.5;" width="412.4766" x="376.54" y="229.077"/><text fill="#000000" font-family="sans-serif" font-size="12" font-style="italic" lengthAdjust="spacing" textLength="94.0723" x="535.7421" y="240.2156">&#171;Convocatoria&#187;</text><text fill="#000000" font-family="sans-serif" font-size="14" lengthAdjust="spacing" textLength="50.5381" x="557.5092" y="258.0408">ID2025</text><line style="stroke:#181818;stroke-width:0.5;" x1="377.54" x2="788.0166" y1="263.3426" y2="263.3426"/><text fill="#000000" font-family="sans-serif" font-size="14" lengthAdjust="spacing" textLength="400.4766" x="382.54" y="280.3377">descripcion = "Convocatoria de investigaci&#243;n sobre IA..."</text></g><g class="entity" data-qualified-name="DeepVision" data-source-line="66" id="ent0011"><rect fill="#F1F1F1" height="58.5625" rx="2.5" ry="2.5" style="stroke:#181818;stroke-width:0.5;" width="487.5557" x="7" y="413.527"/><text fill="#000000" font-family="sans-serif" font-size="12" font-style="italic" lengthAdjust="spacing" textLength="75.1113" x="213.2222" y="424.6656">&#171;Propuesta&#187;</text><text fill="#000000" font-family="sans-serif" font-size="14" lengthAdjust="spacing" textLength="78.9824" x="211.2866" y="442.4908">DeepVision</text><line style="stroke:#181818;stroke-width:0.5;" x1="8" x2="493.5557" y1="447.7926" y2="447.7926"/><text fill="#000000" font-family="sans-serif" font-size="14" lengthAdjust="spacing" textLength="475.5557" x="13" y="464.7877">descripcion = "Un sistema capaz de realizar an&#225;lisis mediante IA..."</text></g><g class="entity" data-qualified-name="ProyectoIA" data-source-line="70" id="ent0012"><rect fill="#F1F1F1" height="74.8594" rx="2.5" ry="2.5" style="stroke:#181818;stroke-width:0.5;" width="394.4365" x="753.56" y="606.127"/><text fill="#000000" font-family="sans-serif" font-size="12" font-style="italic" lengthAdjust="spacing" textLength="67.3242" x="917.1162" y="617.2656">&#171;Proyecto&#187;</text><text fill="#000000" font-family="sans-serif" font-size="14" lengthAdjust="spacing" textLength="75.1201" x="913.2182" y="635.0908">ProyectoIA</text><line style="stroke:#181818;stroke-width:0.5;" x1="754.56" x2="1146.9965" y1="640.3926" y2="640.3926"/><text fill="#000000" font-family="sans-serif" font-size="14" lengthAdjust="spacing" textLength="382.4365" x="759.56" y="657.3877">descripcion = "Implementar un modelo de lenguaje..."</text><text fill="#000000" font-family="sans-serif" font-size="14" lengthAdjust="spacing" textLength="196.2119" x="759.56" y="673.6846">fechaLimite = "31/12/2026"</text></g><g class="entity" data-qualified-name="PublicacionManuel" data-source-line="78" id="ent0013"><rect fill="#F1F1F1" height="91.1563" rx="2.5" ry="2.5" style="stroke:#181818;stroke-width:0.5;" width="609.1875" x="1933.18" y="597.977"/><text fill="#000000" font-family="sans-serif" font-size="12" font-style="italic" lengthAdjust="spacing" textLength="82.6406" x="2196.4534" y="609.1156">&#171;Publicacion&#187;</text><text fill="#000000" font-family="sans-serif" font-size="14" lengthAdjust="spacing" textLength="130.1904" x="2172.6785" y="626.9408">PublicacionManuel</text><line style="stroke:#181818;stroke-width:0.5;" x1="1934.18" x2="2541.3675" y1="632.2426" y2="632.2426"/><text fill="#000000" font-family="sans-serif" font-size="14" lengthAdjust="spacing" textLength="597.1875" x="1939.18" y="649.2377">tituloPublicacion = "Nueva funcion de los modelos de lenguaje, util para el proyecto"</text><text fill="#000000" font-family="sans-serif" font-size="14" lengthAdjust="spacing" textLength="380.6045" x="1939.18" y="665.5346">respuestasPublicacion = "Muchas gracias, lo revisar&#233;"</text><text fill="#000000" font-family="sans-serif" font-size="14" lengthAdjust="spacing" textLength="192.623" x="1939.18" y="681.8314">idsRespuestas = 12345678</text></g><g class="entity" data-qualified-name="Entregable01Manuel" data-source-line="87" id="ent0014"><rect fill="#F1F1F1" height="58.5625" rx="2.5" ry="2.5" style="stroke:#181818;stroke-width:0.5;" width="225.2197" x="2103.17" y="782.437"/><text fill="#000000" font-family="sans-serif" font-size="12" font-style="italic" lengthAdjust="spacing" textLength="86.4492" x="2172.5553" y="793.5756">&#171;Entregables&#187;</text><text fill="#000000" font-family="sans-serif" font-size="14" lengthAdjust="spacing" textLength="145.1543" x="2143.2027" y="811.4008">Entregable01Manuel</text><line style="stroke:#181818;stroke-width:0.5;" x1="2104.17" x2="2327.3897" y1="816.7026" y2="816.7026"/><text fill="#000000" font-family="sans-serif" font-size="14" lengthAdjust="spacing" textLength="213.2197" x="2109.17" y="833.6977">descripcion = "Informe inicial"</text></g><g class="entity" data-qualified-name="Entregable02Lazaro" data-source-line="91" id="ent0015"><rect fill="#F1F1F1" height="58.5625" rx="2.5" ry="2.5" style="stroke:#181818;stroke-width:0.5;" width="297.8174" x="1389.87" y="782.437"/><text fill="#000000" font-family="sans-serif" font-size="12" font-style="italic" lengthAdjust="spacing" textLength="86.4492" x="1495.5541" y="793.5756">&#171;Entregables&#187;</text><text fill="#000000" font-family="sans-serif" font-size="14" lengthAdjust="spacing" textLength="140.875" x="1468.3412" y="811.4008">Entregable02Lazaro</text><line style="stroke:#181818;stroke-width:0.5;" x1="1390.87" x2="1686.6874" y1="816.7026" y2="816.7026"/><text fill="#000000" font-family="sans-serif" font-size="14" lengthAdjust="spacing" textLength="285.8174" x="1395.87" y="833.6977">descripcion = "Primera implementaci&#243;n"</text></g><g class="entity" data-qualified-name="RemuneracionManuel" data-source-line="98" id="ent0016"><rect fill="#F1F1F1" height="58.5625" rx="2.5" ry="2.5" style="stroke:#181818;stroke-width:0.5;" width="166.6055" x="646.48" y="782.437"/><text fill="#000000" font-family="sans-serif" font-size="12" font-style="italic" lengthAdjust="spacing" textLength="92.2441" x="683.6607" y="793.5756">&#171;Recompensa&#187;</text><text fill="#000000" font-family="sans-serif" font-size="14" lengthAdjust="spacing" textLength="152.6055" x="653.48" y="811.4008">RemuneracionManuel</text><line style="stroke:#181818;stroke-width:0.5;" x1="647.48" x2="812.0855" y1="816.7026" y2="816.7026"/><text fill="#000000" font-family="sans-serif" font-size="14" lengthAdjust="spacing" textLength="126.0479" x="652.48" y="833.6977">cantidad = 20000</text></g><g class="entity" data-qualified-name="ReduccionHorarioLazaro" data-source-line="102" id="ent0017"><rect fill="#F1F1F1" height="58.5625" rx="2.5" ry="2.5" style="stroke:#181818;stroke-width:0.5;" width="185.0898" x="944.23" y="782.437"/><text fill="#000000" font-family="sans-serif" font-size="12" font-style="italic" lengthAdjust="spacing" textLength="92.2441" x="990.6529" y="793.5756">&#171;Recompensa&#187;</text><text fill="#000000" font-family="sans-serif" font-size="14" lengthAdjust="spacing" textLength="171.0898" x="951.23" y="811.4008">ReduccionHorarioLazaro</text><line style="stroke:#181818;stroke-width:0.5;" x1="945.23" x2="1128.3198" y1="816.7026" y2="816.7026"/><text fill="#000000" font-family="sans-serif" font-size="14" lengthAdjust="spacing" textLength="103.4414" x="950.23" y="833.6977">reduccion = -4</text></g><!--link Mar to Manuel--><g class="link" data-entity-1="ent0002" data-entity-2="ent0003" data-link-type="dependency" data-source-line="109" id="lnk18"><path codeLine="109" d="M1273.21,136.167 C1305.51,159.807 1340.1484,185.1631 1372.4584,208.8131" fill="none" id="Mar-to-Manuel" style="stroke:#181818;stroke-width:1;"/><polygon fill="#181818" points="1377.3,212.357,1372.4002,203.8134,1373.2654,209.4037,1367.675,210.2688,1377.3,212.357" style="stroke:#181818;stroke-width:1;"/><text fill="#000000" font-family="sans-serif" font-size="13" lengthAdjust="spacing" textLength="45.4048" x="1333.78" y="178.8438">recluta</text></g><!--link Mar to Lazaro--><g class="link" data-entity-1="ent0002" data-entity-2="ent0004" data-link-type="dependency" data-source-line="110" id="lnk19"><path codeLine="110" d="M1304.59,93.567 C1578.25,102.667 2372.62,145.187 2529.78,333.937 C2586.48,402.037 2222.02,372.737 2133.78,380.937 C1964.51,396.657 1772.5679,418.8275 1665.4079,431.5875" fill="none" id="Mar-to-Lazaro" style="stroke:#181818;stroke-width:1;"/><polygon fill="#181818" points="1659.45,432.297,1668.8598,435.2047,1664.4149,431.7058,1667.9139,427.2609,1659.45,432.297" style="stroke:#181818;stroke-width:1;"/><text fill="#000000" font-family="sans-serif" font-size="13" lengthAdjust="spacing" textLength="45.4048" x="2489.78" y="262.9238">recluta</text></g><!--link Manuel to Lazaro--><g class="link" data-entity-1="ent0003" data-entity-2="ent0004" data-link-type="dependency" data-source-line="112" id="lnk20"><path codeLine="112" d="M1446.76,304.147 C1450.98,319.867 1457.33,337.047 1466.78,350.937 C1478.52,368.197 1489.8621,380.0072 1506.1821,393.1872" fill="none" id="Manuel-to-Lazaro" style="stroke:#181818;stroke-width:1;"/><polygon fill="#181818" points="1510.85,396.957,1506.3614,388.1904,1506.9601,393.8155,1501.335,394.4142,1510.85,396.957" style="stroke:#181818;stroke-width:1;"/><text fill="#000000" font-family="sans-serif" font-size="13" lengthAdjust="spacing" textLength="66.7075" x="1467.78" y="347.0038">interact&#250;a</text></g><!--link Lazaro to Manuel--><g class="link" data-entity-1="ent0004" data-entity-2="ent0003" data-link-type="dependency" data-source-line="113" id="lnk21"><path codeLine="113" d="M1569.5,396.957 C1562.85,376.377 1552.9,352.487 1538.78,333.937 C1530.58,323.167 1525.0276,317.0502 1514.3576,308.1502" fill="none" id="Lazaro-to-Manuel" style="stroke:#181818;stroke-width:1;"/><polygon fill="#181818" points="1509.75,304.307,1514.0992,313.1435,1513.5896,307.5096,1519.2235,307.0001,1509.75,304.307" style="stroke:#181818;stroke-width:1;"/><text fill="#000000" font-family="sans-serif" font-size="13" lengthAdjust="spacing" textLength="66.7075" x="1549.78" y="347.0038">interact&#250;a</text></g><!--link ID2025 to DeepVision--><g class="link" data-entity-1="ent0010" data-entity-2="ent0011" data-link-type="dependency" data-source-line="118" id="lnk22"><path codeLine="118" d="M530.54,288.067 C468.36,322.237 370.4083,376.0673 308.2483,410.2273" fill="none" id="ID2025-to-DeepVision" style="stroke:#181818;stroke-width:1;"/><polygon fill="#181818" points="302.99,413.117,312.8039,412.2879,307.3719,410.7089,308.951,405.2769,302.99,413.117" style="stroke:#181818;stroke-width:1;"/><text fill="#000000" font-family="sans-serif" font-size="13" lengthAdjust="spacing" textLength="45.7983" x="447.78" y="347.0038">genera</text></g><!--link DeepVision to ProyectoIA--><g class="link" data-entity-1="ent0011" data-entity-2="ent0012" data-link-type="dependency" data-source-line="119" id="lnk23"><path codeLine="119" d="M295.87,472.347 C336.66,496.917 399.15,531.517 457.78,551.687 C552.52,584.277 655.8286,605.0322 747.3486,618.9922" fill="none" id="DeepVision-to-ProyectoIA" style="stroke:#181818;stroke-width:1;"/><polygon fill="#181818" points="753.28,619.897,744.9861,614.5856,748.3372,619.143,743.7797,622.4941,753.28,619.897" style="stroke:#181818;stroke-width:1;"/><text fill="#000000" font-family="sans-serif" font-size="13" lengthAdjust="spacing" textLength="45.7983" x="458.78" y="547.7538">genera</text></g><!--link Mar to ProyectoIA--><g class="link" data-entity-1="ent0002" data-entity-2="ent0012" data-link-type="dependency" data-source-line="121" id="lnk24"><path codeLine="121" d="M1164.54,135.887 C1111.72,188.917 1028.17,282.617 986.78,380.937 C955.02,456.357 950.0615,547.797 949.9615,599.887" fill="none" id="Mar-to-ProyectoIA" style="stroke:#181818;stroke-width:1;"/><polygon fill="#181818" points="949.95,605.887,953.9673,596.8946,949.9596,600.887,945.9673,596.8793,949.95,605.887" style="stroke:#181818;stroke-width:1;"/><text fill="#000000" font-family="sans-serif" font-size="13" lengthAdjust="spacing" textLength="56.4688" x="1009.78" y="347.0038">coordina</text></g><!--link Mar to ID2025--><g class="link" data-entity-1="ent0002" data-entity-2="ent0010" data-link-type="dependency" data-source-line="122" id="lnk25"><path codeLine="122" d="M1118.97,110.657 C1053.51,124.807 963.92,145.057 885.78,165.777 C813.4,184.967 737.9634,207.8761 677.8634,226.7861" fill="none" id="Mar-to-ID2025" style="stroke:#181818;stroke-width:1;"/><polygon fill="#181818" points="672.14,228.587,681.9256,229.7013,676.9095,227.0863,679.5245,222.0701,672.14,228.587" style="stroke:#181818;stroke-width:1;"/><text fill="#000000" font-family="sans-serif" font-size="13" lengthAdjust="spacing" textLength="38.3779" x="886.78" y="178.8438">busca</text></g><!--reverse link ProyectoIA to Manuel--><g class="link" data-entity-1="ent0012" data-entity-2="ent0003" data-link-type="aggregation" data-source-line="124" id="lnk26"><path codeLine="124" d="M1054.966,600.7729 C1106.436,577.2729 1158.24,548.037 1204.78,504.687 C1252.52,460.207 1239.93,429.257 1283.78,380.937 C1309.63,352.437 1342.7,325.517 1371.64,304.277" fill="none" id="ProyectoIA-backto-Manuel" style="stroke:#181818;stroke-width:1;"/><polygon fill="none" points="1044.05,605.757,1051.1693,606.9036,1054.966,600.7729,1047.8467,599.6263,1044.05,605.757" style="stroke:#181818;stroke-width:1;"/><text fill="#000000" font-family="sans-serif" font-size="13" lengthAdjust="spacing" textLength="80.793" x="1284.78" y="447.3738">investigador</text></g><!--link Manuel to ProyectoIA--><g class="link" data-entity-1="ent0003" data-entity-2="ent0012" data-link-type="dependency" data-source-line="128" id="lnk29"><path codeLine="128" d="M1431.33,304.297 C1420.11,366.927 1397.24,475.997 1369.78,504.687 C1367,507.587 1193.9284,563.9492 1070.8184,603.7992" fill="none" id="Manuel-to-ProyectoIA" style="stroke:#181818;stroke-width:1;"/><polygon fill="#181818" points="1065.11,605.647,1074.9044,606.6809,1069.867,604.1071,1072.4407,599.0697,1065.11,605.647" style="stroke:#181818;stroke-width:1;"/><text fill="#000000" font-family="sans-serif" font-size="13" lengthAdjust="spacing" textLength="57.2495" x="1416.78" y="447.3738">participa</text></g><!--reverse link ProyectoIA to Lazaro--><g class="link" data-entity-1="ent0012" data-entity-2="ent0004" data-link-type="aggregation" data-source-line="125" id="lnk27"><path codeLine="125" d="M1097.7961,602.5558 C1184.1461,578.9758 1270.06,555.297 1279.78,551.687 C1296.37,545.527 1298.94,540.137 1315.78,534.687 C1384.61,512.387 1407.95,529.857 1475.78,504.687 C1487.43,500.357 1499.29,494.797 1510.64,488.787" fill="none" id="ProyectoIA-backto-Lazaro" style="stroke:#181818;stroke-width:1;"/><polygon fill="none" points="1086.22,605.717,1093.0618,607.9951,1097.7961,602.5558,1090.9544,600.2777,1086.22,605.717" style="stroke:#181818;stroke-width:1;"/><text fill="#000000" font-family="sans-serif" font-size="13" lengthAdjust="spacing" textLength="80.793" x="1316.78" y="547.7538">investigador</text></g><!--link Lazaro to ProyectoIA--><g class="link" data-entity-1="ent0004" data-entity-2="ent0012" data-link-type="dependency" data-source-line="129" id="lnk30"><path codeLine="129" d="M1512.74,488.777 C1472.33,514.687 1424.64,543.677 1401.78,551.687 C1305.73,585.327 1274.55,561.627 1174.78,581.687 C1142.08,588.257 1112.9119,595.3704 1080.5619,604.1204" fill="none" id="Lazaro-to-ProyectoIA" style="stroke:#181818;stroke-width:1;"/><polygon fill="#181818" points="1074.77,605.687,1084.5022,607.1983,1079.5966,604.3815,1082.4134,599.4758,1074.77,605.687" style="stroke:#181818;stroke-width:1;"/><text fill="#000000" font-family="sans-serif" font-size="13" lengthAdjust="spacing" textLength="57.2495" x="1434.78" y="547.7538">participa</text></g><!--link Mariano to ProyectoIA--><g class="link" data-entity-1="ent0005" data-entity-2="ent0012" data-link-type="dependency" data-source-line="126" id="lnk28"><path codeLine="126" d="M795.14,488.657 C830.91,524.037 875.9338,568.548 909.3838,601.628" fill="none" id="Mariano-to-ProyectoIA" style="stroke:#181818;stroke-width:1;"/><polygon fill="#181818" points="913.65,605.847,910.0634,596.6744,910.0949,602.3311,904.4381,602.3626,913.65,605.847" style="stroke:#181818;stroke-width:1;"/><text fill="#000000" font-family="sans-serif" font-size="13" lengthAdjust="spacing" textLength="57.2495" x="857.78" y="547.7538">participa</text></g><!--reverse link Manuel to PerfilManuel--><g class="link" data-entity-1="ent0003" data-entity-2="ent0006" data-link-type="composition" data-source-line="134" id="lnk31"><path codeLine="134" d="M1537.4071,261.2095 C1750.3271,265.8695 2282.49,282.367 2455.78,333.937 C2491.38,344.527 2527.7,362.347 2559.19,380.477" fill="none" id="Manuel-backto-PerfilManuel" style="stroke:#181818;stroke-width:1;"/><polygon fill="#181818" points="1525.41,260.947,1531.321,265.0773,1537.4071,261.2095,1531.4961,257.0792,1525.41,260.947" style="stroke:#181818;stroke-width:1;"/><text fill="#000000" font-family="sans-serif" font-size="13" lengthAdjust="spacing" textLength="32.9443" x="2501.78" y="347.0038">tiene</text></g><!--reverse link Lazaro to PerfilLazaro--><g class="link" data-entity-1="ent0004" data-entity-2="ent0007" data-link-type="composition" data-source-line="135" id="lnk32"><path codeLine="135" d="M1603.2418,499.6886 C1609.0718,514.3586 1611.07,519.607 1616.78,534.687 C1622.49,549.767 1628.49,566.107 1634.03,581.397" fill="none" id="Lazaro-backto-PerfilLazaro" style="stroke:#181818;stroke-width:1;"/><polygon fill="#181818" points="1598.81,488.537,1597.3087,495.59,1603.2418,499.6886,1604.7431,492.6355,1598.81,488.537" style="stroke:#181818;stroke-width:1;"/><text fill="#000000" font-family="sans-serif" font-size="13" lengthAdjust="spacing" textLength="32.9443" x="1622.78" y="547.7538">tiene</text></g><!--link Manuel to CargaTrabajoManuel--><g class="link" data-entity-1="ent0003" data-entity-2="ent0008" data-link-type="dependency" data-source-line="137" id="lnk33"><path codeLine="137" d="M1351.85,274.677 C1303.58,285.907 1243.94,304.457 1196.78,333.937 C1167.19,352.427 1144.2486,377.0083 1125.7686,400.4083" fill="none" id="Manuel-to-CargaTrabajoManuel" style="stroke:#181818;stroke-width:1;"/><polygon fill="#181818" points="1122.05,405.117,1130.7671,400.533,1125.1489,401.1931,1124.4889,395.5748,1122.05,405.117" style="stroke:#181818;stroke-width:1;"/><text fill="#000000" font-family="sans-serif" font-size="13" lengthAdjust="spacing" textLength="32.9443" x="1197.78" y="347.0038">tiene</text></g><!--link Lazaro to CargaTrabajoLazaro--><g class="link" data-entity-1="ent0004" data-entity-2="ent0009" data-link-type="dependency" data-source-line="138" id="lnk34"><path codeLine="138" d="M1571.43,488.747 C1565.48,509.467 1556.11,533.447 1541.78,551.687 C1524.85,573.227 1506.4315,588.2065 1483.6715,602.4965" fill="none" id="Lazaro-to-CargaTrabajoLazaro" style="stroke:#181818;stroke-width:1;"/><polygon fill="#181818" points="1478.59,605.687,1488.3391,604.289,1482.8245,603.0283,1484.0852,597.5137,1478.59,605.687" style="stroke:#181818;stroke-width:1;"/><text fill="#000000" font-family="sans-serif" font-size="13" lengthAdjust="spacing" textLength="32.9443" x="1552.78" y="547.7538">tiene</text></g><!--reverse link ProyectoIA to Entregable01Manuel--><g class="link" data-entity-1="ent0012" data-entity-2="ent0014" data-link-type="composition" data-source-line="143" id="lnk35"><path codeLine="143" d="M1083.59,684.554 C1116.67,693.544 1141.1,699.197 1174.78,705.437 C1350.6,737.987 1871.67,782.737 2102.98,801.667" fill="none" id="ProyectoIA-backto-Entregable01Manuel" style="stroke:#181818;stroke-width:1;"/><polygon fill="#181818" points="1072.01,681.407,1076.751,686.8405,1083.59,684.554,1078.849,679.1205,1072.01,681.407" style="stroke:#181818;stroke-width:1;"/><text fill="#000000" font-family="sans-serif" font-size="13" lengthAdjust="spacing" textLength="32.9443" x="1529.78" y="748.5038">tiene</text></g><!--reverse link ProyectoIA to Entregable02Lazaro--><g class="link" data-entity-1="ent0012" data-entity-2="ent0015" data-link-type="composition" data-source-line="144" id="lnk36"><path codeLine="144" d="M1092.818,684.6994 C1200.248,715.0494 1338.82,754.217 1437.38,782.067" fill="none" id="ProyectoIA-backto-Entregable02Lazaro" style="stroke:#181818;stroke-width:1;"/><polygon fill="#181818" points="1081.27,681.437,1085.9565,686.9175,1092.818,684.6994,1088.1315,679.2188,1081.27,681.437" style="stroke:#181818;stroke-width:1;"/><text fill="#000000" font-family="sans-serif" font-size="13" lengthAdjust="spacing" textLength="32.9443" x="1333.78" y="748.5038">tiene</text></g><!--link Manuel to Entregable01Manuel--><g class="link" data-entity-1="ent0003" data-entity-2="ent0014" data-link-type="dependency" data-source-line="146" id="lnk37"><path codeLine="146" d="M1525.64,270.307 C1767.57,302.837 2439.24,407.597 2559.78,581.687 C2591.09,626.907 2592.49,661.217 2559.78,705.437 C2531.83,743.217 2423.7302,771.7738 2334.5302,789.8738" fill="none" id="Manuel-to-Entregable01Manuel" style="stroke:#181818;stroke-width:1;"/><polygon fill="#181818" points="2328.65,791.067,2338.2657,793.1973,2333.5501,790.0726,2336.6748,785.3571,2328.65,791.067" style="stroke:#181818;stroke-width:1;"/><text fill="#000000" font-family="sans-serif" font-size="13" lengthAdjust="spacing" textLength="45.7983" x="2529.78" y="547.7538">genera</text></g><!--link Lazaro to Entregable02Lazaro--><g class="link" data-entity-1="ent0004" data-entity-2="ent0015" data-link-type="dependency" data-source-line="147" id="lnk38"><path codeLine="147" d="M1659.39,470.767 C1709.05,492.367 1769.23,528.047 1798.78,581.687 C1825.31,629.857 1829.52,659.827 1798.78,705.437 C1773.06,743.597 1736.543,765.8883 1693.583,781.4083" fill="none" id="Lazaro-to-Entregable02Lazaro" style="stroke:#181818;stroke-width:1;"/><polygon fill="#181818" points="1687.94,783.447,1697.7637,784.151,1692.6425,781.7481,1695.0455,776.627,1687.94,783.447" style="stroke:#181818;stroke-width:1;"/><text fill="#000000" font-family="sans-serif" font-size="13" lengthAdjust="spacing" textLength="45.7983" x="1820.78" y="648.1238">genera</text></g><!--reverse link ProyectoIA to RemuneracionManuel--><g class="link" data-entity-1="ent0012" data-entity-2="ent0016" data-link-type="composition" data-source-line="149" id="lnk39"><path codeLine="149" d="M892.138,688.6476 C851.698,719.0476 804.75,754.347 767.71,782.197" fill="none" id="ProyectoIA-backto-RemuneracionManuel" style="stroke:#181818;stroke-width:1;"/><polygon fill="#181818" points="901.73,681.437,894.5304,681.8449,892.138,688.6476,899.3375,688.2396,901.73,681.437" style="stroke:#181818;stroke-width:1;"/><text fill="#000000" font-family="sans-serif" font-size="13" lengthAdjust="spacing" textLength="45.7983" x="828.78" y="748.5038">genera</text></g><!--reverse link ProyectoIA to ReduccionHorarioLazaro--><g class="link" data-entity-1="ent0012" data-entity-2="ent0017" data-link-type="composition" data-source-line="150" id="lnk40"><path codeLine="150" d="M975.3775,692.0933 C991.1175,722.4933 1007.6,754.347 1022.02,782.197" fill="none" id="ProyectoIA-backto-ReduccionHorarioLazaro" style="stroke:#181818;stroke-width:1;"/><polygon fill="#181818" points="969.86,681.437,969.0666,688.6043,975.3775,692.0933,976.1708,684.926,969.86,681.437" style="stroke:#181818;stroke-width:1;"/><text fill="#000000" font-family="sans-serif" font-size="13" lengthAdjust="spacing" textLength="45.7983" x="1007.78" y="748.5038">genera</text></g><!--link RemuneracionManuel to Manuel--><g class="link" data-entity-1="ent0016" data-entity-2="ent0003" data-link-type="dependency" data-source-line="152" id="lnk41"><path codeLine="152" d="M703.07,782.077 C635.87,706.607 472.82,499.967 583.78,380.937 C616.21,346.147 963.68,357.597 1010.78,350.937 C1130.22,334.047 1260.285,304.3254 1346.295,283.0854" fill="none" id="RemuneracionManuel-to-Manuel" style="stroke:#181818;stroke-width:1;"/><polygon fill="#181818" points="1352.12,281.647,1342.4235,279.9213,1347.2658,282.8457,1344.3415,287.688,1352.12,281.647" style="stroke:#181818;stroke-width:1;"/><text fill="#000000" font-family="sans-serif" font-size="13" lengthAdjust="spacing" textLength="59.4014" x="558.78" y="547.7538">beneficia</text></g><!--link ReduccionHorarioLazaro to Lazaro--><g class="link" data-entity-1="ent0017" data-entity-2="ent0004" data-link-type="dependency" data-source-line="153" id="lnk42"><path codeLine="153" d="M1129.41,793.737 C1154,785.097 1178.48,772.067 1195.78,752.437 C1247.22,694.017 1176.73,633.557 1234.78,581.687 C1279.13,542.047 1449.23,581.367 1500.78,551.687 C1525.83,537.257 1542.3144,516.6547 1555.8244,493.9247" fill="none" id="ReduccionHorarioLazaro-to-Lazaro" style="stroke:#181818;stroke-width:1;"/><polygon fill="#181818" points="1558.89,488.767,1550.8531,494.4598,1556.3353,493.0651,1557.7301,498.5473,1558.89,488.767" style="stroke:#181818;stroke-width:1;"/><text fill="#000000" font-family="sans-serif" font-size="13" lengthAdjust="spacing" textLength="59.4014" x="1235.78" y="648.1238">beneficia</text></g><!--link Manuel to PublicacionManuel--><g class="link" data-entity-1="ent0003" data-entity-2="ent0013" data-link-type="dependency" data-source-line="158" id="lnk43"><path codeLine="158" d="M1525.54,292.377 C1557.04,304.827 1592.75,319.487 1624.78,333.937 C1817.28,420.797 2031.783,532.5089 2148.793,594.7589" fill="none" id="Manuel-to-PublicacionManuel" style="stroke:#181818;stroke-width:1;"/><polygon fill="#181818" points="2154.09,597.577,2148.0232,589.8185,2149.6758,595.2286,2144.2657,596.8812,2154.09,597.577" style="stroke:#181818;stroke-width:1;"/><text fill="#000000" font-family="sans-serif" font-size="13" lengthAdjust="spacing" textLength="47.0806" x="1969.78" y="447.3738">publica</text></g><!--link Lazaro to PublicacionManuel--><g class="link" data-entity-1="ent0004" data-entity-2="ent0013" data-link-type="dependency" data-source-line="159" id="lnk44"><path codeLine="159" d="M1659.37,467.587 C1765.22,499.607 1949.907,555.4696 2083.257,595.8096" fill="none" id="Lazaro-to-PublicacionManuel" style="stroke:#181818;stroke-width:1;"/><polygon fill="#181818" points="2089,597.547,2081.5438,591.1123,2084.2142,596.0992,2079.2273,598.7696,2089,597.547" style="stroke:#181818;stroke-width:1;"/><text fill="#000000" font-family="sans-serif" font-size="13" lengthAdjust="spacing" textLength="60.8105" x="1929.78" y="547.7538">responde</text></g><!--SRC=[hLPDRziu4BtxLn3Umm95dTfEsbq4QG15Lbej7DkGdG8zKXBjCf18WPHSD8lzCJdkUMzxzH_ReJueofPYBL2TxE5mXc_cpIDJcaO4kKocc0KKeupHBGrmY5588YIfJ4ciVYFAzaIcT8T3BeX4Fz1E_JtymzHY8lWF4gHS3WQ_eezT7woj76-zN5ZhLzsu_mJ1q0CMwER6vbo4bAcqjxVepm62Z_7O5mHzH4Fm6UQcp8TJ1vGpPLrZ1d12KgxH48oJwUNL-y5VWpewom3XpOrh09lnWB2KGA9Vxkyj-5eIgct7SJ_ybXi272TSURbioqLyU4dXK4CZwHm_Oy7_TzBvuKNjEytwUpFjkcYN73Pm2eePpoiPOP-BxaeglvCS-NyiEP2ZAkyZetiY90rng9flgshxi3jFUxR_z-xSMQEloBQyJnQQEMZZMNVM7yi-b5WHiQMHRbtnrwnbAx2wOpWXKKH3NjWbLQLIzf1HPNfJViEoh48GWOj-xYvGiwdA0qgT4g4SPbIG83WP1oJvDlsE1J4xKfnQKw4NY0O3J1IVYM2Awiy_2KX58PXtxSGRXBAnsE6Dm3v-uheJfb4V_nkGJTeHbWh2rRYsQR0beoRZZlYwIEVZNxuIVpe-pqnxkVYojAtDqdCjOEVAMtvrx4qlLhgpwNZwFfymjkS1JZaCWpvbI6GWQ58DZ-dJqDM2FPAhZhlMnSM5MVGP8SaNAbKCO8pWIGQREdCyCgtS0KxmiyeZ28ueL1DXTdY989H4CGbXvDEMTAkIm52AF5t-fokR6oSHYK7287Z6KCpXvk0gPKJOBiDF90-kDcv9y0tFQKpJdDINatUJwJketOS-ol5uDtTjotQN2wVNzR7A_AYy4sh1g6qQJKhJBEB6YZhQ8YDxZBOPomqA2mnpWKoQqDwYBAKHIZ2C5sIe1h-02_TaqITv5FqXWpf8j1DWmV8j10VVFPLO7Fwk15XwUhUfzsVhv2msdlF9kfltgvB3Ka5ss8_8UABBL1jbPzDpUL3qfO0XCibZX9pg0UuHSYLeh6IAQZxb8z636vvZBnzMpcBTxs7XaJXZH3IfuP60nmbXifwg08OZl-IKWi1dOFH8c0Lg_sVG6q5heMe98ofVY3EwweDcNj8ShPUsQvthf7edZKQtrOlc6X86KPPYlL0UhbuObAwDHGfA03L93__YGMbiH3NN-oE0-xsNb9OQgZ8QMdSDhqpLgO5XKow6FcaN3RUn69JFHxrQ9hf6VYO3s6Luyz78X5jVoCTEHiqCf-gbTN86K0UuHMdIB7o7Yr7whY1zdbZL0-iCS_BJl058ZPVLDOWY5BKwIxskWHVh9foMPy5Hc6Elus2zTGsmzPrueuGAHOlQLUcxFQUle6uDM1BIWDqQhUBjKUOMTTA-9wwjAbI7RedLc6aV_BPAm0STeHeAKNl_jBlQd8UJ-nf8NzWQGz7YfYvQ3e_W_m00]--></g></svg>