<?plantuml 1.2026.2?><svg xmlns="http://www.w3.org/2000/svg" xmlns:xlink="http://www.w3.org/1999/xlink" contentStyleType="text/css" data-diagram-type="DESCRIPTION" height="313px" preserveAspectRatio="none" style="width:1010px;height:313px;background:#FFFFFF;" version="1.1" viewBox="0 0 1010 313" width="1010px" zoomAndPan="magnify"><defs/><g><!--cluster crearEntregable--><g class="cluster" data-qualified-name="crearEntregable" data-source-line="10" id="ent0004"><path d="M8.5,6 L129.7168,6 A3.75,3.75 0 0 1 132.2168,8.5 L139.2168,25.9688 L425.5,25.9688 A2.5,2.5 0 0 1 428,28.4688 L428,303.5 A2.5,2.5 0 0 1 425.5,306 L8.5,306 A2.5,2.5 0 0 1 6,303.5 L6,8.5 A2.5,2.5 0 0 1 8.5,6" fill="none" style="stroke:#000000;stroke-width:1.5;"/><line style="stroke:#000000;stroke-width:1.5;" x1="6" x2="139.2168" y1="25.9688" y2="25.9688"/><text fill="#000000" font-family="sans-serif" font-size="12" font-weight="bold" lengthAdjust="spacing" textLength="120.2168" x="10" y="19.1387">crearEntregable()</text></g><!--entity CrearEntregableView--><g class="entity" data-qualified-name="crearEntregable.CrearEntregableView" data-source-line="11" id="ent0005"><rect fill="#629EF9" height="33.9688" rx="2.5" ry="2.5" style="stroke:#181818;stroke-width:0.5;" width="147.2363" x="264.5" y="38"/><text fill="#000000" font-family="sans-serif" font-size="12" lengthAdjust="spacing" textLength="127.2363" x="274.5" y="59.1387">CrearEntregableView</text></g><!--entity EntregableController--><g class="entity" data-qualified-name="crearEntregable.EntregableController" data-source-line="12" id="ent0006"><rect fill="#B5BD68" height="33.9688" rx="2.5" ry="2.5" style="stroke:#181818;stroke-width:0.5;" width="144.8047" x="23.5" y="147"/><text fill="#000000" font-family="sans-serif" font-size="12" lengthAdjust="spacing" textLength="124.8047" x="33.5" y="168.1387">EntregableController</text></g><!--entity EntregableRepository--><g class="entity" data-qualified-name="crearEntregable.EntregableRepository" data-source-line="13" id="ent0007"><rect fill="#F2AC4E" height="33.9688" rx="2.5" ry="2.5" style="stroke:#181818;stroke-width:0.5;" width="149.8613" x="22" y="256"/><text fill="#000000" font-family="sans-serif" font-size="12" lengthAdjust="spacing" textLength="129.8613" x="32" y="277.1387">EntregableRepository</text></g><!--entity Entregable--><g class="entity" data-qualified-name="crearEntregable.Entregable" data-source-line="14" id="ent0008"><rect fill="#F2AC4E" height="33.9688" rx="2.5" ry="2.5" style="stroke:#181818;stroke-width:0.5;" width="85.5137" x="258" y="147"/><text fill="#000000" font-family="sans-serif" font-size="12" lengthAdjust="spacing" textLength="65.5137" x="268" y="168.1387">Entregable</text></g><!--entity EntregablesAbiertos--><g class="entity" data-qualified-name="EntregablesAbiertos" data-source-line="7" id="ent0002"><rect fill="#CDEBA5" height="33.9688" rx="2.5" ry="2.5" style="stroke:#181818;stroke-width:0.5;" width="173.7266" x="479" y="147"/><text fill="#000000" font-family="sans-serif" font-size="12" lengthAdjust="spacing" textLength="153.7266" x="489" y="168.1387">ENTREGABLES_ABIERTOS</text></g><!--entity EntregableAbierto--><g class="entity" data-qualified-name="EntregableAbierto" data-source-line="8" id="ent0003"><rect fill="#CDEBA5" height="33.9688" rx="2.5" ry="2.5" style="stroke:#181818;stroke-width:0.5;" width="158.4922" x="741" y="147"/><text fill="#000000" font-family="sans-serif" font-size="12" lengthAdjust="spacing" textLength="138.4922" x="751" y="168.1387">ENTREGABLE_ABIERTO</text></g><!--link EntregablesAbiertos to CrearEntregableView--><g class="link" data-entity-1="ent0002" data-entity-2="ent0005" data-link-type="dependency" data-source-line="17" id="lnk9"><path d="M525.08,146.91 C491.34,133.65 449,117 449,117 C449,117 405.3086,92.9891 372.4186,74.9191" fill="none" id="EntregablesAbiertos-to-CrearEntregableView" style="stroke:#181818;stroke-width:1;"/><polygon fill="#181818" points="367.16,72.03,373.1218,79.8694,371.5422,74.4376,376.974,72.8579,367.16,72.03" style="stroke:#181818;stroke-width:1;"/><text fill="#000000" font-family="sans-serif" font-size="12" lengthAdjust="spacing" textLength="106.0781" x="450" y="114.1387">crearEntregable()</text></g><!--link CrearEntregableView to EntregablesAbiertos--><g class="link" data-entity-1="ent0005" data-entity-2="ent0002" data-link-type="dependency" data-source-line="24" id="lnk14"><path d="M411.64,71.19 C476.59,84.59 561,102 561,102 C561,102 562.7069,122.9203 564.1969,140.9903" fill="none" id="CrearEntregableView-to-EntregablesAbiertos" style="stroke:#181818;stroke-width:1;stroke-dasharray:7,7;"/><polygon fill="#181818" points="564.69,146.97,567.9369,137.6717,564.2791,141.9869,559.9639,138.3292,564.69,146.97" style="stroke:#181818;stroke-width:1;"/><text fill="#000000" font-family="sans-serif" font-size="12" lengthAdjust="spacing" textLength="178.957" x="564" y="114.1387">&#171;cancelar&#187; abrirEntregables()</text></g><!--link CrearEntregableView to EntregableController--><g class="link" data-entity-1="ent0005" data-entity-2="ent0006" data-link-type="dependency" data-source-line="19" id="lnk10"><path d="M264.23,68.21 C181.87,81.83 60,102 60,102 C60,102 60,117 60,117 C60,117 69.3316,128.9254 79.7116,142.1854" fill="none" id="CrearEntregableView-to-EntregableController" style="stroke:#181818;stroke-width:1;"/><polygon fill="#181818" points="83.41,146.91,81.0121,137.3575,80.328,142.9729,74.7126,142.2887,83.41,146.91" style="stroke:#181818;stroke-width:1;"/><text fill="#000000" font-family="sans-serif" font-size="12" lengthAdjust="spacing" textLength="353.1621" x="61" y="114.1387">crear(proyectoId, nombre, fecha, descripcion) : Entregable</text></g><!--link EntregableController to Entregable--><g class="link" data-entity-1="ent0006" data-entity-2="ent0008" data-link-type="dependency" data-source-line="20" id="lnk11"><path d="M168.56,164 C198.4,164 225.94,164 251.8,164" fill="none" id="EntregableController-to-Entregable" style="stroke:#181818;stroke-width:1;"/><polygon fill="#181818" points="257.8,164,248.8,160,252.8,164,248.8,168,257.8,164" style="stroke:#181818;stroke-width:1;"/><text fill="#000000" font-family="sans-serif" font-size="12" lengthAdjust="spacing" textLength="53.0391" x="186.75" y="158.1387">&#171;create&#187;</text></g><!--link EntregableController to EntregableRepository--><g class="link" data-entity-1="ent0006" data-entity-2="ent0007" data-link-type="dependency" data-source-line="21" id="lnk12"><path d="M96.15,181.25 C96.34,201.48 96.6034,229.8103 96.7934,249.9503" fill="none" id="EntregableController-to-EntregableRepository" style="stroke:#181818;stroke-width:1;"/><polygon fill="#181818" points="96.85,255.95,100.7649,246.9127,96.8028,250.9502,92.7653,246.9881,96.85,255.95" style="stroke:#181818;stroke-width:1;"/><text fill="#000000" font-family="sans-serif" font-size="12" lengthAdjust="spacing" textLength="122.0918" x="98" y="223.1387">guardar(entregable)</text></g><!--link CrearEntregableView to EntregableAbierto--><g class="link" data-entity-1="ent0005" data-entity-2="ent0003" data-link-type="dependency" data-source-line="23" id="lnk13"><path d="M411.84,64.22 C530.63,77.46 751,102 751,102 C751,102 776.9348,124.926 797.3748,142.996" fill="none" id="CrearEntregableView-to-EntregableAbierto" style="stroke:#181818;stroke-width:1;stroke-dasharray:7,7;"/><polygon fill="#181818" points="801.87,146.97,797.7765,138.0121,798.124,143.6583,792.4778,144.0058,801.87,146.97" style="stroke:#181818;stroke-width:1;"/><text fill="#000000" font-family="sans-serif" font-size="12" lengthAdjust="spacing" textLength="234.6328" x="768" y="114.1387">&#171;finalizar&#187; abrirEntregable(entregable)</text></g><?plantuml-src XP91Jy9048Nl-oicS844I2Hgb90cfHPZOZG1ujLCsw5iM7URsIK4ZV_TKf7MKhIttJVlcvctjMkfCsHyWmZZTSfcevF0ACEmNKb7mXvrkyB4RALEOOdALfKxMk96kQdHxjiQgPpLN32NxmGNmugef2QtomWoetRxWn1CiKETAe9sS1TE_2jeXK-BMNZlJnx3-Qi_UGXdY-Tv2z12g1rJYf4YwqUIs1dxj__7NdCVp49a-UoO4hHY9kIoeDCj7BLR-12GVsN7Ll2xu4NIjZ0st4FxUdWRJc_hYB8go2DZenHnRTnIW7Pq5INND-SXCygCbSxmhWOf1MXFXtvm6Pw7rAn7mwSG3Ky0VUvxJIkFu2HM8PgYwISve6dV0w6JiTdbWvg7f0VQl4LCFLXIlC8U96HZbbaiZUx2g48HZG4MivRA2CRZVGj7ddV6y7ksCiOHf1la99-EZkgP_GO3x_JlsxTUIerAlYDx7c34iffLbVe_zFWQnKQeOr9DLDlfVW40?></g></svg>