<?xml version="1.0" encoding="us-ascii" standalone="no"?><svg xmlns="http://www.w3.org/2000/svg" xmlns:xlink="http://www.w3.org/1999/xlink" contentStyleType="text/css" height="817px" preserveAspectRatio="none" style="width:1005px;height:817px;background:#FFFFFF;" version="1.1" viewBox="0 0 1005 817" width="1005px" zoomAndPan="magnify"><defs/><g><g id="in1"><rect fill="#F1F1F1" height="50" rx="12.5" ry="12.5" style="stroke:#181818;stroke-width:0.5;" width="184" x="294.5" y="7"/><line style="stroke:#181818;stroke-width:0.5;" x1="294.5" x2="478.5" y1="34.6094" y2="34.6094"/><text fill="#000000" font-family="sans-serif" font-size="14" lengthAdjust="spacing" textLength="164" x="304.5" y="26.5332">PROYECTOS_ABIERTOS</text></g><path d="M19.5,118 L979.5,118 A12.5,12.5 0 0 1 992,130.5 L992,145.6094 L7,145.6094 L7,130.5 A12.5,12.5 0 0 1 19.5,118 " fill="#F1F1F1" style="stroke:#F1F1F1;stroke-width:1.0;"/><rect fill="none" height="546.6094" rx="12.5" ry="12.5" style="stroke:#181818;stroke-width:0.5;" width="985" x="7" y="118"/><line style="stroke:#181818;stroke-width:0.5;" x1="7" x2="992" y1="145.6094" y2="145.6094"/><text fill="#000000" font-family="sans-serif" font-size="14" lengthAdjust="spacing" textLength="95" x="452" y="137.5332">abrirProyecto()</text><g id="abrirProyecto.MostrandoListaProyectos"><rect fill="#F1F1F1" height="50" rx="12.5" ry="12.5" style="stroke:#181818;stroke-width:0.5;" width="50" x="19" y="248.6094"/><line style="stroke:#181818;stroke-width:0.5;" x1="19" x2="69" y1="276.2188" y2="276.2188"/><text fill="#000000" font-family="sans-serif" font-size="14" lengthAdjust="spacing" textLength="4" x="42" y="268.1426">&#160;</text></g><g id="abrirProyecto.FiltrandoBuscando"><rect fill="#F1F1F1" height="50" rx="12.5" ry="12.5" style="stroke:#181818;stroke-width:0.5;" width="50" x="19" y="387.6094"/><line style="stroke:#181818;stroke-width:0.5;" x1="19" x2="69" y1="415.2188" y2="415.2188"/><text fill="#000000" font-family="sans-serif" font-size="14" lengthAdjust="spacing" textLength="4" x="42" y="407.1426">&#160;</text></g><g id="abrirProyecto.SolicitandoProyecto"><rect fill="#F1F1F1" height="50" rx="12.5" ry="12.5" style="stroke:#181818;stroke-width:0.5;" width="50" x="19" y="510.6094"/><line style="stroke:#181818;stroke-width:0.5;" x1="19" x2="69" y1="538.2188" y2="538.2188"/><text fill="#000000" font-family="sans-serif" font-size="14" lengthAdjust="spacing" textLength="4" x="42" y="530.1426">&#160;</text></g><ellipse cx="44" cy="166.6094" fill="#222222" rx="10" ry="10" style="stroke:#222222;stroke-width:1.0;"/><ellipse cx="44" cy="643.6094" fill="none" rx="11" ry="11" style="stroke:#222222;stroke-width:1.0;"/><ellipse cx="44" cy="643.6094" fill="#222222" rx="6" ry="6" style="stroke:#222222;stroke-width:1.0;"/><!--link *start*abrirProyecto to MostrandoListaProyectos--><g id="link_*start*abrirProyecto_MostrandoListaProyectos"><path d="M44,176.9294 C44,192.7894 44,219.5194 44,242.2494 " fill="none" id="*start*abrirProyecto-to-MostrandoListaProyectos" style="stroke:#008000;stroke-width:1.0;"/><polygon fill="#008000" points="44,248.2494,48,239.2494,44,243.2494,40,239.2494,44,248.2494" style="stroke:#008000;stroke-width:1.0;"/><path d="M49,199.6094 L49,225.6094 L294,225.6094 L294,209.6094 L284,199.6094 L49,199.6094 " fill="#FEFFDD" style="stroke:#181818;stroke-width:0.5;"/><path d="M284,199.6094 L284,209.6094 L294,209.6094 L284,199.6094 " fill="#FEFFDD" style="stroke:#181818;stroke-width:0.5;"/><text fill="#000000" font-family="sans-serif" font-size="13" font-weight="bold" lengthAdjust="spacing" textLength="78" x="55" y="218.1045">Investigador</text><text fill="#000000" font-family="sans-serif" font-size="13" lengthAdjust="spacing" textLength="142" x="137" y="218.1045">solicita abrir un proyecto</text></g><!--link MostrandoListaProyectos to FiltrandoBuscando--><g id="link_MostrandoListaProyectos_FiltrandoBuscando"><path d="M44,298.7894 C44,323.6794 44,356.2394 44,381.2094 " fill="none" id="MostrandoListaProyectos-to-FiltrandoBuscando" style="stroke:#008000;stroke-width:1.0;"/><polygon fill="#008000" points="44,387.2094,48,378.2094,44,382.2094,40,378.2094,44,387.2094" style="stroke:#008000;stroke-width:1.0;"/><path d="M49,321.6094 L49,363.6094 L685,363.6094 L685,331.6094 L675,321.6094 L49,321.6094 " fill="#FEFFDD" style="stroke:#181818;stroke-width:0.5;"/><path d="M675,321.6094 L675,331.6094 L685,331.6094 L675,321.6094 " fill="#FEFFDD" style="stroke:#181818;stroke-width:0.5;"/><text fill="#000000" font-family="sans-serif" font-size="13" font-weight="bold" lengthAdjust="spacing" textLength="51" x="55" y="340.1045">Sistema</text><text fill="#000000" font-family="sans-serif" font-size="13" lengthAdjust="spacing" textLength="430" x="110" y="340.1045">presenta la lista de proyectos con sus datos principales y permite solicitar</text><text fill="#000000" font-family="sans-serif" font-size="13" lengthAdjust="spacing" textLength="615" x="55" y="356.4561">la introducci&#243;n de criterios de filtrado y b&#250;squeda, as&#237; como solicitar la apertura de un proyecto del listado.</text></g><!--link FiltrandoBuscando to FiltrandoBuscando--><g id="link_FiltrandoBuscando_FiltrandoBuscando"><path d="M69.18,401.0294 C78.91,400.5194 87,404.3794 87,412.6094 C87,420.8394 84.9018,425.0134 75.1718,424.5034 " fill="none" id="FiltrandoBuscando-to-FiltrandoBuscando" style="stroke:#008000;stroke-width:1.0;"/><polygon fill="#008000" points="69.18,424.1894,77.9583,428.655,74.1731,424.4511,78.377,420.6659,69.18,424.1894" style="stroke:#008000;stroke-width:1.0;"/><path d="M92,391.6094 L92,433.6094 L525,433.6094 L525,401.6094 L515,391.6094 L92,391.6094 " fill="#FEFFDD" style="stroke:#181818;stroke-width:0.5;"/><path d="M515,391.6094 L515,401.6094 L525,401.6094 L515,391.6094 " fill="#FEFFDD" style="stroke:#181818;stroke-width:0.5;"/><text fill="#000000" font-family="sans-serif" font-size="13" font-weight="bold" lengthAdjust="spacing" textLength="78" x="98" y="410.1045">Investigador</text><text fill="#000000" font-family="sans-serif" font-size="13" lengthAdjust="spacing" textLength="317" x="180" y="410.1045">solicita introducir filtros y/o solicita introducir b&#250;squeda</text><text fill="#000000" font-family="sans-serif" font-size="13" font-weight="bold" lengthAdjust="spacing" textLength="51" x="98" y="426.4561">Sistema</text><text fill="#000000" font-family="sans-serif" font-size="13" lengthAdjust="spacing" textLength="357" x="153" y="426.4561">muestra el listado actualizado seg&#250;n los criterios introducidos</text></g><!--link FiltrandoBuscando to SolicitandoProyecto--><g id="link_FiltrandoBuscando_SolicitandoProyecto"><path d="M44,437.8094 C44,458.9094 44,483.3694 44,504.4594 " fill="none" id="FiltrandoBuscando-to-SolicitandoProyecto" style="stroke:#008000;stroke-width:1.0;"/><polygon fill="#008000" points="44,510.4594,48,501.4594,44,505.4594,40,501.4594,44,510.4594" style="stroke:#008000;stroke-width:1.0;"/><path d="M49,461.6094 L49,487.6094 L357,487.6094 L357,471.6094 L347,461.6094 L49,461.6094 " fill="#FEFFDD" style="stroke:#181818;stroke-width:0.5;"/><path d="M347,461.6094 L347,471.6094 L357,471.6094 L347,461.6094 " fill="#FEFFDD" style="stroke:#181818;stroke-width:0.5;"/><text fill="#000000" font-family="sans-serif" font-size="13" font-weight="bold" lengthAdjust="spacing" textLength="78" x="55" y="480.1045">Investigador</text><text fill="#000000" font-family="sans-serif" font-size="13" lengthAdjust="spacing" textLength="205" x="137" y="480.1045">solicita abrir un proyecto del listado</text></g><!--link SolicitandoProyecto to *end*abrirProyecto--><g id="link_SolicitandoProyecto_*end*abrirProyecto"><path d="M44,560.6594 C44,583.2594 44,609.9894 44,626.4094 " fill="none" id="SolicitandoProyecto-to-*end*abrirProyecto" style="stroke:#008000;stroke-width:1.0;"/><polygon fill="#008000" points="44,632.4094,48,623.4094,44,627.4094,40,623.4094,44,632.4094" style="stroke:#008000;stroke-width:1.0;"/><path d="M49,583.6094 L49,609.6094 L983,609.6094 L983,593.6094 L973,583.6094 L49,583.6094 " fill="#FEFFDD" style="stroke:#181818;stroke-width:0.5;"/><path d="M973,583.6094 L973,593.6094 L983,593.6094 L973,583.6094 " fill="#FEFFDD" style="stroke:#181818;stroke-width:0.5;"/><text fill="#000000" font-family="sans-serif" font-size="13" font-weight="bold" lengthAdjust="spacing" textLength="51" x="55" y="602.1045">Sistema</text><text fill="#000000" font-family="sans-serif" font-size="13" lengthAdjust="spacing" textLength="858" x="110" y="602.1045">visualiza el proyecto solicitado, presentando sus datos, la descripci&#243;n y el equipo, y permite solicitar acciones disponibles sobre el proyecto abierto.</text></g><g id="in2"><rect fill="#F1F1F1" height="50" rx="12.5" ry="12.5" style="stroke:#181818;stroke-width:0.5;" width="198" x="513.5" y="7"/><line style="stroke:#181818;stroke-width:0.5;" x1="513.5" x2="711.5" y1="34.6094" y2="34.6094"/><text fill="#000000" font-family="sans-serif" font-size="14" lengthAdjust="spacing" textLength="178" x="523.5" y="26.5332">ENTREGABLES_ABIERTOS</text></g><g id="PROYECTO_ABIERTO"><rect fill="#F1F1F1" height="50" rx="12.5" ry="12.5" style="stroke:#181818;stroke-width:0.5;" width="166" x="78.5" y="761"/><line style="stroke:#181818;stroke-width:0.5;" x1="78.5" x2="244.5" y1="788.6094" y2="788.6094"/><text fill="#000000" font-family="sans-serif" font-size="14" lengthAdjust="spacing" textLength="146" x="88.5" y="780.5332">PROYECTO_ABIERTO</text></g><g id="ENTREGABLES_ABIERTOS"><rect fill="#F1F1F1" height="50" rx="12.5" ry="12.5" style="stroke:#181818;stroke-width:0.5;" width="198" x="279.5" y="761"/><line style="stroke:#181818;stroke-width:0.5;" x1="279.5" x2="477.5" y1="788.6094" y2="788.6094"/><text fill="#000000" font-family="sans-serif" font-size="14" lengthAdjust="spacing" textLength="178" x="289.5" y="780.5332">ENTREGABLES_ABIERTOS</text></g><g id="INVESTIGADORES_ABIERTOS"><rect fill="#F1F1F1" height="50" rx="12.5" ry="12.5" style="stroke:#181818;stroke-width:0.5;" width="217" x="513" y="761"/><line style="stroke:#181818;stroke-width:0.5;" x1="513" x2="730" y1="788.6094" y2="788.6094"/><text fill="#000000" font-family="sans-serif" font-size="14" lengthAdjust="spacing" textLength="197" x="523" y="780.5332">INVESTIGADORES_ABIERTOS</text></g><g id="PROYECTOS_ABIERTOS"><rect fill="#F1F1F1" height="50" rx="12.5" ry="12.5" style="stroke:#181818;stroke-width:0.5;" width="184" x="765.5" y="761"/><line style="stroke:#181818;stroke-width:0.5;" x1="765.5" x2="949.5" y1="788.6094" y2="788.6094"/><text fill="#000000" font-family="sans-serif" font-size="14" lengthAdjust="spacing" textLength="164" x="775.5" y="780.5332">PROYECTOS_ABIERTOS</text></g><!--link in1 to abrirProyecto--><g id="link_in1_abrirProyecto"><path d="M394.09,57.01 C398.86,72.12 403.7695,87.6597 411.5395,112.2097 " fill="none" id="in1-to-abrirProyecto" style="stroke:#008000;stroke-width:1.0;"/><polygon fill="#008000" points="413.35,117.93,414.4479,108.1425,411.8413,113.1631,406.8207,110.5565,413.35,117.93" style="stroke:#008000;stroke-width:1.0;"/></g><!--link in2 to abrirProyecto--><g id="link_in2_abrirProyecto"><path d="M604.91,57.01 C600.14,72.12 595.2305,87.6597 587.4605,112.2097 " fill="none" id="in2-to-abrirProyecto" style="stroke:#008000;stroke-width:1.0;"/><polygon fill="#008000" points="585.65,117.93,592.1793,110.5565,587.1587,113.1631,584.5521,108.1425,585.65,117.93" style="stroke:#008000;stroke-width:1.0;"/></g><!--link abrirProyecto to PROYECTO_ABIERTO--><g id="link_abrirProyecto_PROYECTO_ABIERTO"><path d="M264.75,665.1 C230.73,704.61 204.8352,734.6735 186.1052,756.4235 " fill="none" id="abrirProyecto-to-PROYECTO_ABIERTO" style="stroke:#008000;stroke-width:1.0;"/><polygon fill="#008000" points="182.19,760.97,191.0939,756.7604,185.4527,757.1812,185.0318,751.5401,182.19,760.97" style="stroke:#008000;stroke-width:1.0;"/><path d="M240.5,700 L240.5,726 L356.5,726 L356.5,710 L346.5,700 L240.5,700 " fill="#FEFFDD" style="stroke:#181818;stroke-width:0.5;"/><path d="M346.5,700 L346.5,710 L356.5,710 L346.5,700 " fill="#FEFFDD" style="stroke:#181818;stroke-width:0.5;"/><text fill="#000000" font-family="sans-serif" font-size="13" lengthAdjust="spacing" textLength="95" x="246.5" y="718.4951">Proyecto abierto</text></g><!--link abrirProyecto to ENTREGABLES_ABIERTOS--><g id="link_abrirProyecto_ENTREGABLES_ABIERTOS"><path d="M415.46,665.1 C403.28,704.61 394.3764,733.4859 387.6764,755.2359 " fill="none" id="abrirProyecto-to-ENTREGABLES_ABIERTOS" style="stroke:#008000;stroke-width:1.0;"/><polygon fill="#008000" points="385.91,760.97,392.3823,753.5464,387.382,756.1916,384.7368,751.1913,385.91,760.97" style="stroke:#008000;stroke-width:1.0;"/><path d="M410.5,700 L410.5,726 L533.5,726 L533.5,710 L523.5,700 L410.5,700 " fill="#FEFFDD" style="stroke:#181818;stroke-width:0.5;"/><path d="M523.5,700 L523.5,710 L533.5,710 L523.5,700 " fill="#FEFFDD" style="stroke:#181818;stroke-width:0.5;"/><text fill="#000000" font-family="sans-serif" font-size="13" lengthAdjust="spacing" textLength="102" x="416.5" y="718.4951">abrirEntregables()</text></g><!--link abrirProyecto to INVESTIGADORES_ABIERTOS--><g id="link_abrirProyecto_INVESTIGADORES_ABIERTOS"><path d="M584.23,665.1 C596.51,704.61 605.4892,733.4904 612.2492,755.2404 " fill="none" id="abrirProyecto-to-INVESTIGADORES_ABIERTOS" style="stroke:#008000;stroke-width:1.0;"/><polygon fill="#008000" points="614.03,760.97,615.1786,751.1883,612.546,756.1953,607.539,753.5627,614.03,760.97" style="stroke:#008000;stroke-width:1.0;"/><path d="M608.5,700 L608.5,726 L744.5,726 L744.5,710 L734.5,700 L608.5,700 " fill="#FEFFDD" style="stroke:#181818;stroke-width:0.5;"/><path d="M734.5,700 L734.5,710 L744.5,710 L734.5,700 " fill="#FEFFDD" style="stroke:#181818;stroke-width:0.5;"/><text fill="#000000" font-family="sans-serif" font-size="13" lengthAdjust="spacing" textLength="115" x="614.5" y="718.4951">abrirInvestigadores()</text></g><!--link abrirProyecto to PROYECTOS_ABIERTOS--><g id="link_abrirProyecto_PROYECTOS_ABIERTOS"><path d="M748.14,665.1 C784.18,704.61 811.7065,734.7872 831.5465,756.5372 " fill="none" id="abrirProyecto-to-PROYECTOS_ABIERTOS" style="stroke:#008000;stroke-width:1.0;"/><polygon fill="#008000" points="835.59,760.97,832.4799,751.6251,832.2204,757.276,826.5695,757.0165,835.59,760.97" style="stroke:#008000;stroke-width:1.0;"/><path d="M810.5,700 L810.5,726 L923.5,726 L923.5,710 L913.5,700 L810.5,700 " fill="#FEFFDD" style="stroke:#181818;stroke-width:0.5;"/><path d="M913.5,700 L913.5,710 L923.5,710 L913.5,700 " fill="#FEFFDD" style="stroke:#181818;stroke-width:0.5;"/><text fill="#000000" font-family="sans-serif" font-size="13" lengthAdjust="spacing" textLength="92" x="816.5" y="718.4951">abrirProyectos()</text></g><!--SRC=[hPNFQXin4CRl-nJ2kIJ5QMZEmM0tss18OsERGWcXQ5TJCsHNKgJTmBRqaNhgBLU_M4Qxtd-nRDnIs-2LDFhDVAFFidr4gRdXAKjGGbPeO5ebXHi4WSru1Wpb1yOj6ymNiw_XnzLi-MqycOOBUXW4Rkty_cHj0EJ3-OZnoA2P6rL0dAaMS5a2mhlL8hmPJsx3FkBo46BBwCsMjDxCwTc0_Gm2HgygVa1lYlgiR6Qu5EeMQRwEjhk1dp2f0YUvZTttRiXI9HXZvXRRybpK_Rk7de93IQKYe9Aksu_bn5Kqcifdi1ckkL3cwY8QCRlDLAbckMIwJkYsW1Gbfyg-9rkl8hywNorBWa3AopAq0GkIoaZeu-1CG5E9PJ5jjRbbWhkHDYXZr3m1omgcmQH8z5g9AVd4GPaP9V8uniqVwNYneJY3HA31zx9EeOWGRLxiKmw23wdtcz-KBLKjpg4u9SboKrRLQH4DawfSeTvx-hNJYt_irFvJgpNIqPM2I5jneRphZKfV_zCStD6oLW_ZSPRp17-uPmlhpGlLv8wYQMB35bl3_OrudyF_Wscx9-AfoPErLnNzl8wowpFQgZUkOKtkkYoXXesXdUx6kKFd9G6MUgWhLnOE04yvQjhZyJATGenAaj45MgqaHixqLaK6UgbvXEJGjoRy5GJzowohjRvZw_inw8cUlo47RIFt8tstRXzRxWt9EB3cJihfsL7WwTsNSBcQteolPul3xAvNZiRl_jruoCrrruM-0W00]--></g></svg>