<?xml version="1.0" encoding="us-ascii" standalone="no"?><svg xmlns="http://www.w3.org/2000/svg" xmlns:xlink="http://www.w3.org/1999/xlink" contentStyleType="text/css" height="840px" preserveAspectRatio="none" style="width:892px;height:840px;background:#FFFFFF;" version="1.1" viewBox="0 0 892 840" width="892px" zoomAndPan="magnify"><defs/><g><g id="in1"><rect fill="#F1F1F1" height="50" rx="12.5" ry="12.5" style="stroke:#181818;stroke-width:0.5;" width="198" x="295" y="7"/><line style="stroke:#181818;stroke-width:0.5;" x1="295" x2="493" y1="34.6094" y2="34.6094"/><text fill="#000000" font-family="sans-serif" font-size="14" lengthAdjust="spacing" textLength="178" x="305" y="26.5332">MI_PUBLICACION_ABIERTA</text></g><path d="M47,118 L741,118 A12.5,12.5 0 0 1 753.5,130.5 L753.5,145.6094 L34.5,145.6094 L34.5,130.5 A12.5,12.5 0 0 1 47,118 " fill="#F1F1F1" style="stroke:#F1F1F1;stroke-width:1.0;"/><rect fill="none" height="569.6094" rx="12.5" ry="12.5" style="stroke:#181818;stroke-width:0.5;" width="719" x="34.5" y="118"/><line style="stroke:#181818;stroke-width:0.5;" x1="34.5" x2="753.5" y1="145.6094" y2="145.6094"/><text fill="#000000" font-family="sans-serif" font-size="14" lengthAdjust="spacing" textLength="118" x="335" y="137.5332">editarPublicacion()</text><g id="editarPublicacion.MostrandoPublicacion"><rect fill="#F1F1F1" height="50" rx="12.5" ry="12.5" style="stroke:#181818;stroke-width:0.5;" width="50" x="236.5" y="248.6094"/><line style="stroke:#181818;stroke-width:0.5;" x1="236.5" x2="286.5" y1="276.2188" y2="276.2188"/><text fill="#000000" font-family="sans-serif" font-size="14" lengthAdjust="spacing" textLength="4" x="259.5" y="268.1426">&#160;</text></g><g id="editarPublicacion.EditandoDatos"><rect fill="#F1F1F1" height="50" rx="12.5" ry="12.5" style="stroke:#181818;stroke-width:0.5;" width="50" x="236.5" y="517.6094"/><line style="stroke:#181818;stroke-width:0.5;" x1="236.5" x2="286.5" y1="545.2188" y2="545.2188"/><text fill="#000000" font-family="sans-serif" font-size="14" lengthAdjust="spacing" textLength="4" x="259.5" y="537.1426">&#160;</text></g><ellipse cx="261.5" cy="166.6094" fill="#222222" rx="10" ry="10" style="stroke:#222222;stroke-width:1.0;"/><ellipse cx="261.5" cy="666.6094" fill="none" rx="11" ry="11" style="stroke:#222222;stroke-width:1.0;"/><ellipse cx="261.5" cy="666.6094" fill="#222222" rx="6" ry="6" style="stroke:#222222;stroke-width:1.0;"/><!--link *start*editarPublicacion to MostrandoPublicacion--><g id="link_*start*editarPublicacion_MostrandoPublicacion"><path d="M261.5,176.9294 C261.5,192.7894 261.5,219.5194 261.5,242.2494 " fill="none" id="*start*editarPublicacion-to-MostrandoPublicacion" style="stroke:#008000;stroke-width:1.0;"/><polygon fill="#008000" points="261.5,248.2494,265.5,239.2494,261.5,243.2494,257.5,239.2494,261.5,248.2494" style="stroke:#008000;stroke-width:1.0;"/><path d="M266.5,199.6094 L266.5,225.6094 L580.5,225.6094 L580.5,209.6094 L570.5,199.6094 L266.5,199.6094 " fill="#FEFFDD" style="stroke:#181818;stroke-width:0.5;"/><path d="M570.5,199.6094 L570.5,209.6094 L580.5,209.6094 L570.5,199.6094 " fill="#FEFFDD" style="stroke:#181818;stroke-width:0.5;"/><text fill="#000000" font-family="sans-serif" font-size="13" font-weight="bold" lengthAdjust="spacing" textLength="79" x="272.5" y="218.1045">Coordinador</text><text fill="#000000" font-family="sans-serif" font-size="13" lengthAdjust="spacing" textLength="210" x="355.5" y="218.1045">solicita editar una publicaci&#243;n propia</text></g><!--link MostrandoPublicacion to EditandoDatos--><g id="link_MostrandoPublicacion_EditandoDatos"><path d="M236.3,279.5094 C179.32,290.5894 45.5,316.6094 45.5,316.6094 C45.5,316.6094 45.5,499.6094 45.5,499.6094 C45.5,499.6094 173.4303,524.4841 230.4103,535.5641 " fill="none" id="MostrandoPublicacion-to-EditandoDatos" style="stroke:#008000;stroke-width:1.0;"/><polygon fill="#008000" points="236.3,536.7094,228.229,531.065,231.3919,535.755,226.702,538.9179,236.3,536.7094" style="stroke:#008000;stroke-width:1.0;"/><path d="M50.5,321.6094 L50.5,494.6094 L452.5,494.6094 L452.5,331.6094 L442.5,321.6094 L50.5,321.6094 " fill="#FEFFDD" style="stroke:#181818;stroke-width:0.5;"/><path d="M442.5,321.6094 L442.5,331.6094 L452.5,331.6094 L442.5,321.6094 " fill="#FEFFDD" style="stroke:#181818;stroke-width:0.5;"/><text fill="#000000" font-family="sans-serif" font-size="13" font-weight="bold" lengthAdjust="spacing" textLength="51" x="56.5" y="340.1045">Sistema</text><text fill="#000000" font-family="sans-serif" font-size="13" lengthAdjust="spacing" textLength="326" x="111.5" y="340.1045">presenta el formulario de edici&#243;n con los datos actuales:</text><text fill="#000000" font-family="sans-serif" font-size="13" lengthAdjust="spacing" textLength="40" x="56.5" y="356.4561">&#8226; T&#237;tulo</text><text fill="#000000" font-family="sans-serif" font-size="13" lengthAdjust="spacing" textLength="50" x="56.5" y="372.8076">&#8226; Estado</text><text fill="#000000" font-family="sans-serif" font-size="13" lengthAdjust="spacing" textLength="68" x="56.5" y="389.1592">&#8226; Visibilidad</text><text fill="#000000" font-family="sans-serif" font-size="13" lengthAdjust="spacing" textLength="77" x="56.5" y="405.5107">&#8226; Descripci&#243;n</text><text fill="#000000" font-family="sans-serif" font-size="13" lengthAdjust="spacing" textLength="120" x="56.5" y="421.8623">&#8226; Adjuntos (opcional)</text><text fill="#000000" font-family="sans-serif" font-size="13" lengthAdjust="spacing" textLength="4" x="56.5" y="438.2139">&#160;</text><text fill="#000000" font-family="sans-serif" font-size="13" lengthAdjust="spacing" textLength="247" x="56.5" y="454.5654">y permite solicitar las siguientes acciones:</text><text fill="#000000" font-family="sans-serif" font-size="13" lengthAdjust="spacing" textLength="108" x="56.5" y="470.917">&#8226; Guardar cambios</text><text fill="#000000" font-family="sans-serif" font-size="13" lengthAdjust="spacing" textLength="60" x="56.5" y="487.2686">&#8226; Cancelar</text></g><!--link EditandoDatos to *end*editarPublicacion--><g id="link_EditandoDatos_*end*editarPublicacion"><path d="M261.5,567.7094 C261.5,594.3794 261.5,630.1094 261.5,649.3094 " fill="none" id="EditandoDatos-to-*end*editarPublicacion" style="stroke:#008000;stroke-width:1.0;"/><polygon fill="#008000" points="261.5,655.3094,265.5,646.3094,261.5,650.3094,257.5,646.3094,261.5,655.3094" style="stroke:#008000;stroke-width:1.0;"/><path d="M266.5,590.6094 L266.5,632.6094 L544.5,632.6094 L544.5,600.6094 L534.5,590.6094 L266.5,590.6094 " fill="#FEFFDD" style="stroke:#181818;stroke-width:0.5;"/><path d="M534.5,590.6094 L534.5,600.6094 L544.5,600.6094 L534.5,590.6094 " fill="#FEFFDD" style="stroke:#181818;stroke-width:0.5;"/><text fill="#000000" font-family="sans-serif" font-size="13" font-weight="bold" lengthAdjust="spacing" textLength="79" x="272.5" y="609.1045">Coordinador</text><text fill="#000000" font-family="sans-serif" font-size="13" lengthAdjust="spacing" textLength="141" x="355.5" y="609.1045">solicita guardar cambios</text><text fill="#000000" font-family="sans-serif" font-size="13" font-weight="bold" lengthAdjust="spacing" textLength="51" x="272.5" y="625.4561">Sistema</text><text fill="#000000" font-family="sans-serif" font-size="13" lengthAdjust="spacing" textLength="202" x="327.5" y="625.4561">visualiza la publicaci&#243;n actualizada</text></g><!--link EditandoDatos to MostrandoPublicacion--><g id="link_EditandoDatos_MostrandoPublicacion"><path d="M286.72,536.2094 C339.66,524.8594 457.5,499.6094 457.5,499.6094 C457.5,499.6094 457.5,316.6094 457.5,316.6094 C457.5,316.6094 345.5267,292.6172 292.5867,281.2672 " fill="none" id="EditandoDatos-to-MostrandoPublicacion" style="stroke:#FF0000;stroke-width:1.0;"/><polygon fill="#FF0000" points="286.72,280.0094,294.6815,285.8072,291.6089,281.0575,296.3585,277.9849,286.72,280.0094" style="stroke:#FF0000;stroke-width:1.0;"/><path d="M462.5,387.1094 L462.5,429.1094 L744.5,429.1094 L744.5,397.1094 L734.5,387.1094 L462.5,387.1094 " fill="#FEFFDD" style="stroke:#181818;stroke-width:0.5;"/><path d="M734.5,387.1094 L734.5,397.1094 L744.5,397.1094 L734.5,387.1094 " fill="#FEFFDD" style="stroke:#181818;stroke-width:0.5;"/><text fill="#000000" font-family="sans-serif" font-size="13" font-weight="bold" lengthAdjust="spacing" textLength="79" x="468.5" y="405.6045">Coordinador</text><text fill="#000000" font-family="sans-serif" font-size="13" lengthAdjust="spacing" textLength="94" x="551.5" y="405.6045">solicita cancelar</text><text fill="#000000" font-family="sans-serif" font-size="13" font-weight="bold" lengthAdjust="spacing" textLength="51" x="468.5" y="421.9561">Sistema</text><text fill="#000000" font-family="sans-serif" font-size="13" lengthAdjust="spacing" textLength="206" x="523.5" y="421.9561">visualiza la publicaci&#243;n sin cambios</text></g><g id="MI_PUBLICACION_ABIERTA"><rect fill="#F1F1F1" height="50" rx="12.5" ry="12.5" style="stroke:#181818;stroke-width:0.5;" width="198" x="118" y="784"/><line style="stroke:#181818;stroke-width:0.5;" x1="118" x2="316" y1="811.6094" y2="811.6094"/><text fill="#000000" font-family="sans-serif" font-size="14" lengthAdjust="spacing" textLength="178" x="128" y="803.5332">MI_PUBLICACION_ABIERTA</text></g><g id="MIS_PUBLICACIONES_ABIERTAS"><rect fill="#F1F1F1" height="50" rx="12.5" ry="12.5" style="stroke:#181818;stroke-width:0.5;" width="234" x="550" y="784"/><line style="stroke:#181818;stroke-width:0.5;" x1="550" x2="784" y1="811.6094" y2="811.6094"/><text fill="#000000" font-family="sans-serif" font-size="14" lengthAdjust="spacing" textLength="214" x="560" y="803.5332">MIS_PUBLICACIONES_ABIERTAS</text></g><!--link in1 to editarPublicacion--><g id="link_in1_editarPublicacion"><path d="M394,57.21 C394,72.28 394,87.44 394,111.95 " fill="none" id="in1-to-editarPublicacion" style="stroke:#008000;stroke-width:1.0;"/><polygon fill="#008000" points="394,117.95,398,108.95,394,112.95,390,108.95,394,117.95" style="stroke:#008000;stroke-width:1.0;"/></g><!--link editarPublicacion to MI_PUBLICACION_ABIERTA--><g id="link_editarPublicacion_MI_PUBLICACION_ABIERTA"><path d="M42.85,688.18 C20.07,706.61 6,718 6,718 C6,718 6,754 6,754 C6,754 60.8373,768.0325 117.1073,782.4325 " fill="none" id="editarPublicacion-to-MI_PUBLICACION_ABIERTA" style="stroke:#008000;stroke-width:1.0;"/><polygon fill="#008000" points="122.92,783.92,115.1927,777.8136,118.0761,782.6804,113.2093,785.5638,122.92,783.92" style="stroke:#008000;stroke-width:1.0;"/><path d="M11,723 L11,749 L169,749 L169,733 L159,723 L11,723 " fill="#FEFFDD" style="stroke:#181818;stroke-width:0.5;"/><path d="M159,723 L159,733 L169,733 L159,723 " fill="#FEFFDD" style="stroke:#181818;stroke-width:0.5;"/><text fill="#000000" font-family="sans-serif" font-size="13" lengthAdjust="spacing" textLength="137" x="17" y="741.4951">Publicaci&#243;n actualizada</text></g><!--link editarPublicacion to MI_PUBLICACION_ABIERTA--><g id="link_editarPublicacion_MI_PUBLICACION_ABIERTA"><path d="M231.1,688.18 C220.53,706.61 214,718 214,718 C214,718 214,754 214,754 C214,754 214.5265,763.4793 215.3265,777.8493 " fill="none" id="editarPublicacion-to-MI_PUBLICACION_ABIERTA-1" style="stroke:#FF0000;stroke-width:1.0;"/><polygon fill="#FF0000" points="215.66,783.84,219.1535,774.6316,215.3821,778.8477,211.1659,775.0763,215.66,783.84" style="stroke:#FF0000;stroke-width:1.0;"/><path d="M219,723 L219,749 L346,749 L346,733 L336,723 L219,723 " fill="#FEFFDD" style="stroke:#181818;stroke-width:0.5;"/><path d="M336,723 L336,733 L346,733 L336,723 " fill="#FEFFDD" style="stroke:#181818;stroke-width:0.5;"/><text fill="#000000" font-family="sans-serif" font-size="13" lengthAdjust="spacing" textLength="106" x="225" y="741.4951">Edici&#243;n cancelada</text></g><!--link editarPublicacion to MI_PUBLICACION_ABIERTA--><g id="link_editarPublicacion_MI_PUBLICACION_ABIERTA"><path d="M362.34,688.17 C358,727.08 355,754 355,754 C355,754 321.068,767.285 284.318,781.655 " fill="none" id="editarPublicacion-to-MI_PUBLICACION_ABIERTA-2" style="stroke:#008000;stroke-width:1.0;"/><polygon fill="#008000" points="278.73,783.84,288.5687,784.2878,283.3867,782.0191,285.6553,776.8371,278.73,783.84" style="stroke:#008000;stroke-width:1.0;"/><path d="M364,723 L364,749 L492,749 L492,733 L482,723 L364,723 " fill="#FEFFDD" style="stroke:#181818;stroke-width:0.5;"/><path d="M482,723 L482,733 L492,733 L482,723 " fill="#FEFFDD" style="stroke:#181818;stroke-width:0.5;"/><text fill="#000000" font-family="sans-serif" font-size="13" lengthAdjust="spacing" textLength="107" x="370" y="741.4951">editarPublicacion()</text></g><!--link editarPublicacion to MIS_PUBLICACIONES_ABIERTAS--><g id="link_editarPublicacion_MIS_PUBLICACIONES_ABIERTAS"><path d="M536.08,688.17 C555.54,727.08 569,754 569,754 C569,754 591.8144,766.5753 617.9044,780.9453 " fill="none" id="editarPublicacion-to-MIS_PUBLICACIONES_ABIERTAS" style="stroke:#008000;stroke-width:1.0;"/><polygon fill="#008000" points="623.16,783.84,617.2065,775.9943,618.7804,781.4278,613.3469,783.0017,623.16,783.84" style="stroke:#008000;stroke-width:1.0;"/><path d="M574,723 L574,749 L715,749 L715,733 L705,723 L574,723 " fill="#FEFFDD" style="stroke:#181818;stroke-width:0.5;"/><path d="M705,723 L705,733 L715,733 L705,723 " fill="#FEFFDD" style="stroke:#181818;stroke-width:0.5;"/><text fill="#000000" font-family="sans-serif" font-size="13" lengthAdjust="spacing" textLength="120" x="580" y="741.4951">eliminarPublicacion()</text></g><!--link editarPublicacion to MIS_PUBLICACIONES_ABIERTAS--><g id="link_editarPublicacion_MIS_PUBLICACIONES_ABIERTAS"><path d="M692.66,688.18 C712.03,706.61 724,718 724,718 C724,718 724,754 724,754 C724,754 712.0373,765.3452 696.8573,779.7152 " fill="none" id="editarPublicacion-to-MIS_PUBLICACIONES_ABIERTAS-1" style="stroke:#008000;stroke-width:1.0;"/><polygon fill="#008000" points="692.5,783.84,701.7858,780.5577,696.1311,780.4027,696.2861,774.7479,692.5,783.84" style="stroke:#008000;stroke-width:1.0;"/><path d="M729,723 L729,749 L885,749 L885,733 L875,723 L729,723 " fill="#FEFFDD" style="stroke:#181818;stroke-width:0.5;"/><path d="M875,723 L875,733 L885,733 L875,723 " fill="#FEFFDD" style="stroke:#181818;stroke-width:0.5;"/><text fill="#000000" font-family="sans-serif" font-size="13" lengthAdjust="spacing" textLength="135" x="735" y="741.4951">abrirMisPublicaciones()</text></g><!--SRC=[jLJTQjim5BxtKnpIctPGocvB2QIfAO5b3KktcrBAiQM6iygIaEn1DWPxbjtlQe_GDzcJzCYkNQjnM0ARVQKZdUzFF_w1j4M71IZIibnR2TQeTHWaYI-nb43wBQ27qNnsj_Xu_cusdKndL-_l9kUpzCFrP9I4-UERWvMJKjyUZq4AAj4jganHZZaPtG9jJDIm6zN3en5yInBWh-aRySyhvyQN3hKmVUYDLMc0uqKNM1hVeDoykOq4RWNIXd5O5hj_g0jdsNXgZ1EaKHXtTfADmHjkOOfdDr1f1DlYFFxMO9snX7MxrAB6R6GCqKQwOkdR12t9bxB0MenrqaiTn2YuDwwe53eo8Egi6pbvQ3SUH005pCiAbVIdDTgV7p_X-l5NMIdJZLDEKxmCFv6dZ1G955tjGlhSaQtnk-94VAvqe3WqDZX3TTJONeELhY0sqaRdGF56ULfLnE9bK1Kw-gekAtI25-POPFGSHgXFKUUIJGx46wKNvShxl__shWOKl4h_2taEaxuY-udFG1CppmZSHQcJuj-ToxmVqSwAFUd8QgVuUv9itjleDWq-2qcaUR4jd9TW1adQO7QWIBi3t_Z_E_XU3WPUgJtmbts2TDbIB5znA2fuH_yp2sQEt9ny3qVwFiyJ]--></g></svg>